G04 Layer_Color=65535*
%FSLAX25Y25*%
%MOIN*%
G70*
G01*
G75*
%ADD10C,0.00800*%
%ADD32C,0.02000*%
%ADD35C,0.01000*%
%ADD87C,0.00984*%
%ADD88C,0.02362*%
%ADD89C,0.00787*%
G36*
X503577Y181620D02*
Y178361D01*
X481100Y169882D01*
Y173066D01*
X487173Y175251D01*
Y184694D01*
X481100Y186915D01*
Y190100D01*
X503577Y181620D01*
D02*
G37*
G36*
X468700Y160490D02*
X462721Y158231D01*
Y158194D01*
X468700Y155899D01*
Y154363D01*
X461000Y157510D01*
Y158953D01*
X468700Y162063D01*
Y160490D01*
D02*
G37*
G36*
X465146Y170097D02*
X465294Y170078D01*
X465461Y170059D01*
X465664Y170022D01*
X465868Y169985D01*
X466331Y169856D01*
X466572Y169763D01*
X466831Y169652D01*
X467071Y169541D01*
X467312Y169393D01*
X467553Y169227D01*
X467775Y169041D01*
X467793Y169023D01*
X467830Y168986D01*
X467886Y168930D01*
X467960Y168838D01*
X468052Y168745D01*
X468145Y168616D01*
X468256Y168468D01*
X468367Y168301D01*
X468460Y168116D01*
X468571Y167894D01*
X468756Y167431D01*
X468830Y167172D01*
X468885Y166894D01*
X468922Y166598D01*
X468941Y166302D01*
Y166283D01*
Y166228D01*
Y166135D01*
X468922Y166024D01*
X468904Y165876D01*
X468885Y165710D01*
X468848Y165524D01*
X468811Y165321D01*
X468663Y164895D01*
X468589Y164655D01*
X468478Y164432D01*
X468349Y164210D01*
X468200Y163988D01*
X468034Y163785D01*
X467830Y163581D01*
X467812Y163562D01*
X467775Y163544D01*
X467719Y163488D01*
X467627Y163414D01*
X467516Y163340D01*
X467367Y163266D01*
X467219Y163174D01*
X467034Y163063D01*
X466812Y162970D01*
X466590Y162878D01*
X466331Y162803D01*
X466053Y162730D01*
X465757Y162655D01*
X465442Y162600D01*
X465109Y162581D01*
X464739Y162563D01*
X464572Y162581D01*
Y168634D01*
X464461D01*
X464387Y168616D01*
X464184Y168579D01*
X463925Y168523D01*
X463628Y168431D01*
X463332Y168301D01*
X463018Y168116D01*
X462740Y167875D01*
X462703Y167838D01*
X462629Y167746D01*
X462518Y167598D01*
X462407Y167394D01*
X462277Y167135D01*
X462166Y166839D01*
X462092Y166506D01*
X462055Y166154D01*
Y166135D01*
Y166098D01*
X462074Y166024D01*
Y165932D01*
X462092Y165802D01*
X462129Y165673D01*
X462222Y165358D01*
X462296Y165191D01*
X462388Y165006D01*
X462499Y164840D01*
X462647Y164655D01*
X462795Y164469D01*
X462981Y164303D01*
X463203Y164136D01*
X463443Y163988D01*
X462814Y162692D01*
X462795D01*
X462777Y162711D01*
X462721Y162748D01*
X462647Y162785D01*
X462481Y162896D01*
X462259Y163063D01*
X462018Y163266D01*
X461759Y163525D01*
X461518Y163803D01*
X461296Y164136D01*
Y164155D01*
X461278Y164173D01*
X461241Y164229D01*
X461222Y164303D01*
X461130Y164488D01*
X461037Y164729D01*
X460926Y165043D01*
X460852Y165395D01*
X460778Y165784D01*
X460759Y166209D01*
Y166228D01*
Y166283D01*
Y166376D01*
X460778Y166487D01*
X460796Y166635D01*
X460815Y166802D01*
X460852Y166987D01*
X460907Y167190D01*
X461037Y167653D01*
X461130Y167875D01*
X461241Y168116D01*
X461370Y168357D01*
X461537Y168579D01*
X461703Y168801D01*
X461907Y169023D01*
X461926Y169041D01*
X461963Y169078D01*
X462018Y169115D01*
X462111Y169190D01*
X462240Y169282D01*
X462370Y169375D01*
X462536Y169467D01*
X462721Y169560D01*
X462907Y169671D01*
X463147Y169763D01*
X463388Y169856D01*
X463647Y169948D01*
X463925Y170022D01*
X464221Y170059D01*
X464517Y170097D01*
X464850Y170115D01*
X465017D01*
X465146Y170097D01*
D02*
G37*
G36*
X496504Y164957D02*
X494357D01*
Y164846D01*
X494394Y164808D01*
X494542Y164734D01*
X494764Y164549D01*
X495023Y164327D01*
X495283Y164068D01*
X495616Y163698D01*
X495912Y163290D01*
X496208Y162809D01*
X496245Y162735D01*
X496319Y162587D01*
X496467Y162291D01*
X496616Y161957D01*
X496727Y161550D01*
X496875Y161106D01*
X496949Y160587D01*
X496986Y160106D01*
Y160069D01*
Y160032D01*
Y159810D01*
X496949Y159513D01*
X496875Y159106D01*
X496801Y158624D01*
X496653Y158106D01*
X496467Y157588D01*
X496208Y157106D01*
X496171Y157032D01*
X496060Y156884D01*
X495875Y156662D01*
X495653Y156366D01*
X495320Y156069D01*
X494949Y155773D01*
X494505Y155477D01*
X494024Y155218D01*
X494061Y155181D01*
X494135Y155144D01*
X494283Y155033D01*
X494505Y154847D01*
X494727Y154662D01*
X494949Y154440D01*
X495246Y154144D01*
X495505Y153848D01*
X495764Y153477D01*
X496060Y153070D01*
X496282Y152626D01*
X496542Y152181D01*
X496727Y151663D01*
X496875Y151107D01*
X496949Y150552D01*
X496986Y149923D01*
Y149885D01*
Y149811D01*
Y149663D01*
X496949Y149478D01*
Y149256D01*
X496912Y148997D01*
X496801Y148404D01*
X496579Y147738D01*
X496282Y147034D01*
X495912Y146368D01*
X495653Y146071D01*
X495357Y145775D01*
X495283Y145701D01*
X495171Y145627D01*
X495060Y145553D01*
X494690Y145331D01*
X494172Y145035D01*
X493505Y144775D01*
X492690Y144553D01*
X491765Y144405D01*
X490691Y144331D01*
X481100D01*
Y147219D01*
X490617D01*
X490987Y147256D01*
X491468Y147330D01*
X491987Y147404D01*
X492505Y147553D01*
X492987Y147775D01*
X493394Y148034D01*
X493431Y148071D01*
X493542Y148182D01*
X493690Y148367D01*
X493875Y148663D01*
X494061Y149034D01*
X494209Y149478D01*
X494320Y150033D01*
X494357Y150663D01*
Y150737D01*
X494320Y150922D01*
X494283Y151256D01*
X494172Y151626D01*
X494024Y152070D01*
X493764Y152552D01*
X493394Y153033D01*
X492913Y153477D01*
X492838Y153514D01*
X492653Y153663D01*
X492357Y153811D01*
X491987Y154033D01*
X491505Y154218D01*
X490913Y154403D01*
X490283Y154551D01*
X489617Y154588D01*
X481100D01*
Y157477D01*
X490617D01*
X490987Y157514D01*
X491468Y157588D01*
X491987Y157662D01*
X492505Y157810D01*
X492987Y158032D01*
X493394Y158291D01*
X493431Y158328D01*
X493542Y158439D01*
X493690Y158624D01*
X493875Y158921D01*
X494061Y159291D01*
X494209Y159735D01*
X494320Y160291D01*
X494357Y160920D01*
Y160994D01*
X494320Y161180D01*
X494283Y161513D01*
X494172Y161883D01*
X494024Y162328D01*
X493764Y162809D01*
X493394Y163290D01*
X492913Y163735D01*
X492838Y163772D01*
X492653Y163920D01*
X492357Y164068D01*
X491987Y164290D01*
X491505Y164475D01*
X490913Y164660D01*
X490283Y164808D01*
X489617Y164846D01*
X481100D01*
Y167734D01*
X496504D01*
Y164957D01*
D02*
G37*
G36*
Y103228D02*
X493986D01*
Y103117D01*
X494024Y103079D01*
X494209Y103042D01*
X494431Y102894D01*
X494690Y102709D01*
X495023Y102487D01*
X495394Y102154D01*
X495727Y101784D01*
X496060Y101302D01*
X496097Y101228D01*
X496208Y101080D01*
X496319Y100784D01*
X496504Y100450D01*
X496653Y100043D01*
X496764Y99599D01*
X496875Y99080D01*
X496912Y98599D01*
Y98525D01*
Y98377D01*
Y98154D01*
X496875Y97858D01*
X496838Y97525D01*
X496764Y97192D01*
X496653Y96821D01*
X496542Y96488D01*
X493764Y97340D01*
Y97377D01*
X493801Y97451D01*
X493838Y97562D01*
X493875Y97747D01*
X493912Y98006D01*
X493949Y98303D01*
X493986Y98636D01*
Y99043D01*
Y99117D01*
X493949Y99302D01*
X493912Y99636D01*
X493838Y100006D01*
X493653Y100450D01*
X493431Y100932D01*
X493098Y101413D01*
X492653Y101894D01*
X492579Y101932D01*
X492431Y102080D01*
X492135Y102265D01*
X491765Y102487D01*
X491320Y102746D01*
X490802Y102931D01*
X490209Y103079D01*
X489580Y103117D01*
X481100D01*
Y106005D01*
X496504D01*
Y103228D01*
D02*
G37*
G36*
X489395Y123705D02*
X489691Y123668D01*
X490024Y123631D01*
X490432Y123557D01*
X490839Y123483D01*
X491765Y123224D01*
X492246Y123039D01*
X492765Y122817D01*
X493246Y122594D01*
X493727Y122298D01*
X494209Y121965D01*
X494653Y121595D01*
X494690Y121557D01*
X494764Y121483D01*
X494875Y121372D01*
X495023Y121187D01*
X495208Y121002D01*
X495394Y120743D01*
X495616Y120447D01*
X495838Y120113D01*
X496023Y119743D01*
X496245Y119299D01*
X496616Y118373D01*
X496764Y117854D01*
X496875Y117299D01*
X496949Y116707D01*
X496986Y116114D01*
Y116077D01*
Y115966D01*
Y115781D01*
X496949Y115559D01*
X496912Y115262D01*
X496875Y114929D01*
X496801Y114559D01*
X496727Y114152D01*
X496430Y113300D01*
X496282Y112818D01*
X496060Y112374D01*
X495801Y111930D01*
X495505Y111485D01*
X495171Y111078D01*
X494764Y110671D01*
X494727Y110634D01*
X494653Y110597D01*
X494542Y110485D01*
X494357Y110337D01*
X494135Y110189D01*
X493838Y110041D01*
X493542Y109856D01*
X493172Y109634D01*
X492727Y109449D01*
X492283Y109264D01*
X491765Y109115D01*
X491209Y108967D01*
X490617Y108819D01*
X489987Y108708D01*
X489321Y108671D01*
X488580Y108634D01*
X488247Y108671D01*
Y120780D01*
X488025D01*
X487877Y120743D01*
X487469Y120669D01*
X486951Y120558D01*
X486358Y120372D01*
X485766Y120113D01*
X485136Y119743D01*
X484581Y119262D01*
X484507Y119188D01*
X484359Y119002D01*
X484136Y118706D01*
X483914Y118299D01*
X483655Y117780D01*
X483433Y117188D01*
X483285Y116521D01*
X483211Y115818D01*
Y115781D01*
Y115707D01*
X483248Y115559D01*
Y115374D01*
X483285Y115114D01*
X483359Y114855D01*
X483544Y114225D01*
X483692Y113892D01*
X483877Y113522D01*
X484099Y113189D01*
X484396Y112818D01*
X484692Y112448D01*
X485062Y112115D01*
X485507Y111782D01*
X485988Y111485D01*
X484729Y108893D01*
X484692D01*
X484655Y108930D01*
X484544Y109004D01*
X484396Y109078D01*
X484062Y109300D01*
X483618Y109634D01*
X483137Y110041D01*
X482618Y110560D01*
X482137Y111115D01*
X481693Y111782D01*
Y111819D01*
X481656Y111856D01*
X481581Y111967D01*
X481544Y112115D01*
X481359Y112485D01*
X481174Y112967D01*
X480952Y113596D01*
X480804Y114300D01*
X480656Y115077D01*
X480619Y115929D01*
Y115966D01*
Y116077D01*
Y116262D01*
X480656Y116484D01*
X480693Y116781D01*
X480730Y117114D01*
X480804Y117484D01*
X480915Y117892D01*
X481174Y118817D01*
X481359Y119262D01*
X481581Y119743D01*
X481841Y120224D01*
X482174Y120669D01*
X482507Y121113D01*
X482914Y121557D01*
X482951Y121595D01*
X483026Y121669D01*
X483137Y121743D01*
X483322Y121891D01*
X483581Y122076D01*
X483840Y122261D01*
X484173Y122446D01*
X484544Y122631D01*
X484914Y122854D01*
X485395Y123039D01*
X485877Y123224D01*
X486395Y123409D01*
X486951Y123557D01*
X487543Y123631D01*
X488136Y123705D01*
X488802Y123742D01*
X489136D01*
X489395Y123705D01*
D02*
G37*
G36*
X503577Y138073D02*
X496504D01*
X494357Y138184D01*
Y138073D01*
X494394Y138036D01*
X494542Y137925D01*
X494764Y137740D01*
X495023Y137517D01*
X495357Y137221D01*
X495653Y136851D01*
X495949Y136407D01*
X496245Y135925D01*
X496282Y135851D01*
X496356Y135666D01*
X496467Y135407D01*
X496616Y134999D01*
X496764Y134555D01*
X496875Y134000D01*
X496949Y133444D01*
X496986Y132815D01*
Y132778D01*
Y132667D01*
Y132518D01*
X496949Y132296D01*
X496912Y132037D01*
X496875Y131741D01*
X496690Y131037D01*
X496393Y130222D01*
X496208Y129778D01*
X495986Y129371D01*
X495727Y128926D01*
X495394Y128482D01*
X495023Y128075D01*
X494616Y127667D01*
X494579Y127630D01*
X494505Y127556D01*
X494357Y127482D01*
X494172Y127334D01*
X493949Y127149D01*
X493653Y126964D01*
X493357Y126779D01*
X492987Y126557D01*
X492579Y126371D01*
X492135Y126186D01*
X491135Y125816D01*
X490580Y125668D01*
X490024Y125594D01*
X489432Y125520D01*
X488802Y125483D01*
X488469D01*
X488210Y125520D01*
X487914Y125557D01*
X487580Y125594D01*
X487210Y125668D01*
X486766Y125742D01*
X485877Y126001D01*
X485358Y126186D01*
X484877Y126408D01*
X484396Y126668D01*
X483877Y126927D01*
X483433Y127297D01*
X482951Y127667D01*
X482914Y127704D01*
X482840Y127778D01*
X482729Y127890D01*
X482581Y128038D01*
X482396Y128260D01*
X482211Y128482D01*
X481989Y128778D01*
X481804Y129112D01*
X481359Y129852D01*
X480989Y130741D01*
X480841Y131222D01*
X480730Y131704D01*
X480656Y132259D01*
X480619Y132815D01*
Y132889D01*
Y133111D01*
X480656Y133444D01*
X480693Y133851D01*
X480804Y134333D01*
X480915Y134851D01*
X481100Y135370D01*
X481322Y135925D01*
X481359Y135999D01*
X481470Y136147D01*
X481618Y136407D01*
X481841Y136703D01*
X482100Y137036D01*
X482433Y137406D01*
X482803Y137740D01*
X483211Y138073D01*
Y138184D01*
X481100D01*
Y140961D01*
X503577D01*
Y138073D01*
D02*
G37*
G36*
X470263Y135550D02*
X470318Y135531D01*
X470392Y135513D01*
X470577Y135420D01*
X470818Y135291D01*
X471077Y135143D01*
X471355Y134921D01*
X471632Y134680D01*
X471910Y134365D01*
Y134347D01*
X471947Y134328D01*
X471966Y134273D01*
X472021Y134199D01*
X472132Y134014D01*
X472262Y133755D01*
X472373Y133440D01*
X472484Y133088D01*
X472558Y132681D01*
X472595Y132237D01*
Y132218D01*
Y132163D01*
Y132089D01*
X472576Y131996D01*
Y131867D01*
X472539Y131718D01*
X472484Y131385D01*
X472373Y130997D01*
X472206Y130589D01*
X472114Y130386D01*
X471984Y130201D01*
X471854Y129997D01*
X471688Y129812D01*
X471669Y129793D01*
X471651Y129775D01*
X471595Y129719D01*
X471521Y129664D01*
X471336Y129497D01*
X471077Y129312D01*
X470762Y129146D01*
X470392Y128979D01*
X469967Y128868D01*
X469744Y128849D01*
X469504Y128831D01*
X469430D01*
X469356Y128849D01*
X469226D01*
X469097Y128886D01*
X468911Y128923D01*
X468726Y128979D01*
X468504Y129053D01*
X468264Y129146D01*
X468005Y129257D01*
X467727Y129386D01*
X467431Y129553D01*
X467116Y129756D01*
X466801Y129979D01*
X466468Y130256D01*
X466135Y130552D01*
X462970Y133699D01*
Y128701D01*
X461600D01*
Y135568D01*
X463044D01*
X465857Y132773D01*
X465876Y132755D01*
X465913Y132718D01*
X465987Y132644D01*
X466098Y132551D01*
X466209Y132440D01*
X466339Y132311D01*
X466653Y132015D01*
X467005Y131700D01*
X467357Y131367D01*
X467690Y131089D01*
X467838Y130959D01*
X467986Y130849D01*
X468023Y130830D01*
X468116Y130756D01*
X468264Y130682D01*
X468449Y130571D01*
X468671Y130478D01*
X468930Y130386D01*
X469208Y130330D01*
X469504Y130312D01*
X469615D01*
X469744Y130349D01*
X469911Y130386D01*
X470115Y130441D01*
X470300Y130552D01*
X470503Y130682D01*
X470707Y130867D01*
X470725Y130886D01*
X470781Y130959D01*
X470873Y131089D01*
X470966Y131237D01*
X471040Y131441D01*
X471133Y131681D01*
X471188Y131959D01*
X471207Y132274D01*
Y132311D01*
Y132403D01*
X471188Y132533D01*
X471151Y132718D01*
X471096Y132903D01*
X471022Y133125D01*
X470911Y133347D01*
X470762Y133551D01*
X470744Y133569D01*
X470688Y133643D01*
X470596Y133736D01*
X470466Y133829D01*
X470318Y133958D01*
X470133Y134069D01*
X469930Y134162D01*
X469707Y134236D01*
X470226Y135568D01*
X470244D01*
X470263Y135550D01*
D02*
G37*
G36*
X472836Y125703D02*
X469300D01*
X468227Y125758D01*
Y125703D01*
X468245Y125684D01*
X468319Y125629D01*
X468430Y125536D01*
X468560Y125425D01*
X468726Y125277D01*
X468874Y125092D01*
X469023Y124870D01*
X469171Y124629D01*
X469189Y124592D01*
X469226Y124499D01*
X469282Y124370D01*
X469356Y124166D01*
X469430Y123944D01*
X469485Y123667D01*
X469522Y123389D01*
X469541Y123074D01*
Y123056D01*
Y123000D01*
Y122926D01*
X469522Y122815D01*
X469504Y122686D01*
X469485Y122538D01*
X469393Y122186D01*
X469245Y121779D01*
X469152Y121556D01*
X469041Y121353D01*
X468911Y121131D01*
X468745Y120909D01*
X468560Y120705D01*
X468356Y120501D01*
X468338Y120483D01*
X468301Y120446D01*
X468227Y120409D01*
X468134Y120335D01*
X468023Y120242D01*
X467875Y120150D01*
X467727Y120057D01*
X467542Y119946D01*
X467338Y119853D01*
X467116Y119761D01*
X466616Y119576D01*
X466339Y119502D01*
X466061Y119465D01*
X465765Y119428D01*
X465450Y119409D01*
X465283D01*
X465154Y119428D01*
X465006Y119446D01*
X464839Y119465D01*
X464654Y119502D01*
X464432Y119539D01*
X463988Y119668D01*
X463729Y119761D01*
X463488Y119872D01*
X463247Y120002D01*
X462988Y120131D01*
X462766Y120316D01*
X462526Y120501D01*
X462507Y120520D01*
X462470Y120557D01*
X462414Y120612D01*
X462340Y120686D01*
X462248Y120798D01*
X462155Y120909D01*
X462044Y121057D01*
X461952Y121223D01*
X461730Y121593D01*
X461545Y122038D01*
X461470Y122278D01*
X461415Y122519D01*
X461378Y122797D01*
X461359Y123074D01*
Y123111D01*
Y123222D01*
X461378Y123389D01*
X461396Y123592D01*
X461452Y123833D01*
X461507Y124092D01*
X461600Y124351D01*
X461711Y124629D01*
X461730Y124666D01*
X461785Y124740D01*
X461859Y124870D01*
X461970Y125018D01*
X462100Y125184D01*
X462266Y125370D01*
X462452Y125536D01*
X462655Y125703D01*
Y125758D01*
X461600D01*
Y127146D01*
X472836D01*
Y125703D01*
D02*
G37*
G36*
X464580Y146304D02*
X464562D01*
X464543Y146286D01*
X464432Y146249D01*
X464265Y146193D01*
X464062Y146101D01*
X463840Y145990D01*
X463618Y145842D01*
X463396Y145675D01*
X463192Y145471D01*
X463173Y145453D01*
X463118Y145360D01*
X463044Y145249D01*
X462970Y145083D01*
X462877Y144879D01*
X462803Y144657D01*
X462748Y144379D01*
X462729Y144102D01*
Y144083D01*
Y144065D01*
Y143954D01*
X462766Y143787D01*
X462803Y143583D01*
X462859Y143343D01*
X462951Y143084D01*
X463081Y142824D01*
X463266Y142565D01*
X463284Y142547D01*
X463377Y142473D01*
X463488Y142362D01*
X463655Y142251D01*
X463858Y142140D01*
X464080Y142028D01*
X464358Y141954D01*
X464636Y141936D01*
X464673D01*
X464765Y141954D01*
X464913Y141973D01*
X465117Y142010D01*
X465320Y142103D01*
X465543Y142214D01*
X465783Y142380D01*
X465987Y142602D01*
X466005Y142639D01*
X466079Y142713D01*
X466172Y142861D01*
X466264Y143046D01*
X466376Y143269D01*
X466450Y143528D01*
X466524Y143824D01*
X466542Y144157D01*
Y145083D01*
X467893D01*
Y144268D01*
Y144250D01*
Y144231D01*
Y144120D01*
X467912Y143972D01*
X467949Y143768D01*
X468005Y143546D01*
X468097Y143306D01*
X468208Y143084D01*
X468375Y142861D01*
X468393Y142843D01*
X468467Y142769D01*
X468560Y142676D01*
X468708Y142584D01*
X468893Y142473D01*
X469097Y142399D01*
X469337Y142325D01*
X469615Y142306D01*
X469726D01*
X469874Y142325D01*
X470022Y142362D01*
X470207Y142436D01*
X470411Y142528D01*
X470596Y142658D01*
X470762Y142824D01*
X470781Y142843D01*
X470836Y142917D01*
X470911Y143028D01*
X470985Y143195D01*
X471059Y143380D01*
X471133Y143620D01*
X471188Y143898D01*
X471207Y144194D01*
Y144213D01*
Y144250D01*
Y144324D01*
X471188Y144416D01*
X471170Y144527D01*
X471133Y144657D01*
X471040Y144935D01*
X470966Y145101D01*
X470873Y145249D01*
X470762Y145416D01*
X470614Y145564D01*
X470466Y145712D01*
X470281Y145842D01*
X470059Y145953D01*
X469818Y146064D01*
X470374Y147396D01*
X470392D01*
X470411Y147378D01*
X470466Y147359D01*
X470540Y147322D01*
X470725Y147248D01*
X470948Y147119D01*
X471207Y146952D01*
X471484Y146748D01*
X471743Y146489D01*
X471984Y146193D01*
Y146175D01*
X472003Y146156D01*
X472077Y146045D01*
X472169Y145860D01*
X472299Y145619D01*
X472410Y145323D01*
X472502Y144990D01*
X472576Y144601D01*
X472595Y144194D01*
Y144176D01*
Y144139D01*
Y144065D01*
X472576Y143954D01*
Y143824D01*
X472558Y143694D01*
X472484Y143361D01*
X472391Y142973D01*
X472243Y142584D01*
X472021Y142177D01*
X471892Y141973D01*
X471743Y141788D01*
Y141769D01*
X471706Y141751D01*
X471595Y141640D01*
X471410Y141492D01*
X471170Y141307D01*
X470873Y141121D01*
X470503Y140973D01*
X470078Y140862D01*
X469855Y140844D01*
X469615Y140825D01*
X469467D01*
X469356Y140844D01*
X469226Y140862D01*
X469078Y140899D01*
X468745Y141010D01*
X468560Y141085D01*
X468375Y141177D01*
X468190Y141288D01*
X467986Y141436D01*
X467801Y141603D01*
X467634Y141788D01*
X467468Y142010D01*
X467320Y142269D01*
X467246D01*
Y142251D01*
X467227Y142232D01*
X467171Y142121D01*
X467098Y141973D01*
X466986Y141788D01*
X466838Y141566D01*
X466653Y141362D01*
X466431Y141140D01*
X466190Y140955D01*
X466153Y140936D01*
X466079Y140881D01*
X465931Y140807D01*
X465746Y140714D01*
X465506Y140622D01*
X465246Y140548D01*
X464950Y140492D01*
X464636Y140474D01*
X464506D01*
X464395Y140492D01*
X464284Y140511D01*
X464136Y140529D01*
X463821Y140603D01*
X463451Y140733D01*
X463247Y140807D01*
X463044Y140918D01*
X462859Y141048D01*
X462655Y141177D01*
X462470Y141344D01*
X462285Y141529D01*
X462266Y141547D01*
X462248Y141584D01*
X462192Y141640D01*
X462137Y141714D01*
X462063Y141806D01*
X461989Y141936D01*
X461915Y142084D01*
X461822Y142232D01*
X461656Y142621D01*
X461507Y143046D01*
X461396Y143546D01*
X461378Y143824D01*
X461359Y144102D01*
Y144120D01*
Y144157D01*
Y144213D01*
X461378Y144305D01*
Y144416D01*
X461396Y144527D01*
X461452Y144824D01*
X461526Y145157D01*
X461656Y145527D01*
X461822Y145916D01*
X462063Y146286D01*
X462081Y146304D01*
X462100Y146323D01*
X462192Y146452D01*
X462359Y146619D01*
X462600Y146823D01*
X462877Y147045D01*
X463210Y147267D01*
X463599Y147452D01*
X464025Y147618D01*
X464580Y146304D01*
D02*
G37*
G36*
X462729Y139067D02*
X462840Y139048D01*
X462951Y139011D01*
X463081Y138956D01*
X463210Y138882D01*
X463321Y138771D01*
X463340Y138752D01*
X463377Y138715D01*
X463414Y138641D01*
X463488Y138549D01*
X463544Y138438D01*
X463581Y138308D01*
X463618Y138178D01*
X463636Y138012D01*
Y137993D01*
Y137938D01*
X463618Y137845D01*
X463599Y137734D01*
X463562Y137623D01*
X463507Y137494D01*
X463433Y137364D01*
X463321Y137253D01*
X463303Y137234D01*
X463266Y137197D01*
X463210Y137160D01*
X463118Y137086D01*
X463007Y137031D01*
X462877Y136994D01*
X462729Y136957D01*
X462563Y136938D01*
X462489D01*
X462414Y136957D01*
X462303Y136975D01*
X462174Y137012D01*
X462063Y137068D01*
X461933Y137142D01*
X461804Y137253D01*
X461785Y137271D01*
X461767Y137308D01*
X461711Y137364D01*
X461656Y137457D01*
X461600Y137568D01*
X461563Y137697D01*
X461526Y137845D01*
X461507Y138012D01*
Y138030D01*
Y138086D01*
X461526Y138160D01*
X461545Y138271D01*
X461582Y138400D01*
X461637Y138512D01*
X461711Y138641D01*
X461804Y138771D01*
X461822Y138789D01*
X461859Y138826D01*
X461933Y138863D01*
X462026Y138919D01*
X462137Y138993D01*
X462266Y139030D01*
X462396Y139067D01*
X462563Y139085D01*
X462637D01*
X462729Y139067D01*
D02*
G37*
G36*
X472236Y174668D02*
Y174650D01*
Y174594D01*
Y174520D01*
X472217Y174428D01*
X472198Y174298D01*
X472180Y174150D01*
X472124Y173817D01*
X471995Y173428D01*
X471828Y173003D01*
X471717Y172799D01*
X471588Y172595D01*
X471440Y172392D01*
X471273Y172188D01*
X471254Y172170D01*
X471236Y172151D01*
X471180Y172096D01*
X471106Y172021D01*
X471014Y171948D01*
X470903Y171855D01*
X470625Y171670D01*
X470273Y171485D01*
X469866Y171318D01*
X469404Y171189D01*
X469163Y171170D01*
X468904Y171151D01*
X468793D01*
X468700Y171170D01*
X468608D01*
X468497Y171189D01*
X468200Y171244D01*
X467886Y171337D01*
X467534Y171466D01*
X467182Y171651D01*
X466831Y171910D01*
X466812D01*
X466794Y171948D01*
X466683Y172040D01*
X466535Y172207D01*
X466349Y172429D01*
X466146Y172706D01*
X465961Y173040D01*
X465794Y173410D01*
X465683Y173836D01*
X465627Y173872D01*
X461056Y170707D01*
X461000D01*
Y172429D01*
X465554Y175464D01*
Y177056D01*
X461000D01*
Y178500D01*
X472236D01*
Y174668D01*
D02*
G37*
%LPC*%
G36*
X489876Y183731D02*
Y176251D01*
X500022Y179917D01*
Y180065D01*
X489876Y183731D01*
D02*
G37*
G36*
X465776Y168523D02*
Y164099D01*
X465813D01*
X465905Y164118D01*
X466053Y164155D01*
X466238Y164210D01*
X466442Y164303D01*
X466664Y164414D01*
X466886Y164562D01*
X467090Y164766D01*
X467108Y164784D01*
X467182Y164877D01*
X467256Y165006D01*
X467367Y165173D01*
X467460Y165395D01*
X467553Y165673D01*
X467608Y165987D01*
X467627Y166339D01*
Y166376D01*
Y166469D01*
X467608Y166635D01*
X467571Y166820D01*
X467497Y167042D01*
X467405Y167283D01*
X467275Y167524D01*
X467108Y167746D01*
X467090Y167764D01*
X467016Y167838D01*
X466905Y167949D01*
X466757Y168060D01*
X466572Y168190D01*
X466331Y168319D01*
X466072Y168431D01*
X465776Y168523D01*
D02*
G37*
G36*
X490654Y120558D02*
Y111707D01*
X490728D01*
X490913Y111744D01*
X491209Y111819D01*
X491579Y111930D01*
X491987Y112115D01*
X492431Y112337D01*
X492875Y112633D01*
X493283Y113041D01*
X493320Y113078D01*
X493468Y113263D01*
X493616Y113522D01*
X493838Y113855D01*
X494024Y114300D01*
X494209Y114855D01*
X494320Y115484D01*
X494357Y116188D01*
Y116262D01*
Y116447D01*
X494320Y116781D01*
X494246Y117151D01*
X494098Y117595D01*
X493912Y118077D01*
X493653Y118558D01*
X493320Y119002D01*
X493283Y119039D01*
X493135Y119188D01*
X492913Y119410D01*
X492616Y119632D01*
X492246Y119891D01*
X491765Y120150D01*
X491246Y120372D01*
X490654Y120558D01*
D02*
G37*
G36*
X488802Y138184D02*
X488580D01*
X488395Y138147D01*
X488173D01*
X487951Y138110D01*
X487358Y137999D01*
X486729Y137851D01*
X486062Y137592D01*
X485395Y137258D01*
X484766Y136814D01*
X484692Y136740D01*
X484507Y136555D01*
X484285Y136258D01*
X483988Y135851D01*
X483692Y135333D01*
X483470Y134740D01*
X483285Y134037D01*
X483211Y133296D01*
Y133259D01*
Y133185D01*
Y133111D01*
X483248Y132963D01*
X483285Y132555D01*
X483396Y132074D01*
X483618Y131518D01*
X483877Y130963D01*
X484285Y130371D01*
X484507Y130074D01*
X484803Y129815D01*
X484877Y129741D01*
X485062Y129593D01*
X485432Y129371D01*
X485877Y129075D01*
X486432Y128815D01*
X487136Y128593D01*
X487914Y128445D01*
X488802Y128371D01*
X489024D01*
X489210Y128408D01*
X489395D01*
X489654Y128445D01*
X490209Y128556D01*
X490839Y128704D01*
X491505Y128963D01*
X492135Y129334D01*
X492765Y129815D01*
X492802D01*
X492838Y129889D01*
X493024Y130074D01*
X493283Y130371D01*
X493579Y130778D01*
X493838Y131296D01*
X494098Y131889D01*
X494283Y132555D01*
X494357Y132926D01*
Y133296D01*
Y133333D01*
Y133370D01*
Y133481D01*
X494320Y133629D01*
X494283Y134037D01*
X494172Y134518D01*
X493986Y135073D01*
X493690Y135666D01*
X493283Y136258D01*
X493061Y136555D01*
X492765Y136814D01*
X492690Y136888D01*
X492468Y137036D01*
X492135Y137258D01*
X491691Y137480D01*
X491098Y137740D01*
X490432Y137962D01*
X489654Y138110D01*
X488802Y138184D01*
D02*
G37*
G36*
X465450Y125758D02*
X465339D01*
X465246Y125740D01*
X465135D01*
X465024Y125721D01*
X464728Y125666D01*
X464413Y125592D01*
X464080Y125462D01*
X463747Y125295D01*
X463433Y125073D01*
X463396Y125036D01*
X463303Y124944D01*
X463192Y124796D01*
X463044Y124592D01*
X462896Y124333D01*
X462785Y124037D01*
X462692Y123685D01*
X462655Y123315D01*
Y123296D01*
Y123259D01*
Y123222D01*
X462674Y123148D01*
X462692Y122945D01*
X462748Y122704D01*
X462859Y122426D01*
X462988Y122149D01*
X463192Y121853D01*
X463303Y121704D01*
X463451Y121575D01*
X463488Y121538D01*
X463581Y121464D01*
X463766Y121353D01*
X463988Y121205D01*
X464265Y121075D01*
X464617Y120964D01*
X465006Y120890D01*
X465450Y120853D01*
X465561D01*
X465654Y120872D01*
X465746D01*
X465876Y120890D01*
X466153Y120946D01*
X466468Y121020D01*
X466801Y121149D01*
X467116Y121334D01*
X467431Y121575D01*
X467449D01*
X467468Y121612D01*
X467560Y121704D01*
X467690Y121853D01*
X467838Y122056D01*
X467967Y122315D01*
X468097Y122611D01*
X468190Y122945D01*
X468227Y123130D01*
Y123315D01*
Y123333D01*
Y123352D01*
Y123407D01*
X468208Y123482D01*
X468190Y123685D01*
X468134Y123926D01*
X468042Y124203D01*
X467893Y124499D01*
X467690Y124796D01*
X467579Y124944D01*
X467431Y125073D01*
X467394Y125110D01*
X467283Y125184D01*
X467116Y125295D01*
X466894Y125407D01*
X466598Y125536D01*
X466264Y125647D01*
X465876Y125721D01*
X465450Y125758D01*
D02*
G37*
G36*
X470866Y177056D02*
X466905D01*
Y174742D01*
Y174724D01*
Y174705D01*
X466923Y174594D01*
X466942Y174428D01*
X466979Y174224D01*
X467053Y173984D01*
X467145Y173743D01*
X467293Y173484D01*
X467479Y173243D01*
X467497Y173225D01*
X467590Y173151D01*
X467701Y173058D01*
X467867Y172929D01*
X468071Y172817D01*
X468330Y172725D01*
X468608Y172651D01*
X468904Y172632D01*
X469033D01*
X469181Y172669D01*
X469367Y172706D01*
X469589Y172780D01*
X469811Y172873D01*
X470051Y173021D01*
X470273Y173206D01*
X470292Y173225D01*
X470366Y173317D01*
X470459Y173428D01*
X470570Y173595D01*
X470681Y173817D01*
X470773Y174058D01*
X470847Y174335D01*
X470866Y174650D01*
Y177056D01*
D02*
G37*
%LPD*%
D10*
X556213Y286968D02*
X571654Y271528D01*
X553385Y286968D02*
X571654Y268699D01*
X561870Y286968D02*
X571654Y277185D01*
X559042Y286968D02*
X571654Y274356D01*
X544900Y286968D02*
X571654Y260214D01*
X542071Y286968D02*
X571654Y257386D01*
X550557Y286968D02*
X571654Y265871D01*
X547728Y286968D02*
X571654Y263042D01*
X530758Y286968D02*
X571654Y246072D01*
X527929Y286968D02*
X571654Y243243D01*
X539243Y286968D02*
X571654Y254557D01*
X536414Y286968D02*
X571654Y251729D01*
X519444Y286968D02*
X571654Y234758D01*
X516615Y286968D02*
X571654Y231930D01*
X525101Y286968D02*
X571654Y240415D01*
X522272Y286968D02*
X571654Y237587D01*
X564699Y286968D02*
X571654Y280013D01*
X533586Y286968D02*
X571654Y248900D01*
X570356Y286968D02*
X571654Y285670D01*
X567527Y286968D02*
X571654Y282841D01*
X506693Y260121D02*
X571654Y195160D01*
X506693Y193296D02*
X571654Y258257D01*
X513787Y286968D02*
X571654Y229101D01*
X506693Y196124D02*
X571654Y261085D01*
X506693Y254464D02*
X571654Y189503D01*
X506693Y187639D02*
X571654Y252600D01*
X506693Y257292D02*
X571654Y192332D01*
X506693Y190468D02*
X571654Y255428D01*
X506693Y184811D02*
X571654Y249771D01*
X506693Y248807D02*
X571654Y183846D01*
X506693Y251636D02*
X571654Y186675D01*
X506693Y247036D02*
X546625Y286968D01*
X506693Y244208D02*
X549453Y286968D01*
X506693Y252693D02*
X540968Y286968D01*
X506693Y249865D02*
X543796Y286968D01*
X510958D02*
X571654Y226273D01*
X508130Y286968D02*
X571654Y223444D01*
X506693Y241379D02*
X552281Y286968D01*
X506693Y227237D02*
X566424Y286968D01*
X506693Y275321D02*
X518340Y286968D01*
X506693Y272492D02*
X521169Y286968D01*
X506693Y286634D02*
X507027Y286968D01*
X506693Y278149D02*
X515512Y286968D01*
X506693Y232894D02*
X560767Y286968D01*
X506693Y230066D02*
X563595Y286968D01*
X506693Y238551D02*
X555110Y286968D01*
X506693Y235722D02*
X557938Y286968D01*
X506693Y271434D02*
X571654Y206474D01*
X506693Y204610D02*
X571654Y269570D01*
X506693Y264007D02*
X529654Y286968D01*
X506693Y207438D02*
X571654Y272399D01*
X506693Y265778D02*
X571654Y200817D01*
X506693Y198953D02*
X571654Y263914D01*
X506693Y268606D02*
X571654Y203645D01*
X506693Y201781D02*
X571654Y266742D01*
X506693Y269664D02*
X523997Y286968D01*
X506693Y266835D02*
X526826Y286968D01*
X506693Y283806D02*
X509855Y286968D01*
X506693Y280977D02*
X512683Y286968D01*
X506693Y258350D02*
X535311Y286968D01*
X506693Y255521D02*
X538139Y286968D01*
X506693Y261178D02*
X532482Y286968D01*
X516786Y8228D02*
X571654Y63095D01*
X519615Y8228D02*
X571654Y60267D01*
X511129Y8228D02*
X571654Y68752D01*
X513958Y8228D02*
X571654Y65924D01*
Y8228D02*
Y286968D01*
X528100Y8228D02*
X571654Y51781D01*
X522443Y8228D02*
X571654Y57438D01*
X525272Y8228D02*
X571654Y54610D01*
X506693Y200724D02*
X571654Y135763D01*
X506693Y133899D02*
X571654Y198860D01*
X506693Y203552D02*
X571654Y138592D01*
X506693Y136727D02*
X571654Y201688D01*
X508301Y8228D02*
X571654Y71580D01*
X508301Y8228D02*
X571654Y71580D01*
X506693Y197895D02*
X571654Y132935D01*
X506693Y131071D02*
X571654Y196031D01*
X556384Y8228D02*
X571654Y23497D01*
X559213Y8228D02*
X571654Y20669D01*
X550727Y8228D02*
X571654Y29154D01*
X553556Y8228D02*
X571654Y26326D01*
X567698Y8228D02*
X571654Y12183D01*
X570526Y8228D02*
X571654Y9355D01*
X562041Y8228D02*
X571654Y17840D01*
X564870Y8228D02*
X571654Y15012D01*
X536585Y8228D02*
X571654Y43296D01*
X539414Y8228D02*
X571654Y40468D01*
X530928Y8228D02*
X571654Y48953D01*
X533757Y8228D02*
X571654Y46125D01*
X545071Y8228D02*
X571654Y34811D01*
X547899Y8228D02*
X571654Y31982D01*
X542242Y8228D02*
X571654Y37639D01*
X506693Y167840D02*
X571654Y232801D01*
X506693Y231837D02*
X571654Y166876D01*
X506693Y170669D02*
X571654Y235629D01*
X506693Y234665D02*
X571654Y169704D01*
X506693Y162183D02*
X571654Y227144D01*
X506693Y226180D02*
X571654Y161219D01*
X506693Y165012D02*
X571654Y229972D01*
X506693Y229008D02*
X571654Y164047D01*
X506693Y179154D02*
X571654Y244115D01*
X506693Y243150D02*
X571654Y178190D01*
X506693Y181982D02*
X571654Y246943D01*
X506693Y245979D02*
X571654Y181018D01*
X506693Y173497D02*
X571654Y238458D01*
X506693Y237493D02*
X571654Y172533D01*
X506693Y176326D02*
X571654Y241286D01*
X506693Y240322D02*
X571654Y175361D01*
X506693Y212037D02*
X571654Y147077D01*
X506693Y145213D02*
X571654Y210173D01*
X506693Y214866D02*
X571654Y149905D01*
X506693Y148041D02*
X571654Y213002D01*
X506693Y206381D02*
X571654Y141420D01*
X506693Y139556D02*
X571654Y204517D01*
X506693Y209209D02*
X571654Y144248D01*
X506693Y142384D02*
X571654Y207345D01*
X506693Y156527D02*
X571654Y221487D01*
X506693Y220523D02*
X571654Y155562D01*
X506693Y159355D02*
X571654Y224316D01*
X506693Y223351D02*
X571654Y158390D01*
X506693Y217694D02*
X571654Y152734D01*
X506693Y150870D02*
X571654Y215830D01*
X506693Y153698D02*
X571654Y218659D01*
X506693Y274263D02*
X571654Y209302D01*
X506693Y262949D02*
X571654Y197989D01*
X506693Y277091D02*
X571654Y212131D01*
X506693Y210267D02*
X571654Y275227D01*
X506693Y192238D02*
X571654Y127278D01*
X506693Y125414D02*
X571654Y190374D01*
X506693Y195067D02*
X571654Y130106D01*
X506693Y128242D02*
X571654Y193203D01*
X506693Y285577D02*
X571654Y220616D01*
X506693Y218752D02*
X571654Y283713D01*
X506693Y286968D02*
X571654D01*
X506693Y221580D02*
X571654Y286541D01*
X506693Y279920D02*
X571654Y214959D01*
X506693Y213095D02*
X571654Y278056D01*
X506693Y282748D02*
X571654Y217788D01*
X506693Y215924D02*
X571654Y280884D01*
X506693Y111272D02*
X571654Y176232D01*
X506693Y175268D02*
X571654Y110307D01*
X506693Y114100D02*
X571654Y179061D01*
X506693Y178096D02*
X571654Y113136D01*
X506693Y105615D02*
X571654Y170575D01*
X506693Y169611D02*
X571654Y104650D01*
X506693Y108443D02*
X571654Y173404D01*
X506693Y172439D02*
X571654Y107479D01*
X506693Y186582D02*
X571654Y121621D01*
X506693Y119757D02*
X571654Y184718D01*
X506693Y189410D02*
X571654Y124449D01*
X506693Y122585D02*
X571654Y187546D01*
X506693Y116929D02*
X571654Y181889D01*
X506693Y180925D02*
X571654Y115964D01*
X506693Y183753D02*
X571654Y118792D01*
X506693Y155469D02*
X571654Y90508D01*
X506693Y88644D02*
X571654Y153605D01*
X506693Y158297D02*
X571654Y93337D01*
X506693Y91473D02*
X571654Y156433D01*
X506693Y149812D02*
X571654Y84851D01*
X506693Y82987D02*
X571654Y147948D01*
X506693Y152640D02*
X571654Y87680D01*
X506693Y85816D02*
X571654Y150776D01*
X506693Y166783D02*
X571654Y101822D01*
X506693Y99958D02*
X571654Y164918D01*
X506693Y224409D02*
X569252Y286968D01*
X506693Y102786D02*
X571654Y167747D01*
X506693Y161126D02*
X571654Y96165D01*
X506693Y94301D02*
X571654Y159262D01*
X506693Y163954D02*
X571654Y98993D01*
X506693Y97129D02*
X571654Y162090D01*
X506693Y68845D02*
X571654Y133806D01*
X506693Y132841D02*
X571654Y67881D01*
X506693Y71674D02*
X571654Y136634D01*
X506693Y135670D02*
X571654Y70709D01*
X506693Y63188D02*
X571654Y128149D01*
X506693Y127184D02*
X571654Y62224D01*
X506693Y66017D02*
X571654Y130977D01*
X506693Y130013D02*
X571654Y65052D01*
X506693Y144155D02*
X571654Y79194D01*
X506693Y77330D02*
X571654Y142291D01*
X506693Y146984D02*
X571654Y82023D01*
X506693Y80159D02*
X571654Y145120D01*
X506693Y74502D02*
X571654Y139463D01*
X506693Y138498D02*
X571654Y73538D01*
X506693Y141327D02*
X571654Y76366D01*
X506693Y46218D02*
X571654Y111178D01*
X506693Y110214D02*
X571654Y45253D01*
X506693Y49046D02*
X571654Y114007D01*
X506693Y113042D02*
X571654Y48082D01*
X506693Y40561D02*
X571654Y105522D01*
X506693Y104557D02*
X571654Y39597D01*
X506693Y43389D02*
X571654Y108350D01*
X506693Y107386D02*
X571654Y42425D01*
X506693Y57531D02*
X571654Y122492D01*
X506693Y121528D02*
X571654Y56567D01*
X506693Y60360D02*
X571654Y125320D01*
X506693Y124356D02*
X571654Y59395D01*
X506693Y51875D02*
X571654Y116835D01*
X506693Y115871D02*
X571654Y50910D01*
X506693Y54703D02*
X571654Y119664D01*
X506693Y118699D02*
X571654Y53739D01*
X506693Y90415D02*
X571654Y25454D01*
X506693Y23590D02*
X571654Y88551D01*
X506693Y93243D02*
X571654Y28283D01*
X506693Y26419D02*
X571654Y91379D01*
X506693Y84758D02*
X571654Y19797D01*
X506693Y17933D02*
X571654Y82894D01*
X506693Y87586D02*
X571654Y22626D01*
X506693Y20762D02*
X571654Y85723D01*
X506693Y34904D02*
X571654Y99865D01*
X506693Y98900D02*
X571654Y33940D01*
X506693Y37732D02*
X571654Y102693D01*
X506693Y101729D02*
X571654Y36768D01*
X506693Y96072D02*
X571654Y31111D01*
X506693Y29247D02*
X571654Y94208D01*
X506693Y32076D02*
X571654Y97036D01*
X506693Y70616D02*
X569081Y8228D01*
X506693Y67788D02*
X566253Y8228D01*
X506693Y64959D02*
X563424Y8228D01*
X506693Y62131D02*
X560596Y8228D01*
X506693Y59302D02*
X557767Y8228D01*
X506693Y56474D02*
X554939Y8228D01*
X506693Y53645D02*
X552111Y8228D01*
X506693Y50817D02*
X549282Y8228D01*
X506693Y79101D02*
X571654Y14141D01*
X506693Y12277D02*
X571654Y77237D01*
X506693Y81930D02*
X571654Y16969D01*
X506693Y15105D02*
X571654Y80066D01*
X506693Y76273D02*
X571654Y11312D01*
X506693Y9448D02*
X571654Y74409D01*
X506693Y8228D02*
Y286968D01*
Y73444D02*
X571654Y8484D01*
X506693Y28190D02*
X526655Y8228D01*
X506693Y25361D02*
X523826Y8228D01*
X506693Y22533D02*
X520998Y8228D01*
X506693Y19704D02*
X518169Y8228D01*
X506693Y16876D02*
X515341Y8228D01*
X506693D02*
X571654D01*
X506693Y14047D02*
X512513Y8228D01*
X506693Y11219D02*
X509684Y8228D01*
X506693Y47989D02*
X546454Y8228D01*
X506693Y45160D02*
X543625Y8228D01*
X506693Y42332D02*
X540797Y8228D01*
X506693Y39503D02*
X537968Y8228D01*
X506693Y36675D02*
X535140Y8228D01*
X506693Y33846D02*
X532312Y8228D01*
X506693Y31018D02*
X529483Y8228D01*
X126864Y294882D02*
X135087Y286658D01*
X124035Y294882D02*
X135087Y283830D01*
X132521Y294882D02*
X135087Y292315D01*
X129692Y294882D02*
X135087Y289487D01*
X115550Y294882D02*
X135087Y275344D01*
X112722Y294882D02*
X135087Y272516D01*
X121207Y294882D02*
X135087Y281001D01*
X118378Y294882D02*
X135087Y278173D01*
X104236Y294882D02*
X135087Y264031D01*
X101408Y294882D02*
X135087Y261202D01*
X109893Y294882D02*
X135087Y269688D01*
X107065Y294882D02*
X135087Y266859D01*
X101181Y292280D02*
X135087Y258374D01*
X101181Y257303D02*
X135087Y291210D01*
X101181Y260132D02*
X135087Y294038D01*
X101181Y217705D02*
X135087Y251611D01*
X101181Y249854D02*
X135087Y215948D01*
X101181Y245989D02*
X135087Y279896D01*
X101181Y278138D02*
X135087Y244232D01*
X101181Y212048D02*
X135087Y245955D01*
X101181Y244197D02*
X135087Y210291D01*
X101181Y214877D02*
X135087Y248783D01*
X101181Y247025D02*
X135087Y213119D01*
X101181Y286623D02*
X135087Y252717D01*
X101181Y251646D02*
X135087Y285553D01*
X101181Y289452D02*
X135087Y255545D01*
X101181Y254475D02*
X135087Y288381D01*
X101181Y248818D02*
X135087Y282724D01*
X101181Y280966D02*
X135087Y247060D01*
X101181Y283795D02*
X135087Y249889D01*
X101181Y285588D02*
X110475Y294882D01*
X101181Y282759D02*
X113304Y294882D01*
X101181Y294073D02*
X101990Y294882D01*
X101181Y291244D02*
X104819Y294882D01*
X101181Y275310D02*
X135087Y241403D01*
X101181Y240333D02*
X135087Y274239D01*
X101181Y279931D02*
X116132Y294882D01*
X101181Y243161D02*
X135087Y277067D01*
X101181Y274274D02*
X121789Y294882D01*
X101181Y271445D02*
X124618Y294882D01*
X101181Y288416D02*
X107647Y294882D01*
X101181Y277102D02*
X118961Y294882D01*
X101181Y265789D02*
X130274Y294882D01*
X101181Y262960D02*
X133103Y294882D01*
X101181Y268617D02*
X127446Y294882D01*
X101181Y209220D02*
X135087Y243126D01*
X101181Y241369D02*
X135087Y207462D01*
X101181Y220534D02*
X135087Y254440D01*
X101181Y252682D02*
X135087Y218776D01*
X101181Y203563D02*
X135087Y237469D01*
X101181Y235712D02*
X135087Y201805D01*
X101181Y206392D02*
X135087Y240298D01*
X101181Y238540D02*
X135087Y204634D01*
X101181Y269653D02*
X135087Y235747D01*
X101181Y266824D02*
X135087Y232918D01*
X101181Y272481D02*
X135087Y238575D01*
X101181Y237504D02*
X135087Y271410D01*
X101181Y223362D02*
X135087Y257268D01*
X101181Y255511D02*
X135087Y221604D01*
X101181Y226190D02*
X135087Y260097D01*
X101181Y190457D02*
X135087Y156551D01*
X101181Y155480D02*
X135087Y189386D01*
X101181Y193285D02*
X135087Y159379D01*
X101181Y158308D02*
X135087Y192215D01*
Y135D02*
Y294882D01*
X101181Y184800D02*
X135087Y150894D01*
X101181Y187628D02*
X135087Y153722D01*
X101181Y152651D02*
X135087Y186558D01*
X101181Y146994D02*
X135087Y180901D01*
X101181Y179143D02*
X135087Y145237D01*
X101181Y149823D02*
X135087Y183729D01*
X101181Y181972D02*
X135087Y148065D01*
X101181Y176315D02*
X135087Y142408D01*
X101181Y141338D02*
X135087Y175244D01*
X101181Y144166D02*
X135087Y178072D01*
X118516Y280D02*
X135087Y16852D01*
X121319Y255D02*
X135087Y14023D01*
X112908Y329D02*
X135087Y22509D01*
X115712Y305D02*
X135087Y19680D01*
X129731Y182D02*
X135087Y5538D01*
X132535Y157D02*
X135087Y2710D01*
X124123Y231D02*
X135087Y11195D01*
X126927Y206D02*
X135087Y8366D01*
X101692Y427D02*
X135087Y33822D01*
X101692Y427D02*
X135087Y33822D01*
X101181Y173486D02*
X135087Y139580D01*
X101181Y170658D02*
X135087Y136751D01*
X107300Y378D02*
X135087Y28166D01*
X110104Y354D02*
X135087Y25337D01*
X104496Y403D02*
X135087Y30994D01*
X101181Y221569D02*
X135087Y187663D01*
X101181Y186592D02*
X135087Y220499D01*
X101181Y224398D02*
X135087Y190492D01*
X101181Y189421D02*
X135087Y223327D01*
X101181Y215913D02*
X135087Y182006D01*
X101181Y180936D02*
X135087Y214842D01*
X101181Y218741D02*
X135087Y184835D01*
X101181Y183764D02*
X135087Y217670D01*
X101181Y197906D02*
X135087Y231813D01*
X101181Y230055D02*
X135087Y196149D01*
X101181Y200735D02*
X135087Y234641D01*
X101181Y232883D02*
X135087Y198977D01*
X101181Y227226D02*
X135087Y193320D01*
X101181Y192249D02*
X135087Y226156D01*
X101181Y195078D02*
X135087Y228984D01*
X101181Y166794D02*
X135087Y200700D01*
X101181Y198942D02*
X135087Y165036D01*
X101181Y169622D02*
X135087Y203528D01*
X101181Y201770D02*
X135087Y167864D01*
X101181Y196114D02*
X135087Y162207D01*
X101181Y161137D02*
X135087Y195043D01*
X101181Y163965D02*
X135087Y197871D01*
X101181Y210256D02*
X135087Y176349D01*
X101181Y175279D02*
X135087Y209185D01*
X101181Y213084D02*
X135087Y179178D01*
X101181Y178107D02*
X135087Y212014D01*
X101181Y172450D02*
X135087Y206357D01*
X101181Y204599D02*
X135087Y170693D01*
X101181Y207427D02*
X135087Y173521D01*
X101181Y93254D02*
X135087Y127161D01*
X101181Y125403D02*
X135087Y91497D01*
X101181Y96083D02*
X135087Y129989D01*
X101181Y128231D02*
X135087Y94325D01*
X101181Y87598D02*
X135087Y121504D01*
X101181Y119746D02*
X135087Y85840D01*
X101181Y90426D02*
X135087Y124332D01*
X101181Y122574D02*
X135087Y88668D01*
X101181Y136717D02*
X135087Y102810D01*
X101181Y101740D02*
X135087Y135646D01*
X101181Y139545D02*
X135087Y105639D01*
X101181Y104568D02*
X135087Y138474D01*
X101181Y98911D02*
X135087Y132817D01*
X101181Y131060D02*
X135087Y97153D01*
X101181Y133888D02*
X135087Y99982D01*
X101181Y105604D02*
X135087Y71698D01*
X101181Y70627D02*
X135087Y104533D01*
X101181Y108432D02*
X135087Y74526D01*
X101181Y73455D02*
X135087Y107362D01*
X101181Y99947D02*
X135087Y66041D01*
X101181Y64970D02*
X135087Y98876D01*
X101181Y102776D02*
X135087Y68869D01*
X101181Y67798D02*
X135087Y101705D01*
X101181Y81941D02*
X135087Y115847D01*
X101181Y114089D02*
X135087Y80183D01*
X101181Y84769D02*
X135087Y118675D01*
X101181Y116918D02*
X135087Y83011D01*
X101181Y111261D02*
X135087Y77354D01*
X101181Y76284D02*
X135087Y110190D01*
X101181Y79112D02*
X135087Y113019D01*
X101181Y167829D02*
X135087Y133923D01*
X101181Y132852D02*
X135087Y166759D01*
X101181Y138509D02*
X135087Y172415D01*
X101181Y135681D02*
X135087Y169587D01*
X101181Y162172D02*
X135087Y128266D01*
X101181Y127196D02*
X135087Y161102D01*
X101181Y165001D02*
X135087Y131095D01*
X101181Y130024D02*
X135087Y163930D01*
X101181Y231847D02*
X135087Y265754D01*
X101181Y263996D02*
X135087Y230090D01*
X101181Y294882D02*
X135087D01*
X101181Y234676D02*
X135087Y268582D01*
X101181Y261168D02*
X135087Y227261D01*
X101181Y258339D02*
X135087Y224433D01*
X101181Y229019D02*
X135087Y262925D01*
X101181Y113053D02*
X135087Y146960D01*
X101181Y145202D02*
X135087Y111296D01*
X101181Y115882D02*
X135087Y149788D01*
X101181Y148030D02*
X135087Y114124D01*
X101181Y142374D02*
X135087Y108467D01*
X101181Y107396D02*
X135087Y141303D01*
X101181Y110225D02*
X135087Y144131D01*
X101181Y156516D02*
X135087Y122609D01*
X101181Y121539D02*
X135087Y155445D01*
X101181Y159344D02*
X135087Y125438D01*
X101181Y124367D02*
X135087Y158273D01*
X101181Y118710D02*
X135087Y152617D01*
X101181Y150859D02*
X135087Y116953D01*
X101181Y153687D02*
X135087Y119781D01*
X101181Y50828D02*
X135087Y84734D01*
X101181Y82976D02*
X135087Y49070D01*
X101181Y53656D02*
X135087Y87563D01*
X101181Y85805D02*
X135087Y51899D01*
X101181Y45171D02*
X135087Y79077D01*
X101181Y77320D02*
X135087Y43413D01*
X101181Y47999D02*
X135087Y81906D01*
X101181Y80148D02*
X135087Y46242D01*
X101181Y94290D02*
X135087Y60384D01*
X101181Y59313D02*
X135087Y93219D01*
X101181Y97119D02*
X135087Y63212D01*
X101181Y62142D02*
X135087Y96048D01*
X101181Y56485D02*
X135087Y90391D01*
X101181Y88633D02*
X135087Y54727D01*
X101181Y91462D02*
X135087Y57555D01*
X101181Y63177D02*
X135087Y29271D01*
X101181Y28200D02*
X135087Y62107D01*
X101181Y66006D02*
X135087Y32100D01*
X101181Y31029D02*
X135087Y64935D01*
X101181Y57521D02*
X135087Y23614D01*
X101181Y22544D02*
X135087Y56450D01*
X101181Y60349D02*
X135087Y26443D01*
X101181Y25372D02*
X135087Y59278D01*
X101181Y39514D02*
X135087Y73420D01*
X101181Y71663D02*
X135087Y37756D01*
X101181Y42343D02*
X135087Y76249D01*
X101181Y74491D02*
X135087Y40585D01*
X101181Y68834D02*
X135087Y34928D01*
X101181Y33857D02*
X135087Y67764D01*
X101181Y36686D02*
X135087Y70592D01*
X101181Y43378D02*
X135087Y9472D01*
X101181Y8401D02*
X135087Y42308D01*
X101181Y46207D02*
X135087Y12301D01*
X101181Y11230D02*
X135087Y45136D01*
X101181Y37722D02*
X135087Y3815D01*
X101181Y2744D02*
X135087Y36651D01*
X101181Y40550D02*
X135087Y6644D01*
X101181Y5573D02*
X135087Y39479D01*
X101181Y51864D02*
X135087Y17957D01*
X101181Y16887D02*
X135087Y50793D01*
X101181Y54692D02*
X135087Y20786D01*
X101181Y19715D02*
X135087Y53621D01*
X101181Y49035D02*
X135087Y15129D01*
X101181Y14058D02*
X135087Y47965D01*
X101181Y432D02*
Y294882D01*
Y9437D02*
X110266Y352D01*
X101181Y6609D02*
X107413Y377D01*
X101181Y3780D02*
X104559Y402D01*
X101181Y952D02*
X101706Y427D01*
X101181Y15094D02*
X115973Y302D01*
X101181Y432D02*
X135087Y135D01*
X101181Y12266D02*
X113120Y327D01*
X101181Y34893D02*
X135087Y987D01*
X101181Y23579D02*
X124533Y227D01*
X101181Y20751D02*
X121680Y252D01*
X101181Y17923D02*
X118826Y277D01*
X101181Y32065D02*
X133093Y153D01*
X101181Y29236D02*
X130240Y178D01*
X101181Y26408D02*
X127386Y203D01*
X190850Y22467D02*
Y29699D01*
Y22467D02*
X191650Y21667D01*
X193550D01*
X194450Y22567D01*
Y29699D01*
X190850D02*
X194450D01*
X196850Y22467D02*
Y29699D01*
Y22467D02*
X197650Y21667D01*
X199550D01*
X200450Y22567D01*
Y29699D01*
X196850D02*
X200450D01*
X203350Y22467D02*
Y29699D01*
Y22467D02*
X204150Y21667D01*
X206050D01*
X206950Y22567D01*
Y29699D01*
X203350D02*
X206950D01*
X209850Y22467D02*
Y29699D01*
Y22467D02*
X210650Y21667D01*
X212550D01*
X213450Y22567D01*
Y29699D01*
X209850D02*
X213450D01*
X70929Y50365D02*
Y53965D01*
X63798Y50365D02*
X70929D01*
X62898Y51265D02*
X63798Y50365D01*
X62898Y51265D02*
Y53165D01*
X63698Y53965D01*
X70929D01*
Y247216D02*
Y250816D01*
X63798Y247216D02*
X70929D01*
X62898Y248116D02*
X63798Y247216D01*
X62898Y248116D02*
Y250016D01*
X63698Y250816D01*
X70929D01*
Y44460D02*
Y48060D01*
X63798Y44460D02*
X70929D01*
X62898Y45360D02*
X63798Y44460D01*
X62898Y45360D02*
Y47260D01*
X63698Y48060D01*
X70929D01*
Y241310D02*
Y244910D01*
X63798Y241310D02*
X70929D01*
X62898Y242210D02*
X63798Y241310D01*
X62898Y242210D02*
Y244110D01*
X63698Y244910D01*
X70929D01*
X290291Y121231D02*
Y124831D01*
X297423D01*
X298323Y123932D01*
Y122031D02*
Y123932D01*
X297523Y121231D02*
X298323Y122031D01*
X290291Y121231D02*
X297523D01*
X184850Y22467D02*
Y29699D01*
Y22467D02*
X185650Y21667D01*
X187550D01*
X188450Y22567D01*
Y29699D01*
X184850D02*
X188450D01*
X250921Y35602D02*
Y39202D01*
Y35602D02*
X258921D01*
Y39202D01*
X250921D02*
X258921D01*
X272575Y76940D02*
Y80540D01*
Y76940D02*
X280575D01*
Y80540D01*
X272575D02*
X280575D01*
X391564Y259780D02*
Y267779D01*
X387964Y259780D02*
X391564D01*
X387964D02*
Y267779D01*
X391564D01*
X392548Y192850D02*
Y200850D01*
X388948Y192850D02*
X392548D01*
X388948D02*
Y200850D01*
X392548D01*
Y125921D02*
Y133921D01*
X388948Y125921D02*
X392548D01*
X388948D02*
Y133921D01*
X392548D01*
Y58992D02*
Y66992D01*
X388948Y58992D02*
X392548D01*
X388948D02*
Y66992D01*
X392548D01*
X405680Y238126D02*
Y246126D01*
X409280D01*
Y238126D02*
Y246126D01*
X405680Y238126D02*
X409280D01*
X405680Y171197D02*
Y179197D01*
X409280D01*
Y171197D02*
Y179197D01*
X405680Y171197D02*
X409280D01*
X405680Y105252D02*
Y113252D01*
X409280D01*
Y105252D02*
Y113252D01*
X405680Y105252D02*
X409280D01*
X405680Y38323D02*
Y46323D01*
X409280D01*
Y38323D02*
Y46323D01*
X405680Y38323D02*
X409280D01*
X399438Y259780D02*
Y267779D01*
X395838Y259780D02*
X399438D01*
X395838D02*
Y267779D01*
X399438D01*
X400422Y192850D02*
Y200850D01*
X396822Y192850D02*
X400422D01*
X396822D02*
Y200850D01*
X400422D01*
Y125921D02*
Y133921D01*
X396822Y125921D02*
X400422D01*
X396822D02*
Y133921D01*
X400422D01*
Y58992D02*
Y66992D01*
X396822Y58992D02*
X400422D01*
X396822D02*
Y66992D01*
X400422D01*
X401743Y238126D02*
Y246126D01*
X405343D01*
Y238126D02*
Y246126D01*
X401743Y238126D02*
X405343D01*
X401743Y171197D02*
Y179197D01*
X405343D01*
Y171197D02*
Y179197D01*
X401743Y171197D02*
X405343D01*
X401743Y105252D02*
Y113252D01*
X405343D01*
Y105252D02*
Y113252D01*
X401743Y105252D02*
X405343D01*
X401743Y38323D02*
Y46323D01*
X405343D01*
Y38323D02*
Y46323D01*
X401743Y38323D02*
X405343D01*
X391901Y238126D02*
Y246126D01*
X395501D01*
Y238126D02*
Y246126D01*
X391901Y238126D02*
X395501D01*
X391901Y171197D02*
Y179197D01*
X395501D01*
Y171197D02*
Y179197D01*
X391901Y171197D02*
X395501D01*
X391901Y105252D02*
Y113252D01*
X395501D01*
Y105252D02*
Y113252D01*
X391901Y105252D02*
X395501D01*
X391901Y38323D02*
Y46323D01*
X395501D01*
Y38323D02*
Y46323D01*
X391901Y38323D02*
X395501D01*
X395501Y259780D02*
Y267779D01*
X391901Y259780D02*
X395501D01*
X391901D02*
Y267779D01*
X395501D01*
X396485Y192850D02*
Y200850D01*
X392885Y192850D02*
X396485D01*
X392885D02*
Y200850D01*
X396485D01*
X392885Y125921D02*
Y133921D01*
X396485D01*
Y125921D02*
Y133921D01*
X392885Y125921D02*
X396485D01*
X396485Y58992D02*
Y66992D01*
X392885Y58992D02*
X396485D01*
X392885D02*
Y66992D01*
X396485D01*
X384027Y238126D02*
Y246126D01*
X387627D01*
Y238126D02*
Y246126D01*
X384027Y238126D02*
X387627D01*
X384027Y171197D02*
Y179197D01*
X387627D01*
Y171197D02*
Y179197D01*
X384027Y171197D02*
X387627D01*
X384027Y38323D02*
Y46323D01*
X387627D01*
Y38323D02*
Y46323D01*
X384027Y38323D02*
X387627D01*
X387627Y259780D02*
Y267779D01*
X384027Y259780D02*
X387627D01*
X384027D02*
Y267779D01*
X387627D01*
X388611Y192850D02*
Y200850D01*
X385011Y192850D02*
X388611D01*
X385011D02*
Y200850D01*
X388611D01*
Y125921D02*
Y133921D01*
X385011Y125921D02*
X388611D01*
X385011D02*
Y133921D01*
X388611D01*
Y58992D02*
Y66992D01*
X385011Y58992D02*
X388611D01*
X385011D02*
Y66992D01*
X388611D01*
X383690Y259780D02*
Y267779D01*
X380090Y259780D02*
X383690D01*
X380090D02*
Y267779D01*
X383690D01*
X384674Y192850D02*
Y200850D01*
X381074Y192850D02*
X384674D01*
X381074D02*
Y200850D01*
X384674D01*
Y125921D02*
Y133921D01*
X381074Y125921D02*
X384674D01*
X381074D02*
Y133921D01*
X384674D01*
Y58992D02*
Y66992D01*
X381074Y58992D02*
X384674D01*
X381074D02*
Y66992D01*
X384674D01*
X86783Y70803D02*
Y78803D01*
X90383D01*
Y70803D02*
Y78803D01*
X86783Y70803D02*
X90383D01*
X86783Y201709D02*
Y209709D01*
X90383D01*
Y201709D02*
Y209709D01*
X86783Y201709D02*
X90383D01*
X62176Y76709D02*
Y84709D01*
X65776D01*
Y76709D02*
Y84709D01*
X62176Y76709D02*
X65776D01*
X63161Y207614D02*
Y215614D01*
X66761D01*
Y207614D02*
Y215614D01*
X63161Y207614D02*
X66761D01*
X68082Y84583D02*
Y92583D01*
X71682D01*
Y84583D02*
Y92583D01*
X68082Y84583D02*
X71682D01*
X69066Y215488D02*
Y223488D01*
X72666D01*
Y215488D02*
Y223488D01*
X69066Y215488D02*
X72666D01*
X146822Y90488D02*
Y98488D01*
X150422D01*
Y90488D02*
Y98488D01*
X146822Y90488D02*
X150422D01*
X146822Y223362D02*
Y231362D01*
X150422D01*
Y223362D02*
Y231362D01*
X146822Y223362D02*
X150422D01*
X65776Y66866D02*
Y74866D01*
X62176Y66866D02*
X65776D01*
X62176D02*
Y74866D01*
X65776D01*
X66761Y198756D02*
Y206756D01*
X63161Y198756D02*
X66761D01*
X63161D02*
Y206756D01*
X66761D01*
X99938Y154202D02*
X105138D01*
X99938Y145402D02*
X105138D01*
Y154202D01*
X87738D02*
X92938D01*
X87738Y145402D02*
X92938D01*
X87738D02*
Y154202D01*
X99938Y144360D02*
X105138D01*
X99938Y135560D02*
X105138D01*
Y144360D01*
X87738D02*
X92938D01*
X87738Y135560D02*
X92938D01*
X87738D02*
Y144360D01*
X189792Y52102D02*
Y60102D01*
X186192Y52102D02*
X189792D01*
X186192D02*
Y60102D01*
X189792D01*
X281665Y169228D02*
Y177228D01*
X285265D01*
Y169228D02*
Y177228D01*
X281665Y169228D02*
X285265D01*
X228515Y31433D02*
Y39433D01*
X232115D01*
Y31433D02*
Y39433D01*
X228515Y31433D02*
X232115D01*
X217457Y72019D02*
X225457D01*
X217457D02*
Y75619D01*
X225457D01*
Y72019D02*
Y75619D01*
X200956Y86551D02*
Y94551D01*
X204556D01*
Y86551D02*
Y94551D01*
X200956Y86551D02*
X204556D01*
X220641D02*
Y94551D01*
X224241D01*
Y86551D02*
Y94551D01*
X220641Y86551D02*
X224241D01*
X281328Y160370D02*
Y168370D01*
X277728Y160370D02*
X281328D01*
X277728D02*
Y168370D01*
X281328D01*
X357221Y248200D02*
Y251800D01*
X364352D01*
X365252Y250900D01*
Y249000D02*
Y250900D01*
X364452Y248200D02*
X365252Y249000D01*
X357221Y248200D02*
X364452D01*
X357221Y181271D02*
Y184871D01*
X364352D01*
X365252Y183971D01*
Y182071D02*
Y183971D01*
X364452Y181271D02*
X365252Y182071D01*
X357221Y181271D02*
X364452D01*
X357221Y114342D02*
Y117942D01*
X364352D01*
X365252Y117042D01*
Y115142D02*
Y117042D01*
X364452Y114342D02*
X365252Y115142D01*
X357221Y114342D02*
X364452D01*
X357221Y48397D02*
Y51997D01*
X364352D01*
X365252Y51097D01*
Y49197D02*
Y51097D01*
X364452Y48397D02*
X365252Y49197D01*
X357221Y48397D02*
X364452D01*
X357300Y239032D02*
X360900D01*
Y247031D01*
X357300D02*
X360900D01*
X357300Y239032D02*
Y247031D01*
X357500Y170332D02*
X361100D01*
Y178331D01*
X357500D02*
X361100D01*
X357500Y170332D02*
Y178331D01*
X357200Y104168D02*
X360800D01*
Y112169D01*
X357200D02*
X360800D01*
X357200Y104168D02*
Y112169D01*
X357300Y37631D02*
X360900D01*
Y45632D01*
X357300D02*
X360900D01*
X357300Y37631D02*
Y45632D01*
X385995Y289433D02*
X389595D01*
X385995Y281433D02*
Y289433D01*
Y281433D02*
X389595D01*
Y289433D01*
X364342Y205772D02*
X367942D01*
X364342Y197772D02*
Y205772D01*
Y197772D02*
X367942D01*
Y205772D01*
X385995Y222504D02*
X389595D01*
X385995Y214504D02*
Y222504D01*
Y214504D02*
X389595D01*
Y222504D01*
X363357Y138842D02*
X366957D01*
X363357Y130842D02*
Y138842D01*
Y130842D02*
X366957D01*
Y138842D01*
X385800Y155931D02*
X389400D01*
X385800Y147932D02*
Y155931D01*
Y147932D02*
X389400D01*
Y155931D01*
X363357Y71913D02*
X366957D01*
X363357Y63913D02*
Y71913D01*
Y63913D02*
X366957D01*
Y71913D01*
X385995Y90614D02*
X389595D01*
X385995Y82614D02*
Y90614D01*
Y82614D02*
X389595D01*
Y90614D01*
X188913Y135995D02*
Y139595D01*
Y135995D02*
X196913D01*
Y139595D01*
X188913D02*
X196913D01*
X148268Y198600D02*
Y202200D01*
Y198600D02*
X156269D01*
Y202200D01*
X148268D02*
X156269D01*
X81630Y101547D02*
Y105147D01*
Y101547D02*
X89630D01*
Y105147D01*
X81630D02*
X89630D01*
X82614Y236389D02*
Y239989D01*
Y236389D02*
X90614D01*
Y239989D01*
X82614D02*
X90614D01*
X71787Y50365D02*
Y53965D01*
Y50365D02*
X79787D01*
Y53965D01*
X71787D02*
X79787D01*
X71787Y247216D02*
Y250816D01*
Y247216D02*
X79787D01*
Y250816D01*
X71787D02*
X79787D01*
X71787Y44460D02*
Y48060D01*
Y44460D02*
X79787D01*
Y48060D01*
X71787D02*
X79787D01*
X71787Y241310D02*
Y244910D01*
Y241310D02*
X79787D01*
Y244910D01*
X71787D02*
X79787D01*
X178318Y60102D02*
X181918D01*
X178318Y52102D02*
Y60102D01*
Y52102D02*
X181918D01*
Y60102D01*
X182255Y52102D02*
X185855D01*
Y60102D01*
X182255D02*
X185855D01*
X182255Y52102D02*
Y60102D01*
X273791Y169228D02*
X277391D01*
Y177228D01*
X273791D02*
X277391D01*
X273791Y169228D02*
Y177228D01*
X277728Y177228D02*
X281328D01*
X277728Y169228D02*
Y177228D01*
Y169228D02*
X281328D01*
Y177228D01*
X220641Y48291D02*
X224241D01*
X220641Y40291D02*
Y48291D01*
Y40291D02*
X224241D01*
Y48291D01*
X220641Y31433D02*
X224241D01*
Y39433D01*
X220641D02*
X224241D01*
X220641Y31433D02*
Y39433D01*
X209698Y38449D02*
X213298D01*
X209698Y30449D02*
Y38449D01*
Y30449D02*
X213298D01*
Y38449D01*
X224578Y39433D02*
X228178D01*
X224578Y31433D02*
Y39433D01*
Y31433D02*
X228178D01*
Y39433D01*
X202924Y38449D02*
X206524D01*
X202924Y30449D02*
Y38449D01*
Y30449D02*
X206524D01*
Y38449D01*
X197019D02*
X200619D01*
X197019Y30449D02*
Y38449D01*
Y30449D02*
X200619D01*
Y38449D01*
X205646Y64145D02*
Y67745D01*
Y64145D02*
X213646D01*
Y67745D01*
X205646D02*
X213646D01*
X191113Y38449D02*
X194713D01*
X191113Y30449D02*
Y38449D01*
Y30449D02*
X194713D01*
Y38449D01*
X225457Y64145D02*
Y67745D01*
X217457D02*
X225457D01*
X217457Y64145D02*
Y67745D01*
Y64145D02*
X225457D01*
X217457Y68082D02*
Y71682D01*
Y68082D02*
X225457D01*
Y71682D01*
X217457D02*
X225457D01*
X224578Y86551D02*
X228178D01*
Y94551D01*
X224578D02*
X228178D01*
X224578Y86551D02*
Y94551D01*
X184224Y38449D02*
X187824D01*
X184224Y30449D02*
Y38449D01*
Y30449D02*
X187824D01*
Y38449D01*
X261748Y105483D02*
Y109083D01*
Y105483D02*
X269748D01*
Y109083D01*
X261748D02*
X269748D01*
X261748Y109421D02*
Y113021D01*
Y109421D02*
X269748D01*
Y113021D01*
X261748D02*
X269748D01*
X269748Y113357D02*
Y116957D01*
X261748D02*
X269748D01*
X261748Y113357D02*
Y116957D01*
Y113357D02*
X269748D01*
Y117295D02*
Y120895D01*
X261748D02*
X269748D01*
X261748Y117295D02*
Y120895D01*
Y117295D02*
X269748D01*
X273791Y160370D02*
X277391D01*
Y168370D01*
X273791D02*
X277391D01*
X273791Y160370D02*
Y168370D01*
X289433Y121231D02*
Y124831D01*
X281433D02*
X289433D01*
X281433Y121231D02*
Y124831D01*
Y121231D02*
X289433D01*
X194819Y176350D02*
Y179950D01*
Y176350D02*
X202819D01*
Y179950D01*
X194819D02*
X202819D01*
X194819Y172413D02*
Y176013D01*
Y172413D02*
X202819D01*
Y176013D01*
X194819D02*
X202819D01*
X269748Y121231D02*
Y124831D01*
X261748D02*
X269748D01*
X261748Y121231D02*
Y124831D01*
Y121231D02*
X269748D01*
X384027Y105252D02*
Y113252D01*
X387627D01*
Y105252D02*
Y113252D01*
X384027Y105252D02*
X387627D01*
X249000Y55269D02*
Y63269D01*
X252600D01*
Y55269D02*
Y63269D01*
X249000Y55269D02*
X252600D01*
X215945Y96457D02*
X217717D01*
X207480D02*
X209252D01*
X207480Y90059D02*
Y96457D01*
X217717Y90059D02*
Y96457D01*
X299932Y19800D02*
X307931D01*
X299932D02*
Y23400D01*
X307931D01*
Y19800D02*
Y23400D01*
X244400Y184031D02*
Y192032D01*
X248000D01*
Y184031D02*
Y192032D01*
X244400Y184031D02*
X248000D01*
X286169Y115300D02*
X294168D01*
X286169D02*
Y118900D01*
X294168D01*
Y115300D02*
Y118900D01*
X522532Y291082D02*
X521699D01*
X522116D01*
Y288999D01*
X521699Y288583D01*
X521283D01*
X520866Y288999D01*
X523365Y290665D02*
X523782Y291082D01*
X524615D01*
X525032Y290665D01*
Y290249D01*
X524615Y289832D01*
X524198D01*
X524615D01*
X525032Y289416D01*
Y288999D01*
X524615Y288583D01*
X523782D01*
X523365Y288999D01*
X271000Y122500D02*
Y124999D01*
X272250D01*
X272666Y124583D01*
Y123750D01*
X272250Y123333D01*
X271000D01*
X271833D02*
X272666Y122500D01*
X273499D02*
X274332D01*
X273916D01*
Y124999D01*
X273499Y124583D01*
X275582D02*
X275998Y124999D01*
X276831D01*
X277248Y124583D01*
Y122916D01*
X276831Y122500D01*
X275998D01*
X275582Y122916D01*
Y124583D01*
X189500Y173000D02*
Y175499D01*
X190750D01*
X191166Y175083D01*
Y174250D01*
X190750Y173833D01*
X189500D01*
X190333D02*
X191166Y173000D01*
X191999Y173416D02*
X192416Y173000D01*
X193249D01*
X193665Y173416D01*
Y175083D01*
X193249Y175499D01*
X192416D01*
X191999Y175083D01*
Y174666D01*
X192416Y174250D01*
X193665D01*
X189500Y177500D02*
Y179999D01*
X190750D01*
X191166Y179583D01*
Y178750D01*
X190750Y178333D01*
X189500D01*
X190333D02*
X191166Y177500D01*
X191999Y179583D02*
X192416Y179999D01*
X193249D01*
X193665Y179583D01*
Y179166D01*
X193249Y178750D01*
X193665Y178333D01*
Y177917D01*
X193249Y177500D01*
X192416D01*
X191999Y177917D01*
Y178333D01*
X192416Y178750D01*
X191999Y179166D01*
Y179583D01*
X192416Y178750D02*
X193249D01*
X149500Y158999D02*
Y156500D01*
X150750D01*
X151166Y156916D01*
Y158583D01*
X150750Y158999D01*
X149500D01*
X153665Y156500D02*
X151999D01*
X153665Y158166D01*
Y158583D01*
X153249Y158999D01*
X152416D01*
X151999Y158583D01*
X82634Y273314D02*
Y271232D01*
X83050Y270815D01*
X83884D01*
X84300Y271232D01*
Y273314D01*
X86799Y272898D02*
X86383Y273314D01*
X85550D01*
X85133Y272898D01*
Y272481D01*
X85550Y272065D01*
X86383D01*
X86799Y271648D01*
Y271232D01*
X86383Y270815D01*
X85550D01*
X85133Y271232D01*
X87632Y273314D02*
Y270815D01*
X88882D01*
X89298Y271232D01*
Y271648D01*
X88882Y272065D01*
X87632D01*
X88882D01*
X89298Y272481D01*
Y272898D01*
X88882Y273314D01*
X87632D01*
X91798Y272898D02*
X91381Y273314D01*
X90548D01*
X90131Y272898D01*
Y271232D01*
X90548Y270815D01*
X91381D01*
X91798Y271232D01*
Y272065D01*
X90965D01*
X92631Y270815D02*
Y273314D01*
X94297Y270815D01*
Y273314D01*
X95130D02*
Y270815D01*
X96379D01*
X96796Y271232D01*
Y272898D01*
X96379Y273314D01*
X95130D01*
X97629D02*
Y270815D01*
X98879D01*
X99295Y271232D01*
Y271648D01*
X98879Y272065D01*
X97629D01*
X98879D01*
X99295Y272481D01*
Y272898D01*
X98879Y273314D01*
X97629D01*
X87539Y25814D02*
Y23731D01*
X87956Y23315D01*
X88789D01*
X89205Y23731D01*
Y25814D01*
X91705Y25398D02*
X91288Y25814D01*
X90455D01*
X90039Y25398D01*
Y24981D01*
X90455Y24565D01*
X91288D01*
X91705Y24148D01*
Y23731D01*
X91288Y23315D01*
X90455D01*
X90039Y23731D01*
X92538Y25814D02*
Y23315D01*
X93787D01*
X94204Y23731D01*
Y24148D01*
X93787Y24565D01*
X92538D01*
X93787D01*
X94204Y24981D01*
Y25398D01*
X93787Y25814D01*
X92538D01*
X96703Y25398D02*
X96286Y25814D01*
X95454D01*
X95037Y25398D01*
Y23731D01*
X95454Y23315D01*
X96286D01*
X96703Y23731D01*
Y24565D01*
X95870D01*
X97536Y23315D02*
Y25814D01*
X99202Y23315D01*
Y25814D01*
X100035D02*
Y23315D01*
X101285D01*
X101701Y23731D01*
Y25398D01*
X101285Y25814D01*
X100035D01*
X102534Y23315D02*
Y24981D01*
X103368Y25814D01*
X104201Y24981D01*
Y23315D01*
Y24565D01*
X102534D01*
X210800Y102199D02*
Y100117D01*
X211216Y99700D01*
X212050D01*
X212466Y100117D01*
Y102199D01*
X213299Y99700D02*
X214132D01*
X213716D01*
Y102199D01*
X213299Y101783D01*
X215382Y99700D02*
X216215D01*
X215798D01*
Y102199D01*
X215382Y101783D01*
X276500Y243000D02*
Y245499D01*
X277750D01*
X278166Y245083D01*
Y244250D01*
X277750Y243833D01*
X276500D01*
X277333D02*
X278166Y243000D01*
X278999Y245499D02*
X280665D01*
X279832D01*
Y243000D01*
X283165Y245083D02*
X282748Y245499D01*
X281915D01*
X281498Y245083D01*
Y243417D01*
X281915Y243000D01*
X282748D01*
X283165Y243417D01*
X283998Y245499D02*
Y243833D01*
X284831Y243000D01*
X285664Y243833D01*
Y245499D01*
X286497D02*
Y243000D01*
X287746D01*
X288163Y243417D01*
Y245083D01*
X287746Y245499D01*
X286497D01*
X288996D02*
Y243000D01*
X290246D01*
X290662Y243417D01*
Y245083D01*
X290246Y245499D01*
X288996D01*
X283600Y111400D02*
X281101D01*
Y112650D01*
X281517Y113066D01*
X282350D01*
X282767Y112650D01*
Y111400D01*
Y112233D02*
X283600Y113066D01*
Y113899D02*
Y114732D01*
Y114316D01*
X281101D01*
X281517Y113899D01*
Y115982D02*
X281101Y116398D01*
Y117231D01*
X281517Y117648D01*
X283184D01*
X283600Y117231D01*
Y116398D01*
X283184Y115982D01*
X281517D01*
Y118481D02*
X281101Y118898D01*
Y119731D01*
X281517Y120147D01*
X281934D01*
X282350Y119731D01*
Y119314D01*
Y119731D01*
X282767Y120147D01*
X283184D01*
X283600Y119731D01*
Y118898D01*
X283184Y118481D01*
X276500Y150500D02*
X274001D01*
Y151750D01*
X274417Y152166D01*
X275250D01*
X275667Y151750D01*
Y150500D01*
Y151333D02*
X276500Y152166D01*
Y152999D02*
Y153832D01*
Y153416D01*
X274001D01*
X274417Y152999D01*
Y155082D02*
X274001Y155498D01*
Y156331D01*
X274417Y156748D01*
X276083D01*
X276500Y156331D01*
Y155498D01*
X276083Y155082D01*
X274417D01*
X276500Y159247D02*
Y157581D01*
X274834Y159247D01*
X274417D01*
X274001Y158831D01*
Y157998D01*
X274417Y157581D01*
X270669Y118110D02*
Y120609D01*
X271919D01*
X272335Y120193D01*
Y119360D01*
X271919Y118943D01*
X270669D01*
X271502D02*
X272335Y118110D01*
X273168D02*
X274002D01*
X273585D01*
Y120609D01*
X273168Y120193D01*
X275251D02*
X275668Y120609D01*
X276501D01*
X276917Y120193D01*
Y118527D01*
X276501Y118110D01*
X275668D01*
X275251Y118527D01*
Y120193D01*
X277750Y118110D02*
X278583D01*
X278167D01*
Y120609D01*
X277750Y120193D01*
X270669Y114173D02*
Y116672D01*
X271919D01*
X272335Y116256D01*
Y115423D01*
X271919Y115006D01*
X270669D01*
X271502D02*
X272335Y114173D01*
X273168D02*
X274002D01*
X273585D01*
Y116672D01*
X273168Y116256D01*
X275251D02*
X275668Y116672D01*
X276501D01*
X276917Y116256D01*
Y114590D01*
X276501Y114173D01*
X275668D01*
X275251Y114590D01*
Y116256D01*
X277750D02*
X278167Y116672D01*
X279000D01*
X279416Y116256D01*
Y114590D01*
X279000Y114173D01*
X278167D01*
X277750Y114590D01*
Y116256D01*
X270669Y110236D02*
Y112735D01*
X271919D01*
X272335Y112319D01*
Y111486D01*
X271919Y111069D01*
X270669D01*
X271502D02*
X272335Y110236D01*
X273168Y110653D02*
X273585Y110236D01*
X274418D01*
X274835Y110653D01*
Y112319D01*
X274418Y112735D01*
X273585D01*
X273168Y112319D01*
Y111902D01*
X273585Y111486D01*
X274835D01*
X275668Y112319D02*
X276084Y112735D01*
X276917D01*
X277334Y112319D01*
Y111902D01*
X276917Y111486D01*
X277334Y111069D01*
Y110653D01*
X276917Y110236D01*
X276084D01*
X275668Y110653D01*
Y111069D01*
X276084Y111486D01*
X275668Y111902D01*
Y112319D01*
X276084Y111486D02*
X276917D01*
X270669Y106299D02*
Y108798D01*
X271919D01*
X272335Y108382D01*
Y107549D01*
X271919Y107132D01*
X270669D01*
X271502D02*
X272335Y106299D01*
X273168Y106716D02*
X273585Y106299D01*
X274418D01*
X274835Y106716D01*
Y108382D01*
X274418Y108798D01*
X273585D01*
X273168Y108382D01*
Y107965D01*
X273585Y107549D01*
X274835D01*
X275668Y108798D02*
X277334D01*
Y108382D01*
X275668Y106716D01*
Y106299D01*
X187000Y39500D02*
X184501D01*
Y40750D01*
X184917Y41166D01*
X185750D01*
X186167Y40750D01*
Y39500D01*
Y40333D02*
X187000Y41166D01*
X184501Y43665D02*
X184917Y42832D01*
X185750Y41999D01*
X186583D01*
X187000Y42416D01*
Y43249D01*
X186583Y43665D01*
X186167D01*
X185750Y43249D01*
Y41999D01*
X184501Y46165D02*
X184917Y45331D01*
X185750Y44498D01*
X186583D01*
X187000Y44915D01*
Y45748D01*
X186583Y46165D01*
X186167D01*
X185750Y45748D01*
Y44498D01*
X227500Y96100D02*
X225001D01*
Y97350D01*
X225417Y97766D01*
X226250D01*
X226667Y97350D01*
Y96100D01*
Y96933D02*
X227500Y97766D01*
X225001Y100265D02*
X225417Y99432D01*
X226250Y98599D01*
X227083D01*
X227500Y99016D01*
Y99849D01*
X227083Y100265D01*
X226667D01*
X226250Y99849D01*
Y98599D01*
X225001Y102764D02*
Y101098D01*
X226250D01*
X225834Y101931D01*
Y102348D01*
X226250Y102764D01*
X227083D01*
X227500Y102348D01*
Y101515D01*
X227083Y101098D01*
X226500Y68500D02*
Y70999D01*
X227750D01*
X228166Y70583D01*
Y69750D01*
X227750Y69333D01*
X226500D01*
X227333D02*
X228166Y68500D01*
X230665Y70999D02*
X229832Y70583D01*
X228999Y69750D01*
Y68916D01*
X229416Y68500D01*
X230249D01*
X230665Y68916D01*
Y69333D01*
X230249Y69750D01*
X228999D01*
X232748Y68500D02*
Y70999D01*
X231498Y69750D01*
X233165D01*
X226500Y64500D02*
Y66999D01*
X227750D01*
X228166Y66583D01*
Y65750D01*
X227750Y65333D01*
X226500D01*
X227333D02*
X228166Y64500D01*
X230665Y66999D02*
X229832Y66583D01*
X228999Y65750D01*
Y64916D01*
X229416Y64500D01*
X230249D01*
X230665Y64916D01*
Y65333D01*
X230249Y65750D01*
X228999D01*
X231498Y66583D02*
X231915Y66999D01*
X232748D01*
X233165Y66583D01*
Y66166D01*
X232748Y65750D01*
X232331D01*
X232748D01*
X233165Y65333D01*
Y64916D01*
X232748Y64500D01*
X231915D01*
X231498Y64916D01*
X194000Y39500D02*
X191501D01*
Y40750D01*
X191917Y41166D01*
X192750D01*
X193167Y40750D01*
Y39500D01*
Y40333D02*
X194000Y41166D01*
X191501Y43665D02*
X191917Y42832D01*
X192750Y41999D01*
X193584D01*
X194000Y42416D01*
Y43249D01*
X193584Y43665D01*
X193167D01*
X192750Y43249D01*
Y41999D01*
X194000Y46165D02*
Y44498D01*
X192334Y46165D01*
X191917D01*
X191501Y45748D01*
Y44915D01*
X191917Y44498D01*
X207000Y68500D02*
Y70999D01*
X208250D01*
X208666Y70583D01*
Y69750D01*
X208250Y69333D01*
X207000D01*
X207833D02*
X208666Y68500D01*
X211165Y70999D02*
X210332Y70583D01*
X209499Y69750D01*
Y68916D01*
X209916Y68500D01*
X210749D01*
X211165Y68916D01*
Y69333D01*
X210749Y69750D01*
X209499D01*
X211998Y68500D02*
X212831D01*
X212415D01*
Y70999D01*
X211998Y70583D01*
X200500Y39500D02*
X198001D01*
Y40750D01*
X198417Y41166D01*
X199250D01*
X199667Y40750D01*
Y39500D01*
Y40333D02*
X200500Y41166D01*
X198001Y43665D02*
X198417Y42832D01*
X199250Y41999D01*
X200083D01*
X200500Y42416D01*
Y43249D01*
X200083Y43665D01*
X199667D01*
X199250Y43249D01*
Y41999D01*
X198417Y44498D02*
X198001Y44915D01*
Y45748D01*
X198417Y46165D01*
X200083D01*
X200500Y45748D01*
Y44915D01*
X200083Y44498D01*
X198417D01*
X206000Y39500D02*
X203501D01*
Y40750D01*
X203917Y41166D01*
X204750D01*
X205167Y40750D01*
Y39500D01*
Y40333D02*
X206000Y41166D01*
X203501Y43665D02*
Y41999D01*
X204750D01*
X204334Y42832D01*
Y43249D01*
X204750Y43665D01*
X205584D01*
X206000Y43249D01*
Y42416D01*
X205584Y41999D01*
X203501Y44498D02*
Y46165D01*
X203917D01*
X205584Y44498D01*
X206000D01*
X228000Y40500D02*
X225501D01*
Y41750D01*
X225917Y42166D01*
X226750D01*
X227167Y41750D01*
Y40500D01*
Y41333D02*
X228000Y42166D01*
X225501Y44665D02*
Y42999D01*
X226750D01*
X226334Y43832D01*
Y44249D01*
X226750Y44665D01*
X227584D01*
X228000Y44249D01*
Y43416D01*
X227584Y42999D01*
X225501Y47164D02*
X225917Y46331D01*
X226750Y45498D01*
X227584D01*
X228000Y45915D01*
Y46748D01*
X227584Y47164D01*
X227167D01*
X226750Y46748D01*
Y45498D01*
X213000Y39500D02*
X210501D01*
Y40750D01*
X210917Y41166D01*
X211750D01*
X212167Y40750D01*
Y39500D01*
Y40333D02*
X213000Y41166D01*
X210501Y43665D02*
Y41999D01*
X211750D01*
X211334Y42832D01*
Y43249D01*
X211750Y43665D01*
X212583D01*
X213000Y43249D01*
Y42416D01*
X212583Y41999D01*
X213000Y45748D02*
X210501D01*
X211750Y44498D01*
Y46165D01*
X219500Y32000D02*
X217001D01*
Y33250D01*
X217417Y33666D01*
X218250D01*
X218667Y33250D01*
Y32000D01*
Y32833D02*
X219500Y33666D01*
X217001Y36165D02*
Y34499D01*
X218250D01*
X217834Y35332D01*
Y35749D01*
X218250Y36165D01*
X219083D01*
X219500Y35749D01*
Y34916D01*
X219083Y34499D01*
X217417Y36998D02*
X217001Y37415D01*
Y38248D01*
X217417Y38664D01*
X217834D01*
X218250Y38248D01*
Y37831D01*
Y38248D01*
X218667Y38664D01*
X219083D01*
X219500Y38248D01*
Y37415D01*
X219083Y36998D01*
X223500Y49500D02*
X221001D01*
Y50750D01*
X221417Y51166D01*
X222250D01*
X222667Y50750D01*
Y49500D01*
Y50333D02*
X223500Y51166D01*
X221001Y53665D02*
Y51999D01*
X222250D01*
X221834Y52832D01*
Y53249D01*
X222250Y53665D01*
X223083D01*
X223500Y53249D01*
Y52416D01*
X223083Y51999D01*
X223500Y54498D02*
Y55331D01*
Y54915D01*
X221001D01*
X221417Y54498D01*
X280500Y178500D02*
X278001D01*
Y179750D01*
X278417Y180166D01*
X279250D01*
X279667Y179750D01*
Y178500D01*
Y179333D02*
X280500Y180166D01*
X278001Y182665D02*
Y180999D01*
X279250D01*
X278834Y181832D01*
Y182249D01*
X279250Y182665D01*
X280083D01*
X280500Y182249D01*
Y181416D01*
X280083Y180999D01*
X278417Y183498D02*
X278001Y183915D01*
Y184748D01*
X278417Y185164D01*
X280083D01*
X280500Y184748D01*
Y183915D01*
X280083Y183498D01*
X278417D01*
X276500Y178500D02*
X274001D01*
Y179750D01*
X274417Y180166D01*
X275250D01*
X275667Y179750D01*
Y178500D01*
Y179333D02*
X276500Y180166D01*
Y182249D02*
X274001D01*
X275250Y180999D01*
Y182665D01*
X276083Y183498D02*
X276500Y183915D01*
Y184748D01*
X276083Y185164D01*
X274417D01*
X274001Y184748D01*
Y183915D01*
X274417Y183498D01*
X274834D01*
X275250Y183915D01*
Y185164D01*
X185000Y61000D02*
X182501D01*
Y62250D01*
X182917Y62666D01*
X183750D01*
X184167Y62250D01*
Y61000D01*
Y61833D02*
X185000Y62666D01*
Y64749D02*
X182501D01*
X183750Y63499D01*
Y65165D01*
X182501Y65998D02*
Y67664D01*
X182917D01*
X184583Y65998D01*
X185000D01*
X181102Y61024D02*
X178603D01*
Y62273D01*
X179020Y62690D01*
X179853D01*
X180269Y62273D01*
Y61024D01*
Y61857D02*
X181102Y62690D01*
Y64772D02*
X178603D01*
X179853Y63523D01*
Y65189D01*
X178603Y67688D02*
X179020Y66855D01*
X179853Y66022D01*
X180686D01*
X181102Y66439D01*
Y67272D01*
X180686Y67688D01*
X180269D01*
X179853Y67272D01*
Y66022D01*
X72000Y237500D02*
Y239999D01*
X73250D01*
X73666Y239583D01*
Y238750D01*
X73250Y238333D01*
X72000D01*
X72833D02*
X73666Y237500D01*
X75749D02*
Y239999D01*
X74499Y238750D01*
X76165D01*
X76998Y239583D02*
X77415Y239999D01*
X78248D01*
X78664Y239583D01*
Y239166D01*
X78248Y238750D01*
X77831D01*
X78248D01*
X78664Y238333D01*
Y237916D01*
X78248Y237500D01*
X77415D01*
X76998Y237916D01*
X79498Y239999D02*
Y237500D01*
X80747D01*
X81164Y237916D01*
Y238333D01*
X80747Y238750D01*
X79498D01*
X80747D01*
X81164Y239166D01*
Y239583D01*
X80747Y239999D01*
X79498D01*
X72000Y41000D02*
Y43499D01*
X73250D01*
X73666Y43083D01*
Y42250D01*
X73250Y41833D01*
X72000D01*
X72833D02*
X73666Y41000D01*
X75749D02*
Y43499D01*
X74499Y42250D01*
X76165D01*
X76998Y43083D02*
X77415Y43499D01*
X78248D01*
X78664Y43083D01*
Y42666D01*
X78248Y42250D01*
X77831D01*
X78248D01*
X78664Y41833D01*
Y41416D01*
X78248Y41000D01*
X77415D01*
X76998Y41416D01*
X79498Y41000D02*
Y42666D01*
X80331Y43499D01*
X81164Y42666D01*
Y41000D01*
Y42250D01*
X79498D01*
X71850Y251969D02*
Y254468D01*
X73100D01*
X73516Y254051D01*
Y253218D01*
X73100Y252802D01*
X71850D01*
X72684D02*
X73516Y251969D01*
X75599D02*
Y254468D01*
X74350Y253218D01*
X76016D01*
X78515Y251969D02*
X76849D01*
X78515Y253635D01*
Y254051D01*
X78098Y254468D01*
X77265D01*
X76849Y254051D01*
X79348Y254468D02*
Y251969D01*
X80598D01*
X81014Y252385D01*
Y252802D01*
X80598Y253218D01*
X79348D01*
X80598D01*
X81014Y253635D01*
Y254051D01*
X80598Y254468D01*
X79348D01*
X71850Y55118D02*
Y57617D01*
X73100D01*
X73516Y57201D01*
Y56368D01*
X73100Y55951D01*
X71850D01*
X72684D02*
X73516Y55118D01*
X75599D02*
Y57617D01*
X74350Y56368D01*
X76016D01*
X78515Y55118D02*
X76849D01*
X78515Y56784D01*
Y57201D01*
X78098Y57617D01*
X77265D01*
X76849Y57201D01*
X79348Y55118D02*
Y56784D01*
X80181Y57617D01*
X81014Y56784D01*
Y55118D01*
Y56368D01*
X79348D01*
X82677Y241142D02*
Y243641D01*
X83927D01*
X84343Y243224D01*
Y242391D01*
X83927Y241975D01*
X82677D01*
X83510D02*
X84343Y241142D01*
X86426D02*
Y243641D01*
X85176Y242391D01*
X86843D01*
X87675Y241142D02*
X88509D01*
X88092D01*
Y243641D01*
X87675Y243224D01*
X89758Y243641D02*
Y241142D01*
X91008D01*
X91424Y241558D01*
Y241975D01*
X91008Y242391D01*
X89758D01*
X91008D01*
X91424Y242808D01*
Y243224D01*
X91008Y243641D01*
X89758D01*
X91300Y102200D02*
Y104699D01*
X92550D01*
X92966Y104283D01*
Y103450D01*
X92550Y103033D01*
X91300D01*
X92133D02*
X92966Y102200D01*
X95049D02*
Y104699D01*
X93799Y103450D01*
X95465D01*
X96298Y102200D02*
X97131D01*
X96715D01*
Y104699D01*
X96298Y104283D01*
X98381Y102200D02*
Y103866D01*
X99214Y104699D01*
X100047Y103866D01*
Y102200D01*
Y103450D01*
X98381D01*
X147855Y203321D02*
Y205820D01*
X149105D01*
X149521Y205404D01*
Y204571D01*
X149105Y204154D01*
X147855D01*
X148688D02*
X149521Y203321D01*
X151604D02*
Y205820D01*
X150354Y204571D01*
X152020D01*
X152854Y205404D02*
X153270Y205820D01*
X154103D01*
X154520Y205404D01*
Y203738D01*
X154103Y203321D01*
X153270D01*
X152854Y203738D01*
Y205404D01*
X155353Y205820D02*
Y203321D01*
X156602D01*
X157019Y203738D01*
Y204154D01*
X156602Y204571D01*
X155353D01*
X156602D01*
X157019Y204987D01*
Y205404D01*
X156602Y205820D01*
X155353D01*
X188976Y140748D02*
Y143247D01*
X190226D01*
X190642Y142831D01*
Y141998D01*
X190226Y141581D01*
X188976D01*
X189809D02*
X190642Y140748D01*
X192725D02*
Y143247D01*
X191476Y141998D01*
X193142D01*
X193975Y142831D02*
X194391Y143247D01*
X195224D01*
X195641Y142831D01*
Y141165D01*
X195224Y140748D01*
X194391D01*
X193975Y141165D01*
Y142831D01*
X196474Y140748D02*
Y142414D01*
X197307Y143247D01*
X198140Y142414D01*
Y140748D01*
Y141998D01*
X196474D01*
X385000Y83500D02*
X382501D01*
Y84750D01*
X382917Y85166D01*
X383750D01*
X384167Y84750D01*
Y83500D01*
Y84333D02*
X385000Y85166D01*
X382917Y85999D02*
X382501Y86416D01*
Y87249D01*
X382917Y87665D01*
X383334D01*
X383750Y87249D01*
Y86832D01*
Y87249D01*
X384167Y87665D01*
X384583D01*
X385000Y87249D01*
Y86416D01*
X384583Y85999D01*
X382501Y88498D02*
Y90165D01*
X382917D01*
X384583Y88498D01*
X385000D01*
X362500Y64500D02*
X360001D01*
Y65750D01*
X360417Y66166D01*
X361250D01*
X361667Y65750D01*
Y64500D01*
Y65333D02*
X362500Y66166D01*
X360417Y66999D02*
X360001Y67416D01*
Y68249D01*
X360417Y68665D01*
X360834D01*
X361250Y68249D01*
Y67832D01*
Y68249D01*
X361667Y68665D01*
X362084D01*
X362500Y68249D01*
Y67416D01*
X362084Y66999D01*
X360001Y71165D02*
Y69498D01*
X361250D01*
X360834Y70331D01*
Y70748D01*
X361250Y71165D01*
X362084D01*
X362500Y70748D01*
Y69915D01*
X362084Y69498D01*
X390395Y155491D02*
X392895D01*
Y154241D01*
X392478Y153824D01*
X391645D01*
X391228Y154241D01*
Y155491D01*
Y154657D02*
X390395Y153824D01*
X392478Y152991D02*
X392895Y152575D01*
Y151742D01*
X392478Y151325D01*
X392061D01*
X391645Y151742D01*
Y152158D01*
Y151742D01*
X391228Y151325D01*
X390812D01*
X390395Y151742D01*
Y152575D01*
X390812Y152991D01*
X390395Y149243D02*
X392895D01*
X391645Y150492D01*
Y148826D01*
X362500Y131500D02*
X360001D01*
Y132750D01*
X360417Y133166D01*
X361250D01*
X361667Y132750D01*
Y131500D01*
Y132333D02*
X362500Y133166D01*
X360417Y133999D02*
X360001Y134416D01*
Y135249D01*
X360417Y135665D01*
X360834D01*
X361250Y135249D01*
Y134832D01*
Y135249D01*
X361667Y135665D01*
X362084D01*
X362500Y135249D01*
Y134416D01*
X362084Y133999D01*
X360417Y136498D02*
X360001Y136915D01*
Y137748D01*
X360417Y138164D01*
X360834D01*
X361250Y137748D01*
Y137331D01*
Y137748D01*
X361667Y138164D01*
X362084D01*
X362500Y137748D01*
Y136915D01*
X362084Y136498D01*
X385000Y215500D02*
X382501D01*
Y216750D01*
X382917Y217166D01*
X383750D01*
X384167Y216750D01*
Y215500D01*
Y216333D02*
X385000Y217166D01*
X382917Y217999D02*
X382501Y218416D01*
Y219249D01*
X382917Y219665D01*
X383334D01*
X383750Y219249D01*
Y218832D01*
Y219249D01*
X384167Y219665D01*
X384583D01*
X385000Y219249D01*
Y218416D01*
X384583Y217999D01*
X385000Y222165D02*
Y220498D01*
X383334Y222165D01*
X382917D01*
X382501Y221748D01*
Y220915D01*
X382917Y220498D01*
X363000Y199000D02*
X360501D01*
Y200250D01*
X360917Y200666D01*
X361750D01*
X362167Y200250D01*
Y199000D01*
Y199833D02*
X363000Y200666D01*
X360917Y201499D02*
X360501Y201916D01*
Y202749D01*
X360917Y203165D01*
X361334D01*
X361750Y202749D01*
Y202332D01*
Y202749D01*
X362167Y203165D01*
X362583D01*
X363000Y202749D01*
Y201916D01*
X362583Y201499D01*
X363000Y203998D02*
Y204831D01*
Y204415D01*
X360501D01*
X360917Y203998D01*
X384500Y282000D02*
X382001D01*
Y283250D01*
X382417Y283666D01*
X383250D01*
X383667Y283250D01*
Y282000D01*
Y282833D02*
X384500Y283666D01*
Y286165D02*
Y284499D01*
X382834Y286165D01*
X382417D01*
X382001Y285749D01*
Y284916D01*
X382417Y284499D01*
X384084Y286998D02*
X384500Y287415D01*
Y288248D01*
X384084Y288665D01*
X382417D01*
X382001Y288248D01*
Y287415D01*
X382417Y286998D01*
X382834D01*
X383250Y287415D01*
Y288665D01*
X356147Y38679D02*
X353648D01*
Y39928D01*
X354065Y40345D01*
X354898D01*
X355314Y39928D01*
Y38679D01*
Y39512D02*
X356147Y40345D01*
Y42844D02*
Y41178D01*
X354481Y42844D01*
X354065D01*
X353648Y42428D01*
Y41594D01*
X354065Y41178D01*
X353648Y43677D02*
X356147D01*
Y44927D01*
X355731Y45343D01*
X354065D01*
X353648Y44927D01*
Y43677D01*
X356142Y104306D02*
X353643D01*
Y105556D01*
X354059Y105972D01*
X354892D01*
X355309Y105556D01*
Y104306D01*
Y105139D02*
X356142Y105972D01*
Y108472D02*
Y106806D01*
X354476Y108472D01*
X354059D01*
X353643Y108055D01*
Y107222D01*
X354059Y106806D01*
Y110971D02*
X353643Y110554D01*
Y109721D01*
X354059Y109305D01*
X355725D01*
X356142Y109721D01*
Y110554D01*
X355725Y110971D01*
X355871Y170969D02*
X353372D01*
Y172219D01*
X353788Y172635D01*
X354621D01*
X355038Y172219D01*
Y170969D01*
Y171802D02*
X355871Y172635D01*
Y175135D02*
Y173468D01*
X354205Y175135D01*
X353788D01*
X353372Y174718D01*
Y173885D01*
X353788Y173468D01*
X353372Y175968D02*
X355871D01*
Y177217D01*
X355454Y177634D01*
X355038D01*
X354621Y177217D01*
Y175968D01*
Y177217D01*
X354205Y177634D01*
X353788D01*
X353372Y177217D01*
Y175968D01*
X356147Y239094D02*
X353648D01*
Y240344D01*
X354065Y240761D01*
X354898D01*
X355314Y240344D01*
Y239094D01*
Y239928D02*
X356147Y240761D01*
Y243260D02*
Y241594D01*
X354481Y243260D01*
X354065D01*
X353648Y242843D01*
Y242010D01*
X354065Y241594D01*
X356147Y244093D02*
X354481D01*
X353648Y244926D01*
X354481Y245759D01*
X356147D01*
X354898D01*
Y244093D01*
X298166Y164499D02*
X297333D01*
X297750D01*
Y162417D01*
X297333Y162000D01*
X296917D01*
X296500Y162417D01*
X298999Y162000D02*
Y164499D01*
X300249D01*
X300665Y164083D01*
Y163250D01*
X300249Y162833D01*
X298999D01*
X299832D02*
X300665Y162000D01*
X303165Y164083D02*
X302748Y164499D01*
X301915D01*
X301498Y164083D01*
Y163666D01*
X301915Y163250D01*
X302748D01*
X303165Y162833D01*
Y162417D01*
X302748Y162000D01*
X301915D01*
X301498Y162417D01*
X303998Y164499D02*
X305664D01*
X304831D01*
Y162000D01*
X437632Y157039D02*
X437216Y157456D01*
X436383D01*
X435966Y157039D01*
Y155373D01*
X436383Y154957D01*
X437216D01*
X437632Y155373D01*
Y156206D01*
X436799D01*
X438465Y154957D02*
Y157456D01*
X440132Y154957D01*
Y157456D01*
X440965D02*
Y154957D01*
X442214D01*
X442631Y155373D01*
Y157039D01*
X442214Y157456D01*
X440965D01*
X443464Y157039D02*
X443880Y157456D01*
X444713D01*
X445130Y157039D01*
Y156623D01*
X444713Y156206D01*
X444297D01*
X444713D01*
X445130Y155790D01*
Y155373D01*
X444713Y154957D01*
X443880D01*
X443464Y155373D01*
X280166Y216583D02*
X279750Y216999D01*
X278917D01*
X278500Y216583D01*
Y214916D01*
X278917Y214500D01*
X279750D01*
X280166Y214916D01*
Y215750D01*
X279333D01*
X280999Y214500D02*
Y216999D01*
X282665Y214500D01*
Y216999D01*
X283498D02*
Y214500D01*
X284748D01*
X285164Y214916D01*
Y216583D01*
X284748Y216999D01*
X283498D01*
X287664Y214500D02*
X285998D01*
X287664Y216166D01*
Y216583D01*
X287247Y216999D01*
X286414D01*
X285998Y216583D01*
X318166Y47083D02*
X317750Y47499D01*
X316916D01*
X316500Y47083D01*
Y45417D01*
X316916Y45000D01*
X317750D01*
X318166Y45417D01*
Y46250D01*
X317333D01*
X318999Y45000D02*
Y47499D01*
X320665Y45000D01*
Y47499D01*
X321498D02*
Y45000D01*
X322748D01*
X323165Y45417D01*
Y47083D01*
X322748Y47499D01*
X321498D01*
X323998Y45000D02*
X324831D01*
X324414D01*
Y47499D01*
X323998Y47083D01*
X321586Y247679D02*
Y245180D01*
X322835D01*
X323252Y245596D01*
Y247262D01*
X322835Y247679D01*
X321586D01*
X324085D02*
X324918D01*
X324501D01*
Y245180D01*
X324085D01*
X324918D01*
X327417Y247679D02*
X326584D01*
X326168Y247262D01*
Y245596D01*
X326584Y245180D01*
X327417D01*
X327834Y245596D01*
Y247262D01*
X327417Y247679D01*
X299800Y124299D02*
Y121800D01*
X301050D01*
X301466Y122216D01*
Y123883D01*
X301050Y124299D01*
X299800D01*
X302299Y123883D02*
X302716Y124299D01*
X303549D01*
X303965Y123883D01*
Y123466D01*
X303549Y123050D01*
X303132D01*
X303549D01*
X303965Y122633D01*
Y122216D01*
X303549Y121800D01*
X302716D01*
X302299Y122216D01*
X304798Y121800D02*
X305631D01*
X305215D01*
Y124299D01*
X304798Y123883D01*
X63500Y239999D02*
Y237500D01*
X64750D01*
X65166Y237916D01*
Y239583D01*
X64750Y239999D01*
X63500D01*
X65999Y237916D02*
X66416Y237500D01*
X67249D01*
X67665Y237916D01*
Y239583D01*
X67249Y239999D01*
X66416D01*
X65999Y239583D01*
Y239166D01*
X66416Y238750D01*
X67665D01*
X68498Y239999D02*
Y237500D01*
X69748D01*
X70165Y237916D01*
Y238333D01*
X69748Y238750D01*
X68498D01*
X69748D01*
X70165Y239166D01*
Y239583D01*
X69748Y239999D01*
X68498D01*
X63500Y43499D02*
Y41000D01*
X64750D01*
X65166Y41416D01*
Y43083D01*
X64750Y43499D01*
X63500D01*
X65999Y41416D02*
X66416Y41000D01*
X67249D01*
X67665Y41416D01*
Y43083D01*
X67249Y43499D01*
X66416D01*
X65999Y43083D01*
Y42666D01*
X66416Y42250D01*
X67665D01*
X68498Y41000D02*
Y42666D01*
X69331Y43499D01*
X70165Y42666D01*
Y41000D01*
Y42250D01*
X68498D01*
X63976Y254468D02*
Y251969D01*
X65226D01*
X65642Y252385D01*
Y254051D01*
X65226Y254468D01*
X63976D01*
X66476Y254051D02*
X66892Y254468D01*
X67725D01*
X68142Y254051D01*
Y253635D01*
X67725Y253218D01*
X68142Y252802D01*
Y252385D01*
X67725Y251969D01*
X66892D01*
X66476Y252385D01*
Y252802D01*
X66892Y253218D01*
X66476Y253635D01*
Y254051D01*
X66892Y253218D02*
X67725D01*
X68975Y254468D02*
Y251969D01*
X70224D01*
X70641Y252385D01*
Y252802D01*
X70224Y253218D01*
X68975D01*
X70224D01*
X70641Y253635D01*
Y254051D01*
X70224Y254468D01*
X68975D01*
X62992Y57617D02*
Y55118D01*
X64242D01*
X64658Y55535D01*
Y57201D01*
X64242Y57617D01*
X62992D01*
X65491Y57201D02*
X65908Y57617D01*
X66741D01*
X67157Y57201D01*
Y56784D01*
X66741Y56368D01*
X67157Y55951D01*
Y55535D01*
X66741Y55118D01*
X65908D01*
X65491Y55535D01*
Y55951D01*
X65908Y56368D01*
X65491Y56784D01*
Y57201D01*
X65908Y56368D02*
X66741D01*
X67990Y55118D02*
Y56784D01*
X68824Y57617D01*
X69657Y56784D01*
Y55118D01*
Y56368D01*
X67990D01*
X358268Y55649D02*
Y53150D01*
X359517D01*
X359934Y53566D01*
Y55232D01*
X359517Y55649D01*
X358268D01*
X360767Y53150D02*
X361600D01*
X361183D01*
Y55649D01*
X360767Y55232D01*
X362850Y55649D02*
Y53150D01*
X364099D01*
X364516Y53566D01*
Y55232D01*
X364099Y55649D01*
X362850D01*
X358268Y121594D02*
Y119095D01*
X359517D01*
X359934Y119511D01*
Y121177D01*
X359517Y121594D01*
X358268D01*
X360767Y119095D02*
X361600D01*
X361183D01*
Y121594D01*
X360767Y121177D01*
X364516D02*
X364099Y121594D01*
X363266D01*
X362850Y121177D01*
Y119511D01*
X363266Y119095D01*
X364099D01*
X364516Y119511D01*
X358268Y188523D02*
Y186024D01*
X359517D01*
X359934Y186440D01*
Y188106D01*
X359517Y188523D01*
X358268D01*
X360767Y186024D02*
X361600D01*
X361183D01*
Y188523D01*
X360767Y188106D01*
X362850Y188523D02*
Y186024D01*
X364099D01*
X364516Y186440D01*
Y186857D01*
X364099Y187273D01*
X362850D01*
X364099D01*
X364516Y187690D01*
Y188106D01*
X364099Y188523D01*
X362850D01*
X358268Y255452D02*
Y252953D01*
X359517D01*
X359934Y253369D01*
Y255035D01*
X359517Y255452D01*
X358268D01*
X360767Y252953D02*
X361600D01*
X361183D01*
Y255452D01*
X360767Y255035D01*
X362850Y252953D02*
Y254619D01*
X363683Y255452D01*
X364516Y254619D01*
Y252953D01*
Y254202D01*
X362850D01*
X305166Y244083D02*
X304750Y244499D01*
X303917D01*
X303500Y244083D01*
Y242417D01*
X303917Y242000D01*
X304750D01*
X305166Y242417D01*
X305999Y244499D02*
Y242000D01*
X307665D01*
X308498Y244499D02*
Y242000D01*
Y242833D01*
X310164Y244499D01*
X308915Y243250D01*
X310164Y242000D01*
X242917Y283166D02*
X242501Y282750D01*
Y281916D01*
X242917Y281500D01*
X244584D01*
X245000Y281916D01*
Y282750D01*
X244584Y283166D01*
X245000Y283999D02*
Y284832D01*
Y284416D01*
X242501D01*
X242917Y283999D01*
Y286082D02*
X242501Y286498D01*
Y287331D01*
X242917Y287748D01*
X244584D01*
X245000Y287331D01*
Y286498D01*
X244584Y286082D01*
X242917D01*
X245000Y290247D02*
Y288581D01*
X243334Y290247D01*
X242917D01*
X242501Y289831D01*
Y288998D01*
X242917Y288581D01*
X278917Y153166D02*
X278501Y152750D01*
Y151917D01*
X278917Y151500D01*
X280584D01*
X281000Y151917D01*
Y152750D01*
X280584Y153166D01*
X281000Y153999D02*
Y154832D01*
Y154416D01*
X278501D01*
X278917Y153999D01*
Y156082D02*
X278501Y156498D01*
Y157331D01*
X278917Y157748D01*
X280584D01*
X281000Y157331D01*
Y156498D01*
X280584Y156082D01*
X278917D01*
X281000Y158581D02*
Y159414D01*
Y158998D01*
X278501D01*
X278917Y158581D01*
X221517Y97266D02*
X221101Y96850D01*
Y96017D01*
X221517Y95600D01*
X223183D01*
X223600Y96017D01*
Y96850D01*
X223183Y97266D01*
X221101Y98099D02*
Y99765D01*
X221517D01*
X223183Y98099D01*
X223600D01*
X221101Y100598D02*
Y102264D01*
X221517D01*
X223183Y100598D01*
X223600D01*
X202117Y97666D02*
X201701Y97250D01*
Y96416D01*
X202117Y96000D01*
X203783D01*
X204200Y96416D01*
Y97250D01*
X203783Y97666D01*
X201701Y98499D02*
Y100165D01*
X202117D01*
X203783Y98499D01*
X204200D01*
X201701Y102664D02*
X202117Y101831D01*
X202950Y100998D01*
X203783D01*
X204200Y101415D01*
Y102248D01*
X203783Y102664D01*
X203367D01*
X202950Y102248D01*
Y100998D01*
X228166Y74583D02*
X227750Y74999D01*
X226917D01*
X226500Y74583D01*
Y72917D01*
X226917Y72500D01*
X227750D01*
X228166Y72917D01*
X228999Y74999D02*
X230665D01*
Y74583D01*
X228999Y72917D01*
Y72500D01*
X233165Y74999D02*
X231498D01*
Y73750D01*
X232331Y74166D01*
X232748D01*
X233165Y73750D01*
Y72917D01*
X232748Y72500D01*
X231915D01*
X231498Y72917D01*
X229917Y42166D02*
X229501Y41750D01*
Y40916D01*
X229917Y40500D01*
X231583D01*
X232000Y40916D01*
Y41750D01*
X231583Y42166D01*
X229501Y42999D02*
Y44665D01*
X229917D01*
X231583Y42999D01*
X232000D01*
Y47164D02*
Y45498D01*
X230334Y47164D01*
X229917D01*
X229501Y46748D01*
Y45915D01*
X229917Y45498D01*
X282417Y180166D02*
X282001Y179750D01*
Y178917D01*
X282417Y178500D01*
X284084D01*
X284500Y178917D01*
Y179750D01*
X284084Y180166D01*
X282001Y182665D02*
X282417Y181832D01*
X283250Y180999D01*
X284084D01*
X284500Y181416D01*
Y182249D01*
X284084Y182665D01*
X283667D01*
X283250Y182249D01*
Y180999D01*
X282001Y183498D02*
Y185164D01*
X282417D01*
X284084Y183498D01*
X284500D01*
X186917Y62666D02*
X186501Y62250D01*
Y61417D01*
X186917Y61000D01*
X188584D01*
X189000Y61417D01*
Y62250D01*
X188584Y62666D01*
X186501Y65165D02*
X186917Y64332D01*
X187750Y63499D01*
X188584D01*
X189000Y63916D01*
Y64749D01*
X188584Y65165D01*
X188167D01*
X187750Y64749D01*
Y63499D01*
X189000Y65998D02*
Y66831D01*
Y66415D01*
X186501D01*
X186917Y65998D01*
X108483Y141534D02*
X108899Y141950D01*
Y142783D01*
X108483Y143200D01*
X106816D01*
X106400Y142783D01*
Y141950D01*
X106816Y141534D01*
X108899Y139035D02*
X108483Y139868D01*
X107650Y140701D01*
X106816D01*
X106400Y140284D01*
Y139451D01*
X106816Y139035D01*
X107233D01*
X107650Y139451D01*
Y140701D01*
X108483Y138202D02*
X108899Y137785D01*
Y136952D01*
X108483Y136536D01*
X106816D01*
X106400Y136952D01*
Y137785D01*
X106816Y138202D01*
X108483D01*
Y151534D02*
X108899Y151950D01*
Y152784D01*
X108483Y153200D01*
X106816D01*
X106400Y152784D01*
Y151950D01*
X106816Y151534D01*
X108899Y149035D02*
Y150701D01*
X107650D01*
X108066Y149868D01*
Y149451D01*
X107650Y149035D01*
X106816D01*
X106400Y149451D01*
Y150284D01*
X106816Y150701D01*
Y148202D02*
X106400Y147785D01*
Y146952D01*
X106816Y146536D01*
X108483D01*
X108899Y146952D01*
Y147785D01*
X108483Y148202D01*
X108066D01*
X107650Y147785D01*
Y146536D01*
X59917Y199666D02*
X59501Y199250D01*
Y198416D01*
X59917Y198000D01*
X61584D01*
X62000Y198416D01*
Y199250D01*
X61584Y199666D01*
X59501Y202165D02*
Y200499D01*
X60750D01*
X60334Y201332D01*
Y201749D01*
X60750Y202165D01*
X61584D01*
X62000Y201749D01*
Y200916D01*
X61584Y200499D01*
X59917Y202998D02*
X59501Y203415D01*
Y204248D01*
X59917Y204664D01*
X60334D01*
X60750Y204248D01*
X61167Y204664D01*
X61584D01*
X62000Y204248D01*
Y203415D01*
X61584Y202998D01*
X61167D01*
X60750Y203415D01*
X60334Y202998D01*
X59917D01*
X60750Y203415D02*
Y204248D01*
X59501Y205498D02*
X62000D01*
Y206747D01*
X61584Y207164D01*
X61167D01*
X60750Y206747D01*
Y205498D01*
Y206747D01*
X60334Y207164D01*
X59917D01*
X59501Y206747D01*
Y205498D01*
X58941Y67611D02*
X58524Y67194D01*
Y66361D01*
X58941Y65945D01*
X60607D01*
X61024Y66361D01*
Y67194D01*
X60607Y67611D01*
X58524Y70110D02*
Y68444D01*
X59774D01*
X59358Y69277D01*
Y69694D01*
X59774Y70110D01*
X60607D01*
X61024Y69694D01*
Y68861D01*
X60607Y68444D01*
X58941Y70943D02*
X58524Y71360D01*
Y72193D01*
X58941Y72609D01*
X59358D01*
X59774Y72193D01*
X60191Y72609D01*
X60607D01*
X61024Y72193D01*
Y71360D01*
X60607Y70943D01*
X60191D01*
X59774Y71360D01*
X59358Y70943D01*
X58941D01*
X59774Y71360D02*
Y72193D01*
X61024Y73442D02*
X59358D01*
X58524Y74275D01*
X59358Y75109D01*
X61024D01*
X59774D01*
Y73442D01*
X143417Y224666D02*
X143001Y224250D01*
Y223416D01*
X143417Y223000D01*
X145083D01*
X145500Y223416D01*
Y224250D01*
X145083Y224666D01*
X143001Y227165D02*
Y225499D01*
X144250D01*
X143834Y226332D01*
Y226749D01*
X144250Y227165D01*
X145083D01*
X145500Y226749D01*
Y225916D01*
X145083Y225499D01*
X143001Y227998D02*
Y229664D01*
X143417D01*
X145083Y227998D01*
X145500D01*
X143001Y230498D02*
X145500D01*
Y231747D01*
X145083Y232164D01*
X144667D01*
X144250Y231747D01*
Y230498D01*
Y231747D01*
X143834Y232164D01*
X143417D01*
X143001Y231747D01*
Y230498D01*
X143587Y92217D02*
X143170Y91801D01*
Y90968D01*
X143587Y90551D01*
X145253D01*
X145669Y90968D01*
Y91801D01*
X145253Y92217D01*
X143170Y94717D02*
Y93050D01*
X144420D01*
X144003Y93883D01*
Y94300D01*
X144420Y94717D01*
X145253D01*
X145669Y94300D01*
Y93467D01*
X145253Y93050D01*
X143170Y95550D02*
Y97216D01*
X143587D01*
X145253Y95550D01*
X145669D01*
Y98049D02*
X144003D01*
X143170Y98882D01*
X144003Y99715D01*
X145669D01*
X144420D01*
Y98049D01*
X74417Y216666D02*
X74001Y216250D01*
Y215417D01*
X74417Y215000D01*
X76083D01*
X76500Y215417D01*
Y216250D01*
X76083Y216666D01*
X74001Y219165D02*
Y217499D01*
X75250D01*
X74834Y218332D01*
Y218749D01*
X75250Y219165D01*
X76083D01*
X76500Y218749D01*
Y217916D01*
X76083Y217499D01*
X74001Y221665D02*
X74417Y220831D01*
X75250Y219998D01*
X76083D01*
X76500Y220415D01*
Y221248D01*
X76083Y221665D01*
X75667D01*
X75250Y221248D01*
Y219998D01*
X74001Y222498D02*
X76500D01*
Y223747D01*
X76083Y224164D01*
X75667D01*
X75250Y223747D01*
Y222498D01*
Y223747D01*
X74834Y224164D01*
X74417D01*
X74001Y223747D01*
Y222498D01*
X68917Y95666D02*
X68501Y95250D01*
Y94416D01*
X68917Y94000D01*
X70583D01*
X71000Y94416D01*
Y95250D01*
X70583Y95666D01*
X68501Y98165D02*
Y96499D01*
X69750D01*
X69334Y97332D01*
Y97749D01*
X69750Y98165D01*
X70583D01*
X71000Y97749D01*
Y96916D01*
X70583Y96499D01*
X68501Y100664D02*
X68917Y99831D01*
X69750Y98998D01*
X70583D01*
X71000Y99415D01*
Y100248D01*
X70583Y100664D01*
X70167D01*
X69750Y100248D01*
Y98998D01*
X71000Y101498D02*
X69334D01*
X68501Y102331D01*
X69334Y103164D01*
X71000D01*
X69750D01*
Y101498D01*
X59917Y210666D02*
X59501Y210250D01*
Y209417D01*
X59917Y209000D01*
X61584D01*
X62000Y209417D01*
Y210250D01*
X61584Y210666D01*
X59501Y213165D02*
Y211499D01*
X60750D01*
X60334Y212332D01*
Y212749D01*
X60750Y213165D01*
X61584D01*
X62000Y212749D01*
Y211916D01*
X61584Y211499D01*
X59501Y215665D02*
Y213998D01*
X60750D01*
X60334Y214831D01*
Y215248D01*
X60750Y215665D01*
X61584D01*
X62000Y215248D01*
Y214415D01*
X61584Y213998D01*
X59501Y216498D02*
X62000D01*
Y217747D01*
X61584Y218164D01*
X61167D01*
X60750Y217747D01*
Y216498D01*
Y217747D01*
X60334Y218164D01*
X59917D01*
X59501Y217747D01*
Y216498D01*
X58941Y78438D02*
X58524Y78021D01*
Y77188D01*
X58941Y76772D01*
X60607D01*
X61024Y77188D01*
Y78021D01*
X60607Y78438D01*
X58524Y80937D02*
Y79271D01*
X59774D01*
X59358Y80104D01*
Y80520D01*
X59774Y80937D01*
X60607D01*
X61024Y80520D01*
Y79687D01*
X60607Y79271D01*
X58524Y83436D02*
Y81770D01*
X59774D01*
X59358Y82603D01*
Y83020D01*
X59774Y83436D01*
X60607D01*
X61024Y83020D01*
Y82187D01*
X60607Y81770D01*
X61024Y84269D02*
X59358D01*
X58524Y85102D01*
X59358Y85935D01*
X61024D01*
X59774D01*
Y84269D01*
X83417Y202666D02*
X83001Y202250D01*
Y201416D01*
X83417Y201000D01*
X85084D01*
X85500Y201416D01*
Y202250D01*
X85084Y202666D01*
X83001Y205165D02*
Y203499D01*
X84250D01*
X83834Y204332D01*
Y204749D01*
X84250Y205165D01*
X85084D01*
X85500Y204749D01*
Y203916D01*
X85084Y203499D01*
X85500Y207248D02*
X83001D01*
X84250Y205998D01*
Y207664D01*
X83001Y208498D02*
X85500D01*
Y209747D01*
X85084Y210164D01*
X84667D01*
X84250Y209747D01*
Y208498D01*
Y209747D01*
X83834Y210164D01*
X83417D01*
X83001Y209747D01*
Y208498D01*
X83547Y71548D02*
X83131Y71131D01*
Y70298D01*
X83547Y69882D01*
X85213D01*
X85630Y70298D01*
Y71131D01*
X85213Y71548D01*
X83131Y74047D02*
Y72381D01*
X84380D01*
X83964Y73214D01*
Y73631D01*
X84380Y74047D01*
X85213D01*
X85630Y73631D01*
Y72798D01*
X85213Y72381D01*
X85630Y76130D02*
X83131D01*
X84380Y74880D01*
Y76546D01*
X85630Y77380D02*
X83964D01*
X83131Y78212D01*
X83964Y79046D01*
X85630D01*
X84380D01*
Y77380D01*
X381776Y69579D02*
X381359Y69163D01*
Y68330D01*
X381776Y67913D01*
X383442D01*
X383858Y68330D01*
Y69163D01*
X383442Y69579D01*
X383858Y70413D02*
Y71246D01*
Y70829D01*
X381359D01*
X381776Y70413D01*
X383858Y73745D02*
X381359D01*
X382609Y72495D01*
Y74161D01*
X381359Y74994D02*
X383858D01*
Y76244D01*
X383442Y76661D01*
X381776D01*
X381359Y76244D01*
Y74994D01*
X381776Y136509D02*
X381359Y136092D01*
Y135259D01*
X381776Y134843D01*
X383442D01*
X383858Y135259D01*
Y136092D01*
X383442Y136509D01*
X383858Y137342D02*
Y138175D01*
Y137758D01*
X381359D01*
X381776Y137342D01*
X383858Y140674D02*
X381359D01*
X382609Y139424D01*
Y141091D01*
X381776Y143590D02*
X381359Y143173D01*
Y142340D01*
X381776Y141924D01*
X383442D01*
X383858Y142340D01*
Y143173D01*
X383442Y143590D01*
X381776Y203438D02*
X381359Y203021D01*
Y202188D01*
X381776Y201772D01*
X383442D01*
X383858Y202188D01*
Y203021D01*
X383442Y203438D01*
X383858Y204271D02*
Y205104D01*
Y204687D01*
X381359D01*
X381776Y204271D01*
X383858Y207603D02*
X381359D01*
X382609Y206353D01*
Y208020D01*
X381359Y208853D02*
X383858D01*
Y210102D01*
X383442Y210519D01*
X383025D01*
X382609Y210102D01*
Y208853D01*
Y210102D01*
X382192Y210519D01*
X381776D01*
X381359Y210102D01*
Y208853D01*
X380791Y270367D02*
X380375Y269950D01*
Y269117D01*
X380791Y268701D01*
X382457D01*
X382874Y269117D01*
Y269950D01*
X382457Y270367D01*
X382874Y271200D02*
Y272033D01*
Y271617D01*
X380375D01*
X380791Y271200D01*
X382874Y274532D02*
X380375D01*
X381624Y273283D01*
Y274949D01*
X382874Y275782D02*
X381208D01*
X380375Y276615D01*
X381208Y277448D01*
X382874D01*
X381624D01*
Y275782D01*
X385713Y69579D02*
X385296Y69163D01*
Y68330D01*
X385713Y67913D01*
X387379D01*
X387795Y68330D01*
Y69163D01*
X387379Y69579D01*
X387795Y70413D02*
Y71246D01*
Y70829D01*
X385296D01*
X385713Y70413D01*
Y72495D02*
X385296Y72912D01*
Y73745D01*
X385713Y74161D01*
X386129D01*
X386546Y73745D01*
Y73328D01*
Y73745D01*
X386962Y74161D01*
X387379D01*
X387795Y73745D01*
Y72912D01*
X387379Y72495D01*
X385296Y74994D02*
X387795D01*
Y76244D01*
X387379Y76661D01*
X385713D01*
X385296Y76244D01*
Y74994D01*
X385713Y136509D02*
X385296Y136092D01*
Y135259D01*
X385713Y134843D01*
X387379D01*
X387795Y135259D01*
Y136092D01*
X387379Y136509D01*
X387795Y137342D02*
Y138175D01*
Y137758D01*
X385296D01*
X385713Y137342D01*
Y139424D02*
X385296Y139841D01*
Y140674D01*
X385713Y141091D01*
X386129D01*
X386546Y140674D01*
Y140257D01*
Y140674D01*
X386962Y141091D01*
X387379D01*
X387795Y140674D01*
Y139841D01*
X387379Y139424D01*
X385713Y143590D02*
X385296Y143173D01*
Y142340D01*
X385713Y141924D01*
X387379D01*
X387795Y142340D01*
Y143173D01*
X387379Y143590D01*
X385713Y203438D02*
X385296Y203021D01*
Y202188D01*
X385713Y201772D01*
X387379D01*
X387795Y202188D01*
Y203021D01*
X387379Y203438D01*
X387795Y204271D02*
Y205104D01*
Y204687D01*
X385296D01*
X385713Y204271D01*
Y206353D02*
X385296Y206770D01*
Y207603D01*
X385713Y208020D01*
X386129D01*
X386546Y207603D01*
Y207187D01*
Y207603D01*
X386962Y208020D01*
X387379D01*
X387795Y207603D01*
Y206770D01*
X387379Y206353D01*
X385296Y208853D02*
X387795D01*
Y210102D01*
X387379Y210519D01*
X386962D01*
X386546Y210102D01*
Y208853D01*
Y210102D01*
X386129Y210519D01*
X385713D01*
X385296Y210102D01*
Y208853D01*
X384728Y270367D02*
X384312Y269950D01*
Y269117D01*
X384728Y268701D01*
X386395D01*
X386811Y269117D01*
Y269950D01*
X386395Y270367D01*
X386811Y271200D02*
Y272033D01*
Y271617D01*
X384312D01*
X384728Y271200D01*
Y273283D02*
X384312Y273699D01*
Y274532D01*
X384728Y274949D01*
X385145D01*
X385561Y274532D01*
Y274116D01*
Y274532D01*
X385978Y274949D01*
X386395D01*
X386811Y274532D01*
Y273699D01*
X386395Y273283D01*
X386811Y275782D02*
X385145D01*
X384312Y276615D01*
X385145Y277448D01*
X386811D01*
X385561D01*
Y275782D01*
X384728Y48910D02*
X384312Y48494D01*
Y47661D01*
X384728Y47244D01*
X386395D01*
X386811Y47661D01*
Y48494D01*
X386395Y48910D01*
X386811Y49743D02*
Y50576D01*
Y50160D01*
X384312D01*
X384728Y49743D01*
X386811Y53492D02*
Y51826D01*
X385145Y53492D01*
X384728D01*
X384312Y53075D01*
Y52242D01*
X384728Y51826D01*
X384312Y54325D02*
X386811D01*
Y55575D01*
X386395Y55991D01*
X384728D01*
X384312Y55575D01*
Y54325D01*
X384728Y181784D02*
X384312Y181368D01*
Y180535D01*
X384728Y180118D01*
X386395D01*
X386811Y180535D01*
Y181368D01*
X386395Y181784D01*
X386811Y182617D02*
Y183450D01*
Y183034D01*
X384312D01*
X384728Y182617D01*
X386811Y186366D02*
Y184700D01*
X385145Y186366D01*
X384728D01*
X384312Y185950D01*
Y185117D01*
X384728Y184700D01*
X384312Y187199D02*
X386811D01*
Y188449D01*
X386395Y188865D01*
X385978D01*
X385561Y188449D01*
Y187199D01*
Y188449D01*
X385145Y188865D01*
X384728D01*
X384312Y188449D01*
Y187199D01*
X384728Y248713D02*
X384312Y248297D01*
Y247464D01*
X384728Y247047D01*
X386395D01*
X386811Y247464D01*
Y248297D01*
X386395Y248713D01*
X386811Y249546D02*
Y250379D01*
Y249963D01*
X384312D01*
X384728Y249546D01*
X386811Y253295D02*
Y251629D01*
X385145Y253295D01*
X384728D01*
X384312Y252879D01*
Y252046D01*
X384728Y251629D01*
X386811Y254128D02*
X385145D01*
X384312Y254961D01*
X385145Y255794D01*
X386811D01*
X385561D01*
Y254128D01*
X393587Y69579D02*
X393170Y69163D01*
Y68330D01*
X393587Y67913D01*
X395253D01*
X395669Y68330D01*
Y69163D01*
X395253Y69579D01*
X395669Y70413D02*
Y71246D01*
Y70829D01*
X393170D01*
X393587Y70413D01*
X395669Y72495D02*
Y73328D01*
Y72912D01*
X393170D01*
X393587Y72495D01*
X393170Y74578D02*
X395669D01*
Y75827D01*
X395253Y76244D01*
X393587D01*
X393170Y75827D01*
Y74578D01*
X393587Y136509D02*
X393170Y136092D01*
Y135259D01*
X393587Y134843D01*
X395253D01*
X395669Y135259D01*
Y136092D01*
X395253Y136509D01*
X395669Y137342D02*
Y138175D01*
Y137758D01*
X393170D01*
X393587Y137342D01*
X395669Y139424D02*
Y140257D01*
Y139841D01*
X393170D01*
X393587Y139424D01*
Y143173D02*
X393170Y142757D01*
Y141924D01*
X393587Y141507D01*
X395253D01*
X395669Y141924D01*
Y142757D01*
X395253Y143173D01*
X393587Y203438D02*
X393170Y203021D01*
Y202188D01*
X393587Y201772D01*
X395253D01*
X395669Y202188D01*
Y203021D01*
X395253Y203438D01*
X395669Y204271D02*
Y205104D01*
Y204687D01*
X393170D01*
X393587Y204271D01*
X395669Y206353D02*
Y207187D01*
Y206770D01*
X393170D01*
X393587Y206353D01*
X393170Y208436D02*
X395669D01*
Y209686D01*
X395253Y210102D01*
X394836D01*
X394420Y209686D01*
Y208436D01*
Y209686D01*
X394003Y210102D01*
X393587D01*
X393170Y209686D01*
Y208436D01*
X392602Y270367D02*
X392186Y269950D01*
Y269117D01*
X392602Y268701D01*
X394268D01*
X394685Y269117D01*
Y269950D01*
X394268Y270367D01*
X394685Y271200D02*
Y272033D01*
Y271617D01*
X392186D01*
X392602Y271200D01*
X394685Y273283D02*
Y274116D01*
Y273699D01*
X392186D01*
X392602Y273283D01*
X394685Y275365D02*
X393019D01*
X392186Y276198D01*
X393019Y277031D01*
X394685D01*
X393435D01*
Y275365D01*
X392602Y48910D02*
X392186Y48494D01*
Y47661D01*
X392602Y47244D01*
X394268D01*
X394685Y47661D01*
Y48494D01*
X394268Y48910D01*
X394685Y49743D02*
Y50576D01*
Y50160D01*
X392186D01*
X392602Y49743D01*
Y51826D02*
X392186Y52242D01*
Y53075D01*
X392602Y53492D01*
X394268D01*
X394685Y53075D01*
Y52242D01*
X394268Y51826D01*
X392602D01*
X392186Y54325D02*
X394685D01*
Y55575D01*
X394268Y55991D01*
X392602D01*
X392186Y55575D01*
Y54325D01*
X392602Y115839D02*
X392186Y115423D01*
Y114590D01*
X392602Y114173D01*
X394268D01*
X394685Y114590D01*
Y115423D01*
X394268Y115839D01*
X394685Y116672D02*
Y117506D01*
Y117089D01*
X392186D01*
X392602Y116672D01*
Y118755D02*
X392186Y119172D01*
Y120005D01*
X392602Y120421D01*
X394268D01*
X394685Y120005D01*
Y119172D01*
X394268Y118755D01*
X392602D01*
Y122920D02*
X392186Y122504D01*
Y121671D01*
X392602Y121254D01*
X394268D01*
X394685Y121671D01*
Y122504D01*
X394268Y122920D01*
X392602Y181784D02*
X392186Y181368D01*
Y180535D01*
X392602Y180118D01*
X394268D01*
X394685Y180535D01*
Y181368D01*
X394268Y181784D01*
X394685Y182617D02*
Y183450D01*
Y183034D01*
X392186D01*
X392602Y182617D01*
Y184700D02*
X392186Y185117D01*
Y185950D01*
X392602Y186366D01*
X394268D01*
X394685Y185950D01*
Y185117D01*
X394268Y184700D01*
X392602D01*
X392186Y187199D02*
X394685D01*
Y188449D01*
X394268Y188865D01*
X393852D01*
X393435Y188449D01*
Y187199D01*
Y188449D01*
X393019Y188865D01*
X392602D01*
X392186Y188449D01*
Y187199D01*
X392602Y248713D02*
X392186Y248297D01*
Y247464D01*
X392602Y247047D01*
X394268D01*
X394685Y247464D01*
Y248297D01*
X394268Y248713D01*
X394685Y249546D02*
Y250379D01*
Y249963D01*
X392186D01*
X392602Y249546D01*
Y251629D02*
X392186Y252046D01*
Y252879D01*
X392602Y253295D01*
X394268D01*
X394685Y252879D01*
Y252046D01*
X394268Y251629D01*
X392602D01*
X394685Y254128D02*
X393019D01*
X392186Y254961D01*
X393019Y255794D01*
X394685D01*
X393435D01*
Y254128D01*
X402445Y48910D02*
X402028Y48494D01*
Y47661D01*
X402445Y47244D01*
X404111D01*
X404528Y47661D01*
Y48494D01*
X404111Y48910D01*
X402445Y49743D02*
X402028Y50160D01*
Y50993D01*
X402445Y51409D01*
X402861D01*
X403278Y50993D01*
X403694Y51409D01*
X404111D01*
X404528Y50993D01*
Y50160D01*
X404111Y49743D01*
X403694D01*
X403278Y50160D01*
X402861Y49743D01*
X402445D01*
X403278Y50160D02*
Y50993D01*
X402028Y52242D02*
X404528D01*
Y53492D01*
X404111Y53909D01*
X402445D01*
X402028Y53492D01*
Y52242D01*
X402445Y115839D02*
X402028Y115423D01*
Y114590D01*
X402445Y114173D01*
X404111D01*
X404528Y114590D01*
Y115423D01*
X404111Y115839D01*
X402445Y116672D02*
X402028Y117089D01*
Y117922D01*
X402445Y118339D01*
X402861D01*
X403278Y117922D01*
X403694Y118339D01*
X404111D01*
X404528Y117922D01*
Y117089D01*
X404111Y116672D01*
X403694D01*
X403278Y117089D01*
X402861Y116672D01*
X402445D01*
X403278Y117089D02*
Y117922D01*
X402445Y120838D02*
X402028Y120421D01*
Y119588D01*
X402445Y119172D01*
X404111D01*
X404528Y119588D01*
Y120421D01*
X404111Y120838D01*
X402445Y181784D02*
X402028Y181368D01*
Y180535D01*
X402445Y180118D01*
X404111D01*
X404528Y180535D01*
Y181368D01*
X404111Y181784D01*
X402445Y182617D02*
X402028Y183034D01*
Y183867D01*
X402445Y184283D01*
X402861D01*
X403278Y183867D01*
X403694Y184283D01*
X404111D01*
X404528Y183867D01*
Y183034D01*
X404111Y182617D01*
X403694D01*
X403278Y183034D01*
X402861Y182617D01*
X402445D01*
X403278Y183034D02*
Y183867D01*
X402028Y185117D02*
X404528D01*
Y186366D01*
X404111Y186783D01*
X403694D01*
X403278Y186366D01*
Y185117D01*
Y186366D01*
X402861Y186783D01*
X402445D01*
X402028Y186366D01*
Y185117D01*
X402445Y248713D02*
X402028Y248297D01*
Y247464D01*
X402445Y247047D01*
X404111D01*
X404528Y247464D01*
Y248297D01*
X404111Y248713D01*
X402445Y249546D02*
X402028Y249963D01*
Y250796D01*
X402445Y251213D01*
X402861D01*
X403278Y250796D01*
X403694Y251213D01*
X404111D01*
X404528Y250796D01*
Y249963D01*
X404111Y249546D01*
X403694D01*
X403278Y249963D01*
X402861Y249546D01*
X402445D01*
X403278Y249963D02*
Y250796D01*
X404528Y252046D02*
X402861D01*
X402028Y252879D01*
X402861Y253712D01*
X404528D01*
X403278D01*
Y252046D01*
X397524Y69579D02*
X397107Y69163D01*
Y68330D01*
X397524Y67913D01*
X399190D01*
X399606Y68330D01*
Y69163D01*
X399190Y69579D01*
X397107Y70413D02*
Y72079D01*
X397524D01*
X399190Y70413D01*
X399606D01*
X397107Y72912D02*
X399606D01*
Y74161D01*
X399190Y74578D01*
X397524D01*
X397107Y74161D01*
Y72912D01*
X397524Y136509D02*
X397107Y136092D01*
Y135259D01*
X397524Y134843D01*
X399190D01*
X399606Y135259D01*
Y136092D01*
X399190Y136509D01*
X397107Y137342D02*
Y139008D01*
X397524D01*
X399190Y137342D01*
X399606D01*
X397524Y141507D02*
X397107Y141091D01*
Y140257D01*
X397524Y139841D01*
X399190D01*
X399606Y140257D01*
Y141091D01*
X399190Y141507D01*
X397524Y203438D02*
X397107Y203021D01*
Y202188D01*
X397524Y201772D01*
X399190D01*
X399606Y202188D01*
Y203021D01*
X399190Y203438D01*
X397107Y204271D02*
Y205937D01*
X397524D01*
X399190Y204271D01*
X399606D01*
X397107Y206770D02*
X399606D01*
Y208020D01*
X399190Y208436D01*
X398773D01*
X398357Y208020D01*
Y206770D01*
Y208020D01*
X397940Y208436D01*
X397524D01*
X397107Y208020D01*
Y206770D01*
X396539Y270367D02*
X396123Y269950D01*
Y269117D01*
X396539Y268701D01*
X398205D01*
X398622Y269117D01*
Y269950D01*
X398205Y270367D01*
X396123Y271200D02*
Y272866D01*
X396539D01*
X398205Y271200D01*
X398622D01*
Y273699D02*
X396956D01*
X396123Y274532D01*
X396956Y275365D01*
X398622D01*
X397372D01*
Y273699D01*
X406382Y48910D02*
X405965Y48494D01*
Y47661D01*
X406382Y47244D01*
X408048D01*
X408465Y47661D01*
Y48494D01*
X408048Y48910D01*
X405965Y51409D02*
X406382Y50576D01*
X407215Y49743D01*
X408048D01*
X408465Y50160D01*
Y50993D01*
X408048Y51409D01*
X407631D01*
X407215Y50993D01*
Y49743D01*
X405965Y52242D02*
X408465D01*
Y53492D01*
X408048Y53909D01*
X406382D01*
X405965Y53492D01*
Y52242D01*
X406382Y115839D02*
X405965Y115423D01*
Y114590D01*
X406382Y114173D01*
X408048D01*
X408465Y114590D01*
Y115423D01*
X408048Y115839D01*
X405965Y118339D02*
X406382Y117506D01*
X407215Y116672D01*
X408048D01*
X408465Y117089D01*
Y117922D01*
X408048Y118339D01*
X407631D01*
X407215Y117922D01*
Y116672D01*
X406382Y120838D02*
X405965Y120421D01*
Y119588D01*
X406382Y119172D01*
X408048D01*
X408465Y119588D01*
Y120421D01*
X408048Y120838D01*
X406382Y181784D02*
X405965Y181368D01*
Y180535D01*
X406382Y180118D01*
X408048D01*
X408465Y180535D01*
Y181368D01*
X408048Y181784D01*
X405965Y184283D02*
X406382Y183450D01*
X407215Y182617D01*
X408048D01*
X408465Y183034D01*
Y183867D01*
X408048Y184283D01*
X407631D01*
X407215Y183867D01*
Y182617D01*
X405965Y185117D02*
X408465D01*
Y186366D01*
X408048Y186783D01*
X407631D01*
X407215Y186366D01*
Y185117D01*
Y186366D01*
X406798Y186783D01*
X406382D01*
X405965Y186366D01*
Y185117D01*
X407366Y248713D02*
X406950Y248297D01*
Y247464D01*
X407366Y247047D01*
X409032D01*
X409449Y247464D01*
Y248297D01*
X409032Y248713D01*
X406950Y251213D02*
X407366Y250379D01*
X408199Y249546D01*
X409032D01*
X409449Y249963D01*
Y250796D01*
X409032Y251213D01*
X408616D01*
X408199Y250796D01*
Y249546D01*
X409449Y252046D02*
X407783D01*
X406950Y252879D01*
X407783Y253712D01*
X409449D01*
X408199D01*
Y252046D01*
X389650Y69579D02*
X389233Y69163D01*
Y68330D01*
X389650Y67913D01*
X391316D01*
X391732Y68330D01*
Y69163D01*
X391316Y69579D01*
X389233Y72079D02*
Y70413D01*
X390483D01*
X390066Y71246D01*
Y71662D01*
X390483Y72079D01*
X391316D01*
X391732Y71662D01*
Y70829D01*
X391316Y70413D01*
X389233Y72912D02*
X391732D01*
Y74161D01*
X391316Y74578D01*
X389650D01*
X389233Y74161D01*
Y72912D01*
X389650Y136509D02*
X389233Y136092D01*
Y135259D01*
X389650Y134843D01*
X391316D01*
X391732Y135259D01*
Y136092D01*
X391316Y136509D01*
X389233Y139008D02*
Y137342D01*
X390483D01*
X390066Y138175D01*
Y138591D01*
X390483Y139008D01*
X391316D01*
X391732Y138591D01*
Y137758D01*
X391316Y137342D01*
X389650Y141507D02*
X389233Y141091D01*
Y140257D01*
X389650Y139841D01*
X391316D01*
X391732Y140257D01*
Y141091D01*
X391316Y141507D01*
X389650Y203438D02*
X389233Y203021D01*
Y202188D01*
X389650Y201772D01*
X391316D01*
X391732Y202188D01*
Y203021D01*
X391316Y203438D01*
X389233Y205937D02*
Y204271D01*
X390483D01*
X390066Y205104D01*
Y205520D01*
X390483Y205937D01*
X391316D01*
X391732Y205520D01*
Y204687D01*
X391316Y204271D01*
X389233Y206770D02*
X391732D01*
Y208020D01*
X391316Y208436D01*
X390899D01*
X390483Y208020D01*
Y206770D01*
Y208020D01*
X390066Y208436D01*
X389650D01*
X389233Y208020D01*
Y206770D01*
X388665Y270367D02*
X388249Y269950D01*
Y269117D01*
X388665Y268701D01*
X390332D01*
X390748Y269117D01*
Y269950D01*
X390332Y270367D01*
X388249Y272866D02*
Y271200D01*
X389498D01*
X389082Y272033D01*
Y272450D01*
X389498Y272866D01*
X390332D01*
X390748Y272450D01*
Y271617D01*
X390332Y271200D01*
X390748Y273699D02*
X389082D01*
X388249Y274532D01*
X389082Y275365D01*
X390748D01*
X389498D01*
Y273699D01*
X233566Y94500D02*
X231900D01*
X233566Y96166D01*
Y96583D01*
X233150Y96999D01*
X232316D01*
X231900Y96583D01*
X234399Y94500D02*
Y94916D01*
X234816D01*
Y94500D01*
X234399D01*
X238148Y96999D02*
X236482D01*
Y95750D01*
X237315Y96166D01*
X237731D01*
X238148Y95750D01*
Y94916D01*
X237731Y94500D01*
X236898D01*
X236482Y94916D01*
X238981Y96999D02*
Y95333D01*
X239814Y94500D01*
X240647Y95333D01*
Y96999D01*
X241480Y94500D02*
Y96999D01*
X242730D01*
X243146Y96583D01*
Y95750D01*
X242730Y95333D01*
X241480D01*
X242313D02*
X243146Y94500D01*
X190000Y78250D02*
X191666D01*
X194165Y77000D02*
X192499D01*
X194165Y78666D01*
Y79083D01*
X193749Y79499D01*
X192916D01*
X192499Y79083D01*
X194998Y77000D02*
Y77416D01*
X195415D01*
Y77000D01*
X194998D01*
X198747Y79499D02*
X197081D01*
Y78250D01*
X197914Y78666D01*
X198331D01*
X198747Y78250D01*
Y77416D01*
X198331Y77000D01*
X197498D01*
X197081Y77416D01*
X199580Y79499D02*
Y77833D01*
X200413Y77000D01*
X201246Y77833D01*
Y79499D01*
X175193Y102056D02*
X176859D01*
X176026Y102889D02*
Y101223D01*
X179358Y103305D02*
X177692D01*
Y102056D01*
X178525Y102472D01*
X178942D01*
X179358Y102056D01*
Y101223D01*
X178942Y100806D01*
X178109D01*
X177692Y101223D01*
X180191Y103305D02*
Y101639D01*
X181024Y100806D01*
X181857Y101639D01*
Y103305D01*
X182691Y100806D02*
Y103305D01*
X184357Y100806D01*
Y103305D01*
X186439D02*
X185606D01*
X185190Y102889D01*
Y101223D01*
X185606Y100806D01*
X186439D01*
X186856Y101223D01*
Y102889D01*
X186439Y103305D01*
X187689Y100806D02*
Y103305D01*
X188522Y102472D01*
X189355Y103305D01*
Y100806D01*
X234000Y42750D02*
X235666D01*
X234833Y43583D02*
Y41916D01*
X238165Y41500D02*
X236499D01*
X238165Y43166D01*
Y43583D01*
X237749Y43999D01*
X236916D01*
X236499Y43583D01*
X238998Y41500D02*
Y41916D01*
X239415D01*
Y41500D01*
X238998D01*
X242747Y43999D02*
X241081D01*
Y42750D01*
X241914Y43166D01*
X242331D01*
X242747Y42750D01*
Y41916D01*
X242331Y41500D01*
X241498D01*
X241081Y41916D01*
X243580Y43999D02*
Y42333D01*
X244413Y41500D01*
X245246Y42333D01*
Y43999D01*
X274666Y83583D02*
X274250Y83999D01*
X273416D01*
X273000Y83583D01*
Y81916D01*
X273416Y81500D01*
X274250D01*
X274666Y81916D01*
X275499Y83999D02*
X277165D01*
Y83583D01*
X275499Y81916D01*
Y81500D01*
X277998Y83583D02*
X278415Y83999D01*
X279248D01*
X279664Y83583D01*
Y83166D01*
X279248Y82750D01*
X279664Y82333D01*
Y81916D01*
X279248Y81500D01*
X278415D01*
X277998Y81916D01*
Y82333D01*
X278415Y82750D01*
X277998Y83166D01*
Y83583D01*
X278415Y82750D02*
X279248D01*
X253666Y42583D02*
X253250Y42999D01*
X252416D01*
X252000Y42583D01*
Y40916D01*
X252416Y40500D01*
X253250D01*
X253666Y40916D01*
X254499Y42999D02*
X256165D01*
Y42583D01*
X254499Y40916D01*
Y40500D01*
X256998Y40916D02*
X257415Y40500D01*
X258248D01*
X258664Y40916D01*
Y42583D01*
X258248Y42999D01*
X257415D01*
X256998Y42583D01*
Y42166D01*
X257415Y41750D01*
X258664D01*
X261500Y77499D02*
Y75000D01*
X262750D01*
X263166Y75416D01*
Y77083D01*
X262750Y77499D01*
X261500D01*
X263999Y75000D02*
X264832D01*
X264416D01*
Y77499D01*
X263999Y77083D01*
X266082Y75416D02*
X266498Y75000D01*
X267331D01*
X267748Y75416D01*
Y77083D01*
X267331Y77499D01*
X266498D01*
X266082Y77083D01*
Y76666D01*
X266498Y76250D01*
X267748D01*
X293500Y60499D02*
Y58416D01*
X293917Y58000D01*
X294750D01*
X295166Y58416D01*
Y60499D01*
X295999Y58000D02*
X296832D01*
X296416D01*
Y60499D01*
X295999Y60083D01*
X299748Y58000D02*
X298082D01*
X299748Y59666D01*
Y60083D01*
X299331Y60499D01*
X298498D01*
X298082Y60083D01*
X200136Y150837D02*
Y148754D01*
X200553Y148338D01*
X201386D01*
X201802Y148754D01*
Y150837D01*
X202635Y148338D02*
X203468D01*
X203052D01*
Y150837D01*
X202635Y150420D01*
X204718D02*
X205135Y150837D01*
X205968D01*
X206384Y150420D01*
Y150004D01*
X205968Y149587D01*
X205551D01*
X205968D01*
X206384Y149171D01*
Y148754D01*
X205968Y148338D01*
X205135D01*
X204718Y148754D01*
X248744Y266078D02*
Y263995D01*
X249161Y263579D01*
X249994D01*
X250410Y263995D01*
Y266078D01*
X251243Y263579D02*
X252076D01*
X251660D01*
Y266078D01*
X251243Y265661D01*
X254575Y263579D02*
Y266078D01*
X253326Y264828D01*
X254992D01*
X287500Y38999D02*
Y38583D01*
X288333Y37750D01*
X289166Y38583D01*
Y38999D01*
X288333Y37750D02*
Y36500D01*
X289999D02*
X290832D01*
X290416D01*
Y38999D01*
X289999Y38583D01*
X230501Y22500D02*
X233000D01*
Y23750D01*
X232583Y24166D01*
X230917D01*
X230501Y23750D01*
Y22500D01*
X233000Y24999D02*
Y25832D01*
Y25416D01*
X230501D01*
X230917Y24999D01*
X233000Y28748D02*
Y27082D01*
X231334Y28748D01*
X230917D01*
X230501Y28332D01*
Y27498D01*
X230917Y27082D01*
X226501Y22500D02*
X229000D01*
Y23750D01*
X228584Y24166D01*
X226917D01*
X226501Y23750D01*
Y22500D01*
X229000Y24999D02*
Y25832D01*
Y25416D01*
X226501D01*
X226917Y24999D01*
Y27082D02*
X226501Y27498D01*
Y28332D01*
X226917Y28748D01*
X227334D01*
X227750Y28332D01*
Y27915D01*
Y28332D01*
X228167Y28748D01*
X228584D01*
X229000Y28332D01*
Y27498D01*
X228584Y27082D01*
X222501Y22500D02*
X225000D01*
Y23750D01*
X224584Y24166D01*
X222917D01*
X222501Y23750D01*
Y22500D01*
X225000Y24999D02*
Y25832D01*
Y25416D01*
X222501D01*
X222917Y24999D01*
X225000Y28332D02*
X222501D01*
X223750Y27082D01*
Y28748D01*
X218501Y22500D02*
X221000D01*
Y23750D01*
X220584Y24166D01*
X218917D01*
X218501Y23750D01*
Y22500D01*
X221000Y24999D02*
Y25832D01*
Y25416D01*
X218501D01*
X218917Y24999D01*
X218501Y28748D02*
Y27082D01*
X219750D01*
X219334Y27915D01*
Y28332D01*
X219750Y28748D01*
X220584D01*
X221000Y28332D01*
Y27498D01*
X220584Y27082D01*
X214501Y22500D02*
X217000D01*
Y23750D01*
X216583Y24166D01*
X214917D01*
X214501Y23750D01*
Y22500D01*
X217000Y24999D02*
Y25832D01*
Y25416D01*
X214501D01*
X214917Y24999D01*
X214501Y28748D02*
X214917Y27915D01*
X215750Y27082D01*
X216583D01*
X217000Y27498D01*
Y28332D01*
X216583Y28748D01*
X216167D01*
X215750Y28332D01*
Y27082D01*
X174666Y291999D02*
X173833D01*
X174250D01*
Y289916D01*
X173833Y289500D01*
X173416D01*
X173000Y289916D01*
X175499D02*
X175916Y289500D01*
X176749D01*
X177165Y289916D01*
Y291583D01*
X176749Y291999D01*
X175916D01*
X175499Y291583D01*
Y291166D01*
X175916Y290750D01*
X177165D01*
X287100Y111700D02*
Y114199D01*
X288350D01*
X288766Y113783D01*
Y112950D01*
X288350Y112533D01*
X287100D01*
X287933D02*
X288766Y111700D01*
X289599D02*
X290432D01*
X290016D01*
Y114199D01*
X289599Y113783D01*
X291682D02*
X292098Y114199D01*
X292931D01*
X293348Y113783D01*
Y113366D01*
X292931Y112950D01*
X292515D01*
X292931D01*
X293348Y112533D01*
Y112117D01*
X292931Y111700D01*
X292098D01*
X291682Y112117D01*
X249411Y66437D02*
Y68936D01*
X250661D01*
X251077Y68520D01*
Y67687D01*
X250661Y67270D01*
X249411D01*
X250244D02*
X251077Y66437D01*
X251910D02*
X252743D01*
X252327D01*
Y68936D01*
X251910Y68520D01*
X255242Y66437D02*
Y68936D01*
X253993Y67687D01*
X255659D01*
X384728Y115839D02*
X384312Y115423D01*
Y114590D01*
X384728Y114173D01*
X386395D01*
X386811Y114590D01*
Y115423D01*
X386395Y115839D01*
X386811Y116672D02*
Y117506D01*
Y117089D01*
X384312D01*
X384728Y116672D01*
X386811Y120421D02*
Y118755D01*
X385145Y120421D01*
X384728D01*
X384312Y120005D01*
Y119172D01*
X384728Y118755D01*
Y122920D02*
X384312Y122504D01*
Y121671D01*
X384728Y121254D01*
X386395D01*
X386811Y121671D01*
Y122504D01*
X386395Y122920D01*
X415466Y285683D02*
X415050Y286099D01*
X414217D01*
X413800Y285683D01*
Y284016D01*
X414217Y283600D01*
X415050D01*
X415466Y284016D01*
X417965Y283600D02*
X416299D01*
X417965Y285266D01*
Y285683D01*
X417549Y286099D01*
X416716D01*
X416299Y285683D01*
X418798D02*
X419215Y286099D01*
X420048D01*
X420465Y285683D01*
Y284016D01*
X420048Y283600D01*
X419215D01*
X418798Y284016D01*
Y285683D01*
X421298Y283600D02*
Y285266D01*
X422131Y286099D01*
X422964Y285266D01*
Y283600D01*
Y284850D01*
X421298D01*
X415866Y213883D02*
X415450Y214299D01*
X414616D01*
X414200Y213883D01*
Y212216D01*
X414616Y211800D01*
X415450D01*
X415866Y212216D01*
X418365Y211800D02*
X416699D01*
X418365Y213466D01*
Y213883D01*
X417949Y214299D01*
X417116D01*
X416699Y213883D01*
X419198D02*
X419615Y214299D01*
X420448D01*
X420864Y213883D01*
Y212216D01*
X420448Y211800D01*
X419615D01*
X419198Y212216D01*
Y213883D01*
X421698Y214299D02*
Y211800D01*
X422947D01*
X423364Y212216D01*
Y212633D01*
X422947Y213050D01*
X421698D01*
X422947D01*
X423364Y213466D01*
Y213883D01*
X422947Y214299D01*
X421698D01*
X415266Y147283D02*
X414850Y147699D01*
X414016D01*
X413600Y147283D01*
Y145616D01*
X414016Y145200D01*
X414850D01*
X415266Y145616D01*
X417765Y145200D02*
X416099D01*
X417765Y146866D01*
Y147283D01*
X417349Y147699D01*
X416516D01*
X416099Y147283D01*
X418598D02*
X419015Y147699D01*
X419848D01*
X420264Y147283D01*
Y145616D01*
X419848Y145200D01*
X419015D01*
X418598Y145616D01*
Y147283D01*
X422764D02*
X422347Y147699D01*
X421514D01*
X421098Y147283D01*
Y145616D01*
X421514Y145200D01*
X422347D01*
X422764Y145616D01*
X414624Y83541D02*
X414208Y83957D01*
X413375D01*
X412958Y83541D01*
Y81875D01*
X413375Y81458D01*
X414208D01*
X414624Y81875D01*
X417124Y81458D02*
X415457D01*
X417124Y83124D01*
Y83541D01*
X416707Y83957D01*
X415874D01*
X415457Y83541D01*
X417957D02*
X418373Y83957D01*
X419206D01*
X419623Y83541D01*
Y81875D01*
X419206Y81458D01*
X418373D01*
X417957Y81875D01*
Y83541D01*
X420456Y83957D02*
Y81458D01*
X421705D01*
X422122Y81875D01*
Y83541D01*
X421705Y83957D01*
X420456D01*
X415666Y231583D02*
X415250Y231999D01*
X414417D01*
X414000Y231583D01*
Y229917D01*
X414417Y229500D01*
X415250D01*
X415666Y229917D01*
X418165Y229500D02*
X416499D01*
X418165Y231166D01*
Y231583D01*
X417749Y231999D01*
X416916D01*
X416499Y231583D01*
X418998Y229500D02*
X419831D01*
X419415D01*
Y231999D01*
X418998Y231583D01*
X421081Y229500D02*
Y231166D01*
X421914Y231999D01*
X422747Y231166D01*
Y229500D01*
Y230750D01*
X421081D01*
X415266Y164683D02*
X414850Y165099D01*
X414016D01*
X413600Y164683D01*
Y163016D01*
X414016Y162600D01*
X414850D01*
X415266Y163016D01*
X417765Y162600D02*
X416099D01*
X417765Y164266D01*
Y164683D01*
X417349Y165099D01*
X416516D01*
X416099Y164683D01*
X418598Y162600D02*
X419431D01*
X419015D01*
Y165099D01*
X418598Y164683D01*
X420681Y165099D02*
Y162600D01*
X421931D01*
X422347Y163016D01*
Y163433D01*
X421931Y163850D01*
X420681D01*
X421931D01*
X422347Y164266D01*
Y164683D01*
X421931Y165099D01*
X420681D01*
X415166Y98783D02*
X414750Y99199D01*
X413916D01*
X413500Y98783D01*
Y97117D01*
X413916Y96700D01*
X414750D01*
X415166Y97117D01*
X417665Y96700D02*
X415999D01*
X417665Y98366D01*
Y98783D01*
X417249Y99199D01*
X416416D01*
X415999Y98783D01*
X418498Y96700D02*
X419331D01*
X418915D01*
Y99199D01*
X418498Y98783D01*
X422247D02*
X421831Y99199D01*
X420998D01*
X420581Y98783D01*
Y97117D01*
X420998Y96700D01*
X421831D01*
X422247Y97117D01*
X414966Y31783D02*
X414550Y32199D01*
X413717D01*
X413300Y31783D01*
Y30117D01*
X413717Y29700D01*
X414550D01*
X414966Y30117D01*
X417465Y29700D02*
X415799D01*
X417465Y31366D01*
Y31783D01*
X417049Y32199D01*
X416216D01*
X415799Y31783D01*
X418298Y29700D02*
X419131D01*
X418715D01*
Y32199D01*
X418298Y31783D01*
X420381Y32199D02*
Y29700D01*
X421631D01*
X422047Y30117D01*
Y31783D01*
X421631Y32199D01*
X420381D01*
X286166Y262699D02*
X285333D01*
X285750D01*
Y260616D01*
X285333Y260200D01*
X284916D01*
X284500Y260616D01*
X286999Y262283D02*
X287416Y262699D01*
X288249D01*
X288665Y262283D01*
Y261866D01*
X288249Y261450D01*
X288665Y261033D01*
Y260616D01*
X288249Y260200D01*
X287416D01*
X286999Y260616D01*
Y261033D01*
X287416Y261450D01*
X286999Y261866D01*
Y262283D01*
X287416Y261450D02*
X288249D01*
X243400Y184900D02*
X240901D01*
Y186150D01*
X241317Y186566D01*
X242150D01*
X242567Y186150D01*
Y184900D01*
Y185733D02*
X243400Y186566D01*
Y187399D02*
Y188232D01*
Y187816D01*
X240901D01*
X241317Y187399D01*
X240901Y191148D02*
Y189482D01*
X242150D01*
X241734Y190315D01*
Y190731D01*
X242150Y191148D01*
X242984D01*
X243400Y190731D01*
Y189898D01*
X242984Y189482D01*
X300900Y24700D02*
Y27199D01*
X302150D01*
X302566Y26783D01*
Y25950D01*
X302150Y25533D01*
X300900D01*
X301733D02*
X302566Y24700D01*
X303399D02*
X304232D01*
X303816D01*
Y27199D01*
X303399Y26783D01*
X307148Y27199D02*
X306315Y26783D01*
X305482Y25950D01*
Y25117D01*
X305898Y24700D01*
X306731D01*
X307148Y25117D01*
Y25533D01*
X306731Y25950D01*
X305482D01*
X297800Y78050D02*
X299466D01*
X298633Y78883D02*
Y77217D01*
X300299Y79299D02*
Y77633D01*
X301132Y76800D01*
X301965Y77633D01*
Y79299D01*
X304465Y78883D02*
X304048Y79299D01*
X303215D01*
X302798Y78883D01*
Y78466D01*
X303215Y78050D01*
X304048D01*
X304465Y77633D01*
Y77217D01*
X304048Y76800D01*
X303215D01*
X302798Y77217D01*
X305298Y79299D02*
Y78883D01*
X306131Y78050D01*
X306964Y78883D01*
Y79299D01*
X306131Y78050D02*
Y76800D01*
X309463Y78883D02*
X309046Y79299D01*
X308213D01*
X307797Y78883D01*
Y78466D01*
X308213Y78050D01*
X309046D01*
X309463Y77633D01*
Y77217D01*
X309046Y76800D01*
X308213D01*
X307797Y77217D01*
X297900Y87650D02*
X299566D01*
X302065Y86400D02*
X300399D01*
X302065Y88066D01*
Y88483D01*
X301649Y88899D01*
X300816D01*
X300399Y88483D01*
X302898Y86400D02*
Y86817D01*
X303315D01*
Y86400D01*
X302898D01*
X306647Y88899D02*
X304981D01*
Y87650D01*
X305814Y88066D01*
X306231D01*
X306647Y87650D01*
Y86817D01*
X306231Y86400D01*
X305398D01*
X304981Y86817D01*
X307480Y88899D02*
Y87233D01*
X308313Y86400D01*
X309146Y87233D01*
Y88899D01*
X298100Y97750D02*
X299766D01*
X298933Y98583D02*
Y96917D01*
X300599Y98583D02*
X301016Y98999D01*
X301849D01*
X302265Y98583D01*
Y98166D01*
X301849Y97750D01*
X301432D01*
X301849D01*
X302265Y97333D01*
Y96917D01*
X301849Y96500D01*
X301016D01*
X300599Y96917D01*
X303098Y96500D02*
Y96917D01*
X303515D01*
Y96500D01*
X303098D01*
X305181Y98583D02*
X305598Y98999D01*
X306431D01*
X306847Y98583D01*
Y98166D01*
X306431Y97750D01*
X306014D01*
X306431D01*
X306847Y97333D01*
Y96917D01*
X306431Y96500D01*
X305598D01*
X305181Y96917D01*
X307680Y98999D02*
Y97333D01*
X308513Y96500D01*
X309346Y97333D01*
Y98999D01*
X304366Y108883D02*
X303950Y109299D01*
X303116D01*
X302700Y108883D01*
Y108466D01*
X303116Y108050D01*
X303950D01*
X304366Y107633D01*
Y107217D01*
X303950Y106800D01*
X303116D01*
X302700Y107217D01*
X306865Y108883D02*
X306449Y109299D01*
X305616D01*
X305199Y108883D01*
Y107217D01*
X305616Y106800D01*
X306449D01*
X306865Y107217D01*
X307698Y109299D02*
Y106800D01*
X309365D01*
X303366Y117883D02*
X302950Y118299D01*
X302116D01*
X301700Y117883D01*
Y116217D01*
X302116Y115800D01*
X302950D01*
X303366Y116217D01*
Y117050D01*
X302533D01*
X304199Y115800D02*
Y118299D01*
X305865Y115800D01*
Y118299D01*
X306698D02*
Y115800D01*
X307948D01*
X308365Y116217D01*
Y117883D01*
X307948Y118299D01*
X306698D01*
X302966Y128983D02*
X302550Y129399D01*
X301716D01*
X301300Y128983D01*
Y128566D01*
X301716Y128150D01*
X302550D01*
X302966Y127733D01*
Y127316D01*
X302550Y126900D01*
X301716D01*
X301300Y127316D01*
X303799Y129399D02*
Y126900D01*
X305049D01*
X305465Y127316D01*
Y128983D01*
X305049Y129399D01*
X303799D01*
X306298Y126900D02*
Y128566D01*
X307131Y129399D01*
X307964Y128566D01*
Y126900D01*
Y128150D01*
X306298D01*
X299800Y136500D02*
Y138166D01*
X300633Y138999D01*
X301466Y138166D01*
Y136500D01*
Y137750D01*
X299800D01*
X302299Y138999D02*
Y136916D01*
X302716Y136500D01*
X303549D01*
X303965Y136916D01*
Y138999D01*
X304798D02*
X306465Y136500D01*
Y138999D02*
X304798Y136500D01*
X307298Y138583D02*
X307714Y138999D01*
X308547D01*
X308964Y138583D01*
Y136916D01*
X308547Y136500D01*
X307714D01*
X307298Y136916D01*
Y138583D01*
X297800Y149299D02*
Y147216D01*
X298217Y146800D01*
X299050D01*
X299466Y147216D01*
Y149299D01*
X300299Y146800D02*
X301132D01*
X300716D01*
Y149299D01*
X300299Y148883D01*
X302382Y146384D02*
X304048D01*
X304881Y149299D02*
X306547D01*
X305714D01*
Y146800D01*
X307380Y149299D02*
X309046Y146800D01*
Y149299D02*
X307380Y146800D01*
X292366Y158083D02*
X291950Y158499D01*
X291116D01*
X290700Y158083D01*
Y157666D01*
X291116Y157250D01*
X291950D01*
X292366Y156833D01*
Y156416D01*
X291950Y156000D01*
X291116D01*
X290700Y156416D01*
X293199Y156000D02*
Y158499D01*
X294449D01*
X294865Y158083D01*
Y157250D01*
X294449Y156833D01*
X293199D01*
X295698Y158499D02*
X296531D01*
X296115D01*
Y156000D01*
X295698D01*
X296531D01*
X297781D02*
X298614D01*
X298198D01*
Y158499D01*
X297781Y158083D01*
X299864Y155584D02*
X301530D01*
X302363Y156000D02*
Y158499D01*
X303196Y157666D01*
X304029Y158499D01*
Y156000D01*
X306112Y158499D02*
X305279D01*
X304862Y158083D01*
Y156416D01*
X305279Y156000D01*
X306112D01*
X306528Y156416D01*
Y158083D01*
X306112Y158499D01*
X309027Y158083D02*
X308611Y158499D01*
X307778D01*
X307361Y158083D01*
Y157666D01*
X307778Y157250D01*
X308611D01*
X309027Y156833D01*
Y156416D01*
X308611Y156000D01*
X307778D01*
X307361Y156416D01*
X309860Y158499D02*
X310694D01*
X310277D01*
Y156000D01*
X309860D01*
X310694D01*
X300100Y166600D02*
Y168266D01*
X300933Y169099D01*
X301766Y168266D01*
Y166600D01*
Y167850D01*
X300100D01*
X302599Y169099D02*
Y167016D01*
X303016Y166600D01*
X303849D01*
X304265Y167016D01*
Y169099D01*
X305098D02*
X306765Y166600D01*
Y169099D02*
X305098Y166600D01*
X309264D02*
X307598D01*
X309264Y168266D01*
Y168683D01*
X308847Y169099D01*
X308014D01*
X307598Y168683D01*
X293866Y178583D02*
X293450Y178999D01*
X292617D01*
X292200Y178583D01*
Y178166D01*
X292617Y177750D01*
X293450D01*
X293866Y177333D01*
Y176917D01*
X293450Y176500D01*
X292617D01*
X292200Y176917D01*
X294699Y176500D02*
Y178999D01*
X295949D01*
X296365Y178583D01*
Y177750D01*
X295949Y177333D01*
X294699D01*
X297198Y178999D02*
X298031D01*
X297615D01*
Y176500D01*
X297198D01*
X298031D01*
X299281D02*
X300114D01*
X299698D01*
Y178999D01*
X299281Y178583D01*
X301364Y176084D02*
X303030D01*
X305529Y178583D02*
X305113Y178999D01*
X304279D01*
X303863Y178583D01*
Y178166D01*
X304279Y177750D01*
X305113D01*
X305529Y177333D01*
Y176917D01*
X305113Y176500D01*
X304279D01*
X303863Y176917D01*
X308028Y178583D02*
X307612Y178999D01*
X306779D01*
X306362Y178583D01*
Y176917D01*
X306779Y176500D01*
X307612D01*
X308028Y176917D01*
X308861Y178999D02*
Y176500D01*
Y177333D01*
X310527Y178999D01*
X309278Y177750D01*
X310527Y176500D01*
X298700Y186800D02*
Y188466D01*
X299533Y189299D01*
X300366Y188466D01*
Y186800D01*
Y188050D01*
X298700D01*
X301199Y189299D02*
Y187216D01*
X301616Y186800D01*
X302449D01*
X302865Y187216D01*
Y189299D01*
X303698D02*
X305364Y186800D01*
Y189299D02*
X303698Y186800D01*
X306198Y188883D02*
X306614Y189299D01*
X307447D01*
X307864Y188883D01*
Y188466D01*
X307447Y188050D01*
X307031D01*
X307447D01*
X307864Y187633D01*
Y187216D01*
X307447Y186800D01*
X306614D01*
X306198Y187216D01*
X294666Y198383D02*
X294250Y198799D01*
X293417D01*
X293000Y198383D01*
Y197966D01*
X293417Y197550D01*
X294250D01*
X294666Y197133D01*
Y196716D01*
X294250Y196300D01*
X293417D01*
X293000Y196716D01*
X295499Y196300D02*
Y198799D01*
X296749D01*
X297165Y198383D01*
Y197550D01*
X296749Y197133D01*
X295499D01*
X297998Y198799D02*
X298831D01*
X298415D01*
Y196300D01*
X297998D01*
X298831D01*
X300081D02*
X300914D01*
X300498D01*
Y198799D01*
X300081Y198383D01*
X302164Y195884D02*
X303830D01*
X306329Y198383D02*
X305912Y198799D01*
X305079D01*
X304663Y198383D01*
Y196716D01*
X305079Y196300D01*
X305912D01*
X306329Y196716D01*
X308828Y198383D02*
X308412Y198799D01*
X307579D01*
X307162Y198383D01*
Y197966D01*
X307579Y197550D01*
X308412D01*
X308828Y197133D01*
Y196716D01*
X308412Y196300D01*
X307579D01*
X307162Y196716D01*
X291066Y208683D02*
X290650Y209099D01*
X289816D01*
X289400Y208683D01*
Y208266D01*
X289816Y207850D01*
X290650D01*
X291066Y207433D01*
Y207016D01*
X290650Y206600D01*
X289816D01*
X289400Y207016D01*
X291899Y206600D02*
Y209099D01*
X293149D01*
X293565Y208683D01*
Y207850D01*
X293149Y207433D01*
X291899D01*
X294398Y209099D02*
X295231D01*
X294815D01*
Y206600D01*
X294398D01*
X295231D01*
X296481Y208683D02*
X296898Y209099D01*
X297731D01*
X298147Y208683D01*
Y207016D01*
X297731Y206600D01*
X296898D01*
X296481Y207016D01*
Y208683D01*
X298980Y206184D02*
X300646D01*
X301479Y206600D02*
Y209099D01*
X302312Y208266D01*
X303146Y209099D01*
Y206600D01*
X303979Y209099D02*
X304812D01*
X304395D01*
Y206600D01*
X303979D01*
X304812D01*
X307727Y208683D02*
X307311Y209099D01*
X306478D01*
X306061Y208683D01*
Y208266D01*
X306478Y207850D01*
X307311D01*
X307727Y207433D01*
Y207016D01*
X307311Y206600D01*
X306478D01*
X306061Y207016D01*
X309810Y209099D02*
X308977D01*
X308560Y208683D01*
Y207016D01*
X308977Y206600D01*
X309810D01*
X310227Y207016D01*
Y208683D01*
X309810Y209099D01*
X297416Y216500D02*
Y218999D01*
X298250D02*
Y216500D01*
X297000Y218166D02*
X298250D01*
X298666D01*
X297000Y217333D02*
X298666D01*
X299499Y218999D02*
Y216500D01*
X300749D01*
X301165Y216916D01*
Y218583D01*
X300749Y218999D01*
X299499D01*
X301998Y216500D02*
Y218999D01*
X303248D01*
X303664Y218583D01*
Y217750D01*
X303248Y217333D01*
X301998D01*
X302831D02*
X303664Y216500D01*
X304498Y218999D02*
Y216500D01*
X305747D01*
X306164Y216916D01*
Y218583D01*
X305747Y218999D01*
X304498D01*
X306997D02*
Y218583D01*
X307830Y217750D01*
X308663Y218583D01*
Y218999D01*
X307830Y217750D02*
Y216500D01*
X330416Y216800D02*
Y219299D01*
X331250D02*
Y216800D01*
X330000Y218466D02*
X331250D01*
X331666D01*
X330000Y217633D02*
X331666D01*
X334165Y218883D02*
X333749Y219299D01*
X332916D01*
X332499Y218883D01*
Y217216D01*
X332916Y216800D01*
X333749D01*
X334165Y217216D01*
X336665Y218883D02*
X336248Y219299D01*
X335415D01*
X334998Y218883D01*
Y218466D01*
X335415Y218050D01*
X336248D01*
X336665Y217633D01*
Y217216D01*
X336248Y216800D01*
X335415D01*
X334998Y217216D01*
X337498Y218883D02*
X337914Y219299D01*
X338747D01*
X339164Y218883D01*
Y217216D01*
X338747Y216800D01*
X337914D01*
X337498Y217216D01*
Y218883D01*
X330500Y207650D02*
X332166D01*
X331333Y208483D02*
Y206817D01*
X334665Y206400D02*
X332999D01*
X334665Y208066D01*
Y208483D01*
X334249Y208899D01*
X333416D01*
X332999Y208483D01*
X335498Y206400D02*
Y206817D01*
X335915D01*
Y206400D01*
X335498D01*
X339247Y208899D02*
X337581D01*
Y207650D01*
X338414Y208066D01*
X338831D01*
X339247Y207650D01*
Y206817D01*
X338831Y206400D01*
X337998D01*
X337581Y206817D01*
X340080Y208899D02*
Y207233D01*
X340913Y206400D01*
X341746Y207233D01*
Y208899D01*
X331366Y198583D02*
X330950Y198999D01*
X330117D01*
X329700Y198583D01*
Y198166D01*
X330117Y197750D01*
X330950D01*
X331366Y197333D01*
Y196916D01*
X330950Y196500D01*
X330117D01*
X329700Y196916D01*
X332199Y196500D02*
Y198999D01*
X333449D01*
X333865Y198583D01*
Y197750D01*
X333449Y197333D01*
X332199D01*
X334698Y198999D02*
X335531D01*
X335115D01*
Y196500D01*
X334698D01*
X335531D01*
X336781Y198583D02*
X337198Y198999D01*
X338031D01*
X338447Y198583D01*
Y196916D01*
X338031Y196500D01*
X337198D01*
X336781Y196916D01*
Y198583D01*
X339280Y196083D02*
X340946D01*
X343446Y198583D02*
X343029Y198999D01*
X342196D01*
X341779Y198583D01*
Y198166D01*
X342196Y197750D01*
X343029D01*
X343446Y197333D01*
Y196916D01*
X343029Y196500D01*
X342196D01*
X341779Y196916D01*
X345945Y198583D02*
X345528Y198999D01*
X344695D01*
X344279Y198583D01*
Y196916D01*
X344695Y196500D01*
X345528D01*
X345945Y196916D01*
X346778Y198999D02*
Y196500D01*
Y197333D01*
X348444Y198999D01*
X347194Y197750D01*
X348444Y196500D01*
X330316Y186600D02*
Y189099D01*
X331150D02*
Y186600D01*
X329900Y188266D02*
X331150D01*
X331566D01*
X329900Y187433D02*
X331566D01*
X334065Y188683D02*
X333649Y189099D01*
X332816D01*
X332399Y188683D01*
Y187016D01*
X332816Y186600D01*
X333649D01*
X334065Y187016D01*
X336564Y188683D02*
X336148Y189099D01*
X335315D01*
X334898Y188683D01*
Y188266D01*
X335315Y187850D01*
X336148D01*
X336564Y187433D01*
Y187016D01*
X336148Y186600D01*
X335315D01*
X334898Y187016D01*
X337398Y186600D02*
X338231D01*
X337814D01*
Y189099D01*
X337398Y188683D01*
X331466Y178983D02*
X331050Y179399D01*
X330217D01*
X329800Y178983D01*
Y178566D01*
X330217Y178150D01*
X331050D01*
X331466Y177733D01*
Y177316D01*
X331050Y176900D01*
X330217D01*
X329800Y177316D01*
X332299Y179399D02*
X333965D01*
X333132D01*
Y176900D01*
X334798D02*
Y178566D01*
X335631Y179399D01*
X336465Y178566D01*
Y176900D01*
Y178150D01*
X334798D01*
X337298Y176900D02*
Y179399D01*
X338547D01*
X338964Y178983D01*
Y178150D01*
X338547Y177733D01*
X337298D01*
X338131D02*
X338964Y176900D01*
X339797Y179399D02*
X341463D01*
X340630D01*
Y176900D01*
X330800Y166700D02*
Y168366D01*
X331633Y169199D01*
X332466Y168366D01*
Y166700D01*
Y167950D01*
X330800D01*
X333299Y169199D02*
Y167116D01*
X333716Y166700D01*
X334549D01*
X334965Y167116D01*
Y169199D01*
X335798D02*
X337464Y166700D01*
Y169199D02*
X335798Y166700D01*
X338298D02*
X339131D01*
X338714D01*
Y169199D01*
X338298Y168783D01*
X331366Y158883D02*
X330950Y159299D01*
X330117D01*
X329700Y158883D01*
Y158466D01*
X330117Y158050D01*
X330950D01*
X331366Y157633D01*
Y157217D01*
X330950Y156800D01*
X330117D01*
X329700Y157217D01*
X332199Y156800D02*
Y159299D01*
X333449D01*
X333865Y158883D01*
Y158050D01*
X333449Y157633D01*
X332199D01*
X334698Y159299D02*
X335531D01*
X335115D01*
Y156800D01*
X334698D01*
X335531D01*
X336781D02*
X337614D01*
X337198D01*
Y159299D01*
X336781Y158883D01*
X338864Y156384D02*
X340530D01*
X341363Y156800D02*
Y159299D01*
X342196Y158466D01*
X343029Y159299D01*
Y156800D01*
X343862Y159299D02*
X344695D01*
X344279D01*
Y156800D01*
X343862D01*
X344695D01*
X347611Y158883D02*
X347194Y159299D01*
X346361D01*
X345945Y158883D01*
Y158466D01*
X346361Y158050D01*
X347194D01*
X347611Y157633D01*
Y157217D01*
X347194Y156800D01*
X346361D01*
X345945Y157217D01*
X349693Y159299D02*
X348861D01*
X348444Y158883D01*
Y157217D01*
X348861Y156800D01*
X349693D01*
X350110Y157217D01*
Y158883D01*
X349693Y159299D01*
X329800Y148899D02*
Y146817D01*
X330217Y146400D01*
X331050D01*
X331466Y146817D01*
Y148899D01*
X332299Y146400D02*
X333132D01*
X332716D01*
Y148899D01*
X332299Y148483D01*
X334382Y145984D02*
X336048D01*
X336881Y146400D02*
Y148899D01*
X338131D01*
X338547Y148483D01*
Y147650D01*
X338131Y147233D01*
X336881D01*
X337714D02*
X338547Y146400D01*
X339380Y148899D02*
X341046Y146400D01*
Y148899D02*
X339380Y146400D01*
X330000Y138899D02*
Y136817D01*
X330416Y136400D01*
X331250D01*
X331666Y136817D01*
Y138899D01*
X332499Y138483D02*
X332916Y138899D01*
X333749D01*
X334165Y138483D01*
Y136817D01*
X333749Y136400D01*
X332916D01*
X332499Y136817D01*
Y138483D01*
X334998Y135984D02*
X336665D01*
X337498Y138899D02*
X339164D01*
X338331D01*
Y136400D01*
X339997Y138899D02*
X341663Y136400D01*
Y138899D02*
X339997Y136400D01*
X330100Y128799D02*
Y126716D01*
X330517Y126300D01*
X331350D01*
X331766Y126716D01*
Y128799D01*
X332599Y128383D02*
X333016Y128799D01*
X333849D01*
X334265Y128383D01*
Y126716D01*
X333849Y126300D01*
X333016D01*
X332599Y126716D01*
Y128383D01*
X335098Y125883D02*
X336765D01*
X337598Y126300D02*
Y128799D01*
X338847D01*
X339264Y128383D01*
Y127550D01*
X338847Y127133D01*
X337598D01*
X338431D02*
X339264Y126300D01*
X340097Y128799D02*
X341763Y126300D01*
Y128799D02*
X340097Y126300D01*
X330616Y116500D02*
Y118999D01*
X331450D02*
Y116500D01*
X330200Y118166D02*
X331450D01*
X331866D01*
X330200Y117333D02*
X331866D01*
X334365Y118583D02*
X333949Y118999D01*
X333116D01*
X332699Y118583D01*
Y116917D01*
X333116Y116500D01*
X333949D01*
X334365Y116917D01*
X336864Y118583D02*
X336448Y118999D01*
X335615D01*
X335198Y118583D01*
Y118166D01*
X335615Y117750D01*
X336448D01*
X336864Y117333D01*
Y116917D01*
X336448Y116500D01*
X335615D01*
X335198Y116917D01*
X339364Y116500D02*
X337698D01*
X339364Y118166D01*
Y118583D01*
X338947Y118999D01*
X338114D01*
X337698Y118583D01*
X330316Y106600D02*
Y109099D01*
X331150D02*
Y106600D01*
X329900Y108266D02*
X331150D01*
X331566D01*
X329900Y107433D02*
X331566D01*
X332399Y106600D02*
Y109099D01*
X333649D01*
X334065Y108683D01*
Y107850D01*
X333649Y107433D01*
X332399D01*
X333232D02*
X334065Y106600D01*
X336564Y109099D02*
X334898D01*
Y106600D01*
X336564D01*
X334898Y107850D02*
X335731D01*
X339064Y108683D02*
X338647Y109099D01*
X337814D01*
X337398Y108683D01*
Y108266D01*
X337814Y107850D01*
X338647D01*
X339064Y107433D01*
Y107017D01*
X338647Y106600D01*
X337814D01*
X337398Y107017D01*
X341563Y109099D02*
X339897D01*
Y106600D01*
X341563D01*
X339897Y107850D02*
X340730D01*
X342396Y109099D02*
X344062D01*
X343229D01*
Y106600D01*
X331016Y96700D02*
Y99199D01*
X331850D02*
Y96700D01*
X330600Y98366D02*
X331850D01*
X332266D01*
X330600Y97533D02*
X332266D01*
X333099Y96700D02*
Y99199D01*
X334349D01*
X334765Y98783D01*
Y97950D01*
X334349Y97533D01*
X333099D01*
X335598Y99199D02*
Y96700D01*
X336431Y97533D01*
X337264Y96700D01*
Y99199D01*
X338098D02*
Y96700D01*
X339347D01*
X339764Y97117D01*
Y98783D01*
X339347Y99199D01*
X338098D01*
X340597Y96700D02*
Y99199D01*
X342263Y96700D01*
Y99199D01*
X331566Y88983D02*
X331150Y89399D01*
X330316D01*
X329900Y88983D01*
Y88566D01*
X330316Y88150D01*
X331150D01*
X331566Y87733D01*
Y87317D01*
X331150Y86900D01*
X330316D01*
X329900Y87317D01*
X332399Y86900D02*
Y89399D01*
X333649D01*
X334065Y88983D01*
Y88150D01*
X333649Y87733D01*
X332399D01*
X334898Y89399D02*
X335731D01*
X335315D01*
Y86900D01*
X334898D01*
X335731D01*
X336981Y88983D02*
X337398Y89399D01*
X338231D01*
X338647Y88983D01*
Y87317D01*
X338231Y86900D01*
X337398D01*
X336981Y87317D01*
Y88983D01*
X339480Y86484D02*
X341146D01*
X341979Y86900D02*
Y89399D01*
X342812Y88566D01*
X343646Y89399D01*
Y86900D01*
X345728Y89399D02*
X344895D01*
X344479Y88983D01*
Y87317D01*
X344895Y86900D01*
X345728D01*
X346145Y87317D01*
Y88983D01*
X345728Y89399D01*
X348644Y88983D02*
X348227Y89399D01*
X347394D01*
X346978Y88983D01*
Y88566D01*
X347394Y88150D01*
X348227D01*
X348644Y87733D01*
Y87317D01*
X348227Y86900D01*
X347394D01*
X346978Y87317D01*
X349477Y89399D02*
X350310D01*
X349893D01*
Y86900D01*
X349477D01*
X350310D01*
X332217Y76400D02*
Y78899D01*
X333050D02*
Y76400D01*
X331800Y78066D02*
X333050D01*
X333466D01*
X331800Y77233D02*
X333466D01*
X335965Y78483D02*
X335549Y78899D01*
X334716D01*
X334299Y78483D01*
Y76816D01*
X334716Y76400D01*
X335549D01*
X335965Y76816D01*
X338464Y78483D02*
X338048Y78899D01*
X337215D01*
X336798Y78483D01*
Y78066D01*
X337215Y77650D01*
X338048D01*
X338464Y77233D01*
Y76816D01*
X338048Y76400D01*
X337215D01*
X336798Y76816D01*
X339298Y78483D02*
X339714Y78899D01*
X340547D01*
X340964Y78483D01*
Y78066D01*
X340547Y77650D01*
X340131D01*
X340547D01*
X340964Y77233D01*
Y76816D01*
X340547Y76400D01*
X339714D01*
X339298Y76816D01*
D32*
X22500Y55000D02*
Y75000D01*
Y55000D02*
X42500D01*
Y75000D01*
X22500D02*
X42500D01*
X32500Y57500D02*
Y72500D01*
X25000Y65000D02*
X40000D01*
X30000Y222500D02*
X35000D01*
X27500Y227500D02*
X37500D01*
X22500Y232500D02*
X42500D01*
X22500Y237500D02*
X42500D01*
X27500Y242500D02*
X37500D01*
X30000Y247500D02*
X35000D01*
D35*
X173710Y102300D02*
G03*
X173710Y102300I-4610J0D01*
G01*
X212287Y78740D02*
G03*
X212287Y78740I-4610J0D01*
G01*
X240830Y88583D02*
G03*
X240830Y88583I-4610J0D01*
G01*
X311696Y236221D02*
G03*
X311696Y236221I-4610J0D01*
G01*
X329310Y239400D02*
G03*
X329310Y239400I-4610J0D01*
G01*
X324492Y39370D02*
G03*
X324492Y39370I-4610J0D01*
G01*
X287090Y208661D02*
G03*
X287090Y208661I-4610J0D01*
G01*
X444710Y148500D02*
G03*
X444710Y148500I-4610J0D01*
G01*
X295948Y164370D02*
G03*
X295948Y164370I-4610J0D01*
G01*
X288074Y237205D02*
G03*
X288074Y237205I-4610J0D01*
G01*
X99610Y17500D02*
G03*
X99610Y17500I-4610J0D01*
G01*
X94610Y265000D02*
G03*
X94610Y265000I-4610J0D01*
G01*
X243783Y35433D02*
G03*
X243783Y35433I-4610J0D01*
G01*
X246010Y278097D02*
G03*
X246010Y278097I-566J0D01*
G01*
X271949Y58213D02*
G03*
X271949Y60713I0J1250D01*
G01*
X259264Y62065D02*
X270264D01*
X259264Y46165D02*
X270264D01*
X259264D02*
Y72065D01*
X260864Y73665D01*
X270264Y46165D02*
Y71965D01*
X268564Y73665D02*
X270264Y71965D01*
X260864Y73665D02*
X268564D01*
X415000Y90600D02*
X420700D01*
X415000Y95400D02*
X420800D01*
X415291Y156600D02*
X420991D01*
X415291Y161400D02*
X421091D01*
X415291Y223600D02*
X420991D01*
X415291Y228400D02*
X421091D01*
X415291Y75600D02*
X420991D01*
X415291Y80400D02*
X421091D01*
X415146Y139100D02*
X420846D01*
X415146Y143900D02*
X420946D01*
X416146Y205600D02*
X421846D01*
X416146Y210400D02*
X421946D01*
X415291Y277600D02*
X420991D01*
X415291Y282400D02*
X421091D01*
X96538Y144802D02*
Y154802D01*
Y134960D02*
Y144960D01*
X236773Y282579D02*
Y288379D01*
X241573Y282579D02*
Y288279D01*
X415146Y23824D02*
X420846D01*
X415146Y28624D02*
X420946D01*
X179020Y236402D02*
Y292902D01*
Y236402D02*
X179520D01*
X234520D01*
Y292902D01*
X179020D02*
X234520D01*
X519201Y275276D02*
X560701D01*
X519201Y20276D02*
Y275276D01*
Y20276D02*
X560701D01*
Y275276D01*
X286465Y36402D02*
Y42402D01*
X264465D02*
X286465D01*
X264465Y32402D02*
Y42402D01*
Y32402D02*
X286465D01*
Y36402D01*
X160911Y139734D02*
Y155234D01*
X140911Y139734D02*
X160911D01*
X140911D02*
Y153234D01*
X142911Y155234D01*
X160911D01*
X255744Y267697D02*
Y268697D01*
X247244Y267697D02*
X255744D01*
X247244D02*
Y268697D01*
X255744Y276697D02*
Y277197D01*
X247244D02*
X255744D01*
X247244Y276697D02*
Y277197D01*
X271949Y54713D02*
Y58213D01*
Y60713D02*
Y64213D01*
X291949D01*
Y54713D02*
Y64213D01*
X271949Y54713D02*
X291949D01*
X290600Y254500D02*
X336600D01*
Y291500D01*
X290600D02*
X336600D01*
X290600Y254500D02*
Y291500D01*
X283199Y128799D02*
X282699Y129299D01*
X281700D01*
X281200Y128799D01*
Y128299D01*
X281700Y127799D01*
X282699D01*
X283199Y127300D01*
Y126800D01*
X282699Y126300D01*
X281700D01*
X281200Y126800D01*
X284199Y129299D02*
X286198D01*
X285199D01*
Y126300D01*
X287198D02*
Y128299D01*
X288198Y129299D01*
X289197Y128299D01*
Y126300D01*
Y127799D01*
X287198D01*
X290197Y129299D02*
X292196D01*
X291197D01*
Y126300D01*
X293196Y129299D02*
Y126800D01*
X293696Y126300D01*
X294696D01*
X295196Y126800D01*
Y129299D01*
X298195Y128799D02*
X297695Y129299D01*
X296695D01*
X296195Y128799D01*
Y128299D01*
X296695Y127799D01*
X297695D01*
X298195Y127300D01*
Y126800D01*
X297695Y126300D01*
X296695D01*
X296195Y126800D01*
X56102Y242126D02*
Y245125D01*
X57602D01*
X58102Y244625D01*
Y243625D01*
X57602Y243126D01*
X56102D01*
X57102D02*
X58102Y242126D01*
X59101Y245125D02*
X61101Y242126D01*
Y245125D02*
X59101Y242126D01*
X55118Y44291D02*
Y47290D01*
X56618D01*
X57117Y46791D01*
Y45791D01*
X56618Y45291D01*
X55118D01*
X56118D02*
X57117Y44291D01*
X58117Y47290D02*
X60116Y44291D01*
Y47290D02*
X58117Y44291D01*
X55118Y250046D02*
X57117D01*
X56118D01*
Y247047D01*
X58117Y250046D02*
X60116Y247047D01*
Y250046D02*
X58117Y247047D01*
X55118Y53196D02*
X57117D01*
X56118D01*
Y50197D01*
X58117Y53196D02*
X60116Y50197D01*
Y53196D02*
X58117Y50197D01*
X211501Y6500D02*
Y8499D01*
X210501Y7500D02*
X212500D01*
X210001Y9499D02*
X212000D01*
X213000Y10499D01*
X212000Y11498D01*
X210001D01*
X210501Y14497D02*
X210001Y13998D01*
Y12998D01*
X210501Y12498D01*
X211001D01*
X211501Y12998D01*
Y13998D01*
X212000Y14497D01*
X212500D01*
X213000Y13998D01*
Y12998D01*
X212500Y12498D01*
X210001Y15497D02*
X210501D01*
X211501Y16497D01*
X210501Y17496D01*
X210001D01*
X211501Y16497D02*
X213000D01*
X210501Y20495D02*
X210001Y19996D01*
Y18996D01*
X210501Y18496D01*
X211001D01*
X211501Y18996D01*
Y19996D01*
X212000Y20495D01*
X212500D01*
X213000Y19996D01*
Y18996D01*
X212500Y18496D01*
X205501Y6500D02*
Y8499D01*
X204501Y7500D02*
X206500D01*
X204501Y9499D02*
X204001Y9999D01*
Y10999D01*
X204501Y11498D01*
X205001D01*
X205501Y10999D01*
Y10499D01*
Y10999D01*
X206000Y11498D01*
X206500D01*
X207000Y10999D01*
Y9999D01*
X206500Y9499D01*
X207000Y12498D02*
X206500D01*
Y12998D01*
X207000D01*
Y12498D01*
X204501Y14997D02*
X204001Y15497D01*
Y16497D01*
X204501Y16997D01*
X205001D01*
X205501Y16497D01*
Y15997D01*
Y16497D01*
X206000Y16997D01*
X206500D01*
X207000Y16497D01*
Y15497D01*
X206500Y14997D01*
X204001Y17996D02*
X206000D01*
X207000Y18996D01*
X206000Y19996D01*
X204001D01*
X198501Y6500D02*
Y8499D01*
X197501Y7500D02*
X199500D01*
X200000Y11498D02*
Y9499D01*
X198001Y11498D01*
X197501D01*
X197001Y10999D01*
Y9999D01*
X197501Y9499D01*
X200000Y12498D02*
X199500D01*
Y12998D01*
X200000D01*
Y12498D01*
X197001Y16997D02*
Y14997D01*
X198501D01*
X198001Y15997D01*
Y16497D01*
X198501Y16997D01*
X199500D01*
X200000Y16497D01*
Y15497D01*
X199500Y14997D01*
X197001Y17996D02*
X199000D01*
X200000Y18996D01*
X199000Y19996D01*
X197001D01*
X192500Y6500D02*
Y8499D01*
X194000Y11498D02*
Y9499D01*
X192001Y11498D01*
X191501D01*
X191001Y10999D01*
Y9999D01*
X191501Y9499D01*
X194000Y12498D02*
X193500D01*
Y12998D01*
X194000D01*
Y12498D01*
X191001Y16997D02*
Y14997D01*
X192500D01*
X192001Y15997D01*
Y16497D01*
X192500Y16997D01*
X193500D01*
X194000Y16497D01*
Y15497D01*
X193500Y14997D01*
X191001Y17996D02*
X193000D01*
X194000Y18996D01*
X193000Y19996D01*
X191001D01*
X188000Y2999D02*
Y1000D01*
X186001Y2999D01*
X185501D01*
X185001Y2499D01*
Y1500D01*
X185501Y1000D01*
X188000Y3999D02*
X187500D01*
Y4499D01*
X188000D01*
Y3999D01*
X185001Y8498D02*
Y6498D01*
X186501D01*
X186001Y7498D01*
Y7998D01*
X186501Y8498D01*
X187500D01*
X188000Y7998D01*
Y6998D01*
X187500Y6498D01*
X185001Y9497D02*
X187000D01*
X188000Y10497D01*
X187000Y11497D01*
X185001D01*
X188000Y12496D02*
X185001D01*
Y13996D01*
X185501Y14496D01*
X186501D01*
X187000Y13996D01*
Y12496D01*
Y13496D02*
X188000Y14496D01*
X185001Y17495D02*
Y15495D01*
X188000D01*
Y17495D01*
X186501Y15495D02*
Y16495D01*
X185001Y20494D02*
Y18494D01*
X186501D01*
Y19494D01*
Y18494D01*
X188000D01*
D87*
X207890Y144576D02*
G03*
X207890Y144576I-492J0D01*
G01*
D88*
X218322Y147638D02*
G03*
X218322Y147638I-1181J0D01*
G01*
D89*
X211573D02*
X235236Y123975D01*
Y171301D02*
X258899Y147638D01*
X211573Y147638D02*
X235236Y171301D01*
Y123975D02*
X258899Y147638D01*
M02*
