G04 Layer_Color=8421504*
%FSLAX25Y25*%
%MOIN*%
G70*
G01*
G75*
%ADD11R,0.06693X0.09842*%
%ADD12R,0.01968X0.02362*%
%ADD13R,0.02362X0.01968*%
%ADD14R,0.03740X0.03740*%
%ADD15R,0.03937X0.07087*%
%ADD16R,0.03740X0.03740*%
%ADD17R,0.02756X0.04331*%
%ADD18R,0.05591X0.07205*%
%ADD19R,0.03386X0.11024*%
%ADD20R,0.02756X0.13110*%
%ADD21R,0.05000X0.08700*%
%ADD22R,0.06299X0.02756*%
G04:AMPARAMS|DCode=23|XSize=11.81mil|YSize=70.87mil|CornerRadius=0mil|HoleSize=0mil|Usage=FLASHONLY|Rotation=135.000|XOffset=0mil|YOffset=0mil|HoleType=Round|Shape=Round|*
%AMOVALD23*
21,1,0.05905,0.01181,0.00000,0.00000,225.0*
1,1,0.01181,0.02088,0.02088*
1,1,0.01181,-0.02088,-0.02088*
%
%ADD23OVALD23*%

G04:AMPARAMS|DCode=24|XSize=11.81mil|YSize=70.87mil|CornerRadius=0mil|HoleSize=0mil|Usage=FLASHONLY|Rotation=45.000|XOffset=0mil|YOffset=0mil|HoleType=Round|Shape=Round|*
%AMOVALD24*
21,1,0.05905,0.01181,0.00000,0.00000,135.0*
1,1,0.01181,0.02088,-0.02088*
1,1,0.01181,-0.02088,0.02088*
%
%ADD24OVALD24*%

%ADD25R,0.03543X0.01575*%
%ADD26R,0.02400X0.07800*%
%ADD27O,0.02400X0.07800*%
%ADD28R,0.03543X0.03740*%
%ADD29R,0.03543X0.03740*%
D11*
X264764Y52165D02*
D03*
Y67913D02*
D03*
D12*
X192650Y23730D02*
D03*
Y27667D02*
D03*
X198650Y23730D02*
D03*
Y27667D02*
D03*
X205150Y23730D02*
D03*
Y27667D02*
D03*
X211650Y23730D02*
D03*
Y27667D02*
D03*
X186650Y23730D02*
D03*
Y27667D02*
D03*
X389764Y265748D02*
D03*
Y261811D02*
D03*
X390748Y198819D02*
D03*
Y194882D02*
D03*
Y131890D02*
D03*
Y127953D02*
D03*
Y64961D02*
D03*
Y61024D02*
D03*
X407480Y240158D02*
D03*
Y244094D02*
D03*
Y173228D02*
D03*
Y177165D02*
D03*
Y107283D02*
D03*
Y111221D02*
D03*
Y40354D02*
D03*
Y44291D02*
D03*
X397638Y265748D02*
D03*
Y261811D02*
D03*
X398622Y198819D02*
D03*
Y194882D02*
D03*
Y131890D02*
D03*
Y127953D02*
D03*
Y64961D02*
D03*
Y61024D02*
D03*
X403543Y240158D02*
D03*
Y244094D02*
D03*
Y173228D02*
D03*
Y177165D02*
D03*
Y107283D02*
D03*
Y111221D02*
D03*
Y40354D02*
D03*
Y44291D02*
D03*
X393701Y240158D02*
D03*
Y244094D02*
D03*
Y173228D02*
D03*
Y177165D02*
D03*
Y107283D02*
D03*
Y111221D02*
D03*
Y40354D02*
D03*
Y44291D02*
D03*
Y265748D02*
D03*
Y261811D02*
D03*
X394685Y198819D02*
D03*
Y194882D02*
D03*
Y127953D02*
D03*
Y131890D02*
D03*
Y64961D02*
D03*
Y61024D02*
D03*
X385827Y240158D02*
D03*
Y244094D02*
D03*
Y173228D02*
D03*
Y177165D02*
D03*
Y40354D02*
D03*
Y44291D02*
D03*
Y265748D02*
D03*
Y261811D02*
D03*
X386811Y198819D02*
D03*
Y194882D02*
D03*
Y131890D02*
D03*
Y127953D02*
D03*
Y64961D02*
D03*
Y61024D02*
D03*
X381890Y265748D02*
D03*
Y261811D02*
D03*
X382874Y198819D02*
D03*
Y194882D02*
D03*
Y131890D02*
D03*
Y127953D02*
D03*
Y64961D02*
D03*
Y61024D02*
D03*
X88583Y72835D02*
D03*
Y76772D02*
D03*
Y203740D02*
D03*
Y207677D02*
D03*
X63976Y78740D02*
D03*
Y82677D02*
D03*
X64961Y209646D02*
D03*
Y213583D02*
D03*
X69882Y86614D02*
D03*
Y90551D02*
D03*
X70866Y217520D02*
D03*
Y221457D02*
D03*
X148622Y92520D02*
D03*
Y96457D02*
D03*
Y225394D02*
D03*
Y229331D02*
D03*
X63976Y72835D02*
D03*
Y68898D02*
D03*
X64961Y204724D02*
D03*
Y200787D02*
D03*
X187992Y58071D02*
D03*
Y54134D02*
D03*
X283465Y171260D02*
D03*
Y175197D02*
D03*
X230315Y33465D02*
D03*
Y37402D02*
D03*
X202756Y88583D02*
D03*
Y92520D02*
D03*
X222441Y88583D02*
D03*
Y92520D02*
D03*
X279528Y166339D02*
D03*
Y162402D02*
D03*
X359100Y245000D02*
D03*
Y241063D02*
D03*
X359300Y176300D02*
D03*
Y172363D02*
D03*
X359000Y110137D02*
D03*
Y106200D02*
D03*
X359100Y43600D02*
D03*
Y39663D02*
D03*
X387795Y283465D02*
D03*
Y287402D02*
D03*
X366142Y199803D02*
D03*
Y203740D02*
D03*
X387795Y216535D02*
D03*
Y220472D02*
D03*
X365158Y132874D02*
D03*
Y136811D02*
D03*
X387600Y149963D02*
D03*
Y153900D02*
D03*
X365158Y65945D02*
D03*
Y69882D02*
D03*
X387795Y84646D02*
D03*
Y88583D02*
D03*
X180118Y54134D02*
D03*
Y58071D02*
D03*
X184055D02*
D03*
Y54134D02*
D03*
X275590Y175197D02*
D03*
Y171260D02*
D03*
X279528D02*
D03*
Y175197D02*
D03*
X222441Y42323D02*
D03*
Y46260D02*
D03*
X222441Y37402D02*
D03*
Y33465D02*
D03*
X211498Y32480D02*
D03*
Y36417D02*
D03*
X226378Y33465D02*
D03*
Y37402D02*
D03*
X204724Y32480D02*
D03*
Y36417D02*
D03*
X198819Y32480D02*
D03*
Y36417D02*
D03*
X192913Y32480D02*
D03*
Y36417D02*
D03*
X226378Y92520D02*
D03*
Y88583D02*
D03*
X186024Y32480D02*
D03*
Y36417D02*
D03*
X275590Y166339D02*
D03*
Y162402D02*
D03*
X385827Y107283D02*
D03*
Y111221D02*
D03*
X250800Y57300D02*
D03*
Y61237D02*
D03*
X246200Y186063D02*
D03*
Y190000D02*
D03*
D13*
X68898Y52165D02*
D03*
X64961D02*
D03*
X68898Y249016D02*
D03*
X64961D02*
D03*
X68898Y46260D02*
D03*
X64961D02*
D03*
X68898Y243110D02*
D03*
X64961D02*
D03*
X292323Y123031D02*
D03*
X296260D02*
D03*
X256890Y37402D02*
D03*
X252953D02*
D03*
X278543Y78740D02*
D03*
X274606D02*
D03*
X223425Y73819D02*
D03*
X219488D02*
D03*
X359252Y250000D02*
D03*
X363189D02*
D03*
X359252Y183071D02*
D03*
X363189D02*
D03*
X359252Y116142D02*
D03*
X363189D02*
D03*
X359252Y50197D02*
D03*
X363189D02*
D03*
X194882Y137795D02*
D03*
X190945D02*
D03*
X154237Y200400D02*
D03*
X150300D02*
D03*
X87598Y103347D02*
D03*
X83661D02*
D03*
X88583Y238189D02*
D03*
X84646D02*
D03*
X77756Y52165D02*
D03*
X73819D02*
D03*
X77756Y249016D02*
D03*
X73819D02*
D03*
X77756Y46260D02*
D03*
X73819D02*
D03*
X77756Y243110D02*
D03*
X73819D02*
D03*
X211614Y65945D02*
D03*
X207677D02*
D03*
X219488D02*
D03*
X223425D02*
D03*
Y69882D02*
D03*
X219488D02*
D03*
X267717Y107283D02*
D03*
X263779D02*
D03*
X267717Y111221D02*
D03*
X263779D02*
D03*
Y115157D02*
D03*
X267717D02*
D03*
X263779Y119095D02*
D03*
X267717D02*
D03*
X283465Y123031D02*
D03*
X287402D02*
D03*
X200787Y178150D02*
D03*
X196850D02*
D03*
X200787Y174213D02*
D03*
X196850D02*
D03*
X263779Y123031D02*
D03*
X267717D02*
D03*
X305900Y21600D02*
D03*
X301963D02*
D03*
X292137Y117100D02*
D03*
X288200D02*
D03*
D14*
X420709Y93000D02*
D03*
X415000D02*
D03*
X421000Y159000D02*
D03*
X415291D02*
D03*
X421000Y226000D02*
D03*
X415291D02*
D03*
X421000Y78000D02*
D03*
X415291D02*
D03*
X420854Y141500D02*
D03*
X415146D02*
D03*
X421854Y208000D02*
D03*
X416146D02*
D03*
X421000Y280000D02*
D03*
X415291D02*
D03*
X420854Y26224D02*
D03*
X415146D02*
D03*
D15*
X90532Y149802D02*
D03*
X102343D02*
D03*
X90532Y139960D02*
D03*
X102343D02*
D03*
D16*
X239173Y282579D02*
D03*
Y288287D02*
D03*
D17*
X227559Y287402D02*
D03*
X223228D02*
D03*
X218898D02*
D03*
X214567D02*
D03*
X210236D02*
D03*
X205906D02*
D03*
X201575D02*
D03*
X197244D02*
D03*
D18*
X182520D02*
D03*
D19*
X231811Y285202D02*
D03*
D20*
Y243902D02*
D03*
X181759D02*
D03*
D21*
X267465Y37402D02*
D03*
X283465D02*
D03*
D22*
X145100Y151734D02*
D03*
Y147600D02*
D03*
Y143466D02*
D03*
X156911D02*
D03*
Y147600D02*
D03*
Y151734D02*
D03*
D23*
X209346Y142627D02*
D03*
X210738Y141235D02*
D03*
X212130Y139843D02*
D03*
X213522Y138451D02*
D03*
X214914Y137059D02*
D03*
X216306Y135667D02*
D03*
X217698Y134275D02*
D03*
X219090Y132883D02*
D03*
X220482Y131491D02*
D03*
X221874Y130099D02*
D03*
X223266Y128707D02*
D03*
X224658Y127315D02*
D03*
X226049Y125924D02*
D03*
X227441Y124532D02*
D03*
X228833Y123140D02*
D03*
X230225Y121748D02*
D03*
X261126Y152649D02*
D03*
X259734Y154041D02*
D03*
X258343Y155433D02*
D03*
X256950Y156825D02*
D03*
X255559Y158217D02*
D03*
X254167Y159608D02*
D03*
X252775Y161001D02*
D03*
X251383Y162392D02*
D03*
X249991Y163784D02*
D03*
X248599Y165176D02*
D03*
X247207Y166568D02*
D03*
X245815Y167960D02*
D03*
X244423Y169352D02*
D03*
X243031Y170744D02*
D03*
X241639Y172136D02*
D03*
X240247Y173528D02*
D03*
D24*
Y121748D02*
D03*
X241639Y123140D02*
D03*
X243031Y124532D02*
D03*
X244423Y125924D02*
D03*
X245815Y127315D02*
D03*
X247207Y128707D02*
D03*
X248599Y130099D02*
D03*
X249991Y131491D02*
D03*
X251383Y132883D02*
D03*
X252775Y134275D02*
D03*
X254167Y135667D02*
D03*
X255559Y137059D02*
D03*
X256950Y138451D02*
D03*
X258343Y139843D02*
D03*
X259734Y141235D02*
D03*
X261126Y142627D02*
D03*
X230225Y173528D02*
D03*
X228833Y172136D02*
D03*
X227441Y170744D02*
D03*
X226049Y169352D02*
D03*
X224658Y167960D02*
D03*
X223266Y166568D02*
D03*
X221874Y165176D02*
D03*
X220482Y163784D02*
D03*
X219090Y162392D02*
D03*
X217698Y161001D02*
D03*
X216306Y159608D02*
D03*
X214914Y158217D02*
D03*
X213522Y156825D02*
D03*
X212130Y155433D02*
D03*
X210738Y154041D02*
D03*
X209346Y152649D02*
D03*
D25*
X255906Y275197D02*
D03*
Y272638D02*
D03*
Y270079D02*
D03*
X247244D02*
D03*
Y272638D02*
D03*
Y275197D02*
D03*
D26*
X274449Y49213D02*
D03*
D27*
X279449D02*
D03*
X284449D02*
D03*
X289449D02*
D03*
X274449Y69713D02*
D03*
X279449D02*
D03*
X284449D02*
D03*
X289449D02*
D03*
D28*
X208858Y86614D02*
D03*
X212598Y96457D02*
D03*
D29*
X216339Y86614D02*
D03*
M02*
