G04 Layer_Color=16711935*
%FSLAX25Y25*%
%MOIN*%
G70*
G01*
G75*
%ADD90R,0.07493X0.10642*%
%ADD91R,0.02768X0.03162*%
%ADD92R,0.03162X0.02768*%
%ADD94R,0.04737X0.07887*%
%ADD95R,0.04540X0.04540*%
%ADD104R,0.04343X0.02375*%
%ADD109C,0.03900*%
%ADD110C,0.25800*%
%ADD111C,0.00800*%
%ADD112C,0.06312*%
%ADD113C,0.06706*%
%ADD114C,0.06300*%
%ADD115C,0.05800*%
%ADD116C,0.07300*%
%ADD117R,0.05800X0.05800*%
%ADD118R,0.00800X0.00800*%
%ADD119R,0.22453X0.22453*%
%ADD120R,0.16548X0.16548*%
%ADD121R,0.03162X0.02375*%
%ADD122R,0.02375X0.03162*%
%ADD123R,0.11706X0.10839*%
%ADD124R,0.08320X0.03792*%
%ADD125O,0.10249X0.02572*%
%ADD126R,0.02375X0.04343*%
%ADD127O,0.01981X0.07887*%
%ADD128O,0.07887X0.01981*%
%ADD129R,0.07887X0.04737*%
%ADD130R,0.04737X0.02375*%
%ADD131R,0.03162X0.01981*%
%ADD132R,0.05524X0.10642*%
%ADD133R,0.04147X0.14776*%
%ADD134R,0.04147X0.11233*%
%ADD135R,0.03800X0.13300*%
%ADD136R,0.19800X0.03800*%
%ADD137R,0.16700X0.03800*%
%ADD138R,0.03800X0.16800*%
%ADD139R,0.09068X0.04343*%
%ADD140R,0.09068X0.13398*%
%ADD141R,0.05721X0.02768*%
G04:AMPARAMS|DCode=142|XSize=27.68mil|YSize=17.84mil|CornerRadius=6.46mil|HoleSize=0mil|Usage=FLASHONLY|Rotation=180.000|XOffset=0mil|YOffset=0mil|HoleType=Round|Shape=RoundedRectangle|*
%AMROUNDEDRECTD142*
21,1,0.02768,0.00492,0,0,180.0*
21,1,0.01476,0.01784,0,0,180.0*
1,1,0.01292,-0.00738,0.00246*
1,1,0.01292,0.00738,0.00246*
1,1,0.01292,0.00738,-0.00246*
1,1,0.01292,-0.00738,-0.00246*
%
%ADD142ROUNDEDRECTD142*%
%ADD143R,0.04737X0.11233*%
D90*
X269685Y238189D02*
D03*
Y253937D02*
D03*
X52756Y119291D02*
D03*
Y135039D02*
D03*
Y161024D02*
D03*
Y176772D02*
D03*
D91*
X403543Y222441D02*
D03*
Y218504D02*
D03*
Y154528D02*
D03*
Y150591D02*
D03*
Y88583D02*
D03*
Y84646D02*
D03*
Y21654D02*
D03*
Y17717D02*
D03*
X420276Y218504D02*
D03*
Y222441D02*
D03*
X430000Y271963D02*
D03*
Y275900D02*
D03*
X199803Y51181D02*
D03*
Y47244D02*
D03*
X222441Y51181D02*
D03*
Y55118D02*
D03*
X218504D02*
D03*
Y51181D02*
D03*
X230315Y137795D02*
D03*
Y141732D02*
D03*
X234252Y137795D02*
D03*
Y141732D02*
D03*
X222441Y145669D02*
D03*
Y141732D02*
D03*
X235236Y131890D02*
D03*
Y127953D02*
D03*
X161417Y43307D02*
D03*
Y39370D02*
D03*
X155512Y43307D02*
D03*
Y39370D02*
D03*
X149606Y43307D02*
D03*
Y39370D02*
D03*
X424213Y218504D02*
D03*
Y222441D02*
D03*
X426200Y275937D02*
D03*
Y272000D02*
D03*
X222441Y46260D02*
D03*
Y42323D02*
D03*
X226378Y47244D02*
D03*
Y51181D02*
D03*
X222441Y63976D02*
D03*
Y60039D02*
D03*
X226378Y141732D02*
D03*
Y137795D02*
D03*
D92*
X445200Y36400D02*
D03*
X441263D02*
D03*
X445300Y103300D02*
D03*
X441363D02*
D03*
X445500Y170500D02*
D03*
X441563D02*
D03*
X445837Y237200D02*
D03*
X441900D02*
D03*
X431563Y36400D02*
D03*
X435500D02*
D03*
X431563Y103300D02*
D03*
X435500D02*
D03*
X431563Y170500D02*
D03*
X435500D02*
D03*
X432563Y237200D02*
D03*
X436500D02*
D03*
X438000Y160600D02*
D03*
X441937D02*
D03*
X435039Y232283D02*
D03*
X438976D02*
D03*
X435039Y212598D02*
D03*
X438976D02*
D03*
X440945Y31496D02*
D03*
X437008D02*
D03*
X211614Y65945D02*
D03*
X207677D02*
D03*
X233268Y164370D02*
D03*
X237205D02*
D03*
X539764Y285827D02*
D03*
X535827D02*
D03*
X539370Y12205D02*
D03*
X535433D02*
D03*
X441929Y165354D02*
D03*
X437992D02*
D03*
X440945Y27559D02*
D03*
X437008D02*
D03*
X171260Y43307D02*
D03*
X167323D02*
D03*
X180118D02*
D03*
X176181D02*
D03*
X188976Y68898D02*
D03*
X185039D02*
D03*
X211614Y62008D02*
D03*
X207677D02*
D03*
D94*
X161205Y101300D02*
D03*
X149395D02*
D03*
D95*
X397638Y223425D02*
D03*
Y217717D02*
D03*
Y155413D02*
D03*
Y149705D02*
D03*
Y89468D02*
D03*
Y83760D02*
D03*
Y22539D02*
D03*
Y16831D02*
D03*
X239173Y136909D02*
D03*
Y142618D02*
D03*
X247047Y141831D02*
D03*
Y147539D02*
D03*
D104*
X569917Y121713D02*
D03*
Y119153D02*
D03*
Y116595D02*
D03*
X561256D02*
D03*
Y119153D02*
D03*
Y121713D02*
D03*
Y138839D02*
D03*
Y136279D02*
D03*
Y133721D02*
D03*
X569917D02*
D03*
Y136279D02*
D03*
Y138839D02*
D03*
D109*
X310600Y279500D02*
D03*
Y274500D02*
D03*
X315600Y279500D02*
D03*
Y274500D02*
D03*
X310600Y269500D02*
D03*
X315600D02*
D03*
D110*
X15748Y279528D02*
D03*
Y15748D02*
D03*
X275590Y279528D02*
D03*
Y15748D02*
D03*
X594095D02*
D03*
Y279528D02*
D03*
X485728D02*
D03*
Y15748D02*
D03*
X539901Y261976D02*
D03*
Y33776D02*
D03*
D111*
X12205Y194882D02*
D03*
Y226378D02*
D03*
X11811Y70079D02*
D03*
Y101575D02*
D03*
D112*
X29882Y215551D02*
D03*
Y205709D02*
D03*
X37756D02*
D03*
Y215551D02*
D03*
X29488Y90748D02*
D03*
Y80905D02*
D03*
X37362D02*
D03*
Y90748D02*
D03*
D113*
X179400Y130400D02*
D03*
X169400D02*
D03*
X75600Y131000D02*
D03*
X65600D02*
D03*
X327300Y21800D02*
D03*
X317300D02*
D03*
D114*
X314961Y77795D02*
D03*
X324961D02*
D03*
X314961Y87795D02*
D03*
X324961D02*
D03*
X314961Y97795D02*
D03*
X324961D02*
D03*
X314961Y107795D02*
D03*
X324961D02*
D03*
X314961Y117795D02*
D03*
X324961D02*
D03*
X314961Y127795D02*
D03*
X324961D02*
D03*
X314961Y137795D02*
D03*
X324961D02*
D03*
X314961Y147795D02*
D03*
X324961D02*
D03*
X314961Y157795D02*
D03*
X324961D02*
D03*
X314961Y167795D02*
D03*
X324961D02*
D03*
X314961Y177795D02*
D03*
X324961D02*
D03*
X314961Y187795D02*
D03*
X324961D02*
D03*
X314961Y197795D02*
D03*
X324961D02*
D03*
X314961Y207795D02*
D03*
X324961D02*
D03*
X314961Y217795D02*
D03*
X324961D02*
D03*
D115*
X92600Y131200D02*
D03*
X102600D02*
D03*
X132600D02*
D03*
X152600D02*
D03*
X551201Y70276D02*
D03*
X543701Y75276D02*
D03*
X551201Y80276D02*
D03*
X543701Y85276D02*
D03*
X551201Y90276D02*
D03*
X543701Y95276D02*
D03*
X551201Y100276D02*
D03*
X543701Y105276D02*
D03*
X551201Y110276D02*
D03*
X543701Y115276D02*
D03*
X551201Y120276D02*
D03*
X543701Y125276D02*
D03*
X551201Y130276D02*
D03*
X543701Y135276D02*
D03*
X551201Y140276D02*
D03*
X543701Y145276D02*
D03*
X551201Y150276D02*
D03*
X543701Y155276D02*
D03*
X551201Y160276D02*
D03*
X543701Y165276D02*
D03*
X551201Y170276D02*
D03*
X543701Y175276D02*
D03*
X551201Y180276D02*
D03*
X543701Y185276D02*
D03*
X551201Y190276D02*
D03*
X543701Y195276D02*
D03*
X551201Y200276D02*
D03*
X543701Y205276D02*
D03*
X551201Y210276D02*
D03*
X543701Y215276D02*
D03*
X551201Y220276D02*
D03*
X543701Y225276D02*
D03*
X551201Y230276D02*
D03*
X528701Y65276D02*
D03*
X536201Y70276D02*
D03*
X528701Y75276D02*
D03*
X536201Y80276D02*
D03*
X528701Y85276D02*
D03*
X536201Y90276D02*
D03*
X528701Y95276D02*
D03*
X536201Y100276D02*
D03*
X528701Y105276D02*
D03*
X536201Y110276D02*
D03*
X528701Y115276D02*
D03*
X536201Y120276D02*
D03*
X528701Y125276D02*
D03*
X536201Y130276D02*
D03*
X528701Y135276D02*
D03*
X536201Y140276D02*
D03*
X528701Y145276D02*
D03*
X536201Y150276D02*
D03*
X528701Y155276D02*
D03*
X536201Y160276D02*
D03*
X528701Y165276D02*
D03*
X536201Y170276D02*
D03*
X528701Y175276D02*
D03*
X536201Y180276D02*
D03*
X528701Y185276D02*
D03*
X536201Y190276D02*
D03*
X528701Y195276D02*
D03*
X536201Y200276D02*
D03*
X528701Y205276D02*
D03*
X536201Y210276D02*
D03*
X528701Y215276D02*
D03*
X536201Y220276D02*
D03*
X528701Y225276D02*
D03*
X536201Y230276D02*
D03*
D116*
X169100Y102300D02*
D03*
X207677Y78740D02*
D03*
X236221Y88583D02*
D03*
X307087Y236221D02*
D03*
X324700Y239400D02*
D03*
X319882Y39370D02*
D03*
X282480Y208661D02*
D03*
X440100Y148500D02*
D03*
X291339Y164370D02*
D03*
X283465Y237205D02*
D03*
X95000Y17500D02*
D03*
X90000Y265000D02*
D03*
X239173Y35433D02*
D03*
D117*
X543701Y65276D02*
D03*
D118*
X313100Y264500D02*
D03*
X309100Y284500D02*
D03*
X317100D02*
D03*
X303100Y264500D02*
D03*
Y277000D02*
D03*
X323100Y264500D02*
D03*
Y277000D02*
D03*
D119*
X149409Y254921D02*
D03*
X250197D02*
D03*
D120*
X199803D02*
D03*
D121*
X451772Y165945D02*
D03*
Y163386D02*
D03*
X425197Y212598D02*
D03*
Y210039D02*
D03*
D122*
X438386Y22638D02*
D03*
X440945D02*
D03*
D123*
X93900Y167900D02*
D03*
X68546D02*
D03*
X140900Y168000D02*
D03*
X166254D02*
D03*
X175754Y59200D02*
D03*
X150400D02*
D03*
D124*
X96457Y89410D02*
D03*
Y94410D02*
D03*
Y99410D02*
D03*
X138740D02*
D03*
Y94410D02*
D03*
Y89410D02*
D03*
X138976Y210236D02*
D03*
Y205236D02*
D03*
Y200236D02*
D03*
X96693D02*
D03*
Y205236D02*
D03*
Y210236D02*
D03*
X138740Y78898D02*
D03*
Y73898D02*
D03*
Y68898D02*
D03*
X96457D02*
D03*
Y73898D02*
D03*
Y78898D02*
D03*
X96693Y222047D02*
D03*
Y227047D02*
D03*
Y232047D02*
D03*
X138976D02*
D03*
Y227047D02*
D03*
Y222047D02*
D03*
D125*
X52756Y64862D02*
D03*
Y67421D02*
D03*
Y69980D02*
D03*
Y72539D02*
D03*
Y75098D02*
D03*
Y77658D02*
D03*
Y80216D02*
D03*
Y82776D02*
D03*
Y85335D02*
D03*
Y87894D02*
D03*
Y90453D02*
D03*
Y93012D02*
D03*
Y95571D02*
D03*
Y98130D02*
D03*
X79527Y64862D02*
D03*
Y67421D02*
D03*
Y69980D02*
D03*
Y72539D02*
D03*
Y75098D02*
D03*
Y77658D02*
D03*
Y80216D02*
D03*
Y82776D02*
D03*
Y85335D02*
D03*
Y87894D02*
D03*
Y90453D02*
D03*
Y93012D02*
D03*
Y95571D02*
D03*
Y98130D02*
D03*
X53543Y196358D02*
D03*
Y198917D02*
D03*
Y201476D02*
D03*
Y204035D02*
D03*
Y206594D02*
D03*
Y209154D02*
D03*
Y211713D02*
D03*
Y214272D02*
D03*
Y216831D02*
D03*
Y219390D02*
D03*
Y221949D02*
D03*
Y224508D02*
D03*
Y227067D02*
D03*
Y229626D02*
D03*
X80315Y196358D02*
D03*
Y198917D02*
D03*
Y201476D02*
D03*
Y204035D02*
D03*
Y206594D02*
D03*
Y209154D02*
D03*
Y211713D02*
D03*
Y214272D02*
D03*
Y216831D02*
D03*
Y219390D02*
D03*
Y221949D02*
D03*
Y224508D02*
D03*
Y227067D02*
D03*
Y229626D02*
D03*
D126*
X512815Y61417D02*
D03*
X515374D02*
D03*
X517933D02*
D03*
Y52756D02*
D03*
X515374D02*
D03*
X512815D02*
D03*
Y92756D02*
D03*
X515374D02*
D03*
X517933D02*
D03*
Y101417D02*
D03*
X515374D02*
D03*
X512815D02*
D03*
X512933Y142756D02*
D03*
X515492D02*
D03*
X518051D02*
D03*
Y134095D02*
D03*
X515492D02*
D03*
X512933D02*
D03*
Y182756D02*
D03*
X515492D02*
D03*
X518051D02*
D03*
Y191417D02*
D03*
X515492D02*
D03*
X512933D02*
D03*
X512815Y81417D02*
D03*
X515374D02*
D03*
X517933D02*
D03*
Y72756D02*
D03*
X515374D02*
D03*
X512815D02*
D03*
Y112756D02*
D03*
X515374D02*
D03*
X517933D02*
D03*
Y121417D02*
D03*
X515374D02*
D03*
X512815D02*
D03*
X512933Y167756D02*
D03*
X515492D02*
D03*
X518051D02*
D03*
Y159095D02*
D03*
X515492D02*
D03*
X512933D02*
D03*
Y207756D02*
D03*
X515492D02*
D03*
X518051D02*
D03*
Y216417D02*
D03*
X515492D02*
D03*
X512933D02*
D03*
D127*
X411417Y141438D02*
D03*
X409449D02*
D03*
X407480D02*
D03*
X405512D02*
D03*
X403543D02*
D03*
X401575D02*
D03*
X399606D02*
D03*
X397638D02*
D03*
X395669D02*
D03*
X393701D02*
D03*
X391732D02*
D03*
X389764D02*
D03*
X387795D02*
D03*
X385827D02*
D03*
X383858D02*
D03*
X381890D02*
D03*
Y97737D02*
D03*
X383858D02*
D03*
X385827D02*
D03*
X387795D02*
D03*
X389764D02*
D03*
X391732D02*
D03*
X393701D02*
D03*
X395669D02*
D03*
X397638D02*
D03*
X399606D02*
D03*
X401575D02*
D03*
X403543D02*
D03*
X405512D02*
D03*
X407480D02*
D03*
X409449D02*
D03*
X411417D02*
D03*
Y208121D02*
D03*
X409449D02*
D03*
X407480D02*
D03*
X405512D02*
D03*
X403543D02*
D03*
X401575D02*
D03*
X399606D02*
D03*
X397638D02*
D03*
X395669D02*
D03*
X393701D02*
D03*
X391732D02*
D03*
X389764D02*
D03*
X387795D02*
D03*
X385827D02*
D03*
X383858D02*
D03*
X381890D02*
D03*
Y164420D02*
D03*
X383858D02*
D03*
X385827D02*
D03*
X387795D02*
D03*
X389764D02*
D03*
X391732D02*
D03*
X393701D02*
D03*
X395669D02*
D03*
X397638D02*
D03*
X399606D02*
D03*
X401575D02*
D03*
X403543D02*
D03*
X405512D02*
D03*
X407480D02*
D03*
X409449D02*
D03*
X411417D02*
D03*
Y274803D02*
D03*
X409449D02*
D03*
X407480D02*
D03*
X405512D02*
D03*
X403543D02*
D03*
X401575D02*
D03*
X399606D02*
D03*
X397638D02*
D03*
X395669D02*
D03*
X393701D02*
D03*
X391732D02*
D03*
X389764D02*
D03*
X387795D02*
D03*
X385827D02*
D03*
X383858D02*
D03*
X381890D02*
D03*
Y231102D02*
D03*
X383858D02*
D03*
X385827D02*
D03*
X387795D02*
D03*
X389764D02*
D03*
X391732D02*
D03*
X393701D02*
D03*
X395669D02*
D03*
X397638D02*
D03*
X399606D02*
D03*
X401575D02*
D03*
X403543D02*
D03*
X405512D02*
D03*
X407480D02*
D03*
X409449D02*
D03*
X411417D02*
D03*
Y74756D02*
D03*
X409449D02*
D03*
X407480D02*
D03*
X405512D02*
D03*
X403543D02*
D03*
X401575D02*
D03*
X399606D02*
D03*
X397638D02*
D03*
X395669D02*
D03*
X393701D02*
D03*
X391732D02*
D03*
X389764D02*
D03*
X387795D02*
D03*
X385827D02*
D03*
X383858D02*
D03*
X381890D02*
D03*
Y31055D02*
D03*
X383858D02*
D03*
X385827D02*
D03*
X387795D02*
D03*
X389764D02*
D03*
X391732D02*
D03*
X393701D02*
D03*
X395669D02*
D03*
X397638D02*
D03*
X399606D02*
D03*
X401575D02*
D03*
X403543D02*
D03*
X405512D02*
D03*
X407480D02*
D03*
X409449D02*
D03*
X411417D02*
D03*
D128*
X374803Y134352D02*
D03*
Y132383D02*
D03*
Y130415D02*
D03*
Y128446D02*
D03*
Y126478D02*
D03*
Y124509D02*
D03*
Y122541D02*
D03*
Y120572D02*
D03*
Y118604D02*
D03*
Y116635D02*
D03*
Y114667D02*
D03*
Y112698D02*
D03*
Y110730D02*
D03*
Y108761D02*
D03*
Y106793D02*
D03*
Y104824D02*
D03*
X418504D02*
D03*
Y106793D02*
D03*
Y108761D02*
D03*
Y110730D02*
D03*
Y112698D02*
D03*
Y114667D02*
D03*
Y116635D02*
D03*
Y118604D02*
D03*
Y120572D02*
D03*
Y122541D02*
D03*
Y124509D02*
D03*
Y126478D02*
D03*
Y128446D02*
D03*
Y130415D02*
D03*
Y132383D02*
D03*
Y134352D02*
D03*
X374803Y201034D02*
D03*
Y199066D02*
D03*
Y197097D02*
D03*
Y195129D02*
D03*
Y193160D02*
D03*
Y191192D02*
D03*
Y189223D02*
D03*
Y187255D02*
D03*
Y185286D02*
D03*
Y183318D02*
D03*
Y181349D02*
D03*
Y179381D02*
D03*
Y177412D02*
D03*
Y175444D02*
D03*
Y173475D02*
D03*
Y171507D02*
D03*
X418504D02*
D03*
Y173475D02*
D03*
Y175444D02*
D03*
Y177412D02*
D03*
Y179381D02*
D03*
Y181349D02*
D03*
Y183318D02*
D03*
Y185286D02*
D03*
Y187255D02*
D03*
Y189223D02*
D03*
Y191192D02*
D03*
Y193160D02*
D03*
Y195129D02*
D03*
Y197097D02*
D03*
Y199066D02*
D03*
Y201034D02*
D03*
X374803Y267717D02*
D03*
Y265748D02*
D03*
Y263780D02*
D03*
Y261811D02*
D03*
Y259842D02*
D03*
Y257874D02*
D03*
Y255906D02*
D03*
Y253937D02*
D03*
Y251969D02*
D03*
Y250000D02*
D03*
Y248031D02*
D03*
Y246063D02*
D03*
Y244094D02*
D03*
Y242126D02*
D03*
Y240158D02*
D03*
Y238189D02*
D03*
X418504D02*
D03*
Y240158D02*
D03*
Y242126D02*
D03*
Y244094D02*
D03*
Y246063D02*
D03*
Y248031D02*
D03*
Y250000D02*
D03*
Y251969D02*
D03*
Y253937D02*
D03*
Y255906D02*
D03*
Y257874D02*
D03*
Y259842D02*
D03*
Y261811D02*
D03*
Y263780D02*
D03*
Y265748D02*
D03*
Y267717D02*
D03*
X374803Y67669D02*
D03*
Y65701D02*
D03*
Y63732D02*
D03*
Y61764D02*
D03*
Y59795D02*
D03*
Y57827D02*
D03*
Y55858D02*
D03*
Y53890D02*
D03*
Y51921D02*
D03*
Y49953D02*
D03*
Y47984D02*
D03*
Y46016D02*
D03*
Y44047D02*
D03*
Y42079D02*
D03*
Y40110D02*
D03*
Y38142D02*
D03*
X418504D02*
D03*
Y40110D02*
D03*
Y42079D02*
D03*
Y44047D02*
D03*
Y46016D02*
D03*
Y47984D02*
D03*
Y49953D02*
D03*
Y51921D02*
D03*
Y53890D02*
D03*
Y55858D02*
D03*
Y57827D02*
D03*
Y59795D02*
D03*
Y61764D02*
D03*
Y63732D02*
D03*
Y65701D02*
D03*
Y67669D02*
D03*
D129*
X188976Y44391D02*
D03*
Y56202D02*
D03*
X184055Y89467D02*
D03*
Y77656D02*
D03*
X193898Y89467D02*
D03*
Y77656D02*
D03*
X198819Y56987D02*
D03*
Y68798D02*
D03*
D130*
X435630Y185630D02*
D03*
Y182480D02*
D03*
Y179331D02*
D03*
Y176181D02*
D03*
X441929Y185630D02*
D03*
Y182480D02*
D03*
Y179331D02*
D03*
Y176181D02*
D03*
X435630Y118701D02*
D03*
Y115551D02*
D03*
Y112402D02*
D03*
Y109252D02*
D03*
X441929Y118701D02*
D03*
Y115551D02*
D03*
Y112402D02*
D03*
Y109252D02*
D03*
X435630Y51772D02*
D03*
Y48622D02*
D03*
Y45472D02*
D03*
Y42323D02*
D03*
X441929Y51772D02*
D03*
Y48622D02*
D03*
Y45472D02*
D03*
Y42323D02*
D03*
X436614Y264961D02*
D03*
Y261811D02*
D03*
Y258661D02*
D03*
Y255512D02*
D03*
X442913Y264961D02*
D03*
Y261811D02*
D03*
Y258661D02*
D03*
Y255512D02*
D03*
X435630Y199803D02*
D03*
Y196653D02*
D03*
Y193504D02*
D03*
Y190354D02*
D03*
X441929Y199803D02*
D03*
Y196653D02*
D03*
Y193504D02*
D03*
Y190354D02*
D03*
X435600Y132400D02*
D03*
Y129250D02*
D03*
Y126101D02*
D03*
Y122951D02*
D03*
X441899Y132400D02*
D03*
Y129250D02*
D03*
Y126101D02*
D03*
Y122951D02*
D03*
X435630Y65551D02*
D03*
Y62402D02*
D03*
Y59252D02*
D03*
Y56102D02*
D03*
X441929Y65551D02*
D03*
Y62402D02*
D03*
Y59252D02*
D03*
Y56102D02*
D03*
X435630Y97047D02*
D03*
Y93898D02*
D03*
Y90748D02*
D03*
Y87598D02*
D03*
X441929Y97047D02*
D03*
Y93898D02*
D03*
Y90748D02*
D03*
Y87598D02*
D03*
X435630Y83071D02*
D03*
Y79921D02*
D03*
Y76772D02*
D03*
Y73622D02*
D03*
X441929Y83071D02*
D03*
Y79921D02*
D03*
Y76772D02*
D03*
Y73622D02*
D03*
X436614Y251378D02*
D03*
Y248228D02*
D03*
Y245079D02*
D03*
Y241929D02*
D03*
X442913Y251378D02*
D03*
Y248228D02*
D03*
Y245079D02*
D03*
Y241929D02*
D03*
D131*
X451378Y194882D02*
D03*
Y192913D02*
D03*
Y190945D02*
D03*
Y188976D02*
D03*
Y187008D02*
D03*
Y185039D02*
D03*
Y183071D02*
D03*
Y181102D02*
D03*
X457677Y194882D02*
D03*
Y192913D02*
D03*
Y190945D02*
D03*
Y188976D02*
D03*
Y187008D02*
D03*
Y185039D02*
D03*
Y183071D02*
D03*
Y181102D02*
D03*
Y114173D02*
D03*
Y116142D02*
D03*
Y118110D02*
D03*
Y120079D02*
D03*
Y122047D02*
D03*
Y124016D02*
D03*
Y125984D02*
D03*
Y127953D02*
D03*
X451378Y114173D02*
D03*
Y116142D02*
D03*
Y118110D02*
D03*
Y120079D02*
D03*
Y122047D02*
D03*
Y124016D02*
D03*
Y125984D02*
D03*
Y127953D02*
D03*
Y62008D02*
D03*
Y60039D02*
D03*
Y58071D02*
D03*
Y56102D02*
D03*
Y54134D02*
D03*
Y52165D02*
D03*
Y50197D02*
D03*
Y48228D02*
D03*
X457677Y62008D02*
D03*
Y60039D02*
D03*
Y58071D02*
D03*
Y56102D02*
D03*
Y54134D02*
D03*
Y52165D02*
D03*
Y50197D02*
D03*
Y48228D02*
D03*
Y78740D02*
D03*
Y80709D02*
D03*
Y82677D02*
D03*
Y84646D02*
D03*
Y86614D02*
D03*
Y88583D02*
D03*
Y90551D02*
D03*
Y92520D02*
D03*
X451378Y78740D02*
D03*
Y80709D02*
D03*
Y82677D02*
D03*
Y84646D02*
D03*
Y86614D02*
D03*
Y88583D02*
D03*
Y90551D02*
D03*
Y92520D02*
D03*
X458071Y247047D02*
D03*
Y249016D02*
D03*
Y250984D02*
D03*
Y252953D02*
D03*
Y254921D02*
D03*
Y256890D02*
D03*
Y258858D02*
D03*
Y260827D02*
D03*
X451772Y247047D02*
D03*
Y249016D02*
D03*
Y250984D02*
D03*
Y252953D02*
D03*
Y254921D02*
D03*
Y256890D02*
D03*
Y258858D02*
D03*
Y260827D02*
D03*
D132*
X377559Y152559D02*
D03*
X389764D02*
D03*
X377559Y86614D02*
D03*
X389764D02*
D03*
X377559Y19685D02*
D03*
X389764D02*
D03*
X377559Y219488D02*
D03*
X389764D02*
D03*
D133*
X143701Y12159D02*
D03*
X149606D02*
D03*
X155512D02*
D03*
X161417D02*
D03*
X167323D02*
D03*
X173228D02*
D03*
D134*
X143701Y27559D02*
D03*
X149606D02*
D03*
X155512D02*
D03*
X161417D02*
D03*
X167323D02*
D03*
X173228D02*
D03*
D135*
X468504Y280830D02*
D03*
X360304D02*
D03*
Y15130D02*
D03*
X468504D02*
D03*
D136*
X460504Y285630D02*
D03*
X368304D02*
D03*
Y8630D02*
D03*
X460504D02*
D03*
D137*
X390404Y285630D02*
D03*
X413304D02*
D03*
X436204D02*
D03*
X390504Y8630D02*
D03*
X413304D02*
D03*
X436204D02*
D03*
D138*
X360304Y260630D02*
D03*
Y238130D02*
D03*
Y215630D02*
D03*
Y193130D02*
D03*
Y170630D02*
D03*
Y148130D02*
D03*
Y125630D02*
D03*
Y103130D02*
D03*
Y80630D02*
D03*
Y58130D02*
D03*
Y35630D02*
D03*
X468504Y260630D02*
D03*
Y238130D02*
D03*
Y215630D02*
D03*
Y193130D02*
D03*
Y170630D02*
D03*
Y148130D02*
D03*
Y125630D02*
D03*
Y103130D02*
D03*
Y80630D02*
D03*
Y58130D02*
D03*
Y35630D02*
D03*
D139*
X172620Y91955D02*
D03*
Y82900D02*
D03*
Y73845D02*
D03*
D140*
X150180Y82900D02*
D03*
D141*
X433071Y218701D02*
D03*
Y222441D02*
D03*
Y226181D02*
D03*
X443386Y218701D02*
D03*
Y226181D02*
D03*
D142*
X205905Y47213D02*
D03*
Y49181D02*
D03*
Y51150D02*
D03*
Y53118D02*
D03*
Y55087D02*
D03*
Y57055D02*
D03*
X213386D02*
D03*
Y55087D02*
D03*
Y53118D02*
D03*
Y51150D02*
D03*
Y49181D02*
D03*
Y47213D02*
D03*
D143*
X209646Y52165D02*
D03*
M02*
