G04 Layer_Color=128*
%FSLAX25Y25*%
%MOIN*%
G70*
G01*
G75*
%ADD11R,0.06693X0.09842*%
%ADD12R,0.01968X0.02362*%
%ADD13R,0.02362X0.01968*%
%ADD15R,0.03937X0.07087*%
%ADD16R,0.03740X0.03740*%
%ADD25R,0.03543X0.01575*%
%ADD59R,0.21654X0.21654*%
%ADD60R,0.15748X0.15748*%
%ADD61R,0.02362X0.01575*%
%ADD62R,0.01575X0.02362*%
%ADD63R,0.10906X0.10039*%
%ADD64R,0.07520X0.02992*%
%ADD65O,0.09449X0.01772*%
%ADD66R,0.01575X0.03543*%
%ADD67O,0.01181X0.07087*%
%ADD68O,0.07087X0.01181*%
%ADD69R,0.07087X0.03937*%
%ADD70R,0.03937X0.01575*%
%ADD71R,0.02362X0.01181*%
%ADD72R,0.04724X0.09842*%
%ADD73R,0.03347X0.13976*%
%ADD74R,0.03347X0.10433*%
%ADD75R,0.03000X0.12500*%
%ADD76R,0.19000X0.03000*%
%ADD77R,0.15900X0.03000*%
%ADD78R,0.03000X0.16000*%
%ADD79R,0.08268X0.03543*%
%ADD80R,0.08268X0.12598*%
%ADD81R,0.04921X0.01968*%
G04:AMPARAMS|DCode=82|XSize=19.68mil|YSize=9.84mil|CornerRadius=2.46mil|HoleSize=0mil|Usage=FLASHONLY|Rotation=180.000|XOffset=0mil|YOffset=0mil|HoleType=Round|Shape=RoundedRectangle|*
%AMROUNDEDRECTD82*
21,1,0.01968,0.00492,0,0,180.0*
21,1,0.01476,0.00984,0,0,180.0*
1,1,0.00492,-0.00738,0.00246*
1,1,0.00492,0.00738,0.00246*
1,1,0.00492,0.00738,-0.00246*
1,1,0.00492,-0.00738,-0.00246*
%
%ADD82ROUNDEDRECTD82*%
%ADD83R,0.03937X0.10433*%
D11*
X269685Y238189D02*
D03*
Y253937D02*
D03*
X52756Y119291D02*
D03*
Y135039D02*
D03*
Y161024D02*
D03*
Y176772D02*
D03*
D12*
X403543Y222441D02*
D03*
Y218504D02*
D03*
Y154528D02*
D03*
Y150591D02*
D03*
Y88583D02*
D03*
Y84646D02*
D03*
Y21654D02*
D03*
Y17717D02*
D03*
X420276Y218504D02*
D03*
Y222441D02*
D03*
X430000Y271963D02*
D03*
Y275900D02*
D03*
X199803Y51181D02*
D03*
Y47244D02*
D03*
X222441Y51181D02*
D03*
Y55118D02*
D03*
X218504D02*
D03*
Y51181D02*
D03*
X230315Y137795D02*
D03*
Y141732D02*
D03*
X234252Y137795D02*
D03*
Y141732D02*
D03*
X222441Y145669D02*
D03*
Y141732D02*
D03*
X235236Y131890D02*
D03*
Y127953D02*
D03*
X161417Y43307D02*
D03*
Y39370D02*
D03*
X155512Y43307D02*
D03*
Y39370D02*
D03*
X149606Y43307D02*
D03*
Y39370D02*
D03*
X424213Y218504D02*
D03*
Y222441D02*
D03*
X426200Y275937D02*
D03*
Y272000D02*
D03*
X222441Y46260D02*
D03*
Y42323D02*
D03*
X226378Y47244D02*
D03*
Y51181D02*
D03*
X222441Y63976D02*
D03*
Y60039D02*
D03*
X226378Y141732D02*
D03*
Y137795D02*
D03*
D13*
X445200Y36400D02*
D03*
X441263D02*
D03*
X445300Y103300D02*
D03*
X441363D02*
D03*
X445500Y170500D02*
D03*
X441563D02*
D03*
X445837Y237200D02*
D03*
X441900D02*
D03*
X431563Y36400D02*
D03*
X435500D02*
D03*
X431563Y103300D02*
D03*
X435500D02*
D03*
X431563Y170500D02*
D03*
X435500D02*
D03*
X432563Y237200D02*
D03*
X436500D02*
D03*
X438000Y160600D02*
D03*
X441937D02*
D03*
X435039Y232283D02*
D03*
X438976D02*
D03*
X435039Y212598D02*
D03*
X438976D02*
D03*
X440945Y31496D02*
D03*
X437008D02*
D03*
X211614Y65945D02*
D03*
X207677D02*
D03*
X233268Y164370D02*
D03*
X237205D02*
D03*
X539764Y285827D02*
D03*
X535827D02*
D03*
X539370Y12205D02*
D03*
X535433D02*
D03*
X441929Y165354D02*
D03*
X437992D02*
D03*
X440945Y27559D02*
D03*
X437008D02*
D03*
X171260Y43307D02*
D03*
X167323D02*
D03*
X180118D02*
D03*
X176181D02*
D03*
X188976Y68898D02*
D03*
X185039D02*
D03*
X211614Y62008D02*
D03*
X207677D02*
D03*
D15*
X161205Y101300D02*
D03*
X149395D02*
D03*
D16*
X397638Y223425D02*
D03*
Y217717D02*
D03*
Y155413D02*
D03*
Y149705D02*
D03*
Y89468D02*
D03*
Y83760D02*
D03*
Y22539D02*
D03*
Y16831D02*
D03*
X239173Y136909D02*
D03*
Y142618D02*
D03*
X247047Y141831D02*
D03*
Y147539D02*
D03*
D25*
X569917Y121713D02*
D03*
Y119153D02*
D03*
Y116595D02*
D03*
X561256D02*
D03*
Y119153D02*
D03*
Y121713D02*
D03*
Y138839D02*
D03*
Y136279D02*
D03*
Y133721D02*
D03*
X569917D02*
D03*
Y136279D02*
D03*
Y138839D02*
D03*
D59*
X149409Y254921D02*
D03*
X250197D02*
D03*
D60*
X199803D02*
D03*
D61*
X451772Y165945D02*
D03*
Y163386D02*
D03*
X425197Y212598D02*
D03*
Y210039D02*
D03*
D62*
X438386Y22638D02*
D03*
X440945D02*
D03*
D63*
X93900Y167900D02*
D03*
X68546D02*
D03*
X140900Y168000D02*
D03*
X166254D02*
D03*
X175754Y59200D02*
D03*
X150400D02*
D03*
D64*
X96457Y89410D02*
D03*
Y94410D02*
D03*
Y99410D02*
D03*
X138740D02*
D03*
Y94410D02*
D03*
Y89410D02*
D03*
X138976Y210236D02*
D03*
Y205236D02*
D03*
Y200236D02*
D03*
X96693D02*
D03*
Y205236D02*
D03*
Y210236D02*
D03*
X138740Y78898D02*
D03*
Y73898D02*
D03*
Y68898D02*
D03*
X96457D02*
D03*
Y73898D02*
D03*
Y78898D02*
D03*
X96693Y222047D02*
D03*
Y227047D02*
D03*
Y232047D02*
D03*
X138976D02*
D03*
Y227047D02*
D03*
Y222047D02*
D03*
D65*
X52756Y64862D02*
D03*
Y67421D02*
D03*
Y69980D02*
D03*
Y72539D02*
D03*
Y75098D02*
D03*
Y77658D02*
D03*
Y80216D02*
D03*
Y82776D02*
D03*
Y85335D02*
D03*
Y87894D02*
D03*
Y90453D02*
D03*
Y93012D02*
D03*
Y95571D02*
D03*
Y98130D02*
D03*
X79527Y64862D02*
D03*
Y67421D02*
D03*
Y69980D02*
D03*
Y72539D02*
D03*
Y75098D02*
D03*
Y77658D02*
D03*
Y80216D02*
D03*
Y82776D02*
D03*
Y85335D02*
D03*
Y87894D02*
D03*
Y90453D02*
D03*
Y93012D02*
D03*
Y95571D02*
D03*
Y98130D02*
D03*
X53543Y196358D02*
D03*
Y198917D02*
D03*
Y201476D02*
D03*
Y204035D02*
D03*
Y206594D02*
D03*
Y209154D02*
D03*
Y211713D02*
D03*
Y214272D02*
D03*
Y216831D02*
D03*
Y219390D02*
D03*
Y221949D02*
D03*
Y224508D02*
D03*
Y227067D02*
D03*
Y229626D02*
D03*
X80315Y196358D02*
D03*
Y198917D02*
D03*
Y201476D02*
D03*
Y204035D02*
D03*
Y206594D02*
D03*
Y209154D02*
D03*
Y211713D02*
D03*
Y214272D02*
D03*
Y216831D02*
D03*
Y219390D02*
D03*
Y221949D02*
D03*
Y224508D02*
D03*
Y227067D02*
D03*
Y229626D02*
D03*
D66*
X512815Y61417D02*
D03*
X515374D02*
D03*
X517933D02*
D03*
Y52756D02*
D03*
X515374D02*
D03*
X512815D02*
D03*
Y92756D02*
D03*
X515374D02*
D03*
X517933D02*
D03*
Y101417D02*
D03*
X515374D02*
D03*
X512815D02*
D03*
X512933Y142756D02*
D03*
X515492D02*
D03*
X518051D02*
D03*
Y134095D02*
D03*
X515492D02*
D03*
X512933D02*
D03*
Y182756D02*
D03*
X515492D02*
D03*
X518051D02*
D03*
Y191417D02*
D03*
X515492D02*
D03*
X512933D02*
D03*
X512815Y81417D02*
D03*
X515374D02*
D03*
X517933D02*
D03*
Y72756D02*
D03*
X515374D02*
D03*
X512815D02*
D03*
Y112756D02*
D03*
X515374D02*
D03*
X517933D02*
D03*
Y121417D02*
D03*
X515374D02*
D03*
X512815D02*
D03*
X512933Y167756D02*
D03*
X515492D02*
D03*
X518051D02*
D03*
Y159095D02*
D03*
X515492D02*
D03*
X512933D02*
D03*
Y207756D02*
D03*
X515492D02*
D03*
X518051D02*
D03*
Y216417D02*
D03*
X515492D02*
D03*
X512933D02*
D03*
D67*
X411417Y141438D02*
D03*
X409449D02*
D03*
X407480D02*
D03*
X405512D02*
D03*
X403543D02*
D03*
X401575D02*
D03*
X399606D02*
D03*
X397638D02*
D03*
X395669D02*
D03*
X393701D02*
D03*
X391732D02*
D03*
X389764D02*
D03*
X387795D02*
D03*
X385827D02*
D03*
X383858D02*
D03*
X381890D02*
D03*
Y97737D02*
D03*
X383858D02*
D03*
X385827D02*
D03*
X387795D02*
D03*
X389764D02*
D03*
X391732D02*
D03*
X393701D02*
D03*
X395669D02*
D03*
X397638D02*
D03*
X399606D02*
D03*
X401575D02*
D03*
X403543D02*
D03*
X405512D02*
D03*
X407480D02*
D03*
X409449D02*
D03*
X411417D02*
D03*
Y208121D02*
D03*
X409449D02*
D03*
X407480D02*
D03*
X405512D02*
D03*
X403543D02*
D03*
X401575D02*
D03*
X399606D02*
D03*
X397638D02*
D03*
X395669D02*
D03*
X393701D02*
D03*
X391732D02*
D03*
X389764D02*
D03*
X387795D02*
D03*
X385827D02*
D03*
X383858D02*
D03*
X381890D02*
D03*
Y164420D02*
D03*
X383858D02*
D03*
X385827D02*
D03*
X387795D02*
D03*
X389764D02*
D03*
X391732D02*
D03*
X393701D02*
D03*
X395669D02*
D03*
X397638D02*
D03*
X399606D02*
D03*
X401575D02*
D03*
X403543D02*
D03*
X405512D02*
D03*
X407480D02*
D03*
X409449D02*
D03*
X411417D02*
D03*
Y274803D02*
D03*
X409449D02*
D03*
X407480D02*
D03*
X405512D02*
D03*
X403543D02*
D03*
X401575D02*
D03*
X399606D02*
D03*
X397638D02*
D03*
X395669D02*
D03*
X393701D02*
D03*
X391732D02*
D03*
X389764D02*
D03*
X387795D02*
D03*
X385827D02*
D03*
X383858D02*
D03*
X381890D02*
D03*
Y231102D02*
D03*
X383858D02*
D03*
X385827D02*
D03*
X387795D02*
D03*
X389764D02*
D03*
X391732D02*
D03*
X393701D02*
D03*
X395669D02*
D03*
X397638D02*
D03*
X399606D02*
D03*
X401575D02*
D03*
X403543D02*
D03*
X405512D02*
D03*
X407480D02*
D03*
X409449D02*
D03*
X411417D02*
D03*
Y74756D02*
D03*
X409449D02*
D03*
X407480D02*
D03*
X405512D02*
D03*
X403543D02*
D03*
X401575D02*
D03*
X399606D02*
D03*
X397638D02*
D03*
X395669D02*
D03*
X393701D02*
D03*
X391732D02*
D03*
X389764D02*
D03*
X387795D02*
D03*
X385827D02*
D03*
X383858D02*
D03*
X381890D02*
D03*
Y31055D02*
D03*
X383858D02*
D03*
X385827D02*
D03*
X387795D02*
D03*
X389764D02*
D03*
X391732D02*
D03*
X393701D02*
D03*
X395669D02*
D03*
X397638D02*
D03*
X399606D02*
D03*
X401575D02*
D03*
X403543D02*
D03*
X405512D02*
D03*
X407480D02*
D03*
X409449D02*
D03*
X411417D02*
D03*
D68*
X374803Y134352D02*
D03*
Y132383D02*
D03*
Y130415D02*
D03*
Y128446D02*
D03*
Y126478D02*
D03*
Y124509D02*
D03*
Y122541D02*
D03*
Y120572D02*
D03*
Y118604D02*
D03*
Y116635D02*
D03*
Y114667D02*
D03*
Y112698D02*
D03*
Y110730D02*
D03*
Y108761D02*
D03*
Y106793D02*
D03*
Y104824D02*
D03*
X418504D02*
D03*
Y106793D02*
D03*
Y108761D02*
D03*
Y110730D02*
D03*
Y112698D02*
D03*
Y114667D02*
D03*
Y116635D02*
D03*
Y118604D02*
D03*
Y120572D02*
D03*
Y122541D02*
D03*
Y124509D02*
D03*
Y126478D02*
D03*
Y128446D02*
D03*
Y130415D02*
D03*
Y132383D02*
D03*
Y134352D02*
D03*
X374803Y201034D02*
D03*
Y199066D02*
D03*
Y197097D02*
D03*
Y195129D02*
D03*
Y193160D02*
D03*
Y191192D02*
D03*
Y189223D02*
D03*
Y187255D02*
D03*
Y185286D02*
D03*
Y183318D02*
D03*
Y181349D02*
D03*
Y179381D02*
D03*
Y177412D02*
D03*
Y175444D02*
D03*
Y173475D02*
D03*
Y171507D02*
D03*
X418504D02*
D03*
Y173475D02*
D03*
Y175444D02*
D03*
Y177412D02*
D03*
Y179381D02*
D03*
Y181349D02*
D03*
Y183318D02*
D03*
Y185286D02*
D03*
Y187255D02*
D03*
Y189223D02*
D03*
Y191192D02*
D03*
Y193160D02*
D03*
Y195129D02*
D03*
Y197097D02*
D03*
Y199066D02*
D03*
Y201034D02*
D03*
X374803Y267717D02*
D03*
Y265748D02*
D03*
Y263780D02*
D03*
Y261811D02*
D03*
Y259842D02*
D03*
Y257874D02*
D03*
Y255906D02*
D03*
Y253937D02*
D03*
Y251969D02*
D03*
Y250000D02*
D03*
Y248031D02*
D03*
Y246063D02*
D03*
Y244094D02*
D03*
Y242126D02*
D03*
Y240158D02*
D03*
Y238189D02*
D03*
X418504D02*
D03*
Y240158D02*
D03*
Y242126D02*
D03*
Y244094D02*
D03*
Y246063D02*
D03*
Y248031D02*
D03*
Y250000D02*
D03*
Y251969D02*
D03*
Y253937D02*
D03*
Y255906D02*
D03*
Y257874D02*
D03*
Y259842D02*
D03*
Y261811D02*
D03*
Y263780D02*
D03*
Y265748D02*
D03*
Y267717D02*
D03*
X374803Y67669D02*
D03*
Y65701D02*
D03*
Y63732D02*
D03*
Y61764D02*
D03*
Y59795D02*
D03*
Y57827D02*
D03*
Y55858D02*
D03*
Y53890D02*
D03*
Y51921D02*
D03*
Y49953D02*
D03*
Y47984D02*
D03*
Y46016D02*
D03*
Y44047D02*
D03*
Y42079D02*
D03*
Y40110D02*
D03*
Y38142D02*
D03*
X418504D02*
D03*
Y40110D02*
D03*
Y42079D02*
D03*
Y44047D02*
D03*
Y46016D02*
D03*
Y47984D02*
D03*
Y49953D02*
D03*
Y51921D02*
D03*
Y53890D02*
D03*
Y55858D02*
D03*
Y57827D02*
D03*
Y59795D02*
D03*
Y61764D02*
D03*
Y63732D02*
D03*
Y65701D02*
D03*
Y67669D02*
D03*
D69*
X188976Y44391D02*
D03*
Y56202D02*
D03*
X184055Y89467D02*
D03*
Y77656D02*
D03*
X193898Y89467D02*
D03*
Y77656D02*
D03*
X198819Y56987D02*
D03*
Y68798D02*
D03*
D70*
X435630Y185630D02*
D03*
Y182480D02*
D03*
Y179331D02*
D03*
Y176181D02*
D03*
X441929Y185630D02*
D03*
Y182480D02*
D03*
Y179331D02*
D03*
Y176181D02*
D03*
X435630Y118701D02*
D03*
Y115551D02*
D03*
Y112402D02*
D03*
Y109252D02*
D03*
X441929Y118701D02*
D03*
Y115551D02*
D03*
Y112402D02*
D03*
Y109252D02*
D03*
X435630Y51772D02*
D03*
Y48622D02*
D03*
Y45472D02*
D03*
Y42323D02*
D03*
X441929Y51772D02*
D03*
Y48622D02*
D03*
Y45472D02*
D03*
Y42323D02*
D03*
X436614Y264961D02*
D03*
Y261811D02*
D03*
Y258661D02*
D03*
Y255512D02*
D03*
X442913Y264961D02*
D03*
Y261811D02*
D03*
Y258661D02*
D03*
Y255512D02*
D03*
X435630Y199803D02*
D03*
Y196653D02*
D03*
Y193504D02*
D03*
Y190354D02*
D03*
X441929Y199803D02*
D03*
Y196653D02*
D03*
Y193504D02*
D03*
Y190354D02*
D03*
X435600Y132400D02*
D03*
Y129250D02*
D03*
Y126101D02*
D03*
Y122951D02*
D03*
X441899Y132400D02*
D03*
Y129250D02*
D03*
Y126101D02*
D03*
Y122951D02*
D03*
X435630Y65551D02*
D03*
Y62402D02*
D03*
Y59252D02*
D03*
Y56102D02*
D03*
X441929Y65551D02*
D03*
Y62402D02*
D03*
Y59252D02*
D03*
Y56102D02*
D03*
X435630Y97047D02*
D03*
Y93898D02*
D03*
Y90748D02*
D03*
Y87598D02*
D03*
X441929Y97047D02*
D03*
Y93898D02*
D03*
Y90748D02*
D03*
Y87598D02*
D03*
X435630Y83071D02*
D03*
Y79921D02*
D03*
Y76772D02*
D03*
Y73622D02*
D03*
X441929Y83071D02*
D03*
Y79921D02*
D03*
Y76772D02*
D03*
Y73622D02*
D03*
X436614Y251378D02*
D03*
Y248228D02*
D03*
Y245079D02*
D03*
Y241929D02*
D03*
X442913Y251378D02*
D03*
Y248228D02*
D03*
Y245079D02*
D03*
Y241929D02*
D03*
D71*
X451378Y194882D02*
D03*
Y192913D02*
D03*
Y190945D02*
D03*
Y188976D02*
D03*
Y187008D02*
D03*
Y185039D02*
D03*
Y183071D02*
D03*
Y181102D02*
D03*
X457677Y194882D02*
D03*
Y192913D02*
D03*
Y190945D02*
D03*
Y188976D02*
D03*
Y187008D02*
D03*
Y185039D02*
D03*
Y183071D02*
D03*
Y181102D02*
D03*
Y114173D02*
D03*
Y116142D02*
D03*
Y118110D02*
D03*
Y120079D02*
D03*
Y122047D02*
D03*
Y124016D02*
D03*
Y125984D02*
D03*
Y127953D02*
D03*
X451378Y114173D02*
D03*
Y116142D02*
D03*
Y118110D02*
D03*
Y120079D02*
D03*
Y122047D02*
D03*
Y124016D02*
D03*
Y125984D02*
D03*
Y127953D02*
D03*
Y62008D02*
D03*
Y60039D02*
D03*
Y58071D02*
D03*
Y56102D02*
D03*
Y54134D02*
D03*
Y52165D02*
D03*
Y50197D02*
D03*
Y48228D02*
D03*
X457677Y62008D02*
D03*
Y60039D02*
D03*
Y58071D02*
D03*
Y56102D02*
D03*
Y54134D02*
D03*
Y52165D02*
D03*
Y50197D02*
D03*
Y48228D02*
D03*
Y78740D02*
D03*
Y80709D02*
D03*
Y82677D02*
D03*
Y84646D02*
D03*
Y86614D02*
D03*
Y88583D02*
D03*
Y90551D02*
D03*
Y92520D02*
D03*
X451378Y78740D02*
D03*
Y80709D02*
D03*
Y82677D02*
D03*
Y84646D02*
D03*
Y86614D02*
D03*
Y88583D02*
D03*
Y90551D02*
D03*
Y92520D02*
D03*
X458071Y247047D02*
D03*
Y249016D02*
D03*
Y250984D02*
D03*
Y252953D02*
D03*
Y254921D02*
D03*
Y256890D02*
D03*
Y258858D02*
D03*
Y260827D02*
D03*
X451772Y247047D02*
D03*
Y249016D02*
D03*
Y250984D02*
D03*
Y252953D02*
D03*
Y254921D02*
D03*
Y256890D02*
D03*
Y258858D02*
D03*
Y260827D02*
D03*
D72*
X377559Y152559D02*
D03*
X389764D02*
D03*
X377559Y86614D02*
D03*
X389764D02*
D03*
X377559Y19685D02*
D03*
X389764D02*
D03*
X377559Y219488D02*
D03*
X389764D02*
D03*
D73*
X143701Y12159D02*
D03*
X149606D02*
D03*
X155512D02*
D03*
X161417D02*
D03*
X167323D02*
D03*
X173228D02*
D03*
D74*
X143701Y27559D02*
D03*
X149606D02*
D03*
X155512D02*
D03*
X161417D02*
D03*
X167323D02*
D03*
X173228D02*
D03*
D75*
X468504Y280830D02*
D03*
X360304D02*
D03*
Y15130D02*
D03*
X468504D02*
D03*
D76*
X460504Y285630D02*
D03*
X368304D02*
D03*
Y8630D02*
D03*
X460504D02*
D03*
D77*
X390404Y285630D02*
D03*
X413304D02*
D03*
X436204D02*
D03*
X390504Y8630D02*
D03*
X413304D02*
D03*
X436204D02*
D03*
D78*
X360304Y260630D02*
D03*
Y238130D02*
D03*
Y215630D02*
D03*
Y193130D02*
D03*
Y170630D02*
D03*
Y148130D02*
D03*
Y125630D02*
D03*
Y103130D02*
D03*
Y80630D02*
D03*
Y58130D02*
D03*
Y35630D02*
D03*
X468504Y260630D02*
D03*
Y238130D02*
D03*
Y215630D02*
D03*
Y193130D02*
D03*
Y170630D02*
D03*
Y148130D02*
D03*
Y125630D02*
D03*
Y103130D02*
D03*
Y80630D02*
D03*
Y58130D02*
D03*
Y35630D02*
D03*
D79*
X172620Y91955D02*
D03*
Y82900D02*
D03*
Y73845D02*
D03*
D80*
X150180Y82900D02*
D03*
D81*
X433071Y218701D02*
D03*
Y222441D02*
D03*
Y226181D02*
D03*
X443386Y218701D02*
D03*
Y226181D02*
D03*
D82*
X205905Y47213D02*
D03*
Y49181D02*
D03*
Y51150D02*
D03*
Y53118D02*
D03*
Y55087D02*
D03*
Y57055D02*
D03*
X213386D02*
D03*
Y55087D02*
D03*
Y53118D02*
D03*
Y51150D02*
D03*
Y49181D02*
D03*
Y47213D02*
D03*
D83*
X209646Y52165D02*
D03*
M02*
