G04 Layer_Physical_Order=2*
G04 Layer_Color=32768*
%FSLAX25Y25*%
%MOIN*%
G70*
G01*
G75*
%ADD44C,0.25000*%
%ADD45C,0.03000*%
%ADD46C,0.04000*%
%ADD47C,0.16000*%
%ADD48C,0.13055*%
%ADD49C,0.07622*%
%ADD50C,0.08331*%
%ADD51C,0.08000*%
%ADD52C,0.07000*%
%ADD53C,0.08500*%
%ADD54C,0.07500*%
%ADD55C,0.16500*%
%ADD56C,0.07900*%
%ADD57C,0.13350*%
%ADD58C,0.04600*%
D44*
X117600Y100D02*
Y293500D01*
D45*
X352200Y100D02*
Y102200D01*
X352500Y136600D02*
Y295100D01*
D46*
X11Y11900D02*
X11811Y100D01*
X11Y283600D02*
X11811Y295400D01*
X11Y11900D02*
Y283600D01*
X11811Y295400D02*
X597907D01*
X610236Y283071D01*
Y11811D02*
Y283071D01*
X598525Y100D02*
X610236Y11811D01*
X11811Y100D02*
X598525D01*
D47*
X15748Y279528D02*
D03*
Y15748D02*
D03*
X275590Y279528D02*
D03*
Y15748D02*
D03*
X594095D02*
D03*
Y279528D02*
D03*
X485728D02*
D03*
Y15748D02*
D03*
D48*
X12205Y194882D02*
D03*
Y226378D02*
D03*
X11811Y70079D02*
D03*
Y101575D02*
D03*
D49*
X29882Y205709D02*
D03*
X37756D02*
D03*
Y215551D02*
D03*
X29488Y80905D02*
D03*
X37362D02*
D03*
Y90748D02*
D03*
D50*
X179400Y130400D02*
D03*
X169400D02*
D03*
X75600Y131000D02*
D03*
X65600D02*
D03*
X317300Y21800D02*
D03*
D51*
X314961Y77795D02*
D03*
X324961D02*
D03*
X314961Y87795D02*
D03*
X324961D02*
D03*
X314961Y97795D02*
D03*
X324961D02*
D03*
X314961Y107795D02*
D03*
X324961D02*
D03*
Y117795D02*
D03*
X314961Y127795D02*
D03*
X324961D02*
D03*
X314961Y137795D02*
D03*
X324961D02*
D03*
X314961Y147795D02*
D03*
X324961D02*
D03*
X314961Y157795D02*
D03*
X324961D02*
D03*
X314961Y167795D02*
D03*
X324961D02*
D03*
X314961Y177795D02*
D03*
X324961D02*
D03*
X314961Y187795D02*
D03*
X324961D02*
D03*
X314961Y197795D02*
D03*
X324961D02*
D03*
X314961Y207795D02*
D03*
X324961D02*
D03*
X314961Y217795D02*
D03*
X324961D02*
D03*
D52*
X92600Y131200D02*
D03*
X152600D02*
D03*
D53*
X169100Y102300D02*
D03*
X207677Y78740D02*
D03*
X236221Y88583D02*
D03*
X307087Y236221D02*
D03*
X324700Y239400D02*
D03*
X291339Y164370D02*
D03*
X283465Y237205D02*
D03*
X239173Y35433D02*
D03*
D54*
X543701Y65276D02*
D03*
X551201Y70276D02*
D03*
X543701Y75276D02*
D03*
X551201Y80276D02*
D03*
X543701Y85276D02*
D03*
X551201Y90276D02*
D03*
X543701Y95276D02*
D03*
X551201Y110276D02*
D03*
X543701Y115276D02*
D03*
X551201Y120276D02*
D03*
X543701Y125276D02*
D03*
X551201Y130276D02*
D03*
X543701Y135276D02*
D03*
X551201Y140276D02*
D03*
X543701Y145276D02*
D03*
Y155276D02*
D03*
Y165276D02*
D03*
Y175276D02*
D03*
Y185276D02*
D03*
X551201Y190276D02*
D03*
X543701Y195276D02*
D03*
X551201Y200276D02*
D03*
Y210276D02*
D03*
Y220276D02*
D03*
X543701Y225276D02*
D03*
X528701Y65276D02*
D03*
X536201Y70276D02*
D03*
X528701Y75276D02*
D03*
X536201Y80276D02*
D03*
X528701Y85276D02*
D03*
X536201Y90276D02*
D03*
X528701Y95276D02*
D03*
X536201Y100276D02*
D03*
X528701Y105276D02*
D03*
X536201Y110276D02*
D03*
X528701Y115276D02*
D03*
X536201Y120276D02*
D03*
X528701Y125276D02*
D03*
X536201Y130276D02*
D03*
X528701Y135276D02*
D03*
X536201Y140276D02*
D03*
X528701Y145276D02*
D03*
X536201Y150276D02*
D03*
X528701Y155276D02*
D03*
X536201Y160276D02*
D03*
X528701Y165276D02*
D03*
X536201Y170276D02*
D03*
X528701Y175276D02*
D03*
X536201Y180276D02*
D03*
X528701Y185276D02*
D03*
Y195276D02*
D03*
X536201Y200276D02*
D03*
Y210276D02*
D03*
Y220276D02*
D03*
X528701Y225276D02*
D03*
D55*
X539901Y261976D02*
D03*
Y33776D02*
D03*
D56*
X313100Y264500D02*
D03*
X309100Y284500D02*
D03*
X317100D02*
D03*
D57*
X303100Y264500D02*
D03*
Y277000D02*
D03*
X323100Y264500D02*
D03*
Y277000D02*
D03*
D58*
X203100Y115700D02*
D03*
X174300D02*
D03*
X158100Y134500D02*
D03*
X443700Y173100D02*
D03*
X457800Y174200D02*
D03*
X452400Y216000D02*
D03*
X383200Y109100D02*
D03*
X411300Y79800D02*
D03*
X412000Y135800D02*
D03*
Y158800D02*
D03*
X412100Y224400D02*
D03*
X58800Y49400D02*
D03*
X64600Y55500D02*
D03*
X64700Y88100D02*
D03*
X96500Y103200D02*
D03*
X79800Y103300D02*
D03*
X88400Y78800D02*
D03*
X60800Y69000D02*
D03*
X61600Y78600D02*
D03*
X72500Y90500D02*
D03*
X44000Y179100D02*
D03*
X45200Y177900D02*
D03*
X46500Y176700D02*
D03*
X66200Y238600D02*
D03*
X44500Y249100D02*
D03*
X44400Y217100D02*
D03*
X60800Y200700D02*
D03*
Y209100D02*
D03*
X88800Y210600D02*
D03*
X73800Y222100D02*
D03*
X95200Y238100D02*
D03*
X81600Y238200D02*
D03*
X280000Y225800D02*
D03*
X242400Y225600D02*
D03*
X341100Y290800D02*
D03*
Y255700D02*
D03*
X279400D02*
D03*
X277800Y133700D02*
D03*
X280600Y97795D02*
D03*
X252700Y89800D02*
D03*
X267600Y97800D02*
D03*
X335600Y52900D02*
D03*
X335500Y102800D02*
D03*
X357300Y39600D02*
D03*
X296000Y47500D02*
D03*
X294900Y119600D02*
D03*
X233300Y160800D02*
D03*
X179100Y209100D02*
D03*
X202900Y130000D02*
D03*
X234500Y23700D02*
D03*
X211500Y44100D02*
D03*
X202500Y51100D02*
D03*
X198800Y39400D02*
D03*
X194500Y65600D02*
D03*
X192800Y39400D02*
D03*
X219800Y63500D02*
D03*
X185800Y63400D02*
D03*
X185900Y40500D02*
D03*
X195500Y22200D02*
D03*
X195400Y31500D02*
D03*
X216400Y46700D02*
D03*
X202900Y84800D02*
D03*
X189000Y84900D02*
D03*
Y71500D02*
D03*
X185300Y71800D02*
D03*
X180200Y73800D02*
D03*
X180100Y46000D02*
D03*
X262000Y131000D02*
D03*
X256500Y54700D02*
D03*
X295400Y270000D02*
D03*
X333700Y270700D02*
D03*
X333000Y291000D02*
D03*
X291400Y288300D02*
D03*
X167400Y46100D02*
D03*
X161400Y47600D02*
D03*
X195900Y180800D02*
D03*
X155600Y49200D02*
D03*
X164900Y152000D02*
D03*
X235400Y171800D02*
D03*
X261800Y196900D02*
D03*
X207300Y196800D02*
D03*
X207100Y164200D02*
D03*
X287700Y107700D02*
D03*
X287600Y77900D02*
D03*
X291200Y76900D02*
D03*
X284500Y82200D02*
D03*
X203500Y199600D02*
D03*
X261000Y276100D02*
D03*
X237000Y276000D02*
D03*
X239700Y278400D02*
D03*
X201100Y204800D02*
D03*
X185200Y137600D02*
D03*
X158100Y95100D02*
D03*
X202500Y133000D02*
D03*
X148400Y221900D02*
D03*
X214500Y33500D02*
D03*
X215200Y120800D02*
D03*
X218400Y77300D02*
D03*
X218600Y121200D02*
D03*
X221200Y95400D02*
D03*
X221100Y118200D02*
D03*
X230400Y131100D02*
D03*
X232900Y131600D02*
D03*
X252600Y231600D02*
D03*
X252657Y123257D02*
D03*
X256300Y242300D02*
D03*
X257500Y126766D02*
D03*
X247300Y67700D02*
D03*
X247200Y114900D02*
D03*
X250400Y143100D02*
D03*
X303300Y41300D02*
D03*
X302900Y119700D02*
D03*
X203600Y156400D02*
D03*
X215200Y145300D02*
D03*
X205700Y147600D02*
D03*
X348000Y181400D02*
D03*
Y217700D02*
D03*
X347900Y137500D02*
D03*
X343400Y132100D02*
D03*
X339300Y152000D02*
D03*
X268500Y183200D02*
D03*
X330800Y187900D02*
D03*
X237800Y126900D02*
D03*
X240200Y187900D02*
D03*
X342900Y191600D02*
D03*
X301200Y132900D02*
D03*
X214900Y182400D02*
D03*
X226800Y182100D02*
D03*
X226600Y213200D02*
D03*
X340900Y211800D02*
D03*
X215700Y80500D02*
D03*
X219700Y179000D02*
D03*
X219500Y193500D02*
D03*
X335900Y197700D02*
D03*
X275200Y152100D02*
D03*
X277600Y221900D02*
D03*
X267100Y168800D02*
D03*
X265700Y171500D02*
D03*
X274700Y143600D02*
D03*
X275000Y114200D02*
D03*
X259200Y93100D02*
D03*
X349000Y97600D02*
D03*
X345700Y88300D02*
D03*
X346300Y106800D02*
D03*
X340100Y72900D02*
D03*
X407400Y68600D02*
D03*
X379800Y46400D02*
D03*
X379600Y112800D02*
D03*
Y179400D02*
D03*
Y246100D02*
D03*
X367900Y265700D02*
D03*
X439100Y210100D02*
D03*
Y205200D02*
D03*
X369900Y57800D02*
D03*
X386200Y120300D02*
D03*
X474100Y198100D02*
D03*
X472500Y200200D02*
D03*
X427200Y212600D02*
D03*
X426800Y163500D02*
D03*
X473900Y139900D02*
D03*
X478700Y133700D02*
D03*
X479100Y236900D02*
D03*
X480500Y131900D02*
D03*
Y234800D02*
D03*
X355800Y250000D02*
D03*
X365700D02*
D03*
X296700Y127700D02*
D03*
X365100Y40100D02*
D03*
X368500Y252000D02*
D03*
X369100Y257800D02*
D03*
X405600Y81600D02*
D03*
X407600Y102800D02*
D03*
X405700Y147700D02*
D03*
X407500Y135100D02*
D03*
X407400Y37600D02*
D03*
X405500Y35700D02*
D03*
X393700Y36400D02*
D03*
X385800Y36700D02*
D03*
X391900Y69300D02*
D03*
X387800Y79600D02*
D03*
X393700Y103700D02*
D03*
X385800Y104600D02*
D03*
X382900Y134600D02*
D03*
X368500Y199500D02*
D03*
X401200Y171500D02*
D03*
X407400Y170200D02*
D03*
X393600Y169900D02*
D03*
X387800Y146000D02*
D03*
X385900Y170600D02*
D03*
X400800Y267400D02*
D03*
X406000Y267900D02*
D03*
X405500Y213300D02*
D03*
X382900Y201600D02*
D03*
X391100Y201800D02*
D03*
X387800Y213000D02*
D03*
X385900Y236900D02*
D03*
X393700D02*
D03*
X403600Y237200D02*
D03*
X407500Y236800D02*
D03*
X389800Y268800D02*
D03*
X387900Y280300D02*
D03*
X382000Y268700D02*
D03*
X393800Y268400D02*
D03*
X397700Y269400D02*
D03*
X423500Y276000D02*
D03*
X424300Y226700D02*
D03*
X443600Y222100D02*
D03*
X443500Y232300D02*
D03*
X453700Y42600D02*
D03*
X562500Y47000D02*
D03*
Y155700D02*
D03*
X454800Y165900D02*
D03*
X518200Y285800D02*
D03*
X574300Y33500D02*
D03*
X572400Y261900D02*
D03*
X518100Y225000D02*
D03*
X451200Y226100D02*
D03*
X419000Y69600D02*
D03*
Y97000D02*
D03*
X424500Y90900D02*
D03*
X425800Y87500D02*
D03*
X428400Y80000D02*
D03*
X431100Y73500D02*
D03*
X463100Y260800D02*
D03*
X504100Y258900D02*
D03*
X463100Y256900D02*
D03*
X502500D02*
D03*
X463000Y253000D02*
D03*
X500000D02*
D03*
X463000Y249000D02*
D03*
X494300Y112400D02*
D03*
X492800Y115100D02*
D03*
X488600Y130400D02*
D03*
X462271Y183071D02*
D03*
X462900Y128000D02*
D03*
X488500Y70000D02*
D03*
X497100Y144500D02*
D03*
X462700Y88600D02*
D03*
X501600Y127100D02*
D03*
X503000Y122000D02*
D03*
X508200Y62100D02*
D03*
X509400Y60100D02*
D03*
X543400Y50200D02*
D03*
X528800Y48200D02*
D03*
X149600Y47100D02*
D03*
X144100Y89600D02*
D03*
Y94200D02*
D03*
X138900Y65900D02*
D03*
X234500Y47000D02*
D03*
X252500Y64400D02*
D03*
X250900Y52700D02*
D03*
X415900Y31055D02*
D03*
Y98000D02*
D03*
Y164300D02*
D03*
X415800Y231000D02*
D03*
X401100Y83400D02*
D03*
X401000Y149705D02*
D03*
X401100Y219200D02*
D03*
X308100Y113700D02*
D03*
Y87600D02*
D03*
X390600Y40600D02*
D03*
X391000Y108900D02*
D03*
X391200Y175000D02*
D03*
X389800Y241500D02*
D03*
X393700Y246400D02*
D03*
X385900Y246300D02*
D03*
X381500Y219400D02*
D03*
X390700Y280200D02*
D03*
X393700Y259700D02*
D03*
X399600Y236200D02*
D03*
X394700Y192500D02*
D03*
X385800Y179400D02*
D03*
X393800Y179600D02*
D03*
X380800Y152500D02*
D03*
X388900Y134900D02*
D03*
X397700Y137000D02*
D03*
X385900Y113200D02*
D03*
X393700Y113300D02*
D03*
X399100Y103300D02*
D03*
X395100Y58300D02*
D03*
X385700Y46400D02*
D03*
X394300Y46700D02*
D03*
X399400Y36200D02*
D03*
X383300Y36600D02*
D03*
X381100Y19700D02*
D03*
X401100Y16831D02*
D03*
X333700Y251900D02*
D03*
X319700Y291100D02*
D03*
X259200Y219800D02*
D03*
X155600Y219700D02*
D03*
X254900Y126600D02*
D03*
X145200Y200300D02*
D03*
X254500Y203100D02*
D03*
X159700Y203000D02*
D03*
X290800Y127000D02*
D03*
X476500Y136800D02*
D03*
Y219600D02*
D03*
X409000Y116000D02*
D03*
X410100Y153400D02*
D03*
X473500Y221300D02*
D03*
X210400Y121600D02*
D03*
X291200Y111200D02*
D03*
X298800Y137500D02*
D03*
X216700Y124900D02*
D03*
Y174100D02*
D03*
X302300Y179500D02*
D03*
X302200Y164400D02*
D03*
X265700Y30300D02*
D03*
X299600Y64300D02*
D03*
X299800Y25500D02*
D03*
X368600Y247800D02*
D03*
X331600Y114500D02*
D03*
X333700Y177700D02*
D03*
X265135Y112773D02*
D03*
X202300Y46800D02*
D03*
X219488Y71900D02*
D03*
X215700Y66200D02*
D03*
X205300Y41300D02*
D03*
X267600Y175700D02*
D03*
X277143Y163758D02*
D03*
X277100Y173900D02*
D03*
X424500Y94600D02*
D03*
X413500Y29500D02*
D03*
X363800Y43900D02*
D03*
X363204Y41315D02*
D03*
X356100Y49800D02*
D03*
X340100Y105400D02*
D03*
X337900Y112400D02*
D03*
X341700Y113400D02*
D03*
Y134700D02*
D03*
X337500Y170100D02*
D03*
X334100Y171800D02*
D03*
X335100Y116700D02*
D03*
X357300Y104600D02*
D03*
X339400Y118000D02*
D03*
X335700Y118900D02*
D03*
X340500Y124100D02*
D03*
X356800Y118100D02*
D03*
X363300Y108600D02*
D03*
X365300Y110500D02*
D03*
X357000Y131689D02*
D03*
X355300Y133500D02*
D03*
X391100Y213100D02*
D03*
X440300Y242200D02*
D03*
X440500Y244500D02*
D03*
X440100Y247500D02*
D03*
X440000Y250700D02*
D03*
X440300Y255100D02*
D03*
X440200Y258500D02*
D03*
X440400Y261800D02*
D03*
X440300Y265100D02*
D03*
X439200Y199200D02*
D03*
X439100Y196100D02*
D03*
X439400Y193000D02*
D03*
X439200Y189700D02*
D03*
Y186300D02*
D03*
X439300Y183200D02*
D03*
X439100Y179800D02*
D03*
Y176800D02*
D03*
Y132900D02*
D03*
Y129600D02*
D03*
Y127000D02*
D03*
X439200Y123700D02*
D03*
X439000Y119400D02*
D03*
Y116200D02*
D03*
Y113100D02*
D03*
Y109800D02*
D03*
X439200Y97600D02*
D03*
X439100Y94700D02*
D03*
X439200Y91500D02*
D03*
Y88300D02*
D03*
X439000Y83500D02*
D03*
X439200Y80800D02*
D03*
X439300Y77400D02*
D03*
Y74300D02*
D03*
Y66100D02*
D03*
X439200Y63400D02*
D03*
X439000Y59700D02*
D03*
X439100Y56600D02*
D03*
X439300Y52300D02*
D03*
Y49200D02*
D03*
X439200Y46100D02*
D03*
X439400Y42900D02*
D03*
X363600Y168700D02*
D03*
X367800Y173900D02*
D03*
X363400Y175400D02*
D03*
X478900Y99800D02*
D03*
X428800Y45200D02*
D03*
X429800Y41500D02*
D03*
X427100Y48400D02*
D03*
X432100Y41600D02*
D03*
X432200Y64900D02*
D03*
X426300Y51900D02*
D03*
X427100Y82900D02*
D03*
X422400Y63800D02*
D03*
X425000Y55900D02*
D03*
X423900Y60100D02*
D03*
X432100Y61400D02*
D03*
Y58100D02*
D03*
Y54800D02*
D03*
Y51400D02*
D03*
X432200Y48400D02*
D03*
Y45800D02*
D03*
X431700Y192400D02*
D03*
X432200Y196000D02*
D03*
X432000Y199400D02*
D03*
X432900Y264400D02*
D03*
X432100Y261100D02*
D03*
X432200Y257800D02*
D03*
Y255100D02*
D03*
X432700Y250900D02*
D03*
X432300Y247900D02*
D03*
X432600Y244800D02*
D03*
Y241300D02*
D03*
X430900Y182000D02*
D03*
X431800Y185300D02*
D03*
X432100Y189200D02*
D03*
X431600Y178700D02*
D03*
X431800Y175400D02*
D03*
X431500Y132400D02*
D03*
X431100Y129500D02*
D03*
X430700Y124900D02*
D03*
X431200Y121800D02*
D03*
X430800Y118000D02*
D03*
X431000Y114800D02*
D03*
X431200Y111800D02*
D03*
Y108300D02*
D03*
X223900Y48800D02*
D03*
X221600Y39600D02*
D03*
X216100Y55400D02*
D03*
X414100Y277209D02*
D03*
X414000Y204400D02*
D03*
X520800Y82300D02*
D03*
X523100Y72000D02*
D03*
X519700Y66700D02*
D03*
X480600Y95300D02*
D03*
X478000Y105800D02*
D03*
X491200Y119800D02*
D03*
X461439Y84750D02*
D03*
X510300Y91500D02*
D03*
X511600Y88000D02*
D03*
X506000Y112400D02*
D03*
X507500Y107800D02*
D03*
X485900Y74500D02*
D03*
X485700Y79300D02*
D03*
X482500Y89400D02*
D03*
X478000Y114200D02*
D03*
X481400Y118100D02*
D03*
X486400Y100900D02*
D03*
X495600Y247000D02*
D03*
X496900Y249000D02*
D03*
X498300Y251000D02*
D03*
X498900Y138300D02*
D03*
X500300Y134400D02*
D03*
X486800Y126200D02*
D03*
X485200Y104300D02*
D03*
X488600Y97500D02*
D03*
X488500Y128000D02*
D03*
X486400Y124000D02*
D03*
X491000Y124700D02*
D03*
X462900Y93000D02*
D03*
X463200Y90800D02*
D03*
X464800Y86000D02*
D03*
X462100Y76400D02*
D03*
X462500Y79300D02*
D03*
X462600Y82300D02*
D03*
X506600Y117000D02*
D03*
X364500Y177900D02*
D03*
X366900Y180600D02*
D03*
X368200Y185200D02*
D03*
X367900Y183000D02*
D03*
X367100Y114200D02*
D03*
X370000Y125100D02*
D03*
X354900Y111800D02*
D03*
X365700Y116000D02*
D03*
X367900Y118100D02*
D03*
X368700Y191000D02*
D03*
X337300Y77200D02*
D03*
X330400Y136300D02*
D03*
X264300Y127200D02*
D03*
X257500Y175600D02*
D03*
X475700Y152700D02*
D03*
X290400Y141900D02*
D03*
X258000Y120400D02*
D03*
X259900Y133100D02*
D03*
X314600Y289600D02*
D03*
X296000Y258000D02*
D03*
X384300Y85300D02*
D03*
X396700Y133600D02*
D03*
X393900Y137400D02*
D03*
X391300Y136300D02*
D03*
X391100Y117200D02*
D03*
X523400Y52400D02*
D03*
X521400Y54100D02*
D03*
X519700Y56700D02*
D03*
X510811Y58400D02*
D03*
X461900Y46700D02*
D03*
X460900Y49600D02*
D03*
X463700Y51400D02*
D03*
X461700Y53600D02*
D03*
X463200Y55700D02*
D03*
X461000Y57700D02*
D03*
X462700Y59400D02*
D03*
X461400Y61700D02*
D03*
X509700Y97500D02*
D03*
X509500Y101800D02*
D03*
X494900Y93100D02*
D03*
X497700Y90500D02*
D03*
X499200Y86600D02*
D03*
X500600Y84200D02*
D03*
X502800Y84100D02*
D03*
X504300Y81100D02*
D03*
X504200Y77700D02*
D03*
X506800Y76500D02*
D03*
X461500Y113000D02*
D03*
X462800Y115700D02*
D03*
X479800Y116200D02*
D03*
X460900Y117500D02*
D03*
X462900Y120100D02*
D03*
X482900D02*
D03*
X460500Y121800D02*
D03*
X484500Y122000D02*
D03*
X462800Y124000D02*
D03*
X461100Y125800D02*
D03*
X484100Y145300D02*
D03*
X460500Y180900D02*
D03*
X460900Y185100D02*
D03*
X485200Y140300D02*
D03*
X486400Y136000D02*
D03*
X462400Y194800D02*
D03*
X461100Y192900D02*
D03*
X462300Y190900D02*
D03*
X461139Y188950D02*
D03*
X462300Y187000D02*
D03*
X483400Y179500D02*
D03*
X485000Y182300D02*
D03*
X486500Y184500D02*
D03*
X488000Y186400D02*
D03*
X489200Y188900D02*
D03*
X490700Y191100D02*
D03*
X492100Y193400D02*
D03*
X493900Y195000D02*
D03*
X461200Y246900D02*
D03*
X461000Y250900D02*
D03*
Y254900D02*
D03*
X461200Y259100D02*
D03*
X498600Y169400D02*
D03*
X499200Y165600D02*
D03*
X501200Y255000D02*
D03*
X496900Y174300D02*
D03*
X496700Y177900D02*
D03*
X495800Y183600D02*
D03*
X471700Y143600D02*
D03*
X380400Y132000D02*
D03*
X356600Y186600D02*
D03*
X501800Y158800D02*
D03*
X503500Y154200D02*
D03*
X505800Y151400D02*
D03*
X505400Y260900D02*
D03*
X394900Y202300D02*
D03*
X388700Y201700D02*
D03*
X399300Y202100D02*
D03*
X402400Y202300D02*
D03*
X404700Y103100D02*
D03*
X394300Y68596D02*
D03*
X397900Y70400D02*
D03*
X389400Y67600D02*
D03*
X383300Y68300D02*
D03*
X261500Y107100D02*
D03*
X384300Y281400D02*
D03*
X368400Y239000D02*
D03*
X367300Y243800D02*
D03*
X364800Y242100D02*
D03*
X363800Y238900D02*
D03*
X188400Y66100D02*
D03*
X219400Y145800D02*
D03*
X242600Y272800D02*
D03*
X251000Y272000D02*
D03*
X192500Y48100D02*
D03*
X197100Y48800D02*
D03*
X368100Y52100D02*
D03*
X368200Y49900D02*
D03*
X366900Y46900D02*
D03*
X348700Y108400D02*
D03*
X346200Y161800D02*
D03*
X339200Y163700D02*
D03*
X344900Y169400D02*
D03*
X229800Y133600D02*
D03*
X369700Y65100D02*
D03*
X297200Y110300D02*
D03*
X299400Y114800D02*
D03*
X300400Y107700D02*
D03*
X203900Y171500D02*
D03*
X199300Y170900D02*
D03*
X249300Y200800D02*
D03*
X235400Y168500D02*
D03*
X230500Y165500D02*
D03*
X204300Y164100D02*
D03*
X204400Y159200D02*
D03*
X179200Y159300D02*
D03*
X68200Y200700D02*
D03*
X410900Y91100D02*
D03*
X238900Y159500D02*
D03*
X239400Y271000D02*
D03*
X260600D02*
D03*
X267900Y125900D02*
D03*
X265600Y151100D02*
D03*
X207000Y63700D02*
D03*
X429400Y76800D02*
D03*
X521900Y76700D02*
D03*
X367400Y106600D02*
D03*
M02*
