M48
;Layer_Color=9474304
;FILE_FORMAT=2:5
INCH,LZ
;TYPE=PLATED
T1F00S00C0.01500
T2F00S00C0.03500
T3F00S00C0.05000
T4F00S00C0.10630
T5F00S00C0.12000
%
T01
X02671Y02947
X02928Y02824
X03124Y02891
X03344Y02945
X03489Y02952
X03725Y02905
X03919Y0295
X03605Y02752
X03388Y02327
X02748Y02331
X03996Y0237
X04222Y02257
X04185Y0268
X04437Y02595
X04741Y02641
X04852Y02568
X04954Y02603
X04953Y02711
X04992Y02677
X05068Y02699
X05062Y02912
X04996Y02878
X04951Y02931
X04953Y02821
X04851Y0278
X0485Y03011
X04759Y02934
X04738Y02417
X04853Y02339
X04953Y02378
X04951Y02451
X04992Y02479
X05072Y02466
X05064Y03134
X0499Y03113
X04951Y0315
X04954Y0305
Y03267
X04992Y03335
X04951Y03379
X04953Y03497
X04996Y03558
X04954Y03603
X04953Y03706
X0485145Y03707
X04756Y03676
X04759Y03823
X04754Y03967
X04853Y038912
X04952Y03932
X04992Y03995
X04953Y04047
Y04173
Y0427
X04997Y04236
X05078Y04251
X05076Y04026
X05066Y03803
X04991Y03775
X0495Y03821
X05076Y03585
X05069Y03356
X04851Y0345317
X04759Y03528
X04756Y03373
X04753Y03156
X04852Y032276
X04573Y03692
X04323Y0349
X04756Y04195
X04852Y04123
X04853Y0434458
X04954Y04383
X04999Y04462
X0508Y04498
X04754Y04423
X04177Y04563
X04105Y04165
X03926
X038Y04105
X03603Y03957
X03494Y04151
X03344Y04156
X03121Y04123
X02926Y04022
X0297884Y0456016
X02935Y03422
X03122Y03501
X03537Y0342
X03722Y03326
X03867Y03339
X04181Y03488
X04173Y03561
X04155Y04724
X03533Y04625
X03128Y04749
X04289Y04624
T02
X05454Y02641
Y02741
Y02841
Y02941
Y03041
X05529Y02991
Y02891
Y02791
Y02691
Y02591
X05604Y02641
Y02741
Y02841
Y02941
Y03041
X05679Y02991
Y02891
Y02791
Y02691
Y02591
Y03091
Y03191
Y03291
Y03391
Y03491
Y03591
Y03691
Y03791
Y03891
Y03991
Y04091
Y04191
X05604Y04241
Y04141
Y04041
Y03941
Y03841
Y03741
Y03641
Y03541
Y03441
Y03341
Y03241
Y03141
X05529Y03191
Y03291
Y03391
Y03491
Y03591
Y03691
Y03791
Y03891
Y03991
Y04091
Y04191
X05454Y04241
Y04141
Y04041
Y03941
Y03841
Y03741
Y03641
Y03541
Y03441
Y03341
Y03241
Y03141
X05529Y03091
T03
X03089Y0247
Y0259
X03689
Y0247
X04289
Y0259
Y0307
Y0319
Y0427
Y0439
X03689
Y0427
Y0379
Y0367
Y0319
Y0307
X03089
Y0319
Y0367
Y0379
Y0427
Y0439
T04
X05567Y02276
Y04556
T05
X02749Y0209573
X0502526
X0610892
X02749Y04735
X0502526Y0473353
X0610892
M30
