G04*
G04 #@! TF.GenerationSoftware,Altium Limited,Altium Designer,19.0.15 (446)*
G04*
G04 Layer_Physical_Order=4*
G04 Layer_Color=16711680*
%FSLAX25Y25*%
%MOIN*%
G70*
G01*
G75*
%ADD10C,0.01000*%
%ADD32C,0.01500*%
%ADD33C,0.10000*%
%ADD34C,0.20000*%
%ADD35C,0.05000*%
%ADD36R,0.05000X0.05000*%
%ADD37C,0.25000*%
%ADD38C,0.02500*%
G36*
X603942Y486100D02*
X602343Y485120D01*
X600607Y483638D01*
X599125Y481902D01*
X597933Y479956D01*
X597059Y477847D01*
X596526Y475628D01*
X596347Y473353D01*
X596526Y471077D01*
X597059Y468858D01*
X597933Y466749D01*
X599125Y464804D01*
X600607Y463068D01*
X602343Y461586D01*
X604289Y460393D01*
X606397Y459520D01*
X608617Y458987D01*
X610892Y458808D01*
X613167Y458987D01*
X615387Y459520D01*
X617495Y460393D01*
X619441Y461586D01*
X621177Y463068D01*
X622659Y464804D01*
X623852Y466749D01*
X624110Y467372D01*
X624600Y467275D01*
Y215651D01*
X624110Y215554D01*
X623852Y216177D01*
X622659Y218123D01*
X621177Y219858D01*
X619441Y221340D01*
X617495Y222533D01*
X615387Y223406D01*
X613167Y223939D01*
X610892Y224118D01*
X608617Y223939D01*
X606397Y223406D01*
X604289Y222533D01*
X602343Y221340D01*
X600607Y219858D01*
X599125Y218123D01*
X597933Y216177D01*
X597059Y214068D01*
X596526Y211848D01*
X596347Y209573D01*
X596526Y207298D01*
X597059Y205079D01*
X597933Y202970D01*
X599125Y201024D01*
X600607Y199288D01*
X602343Y197806D01*
X604289Y196614D01*
X605288Y196200D01*
X605188Y195700D01*
X508230D01*
X508131Y196200D01*
X509129Y196614D01*
X511075Y197806D01*
X512811Y199288D01*
X514293Y201024D01*
X515485Y202970D01*
X516359Y205079D01*
X516892Y207298D01*
X517071Y209573D01*
X516892Y211848D01*
X516359Y214068D01*
X515485Y216177D01*
X514293Y218123D01*
X512811Y219858D01*
X511075Y221340D01*
X509129Y222533D01*
X507021Y223406D01*
X504801Y223939D01*
X502526Y224118D01*
X500251Y223939D01*
X498031Y223406D01*
X495923Y222533D01*
X493977Y221340D01*
X492241Y219858D01*
X490759Y218123D01*
X489566Y216177D01*
X488693Y214068D01*
X488160Y211848D01*
X487981Y209573D01*
X488160Y207298D01*
X488693Y205079D01*
X489566Y202970D01*
X490759Y201024D01*
X492241Y199288D01*
X493977Y197806D01*
X495923Y196614D01*
X496921Y196200D01*
X496822Y195700D01*
X280604D01*
X280504Y196200D01*
X281503Y196614D01*
X283449Y197806D01*
X285185Y199288D01*
X286667Y201024D01*
X287860Y202970D01*
X288733Y205079D01*
X289266Y207298D01*
X289445Y209573D01*
X289266Y211848D01*
X288733Y214068D01*
X287860Y216177D01*
X286667Y218123D01*
X285185Y219858D01*
X283449Y221340D01*
X281503Y222533D01*
X279395Y223406D01*
X277175Y223939D01*
X274900Y224118D01*
X272625Y223939D01*
X270405Y223406D01*
X268297Y222533D01*
X266351Y221340D01*
X264615Y219858D01*
X263133Y218123D01*
X261941Y216177D01*
X261067Y214068D01*
X260534Y211848D01*
X260400Y210143D01*
X259900Y210163D01*
Y472911D01*
X260400Y472930D01*
X260534Y471225D01*
X261067Y469005D01*
X261941Y466897D01*
X263133Y464951D01*
X264615Y463215D01*
X266351Y461733D01*
X268297Y460540D01*
X270405Y459667D01*
X272625Y459134D01*
X274900Y458955D01*
X277175Y459134D01*
X279395Y459667D01*
X281503Y460540D01*
X283449Y461733D01*
X285185Y463215D01*
X286667Y464951D01*
X287860Y466897D01*
X288733Y469005D01*
X289266Y471225D01*
X289445Y473500D01*
X289266Y475775D01*
X288733Y477995D01*
X287860Y480103D01*
X286667Y482049D01*
X285185Y483785D01*
X283449Y485267D01*
X282090Y486100D01*
X282231Y486600D01*
X495435D01*
X495576Y486100D01*
X493977Y485120D01*
X492241Y483638D01*
X490759Y481902D01*
X489566Y479956D01*
X488693Y477847D01*
X488160Y475628D01*
X487981Y473353D01*
X488160Y471077D01*
X488693Y468858D01*
X489566Y466749D01*
X490759Y464804D01*
X492241Y463068D01*
X493977Y461586D01*
X495923Y460393D01*
X498031Y459520D01*
X500251Y458987D01*
X502526Y458808D01*
X504801Y458987D01*
X507021Y459520D01*
X509129Y460393D01*
X511075Y461586D01*
X512811Y463068D01*
X514293Y464804D01*
X515485Y466749D01*
X516359Y468858D01*
X516892Y471077D01*
X517071Y473353D01*
X516892Y475628D01*
X516359Y477847D01*
X515485Y479956D01*
X514293Y481902D01*
X512811Y483638D01*
X511075Y485120D01*
X509476Y486100D01*
X509617Y486600D01*
X603801D01*
X603942Y486100D01*
D02*
G37*
%LPC*%
G36*
X428900Y465678D02*
X428052Y465566D01*
X427261Y465239D01*
X426582Y464718D01*
X426061Y464039D01*
X425734Y463248D01*
X425622Y462400D01*
X425734Y461552D01*
X426061Y460761D01*
X426582Y460082D01*
X427261Y459561D01*
X428052Y459234D01*
X428900Y459122D01*
X429748Y459234D01*
X430539Y459561D01*
X431218Y460082D01*
X431739Y460761D01*
X432066Y461552D01*
X432178Y462400D01*
X432066Y463248D01*
X431739Y464039D01*
X431218Y464718D01*
X430539Y465239D01*
X429748Y465566D01*
X428900Y465678D01*
D02*
G37*
G36*
X312800Y478178D02*
X311952Y478066D01*
X311161Y477739D01*
X310482Y477218D01*
X309961Y476539D01*
X309634Y475748D01*
X309522Y474900D01*
X309634Y474052D01*
X309961Y473261D01*
X310482Y472582D01*
X311161Y472061D01*
X311952Y471734D01*
X312800Y471622D01*
X313648Y471734D01*
X314439Y472061D01*
X315118Y472582D01*
X315324Y472851D01*
X411902D01*
X412232Y472475D01*
X412222Y472400D01*
X412334Y471552D01*
X412661Y470761D01*
X413182Y470082D01*
X413861Y469561D01*
X414652Y469234D01*
X415500Y469122D01*
X416348Y469234D01*
X417139Y469561D01*
X417818Y470082D01*
X418339Y470761D01*
X418666Y471552D01*
X418778Y472400D01*
X418768Y472475D01*
X419098Y472851D01*
X469644D01*
X496671Y445824D01*
X496734Y445352D01*
X497061Y444561D01*
X497582Y443882D01*
X498261Y443361D01*
X499052Y443034D01*
X499900Y442922D01*
X500748Y443034D01*
X501539Y443361D01*
X502218Y443882D01*
X502739Y444561D01*
X503066Y445352D01*
X503178Y446200D01*
X503066Y447048D01*
X502739Y447839D01*
X502218Y448518D01*
X501539Y449039D01*
X500748Y449366D01*
X500276Y449429D01*
X472502Y477202D01*
X471675Y477755D01*
X470700Y477949D01*
X313932D01*
X313648Y478066D01*
X312800Y478178D01*
D02*
G37*
G36*
X495400Y441578D02*
X494552Y441466D01*
X493761Y441139D01*
X493082Y440618D01*
X492561Y439939D01*
X492234Y439148D01*
X492122Y438300D01*
X492234Y437452D01*
X492561Y436661D01*
X493082Y435982D01*
X493761Y435461D01*
X494552Y435134D01*
X495400Y435022D01*
X496248Y435134D01*
X497039Y435461D01*
X497718Y435982D01*
X498239Y436661D01*
X498566Y437452D01*
X498678Y438300D01*
X498566Y439148D01*
X498239Y439939D01*
X497718Y440618D01*
X497039Y441139D01*
X496248Y441466D01*
X495400Y441578D01*
D02*
G37*
G36*
X485300Y437736D02*
X484452Y437625D01*
X483661Y437297D01*
X482982Y436776D01*
X482461Y436097D01*
X482134Y435307D01*
X482022Y434458D01*
X482134Y433610D01*
X482461Y432819D01*
X482982Y432140D01*
X483661Y431619D01*
X484452Y431292D01*
X485300Y431180D01*
X486148Y431292D01*
X486939Y431619D01*
X487618Y432140D01*
X488139Y432819D01*
X488466Y433610D01*
X488578Y434458D01*
X488466Y435307D01*
X488139Y436097D01*
X487618Y436776D01*
X486939Y437297D01*
X486148Y437625D01*
X485300Y437736D01*
D02*
G37*
G36*
X428900Y446034D02*
X427528Y445899D01*
X426208Y445498D01*
X424992Y444848D01*
X423926Y443974D01*
X423052Y442908D01*
X422402Y441692D01*
X422001Y440372D01*
X421866Y439000D01*
X422001Y437628D01*
X422402Y436308D01*
X423052Y435092D01*
X423926Y434026D01*
X424797Y433311D01*
X424832Y433228D01*
Y432772D01*
X424797Y432689D01*
X423926Y431974D01*
X423052Y430908D01*
X422402Y429692D01*
X422001Y428372D01*
X421866Y427000D01*
X422001Y425628D01*
X422402Y424308D01*
X422968Y423249D01*
X422742Y422749D01*
X375058D01*
X374832Y423249D01*
X375398Y424308D01*
X375799Y425628D01*
X375934Y427000D01*
X375799Y428372D01*
X375398Y429692D01*
X374748Y430908D01*
X373874Y431974D01*
X373003Y432689D01*
X372968Y432772D01*
Y433228D01*
X373003Y433311D01*
X373874Y434026D01*
X374748Y435092D01*
X375398Y436308D01*
X375799Y437628D01*
X375934Y439000D01*
X375799Y440372D01*
X375398Y441692D01*
X374748Y442908D01*
X373874Y443974D01*
X372808Y444848D01*
X371592Y445498D01*
X370272Y445899D01*
X368900Y446034D01*
X367528Y445899D01*
X366208Y445498D01*
X364992Y444848D01*
X363926Y443974D01*
X363052Y442908D01*
X362402Y441692D01*
X362001Y440372D01*
X361866Y439000D01*
X362001Y437628D01*
X362402Y436308D01*
X363052Y435092D01*
X363926Y434026D01*
X364797Y433311D01*
X364832Y433228D01*
Y432772D01*
X364797Y432689D01*
X363926Y431974D01*
X363052Y430908D01*
X362402Y429692D01*
X362001Y428372D01*
X361866Y427000D01*
X362001Y425628D01*
X362402Y424308D01*
X362968Y423249D01*
X362742Y422749D01*
X320000D01*
X319024Y422555D01*
X318198Y422002D01*
X311724Y415528D01*
X311252Y415466D01*
X310461Y415139D01*
X309782Y414618D01*
X309261Y413939D01*
X308934Y413148D01*
X308822Y412300D01*
X308934Y411452D01*
X309261Y410661D01*
X309782Y409982D01*
X310461Y409461D01*
X311252Y409134D01*
X312100Y409022D01*
X312948Y409134D01*
X313739Y409461D01*
X314418Y409982D01*
X314939Y410661D01*
X315266Y411452D01*
X315329Y411924D01*
X321056Y417651D01*
X331320D01*
X331525Y417151D01*
X331234Y416448D01*
X331122Y415600D01*
X331234Y414752D01*
X331561Y413961D01*
X332082Y413282D01*
X332761Y412761D01*
X333552Y412434D01*
X334400Y412322D01*
X335248Y412434D01*
X336039Y412761D01*
X336718Y413282D01*
X337239Y413961D01*
X337566Y414752D01*
X337678Y415600D01*
X337566Y416448D01*
X337275Y417151D01*
X337480Y417651D01*
X346631D01*
X346877Y417151D01*
X346561Y416739D01*
X346234Y415948D01*
X346122Y415100D01*
X346234Y414252D01*
X346561Y413461D01*
X347082Y412782D01*
X347761Y412261D01*
X348552Y411934D01*
X349400Y411822D01*
X350248Y411934D01*
X351039Y412261D01*
X351718Y412782D01*
X352239Y413461D01*
X352566Y414252D01*
X352678Y415100D01*
X352566Y415948D01*
X352239Y416739D01*
X351923Y417151D01*
X352169Y417651D01*
X389075D01*
X389408Y417151D01*
X389322Y416500D01*
X389434Y415652D01*
X389761Y414861D01*
X390282Y414182D01*
X390961Y413661D01*
X391752Y413334D01*
X392600Y413222D01*
X393448Y413334D01*
X394239Y413661D01*
X394918Y414182D01*
X395439Y414861D01*
X395766Y415652D01*
X395878Y416500D01*
X395792Y417151D01*
X396125Y417651D01*
X406975D01*
X407308Y417151D01*
X407222Y416500D01*
X407334Y415652D01*
X407661Y414861D01*
X408182Y414182D01*
X408861Y413661D01*
X409652Y413334D01*
X410500Y413222D01*
X411348Y413334D01*
X412139Y413661D01*
X412818Y414182D01*
X413339Y414861D01*
X413666Y415652D01*
X413778Y416500D01*
X413692Y417151D01*
X414025Y417651D01*
X456100D01*
X457076Y417845D01*
X457902Y418398D01*
X460556Y421051D01*
X495062D01*
X495095Y420551D01*
X495021Y420541D01*
X494452Y420466D01*
X493661Y420139D01*
X492982Y419618D01*
X492461Y418939D01*
X492134Y418148D01*
X492022Y417300D01*
X492134Y416452D01*
X492461Y415661D01*
X492982Y414982D01*
X493661Y414461D01*
X494452Y414134D01*
X495300Y414022D01*
X496148Y414134D01*
X496939Y414461D01*
X497618Y414982D01*
X498139Y415661D01*
X498466Y416452D01*
X498578Y417300D01*
X498466Y418148D01*
X498139Y418939D01*
X497618Y419618D01*
X496939Y420139D01*
X496148Y420466D01*
X495579Y420541D01*
X495505Y420551D01*
X495538Y421051D01*
X497683D01*
X498061Y420761D01*
X498852Y420434D01*
X499700Y420322D01*
X500548Y420434D01*
X501339Y420761D01*
X502018Y421282D01*
X502539Y421961D01*
X502866Y422752D01*
X502978Y423600D01*
X502866Y424448D01*
X502539Y425239D01*
X502018Y425918D01*
X501339Y426439D01*
X500548Y426766D01*
X499700Y426878D01*
X499055Y426793D01*
X498733Y426933D01*
X498554Y427184D01*
X498466Y427848D01*
X498139Y428639D01*
X497618Y429318D01*
X496939Y429839D01*
X496148Y430166D01*
X495300Y430278D01*
X494452Y430166D01*
X493661Y429839D01*
X492982Y429318D01*
X492461Y428639D01*
X492134Y427848D01*
X492022Y427000D01*
X492068Y426649D01*
X491630Y426149D01*
X459500D01*
X458525Y425955D01*
X457698Y425402D01*
X455044Y422749D01*
X435058D01*
X434832Y423249D01*
X435398Y424308D01*
X435799Y425628D01*
X435934Y427000D01*
X435799Y428372D01*
X435398Y429692D01*
X434748Y430908D01*
X433874Y431974D01*
X433003Y432689D01*
X432968Y432772D01*
Y433228D01*
X433003Y433311D01*
X433874Y434026D01*
X434748Y435092D01*
X435398Y436308D01*
X435799Y437628D01*
X435934Y439000D01*
X435799Y440372D01*
X435398Y441692D01*
X434748Y442908D01*
X433874Y443974D01*
X432808Y444848D01*
X431592Y445498D01*
X430272Y445899D01*
X428900Y446034D01*
D02*
G37*
G36*
X308900D02*
X307528Y445899D01*
X306208Y445498D01*
X304992Y444848D01*
X303926Y443974D01*
X303051Y442908D01*
X302401Y441692D01*
X302001Y440372D01*
X301866Y439000D01*
X302001Y437628D01*
X302401Y436308D01*
X303051Y435092D01*
X303926Y434026D01*
X304798Y433311D01*
X304832Y433228D01*
Y432772D01*
X304798Y432689D01*
X303926Y431974D01*
X303051Y430908D01*
X302401Y429692D01*
X302001Y428372D01*
X301866Y427000D01*
X302001Y425628D01*
X302401Y424308D01*
X303051Y423092D01*
X303926Y422026D01*
X304992Y421152D01*
X306208Y420502D01*
X307528Y420101D01*
X308900Y419966D01*
X310272Y420101D01*
X311592Y420502D01*
X312808Y421152D01*
X313874Y422026D01*
X314749Y423092D01*
X315399Y424308D01*
X315799Y425628D01*
X315934Y427000D01*
X315799Y428372D01*
X315399Y429692D01*
X314749Y430908D01*
X313874Y431974D01*
X313002Y432689D01*
X312968Y432772D01*
Y433228D01*
X313002Y433311D01*
X313874Y434026D01*
X314749Y435092D01*
X315399Y436308D01*
X315799Y437628D01*
X315934Y439000D01*
X315799Y440372D01*
X315399Y441692D01*
X314749Y442908D01*
X313874Y443974D01*
X312808Y444848D01*
X311592Y445498D01*
X310272Y445899D01*
X308900Y446034D01*
D02*
G37*
G36*
X567900Y423639D02*
X566725Y423484D01*
X565631Y423031D01*
X564691Y422309D01*
X563969Y421369D01*
X563516Y420275D01*
X563361Y419100D01*
X563503Y418021D01*
X563291Y417833D01*
X563054Y417736D01*
X562669Y418031D01*
X561575Y418484D01*
X560400Y418639D01*
X559225Y418484D01*
X558131Y418031D01*
X557746Y417736D01*
X557509Y417833D01*
X557297Y418021D01*
X557439Y419100D01*
X557284Y420275D01*
X556831Y421369D01*
X556109Y422309D01*
X555169Y423031D01*
X554075Y423484D01*
X552900Y423639D01*
X551725Y423484D01*
X550631Y423031D01*
X549691Y422309D01*
X548969Y421369D01*
X548516Y420275D01*
X548361Y419100D01*
X548503Y418021D01*
X548291Y417833D01*
X548054Y417736D01*
X547669Y418031D01*
X546575Y418484D01*
X545400Y418639D01*
X544225Y418484D01*
X543131Y418031D01*
X542191Y417309D01*
X541469Y416369D01*
X541016Y415275D01*
X540861Y414100D01*
X541016Y412925D01*
X541469Y411831D01*
X542191Y410891D01*
X543131Y410169D01*
X544225Y409716D01*
X545400Y409561D01*
X546575Y409716D01*
X547669Y410169D01*
X548609Y410891D01*
X549331Y411831D01*
X549784Y412925D01*
X549939Y414100D01*
X549797Y415179D01*
X550009Y415367D01*
X550246Y415464D01*
X550631Y415169D01*
X551725Y414716D01*
X552900Y414561D01*
X554075Y414716D01*
X555169Y415169D01*
X555554Y415464D01*
X555791Y415367D01*
X556003Y415179D01*
X555861Y414100D01*
X556016Y412925D01*
X556469Y411831D01*
X557191Y410891D01*
X558131Y410169D01*
X559225Y409716D01*
X560400Y409561D01*
X561575Y409716D01*
X562669Y410169D01*
X563609Y410891D01*
X564331Y411831D01*
X564784Y412925D01*
X564939Y414100D01*
X564797Y415179D01*
X565009Y415367D01*
X565246Y415464D01*
X565631Y415169D01*
X566725Y414716D01*
X567900Y414561D01*
X569075Y414716D01*
X570169Y415169D01*
X571109Y415891D01*
X571831Y416831D01*
X572284Y417925D01*
X572439Y419100D01*
X572284Y420275D01*
X571831Y421369D01*
X571109Y422309D01*
X570169Y423031D01*
X569075Y423484D01*
X567900Y423639D01*
D02*
G37*
G36*
X485200Y415578D02*
X484352Y415466D01*
X483561Y415139D01*
X482882Y414618D01*
X482361Y413939D01*
X482034Y413148D01*
X481922Y412300D01*
X482034Y411452D01*
X482361Y410661D01*
X482882Y409982D01*
X483561Y409461D01*
X484352Y409134D01*
X485200Y409022D01*
X486048Y409134D01*
X486839Y409461D01*
X487518Y409982D01*
X488039Y410661D01*
X488366Y411452D01*
X488478Y412300D01*
X488366Y413148D01*
X488039Y413939D01*
X487518Y414618D01*
X486839Y415139D01*
X486048Y415466D01*
X485200Y415578D01*
D02*
G37*
G36*
X380000Y413778D02*
X379152Y413666D01*
X378361Y413339D01*
X377682Y412818D01*
X377161Y412139D01*
X376834Y411348D01*
X376722Y410500D01*
X376834Y409652D01*
X377161Y408861D01*
X377682Y408182D01*
X378361Y407661D01*
X379152Y407334D01*
X380000Y407222D01*
X380848Y407334D01*
X381639Y407661D01*
X382318Y408182D01*
X382839Y408861D01*
X383166Y409652D01*
X383278Y410500D01*
X383166Y411348D01*
X382839Y412139D01*
X382318Y412818D01*
X381639Y413339D01*
X380848Y413666D01*
X380000Y413778D01*
D02*
G37*
G36*
X560400Y408639D02*
X559225Y408484D01*
X558131Y408031D01*
X557191Y407309D01*
X556856Y406874D01*
X548944D01*
X548609Y407309D01*
X547669Y408031D01*
X546575Y408484D01*
X545400Y408639D01*
X544225Y408484D01*
X543131Y408031D01*
X542191Y407309D01*
X541469Y406369D01*
X541016Y405275D01*
X540861Y404100D01*
X541016Y402925D01*
X541469Y401831D01*
X542191Y400891D01*
X543131Y400169D01*
X544225Y399716D01*
X545400Y399561D01*
X546575Y399716D01*
X547669Y400169D01*
X548609Y400891D01*
X548944Y401326D01*
X556856D01*
X557191Y400891D01*
X558131Y400169D01*
X559225Y399716D01*
X560400Y399561D01*
X561575Y399716D01*
X562669Y400169D01*
X563609Y400891D01*
X564331Y401831D01*
X564784Y402925D01*
X564939Y404100D01*
X564784Y405275D01*
X564331Y406369D01*
X563609Y407309D01*
X562669Y408031D01*
X561575Y408484D01*
X560400Y408639D01*
D02*
G37*
G36*
X485300Y392398D02*
X484452Y392286D01*
X483661Y391959D01*
X482982Y391438D01*
X482461Y390759D01*
X482134Y389968D01*
X482022Y389120D01*
X482134Y388271D01*
X482461Y387481D01*
X482982Y386802D01*
X483661Y386281D01*
X484452Y385953D01*
X485300Y385842D01*
X486148Y385953D01*
X486939Y386281D01*
X487618Y386802D01*
X488139Y387481D01*
X488466Y388271D01*
X488578Y389120D01*
X488466Y389968D01*
X488139Y390759D01*
X487618Y391438D01*
X486939Y391959D01*
X486148Y392286D01*
X485300Y392398D01*
D02*
G37*
G36*
X495300Y407978D02*
X494452Y407866D01*
X493661Y407539D01*
X492982Y407018D01*
X492461Y406339D01*
X492134Y405548D01*
X492022Y404700D01*
X492134Y403852D01*
X492461Y403061D01*
X492854Y402549D01*
X492635Y402049D01*
X339000D01*
X338024Y401855D01*
X337198Y401302D01*
X323298Y387402D01*
X322745Y386576D01*
X322551Y385600D01*
Y367356D01*
X310398Y355202D01*
X309845Y354376D01*
X309651Y353400D01*
Y352117D01*
X309361Y351739D01*
X309034Y350948D01*
X308922Y350100D01*
X309034Y349252D01*
X309361Y348461D01*
X309882Y347782D01*
X310561Y347261D01*
X311352Y346934D01*
X312200Y346822D01*
X313048Y346934D01*
X313839Y347261D01*
X314518Y347782D01*
X315039Y348461D01*
X315366Y349252D01*
X315478Y350100D01*
X315366Y350948D01*
X315039Y351739D01*
X314749Y352117D01*
Y352344D01*
X326902Y364498D01*
X327455Y365324D01*
X327649Y366300D01*
Y384544D01*
X340056Y396951D01*
X494962D01*
X494995Y396451D01*
X494921Y396441D01*
X494352Y396366D01*
X493561Y396039D01*
X492882Y395518D01*
X492361Y394839D01*
X492034Y394048D01*
X491922Y393200D01*
X492034Y392352D01*
X492361Y391561D01*
X492882Y390882D01*
X493561Y390361D01*
X494352Y390034D01*
X494458Y390020D01*
X498489Y385989D01*
X499063Y385548D01*
X499732Y385271D01*
X500450Y385176D01*
X547456D01*
X549780Y382852D01*
X549748Y382353D01*
X549691Y382309D01*
X548969Y381369D01*
X548782Y380918D01*
X548355Y380974D01*
X522400D01*
X521682Y380879D01*
X521013Y380602D01*
X520439Y380161D01*
X508651Y368374D01*
X498253D01*
X498032Y368822D01*
X498139Y368961D01*
X498466Y369752D01*
X498578Y370600D01*
X498466Y371448D01*
X498139Y372239D01*
X497618Y372918D01*
X496939Y373439D01*
X496148Y373766D01*
X495300Y373878D01*
X494452Y373766D01*
X493661Y373439D01*
X492982Y372918D01*
X492461Y372239D01*
X492134Y371448D01*
X492022Y370600D01*
X492134Y369752D01*
X492461Y368961D01*
X492568Y368822D01*
X492346Y368374D01*
X491394D01*
X488325Y371442D01*
X488311Y371548D01*
X487984Y372339D01*
X487463Y373018D01*
X486784Y373539D01*
X485993Y373866D01*
X485145Y373978D01*
X484297Y373866D01*
X483506Y373539D01*
X482827Y373018D01*
X482306Y372339D01*
X481979Y371548D01*
X481867Y370700D01*
X481979Y369852D01*
X482306Y369061D01*
X482827Y368382D01*
X483506Y367861D01*
X484297Y367534D01*
X484403Y367520D01*
X488284Y363639D01*
X488858Y363198D01*
X489527Y362921D01*
X490245Y362826D01*
X492612D01*
X492858Y362326D01*
X492561Y361939D01*
X492234Y361148D01*
X492122Y360300D01*
X492234Y359452D01*
X492483Y358849D01*
X492220Y358349D01*
X419671D01*
X419618Y358418D01*
X418939Y358939D01*
X418148Y359266D01*
X417300Y359378D01*
X416452Y359266D01*
X415661Y358939D01*
X414982Y358418D01*
X414461Y357739D01*
X414134Y356948D01*
X414022Y356100D01*
X414134Y355252D01*
X414461Y354461D01*
X414982Y353782D01*
X415661Y353261D01*
X416452Y352934D01*
X417300Y352822D01*
X418148Y352934D01*
X418915Y353251D01*
X494074D01*
X494173Y352751D01*
X493661Y352539D01*
X492982Y352018D01*
X492461Y351339D01*
X492134Y350548D01*
X492022Y349700D01*
X492134Y348852D01*
X492461Y348061D01*
X492982Y347382D01*
X493661Y346861D01*
X494452Y346534D01*
X495300Y346422D01*
X496148Y346534D01*
X496939Y346861D01*
X497618Y347382D01*
X498139Y348061D01*
X498466Y348852D01*
X498578Y349700D01*
X498466Y350548D01*
X498139Y351339D01*
X497618Y352018D01*
X496939Y352539D01*
X496427Y352751D01*
X496526Y353251D01*
X497583D01*
X497961Y352961D01*
X498752Y352634D01*
X499600Y352522D01*
X500448Y352634D01*
X501239Y352961D01*
X501918Y353482D01*
X502439Y354161D01*
X502766Y354952D01*
X502878Y355800D01*
X502766Y356648D01*
X502439Y357439D01*
X501918Y358118D01*
X501239Y358639D01*
X500448Y358966D01*
X499600Y359078D01*
X498915Y358988D01*
X498534Y359374D01*
X498566Y359452D01*
X498678Y360300D01*
X498566Y361148D01*
X498239Y361939D01*
X497942Y362326D01*
X498188Y362826D01*
X509800D01*
X510518Y362921D01*
X511187Y363198D01*
X511761Y363639D01*
X523549Y375426D01*
X540570D01*
X540970Y374926D01*
X540861Y374100D01*
X541016Y372925D01*
X541469Y371831D01*
X542191Y370891D01*
X543131Y370169D01*
X544225Y369716D01*
X545400Y369561D01*
X546575Y369716D01*
X547669Y370169D01*
X548054Y370464D01*
X548291Y370367D01*
X548503Y370179D01*
X548361Y369100D01*
X548503Y368021D01*
X548291Y367833D01*
X548054Y367736D01*
X547669Y368031D01*
X546575Y368484D01*
X545400Y368639D01*
X544225Y368484D01*
X543131Y368031D01*
X542191Y367309D01*
X541469Y366369D01*
X541016Y365275D01*
X540861Y364100D01*
X541016Y362925D01*
X541469Y361831D01*
X542191Y360891D01*
X543131Y360169D01*
X544225Y359716D01*
X545400Y359561D01*
X546575Y359716D01*
X547669Y360169D01*
X548054Y360464D01*
X548291Y360367D01*
X548503Y360179D01*
X548361Y359100D01*
X548503Y358021D01*
X548291Y357833D01*
X548054Y357736D01*
X547669Y358031D01*
X546575Y358484D01*
X545400Y358639D01*
X544225Y358484D01*
X543131Y358031D01*
X542191Y357309D01*
X541469Y356369D01*
X541016Y355275D01*
X540861Y354100D01*
X541016Y352925D01*
X541469Y351831D01*
X542191Y350891D01*
X543131Y350169D01*
X544225Y349716D01*
X545400Y349561D01*
X546575Y349716D01*
X547669Y350169D01*
X548054Y350464D01*
X548291Y350367D01*
X548503Y350179D01*
X548361Y349100D01*
X548503Y348021D01*
X548291Y347833D01*
X548054Y347736D01*
X547669Y348031D01*
X546575Y348484D01*
X545400Y348639D01*
X544225Y348484D01*
X543131Y348031D01*
X542191Y347309D01*
X541469Y346369D01*
X541016Y345275D01*
X540861Y344100D01*
X541016Y342925D01*
X541469Y341831D01*
X542191Y340891D01*
X543131Y340169D01*
X544225Y339716D01*
X545400Y339561D01*
X546575Y339716D01*
X547669Y340169D01*
X548054Y340464D01*
X548291Y340367D01*
X548503Y340179D01*
X548361Y339100D01*
X548503Y338021D01*
X548291Y337833D01*
X548054Y337736D01*
X547669Y338031D01*
X546575Y338484D01*
X545400Y338639D01*
X544225Y338484D01*
X543131Y338031D01*
X542191Y337309D01*
X541469Y336369D01*
X541016Y335275D01*
X540861Y334100D01*
X541016Y332925D01*
X541469Y331831D01*
X542191Y330891D01*
X543131Y330169D01*
X544225Y329716D01*
X545400Y329561D01*
X546575Y329716D01*
X547669Y330169D01*
X548054Y330464D01*
X548291Y330367D01*
X548503Y330179D01*
X548361Y329100D01*
X548503Y328021D01*
X548291Y327833D01*
X548054Y327736D01*
X547669Y328031D01*
X546575Y328484D01*
X545400Y328639D01*
X544225Y328484D01*
X543131Y328031D01*
X542191Y327309D01*
X541469Y326369D01*
X541016Y325275D01*
X540861Y324100D01*
X541016Y322925D01*
X541469Y321831D01*
X542191Y320891D01*
X543131Y320169D01*
X544225Y319716D01*
X545400Y319561D01*
X546575Y319716D01*
X547669Y320169D01*
X548054Y320464D01*
X548291Y320367D01*
X548503Y320179D01*
X548361Y319100D01*
X548503Y318021D01*
X548291Y317833D01*
X548054Y317736D01*
X547669Y318031D01*
X546575Y318484D01*
X545400Y318639D01*
X544225Y318484D01*
X543131Y318031D01*
X542191Y317309D01*
X541469Y316369D01*
X541016Y315275D01*
X540861Y314100D01*
X541016Y312925D01*
X541469Y311831D01*
X542191Y310891D01*
X543131Y310169D01*
X544225Y309716D01*
X545400Y309561D01*
X546575Y309716D01*
X547669Y310169D01*
X548054Y310464D01*
X548291Y310367D01*
X548503Y310179D01*
X548361Y309100D01*
X548503Y308021D01*
X548291Y307833D01*
X548054Y307736D01*
X547669Y308031D01*
X546575Y308484D01*
X545400Y308639D01*
X544225Y308484D01*
X543131Y308031D01*
X542191Y307309D01*
X541469Y306369D01*
X541016Y305275D01*
X540861Y304100D01*
X541016Y302925D01*
X541469Y301831D01*
X542191Y300891D01*
X543131Y300169D01*
X544225Y299716D01*
X545400Y299561D01*
X546575Y299716D01*
X547669Y300169D01*
X548054Y300464D01*
X548291Y300367D01*
X548503Y300179D01*
X548361Y299100D01*
X548503Y298021D01*
X548291Y297833D01*
X548054Y297736D01*
X547669Y298031D01*
X546575Y298484D01*
X545400Y298639D01*
X544225Y298484D01*
X543131Y298031D01*
X542191Y297309D01*
X541469Y296369D01*
X541016Y295275D01*
X540861Y294100D01*
X541016Y292925D01*
X541469Y291831D01*
X542191Y290891D01*
X543131Y290169D01*
X544225Y289716D01*
X545400Y289561D01*
X546575Y289716D01*
X547669Y290169D01*
X548054Y290464D01*
X548291Y290367D01*
X548503Y290179D01*
X548361Y289100D01*
X548503Y288021D01*
X548291Y287833D01*
X548054Y287736D01*
X547669Y288031D01*
X546575Y288484D01*
X545400Y288639D01*
X544225Y288484D01*
X543131Y288031D01*
X542191Y287309D01*
X541469Y286369D01*
X541016Y285275D01*
X540861Y284100D01*
X541016Y282925D01*
X541469Y281831D01*
X542191Y280891D01*
X543131Y280169D01*
X544225Y279716D01*
X545400Y279561D01*
X546575Y279716D01*
X547669Y280169D01*
X548054Y280464D01*
X548291Y280367D01*
X548503Y280179D01*
X548361Y279100D01*
X548503Y278021D01*
X548291Y277833D01*
X548054Y277736D01*
X547669Y278031D01*
X546575Y278484D01*
X545400Y278639D01*
X544225Y278484D01*
X543131Y278031D01*
X542191Y277309D01*
X541469Y276369D01*
X541016Y275275D01*
X540861Y274100D01*
X541016Y272925D01*
X541469Y271831D01*
X542191Y270891D01*
X543131Y270169D01*
X544225Y269716D01*
X545400Y269561D01*
X546575Y269716D01*
X547669Y270169D01*
X548054Y270464D01*
X548291Y270367D01*
X548503Y270179D01*
X548361Y269100D01*
X548503Y268021D01*
X548291Y267833D01*
X548054Y267736D01*
X547669Y268031D01*
X546575Y268484D01*
X545400Y268639D01*
X544225Y268484D01*
X543131Y268031D01*
X542191Y267309D01*
X541469Y266369D01*
X541016Y265275D01*
X540861Y264100D01*
X541016Y262925D01*
X541469Y261831D01*
X542191Y260891D01*
X543131Y260169D01*
X544225Y259716D01*
X545400Y259561D01*
X546575Y259716D01*
X547669Y260169D01*
X548054Y260464D01*
X548291Y260367D01*
X548503Y260179D01*
X548361Y259100D01*
X548516Y257925D01*
X548969Y256831D01*
X549691Y255891D01*
X550631Y255169D01*
X551725Y254716D01*
X552900Y254561D01*
X554075Y254716D01*
X555169Y255169D01*
X556109Y255891D01*
X556831Y256831D01*
X557284Y257925D01*
X557439Y259100D01*
X557297Y260179D01*
X557509Y260367D01*
X557746Y260464D01*
X558131Y260169D01*
X559225Y259716D01*
X560400Y259561D01*
X561575Y259716D01*
X562669Y260169D01*
X562952Y260386D01*
X563400Y260165D01*
Y254600D01*
X572400D01*
Y263600D01*
X565252D01*
X564923Y263976D01*
X564939Y264100D01*
X564797Y265179D01*
X565009Y265367D01*
X565246Y265464D01*
X565631Y265169D01*
X566725Y264716D01*
X567900Y264561D01*
X569075Y264716D01*
X570169Y265169D01*
X571109Y265891D01*
X571831Y266831D01*
X572284Y267925D01*
X572439Y269100D01*
X572284Y270275D01*
X571831Y271369D01*
X571109Y272309D01*
X570169Y273031D01*
X569075Y273484D01*
X567900Y273639D01*
X566725Y273484D01*
X565631Y273031D01*
X565246Y272736D01*
X565009Y272833D01*
X564797Y273021D01*
X564939Y274100D01*
X564797Y275179D01*
X565009Y275367D01*
X565246Y275464D01*
X565631Y275169D01*
X566725Y274716D01*
X567900Y274561D01*
X569075Y274716D01*
X570169Y275169D01*
X571109Y275891D01*
X571831Y276831D01*
X572284Y277925D01*
X572439Y279100D01*
X572284Y280275D01*
X571831Y281369D01*
X571109Y282309D01*
X570169Y283031D01*
X569075Y283484D01*
X567900Y283639D01*
X566725Y283484D01*
X565631Y283031D01*
X565246Y282736D01*
X565009Y282833D01*
X564797Y283021D01*
X564939Y284100D01*
X564797Y285179D01*
X565009Y285367D01*
X565246Y285464D01*
X565631Y285169D01*
X566725Y284716D01*
X567900Y284561D01*
X569075Y284716D01*
X570169Y285169D01*
X571109Y285891D01*
X571831Y286831D01*
X572284Y287925D01*
X572439Y289100D01*
X572284Y290275D01*
X571831Y291369D01*
X571109Y292309D01*
X570169Y293031D01*
X569075Y293484D01*
X567900Y293639D01*
X566725Y293484D01*
X565631Y293031D01*
X564691Y292309D01*
X563969Y291369D01*
X563516Y290275D01*
X563361Y289100D01*
X563503Y288021D01*
X563291Y287833D01*
X563054Y287736D01*
X562669Y288031D01*
X561575Y288484D01*
X560400Y288639D01*
X559225Y288484D01*
X558131Y288031D01*
X557746Y287736D01*
X557509Y287833D01*
X557297Y288021D01*
X557439Y289100D01*
X557284Y290275D01*
X556831Y291369D01*
X556109Y292309D01*
X555169Y293031D01*
X554075Y293484D01*
X552900Y293639D01*
X551725Y293484D01*
X550631Y293031D01*
X550246Y292736D01*
X550009Y292833D01*
X549797Y293021D01*
X549939Y294100D01*
X549797Y295179D01*
X550009Y295367D01*
X550246Y295464D01*
X550631Y295169D01*
X551725Y294716D01*
X552900Y294561D01*
X554075Y294716D01*
X555169Y295169D01*
X556109Y295891D01*
X556831Y296831D01*
X557284Y297925D01*
X557439Y299100D01*
X557297Y300179D01*
X557509Y300367D01*
X557746Y300464D01*
X558131Y300169D01*
X559225Y299716D01*
X560400Y299561D01*
X561575Y299716D01*
X562669Y300169D01*
X563609Y300891D01*
X564331Y301831D01*
X564784Y302925D01*
X564939Y304100D01*
X564797Y305179D01*
X565009Y305367D01*
X565246Y305464D01*
X565631Y305169D01*
X566725Y304716D01*
X567900Y304561D01*
X569075Y304716D01*
X570169Y305169D01*
X571109Y305891D01*
X571831Y306831D01*
X572284Y307925D01*
X572439Y309100D01*
X572284Y310275D01*
X571831Y311369D01*
X571109Y312309D01*
X570169Y313031D01*
X569075Y313484D01*
X567900Y313639D01*
X566725Y313484D01*
X565631Y313031D01*
X565246Y312736D01*
X565009Y312833D01*
X564797Y313021D01*
X564939Y314100D01*
X564797Y315179D01*
X565009Y315367D01*
X565246Y315464D01*
X565631Y315169D01*
X566725Y314716D01*
X567900Y314561D01*
X569075Y314716D01*
X570169Y315169D01*
X571109Y315891D01*
X571831Y316831D01*
X572284Y317925D01*
X572439Y319100D01*
X572284Y320275D01*
X571831Y321369D01*
X571109Y322309D01*
X570169Y323031D01*
X569075Y323484D01*
X567900Y323639D01*
X566725Y323484D01*
X565631Y323031D01*
X565246Y322736D01*
X565009Y322833D01*
X564797Y323021D01*
X564939Y324100D01*
X564797Y325179D01*
X565009Y325367D01*
X565246Y325464D01*
X565631Y325169D01*
X566725Y324716D01*
X567900Y324561D01*
X569075Y324716D01*
X570169Y325169D01*
X571109Y325891D01*
X571831Y326831D01*
X572284Y327925D01*
X572439Y329100D01*
X572284Y330275D01*
X571831Y331369D01*
X571109Y332309D01*
X570169Y333031D01*
X569075Y333484D01*
X567900Y333639D01*
X566725Y333484D01*
X565631Y333031D01*
X565246Y332736D01*
X565009Y332833D01*
X564797Y333021D01*
X564939Y334100D01*
X564797Y335179D01*
X565009Y335367D01*
X565246Y335464D01*
X565631Y335169D01*
X566725Y334716D01*
X567900Y334561D01*
X569075Y334716D01*
X570169Y335169D01*
X571109Y335891D01*
X571831Y336831D01*
X572284Y337925D01*
X572439Y339100D01*
X572284Y340275D01*
X571831Y341369D01*
X571109Y342309D01*
X570169Y343031D01*
X569075Y343484D01*
X567900Y343639D01*
X566725Y343484D01*
X565631Y343031D01*
X564691Y342309D01*
X563969Y341369D01*
X563516Y340275D01*
X563361Y339100D01*
X563503Y338021D01*
X563291Y337833D01*
X563054Y337736D01*
X562669Y338031D01*
X561575Y338484D01*
X560400Y338639D01*
X559225Y338484D01*
X558131Y338031D01*
X557746Y337736D01*
X557509Y337833D01*
X557297Y338021D01*
X557439Y339100D01*
X557284Y340275D01*
X556831Y341369D01*
X556109Y342309D01*
X555169Y343031D01*
X554075Y343484D01*
X552900Y343639D01*
X551725Y343484D01*
X550631Y343031D01*
X550246Y342736D01*
X550009Y342833D01*
X549797Y343021D01*
X549939Y344100D01*
X549797Y345179D01*
X550009Y345367D01*
X550246Y345464D01*
X550631Y345169D01*
X551725Y344716D01*
X552900Y344561D01*
X554075Y344716D01*
X555169Y345169D01*
X556109Y345891D01*
X556831Y346831D01*
X557284Y347925D01*
X557439Y349100D01*
X557284Y350275D01*
X556831Y351369D01*
X556109Y352309D01*
X555169Y353031D01*
X554075Y353484D01*
X552900Y353639D01*
X551725Y353484D01*
X550631Y353031D01*
X550246Y352736D01*
X550009Y352833D01*
X549797Y353021D01*
X549939Y354100D01*
X549797Y355179D01*
X550009Y355367D01*
X550246Y355464D01*
X550631Y355169D01*
X551725Y354716D01*
X552900Y354561D01*
X554075Y354716D01*
X555169Y355169D01*
X556109Y355891D01*
X556831Y356831D01*
X557284Y357925D01*
X557439Y359100D01*
X557284Y360275D01*
X556831Y361369D01*
X556109Y362309D01*
X555169Y363031D01*
X554075Y363484D01*
X552900Y363639D01*
X551725Y363484D01*
X550631Y363031D01*
X550246Y362736D01*
X550009Y362833D01*
X549797Y363021D01*
X549939Y364100D01*
X549797Y365179D01*
X550009Y365367D01*
X550246Y365464D01*
X550631Y365169D01*
X551725Y364716D01*
X552900Y364561D01*
X554075Y364716D01*
X555169Y365169D01*
X556109Y365891D01*
X556831Y366831D01*
X557284Y367925D01*
X557439Y369100D01*
X557284Y370275D01*
X556831Y371369D01*
X556166Y372235D01*
X556561Y372539D01*
X560349Y376326D01*
X564356D01*
X564691Y375891D01*
X565631Y375169D01*
X566725Y374716D01*
X567900Y374561D01*
X569075Y374716D01*
X570169Y375169D01*
X571109Y375891D01*
X571831Y376831D01*
X572284Y377925D01*
X572439Y379100D01*
X572284Y380275D01*
X571831Y381369D01*
X571109Y382309D01*
X570169Y383031D01*
X569075Y383484D01*
X567900Y383639D01*
X566725Y383484D01*
X565631Y383031D01*
X565246Y382736D01*
X565009Y382833D01*
X564797Y383021D01*
X564939Y384100D01*
X564797Y385179D01*
X565009Y385367D01*
X565246Y385464D01*
X565631Y385169D01*
X566725Y384716D01*
X567900Y384561D01*
X569075Y384716D01*
X570169Y385169D01*
X571109Y385891D01*
X571831Y386831D01*
X572284Y387925D01*
X572439Y389100D01*
X572284Y390275D01*
X571831Y391369D01*
X571109Y392309D01*
X570169Y393031D01*
X569075Y393484D01*
X567900Y393639D01*
X566725Y393484D01*
X565631Y393031D01*
X565246Y392736D01*
X565009Y392833D01*
X564797Y393021D01*
X564939Y394100D01*
X564784Y395275D01*
X564331Y396369D01*
X563609Y397309D01*
X562669Y398031D01*
X561575Y398484D01*
X560400Y398639D01*
X559225Y398484D01*
X558131Y398031D01*
X557191Y397309D01*
X556469Y396369D01*
X556016Y395275D01*
X555861Y394100D01*
X556003Y393021D01*
X555791Y392833D01*
X555554Y392736D01*
X555169Y393031D01*
X554075Y393484D01*
X552900Y393639D01*
X551725Y393484D01*
X550631Y393031D01*
X550246Y392736D01*
X550009Y392833D01*
X549797Y393021D01*
X549939Y394100D01*
X549784Y395275D01*
X549331Y396369D01*
X548609Y397309D01*
X547669Y398031D01*
X546575Y398484D01*
X545400Y398639D01*
X544225Y398484D01*
X543131Y398031D01*
X542191Y397309D01*
X541469Y396369D01*
X541016Y395275D01*
X540861Y394100D01*
X541016Y392925D01*
X541469Y391831D01*
X541935Y391224D01*
X541688Y390724D01*
X501599D01*
X498380Y393942D01*
X498366Y394048D01*
X498039Y394839D01*
X497518Y395518D01*
X496839Y396039D01*
X496048Y396366D01*
X495479Y396441D01*
X495405Y396451D01*
X495438Y396951D01*
X497183D01*
X497561Y396661D01*
X498352Y396334D01*
X499200Y396222D01*
X500048Y396334D01*
X500839Y396661D01*
X501518Y397182D01*
X502039Y397861D01*
X502366Y398652D01*
X502478Y399500D01*
X502366Y400348D01*
X502039Y401139D01*
X501518Y401818D01*
X500839Y402339D01*
X500048Y402666D01*
X499200Y402778D01*
X498479Y402683D01*
X498238Y402951D01*
X498167Y403128D01*
X498466Y403852D01*
X498578Y404700D01*
X498466Y405548D01*
X498139Y406339D01*
X497618Y407018D01*
X496939Y407539D01*
X496148Y407866D01*
X495300Y407978D01*
D02*
G37*
G36*
X495000Y385378D02*
X494152Y385266D01*
X493361Y384939D01*
X492682Y384418D01*
X492161Y383739D01*
X491834Y382948D01*
X491722Y382100D01*
X491834Y381252D01*
X492125Y380549D01*
X491920Y380049D01*
X396700D01*
X395725Y379855D01*
X394898Y379302D01*
X367444Y351849D01*
X338400D01*
X337424Y351655D01*
X336598Y351102D01*
X319098Y333602D01*
X318545Y332775D01*
X318351Y331800D01*
Y298656D01*
X312024Y292329D01*
X311552Y292266D01*
X310761Y291939D01*
X310082Y291418D01*
X309561Y290739D01*
X309234Y289948D01*
X309122Y289100D01*
X309234Y288252D01*
X309561Y287461D01*
X310082Y286782D01*
X310761Y286261D01*
X311552Y285934D01*
X312400Y285822D01*
X313248Y285934D01*
X314039Y286261D01*
X314718Y286782D01*
X315239Y287461D01*
X315566Y288252D01*
X315629Y288724D01*
X322702Y295798D01*
X323255Y296624D01*
X323449Y297600D01*
Y330744D01*
X339456Y346751D01*
X368500D01*
X369476Y346945D01*
X370302Y347498D01*
X397756Y374951D01*
X497083D01*
X497461Y374661D01*
X498252Y374334D01*
X499100Y374222D01*
X499948Y374334D01*
X500739Y374661D01*
X501418Y375182D01*
X501939Y375861D01*
X502266Y376652D01*
X502378Y377500D01*
X502266Y378348D01*
X501939Y379139D01*
X501418Y379818D01*
X500739Y380339D01*
X499948Y380666D01*
X499100Y380778D01*
X498478Y380696D01*
X498111Y381119D01*
X498166Y381252D01*
X498278Y382100D01*
X498166Y382948D01*
X497839Y383739D01*
X497318Y384418D01*
X496639Y384939D01*
X495848Y385266D01*
X495000Y385378D01*
D02*
G37*
G36*
X457300Y372478D02*
X456452Y372366D01*
X455661Y372039D01*
X454982Y371518D01*
X454461Y370839D01*
X454134Y370048D01*
X454022Y369200D01*
X454134Y368352D01*
X454461Y367561D01*
X454982Y366882D01*
X455661Y366361D01*
X456452Y366034D01*
X457300Y365922D01*
X458148Y366034D01*
X458939Y366361D01*
X459618Y366882D01*
X460139Y367561D01*
X460466Y368352D01*
X460578Y369200D01*
X460466Y370048D01*
X460139Y370839D01*
X459618Y371518D01*
X458939Y372039D01*
X458148Y372366D01*
X457300Y372478D01*
D02*
G37*
G36*
X567900Y373639D02*
X566725Y373484D01*
X565631Y373031D01*
X564691Y372309D01*
X563969Y371369D01*
X563516Y370275D01*
X563361Y369100D01*
X563516Y367925D01*
X563969Y366831D01*
X564691Y365891D01*
X565631Y365169D01*
X566725Y364716D01*
X567900Y364561D01*
X569075Y364716D01*
X570169Y365169D01*
X571109Y365891D01*
X571831Y366831D01*
X572284Y367925D01*
X572439Y369100D01*
X572284Y370275D01*
X571831Y371369D01*
X571109Y372309D01*
X570169Y373031D01*
X569075Y373484D01*
X567900Y373639D01*
D02*
G37*
G36*
X368900Y386034D02*
X367528Y385899D01*
X366208Y385498D01*
X364992Y384848D01*
X363926Y383974D01*
X363052Y382908D01*
X362402Y381692D01*
X362001Y380372D01*
X361866Y379000D01*
X362001Y377628D01*
X362402Y376308D01*
X363052Y375092D01*
X363926Y374026D01*
X364797Y373311D01*
X364832Y373228D01*
Y372772D01*
X364797Y372689D01*
X363926Y371974D01*
X363052Y370908D01*
X362402Y369692D01*
X362001Y368372D01*
X361866Y367000D01*
X362001Y365628D01*
X362402Y364308D01*
X363052Y363092D01*
X363926Y362026D01*
X364992Y361152D01*
X366208Y360502D01*
X367528Y360101D01*
X368900Y359966D01*
X370272Y360101D01*
X371592Y360502D01*
X372808Y361152D01*
X373874Y362026D01*
X374748Y363092D01*
X375398Y364308D01*
X375799Y365628D01*
X375934Y367000D01*
X375799Y368372D01*
X375398Y369692D01*
X374748Y370908D01*
X373874Y371974D01*
X373003Y372689D01*
X372968Y372772D01*
Y373228D01*
X373003Y373311D01*
X373874Y374026D01*
X374748Y375092D01*
X375398Y376308D01*
X375799Y377628D01*
X375934Y379000D01*
X375799Y380372D01*
X375398Y381692D01*
X374748Y382908D01*
X373874Y383974D01*
X372808Y384848D01*
X371592Y385498D01*
X370272Y385899D01*
X368900Y386034D01*
D02*
G37*
G36*
X308900D02*
X307528Y385899D01*
X306208Y385498D01*
X304992Y384848D01*
X303926Y383974D01*
X303051Y382908D01*
X302401Y381692D01*
X302001Y380372D01*
X301866Y379000D01*
X302001Y377628D01*
X302401Y376308D01*
X303051Y375092D01*
X303926Y374026D01*
X304798Y373311D01*
X304832Y373228D01*
Y372772D01*
X304798Y372689D01*
X303926Y371974D01*
X303051Y370908D01*
X302401Y369692D01*
X302001Y368372D01*
X301866Y367000D01*
X302001Y365628D01*
X302401Y364308D01*
X303051Y363092D01*
X303926Y362026D01*
X304992Y361152D01*
X306208Y360502D01*
X307528Y360101D01*
X308900Y359966D01*
X310272Y360101D01*
X311592Y360502D01*
X312808Y361152D01*
X313874Y362026D01*
X314749Y363092D01*
X315399Y364308D01*
X315799Y365628D01*
X315934Y367000D01*
X315799Y368372D01*
X315399Y369692D01*
X314749Y370908D01*
X313874Y371974D01*
X313002Y372689D01*
X312968Y372772D01*
Y373228D01*
X313002Y373311D01*
X313874Y374026D01*
X314749Y375092D01*
X315399Y376308D01*
X315799Y377628D01*
X315934Y379000D01*
X315799Y380372D01*
X315399Y381692D01*
X314749Y382908D01*
X313874Y383974D01*
X312808Y384848D01*
X311592Y385498D01*
X310272Y385899D01*
X308900Y386034D01*
D02*
G37*
G36*
X432300Y352278D02*
X431452Y352166D01*
X430661Y351839D01*
X429982Y351318D01*
X429461Y350639D01*
X429134Y349848D01*
X429022Y349000D01*
X429134Y348152D01*
X429461Y347361D01*
X429982Y346682D01*
X430661Y346161D01*
X431452Y345834D01*
X432300Y345722D01*
X433148Y345834D01*
X433939Y346161D01*
X434618Y346682D01*
X435139Y347361D01*
X435466Y348152D01*
X435578Y349000D01*
X435466Y349848D01*
X435139Y350639D01*
X434618Y351318D01*
X433939Y351839D01*
X433148Y352166D01*
X432300Y352278D01*
D02*
G37*
G36*
X567900Y353639D02*
X566725Y353484D01*
X565631Y353031D01*
X564691Y352309D01*
X563969Y351369D01*
X563516Y350275D01*
X563361Y349100D01*
X563516Y347925D01*
X563969Y346831D01*
X564691Y345891D01*
X565631Y345169D01*
X566725Y344716D01*
X567900Y344561D01*
X569075Y344716D01*
X570169Y345169D01*
X571109Y345891D01*
X571831Y346831D01*
X572284Y347925D01*
X572439Y349100D01*
X572284Y350275D01*
X571831Y351369D01*
X571109Y352309D01*
X570169Y353031D01*
X569075Y353484D01*
X567900Y353639D01*
D02*
G37*
G36*
X485100Y348595D02*
X484252Y348483D01*
X483461Y348155D01*
X482782Y347635D01*
X482261Y346956D01*
X481934Y346165D01*
X481822Y345317D01*
X481934Y344468D01*
X482261Y343677D01*
X482782Y342999D01*
X483461Y342478D01*
X484252Y342150D01*
X485100Y342038D01*
X485948Y342150D01*
X486739Y342478D01*
X487418Y342999D01*
X487939Y343677D01*
X488266Y344468D01*
X488378Y345317D01*
X488266Y346165D01*
X487939Y346956D01*
X487418Y347635D01*
X486739Y348155D01*
X485948Y348483D01*
X485100Y348595D01*
D02*
G37*
G36*
X495100Y341178D02*
X494252Y341066D01*
X493461Y340739D01*
X492782Y340218D01*
X492261Y339539D01*
X491934Y338748D01*
X491822Y337900D01*
X491934Y337052D01*
X492142Y336549D01*
X491820Y336049D01*
X389148D01*
X389018Y336218D01*
X388339Y336739D01*
X387548Y337066D01*
X386700Y337178D01*
X385852Y337066D01*
X385061Y336739D01*
X384382Y336218D01*
X383861Y335539D01*
X383534Y334748D01*
X383422Y333900D01*
X383534Y333052D01*
X383861Y332261D01*
X384331Y331649D01*
X384208Y331149D01*
X377256D01*
X375429Y332976D01*
X375366Y333448D01*
X375039Y334239D01*
X374518Y334918D01*
X373839Y335439D01*
X373048Y335766D01*
X372200Y335878D01*
X371352Y335766D01*
X370561Y335439D01*
X369882Y334918D01*
X369361Y334239D01*
X369034Y333448D01*
X368922Y332600D01*
X369034Y331752D01*
X369361Y330961D01*
X369882Y330282D01*
X370561Y329761D01*
X371352Y329434D01*
X371824Y329372D01*
X374398Y326798D01*
X375224Y326245D01*
X376200Y326051D01*
X426307D01*
X426381Y325551D01*
X426208Y325499D01*
X424992Y324849D01*
X423926Y323974D01*
X423052Y322908D01*
X422402Y321692D01*
X422001Y320372D01*
X421866Y319000D01*
X422001Y317628D01*
X422402Y316308D01*
X423052Y315092D01*
X423926Y314026D01*
X424797Y313311D01*
X424832Y313228D01*
Y312772D01*
X424797Y312689D01*
X423926Y311974D01*
X423052Y310908D01*
X422402Y309692D01*
X422001Y308372D01*
X421866Y307000D01*
X422001Y305628D01*
X422402Y304308D01*
X423052Y303092D01*
X423926Y302026D01*
X424992Y301151D01*
X426208Y300501D01*
X427528Y300101D01*
X428900Y299966D01*
X430272Y300101D01*
X431592Y300501D01*
X432808Y301151D01*
X433874Y302026D01*
X434748Y303092D01*
X435398Y304308D01*
X435799Y305628D01*
X435934Y307000D01*
X435799Y308372D01*
X435398Y309692D01*
X434748Y310908D01*
X433874Y311974D01*
X433003Y312689D01*
X432968Y312772D01*
Y313228D01*
X433003Y313311D01*
X433874Y314026D01*
X434748Y315092D01*
X435398Y316308D01*
X435799Y317628D01*
X435934Y319000D01*
X435799Y320372D01*
X435398Y321692D01*
X434748Y322908D01*
X433874Y323974D01*
X432808Y324849D01*
X431592Y325499D01*
X431419Y325551D01*
X431493Y326051D01*
X441144D01*
X457698Y309498D01*
X458525Y308945D01*
X459500Y308751D01*
X495162D01*
X495195Y308251D01*
X495121Y308241D01*
X494552Y308166D01*
X493761Y307839D01*
X493082Y307318D01*
X492561Y306639D01*
X492234Y305848D01*
X492122Y305000D01*
X492234Y304152D01*
X492561Y303361D01*
X493082Y302682D01*
X493761Y302161D01*
X494552Y301834D01*
X495400Y301722D01*
X496248Y301834D01*
X497039Y302161D01*
X497718Y302682D01*
X498239Y303361D01*
X498566Y304152D01*
X498678Y305000D01*
X498566Y305848D01*
X498239Y306639D01*
X497718Y307318D01*
X497039Y307839D01*
X496248Y308166D01*
X495679Y308241D01*
X495605Y308251D01*
X495638Y308751D01*
X496983D01*
X497361Y308461D01*
X498152Y308134D01*
X499000Y308022D01*
X499848Y308134D01*
X500639Y308461D01*
X501318Y308982D01*
X501839Y309661D01*
X502166Y310452D01*
X502278Y311300D01*
X502166Y312148D01*
X501839Y312939D01*
X501318Y313618D01*
X500639Y314139D01*
X499848Y314466D01*
X499000Y314578D01*
X498718Y314541D01*
X498396Y314862D01*
X498378Y315001D01*
X498266Y315848D01*
X497939Y316639D01*
X497418Y317318D01*
X496739Y317839D01*
X495948Y318166D01*
X495100Y318278D01*
X494252Y318166D01*
X493461Y317839D01*
X492782Y317318D01*
X492261Y316639D01*
X491934Y315848D01*
X491822Y315000D01*
X491908Y314349D01*
X491575Y313849D01*
X460556D01*
X444002Y330402D01*
X443897Y330473D01*
X444043Y330951D01*
X497183D01*
X497561Y330661D01*
X498352Y330334D01*
X499200Y330222D01*
X500048Y330334D01*
X500839Y330661D01*
X501518Y331182D01*
X502039Y331861D01*
X502366Y332652D01*
X502478Y333500D01*
X502366Y334348D01*
X502039Y335139D01*
X501518Y335818D01*
X500839Y336339D01*
X500048Y336666D01*
X499200Y336778D01*
X498665Y336708D01*
X498481Y336867D01*
X498280Y337159D01*
X498378Y337900D01*
X498266Y338748D01*
X497939Y339539D01*
X497418Y340218D01*
X496739Y340739D01*
X495948Y341066D01*
X495100Y341178D01*
D02*
G37*
G36*
X495400Y329978D02*
X494552Y329866D01*
X493761Y329539D01*
X493082Y329018D01*
X492561Y328339D01*
X492234Y327548D01*
X492122Y326700D01*
X492234Y325852D01*
X492561Y325061D01*
X493082Y324382D01*
X493761Y323861D01*
X494552Y323534D01*
X495400Y323422D01*
X496248Y323534D01*
X497039Y323861D01*
X497718Y324382D01*
X498239Y325061D01*
X498566Y325852D01*
X498678Y326700D01*
X498566Y327548D01*
X498239Y328339D01*
X497718Y329018D01*
X497039Y329539D01*
X496248Y329866D01*
X495400Y329978D01*
D02*
G37*
G36*
X485200Y326038D02*
X484352Y325926D01*
X483561Y325599D01*
X482882Y325078D01*
X482361Y324399D01*
X482034Y323608D01*
X481922Y322760D01*
X482034Y321911D01*
X482361Y321121D01*
X482882Y320442D01*
X483561Y319921D01*
X484352Y319594D01*
X485200Y319482D01*
X486048Y319594D01*
X486839Y319921D01*
X487518Y320442D01*
X488039Y321121D01*
X488366Y321911D01*
X488478Y322760D01*
X488366Y323608D01*
X488039Y324399D01*
X487518Y325078D01*
X486839Y325599D01*
X486048Y325926D01*
X485200Y326038D01*
D02*
G37*
G36*
X368900Y326034D02*
X367528Y325899D01*
X366208Y325499D01*
X364992Y324849D01*
X363926Y323974D01*
X363052Y322908D01*
X362402Y321692D01*
X362001Y320372D01*
X361866Y319000D01*
X362001Y317628D01*
X362402Y316308D01*
X363052Y315092D01*
X363926Y314026D01*
X364797Y313311D01*
X364832Y313228D01*
Y312772D01*
X364797Y312689D01*
X363926Y311974D01*
X363052Y310908D01*
X362402Y309692D01*
X362001Y308372D01*
X361866Y307000D01*
X362001Y305628D01*
X362402Y304308D01*
X363052Y303092D01*
X363926Y302026D01*
X364992Y301151D01*
X366208Y300501D01*
X367528Y300101D01*
X368900Y299966D01*
X370272Y300101D01*
X371592Y300501D01*
X372808Y301151D01*
X373874Y302026D01*
X374748Y303092D01*
X375398Y304308D01*
X375799Y305628D01*
X375934Y307000D01*
X375799Y308372D01*
X375398Y309692D01*
X374748Y310908D01*
X373874Y311974D01*
X373003Y312689D01*
X372968Y312772D01*
Y313228D01*
X373003Y313311D01*
X373874Y314026D01*
X374748Y315092D01*
X375398Y316308D01*
X375799Y317628D01*
X375934Y319000D01*
X375799Y320372D01*
X375398Y321692D01*
X374748Y322908D01*
X373874Y323974D01*
X372808Y324849D01*
X371592Y325499D01*
X370272Y325899D01*
X368900Y326034D01*
D02*
G37*
G36*
X308900D02*
X307528Y325899D01*
X306208Y325499D01*
X304992Y324849D01*
X303926Y323974D01*
X303051Y322908D01*
X302401Y321692D01*
X302001Y320372D01*
X301866Y319000D01*
X302001Y317628D01*
X302401Y316308D01*
X303051Y315092D01*
X303926Y314026D01*
X304798Y313311D01*
X304832Y313228D01*
Y312772D01*
X304798Y312689D01*
X303926Y311974D01*
X303051Y310908D01*
X302401Y309692D01*
X302001Y308372D01*
X301866Y307000D01*
X302001Y305628D01*
X302401Y304308D01*
X303051Y303092D01*
X303926Y302026D01*
X304992Y301151D01*
X306208Y300501D01*
X307528Y300101D01*
X308900Y299966D01*
X310272Y300101D01*
X311592Y300501D01*
X312808Y301151D01*
X313874Y302026D01*
X314749Y303092D01*
X315399Y304308D01*
X315799Y305628D01*
X315934Y307000D01*
X315799Y308372D01*
X315399Y309692D01*
X314749Y310908D01*
X313874Y311974D01*
X313002Y312689D01*
X312968Y312772D01*
Y313228D01*
X313002Y313311D01*
X313874Y314026D01*
X314749Y315092D01*
X315399Y316308D01*
X315799Y317628D01*
X315934Y319000D01*
X315799Y320372D01*
X315399Y321692D01*
X314749Y322908D01*
X313874Y323974D01*
X312808Y324849D01*
X311592Y325499D01*
X310272Y325899D01*
X308900Y326034D01*
D02*
G37*
G36*
X485000Y304378D02*
X484152Y304266D01*
X483361Y303939D01*
X482682Y303418D01*
X482161Y302739D01*
X481834Y301948D01*
X481722Y301100D01*
X481834Y300252D01*
X482161Y299461D01*
X482682Y298782D01*
X483361Y298261D01*
X484152Y297934D01*
X485000Y297822D01*
X485848Y297934D01*
X486639Y298261D01*
X487318Y298782D01*
X487839Y299461D01*
X488166Y300252D01*
X488278Y301100D01*
X488166Y301948D01*
X487839Y302739D01*
X487318Y303418D01*
X486639Y303939D01*
X485848Y304266D01*
X485000Y304378D01*
D02*
G37*
G36*
X348900Y298478D02*
X348052Y298366D01*
X347261Y298039D01*
X346582Y297518D01*
X346061Y296839D01*
X345734Y296048D01*
X345622Y295200D01*
X345734Y294352D01*
X346061Y293561D01*
X346582Y292882D01*
X347261Y292361D01*
X348052Y292034D01*
X348900Y291922D01*
X349748Y292034D01*
X350539Y292361D01*
X351218Y292882D01*
X351739Y293561D01*
X352066Y294352D01*
X352178Y295200D01*
X352066Y296048D01*
X351739Y296839D01*
X351218Y297518D01*
X350539Y298039D01*
X349748Y298366D01*
X348900Y298478D01*
D02*
G37*
G36*
X391900Y298278D02*
X391052Y298166D01*
X390261Y297839D01*
X389582Y297318D01*
X389061Y296639D01*
X388734Y295848D01*
X388622Y295000D01*
X388734Y294152D01*
X389061Y293361D01*
X389582Y292682D01*
X390261Y292161D01*
X391052Y291834D01*
X391900Y291722D01*
X392748Y291834D01*
X393539Y292161D01*
X394218Y292682D01*
X394739Y293361D01*
X395066Y294152D01*
X395178Y295000D01*
X395066Y295848D01*
X394739Y296639D01*
X394218Y297318D01*
X393539Y297839D01*
X392748Y298166D01*
X391900Y298278D01*
D02*
G37*
G36*
X267100Y297978D02*
X266252Y297866D01*
X265461Y297539D01*
X264782Y297018D01*
X264261Y296339D01*
X263934Y295548D01*
X263822Y294700D01*
X263934Y293852D01*
X264261Y293061D01*
X264782Y292382D01*
X265461Y291861D01*
X266252Y291534D01*
X267100Y291422D01*
X267948Y291534D01*
X268739Y291861D01*
X269418Y292382D01*
X269939Y293061D01*
X270266Y293852D01*
X270378Y294700D01*
X270266Y295548D01*
X269939Y296339D01*
X269418Y297018D01*
X268739Y297539D01*
X267948Y297866D01*
X267100Y297978D01*
D02*
G37*
G36*
X334400Y297778D02*
X333552Y297666D01*
X332761Y297339D01*
X332082Y296818D01*
X331561Y296139D01*
X331234Y295348D01*
X331122Y294500D01*
X331234Y293652D01*
X331561Y292861D01*
X332082Y292182D01*
X332761Y291661D01*
X333552Y291334D01*
X334400Y291222D01*
X335248Y291334D01*
X336039Y291661D01*
X336718Y292182D01*
X337239Y292861D01*
X337566Y293652D01*
X337678Y294500D01*
X337566Y295348D01*
X337239Y296139D01*
X336718Y296818D01*
X336039Y297339D01*
X335248Y297666D01*
X334400Y297778D01*
D02*
G37*
G36*
X495100Y296378D02*
X494252Y296266D01*
X493461Y295939D01*
X492782Y295418D01*
X492261Y294739D01*
X491934Y293948D01*
X491822Y293100D01*
X491934Y292252D01*
X492261Y291461D01*
X492731Y290849D01*
X492608Y290349D01*
X378456D01*
X376502Y292302D01*
X375676Y292855D01*
X374700Y293049D01*
X374517D01*
X374139Y293339D01*
X373348Y293666D01*
X372500Y293778D01*
X371652Y293666D01*
X370861Y293339D01*
X370182Y292818D01*
X369661Y292139D01*
X369334Y291348D01*
X369222Y290500D01*
X369334Y289652D01*
X369661Y288861D01*
X370182Y288182D01*
X370861Y287661D01*
X371652Y287334D01*
X372500Y287222D01*
X373348Y287334D01*
X373994Y287601D01*
X375598Y285998D01*
X376425Y285445D01*
X377400Y285251D01*
X493246D01*
X493416Y284751D01*
X492982Y284418D01*
X492461Y283739D01*
X492134Y282948D01*
X492022Y282100D01*
X492134Y281252D01*
X492461Y280461D01*
X492982Y279782D01*
X493661Y279261D01*
X494452Y278934D01*
X495300Y278822D01*
X496148Y278934D01*
X496939Y279261D01*
X497618Y279782D01*
X498139Y280461D01*
X498466Y281252D01*
X498578Y282100D01*
X498466Y282948D01*
X498139Y283739D01*
X497618Y284418D01*
X497537Y284480D01*
X497648Y285025D01*
X497820Y285069D01*
X497961Y284961D01*
X498752Y284634D01*
X499600Y284522D01*
X500448Y284634D01*
X501239Y284961D01*
X501918Y285482D01*
X502439Y286161D01*
X502766Y286952D01*
X502878Y287800D01*
X502766Y288648D01*
X502439Y289439D01*
X501918Y290118D01*
X501239Y290639D01*
X500448Y290966D01*
X499600Y291078D01*
X498752Y290966D01*
X497961Y290639D01*
X497906Y290597D01*
X497549Y290953D01*
X497939Y291461D01*
X498266Y292252D01*
X498378Y293100D01*
X498266Y293948D01*
X497939Y294739D01*
X497418Y295418D01*
X496739Y295939D01*
X495948Y296266D01*
X495100Y296378D01*
D02*
G37*
G36*
X485100Y281278D02*
X484252Y281166D01*
X483461Y280839D01*
X482782Y280318D01*
X482261Y279639D01*
X481934Y278848D01*
X481822Y278000D01*
X481934Y277152D01*
X482261Y276361D01*
X482782Y275682D01*
X483461Y275161D01*
X484252Y274834D01*
X485100Y274722D01*
X485948Y274834D01*
X486739Y275161D01*
X487418Y275682D01*
X487939Y276361D01*
X488266Y277152D01*
X488378Y278000D01*
X488266Y278848D01*
X487939Y279639D01*
X487418Y280318D01*
X486739Y280839D01*
X485948Y281166D01*
X485100Y281278D01*
D02*
G37*
G36*
X567900Y363639D02*
X566725Y363484D01*
X565631Y363031D01*
X564691Y362309D01*
X563969Y361369D01*
X563516Y360275D01*
X563361Y359100D01*
X563516Y357925D01*
X563969Y356831D01*
X564691Y355891D01*
X565631Y355169D01*
X566725Y354716D01*
X567900Y354561D01*
X569075Y354716D01*
X570169Y355169D01*
X571109Y355891D01*
X571444Y356326D01*
X571951D01*
X574826Y353451D01*
Y255349D01*
X572851Y253374D01*
X538449D01*
X526061Y265761D01*
X525487Y266202D01*
X524818Y266479D01*
X524100Y266574D01*
X502739D01*
X502396Y267074D01*
X502478Y267700D01*
X502366Y268548D01*
X502039Y269339D01*
X501518Y270018D01*
X500839Y270539D01*
X500048Y270866D01*
X499200Y270978D01*
X499017Y270954D01*
X498548Y271332D01*
X498466Y271948D01*
X498139Y272739D01*
X497618Y273418D01*
X496939Y273939D01*
X496148Y274266D01*
X495300Y274378D01*
X494452Y274266D01*
X493661Y273939D01*
X492982Y273418D01*
X492461Y272739D01*
X492134Y271948D01*
X492022Y271100D01*
X492068Y270749D01*
X491630Y270249D01*
X420871D01*
X420818Y270318D01*
X420139Y270839D01*
X419348Y271166D01*
X418500Y271278D01*
X417652Y271166D01*
X416861Y270839D01*
X416182Y270318D01*
X415661Y269639D01*
X415334Y268848D01*
X415222Y268000D01*
X415334Y267152D01*
X415661Y266361D01*
X416182Y265682D01*
X416861Y265161D01*
X417652Y264834D01*
X418500Y264722D01*
X419348Y264834D01*
X420115Y265151D01*
X424573D01*
X424752Y264651D01*
X423926Y263974D01*
X423052Y262908D01*
X422402Y261692D01*
X422001Y260372D01*
X421866Y259000D01*
X422001Y257628D01*
X422402Y256308D01*
X423052Y255092D01*
X423926Y254026D01*
X424797Y253311D01*
X424832Y253228D01*
Y252772D01*
X424797Y252689D01*
X423926Y251974D01*
X423052Y250908D01*
X422402Y249692D01*
X422001Y248372D01*
X421866Y247000D01*
X422001Y245628D01*
X422402Y244308D01*
X423052Y243092D01*
X423926Y242026D01*
X424992Y241151D01*
X426208Y240501D01*
X427528Y240101D01*
X428900Y239966D01*
X430272Y240101D01*
X431592Y240501D01*
X432808Y241151D01*
X433874Y242026D01*
X434748Y243092D01*
X435398Y244308D01*
X435799Y245628D01*
X435934Y247000D01*
X435799Y248372D01*
X435398Y249692D01*
X434748Y250908D01*
X433874Y251974D01*
X433003Y252689D01*
X432968Y252772D01*
Y253228D01*
X433003Y253311D01*
X433874Y254026D01*
X434748Y255092D01*
X435398Y256308D01*
X435799Y257628D01*
X435837Y258014D01*
X438549Y260726D01*
X440218D01*
X440518Y260226D01*
X440422Y259500D01*
X440534Y258652D01*
X440861Y257861D01*
X441382Y257182D01*
X442061Y256661D01*
X442852Y256334D01*
X443700Y256222D01*
X444548Y256334D01*
X445339Y256661D01*
X445717Y256951D01*
X448744D01*
X454298Y251398D01*
X455125Y250845D01*
X456100Y250651D01*
X492844D01*
X494669Y248826D01*
X494490Y248298D01*
X494252Y248266D01*
X493461Y247939D01*
X492782Y247418D01*
X492261Y246739D01*
X491934Y245948D01*
X491822Y245100D01*
X491934Y244252D01*
X492261Y243461D01*
X492782Y242782D01*
X493461Y242261D01*
X494252Y241934D01*
X495100Y241822D01*
X495948Y241934D01*
X496739Y242261D01*
X497418Y242782D01*
X497939Y243461D01*
X498266Y244252D01*
X498819Y244672D01*
X499200Y244622D01*
X500048Y244734D01*
X500839Y245061D01*
X501518Y245582D01*
X502039Y246261D01*
X502366Y247052D01*
X502478Y247900D01*
X502366Y248748D01*
X502039Y249539D01*
X501518Y250218D01*
X500839Y250739D01*
X500048Y251066D01*
X499576Y251129D01*
X495702Y255002D01*
X494875Y255555D01*
X493900Y255749D01*
X488783D01*
X488406Y256249D01*
X488478Y256800D01*
X488366Y257648D01*
X488039Y258439D01*
X487518Y259118D01*
X486839Y259639D01*
X486048Y259966D01*
X485200Y260078D01*
X484352Y259966D01*
X483561Y259639D01*
X482882Y259118D01*
X482361Y258439D01*
X482034Y257648D01*
X481922Y256800D01*
X481994Y256249D01*
X481617Y255749D01*
X478891D01*
X478774Y256006D01*
X478754Y256249D01*
X479261Y256639D01*
X483649Y261026D01*
X491838D01*
X492168Y260650D01*
X492122Y260300D01*
X492234Y259452D01*
X492561Y258661D01*
X493082Y257982D01*
X493761Y257461D01*
X494552Y257134D01*
X495400Y257022D01*
X496248Y257134D01*
X497039Y257461D01*
X497718Y257982D01*
X498239Y258661D01*
X498566Y259452D01*
X498678Y260300D01*
X498632Y260650D01*
X498962Y261026D01*
X522951D01*
X535339Y248639D01*
X535913Y248198D01*
X536582Y247921D01*
X537300Y247826D01*
X574000D01*
X574718Y247921D01*
X575387Y248198D01*
X575961Y248639D01*
X579561Y252239D01*
X580002Y252813D01*
X580279Y253482D01*
X580374Y254200D01*
Y354600D01*
X580279Y355318D01*
X580002Y355987D01*
X579561Y356561D01*
X575061Y361061D01*
X574487Y361502D01*
X573818Y361779D01*
X573100Y361874D01*
X571444D01*
X571109Y362309D01*
X570169Y363031D01*
X569075Y363484D01*
X567900Y363639D01*
D02*
G37*
G36*
X368900Y266034D02*
X367528Y265899D01*
X366208Y265498D01*
X364992Y264848D01*
X363926Y263974D01*
X363052Y262908D01*
X362402Y261692D01*
X362001Y260372D01*
X361866Y259000D01*
X362001Y257628D01*
X362402Y256308D01*
X363052Y255092D01*
X363926Y254026D01*
X364797Y253311D01*
X364832Y253228D01*
Y252772D01*
X364797Y252689D01*
X363926Y251974D01*
X363052Y250908D01*
X362402Y249692D01*
X362001Y248372D01*
X361866Y247000D01*
X362001Y245628D01*
X362402Y244308D01*
X363052Y243092D01*
X363926Y242026D01*
X364992Y241151D01*
X366208Y240501D01*
X367528Y240101D01*
X368900Y239966D01*
X370272Y240101D01*
X371592Y240501D01*
X372808Y241151D01*
X373874Y242026D01*
X374748Y243092D01*
X375398Y244308D01*
X375799Y245628D01*
X375934Y247000D01*
X375799Y248372D01*
X375398Y249692D01*
X374748Y250908D01*
X373874Y251974D01*
X373003Y252689D01*
X372968Y252772D01*
Y253228D01*
X373003Y253311D01*
X373874Y254026D01*
X374748Y255092D01*
X375398Y256308D01*
X375799Y257628D01*
X375934Y259000D01*
X375799Y260372D01*
X375398Y261692D01*
X374748Y262908D01*
X373874Y263974D01*
X372808Y264848D01*
X371592Y265498D01*
X370272Y265899D01*
X368900Y266034D01*
D02*
G37*
G36*
X308900D02*
X307528Y265899D01*
X306208Y265498D01*
X304992Y264848D01*
X303926Y263974D01*
X303051Y262908D01*
X302401Y261692D01*
X302001Y260372D01*
X301866Y259000D01*
X302001Y257628D01*
X302401Y256308D01*
X303051Y255092D01*
X303926Y254026D01*
X304798Y253311D01*
X304832Y253228D01*
Y252772D01*
X304798Y252689D01*
X303926Y251974D01*
X303051Y250908D01*
X302401Y249692D01*
X302001Y248372D01*
X301866Y247000D01*
X302001Y245628D01*
X302401Y244308D01*
X303051Y243092D01*
X303926Y242026D01*
X304992Y241151D01*
X306208Y240501D01*
X307528Y240101D01*
X308900Y239966D01*
X310272Y240101D01*
X311592Y240501D01*
X312808Y241151D01*
X313874Y242026D01*
X314749Y243092D01*
X315399Y244308D01*
X315799Y245628D01*
X315934Y247000D01*
X315799Y248372D01*
X315399Y249692D01*
X314749Y250908D01*
X313874Y251974D01*
X313002Y252689D01*
X312968Y252772D01*
Y253228D01*
X313002Y253311D01*
X313874Y254026D01*
X314749Y255092D01*
X315399Y256308D01*
X315799Y257628D01*
X315934Y259000D01*
X315799Y260372D01*
X315399Y261692D01*
X314749Y262908D01*
X313874Y263974D01*
X312808Y264848D01*
X311592Y265498D01*
X310272Y265899D01*
X308900Y266034D01*
D02*
G37*
G36*
X495300Y241078D02*
X494452Y240966D01*
X493661Y240639D01*
X492982Y240118D01*
X492461Y239439D01*
X492134Y238648D01*
X492022Y237800D01*
X492134Y236952D01*
X492461Y236161D01*
X492982Y235482D01*
X493661Y234961D01*
X494452Y234634D01*
X495300Y234522D01*
X496148Y234634D01*
X496939Y234961D01*
X497618Y235482D01*
X498139Y236161D01*
X498466Y236952D01*
X498578Y237800D01*
X498466Y238648D01*
X498139Y239439D01*
X497618Y240118D01*
X496939Y240639D01*
X496148Y240966D01*
X495300Y241078D01*
D02*
G37*
G36*
X399600Y240278D02*
X398752Y240166D01*
X397961Y239839D01*
X397282Y239318D01*
X396761Y238639D01*
X396434Y237848D01*
X396322Y237000D01*
X396434Y236152D01*
X396761Y235361D01*
X397282Y234682D01*
X397961Y234161D01*
X398752Y233834D01*
X399600Y233722D01*
X400448Y233834D01*
X401239Y234161D01*
X401918Y234682D01*
X402439Y235361D01*
X402766Y236152D01*
X402878Y237000D01*
X402766Y237848D01*
X402439Y238639D01*
X401918Y239318D01*
X401239Y239839D01*
X400448Y240166D01*
X399600Y240278D01*
D02*
G37*
G36*
X485300Y237178D02*
X484452Y237066D01*
X483661Y236739D01*
X482982Y236218D01*
X482461Y235539D01*
X482134Y234748D01*
X482022Y233900D01*
X482134Y233052D01*
X482461Y232261D01*
X482982Y231582D01*
X483661Y231061D01*
X484452Y230734D01*
X485300Y230622D01*
X486148Y230734D01*
X486939Y231061D01*
X487618Y231582D01*
X488139Y232261D01*
X488466Y233052D01*
X488578Y233900D01*
X488466Y234748D01*
X488139Y235539D01*
X487618Y236218D01*
X486939Y236739D01*
X486148Y237066D01*
X485300Y237178D01*
D02*
G37*
G36*
X556700Y467637D02*
X554817Y467489D01*
X552980Y467048D01*
X551235Y466325D01*
X549625Y465338D01*
X548188Y464112D01*
X546962Y462675D01*
X545975Y461065D01*
X545252Y459320D01*
X544811Y457483D01*
X544663Y455600D01*
X544811Y453717D01*
X545252Y451880D01*
X545975Y450135D01*
X546962Y448525D01*
X548188Y447088D01*
X549625Y445862D01*
X551235Y444875D01*
X552980Y444152D01*
X554817Y443711D01*
X556700Y443563D01*
X558583Y443711D01*
X560420Y444152D01*
X562165Y444875D01*
X563775Y445862D01*
X565211Y447088D01*
X566438Y448525D01*
X567425Y450135D01*
X568148Y451880D01*
X568251Y452309D01*
X568732Y452445D01*
X585326Y435851D01*
Y243049D01*
X572651Y230374D01*
X568375D01*
X568148Y231320D01*
X567425Y233065D01*
X566438Y234675D01*
X565211Y236111D01*
X563775Y237338D01*
X562165Y238325D01*
X560420Y239048D01*
X558583Y239489D01*
X556700Y239637D01*
X554817Y239489D01*
X552980Y239048D01*
X551235Y238325D01*
X549625Y237338D01*
X548188Y236111D01*
X546962Y234675D01*
X545975Y233065D01*
X545252Y231320D01*
X544811Y229483D01*
X544663Y227600D01*
X544811Y225717D01*
X545252Y223880D01*
X545975Y222135D01*
X546962Y220525D01*
X548188Y219089D01*
X549625Y217862D01*
X551235Y216875D01*
X552980Y216152D01*
X554817Y215711D01*
X556700Y215563D01*
X558583Y215711D01*
X560420Y216152D01*
X562165Y216875D01*
X563775Y217862D01*
X565211Y219089D01*
X566438Y220525D01*
X567425Y222135D01*
X568148Y223880D01*
X568375Y224826D01*
X573800D01*
X574518Y224921D01*
X575187Y225198D01*
X575761Y225639D01*
X590061Y239939D01*
X590502Y240513D01*
X590779Y241182D01*
X590874Y241900D01*
Y437000D01*
X590779Y437718D01*
X590502Y438387D01*
X590061Y438961D01*
X571461Y457561D01*
X570887Y458002D01*
X570218Y458279D01*
X569500Y458374D01*
X568375D01*
X568148Y459320D01*
X567425Y461065D01*
X566438Y462675D01*
X565211Y464112D01*
X563775Y465338D01*
X562165Y466325D01*
X560420Y467048D01*
X558583Y467489D01*
X556700Y467637D01*
D02*
G37*
G36*
X274800Y236378D02*
X273952Y236266D01*
X273161Y235939D01*
X272482Y235418D01*
X271961Y234739D01*
X271634Y233948D01*
X271522Y233100D01*
X271634Y232252D01*
X271961Y231461D01*
X272482Y230782D01*
X273161Y230261D01*
X273952Y229934D01*
X274800Y229822D01*
X275648Y229934D01*
X276439Y230261D01*
X277118Y230782D01*
X277639Y231461D01*
X277966Y232252D01*
X278078Y233100D01*
X277966Y233948D01*
X277639Y234739D01*
X277118Y235418D01*
X276439Y235939D01*
X275648Y236266D01*
X274800Y236378D01*
D02*
G37*
G36*
X338800Y235978D02*
X337952Y235866D01*
X337161Y235539D01*
X336482Y235018D01*
X335961Y234339D01*
X335634Y233548D01*
X335522Y232700D01*
X335634Y231852D01*
X335961Y231061D01*
X336482Y230382D01*
X337161Y229861D01*
X337952Y229534D01*
X338800Y229422D01*
X339648Y229534D01*
X340439Y229861D01*
X341118Y230382D01*
X341639Y231061D01*
X341966Y231852D01*
X342078Y232700D01*
X341966Y233548D01*
X341639Y234339D01*
X341118Y235018D01*
X340439Y235539D01*
X339648Y235866D01*
X338800Y235978D01*
D02*
G37*
G36*
X422200Y228978D02*
X421352Y228866D01*
X420561Y228539D01*
X419882Y228018D01*
X419361Y227339D01*
X419034Y226548D01*
X418922Y225700D01*
X419034Y224852D01*
X419361Y224061D01*
X419882Y223382D01*
X420561Y222861D01*
X421352Y222534D01*
X422200Y222422D01*
X423048Y222534D01*
X423839Y222861D01*
X424518Y223382D01*
X425039Y224061D01*
X425366Y224852D01*
X425478Y225700D01*
X425366Y226548D01*
X425039Y227339D01*
X424518Y228018D01*
X423839Y228539D01*
X423048Y228866D01*
X422200Y228978D01*
D02*
G37*
%LPD*%
G36*
X479466Y264689D02*
X476151Y261374D01*
X464949D01*
X461634Y264689D01*
X461825Y265151D01*
X479275D01*
X479466Y264689D01*
D02*
G37*
D10*
X470700Y475400D02*
X499900Y446200D01*
X313300Y475400D02*
X470700D01*
X312800Y474900D02*
X313300Y475400D01*
X459500Y423600D02*
X499700D01*
X456100Y420200D02*
X459500Y423600D01*
X320000Y420200D02*
X456100D01*
X312100Y412300D02*
X320000Y420200D01*
X339000Y399500D02*
X499200D01*
X325100Y385600D02*
X339000Y399500D01*
X312200Y350100D02*
Y353400D01*
X325100Y366300D01*
Y385600D01*
X396700Y377500D02*
X499100D01*
X312400Y289100D02*
X320900Y297600D01*
Y331800D01*
X338400Y349300D01*
X368500D01*
X396700Y377500D01*
X417600Y355800D02*
X499600D01*
X417300Y356100D02*
X417600Y355800D01*
X387100Y333500D02*
X499200D01*
X386700Y333900D02*
X387100Y333500D01*
X459500Y311300D02*
X499000D01*
X442200Y328600D02*
X459500Y311300D01*
X376200Y328600D02*
X442200D01*
X372200Y332600D02*
X376200Y328600D01*
X372500Y290500D02*
X374700D01*
X377400Y287800D01*
X499600D01*
X418800Y267700D02*
X499200D01*
X418500Y268000D02*
X418800Y267700D01*
X443700Y259500D02*
X449800D01*
X456100Y253200D01*
X493900D01*
X499200Y247900D01*
D32*
X428900Y259000D02*
X432900D01*
X437400Y263500D01*
X458900D01*
X463800Y258600D01*
X477300D01*
X482500Y263800D01*
X524100D01*
X537300Y250600D01*
X574000D01*
X577600Y254200D01*
Y354600D01*
X573100Y359100D02*
X577600Y354600D01*
X567900Y359100D02*
X573100D01*
X552455Y384100D02*
X560400D01*
X548605Y387950D02*
X552455Y384100D01*
X500450Y387950D02*
X548605D01*
X495200Y393200D02*
X500450Y387950D01*
X559200Y379100D02*
X567900D01*
X554600Y374500D02*
X559200Y379100D01*
X552055Y374500D02*
X554600D01*
X548355Y378200D02*
X552055Y374500D01*
X522400Y378200D02*
X548355D01*
X509800Y365600D02*
X522400Y378200D01*
X490245Y365600D02*
X509800D01*
X485145Y370700D02*
X490245Y365600D01*
X545400Y404100D02*
X560400D01*
X556700Y227600D02*
X573800D01*
X588100Y241900D01*
Y437000D01*
X569500Y455600D02*
X588100Y437000D01*
X556700Y455600D02*
X569500D01*
D33*
X428900Y247000D02*
D03*
Y259000D02*
D03*
X308900Y427000D02*
D03*
Y439000D02*
D03*
Y379000D02*
D03*
Y367000D02*
D03*
Y307000D02*
D03*
Y319000D02*
D03*
Y259000D02*
D03*
Y247000D02*
D03*
X368900Y427000D02*
D03*
Y439000D02*
D03*
Y379000D02*
D03*
Y367000D02*
D03*
Y307000D02*
D03*
Y319000D02*
D03*
Y259000D02*
D03*
Y247000D02*
D03*
X428900Y427000D02*
D03*
Y439000D02*
D03*
Y319000D02*
D03*
Y307000D02*
D03*
D34*
X556700Y455600D02*
D03*
Y227600D02*
D03*
D35*
X545400Y424100D02*
D03*
X552900Y419100D02*
D03*
X545400Y414100D02*
D03*
X552900Y409100D02*
D03*
X545400Y404100D02*
D03*
X552900Y399100D02*
D03*
X545400Y394100D02*
D03*
X552900Y389100D02*
D03*
X545400Y384100D02*
D03*
X552900Y379100D02*
D03*
X545400Y374100D02*
D03*
X552900Y369100D02*
D03*
X545400Y364100D02*
D03*
X552900Y359100D02*
D03*
X545400Y354100D02*
D03*
X552900Y349100D02*
D03*
X545400Y344100D02*
D03*
X552900Y339100D02*
D03*
X545400Y334100D02*
D03*
X552900Y329100D02*
D03*
X545400Y324100D02*
D03*
X552900Y319100D02*
D03*
X545400Y314100D02*
D03*
X552900Y309100D02*
D03*
X545400Y304100D02*
D03*
X552900Y299100D02*
D03*
X545400Y294100D02*
D03*
X552900Y289100D02*
D03*
X545400Y284100D02*
D03*
X552900Y279100D02*
D03*
X545400Y274100D02*
D03*
X552900Y269100D02*
D03*
X545400Y264100D02*
D03*
X552900Y259100D02*
D03*
X560400Y424100D02*
D03*
X567900Y419100D02*
D03*
X560400Y414100D02*
D03*
X567900Y409100D02*
D03*
X560400Y404100D02*
D03*
X567900Y399100D02*
D03*
X560400Y394100D02*
D03*
X567900Y389100D02*
D03*
X560400Y384100D02*
D03*
X567900Y379100D02*
D03*
X560400Y374100D02*
D03*
X567900Y369100D02*
D03*
X560400Y364100D02*
D03*
X567900Y359100D02*
D03*
X560400Y354100D02*
D03*
X567900Y349100D02*
D03*
X560400Y344100D02*
D03*
X567900Y339100D02*
D03*
X560400Y334100D02*
D03*
X567900Y329100D02*
D03*
X560400Y324100D02*
D03*
X567900Y319100D02*
D03*
X560400Y314100D02*
D03*
X567900Y309100D02*
D03*
X560400Y304100D02*
D03*
X567900Y299100D02*
D03*
X560400Y294100D02*
D03*
X567900Y289100D02*
D03*
X560400Y284100D02*
D03*
X567900Y279100D02*
D03*
X560400Y274100D02*
D03*
X567900Y269100D02*
D03*
X560400Y264100D02*
D03*
D36*
X567900Y259100D02*
D03*
D37*
X502526Y209573D02*
D03*
X274900D02*
D03*
X502526Y473353D02*
D03*
X274900Y473500D02*
D03*
X610892Y473353D02*
D03*
Y209573D02*
D03*
D38*
X297884Y456016D02*
D03*
X292600Y402200D02*
D03*
X293500Y342200D02*
D03*
X292800Y282400D02*
D03*
X353300Y462500D02*
D03*
X360300Y395700D02*
D03*
X353700Y342000D02*
D03*
X360500Y275200D02*
D03*
X417700Y456300D02*
D03*
X418100Y348800D02*
D03*
X475400Y442300D02*
D03*
X508000Y449800D02*
D03*
X495400Y438300D02*
D03*
X495300Y427000D02*
D03*
X410500Y416500D02*
D03*
X392600D02*
D03*
X475600Y419500D02*
D03*
X495300Y417300D02*
D03*
Y404700D02*
D03*
X507800Y425100D02*
D03*
X485300Y434458D02*
D03*
X485200Y412300D02*
D03*
X475400Y396700D02*
D03*
X507600Y402600D02*
D03*
X495200Y393200D02*
D03*
X495300Y370600D02*
D03*
X495000Y382100D02*
D03*
X485300Y389120D02*
D03*
Y233900D02*
D03*
X475900Y382300D02*
D03*
X475600Y367600D02*
D03*
X506600Y380300D02*
D03*
X495300Y237800D02*
D03*
Y349700D02*
D03*
X495400Y360300D02*
D03*
X475900Y352800D02*
D03*
X485100Y345317D02*
D03*
X475600Y337300D02*
D03*
X495100Y337900D02*
D03*
X495400Y326700D02*
D03*
X485200Y322760D02*
D03*
X475300Y315600D02*
D03*
X495400Y305000D02*
D03*
X485000Y301100D02*
D03*
X485145Y370700D02*
D03*
X507600Y358500D02*
D03*
X506900Y335600D02*
D03*
X495100Y315000D02*
D03*
X506400Y313400D02*
D03*
X475900Y293400D02*
D03*
X495100Y293100D02*
D03*
X495300Y282100D02*
D03*
X506200Y291200D02*
D03*
X485100Y278000D02*
D03*
X474100Y264100D02*
D03*
X495300Y271100D02*
D03*
X495400Y260300D02*
D03*
X506800Y269900D02*
D03*
X485200Y256800D02*
D03*
X473800Y241700D02*
D03*
X507200Y246600D02*
D03*
X495100Y245100D02*
D03*
X499900Y446200D02*
D03*
X312800Y474900D02*
D03*
X499700Y423600D02*
D03*
X312100Y412300D02*
D03*
X499200Y399500D02*
D03*
X312200Y350100D02*
D03*
X499100Y377500D02*
D03*
X312400Y289100D02*
D03*
X348900Y295200D02*
D03*
X334400Y294500D02*
D03*
X349400Y415100D02*
D03*
X334400Y415600D02*
D03*
X391900Y295000D02*
D03*
X267100Y294700D02*
D03*
X499600Y355800D02*
D03*
X417300Y356100D02*
D03*
X415500Y472400D02*
D03*
X499200Y333500D02*
D03*
X386700Y333900D02*
D03*
X380000Y410500D02*
D03*
X499000Y311300D02*
D03*
X372200Y332600D02*
D03*
X499600Y287800D02*
D03*
X372500Y290500D02*
D03*
X499200Y267700D02*
D03*
X418500Y268000D02*
D03*
X428900Y462400D02*
D03*
X499200Y247900D02*
D03*
X443700Y259500D02*
D03*
X432300Y349000D02*
D03*
X399600Y237000D02*
D03*
X274800Y233100D02*
D03*
X338800Y232700D02*
D03*
X422200Y225700D02*
D03*
X457300Y369200D02*
D03*
M02*
