G04*
G04 #@! TF.GenerationSoftware,Altium Limited,Altium Designer,19.0.15 (446)*
G04*
G04 Layer_Color=16711935*
%FSLAX25Y25*%
%MOIN*%
G70*
G01*
G75*
%ADD12C,0.00800*%
D12*
X395500Y285699D02*
Y283200D01*
X396000Y282700D01*
X397000D01*
X397499Y283200D01*
Y285699D01*
X398499Y282700D02*
X399499D01*
X398999D01*
Y285699D01*
X398499Y285199D01*
X400998Y285699D02*
Y282700D01*
X402498D01*
X402998Y283200D01*
Y285199D01*
X402498Y285699D01*
X400998D01*
X335500Y285399D02*
Y282900D01*
X336000Y282400D01*
X337000D01*
X337499Y282900D01*
Y285399D01*
X338499Y282400D02*
X339499D01*
X338999D01*
Y285399D01*
X338499Y284899D01*
X340998Y285399D02*
Y282400D01*
X342498D01*
X342998Y282900D01*
Y283400D01*
X342498Y283899D01*
X340998D01*
X342498D01*
X342998Y284399D01*
Y284899D01*
X342498Y285399D01*
X340998D01*
X335100Y404599D02*
Y402100D01*
X335600Y401600D01*
X336599D01*
X337099Y402100D01*
Y404599D01*
X338099Y401600D02*
X339099D01*
X338599D01*
Y404599D01*
X338099Y404099D01*
X340598Y401600D02*
Y403599D01*
X341598Y404599D01*
X342598Y403599D01*
Y401600D01*
Y403099D01*
X340598D01*
X395400Y302554D02*
Y305553D01*
X396900D01*
X397399Y305053D01*
Y304053D01*
X396900Y303553D01*
X395400D01*
X396400D02*
X397399Y302554D01*
X400398Y305553D02*
X399399Y305053D01*
X398399Y304053D01*
Y303053D01*
X398899Y302554D01*
X399899D01*
X400398Y303053D01*
Y303553D01*
X399899Y304053D01*
X398399D01*
X403397Y305553D02*
X401398D01*
Y302554D01*
X403397D01*
X401398Y304053D02*
X402398D01*
X357600Y280800D02*
Y283799D01*
X359100D01*
X359599Y283299D01*
Y282299D01*
X359100Y281800D01*
X357600D01*
X358600D02*
X359599Y280800D01*
X362598Y283799D02*
X360599D01*
Y282299D01*
X361599Y282799D01*
X362099D01*
X362598Y282299D01*
Y281300D01*
X362099Y280800D01*
X361099D01*
X360599Y281300D01*
X363598Y283799D02*
Y280800D01*
X365098D01*
X365597Y281300D01*
Y283299D01*
X365098Y283799D01*
X363598D01*
X357300Y401300D02*
Y404299D01*
X358800D01*
X359299Y403799D01*
Y402800D01*
X358800Y402300D01*
X357300D01*
X358300D02*
X359299Y401300D01*
X362298Y404299D02*
X360299D01*
Y402800D01*
X361299Y403299D01*
X361799D01*
X362298Y402800D01*
Y401800D01*
X361799Y401300D01*
X360799D01*
X360299Y401800D01*
X365297Y403799D02*
X364798Y404299D01*
X363798D01*
X363298Y403799D01*
Y401800D01*
X363798Y401300D01*
X364798D01*
X365297Y401800D01*
X394900Y422695D02*
Y425694D01*
X396399D01*
X396899Y425195D01*
Y424195D01*
X396399Y423695D01*
X394900D01*
X395900D02*
X396899Y422695D01*
X397899Y425195D02*
X398399Y425694D01*
X399398D01*
X399898Y425195D01*
Y424695D01*
X399398Y424195D01*
X398899D01*
X399398D01*
X399898Y423695D01*
Y423195D01*
X399398Y422695D01*
X398399D01*
X397899Y423195D01*
X402897Y425694D02*
X400898D01*
Y422695D01*
X402897D01*
X400898Y424195D02*
X401898D01*
X335400Y422837D02*
Y425836D01*
X336899D01*
X337399Y425336D01*
Y424336D01*
X336899Y423837D01*
X335400D01*
X336400D02*
X337399Y422837D01*
X338399Y425336D02*
X338899Y425836D01*
X339898D01*
X340398Y425336D01*
Y424836D01*
X339898Y424336D01*
X339399D01*
X339898D01*
X340398Y423837D01*
Y423337D01*
X339898Y422837D01*
X338899D01*
X338399Y423337D01*
X343397Y425336D02*
X342898Y425836D01*
X341898D01*
X341398Y425336D01*
Y423337D01*
X341898Y422837D01*
X342898D01*
X343397Y423337D01*
X373999Y283699D02*
X373499Y284199D01*
X372500D01*
X372000Y283699D01*
Y281700D01*
X372500Y281200D01*
X373499D01*
X373999Y281700D01*
X376998Y284199D02*
X375999Y283699D01*
X374999Y282699D01*
Y281700D01*
X375499Y281200D01*
X376499D01*
X376998Y281700D01*
Y282200D01*
X376499Y282699D01*
X374999D01*
X377998Y284199D02*
Y281200D01*
X379498D01*
X379997Y281700D01*
Y283699D01*
X379498Y284199D01*
X377998D01*
X372999Y403499D02*
X372499Y403999D01*
X371500D01*
X371000Y403499D01*
Y401500D01*
X371500Y401000D01*
X372499D01*
X372999Y401500D01*
X375998Y403999D02*
X374999Y403499D01*
X373999Y402499D01*
Y401500D01*
X374499Y401000D01*
X375499D01*
X375998Y401500D01*
Y402000D01*
X375499Y402499D01*
X373999D01*
X378997Y403499D02*
X378498Y403999D01*
X377498D01*
X376998Y403499D01*
Y401500D01*
X377498Y401000D01*
X378498D01*
X378997Y401500D01*
X313799Y284299D02*
X313299Y284799D01*
X312300D01*
X311800Y284299D01*
Y282300D01*
X312300Y281800D01*
X313299D01*
X313799Y282300D01*
X316798Y284799D02*
X315799Y284299D01*
X314799Y283299D01*
Y282300D01*
X315299Y281800D01*
X316299D01*
X316798Y282300D01*
Y282800D01*
X316299Y283299D01*
X314799D01*
X317798Y284799D02*
Y281800D01*
X319298D01*
X319797Y282300D01*
Y282800D01*
X319298Y283299D01*
X317798D01*
X319298D01*
X319797Y283799D01*
Y284299D01*
X319298Y284799D01*
X317798D01*
X312499Y404199D02*
X312000Y404699D01*
X311000D01*
X310500Y404199D01*
Y402200D01*
X311000Y401700D01*
X312000D01*
X312499Y402200D01*
X315498Y404699D02*
X314499Y404199D01*
X313499Y403199D01*
Y402200D01*
X313999Y401700D01*
X314999D01*
X315498Y402200D01*
Y402700D01*
X314999Y403199D01*
X313499D01*
X316498Y401700D02*
Y403699D01*
X317498Y404699D01*
X318497Y403699D01*
Y401700D01*
Y403199D01*
X316498D01*
M02*
