G04*
G04 #@! TF.GenerationSoftware,Altium Limited,Altium Designer,19.0.15 (446)*
G04*
G04 Layer_Color=8421504*
%FSLAX25Y25*%
%MOIN*%
G70*
G01*
G75*
%ADD13R,0.04921X0.01968*%
%ADD14R,0.03543X0.03740*%
%ADD15R,0.03543X0.03740*%
%ADD16R,0.07800X0.02400*%
%ADD17O,0.07800X0.02400*%
%ADD18R,0.05512X0.03740*%
%ADD19R,0.03740X0.05512*%
D13*
X499500Y233960D02*
D03*
Y237700D02*
D03*
Y241440D02*
D03*
X489185Y233960D02*
D03*
Y241440D02*
D03*
X499700Y434360D02*
D03*
Y438100D02*
D03*
Y441840D02*
D03*
X489385Y434360D02*
D03*
Y441840D02*
D03*
X499200Y389120D02*
D03*
Y392860D02*
D03*
Y396600D02*
D03*
X488885Y389120D02*
D03*
Y396600D02*
D03*
X499600Y345660D02*
D03*
Y349400D02*
D03*
Y353140D02*
D03*
X489285Y345660D02*
D03*
Y353140D02*
D03*
X499015Y301100D02*
D03*
Y304840D02*
D03*
Y308580D02*
D03*
X488700Y301100D02*
D03*
Y308580D02*
D03*
X499100Y256660D02*
D03*
Y260400D02*
D03*
Y264140D02*
D03*
X488785Y256660D02*
D03*
Y264140D02*
D03*
X499657Y412100D02*
D03*
Y415840D02*
D03*
Y419580D02*
D03*
X489342Y412100D02*
D03*
Y419580D02*
D03*
X499300Y366860D02*
D03*
Y370600D02*
D03*
Y374340D02*
D03*
X488985Y366860D02*
D03*
Y374340D02*
D03*
X499200Y322760D02*
D03*
Y326500D02*
D03*
Y330240D02*
D03*
X488885Y322760D02*
D03*
Y330240D02*
D03*
X499400Y277960D02*
D03*
Y281700D02*
D03*
Y285440D02*
D03*
X489085Y277960D02*
D03*
Y285440D02*
D03*
D14*
X402640Y328921D02*
D03*
X398900Y319079D02*
D03*
X278140Y448921D02*
D03*
X274400Y439079D02*
D03*
X278140Y328921D02*
D03*
X274400Y319079D02*
D03*
X342640Y448842D02*
D03*
X338900Y439000D02*
D03*
X342640Y328921D02*
D03*
X338900Y319079D02*
D03*
X402640Y448921D02*
D03*
X398900Y439079D02*
D03*
X278640Y388921D02*
D03*
X274900Y379079D02*
D03*
X278140Y268921D02*
D03*
X274400Y259079D02*
D03*
X342640Y388921D02*
D03*
X338900Y379079D02*
D03*
X342640Y268921D02*
D03*
X338900Y259079D02*
D03*
D15*
X395160Y328921D02*
D03*
X270660Y448921D02*
D03*
Y328921D02*
D03*
X335160Y448842D02*
D03*
Y328921D02*
D03*
X395160Y448921D02*
D03*
X271160Y388921D02*
D03*
X270660Y268921D02*
D03*
X335160Y388921D02*
D03*
Y268921D02*
D03*
D16*
X427900Y373500D02*
D03*
X328900Y411000D02*
D03*
Y291000D02*
D03*
X389900Y411000D02*
D03*
X389400Y290500D02*
D03*
D17*
X427900Y368500D02*
D03*
Y363500D02*
D03*
Y358500D02*
D03*
X448400Y373500D02*
D03*
Y368500D02*
D03*
Y363500D02*
D03*
Y358500D02*
D03*
X328900Y406000D02*
D03*
Y401000D02*
D03*
Y396000D02*
D03*
X349400Y411000D02*
D03*
Y406000D02*
D03*
Y401000D02*
D03*
Y396000D02*
D03*
X328900Y286000D02*
D03*
Y281000D02*
D03*
Y276000D02*
D03*
X349400Y291000D02*
D03*
Y286000D02*
D03*
Y281000D02*
D03*
Y276000D02*
D03*
X389900Y406000D02*
D03*
Y401000D02*
D03*
Y396000D02*
D03*
X410400Y411000D02*
D03*
Y406000D02*
D03*
Y401000D02*
D03*
Y396000D02*
D03*
X389400Y285500D02*
D03*
Y280500D02*
D03*
Y275500D02*
D03*
X409900Y290500D02*
D03*
Y285500D02*
D03*
Y280500D02*
D03*
Y275500D02*
D03*
D18*
X398900Y299716D02*
D03*
Y307000D02*
D03*
X481200Y441742D02*
D03*
Y434458D02*
D03*
X480700Y397100D02*
D03*
Y389816D02*
D03*
X480200Y352600D02*
D03*
Y345317D02*
D03*
Y308100D02*
D03*
Y300816D02*
D03*
X479200Y263742D02*
D03*
Y256458D02*
D03*
X480842Y419242D02*
D03*
Y411958D02*
D03*
X480200Y367600D02*
D03*
Y374884D02*
D03*
Y330100D02*
D03*
Y322816D02*
D03*
X479700Y285600D02*
D03*
Y278316D02*
D03*
X478700Y241742D02*
D03*
Y234458D02*
D03*
X274900Y419858D02*
D03*
Y427142D02*
D03*
Y299716D02*
D03*
Y307000D02*
D03*
X338900Y420000D02*
D03*
Y427283D02*
D03*
Y299858D02*
D03*
Y307142D02*
D03*
X398400Y419858D02*
D03*
Y427142D02*
D03*
X274900Y359717D02*
D03*
Y367000D02*
D03*
Y239216D02*
D03*
Y246500D02*
D03*
X338900Y360000D02*
D03*
Y367284D02*
D03*
Y239858D02*
D03*
Y247142D02*
D03*
D19*
X507058Y242100D02*
D03*
X514342D02*
D03*
X319900Y463000D02*
D03*
X312616D02*
D03*
X319542Y342500D02*
D03*
X312258D02*
D03*
X379900Y463000D02*
D03*
X372617D02*
D03*
X379683Y342500D02*
D03*
X372400D02*
D03*
X439900Y462500D02*
D03*
X432617D02*
D03*
X480416Y449600D02*
D03*
X487700D02*
D03*
X480058Y404600D02*
D03*
X487342D02*
D03*
X479558Y360100D02*
D03*
X486842D02*
D03*
X479200Y315600D02*
D03*
X486483D02*
D03*
X479058Y271100D02*
D03*
X486342D02*
D03*
X508058Y443600D02*
D03*
X515342D02*
D03*
X507916Y397600D02*
D03*
X515200D02*
D03*
X507558Y354100D02*
D03*
X514842D02*
D03*
X507058Y309100D02*
D03*
X514342D02*
D03*
X507058Y264600D02*
D03*
X514342D02*
D03*
X478558Y249100D02*
D03*
X485842D02*
D03*
X319042Y403000D02*
D03*
X311758D02*
D03*
X319542Y283000D02*
D03*
X312258D02*
D03*
X379542Y402500D02*
D03*
X372258D02*
D03*
X379542Y282500D02*
D03*
X372258D02*
D03*
X439542Y342500D02*
D03*
X432258D02*
D03*
X480058Y427100D02*
D03*
X487342D02*
D03*
X479558Y382100D02*
D03*
X486842D02*
D03*
X479558Y337600D02*
D03*
X486842D02*
D03*
X479058Y293100D02*
D03*
X486342D02*
D03*
X508058Y420100D02*
D03*
X515342D02*
D03*
X507558Y375100D02*
D03*
X514842D02*
D03*
X507058Y331100D02*
D03*
X514342D02*
D03*
X506917Y286100D02*
D03*
X514200D02*
D03*
X507916Y435600D02*
D03*
X515200D02*
D03*
X508058Y389600D02*
D03*
X515342D02*
D03*
X507558Y346100D02*
D03*
X514842D02*
D03*
X506917Y301100D02*
D03*
X514200D02*
D03*
X507058Y256600D02*
D03*
X514342D02*
D03*
X298116Y463000D02*
D03*
X305400D02*
D03*
X298116Y342500D02*
D03*
X305400D02*
D03*
X358616Y463000D02*
D03*
X365900D02*
D03*
X358258Y342500D02*
D03*
X365542D02*
D03*
X417900Y462000D02*
D03*
X425183D02*
D03*
X508058Y412100D02*
D03*
X515342D02*
D03*
X507558Y367100D02*
D03*
X514842D02*
D03*
X507058Y323100D02*
D03*
X514342D02*
D03*
X507058Y278100D02*
D03*
X514342D02*
D03*
X507058Y234100D02*
D03*
X514342D02*
D03*
X297617Y403000D02*
D03*
X304900D02*
D03*
X298116Y283000D02*
D03*
X305400D02*
D03*
X358258Y402500D02*
D03*
X365542D02*
D03*
X358258Y282500D02*
D03*
X365542D02*
D03*
X418117Y342500D02*
D03*
X425400D02*
D03*
M02*
