G04*
G04 #@! TF.GenerationSoftware,Altium Limited,Altium Designer,19.0.15 (446)*
G04*
G04 Layer_Physical_Order=1*
G04 Layer_Color=255*
%FSLAX25Y25*%
%MOIN*%
G70*
G01*
G75*
%ADD10C,0.01000*%
%ADD12C,0.00800*%
%ADD13R,0.04921X0.01968*%
%ADD14R,0.03543X0.03740*%
%ADD15R,0.03543X0.03740*%
%ADD16R,0.07800X0.02400*%
%ADD17O,0.07800X0.02400*%
%ADD18R,0.05512X0.03740*%
%ADD19R,0.03740X0.05512*%
%ADD32C,0.01500*%
%ADD33C,0.10000*%
%ADD34C,0.20000*%
%ADD35C,0.05000*%
%ADD36R,0.05000X0.05000*%
%ADD37C,0.25000*%
%ADD38C,0.02500*%
G36*
X603779Y486000D02*
X602343Y485120D01*
X600607Y483638D01*
X599125Y481902D01*
X597933Y479956D01*
X597059Y477847D01*
X596526Y475628D01*
X596347Y473353D01*
X596526Y471077D01*
X597059Y468858D01*
X597933Y466749D01*
X599125Y464804D01*
X600607Y463068D01*
X602343Y461586D01*
X604289Y460393D01*
X606397Y459520D01*
X608617Y458987D01*
X610892Y458808D01*
X613167Y458987D01*
X615387Y459520D01*
X617495Y460393D01*
X619441Y461586D01*
X621177Y463068D01*
X622659Y464804D01*
X623852Y466749D01*
X624110Y467372D01*
X624600Y467275D01*
Y215651D01*
X624110Y215554D01*
X623852Y216177D01*
X622659Y218123D01*
X621177Y219858D01*
X619441Y221340D01*
X617495Y222533D01*
X615387Y223406D01*
X613167Y223939D01*
X610892Y224118D01*
X608617Y223939D01*
X606397Y223406D01*
X604289Y222533D01*
X602343Y221340D01*
X600607Y219858D01*
X599125Y218123D01*
X597933Y216177D01*
X597059Y214068D01*
X596526Y211848D01*
X596347Y209573D01*
X596526Y207298D01*
X597059Y205079D01*
X597933Y202970D01*
X599125Y201024D01*
X600607Y199288D01*
X602343Y197806D01*
X604289Y196614D01*
X605069Y196290D01*
X604972Y195800D01*
X591238D01*
X590971Y196300D01*
X591255Y196724D01*
X591449Y197700D01*
Y200900D01*
X591255Y201875D01*
X590737Y202650D01*
X591255Y203425D01*
X591449Y204400D01*
Y207700D01*
X591255Y208676D01*
X590702Y209502D01*
X590583Y209582D01*
X590502Y209702D01*
X589676Y210255D01*
X588700Y210449D01*
X585701D01*
X585450Y210499D01*
X584475Y210305D01*
X583650Y209754D01*
X582826Y210305D01*
X581850Y210499D01*
X581599Y210449D01*
X578300D01*
X577324Y210255D01*
X576498Y209702D01*
X575945Y208875D01*
X575751Y207900D01*
Y204500D01*
X575945Y203524D01*
X576498Y202698D01*
X576576Y202620D01*
X576145Y201975D01*
X575951Y201000D01*
Y197500D01*
X576145Y196525D01*
X576334Y196241D01*
X576099Y195800D01*
X508446D01*
X508349Y196290D01*
X509129Y196614D01*
X511075Y197806D01*
X512811Y199288D01*
X514293Y201024D01*
X515485Y202970D01*
X516359Y205079D01*
X516892Y207298D01*
X517071Y209573D01*
X516892Y211848D01*
X516359Y214068D01*
X515485Y216177D01*
X514293Y218123D01*
X512811Y219858D01*
X511075Y221340D01*
X509129Y222533D01*
X507021Y223406D01*
X504801Y223939D01*
X502526Y224118D01*
X500251Y223939D01*
X498031Y223406D01*
X495923Y222533D01*
X493977Y221340D01*
X492241Y219858D01*
X490759Y218123D01*
X489566Y216177D01*
X488693Y214068D01*
X488160Y211848D01*
X487981Y209573D01*
X488160Y207298D01*
X488693Y205079D01*
X489566Y202970D01*
X490759Y201024D01*
X492241Y199288D01*
X493977Y197806D01*
X495923Y196614D01*
X496703Y196290D01*
X496606Y195800D01*
X280820D01*
X280723Y196290D01*
X281503Y196614D01*
X283449Y197806D01*
X285185Y199288D01*
X286667Y201024D01*
X287860Y202970D01*
X288733Y205079D01*
X289266Y207298D01*
X289445Y209573D01*
X289266Y211848D01*
X288733Y214068D01*
X287860Y216177D01*
X286667Y218123D01*
X285185Y219858D01*
X283449Y221340D01*
X281503Y222533D01*
X279395Y223406D01*
X277175Y223939D01*
X274900Y224118D01*
X272625Y223939D01*
X270405Y223406D01*
X268297Y222533D01*
X266351Y221340D01*
X264615Y219858D01*
X263133Y218123D01*
X261941Y216177D01*
X261067Y214068D01*
X260792Y212920D01*
X260292Y212979D01*
X259907Y472817D01*
X260407Y472837D01*
X260534Y471225D01*
X261067Y469005D01*
X261941Y466897D01*
X263133Y464951D01*
X264615Y463215D01*
X266351Y461733D01*
X268297Y460540D01*
X270405Y459667D01*
X272625Y459134D01*
X274900Y458955D01*
X277175Y459134D01*
X279395Y459667D01*
X281503Y460540D01*
X283449Y461733D01*
X285185Y463215D01*
X286667Y464951D01*
X287860Y466897D01*
X288733Y469005D01*
X289266Y471225D01*
X289445Y473500D01*
X289266Y475775D01*
X288733Y477995D01*
X287860Y480103D01*
X286667Y482049D01*
X285185Y483785D01*
X283449Y485267D01*
X282253Y486000D01*
X282394Y486500D01*
X495272D01*
X495413Y486000D01*
X493977Y485120D01*
X492241Y483638D01*
X490759Y481902D01*
X489566Y479956D01*
X488693Y477847D01*
X488160Y475628D01*
X487981Y473353D01*
X488160Y471077D01*
X488693Y468858D01*
X489566Y466749D01*
X490759Y464804D01*
X492241Y463068D01*
X493977Y461586D01*
X495923Y460393D01*
X498031Y459520D01*
X500251Y458987D01*
X502526Y458808D01*
X504801Y458987D01*
X507021Y459520D01*
X509129Y460393D01*
X511075Y461586D01*
X512811Y463068D01*
X514293Y464804D01*
X515485Y466749D01*
X516359Y468858D01*
X516892Y471077D01*
X517071Y473353D01*
X516892Y475628D01*
X516359Y477847D01*
X515485Y479956D01*
X514293Y481902D01*
X512811Y483638D01*
X511075Y485120D01*
X509639Y486000D01*
X509780Y486500D01*
X603638D01*
X603779Y486000D01*
D02*
G37*
%LPC*%
G36*
X555800Y484535D02*
X554408Y484398D01*
X553069Y483992D01*
X551836Y483333D01*
X551429Y482999D01*
X550300D01*
Y481892D01*
X549867Y481364D01*
X549208Y480131D01*
X548802Y478792D01*
X548665Y477400D01*
X548802Y476008D01*
X549208Y474669D01*
X549867Y473436D01*
X550754Y472355D01*
X551836Y471467D01*
X553069Y470808D01*
X554408Y470402D01*
X555800Y470265D01*
X557192Y470402D01*
X558531Y470808D01*
X559639Y471400D01*
X561166D01*
Y472745D01*
X561733Y473436D01*
X562392Y474669D01*
X562798Y476008D01*
X562935Y477400D01*
X562798Y478792D01*
X562392Y480131D01*
X561733Y481364D01*
X560846Y482445D01*
X559764Y483333D01*
X558531Y483992D01*
X557192Y484398D01*
X555800Y484535D01*
D02*
G37*
G36*
X312800Y478178D02*
X311952Y478066D01*
X311161Y477739D01*
X310482Y477218D01*
X309961Y476539D01*
X309634Y475748D01*
X309522Y474900D01*
X309634Y474052D01*
X309961Y473261D01*
X310251Y472883D01*
Y467756D01*
X301530D01*
Y458244D01*
X317351D01*
Y451056D01*
X311723Y445428D01*
X311592Y445498D01*
X310272Y445899D01*
X308900Y446034D01*
X307528Y445899D01*
X306208Y445498D01*
X304992Y444848D01*
X303926Y443974D01*
X303051Y442908D01*
X302401Y441692D01*
X302382Y441628D01*
X278172D01*
Y442949D01*
X276744D01*
X276553Y443411D01*
X278193Y445051D01*
X281912D01*
Y452791D01*
X274431D01*
Y452791D01*
X266888D01*
Y449072D01*
X264739Y446923D01*
X264298Y446348D01*
X264021Y445679D01*
X263926Y444961D01*
Y408100D01*
X264021Y407382D01*
X264298Y406713D01*
X264739Y406139D01*
X270326Y400551D01*
Y397015D01*
X267959D01*
X267241Y396920D01*
X266572Y396643D01*
X265998Y396203D01*
X263977Y394182D01*
X263536Y393607D01*
X263259Y392938D01*
X263164Y392220D01*
Y333643D01*
X263259Y332925D01*
X263536Y332256D01*
X263977Y331681D01*
X266737Y328921D01*
X265039Y327223D01*
X264598Y326648D01*
X264321Y325979D01*
X264226Y325261D01*
Y296255D01*
X263934Y295548D01*
X263822Y294700D01*
X263934Y293852D01*
X264226Y293145D01*
Y272581D01*
X264321Y271863D01*
X264598Y271194D01*
X265039Y270620D01*
X266888Y268770D01*
Y265051D01*
X269075D01*
X269267Y264589D01*
X267339Y262661D01*
X266898Y262087D01*
X266621Y261418D01*
X266526Y260700D01*
Y240900D01*
X266621Y240182D01*
X266898Y239513D01*
X267339Y238939D01*
X269022Y237255D01*
X269597Y236814D01*
X270144Y236588D01*
Y235347D01*
X271882D01*
X272044Y234846D01*
X271961Y234739D01*
X271634Y233948D01*
X271522Y233100D01*
X271634Y232252D01*
X271961Y231461D01*
X272482Y230782D01*
X273161Y230261D01*
X273952Y229934D01*
X274800Y229822D01*
X275648Y229934D01*
X276439Y230261D01*
X277118Y230782D01*
X277639Y231461D01*
X277966Y232252D01*
X278078Y233100D01*
X277966Y233948D01*
X277674Y234655D01*
Y235347D01*
X279656D01*
Y242630D01*
Y243951D01*
X302592D01*
X303051Y243092D01*
X303926Y242026D01*
X304992Y241151D01*
X306208Y240501D01*
X307528Y240101D01*
X308900Y239966D01*
X310272Y240101D01*
X311592Y240501D01*
X312808Y241151D01*
X313874Y242026D01*
X314749Y243092D01*
X315399Y244308D01*
X315799Y245628D01*
X315934Y247000D01*
X315799Y248372D01*
X315399Y249692D01*
X314749Y250908D01*
X313874Y251974D01*
X313002Y252689D01*
X312968Y252772D01*
Y253228D01*
X313002Y253311D01*
X313874Y254026D01*
X314749Y255092D01*
X315399Y256308D01*
X315799Y257628D01*
X315934Y259000D01*
X315799Y260372D01*
X315399Y261692D01*
X315328Y261823D01*
X321944Y268439D01*
X322497Y269266D01*
X322691Y270242D01*
Y274804D01*
X323191Y274903D01*
X323405Y274386D01*
X323918Y273718D01*
X324586Y273205D01*
X325365Y272882D01*
X326200Y272772D01*
X331388D01*
Y265051D01*
X332875D01*
X333067Y264589D01*
X331039Y262561D01*
X330598Y261987D01*
X330321Y261318D01*
X330226Y260600D01*
Y242400D01*
X330321Y241682D01*
X330598Y241013D01*
X331039Y240439D01*
X333580Y237897D01*
X334144Y237464D01*
Y235988D01*
X336126D01*
Y234554D01*
X335961Y234339D01*
X335634Y233548D01*
X335522Y232700D01*
X335634Y231852D01*
X335961Y231061D01*
X336482Y230382D01*
X337161Y229861D01*
X337952Y229534D01*
X338800Y229422D01*
X339648Y229534D01*
X340439Y229861D01*
X341118Y230382D01*
X341639Y231061D01*
X341966Y231852D01*
X342078Y232700D01*
X341966Y233548D01*
X341674Y234255D01*
Y235988D01*
X343656D01*
Y243272D01*
Y244451D01*
X362358D01*
X362402Y244308D01*
X363052Y243092D01*
X363926Y242026D01*
X364992Y241151D01*
X366208Y240501D01*
X367528Y240101D01*
X368900Y239966D01*
X370272Y240101D01*
X371592Y240501D01*
X372808Y241151D01*
X373874Y242026D01*
X374748Y243092D01*
X375398Y244308D01*
X375799Y245628D01*
X375934Y247000D01*
X375799Y248372D01*
X375398Y249692D01*
X374748Y250908D01*
X373874Y251974D01*
X373003Y252689D01*
X372968Y252772D01*
Y253228D01*
X373003Y253311D01*
X373874Y254026D01*
X374748Y255092D01*
X375398Y256308D01*
X375799Y257628D01*
X375934Y259000D01*
X375799Y260372D01*
X375398Y261692D01*
X375328Y261823D01*
X381344Y267839D01*
X381897Y268666D01*
X382091Y269642D01*
Y277744D01*
X383412D01*
Y278770D01*
X383882Y278881D01*
X383912Y278877D01*
X384324Y278340D01*
X384381Y278000D01*
X384324Y277660D01*
X383905Y277114D01*
X383582Y276335D01*
X383472Y275500D01*
X383582Y274665D01*
X383905Y273886D01*
X384418Y273218D01*
X385086Y272705D01*
X385865Y272382D01*
X386700Y272272D01*
X392100D01*
X392935Y272382D01*
X393714Y272705D01*
X394382Y273218D01*
X394895Y273886D01*
X395218Y274665D01*
X395328Y275500D01*
X395218Y276335D01*
X394895Y277114D01*
X394476Y277660D01*
X394419Y278000D01*
X394476Y278340D01*
X394895Y278886D01*
X395218Y279665D01*
X395328Y280500D01*
X395218Y281335D01*
X394895Y282114D01*
X394476Y282660D01*
X394419Y283000D01*
X394476Y283340D01*
X394895Y283886D01*
X395218Y284665D01*
X395328Y285500D01*
X395218Y286335D01*
X395025Y286800D01*
X395300Y287300D01*
X395300D01*
Y290324D01*
X395762Y290515D01*
X396926Y289351D01*
Y238854D01*
X396761Y238639D01*
X396434Y237848D01*
X396322Y237000D01*
X396434Y236152D01*
X396761Y235361D01*
X397282Y234682D01*
X397961Y234161D01*
X398752Y233834D01*
X399600Y233722D01*
X400448Y233834D01*
X401239Y234161D01*
X401918Y234682D01*
X402439Y235361D01*
X402766Y236152D01*
X402878Y237000D01*
X402766Y237848D01*
X402474Y238555D01*
Y287726D01*
X404310D01*
X404531Y287278D01*
X404405Y287114D01*
X404082Y286335D01*
X403972Y285500D01*
X404082Y284665D01*
X404405Y283886D01*
X404824Y283340D01*
X404881Y283000D01*
X404824Y282660D01*
X404405Y282114D01*
X404082Y281335D01*
X403972Y280500D01*
X404082Y279665D01*
X404405Y278886D01*
X404824Y278340D01*
X404881Y278000D01*
X404824Y277660D01*
X404405Y277114D01*
X404082Y276335D01*
X403972Y275500D01*
X404082Y274665D01*
X404405Y273886D01*
X404918Y273218D01*
X405586Y272705D01*
X406365Y272382D01*
X407200Y272272D01*
X412600D01*
X413435Y272382D01*
X414214Y272705D01*
X414882Y273218D01*
X415395Y273886D01*
X415718Y274665D01*
X415828Y275500D01*
X415718Y276335D01*
X415395Y277114D01*
X414976Y277660D01*
X414919Y278000D01*
X414976Y278340D01*
X415395Y278886D01*
X415718Y279665D01*
X415828Y280500D01*
X415718Y281335D01*
X415395Y282114D01*
X414976Y282660D01*
X414919Y283000D01*
X414976Y283340D01*
X415395Y283886D01*
X415718Y284665D01*
X415828Y285500D01*
X415718Y286335D01*
X415395Y287114D01*
X414976Y287660D01*
X414919Y288000D01*
X414976Y288340D01*
X415395Y288886D01*
X415718Y289665D01*
X415828Y290500D01*
X415730Y291240D01*
X415961Y291421D01*
X416180Y291498D01*
X419326Y288351D01*
Y271548D01*
X418950Y271219D01*
X418500Y271278D01*
X417652Y271166D01*
X416861Y270839D01*
X416182Y270318D01*
X415661Y269639D01*
X415334Y268848D01*
X415222Y268000D01*
X415334Y267152D01*
X415661Y266361D01*
X416182Y265682D01*
X416861Y265161D01*
X417652Y264834D01*
X418500Y264722D01*
X418950Y264781D01*
X419326Y264452D01*
Y227255D01*
X419034Y226548D01*
X418922Y225700D01*
X419034Y224852D01*
X419361Y224061D01*
X419882Y223382D01*
X420561Y222861D01*
X421352Y222534D01*
X422200Y222422D01*
X423048Y222534D01*
X423839Y222861D01*
X424518Y223382D01*
X425039Y224061D01*
X425366Y224852D01*
X425478Y225700D01*
X425366Y226548D01*
X425039Y227339D01*
X424874Y227554D01*
Y240648D01*
X425374Y240948D01*
X426208Y240501D01*
X427528Y240101D01*
X428900Y239966D01*
X430272Y240101D01*
X431592Y240501D01*
X432808Y241151D01*
X433874Y242026D01*
X434748Y243092D01*
X435398Y244308D01*
X435799Y245628D01*
X435934Y247000D01*
X435799Y248372D01*
X435398Y249692D01*
X434748Y250908D01*
X433874Y251974D01*
X433003Y252689D01*
X432968Y252772D01*
Y253228D01*
X433003Y253311D01*
X433874Y254026D01*
X434748Y255092D01*
X435398Y256308D01*
X435799Y257628D01*
X435934Y259000D01*
X435799Y260372D01*
X435398Y261692D01*
X434748Y262908D01*
X433874Y263974D01*
X432808Y264848D01*
X431592Y265498D01*
X430272Y265899D01*
X428900Y266034D01*
X427528Y265899D01*
X426208Y265498D01*
X425374Y265052D01*
X424874Y265352D01*
Y289500D01*
X424779Y290218D01*
X424502Y290887D01*
X424061Y291461D01*
X413845Y301678D01*
X413270Y302119D01*
X412601Y302396D01*
X411883Y302490D01*
X403656D01*
Y304451D01*
X422358D01*
X422402Y304308D01*
X423052Y303092D01*
X423926Y302026D01*
X424992Y301151D01*
X426208Y300501D01*
X427528Y300101D01*
X428900Y299966D01*
X430272Y300101D01*
X431592Y300501D01*
X432808Y301151D01*
X433874Y302026D01*
X434748Y303092D01*
X435398Y304308D01*
X435799Y305628D01*
X435934Y307000D01*
X435799Y308372D01*
X435398Y309692D01*
X434748Y310908D01*
X433874Y311974D01*
X433003Y312689D01*
X432968Y312772D01*
Y313228D01*
X433003Y313311D01*
X433874Y314026D01*
X434748Y315092D01*
X435398Y316308D01*
X435799Y317628D01*
X435934Y319000D01*
X435799Y320372D01*
X435398Y321692D01*
X435328Y321823D01*
X441344Y327839D01*
X441897Y328666D01*
X442091Y329642D01*
Y337744D01*
X443412D01*
Y347256D01*
X442091D01*
Y357592D01*
X442582Y357665D01*
X442905Y356886D01*
X443418Y356218D01*
X444086Y355705D01*
X444865Y355382D01*
X445700Y355272D01*
X451100D01*
X451935Y355382D01*
X452714Y355705D01*
X453382Y356218D01*
X453895Y356886D01*
X454218Y357665D01*
X454328Y358500D01*
X454218Y359335D01*
X453895Y360114D01*
X453476Y360660D01*
X453419Y361000D01*
X453476Y361340D01*
X453895Y361886D01*
X454218Y362665D01*
X454328Y363500D01*
X454218Y364335D01*
X453895Y365114D01*
X453769Y365278D01*
X453991Y365726D01*
X456600D01*
X457318Y365821D01*
X457684Y365973D01*
X458148Y366034D01*
X458939Y366361D01*
X459618Y366882D01*
X460139Y367561D01*
X460466Y368352D01*
X460578Y369200D01*
X460466Y370048D01*
X460139Y370839D01*
X459618Y371518D01*
X458939Y372039D01*
X458148Y372366D01*
X457300Y372478D01*
X456452Y372366D01*
X455661Y372039D01*
X454982Y371518D01*
X454795Y371274D01*
X453991D01*
X453769Y371722D01*
X453895Y371886D01*
X454218Y372665D01*
X454328Y373500D01*
X454218Y374335D01*
X453895Y375114D01*
X453382Y375782D01*
X452714Y376295D01*
X451935Y376618D01*
X451100Y376728D01*
X445700D01*
X444865Y376618D01*
X444086Y376295D01*
X443418Y375782D01*
X442905Y375114D01*
X442582Y374335D01*
X442472Y373500D01*
X442582Y372665D01*
X442905Y371886D01*
X443324Y371340D01*
X443381Y371000D01*
X443324Y370660D01*
X442905Y370114D01*
X442582Y369335D01*
X442472Y368500D01*
X442582Y367665D01*
X442905Y366886D01*
X443324Y366340D01*
X443381Y366000D01*
X443324Y365660D01*
X442905Y365114D01*
X442582Y364335D01*
X442472Y363500D01*
X442582Y362665D01*
X442905Y361886D01*
X443324Y361340D01*
X443381Y361000D01*
X443324Y360660D01*
X442905Y360114D01*
X442582Y359335D01*
X442091Y359408D01*
Y361558D01*
X441897Y362534D01*
X441344Y363361D01*
X434402Y370302D01*
X433800Y370705D01*
Y376700D01*
X430449D01*
Y397844D01*
X441902Y409298D01*
X442455Y410124D01*
X442649Y411100D01*
Y433500D01*
X442455Y434476D01*
X441902Y435302D01*
X436402Y440802D01*
X435575Y441355D01*
X435496Y441371D01*
X435398Y441692D01*
X435328Y441823D01*
X441702Y448198D01*
X442255Y449024D01*
X442449Y450000D01*
Y457744D01*
X443770D01*
Y467256D01*
X428747D01*
Y466756D01*
X421313D01*
Y457244D01*
X429053D01*
Y457744D01*
X437351D01*
Y451056D01*
X431723Y445428D01*
X431592Y445498D01*
X430272Y445899D01*
X428900Y446034D01*
X427528Y445899D01*
X426208Y445498D01*
X424992Y444848D01*
X423926Y443974D01*
X423052Y442908D01*
X422402Y441692D01*
X422358Y441549D01*
X402672D01*
Y442392D01*
X402687Y442398D01*
X403261Y442839D01*
X404601Y444179D01*
X405042Y444753D01*
X405166Y445051D01*
X406412D01*
Y452791D01*
X398931D01*
Y452791D01*
X391388D01*
Y449072D01*
X388639Y446323D01*
X388198Y445748D01*
X387921Y445079D01*
X387826Y444361D01*
Y418900D01*
X387921Y418182D01*
X388198Y417513D01*
X388639Y416939D01*
X389359Y416218D01*
X389434Y415652D01*
X389761Y414861D01*
X389828Y414774D01*
X389609Y414297D01*
X389244Y414261D01*
X386049Y417456D01*
Y431900D01*
X385855Y432875D01*
X385302Y433702D01*
X377702Y441302D01*
X376875Y441855D01*
X376201Y441989D01*
X376036Y442532D01*
X381702Y448198D01*
X382255Y449024D01*
X382449Y450000D01*
Y458244D01*
X383770D01*
Y467756D01*
X375914D01*
X375723Y468218D01*
X376856Y469351D01*
X414368D01*
X414652Y469234D01*
X415500Y469122D01*
X416348Y469234D01*
X417139Y469561D01*
X417818Y470082D01*
X418339Y470761D01*
X418666Y471552D01*
X418778Y472400D01*
X418666Y473248D01*
X418339Y474039D01*
X417818Y474718D01*
X417139Y475239D01*
X416348Y475566D01*
X415500Y475678D01*
X414652Y475566D01*
X413861Y475239D01*
X413182Y474718D01*
X412976Y474449D01*
X375800D01*
X374825Y474255D01*
X373998Y473702D01*
X370814Y470519D01*
X370262Y469692D01*
X370068Y468716D01*
Y467756D01*
X362030D01*
Y458244D01*
X377351D01*
Y451056D01*
X371723Y445428D01*
X371592Y445498D01*
X370272Y445899D01*
X368900Y446034D01*
X367528Y445899D01*
X366208Y445498D01*
X364992Y444848D01*
X363926Y443974D01*
X363052Y442908D01*
X362402Y441692D01*
X362358Y441549D01*
X342672D01*
Y442749D01*
X344601Y444679D01*
X344827Y444972D01*
X346412D01*
Y452712D01*
X338931D01*
Y452712D01*
X331388D01*
Y448993D01*
X330139Y447744D01*
X329698Y447169D01*
X329421Y446500D01*
X329326Y445783D01*
Y431632D01*
X328864Y431440D01*
X319502Y440802D01*
X318675Y441355D01*
X317700Y441549D01*
X315761D01*
X315554Y442049D01*
X321702Y448198D01*
X322255Y449024D01*
X322449Y450000D01*
Y458244D01*
X323770D01*
Y467756D01*
X315349D01*
Y472883D01*
X315639Y473261D01*
X315966Y474052D01*
X316078Y474900D01*
X315966Y475748D01*
X315639Y476539D01*
X315118Y477218D01*
X314439Y477739D01*
X313648Y478066D01*
X312800Y478178D01*
D02*
G37*
G36*
X556700Y467637D02*
X554817Y467489D01*
X552980Y467048D01*
X551235Y466325D01*
X549625Y465338D01*
X548188Y464112D01*
X546962Y462675D01*
X545975Y461065D01*
X545252Y459320D01*
X544811Y457483D01*
X544663Y455600D01*
X544811Y453717D01*
X545252Y451880D01*
X545975Y450135D01*
X546962Y448525D01*
X548188Y447088D01*
X549625Y445862D01*
X551235Y444875D01*
X552980Y444152D01*
X554817Y443711D01*
X556700Y443563D01*
X558583Y443711D01*
X560420Y444152D01*
X562165Y444875D01*
X563775Y445862D01*
X565211Y447088D01*
X566438Y448525D01*
X567425Y450135D01*
X568148Y451880D01*
X568589Y453717D01*
X568737Y455600D01*
X568589Y457483D01*
X568148Y459320D01*
X567425Y461065D01*
X566438Y462675D01*
X565211Y464112D01*
X563775Y465338D01*
X562165Y466325D01*
X560420Y467048D01*
X558583Y467489D01*
X556700Y467637D01*
D02*
G37*
G36*
X491570Y454356D02*
X483830D01*
Y444844D01*
X484433D01*
X484924Y444824D01*
Y438856D01*
X488096D01*
X488457Y438314D01*
X488966Y437806D01*
X488774Y437344D01*
X486826D01*
X486148Y437625D01*
X485956Y437650D01*
Y438328D01*
X476444D01*
Y430588D01*
X483472D01*
Y422344D01*
X484881D01*
Y416596D01*
X488721D01*
X489771Y415546D01*
X489580Y415084D01*
X486910D01*
X486839Y415139D01*
X486048Y415466D01*
X485598Y415526D01*
Y415828D01*
X476086D01*
Y408088D01*
X483472D01*
Y399844D01*
X484032D01*
X484424Y399584D01*
Y393687D01*
X475944D01*
Y385946D01*
X482972D01*
Y378753D01*
X475444D01*
Y371013D01*
X480909D01*
X481965Y369958D01*
X481979Y369852D01*
X482306Y369061D01*
X482827Y368382D01*
X483506Y367861D01*
X484297Y367534D01*
X484403Y367520D01*
X484524Y367398D01*
Y364856D01*
X482972D01*
Y355344D01*
X484824D01*
Y350156D01*
X487916D01*
X488966Y349106D01*
X488774Y348644D01*
X484956D01*
Y349187D01*
X475444D01*
Y341446D01*
X482972D01*
Y332844D01*
X484424D01*
Y327256D01*
X487963D01*
X488057Y327114D01*
X488966Y326206D01*
X488774Y325744D01*
X486488D01*
X486048Y325926D01*
X485200Y326038D01*
X484956Y326252D01*
Y326687D01*
X475444D01*
Y318947D01*
X482613D01*
Y310844D01*
X484239D01*
Y305596D01*
X487876D01*
X488926Y304546D01*
X488734Y304084D01*
X486288D01*
X485848Y304266D01*
X485000Y304378D01*
X484956Y304417D01*
Y304687D01*
X475444D01*
Y296947D01*
X482472D01*
Y288344D01*
X484624D01*
Y282881D01*
X484624Y282710D01*
X484600Y282575D01*
X484588Y282524D01*
X484538Y282396D01*
X484276Y282215D01*
X484083Y282187D01*
X483993Y282187D01*
X474944D01*
Y274447D01*
X482472D01*
Y266344D01*
X484324D01*
Y261156D01*
X487616D01*
X488666Y260106D01*
X488474Y259644D01*
X486826D01*
X486048Y259966D01*
X485200Y260078D01*
X484456Y259980D01*
X483956Y260271D01*
Y260328D01*
X474444D01*
Y252588D01*
X481972D01*
Y244344D01*
X482122D01*
X482386Y244027D01*
X482456Y243844D01*
X482321Y243518D01*
X482226Y242800D01*
Y241349D01*
X479206Y238328D01*
X473944D01*
Y230588D01*
X483456D01*
Y230613D01*
X483956Y230939D01*
X484452Y230734D01*
X485300Y230622D01*
X486148Y230734D01*
X486732Y230976D01*
X493646D01*
Y231566D01*
X494146Y231834D01*
X494488Y231605D01*
X495039Y231495D01*
Y230976D01*
X503188D01*
Y229344D01*
X518212D01*
Y237344D01*
Y239551D01*
X552934D01*
X552993Y239051D01*
X552980Y239048D01*
X551235Y238325D01*
X549625Y237338D01*
X548188Y236111D01*
X546962Y234675D01*
X545975Y233065D01*
X545252Y231320D01*
X544811Y229483D01*
X544663Y227600D01*
X544811Y225717D01*
X545252Y223880D01*
X545975Y222135D01*
X546962Y220525D01*
X548188Y219089D01*
X549625Y217862D01*
X551235Y216875D01*
X552980Y216152D01*
X554817Y215711D01*
X556700Y215563D01*
X558583Y215711D01*
X560420Y216152D01*
X562165Y216875D01*
X563775Y217862D01*
X565211Y219089D01*
X566438Y220525D01*
X567425Y222135D01*
X568148Y223880D01*
X568589Y225717D01*
X568737Y227600D01*
X568589Y229483D01*
X568148Y231320D01*
X567425Y233065D01*
X566438Y234675D01*
X565211Y236111D01*
X563775Y237338D01*
X562165Y238325D01*
X560420Y239048D01*
X560407Y239051D01*
X560466Y239551D01*
X573400D01*
X574375Y239745D01*
X575202Y240298D01*
X584302Y249398D01*
X584855Y250224D01*
X585049Y251200D01*
Y365800D01*
X584855Y366775D01*
X584302Y367602D01*
X581002Y370902D01*
X580175Y371455D01*
X579200Y371649D01*
X571616D01*
X571109Y372309D01*
X570169Y373031D01*
X569075Y373484D01*
X567900Y373639D01*
X566725Y373484D01*
X565631Y373031D01*
X564691Y372309D01*
X563969Y371369D01*
X563516Y370275D01*
X563361Y369100D01*
X563516Y367925D01*
X563969Y366831D01*
X564691Y365891D01*
X565631Y365169D01*
X566725Y364716D01*
X567900Y364561D01*
X569075Y364716D01*
X570169Y365169D01*
X571109Y365891D01*
X571616Y366551D01*
X578144D01*
X579951Y364744D01*
Y252256D01*
X572344Y244649D01*
X518212D01*
Y246856D01*
X510472D01*
Y238856D01*
X503961D01*
Y244424D01*
X502049D01*
Y246285D01*
X502366Y247052D01*
X502478Y247900D01*
X502366Y248748D01*
X502039Y249539D01*
X501518Y250218D01*
X500839Y250739D01*
X500048Y251066D01*
X499200Y251178D01*
X498352Y251066D01*
X497561Y250739D01*
X496882Y250218D01*
X496361Y249539D01*
X496034Y248748D01*
X495481Y248328D01*
X495100Y248378D01*
X494252Y248266D01*
X493461Y247939D01*
X493238Y247768D01*
X489712D01*
Y253676D01*
X493246D01*
Y254873D01*
X493708Y255064D01*
X493914Y254857D01*
X494639Y254373D01*
Y253676D01*
X503188D01*
Y251844D01*
X518212D01*
Y259844D01*
Y264865D01*
X537902Y284556D01*
X538455Y285383D01*
X538649Y286358D01*
Y331344D01*
X540525Y333220D01*
X540998Y333059D01*
X541016Y332925D01*
X541469Y331831D01*
X542191Y330891D01*
X543131Y330169D01*
X544225Y329716D01*
X545400Y329561D01*
X546575Y329716D01*
X547669Y330169D01*
X548054Y330464D01*
X548291Y330367D01*
X548503Y330179D01*
X548361Y329100D01*
X548503Y328021D01*
X548291Y327833D01*
X548054Y327736D01*
X547669Y328031D01*
X546575Y328484D01*
X545400Y328639D01*
X544225Y328484D01*
X543131Y328031D01*
X542191Y327309D01*
X541469Y326369D01*
X541016Y325275D01*
X540861Y324100D01*
X541016Y322925D01*
X541469Y321831D01*
X542191Y320891D01*
X543131Y320169D01*
X544225Y319716D01*
X545400Y319561D01*
X546575Y319716D01*
X547669Y320169D01*
X548054Y320464D01*
X548291Y320367D01*
X548503Y320179D01*
X548361Y319100D01*
X548503Y318021D01*
X548291Y317833D01*
X548054Y317736D01*
X547669Y318031D01*
X546575Y318484D01*
X545400Y318639D01*
X544225Y318484D01*
X543131Y318031D01*
X542191Y317309D01*
X541469Y316369D01*
X541016Y315275D01*
X540861Y314100D01*
X541016Y312925D01*
X541469Y311831D01*
X542191Y310891D01*
X543131Y310169D01*
X544225Y309716D01*
X545400Y309561D01*
X546575Y309716D01*
X547669Y310169D01*
X548054Y310464D01*
X548291Y310367D01*
X548503Y310179D01*
X548361Y309100D01*
X548503Y308021D01*
X548291Y307833D01*
X548054Y307736D01*
X547669Y308031D01*
X546575Y308484D01*
X545400Y308639D01*
X544225Y308484D01*
X543131Y308031D01*
X542191Y307309D01*
X541469Y306369D01*
X541016Y305275D01*
X540861Y304100D01*
X541016Y302925D01*
X541469Y301831D01*
X542191Y300891D01*
X543131Y300169D01*
X544225Y299716D01*
X545400Y299561D01*
X546575Y299716D01*
X547669Y300169D01*
X548054Y300464D01*
X548291Y300367D01*
X548503Y300179D01*
X548361Y299100D01*
X548503Y298021D01*
X548291Y297833D01*
X548054Y297736D01*
X547669Y298031D01*
X546575Y298484D01*
X545400Y298639D01*
X544225Y298484D01*
X543131Y298031D01*
X542191Y297309D01*
X541469Y296369D01*
X541016Y295275D01*
X540861Y294100D01*
X541016Y292925D01*
X541469Y291831D01*
X542191Y290891D01*
X543131Y290169D01*
X544225Y289716D01*
X545400Y289561D01*
X546575Y289716D01*
X547669Y290169D01*
X548054Y290464D01*
X548291Y290367D01*
X548503Y290179D01*
X548361Y289100D01*
X548503Y288021D01*
X548291Y287833D01*
X548054Y287736D01*
X547669Y288031D01*
X546575Y288484D01*
X545400Y288639D01*
X544225Y288484D01*
X543131Y288031D01*
X542191Y287309D01*
X541469Y286369D01*
X541016Y285275D01*
X540861Y284100D01*
X541016Y282925D01*
X541469Y281831D01*
X542191Y280891D01*
X543131Y280169D01*
X544225Y279716D01*
X545400Y279561D01*
X546575Y279716D01*
X547669Y280169D01*
X548054Y280464D01*
X548291Y280367D01*
X548503Y280179D01*
X548361Y279100D01*
X548503Y278021D01*
X548291Y277833D01*
X548054Y277736D01*
X547669Y278031D01*
X546575Y278484D01*
X545400Y278639D01*
X544225Y278484D01*
X543131Y278031D01*
X542191Y277309D01*
X541469Y276369D01*
X541016Y275275D01*
X540861Y274100D01*
X541016Y272925D01*
X541469Y271831D01*
X542191Y270891D01*
X543131Y270169D01*
X544225Y269716D01*
X545400Y269561D01*
X546575Y269716D01*
X547669Y270169D01*
X548054Y270464D01*
X548291Y270367D01*
X548503Y270179D01*
X548361Y269100D01*
X548503Y268021D01*
X548291Y267833D01*
X548054Y267736D01*
X547669Y268031D01*
X546575Y268484D01*
X545400Y268639D01*
X544225Y268484D01*
X543131Y268031D01*
X542191Y267309D01*
X541469Y266369D01*
X541016Y265275D01*
X540861Y264100D01*
X541016Y262925D01*
X541469Y261831D01*
X542191Y260891D01*
X543131Y260169D01*
X544225Y259716D01*
X545400Y259561D01*
X546575Y259716D01*
X547669Y260169D01*
X548054Y260464D01*
X548291Y260367D01*
X548503Y260179D01*
X548361Y259100D01*
X548516Y257925D01*
X548969Y256831D01*
X549691Y255891D01*
X550631Y255169D01*
X551725Y254716D01*
X552900Y254561D01*
X554075Y254716D01*
X555169Y255169D01*
X556109Y255891D01*
X556831Y256831D01*
X557284Y257925D01*
X557439Y259100D01*
X557297Y260179D01*
X557509Y260367D01*
X557746Y260464D01*
X558131Y260169D01*
X559225Y259716D01*
X560400Y259561D01*
X561575Y259716D01*
X562669Y260169D01*
X562952Y260386D01*
X563400Y260165D01*
Y254600D01*
X572400D01*
Y263600D01*
X565252D01*
X564923Y263976D01*
X564939Y264100D01*
X564797Y265179D01*
X565009Y265367D01*
X565246Y265464D01*
X565631Y265169D01*
X566725Y264716D01*
X567900Y264561D01*
X569075Y264716D01*
X570169Y265169D01*
X571109Y265891D01*
X571831Y266831D01*
X572284Y267925D01*
X572439Y269100D01*
X572284Y270275D01*
X571831Y271369D01*
X571109Y272309D01*
X570169Y273031D01*
X569075Y273484D01*
X567900Y273639D01*
X566725Y273484D01*
X565631Y273031D01*
X565246Y272736D01*
X565009Y272833D01*
X564797Y273021D01*
X564939Y274100D01*
X564797Y275179D01*
X565009Y275367D01*
X565246Y275464D01*
X565631Y275169D01*
X566725Y274716D01*
X567900Y274561D01*
X569075Y274716D01*
X570169Y275169D01*
X571109Y275891D01*
X571831Y276831D01*
X572284Y277925D01*
X572439Y279100D01*
X572284Y280275D01*
X571831Y281369D01*
X571109Y282309D01*
X570169Y283031D01*
X569075Y283484D01*
X567900Y283639D01*
X566725Y283484D01*
X565631Y283031D01*
X565246Y282736D01*
X565009Y282833D01*
X564797Y283021D01*
X564939Y284100D01*
X564797Y285179D01*
X565009Y285367D01*
X565246Y285464D01*
X565631Y285169D01*
X566725Y284716D01*
X567900Y284561D01*
X569075Y284716D01*
X570169Y285169D01*
X571109Y285891D01*
X571831Y286831D01*
X572284Y287925D01*
X572439Y289100D01*
X572284Y290275D01*
X571831Y291369D01*
X571109Y292309D01*
X570169Y293031D01*
X569075Y293484D01*
X567900Y293639D01*
X566725Y293484D01*
X565631Y293031D01*
X564691Y292309D01*
X563969Y291369D01*
X563516Y290275D01*
X563361Y289100D01*
X563503Y288021D01*
X563291Y287833D01*
X563054Y287736D01*
X562669Y288031D01*
X561575Y288484D01*
X560400Y288639D01*
X559225Y288484D01*
X558131Y288031D01*
X557746Y287736D01*
X557509Y287833D01*
X557297Y288021D01*
X557439Y289100D01*
X557284Y290275D01*
X556831Y291369D01*
X556109Y292309D01*
X555169Y293031D01*
X554075Y293484D01*
X552900Y293639D01*
X551725Y293484D01*
X550631Y293031D01*
X550246Y292736D01*
X550009Y292833D01*
X549797Y293021D01*
X549939Y294100D01*
X549797Y295179D01*
X550009Y295367D01*
X550246Y295464D01*
X550631Y295169D01*
X551725Y294716D01*
X552900Y294561D01*
X554075Y294716D01*
X555169Y295169D01*
X556109Y295891D01*
X556831Y296831D01*
X557284Y297925D01*
X557439Y299100D01*
X557297Y300179D01*
X557509Y300367D01*
X557746Y300464D01*
X558131Y300169D01*
X559225Y299716D01*
X560400Y299561D01*
X561575Y299716D01*
X562669Y300169D01*
X563609Y300891D01*
X564331Y301831D01*
X564784Y302925D01*
X564939Y304100D01*
X564797Y305179D01*
X565009Y305367D01*
X565246Y305464D01*
X565631Y305169D01*
X566725Y304716D01*
X567900Y304561D01*
X569075Y304716D01*
X570169Y305169D01*
X571109Y305891D01*
X571831Y306831D01*
X572284Y307925D01*
X572439Y309100D01*
X572284Y310275D01*
X571831Y311369D01*
X571109Y312309D01*
X570169Y313031D01*
X569075Y313484D01*
X567900Y313639D01*
X566725Y313484D01*
X565631Y313031D01*
X565246Y312736D01*
X565009Y312833D01*
X564797Y313021D01*
X564939Y314100D01*
X564797Y315179D01*
X565009Y315367D01*
X565246Y315464D01*
X565631Y315169D01*
X566725Y314716D01*
X567900Y314561D01*
X569075Y314716D01*
X570169Y315169D01*
X571109Y315891D01*
X571831Y316831D01*
X572284Y317925D01*
X572439Y319100D01*
X572284Y320275D01*
X571831Y321369D01*
X571109Y322309D01*
X570169Y323031D01*
X569075Y323484D01*
X567900Y323639D01*
X566725Y323484D01*
X565631Y323031D01*
X565246Y322736D01*
X565009Y322833D01*
X564797Y323021D01*
X564939Y324100D01*
X564797Y325179D01*
X565009Y325367D01*
X565246Y325464D01*
X565631Y325169D01*
X566725Y324716D01*
X567900Y324561D01*
X569075Y324716D01*
X570169Y325169D01*
X571109Y325891D01*
X571831Y326831D01*
X572284Y327925D01*
X572439Y329100D01*
X572284Y330275D01*
X571831Y331369D01*
X571109Y332309D01*
X570169Y333031D01*
X569075Y333484D01*
X567900Y333639D01*
X566725Y333484D01*
X565631Y333031D01*
X565246Y332736D01*
X565009Y332833D01*
X564797Y333021D01*
X564939Y334100D01*
X564797Y335179D01*
X565009Y335367D01*
X565246Y335464D01*
X565631Y335169D01*
X566725Y334716D01*
X567900Y334561D01*
X569075Y334716D01*
X570169Y335169D01*
X571109Y335891D01*
X571831Y336831D01*
X572284Y337925D01*
X572439Y339100D01*
X572284Y340275D01*
X571831Y341369D01*
X571109Y342309D01*
X570169Y343031D01*
X569075Y343484D01*
X567900Y343639D01*
X566725Y343484D01*
X565631Y343031D01*
X564691Y342309D01*
X563969Y341369D01*
X563516Y340275D01*
X563361Y339100D01*
X563503Y338021D01*
X563291Y337833D01*
X563054Y337736D01*
X562669Y338031D01*
X561575Y338484D01*
X560400Y338639D01*
X559225Y338484D01*
X558131Y338031D01*
X557746Y337736D01*
X557509Y337833D01*
X557297Y338021D01*
X557439Y339100D01*
X557284Y340275D01*
X556831Y341369D01*
X556109Y342309D01*
X555169Y343031D01*
X554075Y343484D01*
X552900Y343639D01*
X551725Y343484D01*
X550631Y343031D01*
X550246Y342736D01*
X550009Y342833D01*
X549797Y343021D01*
X549939Y344100D01*
X549797Y345179D01*
X550009Y345367D01*
X550246Y345464D01*
X550631Y345169D01*
X551725Y344716D01*
X552900Y344561D01*
X554075Y344716D01*
X555169Y345169D01*
X556109Y345891D01*
X556831Y346831D01*
X557284Y347925D01*
X557439Y349100D01*
X557284Y350275D01*
X556831Y351369D01*
X556109Y352309D01*
X555169Y353031D01*
X554075Y353484D01*
X552900Y353639D01*
X551725Y353484D01*
X550631Y353031D01*
X550246Y352736D01*
X550009Y352833D01*
X549797Y353021D01*
X549939Y354100D01*
X549797Y355179D01*
X550009Y355367D01*
X550246Y355464D01*
X550631Y355169D01*
X551725Y354716D01*
X552900Y354561D01*
X554075Y354716D01*
X555169Y355169D01*
X556109Y355891D01*
X556831Y356831D01*
X557284Y357925D01*
X557439Y359100D01*
X557284Y360275D01*
X556831Y361369D01*
X556109Y362309D01*
X555169Y363031D01*
X554075Y363484D01*
X552900Y363639D01*
X551725Y363484D01*
X550631Y363031D01*
X550246Y362736D01*
X550009Y362833D01*
X549797Y363021D01*
X549939Y364100D01*
X549797Y365179D01*
X550009Y365367D01*
X550246Y365464D01*
X550631Y365169D01*
X551725Y364716D01*
X552900Y364561D01*
X554075Y364716D01*
X555169Y365169D01*
X556109Y365891D01*
X556831Y366831D01*
X557284Y367925D01*
X557439Y369100D01*
X557284Y370275D01*
X556831Y371369D01*
X556109Y372309D01*
X555169Y373031D01*
X554075Y373484D01*
X552900Y373639D01*
X551725Y373484D01*
X550631Y373031D01*
X550246Y372736D01*
X550009Y372833D01*
X549797Y373021D01*
X549939Y374100D01*
X549797Y375179D01*
X550009Y375367D01*
X550246Y375464D01*
X550631Y375169D01*
X551725Y374716D01*
X552900Y374561D01*
X554075Y374716D01*
X555169Y375169D01*
X556109Y375891D01*
X556831Y376831D01*
X557284Y377925D01*
X557439Y379100D01*
X557297Y380179D01*
X557509Y380367D01*
X557746Y380464D01*
X558131Y380169D01*
X559225Y379716D01*
X560400Y379561D01*
X561575Y379716D01*
X562669Y380169D01*
X563054Y380464D01*
X563291Y380367D01*
X563503Y380179D01*
X563361Y379100D01*
X563516Y377925D01*
X563969Y376831D01*
X564691Y375891D01*
X565631Y375169D01*
X566725Y374716D01*
X567900Y374561D01*
X569075Y374716D01*
X570169Y375169D01*
X571109Y375891D01*
X571831Y376831D01*
X572284Y377925D01*
X572439Y379100D01*
X572284Y380275D01*
X571831Y381369D01*
X571109Y382309D01*
X570169Y383031D01*
X569075Y383484D01*
X567900Y383639D01*
X566725Y383484D01*
X565631Y383031D01*
X565246Y382736D01*
X565009Y382833D01*
X564797Y383021D01*
X564939Y384100D01*
X564797Y385179D01*
X565009Y385367D01*
X565246Y385464D01*
X565631Y385169D01*
X566725Y384716D01*
X567900Y384561D01*
X569075Y384716D01*
X570169Y385169D01*
X571109Y385891D01*
X571831Y386831D01*
X572284Y387925D01*
X572439Y389100D01*
X572284Y390275D01*
X571831Y391369D01*
X571109Y392309D01*
X570169Y393031D01*
X569075Y393484D01*
X567900Y393639D01*
X566725Y393484D01*
X565631Y393031D01*
X565246Y392736D01*
X565009Y392833D01*
X564797Y393021D01*
X564939Y394100D01*
X564784Y395275D01*
X564331Y396369D01*
X563609Y397309D01*
X562669Y398031D01*
X561575Y398484D01*
X560400Y398639D01*
X559225Y398484D01*
X558131Y398031D01*
X557191Y397309D01*
X556469Y396369D01*
X556016Y395275D01*
X555861Y394100D01*
X556003Y393021D01*
X555791Y392833D01*
X555554Y392736D01*
X555169Y393031D01*
X554075Y393484D01*
X552900Y393639D01*
X551725Y393484D01*
X550631Y393031D01*
X550246Y392736D01*
X550009Y392833D01*
X549797Y393021D01*
X549939Y394100D01*
X549784Y395275D01*
X549331Y396369D01*
X548609Y397309D01*
X547669Y398031D01*
X546575Y398484D01*
X545400Y398639D01*
X544225Y398484D01*
X543131Y398031D01*
X542191Y397309D01*
X541849Y396864D01*
X541349Y397034D01*
Y401166D01*
X541849Y401336D01*
X542191Y400891D01*
X543131Y400169D01*
X544225Y399716D01*
X545400Y399561D01*
X546575Y399716D01*
X547669Y400169D01*
X548609Y400891D01*
X549331Y401831D01*
X549784Y402925D01*
X549939Y404100D01*
X549784Y405275D01*
X549331Y406369D01*
X548609Y407309D01*
X547669Y408031D01*
X546575Y408484D01*
X545400Y408639D01*
X544225Y408484D01*
X543131Y408031D01*
X542191Y407309D01*
X541849Y406864D01*
X541349Y407034D01*
Y411166D01*
X541849Y411336D01*
X542191Y410891D01*
X543131Y410169D01*
X544225Y409716D01*
X545400Y409561D01*
X546575Y409716D01*
X547669Y410169D01*
X548609Y410891D01*
X549331Y411831D01*
X549784Y412925D01*
X549939Y414100D01*
X549797Y415179D01*
X550009Y415367D01*
X550246Y415464D01*
X550631Y415169D01*
X551725Y414716D01*
X552900Y414561D01*
X554075Y414716D01*
X555169Y415169D01*
X555554Y415464D01*
X555791Y415367D01*
X556003Y415179D01*
X555861Y414100D01*
X556016Y412925D01*
X556469Y411831D01*
X557191Y410891D01*
X558131Y410169D01*
X559225Y409716D01*
X560400Y409561D01*
X561575Y409716D01*
X562669Y410169D01*
X563609Y410891D01*
X564331Y411831D01*
X564784Y412925D01*
X564939Y414100D01*
X564797Y415179D01*
X565009Y415367D01*
X565246Y415464D01*
X565631Y415169D01*
X566725Y414716D01*
X567900Y414561D01*
X569075Y414716D01*
X570169Y415169D01*
X571109Y415891D01*
X571831Y416831D01*
X572284Y417925D01*
X572439Y419100D01*
X572284Y420275D01*
X571831Y421369D01*
X571109Y422309D01*
X570169Y423031D01*
X569075Y423484D01*
X567900Y423639D01*
X566725Y423484D01*
X565631Y423031D01*
X564691Y422309D01*
X563969Y421369D01*
X563516Y420275D01*
X563361Y419100D01*
X563503Y418021D01*
X563291Y417833D01*
X563054Y417736D01*
X562669Y418031D01*
X561575Y418484D01*
X560400Y418639D01*
X559225Y418484D01*
X558131Y418031D01*
X557746Y417736D01*
X557509Y417833D01*
X557297Y418021D01*
X557439Y419100D01*
X557284Y420275D01*
X556831Y421369D01*
X556109Y422309D01*
X555169Y423031D01*
X554075Y423484D01*
X552900Y423639D01*
X551725Y423484D01*
X550631Y423031D01*
X549691Y422309D01*
X548969Y421369D01*
X548516Y420275D01*
X548361Y419100D01*
X548503Y418021D01*
X548291Y417833D01*
X548054Y417736D01*
X547669Y418031D01*
X546575Y418484D01*
X545400Y418639D01*
X544225Y418484D01*
X543131Y418031D01*
X542191Y417309D01*
X541849Y416864D01*
X541349Y417034D01*
Y427600D01*
X541155Y428576D01*
X540602Y429402D01*
X532602Y437402D01*
X531776Y437955D01*
X530800Y438149D01*
X519070D01*
Y438844D01*
X519212D01*
Y448356D01*
X511472D01*
Y440356D01*
X504161D01*
Y444824D01*
X503298D01*
X503020Y445240D01*
X503066Y445352D01*
X503178Y446200D01*
X503066Y447048D01*
X502739Y447839D01*
X502218Y448518D01*
X501539Y449039D01*
X500748Y449366D01*
X499900Y449478D01*
X499052Y449366D01*
X498261Y449039D01*
X497813Y448695D01*
X497520Y448544D01*
X497105Y448718D01*
X494261Y451561D01*
X493687Y452002D01*
X493018Y452279D01*
X492300Y452374D01*
X491570D01*
Y454356D01*
D02*
G37*
G36*
X560400Y408639D02*
X559225Y408484D01*
X558131Y408031D01*
X557191Y407309D01*
X556469Y406369D01*
X556016Y405275D01*
X555861Y404100D01*
X556016Y402925D01*
X556469Y401831D01*
X557191Y400891D01*
X558131Y400169D01*
X559225Y399716D01*
X560400Y399561D01*
X561575Y399716D01*
X562669Y400169D01*
X563609Y400891D01*
X564331Y401831D01*
X564784Y402925D01*
X564939Y404100D01*
X564784Y405275D01*
X564331Y406369D01*
X563609Y407309D01*
X562669Y408031D01*
X561575Y408484D01*
X560400Y408639D01*
D02*
G37*
G36*
X567900Y363639D02*
X566725Y363484D01*
X565631Y363031D01*
X564691Y362309D01*
X563969Y361369D01*
X563516Y360275D01*
X563361Y359100D01*
X563516Y357925D01*
X563969Y356831D01*
X564691Y355891D01*
X565631Y355169D01*
X566725Y354716D01*
X567900Y354561D01*
X569075Y354716D01*
X570169Y355169D01*
X571109Y355891D01*
X571831Y356831D01*
X572284Y357925D01*
X572439Y359100D01*
X572284Y360275D01*
X571831Y361369D01*
X571109Y362309D01*
X570169Y363031D01*
X569075Y363484D01*
X567900Y363639D01*
D02*
G37*
G36*
Y353639D02*
X566725Y353484D01*
X565631Y353031D01*
X564691Y352309D01*
X563969Y351369D01*
X563516Y350275D01*
X563361Y349100D01*
X563516Y347925D01*
X563969Y346831D01*
X564691Y345891D01*
X565631Y345169D01*
X566725Y344716D01*
X567900Y344561D01*
X569075Y344716D01*
X570169Y345169D01*
X571109Y345891D01*
X571831Y346831D01*
X572284Y347925D01*
X572439Y349100D01*
X572284Y350275D01*
X571831Y351369D01*
X571109Y352309D01*
X570169Y353031D01*
X569075Y353484D01*
X567900Y353639D01*
D02*
G37*
G36*
X443700Y262778D02*
X442852Y262666D01*
X442061Y262339D01*
X441382Y261818D01*
X440861Y261139D01*
X440534Y260348D01*
X440422Y259500D01*
X440534Y258652D01*
X440861Y257861D01*
X441382Y257182D01*
X442061Y256661D01*
X442852Y256334D01*
X443700Y256222D01*
X444548Y256334D01*
X445339Y256661D01*
X446018Y257182D01*
X446539Y257861D01*
X446866Y258652D01*
X446978Y259500D01*
X446866Y260348D01*
X446539Y261139D01*
X446018Y261818D01*
X445339Y262339D01*
X444548Y262666D01*
X443700Y262778D01*
D02*
G37*
%LPD*%
G36*
X437551Y432444D02*
Y412156D01*
X426098Y400702D01*
X425545Y399875D01*
X425351Y398900D01*
Y376700D01*
X422000D01*
Y370300D01*
X422000D01*
X422275Y369800D01*
X422082Y369335D01*
X421972Y368500D01*
X422082Y367665D01*
X422405Y366886D01*
X422824Y366340D01*
X422881Y366000D01*
X422824Y365660D01*
X422405Y365114D01*
X422082Y364335D01*
X421972Y363500D01*
X422082Y362665D01*
X422405Y361886D01*
X422918Y361218D01*
Y360782D01*
X422405Y360114D01*
X422082Y359335D01*
X421972Y358500D01*
X422082Y357665D01*
X422405Y356886D01*
X422918Y356218D01*
X423586Y355705D01*
X424365Y355382D01*
X425200Y355272D01*
X430600D01*
X431435Y355382D01*
X432214Y355705D01*
X432882Y356218D01*
X433395Y356886D01*
X433718Y357665D01*
X433828Y358500D01*
X433718Y359335D01*
X433395Y360114D01*
X432882Y360782D01*
Y361218D01*
X433395Y361886D01*
X433718Y362665D01*
X433765Y363023D01*
X434293Y363202D01*
X436993Y360503D01*
Y347256D01*
X435637D01*
X435302Y347756D01*
X435466Y348152D01*
X435578Y349000D01*
X435466Y349848D01*
X435139Y350639D01*
X434618Y351318D01*
X433939Y351839D01*
X433148Y352166D01*
X432300Y352278D01*
X431452Y352166D01*
X430661Y351839D01*
X429982Y351318D01*
X429461Y350639D01*
X429134Y349848D01*
X429022Y349000D01*
X429134Y348152D01*
X429297Y347756D01*
X428964Y347256D01*
X421530D01*
Y337744D01*
X436993D01*
Y330697D01*
X431723Y325428D01*
X431592Y325499D01*
X430272Y325899D01*
X428900Y326034D01*
X427528Y325899D01*
X426208Y325499D01*
X424992Y324849D01*
X423926Y323974D01*
X423052Y322908D01*
X422402Y321692D01*
X422358Y321549D01*
X403545D01*
X403373Y322008D01*
X403372Y322049D01*
X404601Y323279D01*
X405042Y323853D01*
X405319Y324522D01*
X405389Y325051D01*
X406412D01*
Y332791D01*
X405414D01*
Y393090D01*
X405914Y393337D01*
X406086Y393205D01*
X406865Y392882D01*
X407700Y392772D01*
X413100D01*
X413935Y392882D01*
X414714Y393205D01*
X415382Y393718D01*
X415895Y394386D01*
X416218Y395165D01*
X416328Y396000D01*
X416218Y396835D01*
X415895Y397614D01*
X415476Y398160D01*
X415419Y398500D01*
X415476Y398840D01*
X415895Y399386D01*
X416218Y400165D01*
X416328Y401000D01*
X416218Y401835D01*
X415895Y402614D01*
X415382Y403282D01*
Y403718D01*
X415895Y404386D01*
X416218Y405165D01*
X416328Y406000D01*
X416218Y406835D01*
X415895Y407614D01*
X415476Y408160D01*
X415419Y408500D01*
X415476Y408840D01*
X415895Y409386D01*
X416218Y410165D01*
X416328Y411000D01*
X416218Y411835D01*
X415895Y412614D01*
X415382Y413282D01*
X414714Y413795D01*
X413935Y414118D01*
X413323Y414198D01*
X413222Y414709D01*
X413339Y414861D01*
X413666Y415652D01*
X413778Y416500D01*
X413666Y417348D01*
X413339Y418139D01*
X412818Y418818D01*
X412139Y419339D01*
X411348Y419666D01*
X410500Y419778D01*
X409652Y419666D01*
X408861Y419339D01*
X408182Y418818D01*
X407661Y418139D01*
X407334Y417348D01*
X407222Y416500D01*
X407334Y415652D01*
X407626Y414945D01*
Y414218D01*
X406865Y414118D01*
X406086Y413795D01*
X405914Y413663D01*
X405414Y413910D01*
Y415618D01*
X405319Y416336D01*
X405042Y417005D01*
X404601Y417579D01*
X403156Y419025D01*
Y424451D01*
X422358D01*
X422402Y424308D01*
X423052Y423092D01*
X423926Y422026D01*
X424992Y421152D01*
X426208Y420502D01*
X427528Y420101D01*
X428900Y419966D01*
X430272Y420101D01*
X431592Y420502D01*
X432808Y421152D01*
X433874Y422026D01*
X434748Y423092D01*
X435398Y424308D01*
X435799Y425628D01*
X435934Y427000D01*
X435799Y428372D01*
X435398Y429692D01*
X434748Y430908D01*
X433874Y431974D01*
X433003Y432689D01*
X432968Y432772D01*
Y433228D01*
X433003Y433311D01*
X433874Y434026D01*
X434499Y434789D01*
X435155Y434840D01*
X437551Y432444D01*
D02*
G37*
G36*
X380951Y430844D02*
Y416400D01*
X381145Y415424D01*
X381698Y414598D01*
X384000Y412295D01*
Y408549D01*
X383230D01*
X383125Y408633D01*
X382945Y408905D01*
X382910Y409033D01*
X383166Y409652D01*
X383278Y410500D01*
X383166Y411348D01*
X382839Y412139D01*
X382318Y412818D01*
X381639Y413339D01*
X380848Y413666D01*
X380000Y413778D01*
X379152Y413666D01*
X378361Y413339D01*
X377983Y413049D01*
X374400D01*
X373425Y412855D01*
X372598Y412302D01*
X370456Y410161D01*
X369903Y409334D01*
X369709Y408358D01*
Y407256D01*
X361672D01*
Y397744D01*
X376993D01*
Y390698D01*
X371723Y385428D01*
X371592Y385498D01*
X370272Y385899D01*
X368900Y386034D01*
X367528Y385899D01*
X366208Y385498D01*
X364992Y384848D01*
X363926Y383974D01*
X363052Y382908D01*
X362402Y381692D01*
X362358Y381549D01*
X343479D01*
X343272Y382049D01*
X344601Y383379D01*
X345042Y383953D01*
X345319Y384622D01*
X345376Y385051D01*
X346412D01*
Y392306D01*
X346700Y392772D01*
X346856Y392772D01*
X352100D01*
X352935Y392882D01*
X353714Y393205D01*
X354382Y393718D01*
X354895Y394386D01*
X355218Y395165D01*
X355328Y396000D01*
X355218Y396835D01*
X354895Y397614D01*
X354476Y398160D01*
X354419Y398500D01*
X354476Y398840D01*
X354895Y399386D01*
X355218Y400165D01*
X355328Y401000D01*
X355218Y401835D01*
X354895Y402614D01*
X354476Y403160D01*
X354419Y403500D01*
X354476Y403840D01*
X354895Y404386D01*
X355218Y405165D01*
X355328Y406000D01*
X355218Y406835D01*
X354895Y407614D01*
X354476Y408160D01*
X354419Y408500D01*
X354476Y408840D01*
X354895Y409386D01*
X355218Y410165D01*
X355328Y411000D01*
X355218Y411835D01*
X354895Y412614D01*
X354382Y413282D01*
X353714Y413795D01*
X352935Y414118D01*
X352621Y414663D01*
X352678Y415100D01*
X352566Y415948D01*
X352239Y416739D01*
X351718Y417418D01*
X351039Y417939D01*
X350248Y418266D01*
X349400Y418378D01*
X348552Y418266D01*
X347761Y417939D01*
X347082Y417418D01*
X346561Y416739D01*
X346234Y415948D01*
X346122Y415100D01*
X346179Y414663D01*
X345865Y414118D01*
X345086Y413795D01*
X344418Y413282D01*
X343905Y412614D01*
X343582Y411835D01*
X343472Y411000D01*
X343582Y410165D01*
X343905Y409386D01*
X344324Y408840D01*
X344381Y408500D01*
X344324Y408160D01*
X343905Y407614D01*
X343582Y406835D01*
X343472Y406000D01*
X343582Y405165D01*
X343905Y404386D01*
X344324Y403840D01*
X344381Y403500D01*
X344324Y403160D01*
X343905Y402614D01*
X343582Y401835D01*
X343472Y401000D01*
X343582Y400165D01*
X343905Y399386D01*
X344324Y398840D01*
X344381Y398500D01*
X344324Y398160D01*
X343905Y397614D01*
X343582Y396835D01*
X343472Y396000D01*
X343582Y395165D01*
X343905Y394386D01*
X344418Y393718D01*
X344973Y393291D01*
X344845Y392791D01*
X342693D01*
X341674Y393810D01*
Y416130D01*
X343656D01*
Y423413D01*
Y424734D01*
X362272D01*
X362402Y424308D01*
X363052Y423092D01*
X363926Y422026D01*
X364992Y421152D01*
X366208Y420502D01*
X367528Y420101D01*
X368900Y419966D01*
X370272Y420101D01*
X371592Y420502D01*
X372808Y421152D01*
X373874Y422026D01*
X374748Y423092D01*
X375398Y424308D01*
X375799Y425628D01*
X375934Y427000D01*
X375799Y428372D01*
X375398Y429692D01*
X374748Y430908D01*
X373874Y431974D01*
X373003Y432689D01*
X372968Y432772D01*
Y433228D01*
X373003Y433311D01*
X373874Y434026D01*
X374748Y435092D01*
X375183Y435905D01*
X375799Y435996D01*
X380951Y430844D01*
D02*
G37*
G36*
X326351Y426744D02*
Y414200D01*
X323000D01*
Y408549D01*
X322042D01*
X321066Y408355D01*
X320239Y407802D01*
X320193Y407756D01*
X314649D01*
Y410283D01*
X314939Y410661D01*
X315266Y411452D01*
X315378Y412300D01*
X315266Y413148D01*
X314939Y413939D01*
X314418Y414618D01*
X313739Y415139D01*
X312948Y415466D01*
X312100Y415578D01*
X311252Y415466D01*
X310461Y415139D01*
X309782Y414618D01*
X309261Y413939D01*
X308934Y413148D01*
X308822Y412300D01*
X308934Y411452D01*
X309261Y410661D01*
X309551Y410283D01*
Y407756D01*
X301030D01*
Y398244D01*
X316493D01*
Y390197D01*
X311723Y385428D01*
X311592Y385498D01*
X310272Y385899D01*
X308900Y386034D01*
X307528Y385899D01*
X306208Y385498D01*
X304992Y384848D01*
X303926Y383974D01*
X303051Y382908D01*
X302401Y381692D01*
X302358Y381549D01*
X279079D01*
X278872Y382049D01*
X280602Y383779D01*
X281042Y384353D01*
X281319Y385022D01*
X281323Y385051D01*
X282412D01*
Y392791D01*
X281414D01*
Y416118D01*
X281319Y416836D01*
X281042Y417505D01*
X280602Y418079D01*
X279656Y419025D01*
Y424451D01*
X302358D01*
X302401Y424308D01*
X303051Y423092D01*
X303926Y422026D01*
X304992Y421152D01*
X306208Y420502D01*
X307528Y420101D01*
X308900Y419966D01*
X310272Y420101D01*
X311592Y420502D01*
X312808Y421152D01*
X313874Y422026D01*
X314749Y423092D01*
X315399Y424308D01*
X315799Y425628D01*
X315934Y427000D01*
X315799Y428372D01*
X315399Y429692D01*
X314749Y430908D01*
X313874Y431974D01*
X313002Y432689D01*
X312968Y432772D01*
Y433228D01*
X313002Y433311D01*
X313874Y434026D01*
X314749Y435092D01*
X315399Y436308D01*
X315442Y436451D01*
X316644D01*
X326351Y426744D01*
D02*
G37*
G36*
X384304Y403277D02*
X384529Y402776D01*
X384405Y402614D01*
X384082Y401835D01*
X383972Y401000D01*
X384082Y400165D01*
X384405Y399386D01*
X384824Y398840D01*
X384881Y398500D01*
X384824Y398160D01*
X384405Y397614D01*
X384082Y396835D01*
X383972Y396000D01*
X384082Y395165D01*
X384405Y394386D01*
X384918Y393718D01*
X385586Y393205D01*
X386365Y392882D01*
X387200Y392772D01*
X392600D01*
X393426Y392881D01*
X393532Y392891D01*
X393926Y392574D01*
Y332791D01*
X391388D01*
Y325051D01*
X391675D01*
X391866Y324589D01*
X390039Y322761D01*
X389598Y322187D01*
X389321Y321518D01*
X389226Y320800D01*
Y301900D01*
X389321Y301182D01*
X389598Y300513D01*
X390039Y299939D01*
X391323Y298654D01*
X391162Y298181D01*
X391052Y298166D01*
X390261Y297839D01*
X389582Y297318D01*
X389061Y296639D01*
X388734Y295848D01*
X388691Y295521D01*
X388163Y295342D01*
X386949Y296556D01*
Y306900D01*
X386755Y307875D01*
X386202Y308702D01*
X375931Y318973D01*
X375934Y319000D01*
X375799Y320372D01*
X375398Y321692D01*
X375328Y321823D01*
X381486Y327981D01*
X382038Y328808D01*
X382232Y329784D01*
Y337744D01*
X383554D01*
Y347256D01*
X361672D01*
Y337744D01*
X369651D01*
Y334617D01*
X369361Y334239D01*
X369034Y333448D01*
X368922Y332600D01*
X369034Y331752D01*
X369361Y330961D01*
X369882Y330282D01*
X370561Y329761D01*
X371352Y329434D01*
X372200Y329322D01*
X373048Y329434D01*
X373839Y329761D01*
X374518Y330282D01*
X375039Y330961D01*
X375366Y331752D01*
X375478Y332600D01*
X375366Y333448D01*
X375039Y334239D01*
X374749Y334617D01*
Y337744D01*
X377134D01*
Y330839D01*
X371723Y325428D01*
X371592Y325499D01*
X370272Y325899D01*
X368900Y326034D01*
X367528Y325899D01*
X366208Y325499D01*
X364992Y324849D01*
X363926Y323974D01*
X363052Y322908D01*
X362402Y321692D01*
X362358Y321549D01*
X342672D01*
Y322349D01*
X344601Y324279D01*
X345042Y324853D01*
X345124Y325051D01*
X346412D01*
Y332791D01*
X345414D01*
Y356260D01*
X345319Y356978D01*
X345042Y357647D01*
X344601Y358221D01*
X343656Y359167D01*
Y364735D01*
X362272D01*
X362402Y364308D01*
X363052Y363092D01*
X363926Y362026D01*
X364992Y361152D01*
X366208Y360502D01*
X367528Y360101D01*
X368900Y359966D01*
X370272Y360101D01*
X371592Y360502D01*
X372808Y361152D01*
X373874Y362026D01*
X374748Y363092D01*
X375398Y364308D01*
X375799Y365628D01*
X375934Y367000D01*
X375799Y368372D01*
X375398Y369692D01*
X374748Y370908D01*
X373874Y371974D01*
X373003Y372689D01*
X372968Y372772D01*
Y373228D01*
X373003Y373311D01*
X373874Y374026D01*
X374748Y375092D01*
X375398Y376308D01*
X375799Y377628D01*
X375934Y379000D01*
X375799Y380372D01*
X375398Y381692D01*
X375328Y381823D01*
X381344Y387839D01*
X381897Y388666D01*
X382091Y389642D01*
Y397744D01*
X383412D01*
Y402765D01*
X383963Y403316D01*
X384304Y403277D01*
D02*
G37*
G36*
X323412Y399377D02*
X323824Y398840D01*
X323881Y398500D01*
X323824Y398160D01*
X323405Y397614D01*
X323082Y396835D01*
X322972Y396000D01*
X323082Y395165D01*
X323405Y394386D01*
X323918Y393718D01*
X324586Y393205D01*
X325365Y392882D01*
X326200Y392772D01*
X331388D01*
Y389072D01*
X328939Y386623D01*
X328498Y386048D01*
X328221Y385379D01*
X328126Y384661D01*
Y353800D01*
X328221Y353082D01*
X328498Y352413D01*
X328939Y351839D01*
X332386Y348391D01*
Y332791D01*
X331388D01*
Y329072D01*
X329739Y327423D01*
X329298Y326848D01*
X329021Y326179D01*
X328926Y325461D01*
Y315032D01*
X328464Y314841D01*
X322502Y320802D01*
X321675Y321355D01*
X320700Y321549D01*
X319707D01*
X319516Y322011D01*
X321344Y323839D01*
X321897Y324666D01*
X322091Y325642D01*
Y337744D01*
X323412D01*
Y347256D01*
X314807D01*
Y348159D01*
X315039Y348461D01*
X315366Y349252D01*
X315478Y350100D01*
X315366Y350948D01*
X315039Y351739D01*
X314518Y352418D01*
X313839Y352939D01*
X313048Y353266D01*
X312200Y353378D01*
X311352Y353266D01*
X310561Y352939D01*
X309882Y352418D01*
X309361Y351739D01*
X309034Y350948D01*
X308922Y350100D01*
X309034Y349252D01*
X309361Y348461D01*
X309709Y348007D01*
Y347256D01*
X301530D01*
Y337744D01*
X316993D01*
Y326697D01*
X314250Y323955D01*
X313874Y323974D01*
X312808Y324849D01*
X311592Y325499D01*
X310272Y325899D01*
X308900Y326034D01*
X307528Y325899D01*
X306208Y325499D01*
X304992Y324849D01*
X303926Y323974D01*
X303051Y322908D01*
X302401Y321692D01*
X302358Y321549D01*
X278172D01*
Y322649D01*
X280101Y324579D01*
X280464Y325051D01*
X281912D01*
Y332791D01*
X280914D01*
Y356476D01*
X280819Y357194D01*
X280542Y357863D01*
X280101Y358438D01*
X279656Y358883D01*
Y364451D01*
X302358D01*
X302401Y364308D01*
X303051Y363092D01*
X303926Y362026D01*
X304992Y361152D01*
X306208Y360502D01*
X307528Y360101D01*
X308900Y359966D01*
X310272Y360101D01*
X311592Y360502D01*
X312808Y361152D01*
X313874Y362026D01*
X314749Y363092D01*
X315399Y364308D01*
X315799Y365628D01*
X315934Y367000D01*
X315799Y368372D01*
X315399Y369692D01*
X314749Y370908D01*
X313874Y371974D01*
X313002Y372689D01*
X312968Y372772D01*
Y373228D01*
X313002Y373311D01*
X313874Y374026D01*
X314749Y375092D01*
X315399Y376308D01*
X315799Y377628D01*
X315934Y379000D01*
X315799Y380372D01*
X315399Y381692D01*
X315328Y381823D01*
X320844Y387339D01*
X321397Y388166D01*
X321591Y389142D01*
Y398244D01*
X322912D01*
Y399270D01*
X323382Y399381D01*
X323412Y399377D01*
D02*
G37*
G36*
X381851Y305844D02*
Y295500D01*
X382045Y294525D01*
X382598Y293698D01*
X383500Y292795D01*
Y288049D01*
X382542D01*
X381566Y287855D01*
X380739Y287302D01*
X380693Y287256D01*
X375049D01*
Y288483D01*
X375339Y288861D01*
X375666Y289652D01*
X375778Y290500D01*
X375666Y291348D01*
X375339Y292139D01*
X374818Y292818D01*
X374139Y293339D01*
X373348Y293666D01*
X372500Y293778D01*
X371652Y293666D01*
X370861Y293339D01*
X370182Y292818D01*
X369661Y292139D01*
X369334Y291348D01*
X369222Y290500D01*
X369334Y289652D01*
X369661Y288861D01*
X369951Y288483D01*
Y287256D01*
X361672D01*
Y277744D01*
X376993D01*
Y270697D01*
X371723Y265428D01*
X371592Y265498D01*
X370272Y265899D01*
X368900Y266034D01*
X367528Y265899D01*
X366208Y265498D01*
X364992Y264848D01*
X363926Y263974D01*
X363052Y262908D01*
X362402Y261692D01*
X362358Y261549D01*
X343879D01*
X343672Y262049D01*
X344601Y262979D01*
X345042Y263553D01*
X345319Y264222D01*
X345414Y264940D01*
Y265051D01*
X346412D01*
Y272306D01*
X346700Y272772D01*
X346904Y272772D01*
X352100D01*
X352935Y272882D01*
X353714Y273205D01*
X354382Y273718D01*
X354895Y274386D01*
X355218Y275165D01*
X355328Y276000D01*
X355218Y276835D01*
X354895Y277614D01*
X354476Y278160D01*
X354419Y278500D01*
X354476Y278840D01*
X354895Y279386D01*
X355218Y280165D01*
X355328Y281000D01*
X355218Y281835D01*
X354895Y282614D01*
X354476Y283160D01*
X354419Y283500D01*
X354476Y283840D01*
X354895Y284386D01*
X355218Y285165D01*
X355328Y286000D01*
X355218Y286835D01*
X354895Y287614D01*
X354476Y288160D01*
X354419Y288500D01*
X354476Y288840D01*
X354895Y289386D01*
X355218Y290165D01*
X355328Y291000D01*
X355218Y291835D01*
X354895Y292614D01*
X354382Y293282D01*
X353714Y293795D01*
X352935Y294118D01*
X352174Y294218D01*
Y294700D01*
X352143Y294934D01*
X352178Y295200D01*
X352066Y296048D01*
X351739Y296839D01*
X351218Y297518D01*
X350539Y298039D01*
X349748Y298366D01*
X348900Y298478D01*
X348052Y298366D01*
X347261Y298039D01*
X346582Y297518D01*
X346061Y296839D01*
X345881Y296403D01*
X345368Y296471D01*
X345319Y296836D01*
X345042Y297505D01*
X344601Y298079D01*
X343656Y299025D01*
Y304451D01*
X362358D01*
X362402Y304308D01*
X363052Y303092D01*
X363926Y302026D01*
X364992Y301151D01*
X366208Y300501D01*
X367528Y300101D01*
X368900Y299966D01*
X370272Y300101D01*
X371592Y300501D01*
X372808Y301151D01*
X373874Y302026D01*
X374748Y303092D01*
X375398Y304308D01*
X375799Y305628D01*
X375934Y307000D01*
X375799Y308372D01*
X375398Y309692D01*
X374748Y310908D01*
X373874Y311974D01*
X373003Y312689D01*
X372968Y312772D01*
Y313228D01*
X373003Y313311D01*
X373761Y313934D01*
X381851Y305844D01*
D02*
G37*
G36*
X326351Y309744D02*
Y294200D01*
X323000D01*
Y288549D01*
X322542D01*
X321566Y288355D01*
X320739Y287802D01*
X320693Y287756D01*
X315862D01*
X315553Y288149D01*
X315567Y288256D01*
X315678Y289100D01*
X315566Y289948D01*
X315239Y290739D01*
X314718Y291418D01*
X314039Y291939D01*
X313248Y292266D01*
X312400Y292378D01*
X311552Y292266D01*
X310761Y291939D01*
X310082Y291418D01*
X309561Y290739D01*
X309234Y289948D01*
X309122Y289100D01*
X309233Y288256D01*
X309247Y288149D01*
X308938Y287756D01*
X301530D01*
Y278244D01*
X317593D01*
Y271298D01*
X311723Y265428D01*
X311592Y265498D01*
X310272Y265899D01*
X308900Y266034D01*
X307528Y265899D01*
X306208Y265498D01*
X304992Y264848D01*
X303926Y263974D01*
X303051Y262908D01*
X302401Y261692D01*
X302358Y261549D01*
X278172D01*
Y262649D01*
X280101Y264579D01*
X280464Y265051D01*
X281912D01*
Y272791D01*
X280914D01*
Y296476D01*
X280819Y297194D01*
X280542Y297863D01*
X280101Y298438D01*
X279656Y298883D01*
Y304451D01*
X302358D01*
X302401Y304308D01*
X303051Y303092D01*
X303926Y302026D01*
X304992Y301151D01*
X306208Y300501D01*
X307528Y300101D01*
X308900Y299966D01*
X310272Y300101D01*
X311592Y300501D01*
X312808Y301151D01*
X313874Y302026D01*
X314749Y303092D01*
X315399Y304308D01*
X315799Y305628D01*
X315934Y307000D01*
X315799Y308372D01*
X315399Y309692D01*
X314749Y310908D01*
X313874Y311974D01*
X313002Y312689D01*
X312968Y312772D01*
Y313228D01*
X313002Y313311D01*
X313874Y314026D01*
X314749Y315092D01*
X315399Y316308D01*
X315442Y316451D01*
X319644D01*
X326351Y309744D01*
D02*
G37*
%LPC*%
G36*
X417300Y359378D02*
X416452Y359266D01*
X415661Y358939D01*
X414982Y358418D01*
X414461Y357739D01*
X414134Y356948D01*
X414022Y356100D01*
X414134Y355252D01*
X414461Y354461D01*
X414982Y353782D01*
X415661Y353261D01*
X416452Y352934D01*
X417300Y352822D01*
X418148Y352934D01*
X418939Y353261D01*
X419618Y353782D01*
X420139Y354461D01*
X420466Y355252D01*
X420578Y356100D01*
X420466Y356948D01*
X420139Y357739D01*
X419618Y358418D01*
X418939Y358939D01*
X418148Y359266D01*
X417300Y359378D01*
D02*
G37*
G36*
X386700Y337178D02*
X385852Y337066D01*
X385061Y336739D01*
X384382Y336218D01*
X383861Y335539D01*
X383534Y334748D01*
X383422Y333900D01*
X383534Y333052D01*
X383861Y332261D01*
X384382Y331582D01*
X385061Y331061D01*
X385852Y330734D01*
X386700Y330622D01*
X387548Y330734D01*
X388339Y331061D01*
X389018Y331582D01*
X389539Y332261D01*
X389866Y333052D01*
X389978Y333900D01*
X389866Y334748D01*
X389539Y335539D01*
X389018Y336218D01*
X388339Y336739D01*
X387548Y337066D01*
X386700Y337178D01*
D02*
G37*
%LPD*%
G36*
X536251Y426544D02*
Y413307D01*
X535789Y413116D01*
X535002Y413902D01*
X534175Y414455D01*
X533200Y414649D01*
X519212D01*
Y415344D01*
Y424856D01*
X511472D01*
Y416856D01*
X504188D01*
X504117Y417326D01*
Y422565D01*
X503292D01*
X502908Y423065D01*
X502978Y423600D01*
X502866Y424448D01*
X502539Y425239D01*
X502018Y425918D01*
X501339Y426439D01*
X500548Y426766D01*
X499700Y426878D01*
X499055Y426793D01*
X498733Y426933D01*
X498554Y427184D01*
X498466Y427848D01*
X498139Y428639D01*
X497618Y429318D01*
X496939Y429839D01*
X496148Y430166D01*
X495300Y430278D01*
X494452Y430166D01*
X493661Y429839D01*
X493576Y429774D01*
X491212D01*
Y431376D01*
X493846D01*
Y432278D01*
X494346Y432470D01*
X495041Y432005D01*
X495239Y431965D01*
Y431376D01*
X504046D01*
Y430844D01*
X519070D01*
Y433051D01*
X529744D01*
X536251Y426544D01*
D02*
G37*
G36*
X495020Y410298D02*
X495196Y410180D01*
Y409116D01*
X504117D01*
X504188Y408645D01*
Y407344D01*
X519212D01*
Y409551D01*
X532144D01*
X534151Y407544D01*
Y390107D01*
X533689Y389916D01*
X532202Y391402D01*
X531376Y391955D01*
X530400Y392149D01*
X519212D01*
Y394356D01*
X519070D01*
Y402356D01*
X511330D01*
Y394356D01*
X504188D01*
Y391669D01*
X503661D01*
Y393616D01*
Y399584D01*
X502467D01*
X502366Y400348D01*
X502039Y401139D01*
X501518Y401818D01*
X500839Y402339D01*
X500048Y402666D01*
X499200Y402778D01*
X498479Y402683D01*
X498238Y402951D01*
X498167Y403128D01*
X498466Y403852D01*
X498578Y404700D01*
X498466Y405548D01*
X498139Y406339D01*
X497618Y407018D01*
X496939Y407539D01*
X496148Y407866D01*
X495300Y407978D01*
X494452Y407866D01*
X493661Y407539D01*
X493576Y407474D01*
X491212D01*
Y409116D01*
X493802D01*
Y410862D01*
X494264Y411053D01*
X495020Y410298D01*
D02*
G37*
G36*
X539924Y386945D02*
X540900Y386751D01*
X546044D01*
X549872Y382923D01*
X549840Y382424D01*
X549691Y382309D01*
X548969Y381369D01*
X548516Y380275D01*
X548361Y379100D01*
X548503Y378021D01*
X548291Y377833D01*
X548054Y377736D01*
X547669Y378031D01*
X546575Y378484D01*
X545400Y378639D01*
X544225Y378484D01*
X543131Y378031D01*
X542191Y377309D01*
X542120Y377217D01*
X541621Y377184D01*
X539249Y379556D01*
Y386866D01*
X539690Y387102D01*
X539924Y386945D01*
D02*
G37*
G36*
X494155Y387317D02*
X494739Y386927D01*
Y386135D01*
X503661D01*
Y386571D01*
X504188D01*
Y384844D01*
X519212D01*
Y387051D01*
X529344D01*
X531651Y384744D01*
Y375100D01*
X531845Y374125D01*
X532398Y373298D01*
X538398Y367298D01*
X538620Y367149D01*
X538468Y366649D01*
X518898D01*
X518712Y366835D01*
Y370344D01*
Y379856D01*
X510972D01*
Y371856D01*
X503761D01*
Y377324D01*
X502532D01*
X502378Y377500D01*
X502266Y378348D01*
X501939Y379139D01*
X501418Y379818D01*
X500739Y380339D01*
X499948Y380666D01*
X499100Y380778D01*
X498478Y380696D01*
X498111Y381119D01*
X498166Y381252D01*
X498278Y382100D01*
X498166Y382948D01*
X497839Y383739D01*
X497318Y384418D01*
X496639Y384939D01*
X495848Y385266D01*
X495000Y385378D01*
X494152Y385266D01*
X493361Y384939D01*
X493276Y384874D01*
X490712D01*
Y386135D01*
X493346D01*
Y387473D01*
X493808Y387664D01*
X494155Y387317D01*
D02*
G37*
G36*
X503688Y362344D02*
X515993D01*
X516039Y362298D01*
X516866Y361745D01*
X517842Y361551D01*
X523268D01*
X523420Y361051D01*
X523198Y360902D01*
X519212Y356917D01*
X518712Y357124D01*
Y358856D01*
X510972D01*
Y350856D01*
X504061D01*
Y356124D01*
X502835D01*
X502766Y356648D01*
X502439Y357439D01*
X501918Y358118D01*
X501239Y358639D01*
X500448Y358966D01*
X499600Y359078D01*
X498915Y358988D01*
X498534Y359374D01*
X498566Y359452D01*
X498678Y360300D01*
X498566Y361148D01*
X498239Y361939D01*
X497718Y362618D01*
X497039Y363139D01*
X496467Y363376D01*
X496567Y363876D01*
X503688D01*
Y362344D01*
D02*
G37*
G36*
X529920Y356051D02*
X529698Y355902D01*
X524498Y350702D01*
X523945Y349875D01*
X523751Y348900D01*
Y342056D01*
X517551Y335856D01*
X510472D01*
Y327856D01*
X503661D01*
Y333224D01*
X502720D01*
X502478Y333500D01*
X502366Y334348D01*
X502039Y335139D01*
X501518Y335818D01*
X500839Y336339D01*
X500048Y336666D01*
X499200Y336778D01*
X498665Y336708D01*
X498481Y336867D01*
X498280Y337159D01*
X498378Y337900D01*
X498266Y338748D01*
X497939Y339539D01*
X497418Y340218D01*
X496739Y340739D01*
X495948Y341066D01*
X495100Y341178D01*
X494252Y341066D01*
X493461Y340739D01*
X492985Y340374D01*
X490712D01*
Y342356D01*
X491079Y342676D01*
X493746D01*
Y343673D01*
X494024Y343788D01*
X494246Y343836D01*
X495041Y343305D01*
X495139Y343285D01*
Y342676D01*
X503688D01*
Y341344D01*
X518712D01*
Y349344D01*
Y351551D01*
X520000D01*
X520975Y351745D01*
X521802Y352298D01*
X526056Y356551D01*
X529768D01*
X529920Y356051D01*
D02*
G37*
G36*
X527151Y337593D02*
Y320456D01*
X518712Y312017D01*
X518212Y312224D01*
Y313856D01*
X510472D01*
Y305856D01*
X503476D01*
Y311565D01*
X502243D01*
X502166Y312148D01*
X501839Y312939D01*
X501318Y313618D01*
X500639Y314139D01*
X499848Y314466D01*
X499000Y314578D01*
X498718Y314541D01*
X498396Y314862D01*
X498378Y315001D01*
X498266Y315848D01*
X497939Y316639D01*
X497418Y317318D01*
X496739Y317839D01*
X495948Y318166D01*
X495100Y318278D01*
X494252Y318166D01*
X493461Y317839D01*
X493376Y317774D01*
X490353D01*
Y319776D01*
X493346D01*
Y321173D01*
X493808Y321364D01*
X494214Y320957D01*
X494739Y320607D01*
Y319776D01*
X503188D01*
Y318344D01*
X518212D01*
Y326344D01*
Y329307D01*
X526689Y337784D01*
X527151Y337593D01*
D02*
G37*
G36*
X531351Y316793D02*
Y295656D01*
X524344Y288649D01*
X518070D01*
Y290856D01*
X510330D01*
Y282856D01*
X503861D01*
Y288424D01*
X502796D01*
X502766Y288648D01*
X502439Y289439D01*
X501918Y290118D01*
X501239Y290639D01*
X500448Y290966D01*
X499600Y291078D01*
X498752Y290966D01*
X497961Y290639D01*
X497906Y290597D01*
X497549Y290953D01*
X497939Y291461D01*
X498266Y292252D01*
X498378Y293100D01*
X498266Y293948D01*
X497939Y294739D01*
X497418Y295418D01*
X496739Y295939D01*
X495948Y296266D01*
X495100Y296378D01*
X494252Y296266D01*
X493461Y295939D01*
X493376Y295874D01*
X490212D01*
Y297856D01*
X490604Y298116D01*
X493161D01*
Y299658D01*
X493623Y299849D01*
X494174Y299298D01*
X494554Y299044D01*
Y298116D01*
X503047D01*
Y296344D01*
X518070D01*
Y304344D01*
X518212D01*
Y306551D01*
X519400D01*
X520375Y306745D01*
X521202Y307298D01*
X530889Y316984D01*
X531351Y316793D01*
D02*
G37*
G36*
X533551Y289993D02*
Y287414D01*
X515493Y269356D01*
X510472D01*
Y261356D01*
X503561D01*
Y267124D01*
X502781D01*
X502452Y267500D01*
X502478Y267700D01*
X502366Y268548D01*
X502039Y269339D01*
X501518Y270018D01*
X500839Y270539D01*
X500048Y270866D01*
X499200Y270978D01*
X499017Y270954D01*
X498548Y271332D01*
X498466Y271948D01*
X498139Y272739D01*
X497618Y273418D01*
X496939Y273939D01*
X496148Y274266D01*
X495300Y274378D01*
X494452Y274266D01*
X493661Y273939D01*
X493576Y273874D01*
X490212D01*
Y274976D01*
X493546D01*
Y276273D01*
X494008Y276464D01*
X494314Y276157D01*
X494939Y275740D01*
Y274976D01*
X503188D01*
Y273344D01*
X518212D01*
Y282856D01*
X518070D01*
Y283551D01*
X525400D01*
X526375Y283745D01*
X527202Y284298D01*
X533089Y290184D01*
X533551Y289993D01*
D02*
G37*
D10*
X298116Y456016D02*
Y463000D01*
X320142Y270242D02*
Y283600D01*
X305579Y439079D02*
X308900Y442400D01*
Y439000D02*
Y442400D01*
X274400Y439079D02*
X305579D01*
X319900Y450000D02*
Y463000D01*
X308900Y439000D02*
X319900Y450000D01*
X305400Y463000D02*
X312616D01*
X297884Y456016D02*
X298116D01*
X275042Y427000D02*
X308900D01*
X274900Y427142D02*
X275042Y427000D01*
X308900Y439000D02*
X317700D01*
X328900Y427800D01*
Y411000D02*
Y427800D01*
X322042Y406000D02*
X328900D01*
X319042Y403000D02*
X322042Y406000D01*
X304900Y403000D02*
X311758D01*
X296816Y402200D02*
X297617Y403000D01*
X292600Y402200D02*
X296816D01*
X319042Y389142D02*
Y403000D01*
X308900Y379000D02*
X319042Y389142D01*
X274979Y379000D02*
X308900D01*
X274900Y379079D02*
X274979Y379000D01*
X274900Y367000D02*
X308900D01*
X349400Y406000D02*
Y411000D01*
X319542Y325642D02*
Y342500D01*
X312900Y319000D02*
X319542Y325642D01*
X305400Y342500D02*
X312258D01*
X293800D02*
X298116D01*
X293500Y342200D02*
X293800Y342500D01*
X274479Y319000D02*
X308900D01*
X274400Y319079D02*
X274479Y319000D01*
X328900Y291000D02*
Y310800D01*
X320700Y319000D02*
X328900Y310800D01*
X308900Y319000D02*
X312900D01*
X320700D01*
X322542Y286000D02*
X328900D01*
X305400Y283000D02*
X312258D01*
X293400D02*
X298116D01*
X292800Y282400D02*
X293400Y283000D01*
X274479Y259000D02*
X308900D01*
X274400Y259079D02*
X274479Y259000D01*
X308400Y246500D02*
X308900Y247000D01*
X274900Y246500D02*
X308400D01*
X274900Y307000D02*
X308900D01*
Y259000D02*
X320142Y270242D01*
X319542Y283000D02*
X320142Y283600D01*
X322542Y286000D01*
X365900Y463000D02*
X372617D01*
X353800D02*
X358616D01*
X353300Y462500D02*
X353800Y463000D01*
X379900Y450000D02*
Y463000D01*
X338900Y439000D02*
X368900D01*
X338900Y427283D02*
X368617D01*
X368900Y427000D01*
X388900Y411000D02*
X389900D01*
X383500Y416400D02*
X388900Y411000D01*
X383500Y416400D02*
Y431900D01*
X375900Y439500D02*
X383500Y431900D01*
X369400Y439500D02*
X375900D01*
X368900Y439000D02*
X369400Y439500D01*
X379900Y450000D01*
X383042Y406000D02*
X389900D01*
X379542Y402500D02*
X383042Y406000D01*
X365542Y402500D02*
X372258D01*
X358258Y397742D02*
Y402500D01*
Y397742D02*
X360300Y395700D01*
X379542Y389642D02*
Y402500D01*
X368900Y379000D02*
X379542Y389642D01*
X338900Y379079D02*
X338979Y379000D01*
X379683Y329784D02*
Y342500D01*
X368900Y319000D02*
X379683Y329784D01*
X365542Y342500D02*
X372400D01*
X354200D02*
X358258D01*
X353700Y342000D02*
X354200Y342500D01*
X338979Y319000D02*
X368900D01*
X338900Y319079D02*
X338979Y319000D01*
X339042Y307000D02*
X368900D01*
X338900Y307142D02*
X339042Y307000D01*
X384400Y295500D02*
X389400Y290500D01*
X384400Y295500D02*
Y306900D01*
X372300Y319000D02*
X384400Y306900D01*
X368900Y319000D02*
X372300D01*
X382542Y285500D02*
X389400D01*
X379542Y282500D02*
X382542Y285500D01*
X365542Y282500D02*
X372258D01*
X379542Y269642D02*
Y282500D01*
X368900Y259000D02*
X379542Y269642D01*
X358258Y277442D02*
Y282500D01*
Y277442D02*
X360500Y275200D01*
X339042Y247000D02*
X368900D01*
X338900Y247142D02*
X339042Y247000D01*
X338979Y259000D02*
X368900D01*
X338900Y259079D02*
X338979Y259000D01*
X368617Y367284D02*
X368900Y367000D01*
X338900Y367284D02*
X368617D01*
X338979Y379000D02*
X368900D01*
X425183Y462000D02*
X425683Y462500D01*
X417900Y456500D02*
Y462000D01*
X417700Y456300D02*
X417900Y456500D01*
X439900Y450000D02*
Y462500D01*
X428900Y439000D02*
X439900Y450000D01*
X398900Y439079D02*
X398979Y439000D01*
X398400Y427142D02*
X398542Y427000D01*
X427900Y373500D02*
Y398900D01*
X440100Y411100D01*
Y433500D01*
X434600Y439000D02*
X440100Y433500D01*
X428900Y439000D02*
X434600D01*
X427900Y368500D02*
X432600D01*
X439542Y361558D01*
Y342500D02*
Y361558D01*
X425400Y342500D02*
X432258D01*
X418117D02*
Y348783D01*
X418100Y348800D02*
X418117Y348783D01*
X439542Y329642D02*
Y342500D01*
X428900Y319000D02*
X439542Y329642D01*
X398979Y319000D02*
X428900D01*
X398900Y319079D02*
X398979Y319000D01*
X398900Y307000D02*
X428900D01*
X480416Y442525D02*
Y449600D01*
Y442525D02*
X481200Y441742D01*
X475958D02*
X481200D01*
X475400Y442300D02*
X475958Y441742D01*
X489385Y441840D02*
X490260D01*
X499700Y434360D02*
X506676D01*
X507916Y435600D01*
X515342Y435742D02*
Y443600D01*
X515200Y435600D02*
X515342Y435742D01*
X508058Y443600D02*
Y449742D01*
X508000Y449800D02*
X508058Y449742D01*
X490260Y440117D02*
X496017Y434360D01*
X499700D01*
X398979Y439000D02*
X428900D01*
X398542Y427000D02*
X428900D01*
X480058Y420025D02*
Y427100D01*
Y420025D02*
X480842Y419242D01*
X475858D02*
X480842D01*
X475600Y419500D02*
X475858Y419242D01*
X489342Y419580D02*
X496822Y412100D01*
X499657D01*
X508058D01*
X508058Y412100D01*
X515342D02*
Y420100D01*
X508058D02*
Y424842D01*
X507800Y425100D02*
X508058Y424842D01*
X480700Y397100D02*
Y403958D01*
X480058Y404600D02*
X480700Y403958D01*
X475800Y397100D02*
X480700D01*
X475400Y396700D02*
X475800Y397100D01*
X499200Y389120D02*
X507578D01*
X508058Y389600D01*
X515200Y389742D02*
Y397600D01*
Y389742D02*
X515342Y389600D01*
X507916Y397600D02*
Y402283D01*
X507600Y402600D02*
X507916Y402283D01*
X488885Y396192D02*
Y396600D01*
Y396192D02*
X495957Y389120D01*
X499200D01*
X476100Y382100D02*
X479558D01*
X475900Y382300D02*
X476100Y382100D01*
X475600Y367600D02*
X480200D01*
X488985Y373592D02*
Y374340D01*
Y373592D02*
X495717Y366860D01*
X499300D01*
X507318D01*
X507558Y367100D01*
X514842D02*
Y375100D01*
X507558D02*
Y379342D01*
X506600Y380300D02*
X507558Y379342D01*
X489285Y352392D02*
Y353140D01*
Y352392D02*
X496017Y345660D01*
X499600D01*
X479558Y360100D02*
Y366958D01*
X480200Y367600D01*
Y352600D02*
Y359458D01*
X479558Y360100D02*
X480200Y359458D01*
X476100Y352600D02*
X480200D01*
X475900Y352800D02*
X476100Y352600D01*
X479558Y330742D02*
Y337600D01*
Y330742D02*
X480200Y330100D01*
X475900Y337600D02*
X479558D01*
X475600Y337300D02*
X475900Y337600D01*
X488885Y330240D02*
X489860D01*
Y328917D02*
X496017Y322760D01*
X499200D01*
X479200Y309100D02*
X480200Y308100D01*
X479200Y309100D02*
Y315600D01*
X475300D02*
X479200D01*
X488700Y308377D02*
Y308580D01*
Y308377D02*
X495977Y301100D01*
X499015D01*
X499600Y345660D02*
X507118D01*
X507558Y346100D01*
X514842D02*
Y354100D01*
X507558D02*
Y358458D01*
X507600Y358500D01*
X499200Y322760D02*
X506718D01*
X507058Y323100D01*
X514342D02*
Y331100D01*
X507058D02*
Y335442D01*
X506900Y335600D02*
X507058Y335442D01*
X499015Y301100D02*
X506917D01*
X506917Y301100D01*
X514200D02*
Y308958D01*
X514342Y309100D01*
X507058D02*
Y312742D01*
X506400Y313400D02*
X507058Y312742D01*
X479700Y285600D02*
Y292458D01*
X479058Y293100D02*
X479700Y292458D01*
X476200Y293100D02*
X479058D01*
X475900Y293400D02*
X476200Y293100D01*
X489085Y284992D02*
Y285440D01*
Y284992D02*
X496117Y277960D01*
X499400D01*
X506918D01*
X507058Y278100D01*
X514342D02*
Y285958D01*
X514200Y286100D02*
X514342Y285958D01*
X506917Y286100D02*
Y290483D01*
X506200Y291200D02*
X506917Y290483D01*
X479058Y263883D02*
Y271100D01*
Y263883D02*
X479200Y263742D01*
X474458D02*
X479200D01*
X474100Y264100D02*
X474458Y263742D01*
X488785Y263592D02*
Y264140D01*
Y263592D02*
X495717Y256660D01*
X499100D01*
X506998D01*
X507058Y256600D01*
X514342D02*
Y264600D01*
X507058D02*
Y269642D01*
X506800Y269900D02*
X507058Y269642D01*
X478558Y241883D02*
Y249100D01*
Y241883D02*
X478700Y241742D01*
X473842D02*
X478700D01*
X473800Y241700D02*
X473842Y241742D01*
X489185Y240238D02*
Y241440D01*
Y240238D02*
X495463Y233960D01*
X499500D01*
X506918D01*
X507058Y234100D01*
X514342D02*
Y242100D01*
X507058D02*
Y246458D01*
X507200Y246600D01*
X547100Y389300D02*
X552900Y383500D01*
Y379100D02*
Y383500D01*
X515342Y412100D02*
X533200D01*
X515200Y435600D02*
X530800D01*
X538800Y427600D01*
X540900Y389300D02*
X547100D01*
X538800Y391400D02*
X540900Y389300D01*
X538800Y391400D02*
Y427600D01*
X533200Y412100D02*
X536700Y408600D01*
Y378500D02*
Y408600D01*
Y378500D02*
X541100Y374100D01*
X545400D01*
X515342Y389600D02*
X530400D01*
X534200Y385800D01*
Y375100D02*
Y385800D01*
Y375100D02*
X540200Y369100D01*
X552900D01*
X514842Y367100D02*
X517842Y364100D01*
X545400D01*
X514842Y354100D02*
X520000D01*
X525000Y359100D01*
X552900D01*
X514342Y331100D02*
X516400D01*
X526300Y341000D01*
Y348900D01*
X531500Y354100D01*
X545400D01*
X536700Y349100D02*
X552900D01*
X529700Y342100D02*
X536700Y349100D01*
X514342Y309100D02*
X519400D01*
X529700Y319400D01*
Y342100D01*
X540400Y344100D02*
X545400D01*
X533900Y337600D02*
X540400Y344100D01*
X514200Y286100D02*
X525400D01*
X533900Y294600D01*
Y337600D01*
X514342Y264600D02*
X536100Y286358D01*
Y332400D01*
X542800Y339100D01*
X552900D01*
X514342Y242100D02*
X573400D01*
X582500Y251200D01*
Y365800D01*
X579200Y369100D02*
X582500Y365800D01*
X567900Y369100D02*
X579200D01*
X499700Y441840D02*
Y446000D01*
X499900Y446200D01*
X312800Y463183D02*
Y474900D01*
X312616Y463000D02*
X312800Y463183D01*
X499657Y419580D02*
Y423557D01*
X499700Y423600D01*
X312100Y403342D02*
Y412300D01*
X311758Y403000D02*
X312100Y403342D01*
X499200Y396600D02*
Y399500D01*
X312200Y350100D02*
X312258Y350042D01*
Y342500D02*
Y350042D01*
X499300Y374340D02*
Y377300D01*
X499100Y377500D02*
X499300Y377300D01*
X312400Y283142D02*
Y289100D01*
X312258Y283000D02*
X312400Y283142D01*
X499600Y353140D02*
Y355800D01*
X415000Y471900D02*
X415500Y472400D01*
X375800Y471900D02*
X415000D01*
X372617Y468716D02*
X375800Y471900D01*
X372617Y463000D02*
Y468716D01*
X499200Y330240D02*
Y333500D01*
X374400Y410500D02*
X380000D01*
X372258Y408358D02*
X374400Y410500D01*
X372258Y402500D02*
Y408358D01*
X499015Y308580D02*
Y311285D01*
X499000Y311300D02*
X499015Y311285D01*
X372200Y332600D02*
Y342300D01*
X372400Y342500D01*
X499400Y285440D02*
Y287600D01*
X499600Y287800D01*
X372500Y282742D02*
Y290500D01*
X372258Y282500D02*
X372500Y282742D01*
X499100Y264140D02*
Y267600D01*
X499200Y267700D01*
X499500Y241440D02*
Y247600D01*
X499200Y247900D02*
X499500Y247600D01*
X432258Y348958D02*
X432300Y349000D01*
X432258Y342500D02*
Y348958D01*
X425683Y462500D02*
X432617D01*
X489860Y328917D02*
Y330240D01*
X490260Y440117D02*
Y441840D01*
X587100Y202700D02*
X588850Y204450D01*
X583700Y206200D02*
X585450Y207950D01*
X581900Y197500D02*
X583600Y199200D01*
X578500Y201000D02*
X580100Y202600D01*
X585500Y207900D02*
X588700D01*
X588900Y204400D02*
Y207700D01*
X585500Y204400D02*
X588900D01*
X585500D02*
Y207900D01*
X578500Y197500D02*
Y201000D01*
X581900Y197500D02*
Y200800D01*
X578500Y201000D02*
X581700D01*
X578500Y197500D02*
X581900D01*
X581650Y204550D02*
X585350Y200850D01*
X578300Y204500D02*
Y207900D01*
Y204500D02*
X585350Y197450D01*
X581800Y204700D02*
Y207900D01*
X578300Y204500D02*
X581600D01*
X578300Y207900D02*
X581800D01*
X585400Y200900D02*
X588900D01*
X585400Y197500D02*
Y200900D01*
Y197500D02*
X588700D01*
X588900Y197700D02*
Y200900D01*
X581850Y207950D02*
X588900Y200900D01*
D12*
X560501Y477400D02*
G03*
X560501Y477400I-4701J0D01*
G01*
X553100Y480199D02*
Y476200D01*
Y478199D01*
X555766D01*
Y480199D01*
Y476200D01*
X558366Y478199D02*
X555700D01*
Y474200D01*
X558366D01*
X555700Y476199D02*
X557033D01*
D13*
X499500Y233960D02*
D03*
Y237700D02*
D03*
Y241440D02*
D03*
X489185Y233960D02*
D03*
Y241440D02*
D03*
X499700Y434360D02*
D03*
Y438100D02*
D03*
Y441840D02*
D03*
X489385Y434360D02*
D03*
Y441840D02*
D03*
X499200Y389120D02*
D03*
Y392860D02*
D03*
Y396600D02*
D03*
X488885Y389120D02*
D03*
Y396600D02*
D03*
X499600Y345660D02*
D03*
Y349400D02*
D03*
Y353140D02*
D03*
X489285Y345660D02*
D03*
Y353140D02*
D03*
X499015Y301100D02*
D03*
Y304840D02*
D03*
Y308580D02*
D03*
X488700Y301100D02*
D03*
Y308580D02*
D03*
X499100Y256660D02*
D03*
Y260400D02*
D03*
Y264140D02*
D03*
X488785Y256660D02*
D03*
Y264140D02*
D03*
X499657Y412100D02*
D03*
Y415840D02*
D03*
Y419580D02*
D03*
X489342Y412100D02*
D03*
Y419580D02*
D03*
X499300Y366860D02*
D03*
Y370600D02*
D03*
Y374340D02*
D03*
X488985Y366860D02*
D03*
Y374340D02*
D03*
X499200Y322760D02*
D03*
Y326500D02*
D03*
Y330240D02*
D03*
X488885Y322760D02*
D03*
Y330240D02*
D03*
X499400Y277960D02*
D03*
Y281700D02*
D03*
Y285440D02*
D03*
X489085Y277960D02*
D03*
Y285440D02*
D03*
D14*
X402640Y328921D02*
D03*
X398900Y319079D02*
D03*
X278140Y448921D02*
D03*
X274400Y439079D02*
D03*
X278140Y328921D02*
D03*
X274400Y319079D02*
D03*
X342640Y448842D02*
D03*
X338900Y439000D02*
D03*
X342640Y328921D02*
D03*
X338900Y319079D02*
D03*
X402640Y448921D02*
D03*
X398900Y439079D02*
D03*
X278640Y388921D02*
D03*
X274900Y379079D02*
D03*
X278140Y268921D02*
D03*
X274400Y259079D02*
D03*
X342640Y388921D02*
D03*
X338900Y379079D02*
D03*
X342640Y268921D02*
D03*
X338900Y259079D02*
D03*
D15*
X395160Y328921D02*
D03*
X270660Y448921D02*
D03*
Y328921D02*
D03*
X335160Y448842D02*
D03*
Y328921D02*
D03*
X395160Y448921D02*
D03*
X271160Y388921D02*
D03*
X270660Y268921D02*
D03*
X335160Y388921D02*
D03*
Y268921D02*
D03*
D16*
X427900Y373500D02*
D03*
X328900Y411000D02*
D03*
Y291000D02*
D03*
X389900Y411000D02*
D03*
X389400Y290500D02*
D03*
D17*
X427900Y368500D02*
D03*
Y363500D02*
D03*
Y358500D02*
D03*
X448400Y373500D02*
D03*
Y368500D02*
D03*
Y363500D02*
D03*
Y358500D02*
D03*
X328900Y406000D02*
D03*
Y401000D02*
D03*
Y396000D02*
D03*
X349400Y411000D02*
D03*
Y406000D02*
D03*
Y401000D02*
D03*
Y396000D02*
D03*
X328900Y286000D02*
D03*
Y281000D02*
D03*
Y276000D02*
D03*
X349400Y291000D02*
D03*
Y286000D02*
D03*
Y281000D02*
D03*
Y276000D02*
D03*
X389900Y406000D02*
D03*
Y401000D02*
D03*
Y396000D02*
D03*
X410400Y411000D02*
D03*
Y406000D02*
D03*
Y401000D02*
D03*
Y396000D02*
D03*
X389400Y285500D02*
D03*
Y280500D02*
D03*
Y275500D02*
D03*
X409900Y290500D02*
D03*
Y285500D02*
D03*
Y280500D02*
D03*
Y275500D02*
D03*
D18*
X398900Y299716D02*
D03*
Y307000D02*
D03*
X481200Y441742D02*
D03*
Y434458D02*
D03*
X480700Y397100D02*
D03*
Y389816D02*
D03*
X480200Y352600D02*
D03*
Y345317D02*
D03*
Y308100D02*
D03*
Y300816D02*
D03*
X479200Y263742D02*
D03*
Y256458D02*
D03*
X480842Y419242D02*
D03*
Y411958D02*
D03*
X480200Y367600D02*
D03*
Y374884D02*
D03*
Y330100D02*
D03*
Y322816D02*
D03*
X479700Y285600D02*
D03*
Y278316D02*
D03*
X478700Y241742D02*
D03*
Y234458D02*
D03*
X274900Y419858D02*
D03*
Y427142D02*
D03*
Y299716D02*
D03*
Y307000D02*
D03*
X338900Y420000D02*
D03*
Y427283D02*
D03*
Y299858D02*
D03*
Y307142D02*
D03*
X398400Y419858D02*
D03*
Y427142D02*
D03*
X274900Y359717D02*
D03*
Y367000D02*
D03*
Y239216D02*
D03*
Y246500D02*
D03*
X338900Y360000D02*
D03*
Y367284D02*
D03*
Y239858D02*
D03*
Y247142D02*
D03*
D19*
X507058Y242100D02*
D03*
X514342D02*
D03*
X319900Y463000D02*
D03*
X312616D02*
D03*
X319542Y342500D02*
D03*
X312258D02*
D03*
X379900Y463000D02*
D03*
X372617D02*
D03*
X379683Y342500D02*
D03*
X372400D02*
D03*
X439900Y462500D02*
D03*
X432617D02*
D03*
X480416Y449600D02*
D03*
X487700D02*
D03*
X480058Y404600D02*
D03*
X487342D02*
D03*
X479558Y360100D02*
D03*
X486842D02*
D03*
X479200Y315600D02*
D03*
X486483D02*
D03*
X479058Y271100D02*
D03*
X486342D02*
D03*
X508058Y443600D02*
D03*
X515342D02*
D03*
X507916Y397600D02*
D03*
X515200D02*
D03*
X507558Y354100D02*
D03*
X514842D02*
D03*
X507058Y309100D02*
D03*
X514342D02*
D03*
X507058Y264600D02*
D03*
X514342D02*
D03*
X478558Y249100D02*
D03*
X485842D02*
D03*
X319042Y403000D02*
D03*
X311758D02*
D03*
X319542Y283000D02*
D03*
X312258D02*
D03*
X379542Y402500D02*
D03*
X372258D02*
D03*
X379542Y282500D02*
D03*
X372258D02*
D03*
X439542Y342500D02*
D03*
X432258D02*
D03*
X480058Y427100D02*
D03*
X487342D02*
D03*
X479558Y382100D02*
D03*
X486842D02*
D03*
X479558Y337600D02*
D03*
X486842D02*
D03*
X479058Y293100D02*
D03*
X486342D02*
D03*
X508058Y420100D02*
D03*
X515342D02*
D03*
X507558Y375100D02*
D03*
X514842D02*
D03*
X507058Y331100D02*
D03*
X514342D02*
D03*
X506917Y286100D02*
D03*
X514200D02*
D03*
X507916Y435600D02*
D03*
X515200D02*
D03*
X508058Y389600D02*
D03*
X515342D02*
D03*
X507558Y346100D02*
D03*
X514842D02*
D03*
X506917Y301100D02*
D03*
X514200D02*
D03*
X507058Y256600D02*
D03*
X514342D02*
D03*
X298116Y463000D02*
D03*
X305400D02*
D03*
X298116Y342500D02*
D03*
X305400D02*
D03*
X358616Y463000D02*
D03*
X365900D02*
D03*
X358258Y342500D02*
D03*
X365542D02*
D03*
X417900Y462000D02*
D03*
X425183D02*
D03*
X508058Y412100D02*
D03*
X515342D02*
D03*
X507558Y367100D02*
D03*
X514842D02*
D03*
X507058Y323100D02*
D03*
X514342D02*
D03*
X507058Y278100D02*
D03*
X514342D02*
D03*
X507058Y234100D02*
D03*
X514342D02*
D03*
X297617Y403000D02*
D03*
X304900D02*
D03*
X298116Y283000D02*
D03*
X305400D02*
D03*
X358258Y402500D02*
D03*
X365542D02*
D03*
X358258Y282500D02*
D03*
X365542D02*
D03*
X418117Y342500D02*
D03*
X425400D02*
D03*
D32*
X270984Y239216D02*
X274900D01*
X269300Y240900D02*
X270984Y239216D01*
X269300Y240900D02*
Y260700D01*
X272900Y264300D01*
X275900D01*
X278140Y266540D01*
Y268921D01*
Y296476D01*
X274900Y299716D02*
X278140Y296476D01*
X266700Y408100D02*
Y444961D01*
X270660Y448921D01*
X271884Y299716D02*
X274900D01*
X269100Y302500D02*
X271884Y299716D01*
X267000Y325261D02*
X270660Y328921D01*
X267000Y272581D02*
X270660Y268921D01*
X269100Y302500D02*
Y320800D01*
X272400Y324100D01*
X275700D01*
X278140Y326540D01*
Y328921D01*
Y356476D01*
X274900Y359717D02*
X278140Y356476D01*
X271284Y359717D02*
X274900D01*
X269600Y361400D02*
X271284Y359717D01*
X271870Y394241D02*
X273100Y393011D01*
Y391271D02*
Y393011D01*
X271870Y390041D02*
X273100Y391271D01*
X270138Y387899D02*
X271160Y388921D01*
Y390041D01*
X266700Y408100D02*
X273100Y401700D01*
X265938Y392220D02*
X267959Y394241D01*
X271870D01*
X265938Y333643D02*
X270660Y328921D01*
X265938Y333643D02*
Y392220D01*
X269600Y361400D02*
Y381500D01*
X271700Y383600D01*
X276500D01*
X278640Y385740D01*
Y388921D01*
X273100Y393011D02*
Y401700D01*
X278640Y388921D02*
Y416118D01*
X274900Y419858D02*
X278640Y416118D01*
X271742Y419858D02*
X274900D01*
X269500Y422100D02*
X271742Y419858D01*
X269500Y422100D02*
Y442400D01*
X271700Y444600D01*
X273819D01*
X278140Y448921D01*
X335542Y239858D02*
X338900D01*
X333000Y242400D02*
X335542Y239858D01*
X333000Y242400D02*
Y260600D01*
X336000Y263600D01*
X341300D01*
X342640Y264940D01*
Y268921D01*
Y296118D01*
X338900Y299858D02*
X342640Y296118D01*
X335160Y268921D02*
Y293940D01*
X336342Y299858D02*
X338900D01*
X331700Y325461D02*
X335160Y328921D01*
X331700Y297400D02*
Y325461D01*
X334300Y301900D02*
X336342Y299858D01*
X334300Y301900D02*
Y321800D01*
X336600Y324100D01*
X340500D01*
X342640Y326240D01*
Y328921D01*
X335160D02*
Y349540D01*
X338900Y360000D02*
X342640Y356260D01*
Y328921D02*
Y356260D01*
X330900Y353800D02*
X335160Y349540D01*
X330900Y353800D02*
Y384661D01*
X335160Y388921D01*
X336000Y360000D02*
X338900D01*
X333800Y362200D02*
X336000Y360000D01*
X333800Y362200D02*
Y380700D01*
X336800Y383700D01*
X341000D01*
X342640Y385340D01*
Y388921D01*
X334300Y389781D02*
X335160Y388921D01*
X338900Y392661D02*
X342640Y388921D01*
X338900Y392661D02*
Y420000D01*
X410400Y406000D02*
Y411000D01*
X448400Y368500D02*
Y373500D01*
X409900Y285500D02*
Y290500D01*
X489287Y434458D02*
X489385Y434360D01*
X495600Y438100D02*
X499700D01*
X495400Y438300D02*
X495600Y438100D01*
X487442Y427000D02*
X495300D01*
X487342Y427100D02*
X487442Y427000D01*
X487700Y449600D02*
X492300D01*
X495400Y446500D01*
Y438300D02*
Y446500D01*
X394183Y299716D02*
X398900D01*
X392000Y301900D02*
X394183Y299716D01*
X392000Y301900D02*
Y320800D01*
X395200Y324000D01*
X401400D01*
X402640Y325240D01*
Y328921D01*
X399700Y290500D02*
X409900D01*
X395400Y294800D02*
X399700Y290500D01*
X398400Y419858D02*
X402640Y415618D01*
Y328921D02*
Y415618D01*
X395160Y328921D02*
X396700Y330461D01*
Y412800D01*
X397042Y419858D02*
X398400D01*
X392700Y424200D02*
X397042Y419858D01*
X390600Y418900D02*
Y444361D01*
X395160Y448921D01*
X392700Y424200D02*
Y440300D01*
X397200Y444800D01*
X401300D01*
X402640Y446140D01*
Y448921D01*
X410400Y411000D02*
Y416400D01*
X410500Y416500D01*
X495300Y417300D02*
X496760Y415840D01*
X499657D01*
X480842Y411958D02*
X480983Y412100D01*
X487442Y404700D02*
X495300D01*
X487342Y404600D02*
X487442Y404700D01*
X481200Y434458D02*
X485300D01*
X489287D01*
X495540Y392860D02*
X499200D01*
X495200Y393200D02*
X495540Y392860D01*
X495300Y370600D02*
X499300D01*
X486842Y382100D02*
X495000D01*
X480700Y389816D02*
X481397Y389120D01*
X485300D01*
Y233900D02*
X489125D01*
X489185Y233960D01*
X480200Y374884D02*
X481100D01*
X495300Y237800D02*
X499400D01*
X499500Y237700D01*
X495600Y349400D02*
X499600D01*
X495300Y349700D02*
X495600Y349400D01*
X486842Y360100D02*
X495200D01*
X495400Y360300D01*
X488942Y345317D02*
X489285Y345660D01*
X480200Y345317D02*
X485100D01*
X488942D01*
X486842Y337600D02*
X494800D01*
X495100Y337900D01*
X495600Y326500D02*
X499200D01*
X495400Y326700D02*
X495600Y326500D01*
X480200Y322816D02*
X480257Y322760D01*
X485200D01*
X495560Y304840D02*
X499015D01*
X495400Y305000D02*
X495560Y304840D01*
X480200Y300816D02*
X480483Y301100D01*
X485000D01*
X481100Y374745D02*
X485145Y370700D01*
X488985Y366860D01*
X486483Y315600D02*
X487083Y315000D01*
X495100D01*
X486342Y293100D02*
X495100D01*
X495700Y281700D02*
X499400D01*
X495300Y282100D02*
X495700Y281700D01*
X485140Y277960D02*
X489085D01*
X485100Y278000D02*
X485140Y277960D01*
X479700Y278316D02*
X484784D01*
X485100Y278000D01*
X486342Y271100D02*
X495300D01*
X495500Y260400D02*
X499100D01*
X495400Y260300D02*
X495500Y260400D01*
X479542Y256800D02*
X485200D01*
X479200Y256458D02*
X479542Y256800D01*
X485842Y249100D02*
Y256158D01*
X485200Y256800D02*
X485842Y256158D01*
X478700Y234458D02*
X479258D01*
X485000Y240200D01*
Y242800D01*
X487194Y244994D01*
X494994D01*
X495100Y245100D01*
X349400Y286000D02*
Y291000D01*
Y294700D01*
X348900Y295200D02*
X349400Y294700D01*
Y411000D02*
Y415100D01*
X399700Y237100D02*
Y290500D01*
X399600Y237000D02*
X399700Y237100D01*
X274900Y233200D02*
Y239216D01*
X274800Y233100D02*
X274900Y233200D01*
X332100Y423830D02*
X334300Y421630D01*
X334200Y424700D02*
X338900Y420000D01*
X332100Y445783D02*
X335160Y448842D01*
X332100Y423830D02*
Y445783D01*
X334200Y424700D02*
Y441800D01*
X336400Y444000D01*
X340000D01*
X342640Y446640D01*
Y448842D01*
X338900Y232800D02*
Y239858D01*
X338800Y232700D02*
X338900Y232800D01*
X398900Y299716D02*
X411883D01*
X422100Y289500D01*
Y225800D02*
Y289500D01*
Y225800D02*
X422200Y225700D01*
X448400Y368500D02*
X456600D01*
X457300Y369200D01*
X267000Y272581D02*
Y325261D01*
X331700Y297400D02*
X334500Y294600D01*
X391900Y294800D02*
X395400D01*
X270138Y387899D02*
Y390041D01*
X271160D02*
X271870D01*
X270138D02*
X271160D01*
X334300Y389781D02*
Y421630D01*
X390600Y418900D02*
X396700Y412800D01*
X481100Y374745D02*
Y374884D01*
X480983Y412100D02*
X489342D01*
D33*
X428900Y247000D02*
D03*
Y259000D02*
D03*
X308900Y427000D02*
D03*
Y439000D02*
D03*
Y379000D02*
D03*
Y367000D02*
D03*
Y307000D02*
D03*
Y319000D02*
D03*
Y259000D02*
D03*
Y247000D02*
D03*
X368900Y427000D02*
D03*
Y439000D02*
D03*
Y379000D02*
D03*
Y367000D02*
D03*
Y307000D02*
D03*
Y319000D02*
D03*
Y259000D02*
D03*
Y247000D02*
D03*
X428900Y427000D02*
D03*
Y439000D02*
D03*
Y319000D02*
D03*
Y307000D02*
D03*
D34*
X556700Y455600D02*
D03*
Y227600D02*
D03*
D35*
X545400Y424100D02*
D03*
X552900Y419100D02*
D03*
X545400Y414100D02*
D03*
X552900Y409100D02*
D03*
X545400Y404100D02*
D03*
X552900Y399100D02*
D03*
X545400Y394100D02*
D03*
X552900Y389100D02*
D03*
X545400Y384100D02*
D03*
X552900Y379100D02*
D03*
X545400Y374100D02*
D03*
X552900Y369100D02*
D03*
X545400Y364100D02*
D03*
X552900Y359100D02*
D03*
X545400Y354100D02*
D03*
X552900Y349100D02*
D03*
X545400Y344100D02*
D03*
X552900Y339100D02*
D03*
X545400Y334100D02*
D03*
X552900Y329100D02*
D03*
X545400Y324100D02*
D03*
X552900Y319100D02*
D03*
X545400Y314100D02*
D03*
X552900Y309100D02*
D03*
X545400Y304100D02*
D03*
X552900Y299100D02*
D03*
X545400Y294100D02*
D03*
X552900Y289100D02*
D03*
X545400Y284100D02*
D03*
X552900Y279100D02*
D03*
X545400Y274100D02*
D03*
X552900Y269100D02*
D03*
X545400Y264100D02*
D03*
X552900Y259100D02*
D03*
X560400Y424100D02*
D03*
X567900Y419100D02*
D03*
X560400Y414100D02*
D03*
X567900Y409100D02*
D03*
X560400Y404100D02*
D03*
X567900Y399100D02*
D03*
X560400Y394100D02*
D03*
X567900Y389100D02*
D03*
X560400Y384100D02*
D03*
X567900Y379100D02*
D03*
X560400Y374100D02*
D03*
X567900Y369100D02*
D03*
X560400Y364100D02*
D03*
X567900Y359100D02*
D03*
X560400Y354100D02*
D03*
X567900Y349100D02*
D03*
X560400Y344100D02*
D03*
X567900Y339100D02*
D03*
X560400Y334100D02*
D03*
X567900Y329100D02*
D03*
X560400Y324100D02*
D03*
X567900Y319100D02*
D03*
X560400Y314100D02*
D03*
X567900Y309100D02*
D03*
X560400Y304100D02*
D03*
X567900Y299100D02*
D03*
X560400Y294100D02*
D03*
X567900Y289100D02*
D03*
X560400Y284100D02*
D03*
X567900Y279100D02*
D03*
X560400Y274100D02*
D03*
X567900Y269100D02*
D03*
X560400Y264100D02*
D03*
D36*
X567900Y259100D02*
D03*
D37*
X502526Y209573D02*
D03*
X274900D02*
D03*
X502526Y473353D02*
D03*
X274900Y473500D02*
D03*
X610892Y473353D02*
D03*
Y209573D02*
D03*
D38*
X297884Y456016D02*
D03*
X292600Y402200D02*
D03*
X293500Y342200D02*
D03*
X292800Y282400D02*
D03*
X353300Y462500D02*
D03*
X360300Y395700D02*
D03*
X353700Y342000D02*
D03*
X360500Y275200D02*
D03*
X417700Y456300D02*
D03*
X418100Y348800D02*
D03*
X475400Y442300D02*
D03*
X508000Y449800D02*
D03*
X495400Y438300D02*
D03*
X495300Y427000D02*
D03*
X410500Y416500D02*
D03*
X392600D02*
D03*
X475600Y419500D02*
D03*
X495300Y417300D02*
D03*
Y404700D02*
D03*
X507800Y425100D02*
D03*
X485300Y434458D02*
D03*
X485200Y412300D02*
D03*
X475400Y396700D02*
D03*
X507600Y402600D02*
D03*
X495200Y393200D02*
D03*
X495300Y370600D02*
D03*
X495000Y382100D02*
D03*
X485300Y389120D02*
D03*
Y233900D02*
D03*
X475900Y382300D02*
D03*
X475600Y367600D02*
D03*
X506600Y380300D02*
D03*
X495300Y237800D02*
D03*
Y349700D02*
D03*
X495400Y360300D02*
D03*
X475900Y352800D02*
D03*
X485100Y345317D02*
D03*
X475600Y337300D02*
D03*
X495100Y337900D02*
D03*
X495400Y326700D02*
D03*
X485200Y322760D02*
D03*
X475300Y315600D02*
D03*
X495400Y305000D02*
D03*
X485000Y301100D02*
D03*
X485145Y370700D02*
D03*
X507600Y358500D02*
D03*
X506900Y335600D02*
D03*
X495100Y315000D02*
D03*
X506400Y313400D02*
D03*
X475900Y293400D02*
D03*
X495100Y293100D02*
D03*
X495300Y282100D02*
D03*
X506200Y291200D02*
D03*
X485100Y278000D02*
D03*
X474100Y264100D02*
D03*
X495300Y271100D02*
D03*
X495400Y260300D02*
D03*
X506800Y269900D02*
D03*
X485200Y256800D02*
D03*
X473800Y241700D02*
D03*
X507200Y246600D02*
D03*
X495100Y245100D02*
D03*
X499900Y446200D02*
D03*
X312800Y474900D02*
D03*
X499700Y423600D02*
D03*
X312100Y412300D02*
D03*
X499200Y399500D02*
D03*
X312200Y350100D02*
D03*
X499100Y377500D02*
D03*
X312400Y289100D02*
D03*
X348900Y295200D02*
D03*
X334400Y294500D02*
D03*
X349400Y415100D02*
D03*
X334400Y415600D02*
D03*
X391900Y295000D02*
D03*
X267100Y294700D02*
D03*
X499600Y355800D02*
D03*
X417300Y356100D02*
D03*
X415500Y472400D02*
D03*
X499200Y333500D02*
D03*
X386700Y333900D02*
D03*
X380000Y410500D02*
D03*
X499000Y311300D02*
D03*
X372200Y332600D02*
D03*
X499600Y287800D02*
D03*
X372500Y290500D02*
D03*
X499200Y267700D02*
D03*
X418500Y268000D02*
D03*
X428900Y462400D02*
D03*
X499200Y247900D02*
D03*
X443700Y259500D02*
D03*
X432300Y349000D02*
D03*
X399600Y237000D02*
D03*
X274800Y233100D02*
D03*
X338800Y232700D02*
D03*
X422200Y225700D02*
D03*
X457300Y369200D02*
D03*
M02*
