G04*
G04 #@! TF.GenerationSoftware,Altium Limited,Altium Designer,19.0.15 (446)*
G04*
G04 Layer_Color=8388736*
%FSLAX25Y25*%
%MOIN*%
G70*
G01*
G75*
%ADD10C,0.01000*%
%ADD12C,0.00800*%
%ADD20R,0.05721X0.02769*%
%ADD21R,0.04343X0.04540*%
%ADD22R,0.04343X0.04540*%
%ADD23R,0.08600X0.03200*%
%ADD24O,0.08600X0.03200*%
%ADD25R,0.06312X0.04540*%
%ADD26R,0.04540X0.06312*%
%ADD27C,0.10800*%
%ADD28C,0.20800*%
%ADD29C,0.05800*%
%ADD30R,0.05800X0.05800*%
%ADD31C,0.25800*%
D10*
X587100Y202700D02*
X588850Y204450D01*
X583700Y206200D02*
X585450Y207950D01*
X581900Y197500D02*
X583600Y199200D01*
X578500Y201000D02*
X580100Y202600D01*
X585500Y207900D02*
X588700D01*
X588900Y204400D02*
Y207700D01*
X585500Y204400D02*
X588900D01*
X585500D02*
Y207900D01*
X578500Y197500D02*
Y201000D01*
X581900Y197500D02*
Y200800D01*
X578500Y201000D02*
X581700D01*
X578500Y197500D02*
X581900D01*
X581650Y204550D02*
X585350Y200850D01*
X578300Y204500D02*
Y207900D01*
Y204500D02*
X585350Y197450D01*
X581800Y204700D02*
Y207900D01*
X578300Y204500D02*
X581600D01*
X578300Y207900D02*
X581800D01*
X585400Y200900D02*
X588900D01*
X585400Y197500D02*
Y200900D01*
Y197500D02*
X588700D01*
X588900Y197700D02*
Y200900D01*
X581850Y207950D02*
X588900Y200900D01*
D12*
X560501Y477400D02*
G03*
X560501Y477400I-4701J0D01*
G01*
X553100Y480199D02*
Y476200D01*
Y478199D01*
X555766D01*
Y480199D01*
Y476200D01*
X558366Y478199D02*
X555700D01*
Y474200D01*
X558366D01*
X555700Y476199D02*
X557033D01*
D20*
X499500Y233960D02*
D03*
Y237700D02*
D03*
Y241440D02*
D03*
X489185Y233960D02*
D03*
Y241440D02*
D03*
X499700Y434360D02*
D03*
Y438100D02*
D03*
Y441840D02*
D03*
X489385Y434360D02*
D03*
Y441840D02*
D03*
X499200Y389120D02*
D03*
Y392860D02*
D03*
Y396600D02*
D03*
X488885Y389120D02*
D03*
Y396600D02*
D03*
X499600Y345660D02*
D03*
Y349400D02*
D03*
Y353140D02*
D03*
X489285Y345660D02*
D03*
Y353140D02*
D03*
X499015Y301100D02*
D03*
Y304840D02*
D03*
Y308580D02*
D03*
X488700Y301100D02*
D03*
Y308580D02*
D03*
X499100Y256660D02*
D03*
Y260400D02*
D03*
Y264140D02*
D03*
X488785Y256660D02*
D03*
Y264140D02*
D03*
X499657Y412100D02*
D03*
Y415840D02*
D03*
Y419580D02*
D03*
X489342Y412100D02*
D03*
Y419580D02*
D03*
X499300Y366860D02*
D03*
Y370600D02*
D03*
Y374340D02*
D03*
X488985Y366860D02*
D03*
Y374340D02*
D03*
X499200Y322760D02*
D03*
Y326500D02*
D03*
Y330240D02*
D03*
X488885Y322760D02*
D03*
Y330240D02*
D03*
X499400Y277960D02*
D03*
Y281700D02*
D03*
Y285440D02*
D03*
X489085Y277960D02*
D03*
Y285440D02*
D03*
D21*
X402640Y328921D02*
D03*
X398900Y319079D02*
D03*
X278140Y448921D02*
D03*
X274400Y439079D02*
D03*
X278140Y328921D02*
D03*
X274400Y319079D02*
D03*
X342640Y448842D02*
D03*
X338900Y439000D02*
D03*
X342640Y328921D02*
D03*
X338900Y319079D02*
D03*
X402640Y448921D02*
D03*
X398900Y439079D02*
D03*
X278640Y388921D02*
D03*
X274900Y379079D02*
D03*
X278140Y268921D02*
D03*
X274400Y259079D02*
D03*
X342640Y388921D02*
D03*
X338900Y379079D02*
D03*
X342640Y268921D02*
D03*
X338900Y259079D02*
D03*
D22*
X395160Y328921D02*
D03*
X270660Y448921D02*
D03*
Y328921D02*
D03*
X335160Y448842D02*
D03*
Y328921D02*
D03*
X395160Y448921D02*
D03*
X271160Y388921D02*
D03*
X270660Y268921D02*
D03*
X335160Y388921D02*
D03*
Y268921D02*
D03*
D23*
X427900Y373500D02*
D03*
X328900Y411000D02*
D03*
Y291000D02*
D03*
X389900Y411000D02*
D03*
X389400Y290500D02*
D03*
D24*
X427900Y368500D02*
D03*
Y363500D02*
D03*
Y358500D02*
D03*
X448400Y373500D02*
D03*
Y368500D02*
D03*
Y363500D02*
D03*
Y358500D02*
D03*
X328900Y406000D02*
D03*
Y401000D02*
D03*
Y396000D02*
D03*
X349400Y411000D02*
D03*
Y406000D02*
D03*
Y401000D02*
D03*
Y396000D02*
D03*
X328900Y286000D02*
D03*
Y281000D02*
D03*
Y276000D02*
D03*
X349400Y291000D02*
D03*
Y286000D02*
D03*
Y281000D02*
D03*
Y276000D02*
D03*
X389900Y406000D02*
D03*
Y401000D02*
D03*
Y396000D02*
D03*
X410400Y411000D02*
D03*
Y406000D02*
D03*
Y401000D02*
D03*
Y396000D02*
D03*
X389400Y285500D02*
D03*
Y280500D02*
D03*
Y275500D02*
D03*
X409900Y290500D02*
D03*
Y285500D02*
D03*
Y280500D02*
D03*
Y275500D02*
D03*
D25*
X398900Y299716D02*
D03*
Y307000D02*
D03*
X481200Y441742D02*
D03*
Y434458D02*
D03*
X480700Y397100D02*
D03*
Y389816D02*
D03*
X480200Y352600D02*
D03*
Y345317D02*
D03*
Y308100D02*
D03*
Y300816D02*
D03*
X479200Y263742D02*
D03*
Y256458D02*
D03*
X480842Y419242D02*
D03*
Y411958D02*
D03*
X480200Y367600D02*
D03*
Y374884D02*
D03*
Y330100D02*
D03*
Y322816D02*
D03*
X479700Y285600D02*
D03*
Y278316D02*
D03*
X478700Y241742D02*
D03*
Y234458D02*
D03*
X274900Y419858D02*
D03*
Y427142D02*
D03*
Y299716D02*
D03*
Y307000D02*
D03*
X338900Y420000D02*
D03*
Y427283D02*
D03*
Y299858D02*
D03*
Y307142D02*
D03*
X398400Y419858D02*
D03*
Y427142D02*
D03*
X274900Y359717D02*
D03*
Y367000D02*
D03*
Y239216D02*
D03*
Y246500D02*
D03*
X338900Y360000D02*
D03*
Y367284D02*
D03*
Y239858D02*
D03*
Y247142D02*
D03*
D26*
X507058Y242100D02*
D03*
X514342D02*
D03*
X319900Y463000D02*
D03*
X312616D02*
D03*
X319542Y342500D02*
D03*
X312258D02*
D03*
X379900Y463000D02*
D03*
X372617D02*
D03*
X379683Y342500D02*
D03*
X372400D02*
D03*
X439900Y462500D02*
D03*
X432617D02*
D03*
X480416Y449600D02*
D03*
X487700D02*
D03*
X480058Y404600D02*
D03*
X487342D02*
D03*
X479558Y360100D02*
D03*
X486842D02*
D03*
X479200Y315600D02*
D03*
X486483D02*
D03*
X479058Y271100D02*
D03*
X486342D02*
D03*
X508058Y443600D02*
D03*
X515342D02*
D03*
X507916Y397600D02*
D03*
X515200D02*
D03*
X507558Y354100D02*
D03*
X514842D02*
D03*
X507058Y309100D02*
D03*
X514342D02*
D03*
X507058Y264600D02*
D03*
X514342D02*
D03*
X478558Y249100D02*
D03*
X485842D02*
D03*
X319042Y403000D02*
D03*
X311758D02*
D03*
X319542Y283000D02*
D03*
X312258D02*
D03*
X379542Y402500D02*
D03*
X372258D02*
D03*
X379542Y282500D02*
D03*
X372258D02*
D03*
X439542Y342500D02*
D03*
X432258D02*
D03*
X480058Y427100D02*
D03*
X487342D02*
D03*
X479558Y382100D02*
D03*
X486842D02*
D03*
X479558Y337600D02*
D03*
X486842D02*
D03*
X479058Y293100D02*
D03*
X486342D02*
D03*
X508058Y420100D02*
D03*
X515342D02*
D03*
X507558Y375100D02*
D03*
X514842D02*
D03*
X507058Y331100D02*
D03*
X514342D02*
D03*
X506917Y286100D02*
D03*
X514200D02*
D03*
X507916Y435600D02*
D03*
X515200D02*
D03*
X508058Y389600D02*
D03*
X515342D02*
D03*
X507558Y346100D02*
D03*
X514842D02*
D03*
X506917Y301100D02*
D03*
X514200D02*
D03*
X507058Y256600D02*
D03*
X514342D02*
D03*
X298116Y463000D02*
D03*
X305400D02*
D03*
X298116Y342500D02*
D03*
X305400D02*
D03*
X358616Y463000D02*
D03*
X365900D02*
D03*
X358258Y342500D02*
D03*
X365542D02*
D03*
X417900Y462000D02*
D03*
X425183D02*
D03*
X508058Y412100D02*
D03*
X515342D02*
D03*
X507558Y367100D02*
D03*
X514842D02*
D03*
X507058Y323100D02*
D03*
X514342D02*
D03*
X507058Y278100D02*
D03*
X514342D02*
D03*
X507058Y234100D02*
D03*
X514342D02*
D03*
X297617Y403000D02*
D03*
X304900D02*
D03*
X298116Y283000D02*
D03*
X305400D02*
D03*
X358258Y402500D02*
D03*
X365542D02*
D03*
X358258Y282500D02*
D03*
X365542D02*
D03*
X418117Y342500D02*
D03*
X425400D02*
D03*
D27*
X428900Y247000D02*
D03*
Y259000D02*
D03*
X308900Y427000D02*
D03*
Y439000D02*
D03*
Y379000D02*
D03*
Y367000D02*
D03*
Y307000D02*
D03*
Y319000D02*
D03*
Y259000D02*
D03*
Y247000D02*
D03*
X368900Y427000D02*
D03*
Y439000D02*
D03*
Y379000D02*
D03*
Y367000D02*
D03*
Y307000D02*
D03*
Y319000D02*
D03*
Y259000D02*
D03*
Y247000D02*
D03*
X428900Y427000D02*
D03*
Y439000D02*
D03*
Y319000D02*
D03*
Y307000D02*
D03*
D28*
X556700Y455600D02*
D03*
Y227600D02*
D03*
D29*
X545400Y424100D02*
D03*
X552900Y419100D02*
D03*
X545400Y414100D02*
D03*
X552900Y409100D02*
D03*
X545400Y404100D02*
D03*
X552900Y399100D02*
D03*
X545400Y394100D02*
D03*
X552900Y389100D02*
D03*
X545400Y384100D02*
D03*
X552900Y379100D02*
D03*
X545400Y374100D02*
D03*
X552900Y369100D02*
D03*
X545400Y364100D02*
D03*
X552900Y359100D02*
D03*
X545400Y354100D02*
D03*
X552900Y349100D02*
D03*
X545400Y344100D02*
D03*
X552900Y339100D02*
D03*
X545400Y334100D02*
D03*
X552900Y329100D02*
D03*
X545400Y324100D02*
D03*
X552900Y319100D02*
D03*
X545400Y314100D02*
D03*
X552900Y309100D02*
D03*
X545400Y304100D02*
D03*
X552900Y299100D02*
D03*
X545400Y294100D02*
D03*
X552900Y289100D02*
D03*
X545400Y284100D02*
D03*
X552900Y279100D02*
D03*
X545400Y274100D02*
D03*
X552900Y269100D02*
D03*
X545400Y264100D02*
D03*
X552900Y259100D02*
D03*
X560400Y424100D02*
D03*
X567900Y419100D02*
D03*
X560400Y414100D02*
D03*
X567900Y409100D02*
D03*
X560400Y404100D02*
D03*
X567900Y399100D02*
D03*
X560400Y394100D02*
D03*
X567900Y389100D02*
D03*
X560400Y384100D02*
D03*
X567900Y379100D02*
D03*
X560400Y374100D02*
D03*
X567900Y369100D02*
D03*
X560400Y364100D02*
D03*
X567900Y359100D02*
D03*
X560400Y354100D02*
D03*
X567900Y349100D02*
D03*
X560400Y344100D02*
D03*
X567900Y339100D02*
D03*
X560400Y334100D02*
D03*
X567900Y329100D02*
D03*
X560400Y324100D02*
D03*
X567900Y319100D02*
D03*
X560400Y314100D02*
D03*
X567900Y309100D02*
D03*
X560400Y304100D02*
D03*
X567900Y299100D02*
D03*
X560400Y294100D02*
D03*
X567900Y289100D02*
D03*
X560400Y284100D02*
D03*
X567900Y279100D02*
D03*
X560400Y274100D02*
D03*
X567900Y269100D02*
D03*
X560400Y264100D02*
D03*
D30*
X567900Y259100D02*
D03*
D31*
X502526Y209573D02*
D03*
X274900D02*
D03*
X502526Y473353D02*
D03*
X274900Y473500D02*
D03*
X610892Y473353D02*
D03*
Y209573D02*
D03*
M02*
