G04*
G04 #@! TF.GenerationSoftware,Altium Limited,Altium Designer,19.0.15 (446)*
G04*
G04 Layer_Color=65535*
%FSLAX25Y25*%
%MOIN*%
G70*
G01*
G75*
%ADD10C,0.01000*%
%ADD11C,0.00984*%
%ADD12C,0.02362*%
%ADD13C,0.00800*%
%ADD14C,0.00787*%
%ADD15C,0.02000*%
G36*
X467088Y315287D02*
X467075D01*
X467050Y315275D01*
X467000Y315263D01*
X466937Y315237D01*
X466862Y315212D01*
X466775Y315175D01*
X466575Y315088D01*
X466350Y314975D01*
X466125Y314825D01*
X465900Y314663D01*
X465700Y314462D01*
Y314450D01*
X465675Y314438D01*
X465625Y314363D01*
X465550Y314237D01*
X465462Y314075D01*
X465375Y313875D01*
X465300Y313637D01*
X465250Y313363D01*
X465225Y313075D01*
Y312987D01*
X465238Y312925D01*
Y312850D01*
X465250Y312762D01*
X465300Y312550D01*
X465363Y312313D01*
X465462Y312063D01*
X465600Y311800D01*
X465675Y311675D01*
X465775Y311550D01*
X465788Y311538D01*
X465800Y311525D01*
X465875Y311450D01*
X466000Y311350D01*
X466162Y311238D01*
X466362Y311125D01*
X466587Y311025D01*
X466862Y310950D01*
X467000Y310938D01*
X467150Y310925D01*
X467163D01*
X467188D01*
X467225D01*
X467287Y310938D01*
X467350Y310950D01*
X467438Y310963D01*
X467625Y311013D01*
X467837Y311087D01*
X468062Y311200D01*
X468175Y311275D01*
X468288Y311363D01*
X468400Y311475D01*
X468500Y311588D01*
X468512Y311600D01*
X468525Y311613D01*
X468550Y311650D01*
X468587Y311700D01*
X468625Y311762D01*
X468675Y311838D01*
X468775Y312025D01*
X468875Y312250D01*
X468962Y312512D01*
X469025Y312812D01*
X469050Y312975D01*
Y314075D01*
X470400D01*
Y313162D01*
X470412Y313100D01*
Y313037D01*
X470425Y312950D01*
X470463Y312750D01*
X470512Y312525D01*
X470600Y312287D01*
X470713Y312050D01*
X470875Y311838D01*
Y311825D01*
X470900Y311812D01*
X470962Y311750D01*
X471075Y311663D01*
X471212Y311562D01*
X471400Y311462D01*
X471613Y311375D01*
X471850Y311313D01*
X471987Y311287D01*
X472125D01*
X472137D01*
X472162D01*
X472200D01*
X472237Y311300D01*
X472375Y311313D01*
X472538Y311350D01*
X472725Y311413D01*
X472913Y311512D01*
X473100Y311637D01*
X473275Y311812D01*
X473300Y311838D01*
X473350Y311900D01*
X473413Y312025D01*
X473500Y312175D01*
X473575Y312375D01*
X473650Y312600D01*
X473700Y312875D01*
X473712Y313175D01*
Y313238D01*
X473700Y313300D01*
X473688Y313400D01*
X473675Y313512D01*
X473637Y313637D01*
X473600Y313775D01*
X473537Y313925D01*
X473462Y314075D01*
X473375Y314225D01*
X473263Y314387D01*
X473125Y314538D01*
X472963Y314687D01*
X472775Y314825D01*
X472563Y314950D01*
X472312Y315050D01*
X472888Y316388D01*
X472900D01*
X472937Y316375D01*
X472988Y316350D01*
X473050Y316313D01*
X473138Y316275D01*
X473238Y316225D01*
X473462Y316100D01*
X473712Y315937D01*
X473975Y315725D01*
X474237Y315475D01*
X474487Y315175D01*
X474500Y315162D01*
X474512Y315138D01*
X474550Y315088D01*
X474587Y315025D01*
X474625Y314937D01*
X474687Y314850D01*
X474738Y314738D01*
X474800Y314600D01*
X474850Y314462D01*
X474913Y314313D01*
X475000Y313975D01*
X475075Y313587D01*
X475087Y313387D01*
X475100Y313175D01*
Y313037D01*
X475087Y312937D01*
X475075Y312812D01*
X475050Y312663D01*
X475025Y312512D01*
X475000Y312337D01*
X474888Y311950D01*
X474825Y311750D01*
X474738Y311550D01*
X474650Y311350D01*
X474525Y311150D01*
X474400Y310950D01*
X474250Y310763D01*
X474237Y310750D01*
X474213Y310725D01*
X474162Y310675D01*
X474100Y310613D01*
X474025Y310538D01*
X473925Y310462D01*
X473812Y310375D01*
X473675Y310287D01*
X473537Y310200D01*
X473375Y310113D01*
X473200Y310037D01*
X473012Y309963D01*
X472813Y309900D01*
X472587Y309850D01*
X472363Y309825D01*
X472125Y309812D01*
X472113D01*
X472062D01*
X471975Y309825D01*
X471875Y309838D01*
X471737Y309850D01*
X471600Y309888D01*
X471425Y309938D01*
X471250Y309987D01*
X471075Y310063D01*
X470875Y310162D01*
X470687Y310275D01*
X470500Y310413D01*
X470312Y310588D01*
X470125Y310775D01*
X469963Y311000D01*
X469812Y311250D01*
X469750D01*
Y311238D01*
X469737Y311212D01*
X469712Y311175D01*
X469688Y311112D01*
X469650Y311037D01*
X469600Y310963D01*
X469487Y310775D01*
X469338Y310562D01*
X469150Y310337D01*
X468937Y310125D01*
X468700Y309938D01*
X468687D01*
X468675Y309912D01*
X468638Y309888D01*
X468575Y309862D01*
X468512Y309825D01*
X468437Y309788D01*
X468250Y309687D01*
X468025Y309600D01*
X467763Y309525D01*
X467462Y309475D01*
X467150Y309450D01*
X467137D01*
X467088D01*
X467013Y309462D01*
X466913D01*
X466787Y309488D01*
X466650Y309500D01*
X466488Y309538D01*
X466325Y309575D01*
X466138Y309637D01*
X465950Y309700D01*
X465750Y309788D01*
X465550Y309888D01*
X465350Y310013D01*
X465163Y310150D01*
X464975Y310313D01*
X464787Y310500D01*
X464775Y310512D01*
X464750Y310550D01*
X464700Y310600D01*
X464638Y310687D01*
X464575Y310788D01*
X464488Y310912D01*
X464412Y311050D01*
X464325Y311212D01*
X464237Y311387D01*
X464150Y311588D01*
X464062Y311800D01*
X464000Y312025D01*
X463938Y312263D01*
X463888Y312525D01*
X463863Y312788D01*
X463850Y313075D01*
Y313188D01*
X463863Y313275D01*
X463875Y313387D01*
X463888Y313512D01*
X463912Y313650D01*
X463938Y313800D01*
X464025Y314138D01*
X464087Y314325D01*
X464150Y314512D01*
X464237Y314700D01*
X464325Y314887D01*
X464437Y315075D01*
X464563Y315263D01*
X464575Y315275D01*
X464600Y315300D01*
X464638Y315363D01*
X464700Y315425D01*
X464775Y315500D01*
X464862Y315600D01*
X464975Y315700D01*
X465100Y315800D01*
X465225Y315913D01*
X465375Y316025D01*
X465538Y316138D01*
X465712Y316250D01*
X466100Y316450D01*
X466300Y316525D01*
X466525Y316600D01*
X467088Y315287D01*
D02*
G37*
G36*
X465238Y308050D02*
X465338Y308025D01*
X465462Y307987D01*
X465588Y307925D01*
X465712Y307850D01*
X465825Y307750D01*
X465837Y307737D01*
X465875Y307700D01*
X465925Y307625D01*
X465987Y307538D01*
X466038Y307425D01*
X466087Y307300D01*
X466125Y307162D01*
X466138Y307000D01*
Y306925D01*
X466125Y306838D01*
X466100Y306725D01*
X466062Y306612D01*
X466000Y306487D01*
X465925Y306350D01*
X465825Y306238D01*
X465812Y306225D01*
X465775Y306188D01*
X465712Y306137D01*
X465625Y306075D01*
X465513Y306025D01*
X465387Y305975D01*
X465238Y305938D01*
X465075Y305925D01*
X465050D01*
X465000D01*
X464913Y305938D01*
X464813Y305962D01*
X464687Y306000D01*
X464563Y306063D01*
X464437Y306137D01*
X464313Y306238D01*
X464300Y306250D01*
X464262Y306288D01*
X464213Y306363D01*
X464162Y306450D01*
X464113Y306550D01*
X464062Y306687D01*
X464025Y306838D01*
X464012Y307000D01*
Y307075D01*
X464025Y307150D01*
X464050Y307262D01*
X464087Y307375D01*
X464138Y307500D01*
X464213Y307625D01*
X464313Y307750D01*
X464325Y307763D01*
X464375Y307800D01*
X464437Y307850D01*
X464525Y307900D01*
X464638Y307962D01*
X464762Y308013D01*
X464913Y308050D01*
X465075Y308063D01*
X465100D01*
X465150D01*
X465238Y308050D01*
D02*
G37*
G36*
X472788Y304525D02*
X472837Y304500D01*
X472900Y304475D01*
X472988Y304437D01*
X473088Y304387D01*
X473325Y304275D01*
X473588Y304113D01*
X473863Y303900D01*
X474013Y303775D01*
X474150Y303638D01*
X474288Y303500D01*
X474412Y303338D01*
X474425Y303325D01*
X474438Y303300D01*
X474475Y303250D01*
X474525Y303175D01*
X474575Y303087D01*
X474625Y302988D01*
X474687Y302875D01*
X474762Y302737D01*
X474825Y302588D01*
X474888Y302425D01*
X474988Y302063D01*
X475075Y301662D01*
X475087Y301450D01*
X475100Y301225D01*
Y301087D01*
X475087Y300975D01*
X475075Y300850D01*
X475050Y300712D01*
X475025Y300550D01*
X474988Y300375D01*
X474937Y300187D01*
X474875Y299988D01*
X474813Y299787D01*
X474725Y299575D01*
X474613Y299375D01*
X474500Y299175D01*
X474363Y298975D01*
X474200Y298787D01*
X474188Y298775D01*
X474162Y298750D01*
X474113Y298700D01*
X474038Y298638D01*
X473950Y298563D01*
X473850Y298475D01*
X473725Y298388D01*
X473588Y298300D01*
X473438Y298213D01*
X473275Y298125D01*
X473088Y298038D01*
X472900Y297962D01*
X472687Y297900D01*
X472475Y297850D01*
X472237Y297825D01*
X472000Y297813D01*
X471987D01*
X471925D01*
X471850Y297825D01*
X471725Y297837D01*
X471588Y297863D01*
X471413Y297900D01*
X471212Y297950D01*
X471000Y298025D01*
X470762Y298113D01*
X470500Y298225D01*
X470225Y298362D01*
X469925Y298537D01*
X469625Y298725D01*
X469300Y298962D01*
X468975Y299225D01*
X468638Y299525D01*
X465475Y302662D01*
Y297688D01*
X464100D01*
Y304538D01*
X465538D01*
X468350Y301763D01*
X468363Y301750D01*
X468412Y301700D01*
X468488Y301625D01*
X468587Y301537D01*
X468700Y301425D01*
X468837Y301288D01*
X469000Y301150D01*
X469163Y301000D01*
X469513Y300675D01*
X469863Y300350D01*
X470038Y300200D01*
X470200Y300062D01*
X470363Y299938D01*
X470500Y299825D01*
X470512Y299813D01*
X470538Y299800D01*
X470575Y299775D01*
X470625Y299738D01*
X470687Y299700D01*
X470762Y299650D01*
X470950Y299550D01*
X471175Y299463D01*
X471438Y299375D01*
X471712Y299312D01*
X471850Y299288D01*
X472000D01*
X472013D01*
X472038D01*
X472075D01*
X472125Y299300D01*
X472250Y299312D01*
X472425Y299350D01*
X472612Y299425D01*
X472813Y299525D01*
X473012Y299650D01*
X473112Y299738D01*
X473212Y299837D01*
X473238Y299863D01*
X473287Y299938D01*
X473375Y300062D01*
X473462Y300225D01*
X473550Y300425D01*
X473637Y300662D01*
X473688Y300938D01*
X473712Y301250D01*
Y301325D01*
X473700Y301375D01*
X473688Y301513D01*
X473663Y301688D01*
X473600Y301887D01*
X473525Y302100D01*
X473425Y302312D01*
X473275Y302525D01*
X473250Y302550D01*
X473200Y302612D01*
X473100Y302700D01*
X472975Y302813D01*
X472825Y302938D01*
X472638Y303050D01*
X472437Y303150D01*
X472213Y303225D01*
X472738Y304538D01*
X472750D01*
X472788Y304525D01*
D02*
G37*
G36*
X475350Y294662D02*
X471800D01*
X470725Y294725D01*
Y294662D01*
X470738D01*
X470750Y294650D01*
X470825Y294587D01*
X470937Y294513D01*
X471075Y294388D01*
X471225Y294237D01*
X471387Y294050D01*
X471537Y293837D01*
X471688Y293587D01*
Y293575D01*
X471700Y293550D01*
X471725Y293513D01*
X471750Y293462D01*
X471775Y293400D01*
X471800Y293325D01*
X471875Y293125D01*
X471938Y292900D01*
X472000Y292637D01*
X472038Y292350D01*
X472050Y292038D01*
Y291975D01*
X472038Y291887D01*
Y291788D01*
X472013Y291650D01*
X471987Y291500D01*
X471950Y291325D01*
X471900Y291138D01*
X471838Y290950D01*
X471763Y290738D01*
X471663Y290525D01*
X471550Y290313D01*
X471413Y290088D01*
X471250Y289875D01*
X471063Y289663D01*
X470850Y289462D01*
X470837Y289450D01*
X470800Y289412D01*
X470725Y289363D01*
X470638Y289287D01*
X470525Y289212D01*
X470375Y289112D01*
X470225Y289025D01*
X470038Y288913D01*
X469838Y288812D01*
X469613Y288713D01*
X469375Y288625D01*
X469125Y288550D01*
X468850Y288475D01*
X468563Y288425D01*
X468262Y288387D01*
X467950Y288375D01*
X467925D01*
X467875D01*
X467788Y288387D01*
X467662D01*
X467513Y288412D01*
X467350Y288438D01*
X467150Y288462D01*
X466950Y288512D01*
X466725Y288562D01*
X466488Y288637D01*
X466250Y288725D01*
X466000Y288838D01*
X465750Y288963D01*
X465513Y289100D01*
X465263Y289275D01*
X465037Y289462D01*
X465025Y289475D01*
X464988Y289512D01*
X464925Y289575D01*
X464850Y289650D01*
X464762Y289750D01*
X464663Y289875D01*
X464550Y290013D01*
X464450Y290175D01*
X464337Y290363D01*
X464225Y290550D01*
X464125Y290762D01*
X464038Y290987D01*
X463963Y291237D01*
X463900Y291488D01*
X463863Y291762D01*
X463850Y292038D01*
Y292175D01*
X463863Y292250D01*
X463875Y292337D01*
X463900Y292550D01*
X463938Y292788D01*
X464000Y293050D01*
X464087Y293325D01*
X464200Y293587D01*
Y293600D01*
X464213Y293613D01*
X464237Y293650D01*
X464262Y293700D01*
X464350Y293825D01*
X464463Y293987D01*
X464600Y294163D01*
X464762Y294338D01*
X464950Y294513D01*
X465163Y294662D01*
Y294725D01*
X464100D01*
Y296112D01*
X475350D01*
Y294662D01*
D02*
G37*
G36*
X474750Y343537D02*
X474738Y343425D01*
X474725Y343300D01*
X474700Y343162D01*
X474675Y343000D01*
X474625Y342812D01*
X474575Y342625D01*
X474512Y342425D01*
X474438Y342213D01*
X474350Y342013D01*
X474237Y341800D01*
X474100Y341587D01*
X473962Y341388D01*
X473787Y341188D01*
X473775Y341175D01*
X473750Y341138D01*
X473688Y341088D01*
X473612Y341025D01*
X473525Y340950D01*
X473413Y340862D01*
X473275Y340762D01*
X473125Y340663D01*
X472963Y340575D01*
X472788Y340475D01*
X472587Y340388D01*
X472375Y340313D01*
X472150Y340250D01*
X471912Y340200D01*
X471663Y340162D01*
X471400Y340150D01*
X471387D01*
X471350D01*
X471287D01*
X471200Y340162D01*
X471100Y340175D01*
X470988Y340188D01*
X470850Y340212D01*
X470713Y340250D01*
X470388Y340337D01*
X470213Y340400D01*
X470038Y340475D01*
X469863Y340563D01*
X469688Y340663D01*
X469513Y340775D01*
X469338Y340913D01*
X469325Y340925D01*
X469300Y340950D01*
X469250Y340987D01*
X469187Y341050D01*
X469125Y341125D01*
X469037Y341213D01*
X468950Y341325D01*
X468850Y341438D01*
X468762Y341575D01*
X468663Y341712D01*
X468563Y341875D01*
X468463Y342050D01*
X468300Y342425D01*
X468237Y342625D01*
X468175Y342838D01*
X468138Y342875D01*
X463562Y339713D01*
X463500D01*
Y341425D01*
X468050Y344462D01*
Y346062D01*
X463500D01*
Y347513D01*
X474750D01*
Y343537D01*
D02*
G37*
G36*
X467525Y339100D02*
X467650D01*
X467800Y339075D01*
X467975Y339050D01*
X468162Y339025D01*
X468375Y338975D01*
X468600Y338925D01*
X468837Y338850D01*
X469088Y338762D01*
X469325Y338663D01*
X469575Y338538D01*
X469812Y338400D01*
X470050Y338238D01*
X470275Y338050D01*
X470288Y338037D01*
X470325Y338000D01*
X470388Y337937D01*
X470463Y337850D01*
X470550Y337750D01*
X470650Y337625D01*
X470750Y337475D01*
X470862Y337300D01*
X470975Y337112D01*
X471075Y336912D01*
X471175Y336687D01*
X471263Y336438D01*
X471338Y336188D01*
X471400Y335912D01*
X471438Y335613D01*
X471450Y335313D01*
Y335238D01*
X471438Y335150D01*
Y335025D01*
X471413Y334888D01*
X471387Y334713D01*
X471362Y334525D01*
X471313Y334325D01*
X471250Y334113D01*
X471175Y333900D01*
X471088Y333663D01*
X470975Y333437D01*
X470850Y333212D01*
X470700Y333000D01*
X470538Y332787D01*
X470337Y332588D01*
X470325Y332575D01*
X470288Y332538D01*
X470225Y332488D01*
X470138Y332425D01*
X470025Y332350D01*
X469887Y332262D01*
X469725Y332175D01*
X469537Y332075D01*
X469325Y331975D01*
X469100Y331888D01*
X468837Y331800D01*
X468563Y331725D01*
X468262Y331663D01*
X467950Y331600D01*
X467600Y331575D01*
X467238Y331562D01*
X467075Y331588D01*
Y337637D01*
X467063D01*
X467025D01*
X466962Y337625D01*
X466888D01*
X466787Y337613D01*
X466687Y337587D01*
X466563Y337562D01*
X466425Y337538D01*
X466138Y337438D01*
X465825Y337313D01*
X465675Y337225D01*
X465525Y337125D01*
X465387Y337013D01*
X465250Y336888D01*
X465238Y336875D01*
X465225Y336850D01*
X465188Y336812D01*
X465137Y336762D01*
X465088Y336687D01*
X465037Y336600D01*
X464975Y336512D01*
X464913Y336400D01*
X464775Y336150D01*
X464675Y335850D01*
X464587Y335512D01*
X464575Y335337D01*
X464563Y335150D01*
Y335087D01*
X464575Y335013D01*
X464587Y334925D01*
X464600Y334812D01*
X464638Y334675D01*
X464675Y334525D01*
X464738Y334363D01*
X464813Y334188D01*
X464900Y334013D01*
X465013Y333838D01*
X465150Y333663D01*
X465312Y333475D01*
X465487Y333300D01*
X465700Y333137D01*
X465950Y332987D01*
X465312Y331687D01*
X465300D01*
X465275Y331713D01*
X465225Y331737D01*
X465150Y331787D01*
X465075Y331838D01*
X464975Y331900D01*
X464762Y332063D01*
X464512Y332275D01*
X464262Y332525D01*
X464012Y332812D01*
X463788Y333137D01*
Y333150D01*
X463763Y333175D01*
X463737Y333225D01*
X463700Y333300D01*
X463662Y333387D01*
X463613Y333488D01*
X463575Y333600D01*
X463525Y333737D01*
X463475Y333888D01*
X463425Y334050D01*
X463338Y334400D01*
X463275Y334788D01*
X463263Y335000D01*
X463250Y335212D01*
Y335287D01*
X463263Y335375D01*
Y335500D01*
X463287Y335637D01*
X463312Y335812D01*
X463350Y336000D01*
X463400Y336200D01*
X463462Y336413D01*
X463538Y336637D01*
X463625Y336875D01*
X463737Y337112D01*
X463875Y337350D01*
X464025Y337575D01*
X464213Y337800D01*
X464412Y338013D01*
X464425Y338025D01*
X464463Y338063D01*
X464537Y338112D01*
X464625Y338188D01*
X464738Y338263D01*
X464875Y338363D01*
X465037Y338462D01*
X465212Y338562D01*
X465413Y338663D01*
X465637Y338762D01*
X465887Y338862D01*
X466138Y338937D01*
X466425Y339013D01*
X466713Y339062D01*
X467025Y339100D01*
X467350Y339112D01*
X467375D01*
X467425D01*
X467525Y339100D01*
D02*
G37*
G36*
X471200Y329500D02*
X465225Y327238D01*
Y327200D01*
X471200Y324900D01*
Y323362D01*
X463500Y326513D01*
Y327950D01*
X471200Y331063D01*
Y329500D01*
D02*
G37*
G36*
X506100Y350625D02*
Y347350D01*
X483600Y338850D01*
Y342075D01*
X489700Y344225D01*
Y353700D01*
X483600Y355900D01*
Y359100D01*
X506100Y350625D01*
D02*
G37*
G36*
X499000Y333950D02*
X496850D01*
Y333825D01*
X496875D01*
X496900Y333800D01*
X497050Y333700D01*
X497250Y333550D01*
X497525Y333325D01*
X497825Y333050D01*
X498150Y332700D01*
X498450Y332275D01*
X498750Y331800D01*
Y331775D01*
X498775Y331725D01*
X498825Y331675D01*
X498875Y331575D01*
X499000Y331300D01*
X499125Y330950D01*
X499275Y330525D01*
X499375Y330075D01*
X499475Y329575D01*
X499500Y329075D01*
Y328800D01*
X499475Y328650D01*
X499450Y328475D01*
X499400Y328075D01*
X499300Y327600D01*
X499175Y327100D01*
X498975Y326600D01*
X498700Y326100D01*
Y326075D01*
X498675Y326050D01*
X498550Y325875D01*
X498375Y325650D01*
X498150Y325375D01*
X497825Y325075D01*
X497475Y324750D01*
X497050Y324450D01*
X496550Y324200D01*
X496575Y324175D01*
X496675Y324100D01*
X496825Y324000D01*
X497000Y323850D01*
X497225Y323650D01*
X497475Y323425D01*
X497750Y323150D01*
X498025Y322825D01*
X498300Y322475D01*
X498575Y322075D01*
X498825Y321625D01*
X499050Y321150D01*
X499225Y320650D01*
X499375Y320100D01*
X499475Y319525D01*
X499500Y318900D01*
Y318650D01*
X499475Y318450D01*
X499450Y318225D01*
X499425Y317975D01*
X499375Y317700D01*
X499300Y317375D01*
X499100Y316725D01*
X498975Y316375D01*
X498800Y316025D01*
X498625Y315700D01*
X498400Y315375D01*
X498150Y315050D01*
X497850Y314775D01*
X497825Y314750D01*
X497775Y314700D01*
X497675Y314650D01*
X497550Y314550D01*
X497375Y314450D01*
X497175Y314325D01*
X496925Y314175D01*
X496650Y314050D01*
X496350Y313925D01*
X496000Y313775D01*
X495625Y313650D01*
X495200Y313550D01*
X494750Y313450D01*
X494275Y313375D01*
X493750Y313350D01*
X493200Y313325D01*
X483600D01*
Y316225D01*
X492775D01*
X492800D01*
X492875D01*
X492975D01*
X493125D01*
X493300Y316250D01*
X493525Y316275D01*
X493975Y316325D01*
X494500Y316425D01*
X495000Y316550D01*
X495500Y316750D01*
X495700Y316875D01*
X495900Y317025D01*
X495950Y317050D01*
X496050Y317175D01*
X496200Y317375D01*
X496375Y317650D01*
X496550Y318000D01*
X496700Y318450D01*
X496800Y319000D01*
X496850Y319325D01*
Y319800D01*
X496825Y319925D01*
X496800Y320075D01*
X496775Y320250D01*
X496675Y320625D01*
X496500Y321075D01*
X496400Y321300D01*
X496250Y321525D01*
X496075Y321775D01*
X495900Y322000D01*
X495675Y322225D01*
X495425Y322450D01*
X495400D01*
X495350Y322500D01*
X495275Y322550D01*
X495175Y322625D01*
X495050Y322700D01*
X494875Y322800D01*
X494700Y322900D01*
X494475Y323000D01*
X494000Y323225D01*
X493425Y323400D01*
X492800Y323525D01*
X492450Y323550D01*
X492100Y323575D01*
X483600D01*
Y326475D01*
X492775D01*
X492800D01*
X492875D01*
X492975D01*
X493125D01*
X493300Y326500D01*
X493525Y326525D01*
X493975Y326575D01*
X494500Y326675D01*
X495000Y326800D01*
X495500Y327000D01*
X495700Y327125D01*
X495900Y327275D01*
X495950Y327300D01*
X496050Y327425D01*
X496200Y327625D01*
X496375Y327900D01*
X496550Y328250D01*
X496700Y328700D01*
X496800Y329250D01*
X496850Y329575D01*
Y330050D01*
X496825Y330175D01*
X496800Y330325D01*
X496775Y330500D01*
X496675Y330875D01*
X496500Y331325D01*
X496400Y331550D01*
X496250Y331775D01*
X496075Y332025D01*
X495900Y332250D01*
X495675Y332475D01*
X495425Y332700D01*
X495400D01*
X495350Y332750D01*
X495275Y332800D01*
X495175Y332875D01*
X495050Y332950D01*
X494875Y333050D01*
X494700Y333150D01*
X494475Y333250D01*
X494000Y333475D01*
X493425Y333650D01*
X492800Y333775D01*
X492450Y333800D01*
X492100Y333825D01*
X483600D01*
Y336725D01*
X499000D01*
Y333950D01*
D02*
G37*
G36*
X506100Y307025D02*
X499000D01*
X496850Y307150D01*
Y307025D01*
X496875D01*
X496900Y307000D01*
X497050Y306875D01*
X497275Y306725D01*
X497550Y306475D01*
X497850Y306175D01*
X498175Y305800D01*
X498475Y305375D01*
X498775Y304875D01*
Y304850D01*
X498800Y304800D01*
X498850Y304725D01*
X498900Y304625D01*
X498950Y304500D01*
X499000Y304350D01*
X499150Y303950D01*
X499275Y303500D01*
X499400Y302975D01*
X499475Y302400D01*
X499500Y301775D01*
Y301650D01*
X499475Y301475D01*
Y301275D01*
X499425Y301000D01*
X499375Y300700D01*
X499300Y300350D01*
X499200Y299975D01*
X499075Y299600D01*
X498925Y299175D01*
X498725Y298750D01*
X498500Y298325D01*
X498225Y297875D01*
X497900Y297450D01*
X497525Y297025D01*
X497100Y296625D01*
X497075Y296600D01*
X497000Y296525D01*
X496850Y296425D01*
X496675Y296275D01*
X496450Y296125D01*
X496150Y295925D01*
X495850Y295750D01*
X495475Y295525D01*
X495075Y295325D01*
X494625Y295125D01*
X494150Y294950D01*
X493650Y294800D01*
X493100Y294650D01*
X492525Y294550D01*
X491925Y294475D01*
X491300Y294450D01*
X491250D01*
X491150D01*
X490975Y294475D01*
X490725D01*
X490425Y294525D01*
X490100Y294575D01*
X489700Y294625D01*
X489300Y294725D01*
X488850Y294825D01*
X488375Y294975D01*
X487900Y295150D01*
X487400Y295375D01*
X486900Y295625D01*
X486425Y295900D01*
X485925Y296250D01*
X485475Y296625D01*
X485450Y296650D01*
X485375Y296725D01*
X485250Y296850D01*
X485100Y297000D01*
X484925Y297200D01*
X484725Y297450D01*
X484500Y297725D01*
X484300Y298050D01*
X484075Y298425D01*
X483850Y298800D01*
X483650Y299225D01*
X483475Y299675D01*
X483325Y300175D01*
X483200Y300675D01*
X483125Y301225D01*
X483100Y301775D01*
Y302050D01*
X483125Y302200D01*
X483150Y302375D01*
X483200Y302800D01*
X483275Y303275D01*
X483400Y303800D01*
X483575Y304350D01*
X483800Y304875D01*
Y304900D01*
X483825Y304925D01*
X483875Y305000D01*
X483925Y305100D01*
X484100Y305350D01*
X484325Y305675D01*
X484600Y306025D01*
X484925Y306375D01*
X485300Y306725D01*
X485725Y307025D01*
Y307150D01*
X483600D01*
Y309925D01*
X506100D01*
Y307025D01*
D02*
G37*
G36*
X491650Y292650D02*
X491900D01*
X492200Y292600D01*
X492550Y292550D01*
X492925Y292500D01*
X493350Y292400D01*
X493800Y292300D01*
X494275Y292150D01*
X494775Y291975D01*
X495250Y291775D01*
X495750Y291525D01*
X496225Y291250D01*
X496700Y290925D01*
X497150Y290550D01*
X497175Y290525D01*
X497250Y290450D01*
X497375Y290325D01*
X497525Y290150D01*
X497700Y289950D01*
X497900Y289700D01*
X498100Y289400D01*
X498325Y289050D01*
X498550Y288675D01*
X498750Y288275D01*
X498950Y287825D01*
X499125Y287325D01*
X499275Y286825D01*
X499400Y286275D01*
X499475Y285675D01*
X499500Y285075D01*
Y284925D01*
X499475Y284750D01*
Y284500D01*
X499425Y284225D01*
X499375Y283875D01*
X499325Y283500D01*
X499225Y283100D01*
X499100Y282675D01*
X498950Y282250D01*
X498775Y281775D01*
X498550Y281325D01*
X498300Y280875D01*
X498000Y280450D01*
X497675Y280025D01*
X497275Y279625D01*
X497250Y279600D01*
X497175Y279525D01*
X497050Y279425D01*
X496875Y279300D01*
X496650Y279150D01*
X496375Y278975D01*
X496050Y278800D01*
X495675Y278600D01*
X495250Y278400D01*
X494800Y278225D01*
X494275Y278050D01*
X493725Y277900D01*
X493125Y277775D01*
X492500Y277650D01*
X491800Y277600D01*
X491075Y277575D01*
X490750Y277625D01*
Y289725D01*
X490725D01*
X490650D01*
X490525Y289700D01*
X490375D01*
X490175Y289675D01*
X489975Y289625D01*
X489725Y289575D01*
X489450Y289525D01*
X488875Y289325D01*
X488250Y289075D01*
X487950Y288900D01*
X487650Y288700D01*
X487375Y288475D01*
X487100Y288225D01*
X487075Y288200D01*
X487050Y288150D01*
X486975Y288075D01*
X486875Y287975D01*
X486775Y287825D01*
X486675Y287650D01*
X486550Y287475D01*
X486425Y287250D01*
X486150Y286750D01*
X485950Y286150D01*
X485775Y285475D01*
X485750Y285125D01*
X485725Y284750D01*
Y284625D01*
X485750Y284475D01*
X485775Y284300D01*
X485800Y284075D01*
X485875Y283800D01*
X485950Y283500D01*
X486075Y283175D01*
X486225Y282825D01*
X486400Y282475D01*
X486625Y282125D01*
X486900Y281775D01*
X487225Y281400D01*
X487575Y281050D01*
X488000Y280725D01*
X488500Y280425D01*
X487225Y277825D01*
X487200D01*
X487150Y277875D01*
X487050Y277925D01*
X486900Y278025D01*
X486750Y278125D01*
X486550Y278250D01*
X486125Y278575D01*
X485625Y279000D01*
X485125Y279500D01*
X484625Y280075D01*
X484175Y280725D01*
Y280750D01*
X484125Y280800D01*
X484075Y280900D01*
X484000Y281050D01*
X483925Y281225D01*
X483825Y281425D01*
X483750Y281650D01*
X483650Y281925D01*
X483550Y282225D01*
X483450Y282550D01*
X483275Y283250D01*
X483150Y284025D01*
X483125Y284450D01*
X483100Y284875D01*
Y285025D01*
X483125Y285200D01*
Y285450D01*
X483175Y285725D01*
X483225Y286075D01*
X483300Y286450D01*
X483400Y286850D01*
X483525Y287275D01*
X483675Y287725D01*
X483850Y288200D01*
X484075Y288675D01*
X484350Y289150D01*
X484650Y289600D01*
X485025Y290050D01*
X485425Y290475D01*
X485450Y290500D01*
X485525Y290575D01*
X485675Y290675D01*
X485850Y290825D01*
X486075Y290975D01*
X486350Y291175D01*
X486675Y291375D01*
X487025Y291575D01*
X487425Y291775D01*
X487875Y291975D01*
X488375Y292175D01*
X488875Y292325D01*
X489450Y292475D01*
X490025Y292575D01*
X490650Y292650D01*
X491300Y292675D01*
X491350D01*
X491450D01*
X491650Y292650D01*
D02*
G37*
G36*
X499000Y272175D02*
X496475D01*
Y272050D01*
X496500D01*
X496525Y272025D01*
X496675Y271950D01*
X496900Y271850D01*
X497200Y271675D01*
X497525Y271425D01*
X497875Y271100D01*
X498225Y270725D01*
X498575Y270250D01*
Y270225D01*
X498625Y270200D01*
X498650Y270125D01*
X498725Y270025D01*
X498850Y269750D01*
X499025Y269400D01*
X499175Y268975D01*
X499325Y268525D01*
X499425Y268050D01*
X499450Y267550D01*
Y267350D01*
X499425Y267100D01*
X499400Y266825D01*
X499350Y266475D01*
X499275Y266125D01*
X499175Y265775D01*
X499050Y265425D01*
X496250Y266300D01*
Y266325D01*
X496275Y266400D01*
X496325Y266525D01*
X496375Y266700D01*
X496400Y266950D01*
X496450Y267250D01*
X496475Y267600D01*
Y268150D01*
X496450Y268275D01*
X496425Y268425D01*
X496400Y268575D01*
X496300Y268975D01*
X496150Y269400D01*
X495925Y269875D01*
X495775Y270125D01*
X495600Y270375D01*
X495375Y270625D01*
X495150Y270850D01*
X495125Y270875D01*
X495100Y270900D01*
X495025Y270950D01*
X494925Y271025D01*
X494800Y271125D01*
X494650Y271225D01*
X494275Y271450D01*
X493825Y271675D01*
X493300Y271850D01*
X492725Y272000D01*
X492400Y272025D01*
X492075Y272050D01*
X483600D01*
Y274950D01*
X499000D01*
Y272175D01*
D02*
G37*
%LPC*%
G36*
X467950Y294725D02*
X467938D01*
X467900D01*
X467837D01*
X467750Y294712D01*
X467637Y294700D01*
X467525Y294688D01*
X467387Y294662D01*
X467238Y294637D01*
X466925Y294563D01*
X466587Y294438D01*
X466412Y294350D01*
X466250Y294263D01*
X466087Y294163D01*
X465938Y294038D01*
X465925Y294025D01*
X465900Y294000D01*
X465863Y293963D01*
X465812Y293913D01*
X465763Y293837D01*
X465688Y293762D01*
X465625Y293663D01*
X465550Y293550D01*
X465413Y293287D01*
X465287Y292987D01*
X465238Y292825D01*
X465200Y292650D01*
X465175Y292462D01*
X465163Y292275D01*
Y292175D01*
X465175Y292100D01*
X465188Y292013D01*
X465200Y291913D01*
X465263Y291663D01*
X465350Y291388D01*
X465425Y291250D01*
X465500Y291100D01*
X465588Y290950D01*
X465688Y290800D01*
X465812Y290663D01*
X465950Y290525D01*
X465963Y290512D01*
X465987Y290500D01*
X466025Y290462D01*
X466087Y290412D01*
X466162Y290363D01*
X466262Y290300D01*
X466362Y290237D01*
X466488Y290175D01*
X466625Y290112D01*
X466775Y290050D01*
X466937Y289987D01*
X467125Y289937D01*
X467513Y289850D01*
X467725Y289838D01*
X467950Y289825D01*
X467963D01*
X468000D01*
X468062D01*
X468150Y289838D01*
X468250Y289850D01*
X468375Y289862D01*
X468512Y289887D01*
X468650Y289913D01*
X468962Y290000D01*
X469300Y290125D01*
X469462Y290200D01*
X469625Y290287D01*
X469788Y290400D01*
X469938Y290525D01*
X469950Y290538D01*
X469975Y290563D01*
X470013Y290600D01*
X470062Y290650D01*
X470125Y290725D01*
X470188Y290800D01*
X470262Y290900D01*
X470337Y291013D01*
X470475Y291263D01*
X470600Y291563D01*
X470650Y291725D01*
X470687Y291900D01*
X470713Y292088D01*
X470725Y292275D01*
Y292375D01*
X470713Y292450D01*
X470700Y292537D01*
X470687Y292650D01*
X470625Y292887D01*
X470538Y293162D01*
X470475Y293313D01*
X470388Y293462D01*
X470300Y293613D01*
X470200Y293762D01*
X470075Y293900D01*
X469938Y294038D01*
X469925Y294050D01*
X469900Y294062D01*
X469863Y294100D01*
X469800Y294150D01*
X469725Y294200D01*
X469625Y294250D01*
X469525Y294313D01*
X469400Y294375D01*
X469263Y294450D01*
X469112Y294513D01*
X468950Y294563D01*
X468775Y294613D01*
X468388Y294700D01*
X468175Y294712D01*
X467950Y294725D01*
D02*
G37*
G36*
X473375Y346062D02*
X469413D01*
Y343650D01*
X469425Y343587D01*
Y343513D01*
X469438Y343425D01*
X469487Y343225D01*
X469550Y342987D01*
X469650Y342738D01*
X469788Y342488D01*
X469875Y342362D01*
X469975Y342250D01*
X469987Y342237D01*
X470000Y342225D01*
X470038Y342188D01*
X470075Y342150D01*
X470200Y342050D01*
X470375Y341937D01*
X470575Y341825D01*
X470825Y341725D01*
X471100Y341650D01*
X471250Y341637D01*
X471400Y341625D01*
X471413D01*
X471438D01*
X471475D01*
X471537Y341637D01*
X471600D01*
X471675Y341650D01*
X471863Y341700D01*
X472087Y341762D01*
X472312Y341863D01*
X472550Y342013D01*
X472662Y342100D01*
X472775Y342200D01*
X472788Y342213D01*
X472800Y342225D01*
X472825Y342263D01*
X472875Y342300D01*
X472963Y342425D01*
X473075Y342600D01*
X473187Y342800D01*
X473287Y343050D01*
X473350Y343325D01*
X473362Y343475D01*
X473375Y343637D01*
Y346062D01*
D02*
G37*
G36*
X468275Y337525D02*
Y333113D01*
X468288D01*
X468313D01*
X468350Y333125D01*
X468412D01*
X468550Y333162D01*
X468738Y333212D01*
X468950Y333300D01*
X469175Y333413D01*
X469387Y333562D01*
X469600Y333763D01*
X469613Y333775D01*
X469625Y333787D01*
X469650Y333825D01*
X469688Y333875D01*
X469725Y333925D01*
X469763Y334000D01*
X469863Y334175D01*
X469963Y334400D01*
X470038Y334675D01*
X470100Y334987D01*
X470125Y335337D01*
Y335413D01*
X470113Y335475D01*
Y335550D01*
X470100Y335625D01*
X470062Y335825D01*
X470000Y336050D01*
X469912Y336275D01*
X469788Y336525D01*
X469625Y336750D01*
Y336762D01*
X469600Y336775D01*
X469537Y336850D01*
X469425Y336950D01*
X469275Y337063D01*
X469075Y337200D01*
X468850Y337325D01*
X468575Y337438D01*
X468275Y337525D01*
D02*
G37*
G36*
X492400Y352725D02*
Y345250D01*
X502550Y348925D01*
Y349050D01*
X492400Y352725D01*
D02*
G37*
G36*
X491300Y307150D02*
X491275D01*
X491200D01*
X491075D01*
X490900Y307125D01*
X490675Y307100D01*
X490450Y307075D01*
X490175Y307025D01*
X489875Y306975D01*
X489250Y306825D01*
X488575Y306575D01*
X488225Y306400D01*
X487900Y306225D01*
X487575Y306025D01*
X487275Y305775D01*
X487250Y305750D01*
X487200Y305700D01*
X487125Y305625D01*
X487025Y305525D01*
X486925Y305375D01*
X486775Y305225D01*
X486650Y305025D01*
X486500Y304800D01*
X486225Y304275D01*
X485975Y303675D01*
X485875Y303350D01*
X485800Y303000D01*
X485750Y302625D01*
X485725Y302250D01*
Y302050D01*
X485750Y301900D01*
X485775Y301725D01*
X485800Y301525D01*
X485925Y301025D01*
X486100Y300475D01*
X486250Y300200D01*
X486400Y299900D01*
X486575Y299600D01*
X486775Y299300D01*
X487025Y299025D01*
X487300Y298750D01*
X487325Y298725D01*
X487375Y298700D01*
X487450Y298625D01*
X487575Y298525D01*
X487725Y298425D01*
X487925Y298300D01*
X488125Y298175D01*
X488375Y298050D01*
X488650Y297925D01*
X488950Y297800D01*
X489275Y297675D01*
X489650Y297575D01*
X490425Y297400D01*
X490850Y297375D01*
X491300Y297350D01*
X491325D01*
X491400D01*
X491525D01*
X491700Y297375D01*
X491900Y297400D01*
X492150Y297425D01*
X492425Y297475D01*
X492700Y297525D01*
X493325Y297700D01*
X494000Y297950D01*
X494325Y298100D01*
X494650Y298275D01*
X494975Y298500D01*
X495275Y298750D01*
X495300Y298775D01*
X495350Y298825D01*
X495425Y298900D01*
X495525Y299000D01*
X495650Y299150D01*
X495775Y299300D01*
X495925Y299500D01*
X496075Y299725D01*
X496350Y300225D01*
X496600Y300825D01*
X496700Y301150D01*
X496775Y301500D01*
X496825Y301875D01*
X496850Y302250D01*
Y302450D01*
X496825Y302600D01*
X496800Y302775D01*
X496775Y303000D01*
X496650Y303475D01*
X496475Y304025D01*
X496350Y304325D01*
X496175Y304625D01*
X496000Y304925D01*
X495800Y305225D01*
X495550Y305500D01*
X495275Y305775D01*
X495250Y305800D01*
X495200Y305825D01*
X495125Y305900D01*
X495000Y306000D01*
X494850Y306100D01*
X494650Y306200D01*
X494450Y306325D01*
X494200Y306450D01*
X493925Y306600D01*
X493625Y306725D01*
X493300Y306825D01*
X492950Y306925D01*
X492175Y307100D01*
X491750Y307125D01*
X491300Y307150D01*
D02*
G37*
G36*
X493150Y289500D02*
Y280675D01*
X493175D01*
X493225D01*
X493300Y280700D01*
X493425D01*
X493700Y280775D01*
X494075Y280875D01*
X494500Y281050D01*
X494950Y281275D01*
X495375Y281575D01*
X495800Y281975D01*
X495825Y282000D01*
X495850Y282025D01*
X495900Y282100D01*
X495975Y282200D01*
X496050Y282300D01*
X496125Y282450D01*
X496325Y282800D01*
X496525Y283250D01*
X496675Y283800D01*
X496800Y284425D01*
X496850Y285125D01*
Y285275D01*
X496825Y285400D01*
Y285550D01*
X496800Y285700D01*
X496725Y286100D01*
X496600Y286550D01*
X496425Y287000D01*
X496175Y287500D01*
X495850Y287950D01*
Y287975D01*
X495800Y288000D01*
X495675Y288150D01*
X495450Y288350D01*
X495150Y288575D01*
X494750Y288850D01*
X494300Y289100D01*
X493750Y289325D01*
X493150Y289500D01*
D02*
G37*
%LPD*%
D10*
X274449Y227213D02*
G03*
X274449Y229713I0J1250D01*
G01*
X97110Y434000D02*
G03*
X97110Y434000I-4610J0D01*
G01*
X248510Y447097D02*
G03*
X248510Y447097I-566J0D01*
G01*
X246283Y204433D02*
G03*
X246283Y204433I-4610J0D01*
G01*
X176210Y271300D02*
G03*
X176210Y271300I-4610J0D01*
G01*
X214787Y247740D02*
G03*
X214787Y247740I-4610J0D01*
G01*
X243330Y257583D02*
G03*
X243330Y257583I-4610J0D01*
G01*
X314196Y405221D02*
G03*
X314196Y405221I-4610J0D01*
G01*
X331810Y408400D02*
G03*
X331810Y408400I-4610J0D01*
G01*
X326992Y208370D02*
G03*
X326992Y208370I-4610J0D01*
G01*
X289590Y377661D02*
G03*
X289590Y377661I-4610J0D01*
G01*
X447210Y317500D02*
G03*
X447210Y317500I-4610J0D01*
G01*
X298448Y333370D02*
G03*
X298448Y333370I-4610J0D01*
G01*
X290574Y406205D02*
G03*
X290574Y406205I-4610J0D01*
G01*
X102110Y186500D02*
G03*
X102110Y186500I-4610J0D01*
G01*
X293100Y423500D02*
X339100D01*
Y460500D01*
X293100D02*
X339100D01*
X293100Y423500D02*
Y460500D01*
X274449Y223713D02*
Y227213D01*
Y229713D02*
Y233213D01*
X294449D01*
Y223713D02*
Y233213D01*
X274449Y223713D02*
X294449D01*
X163411Y308734D02*
Y324234D01*
X143411Y308734D02*
X163411D01*
X143411D02*
Y322234D01*
X145411Y324234D01*
X163411D01*
X288965Y205402D02*
Y211402D01*
X266965D02*
X288965D01*
X266965Y201402D02*
Y211402D01*
Y201402D02*
X288965D01*
Y205402D01*
X521701Y444276D02*
X563201D01*
X521701Y189276D02*
Y444276D01*
Y189276D02*
X563201D01*
Y444276D01*
X181520Y405402D02*
Y461902D01*
Y405402D02*
X182020D01*
X237020D01*
Y461902D01*
X181520D02*
X237020D01*
X239273Y451579D02*
Y457379D01*
X244073Y451579D02*
Y457279D01*
X417646Y192824D02*
X423346D01*
X417646Y197624D02*
X423446D01*
X417500Y259600D02*
X423200D01*
X417500Y264400D02*
X423300D01*
X417791Y325600D02*
X423491D01*
X417791Y330400D02*
X423591D01*
X417791Y392600D02*
X423491D01*
X417791Y397400D02*
X423591D01*
X417791Y244600D02*
X423491D01*
X417791Y249400D02*
X423591D01*
X417646Y308100D02*
X423346D01*
X417646Y312900D02*
X423446D01*
X418646Y374600D02*
X424346D01*
X418646Y379400D02*
X424446D01*
X417791Y446600D02*
X423491D01*
X417791Y451400D02*
X423591D01*
X258244Y436697D02*
Y437697D01*
X249744Y436697D02*
X258244D01*
X249744D02*
Y437697D01*
X258244Y445697D02*
Y446197D01*
X249744D02*
X258244D01*
X249744Y445697D02*
Y446197D01*
X261764Y231065D02*
X272764D01*
X261764Y215165D02*
X272764D01*
X261764D02*
Y241065D01*
X263364Y242665D01*
X272764Y215165D02*
Y240965D01*
X271064Y242665D02*
X272764Y240965D01*
X263364Y242665D02*
X271064D01*
X99038Y313802D02*
Y323802D01*
Y303960D02*
Y313960D01*
X285699Y297799D02*
X285199Y298299D01*
X284200D01*
X283700Y297799D01*
Y297299D01*
X284200Y296799D01*
X285199D01*
X285699Y296300D01*
Y295800D01*
X285199Y295300D01*
X284200D01*
X283700Y295800D01*
X286699Y298299D02*
X288698D01*
X287699D01*
Y295300D01*
X289698D02*
Y297299D01*
X290698Y298299D01*
X291697Y297299D01*
Y295300D01*
Y296799D01*
X289698D01*
X292697Y298299D02*
X294696D01*
X293697D01*
Y295300D01*
X295696Y298299D02*
Y295800D01*
X296196Y295300D01*
X297196D01*
X297695Y295800D01*
Y298299D01*
X300694Y297799D02*
X300195Y298299D01*
X299195D01*
X298695Y297799D01*
Y297299D01*
X299195Y296799D01*
X300195D01*
X300694Y296300D01*
Y295800D01*
X300195Y295300D01*
X299195D01*
X298695Y295800D01*
X190500Y171999D02*
Y170000D01*
X188501Y171999D01*
X188001D01*
X187501Y171500D01*
Y170500D01*
X188001Y170000D01*
X190500Y172999D02*
X190000D01*
Y173499D01*
X190500D01*
Y172999D01*
X187501Y177498D02*
Y175498D01*
X189000D01*
X188501Y176498D01*
Y176998D01*
X189000Y177498D01*
X190000D01*
X190500Y176998D01*
Y175998D01*
X190000Y175498D01*
X187501Y178497D02*
X189500D01*
X190500Y179497D01*
X189500Y180497D01*
X187501D01*
X190500Y181496D02*
X187501D01*
Y182996D01*
X188001Y183496D01*
X189000D01*
X189500Y182996D01*
Y181496D01*
Y182496D02*
X190500Y183496D01*
X187501Y186495D02*
Y184495D01*
X190500D01*
Y186495D01*
X189000Y184495D02*
Y185495D01*
X187501Y189494D02*
Y187494D01*
X189000D01*
Y188494D01*
Y187494D01*
X190500D01*
X195001Y175500D02*
Y177499D01*
X196500Y180498D02*
Y178499D01*
X194501Y180498D01*
X194001D01*
X193501Y179999D01*
Y178999D01*
X194001Y178499D01*
X196500Y181498D02*
X196000D01*
Y181998D01*
X196500D01*
Y181498D01*
X193501Y185997D02*
Y183997D01*
X195001D01*
X194501Y184997D01*
Y185497D01*
X195001Y185997D01*
X196000D01*
X196500Y185497D01*
Y184497D01*
X196000Y183997D01*
X193501Y186996D02*
X195500D01*
X196500Y187996D01*
X195500Y188996D01*
X193501D01*
X201000Y175500D02*
Y177499D01*
X200001Y176500D02*
X202000D01*
X202500Y180498D02*
Y178499D01*
X200501Y180498D01*
X200001D01*
X199501Y179999D01*
Y178999D01*
X200001Y178499D01*
X202500Y181498D02*
X202000D01*
Y181998D01*
X202500D01*
Y181498D01*
X199501Y185997D02*
Y183997D01*
X201000D01*
X200501Y184997D01*
Y185497D01*
X201000Y185997D01*
X202000D01*
X202500Y185497D01*
Y184497D01*
X202000Y183997D01*
X199501Y186996D02*
X201500D01*
X202500Y187996D01*
X201500Y188996D01*
X199501D01*
X208000Y175500D02*
Y177499D01*
X207001Y176500D02*
X209000D01*
X207001Y178499D02*
X206501Y178999D01*
Y179999D01*
X207001Y180498D01*
X207501D01*
X208000Y179999D01*
Y179499D01*
Y179999D01*
X208500Y180498D01*
X209000D01*
X209500Y179999D01*
Y178999D01*
X209000Y178499D01*
X209500Y181498D02*
X209000D01*
Y181998D01*
X209500D01*
Y181498D01*
X207001Y183997D02*
X206501Y184497D01*
Y185497D01*
X207001Y185997D01*
X207501D01*
X208000Y185497D01*
Y184997D01*
Y185497D01*
X208500Y185997D01*
X209000D01*
X209500Y185497D01*
Y184497D01*
X209000Y183997D01*
X206501Y186996D02*
X208500D01*
X209500Y187996D01*
X208500Y188996D01*
X206501D01*
X214001Y175500D02*
Y177499D01*
X213001Y176500D02*
X215000D01*
X212501Y178499D02*
X214500D01*
X215500Y179499D01*
X214500Y180498D01*
X212501D01*
X213001Y183497D02*
X212501Y182998D01*
Y181998D01*
X213001Y181498D01*
X213501D01*
X214001Y181998D01*
Y182998D01*
X214500Y183497D01*
X215000D01*
X215500Y182998D01*
Y181998D01*
X215000Y181498D01*
X212501Y184497D02*
X213001D01*
X214001Y185497D01*
X213001Y186496D01*
X212501D01*
X214001Y185497D02*
X215500D01*
X213001Y189496D02*
X212501Y188996D01*
Y187996D01*
X213001Y187496D01*
X213501D01*
X214001Y187996D01*
Y188996D01*
X214500Y189496D01*
X215000D01*
X215500Y188996D01*
Y187996D01*
X215000Y187496D01*
X57618Y222196D02*
X59618D01*
X58618D01*
Y219197D01*
X60617Y222196D02*
X62616Y219197D01*
Y222196D02*
X60617Y219197D01*
X57618Y419046D02*
X59618D01*
X58618D01*
Y416047D01*
X60617Y419046D02*
X62616Y416047D01*
Y419046D02*
X60617Y416047D01*
X57618Y213291D02*
Y216290D01*
X59118D01*
X59618Y215791D01*
Y214791D01*
X59118Y214291D01*
X57618D01*
X58618D02*
X59618Y213291D01*
X60617Y216290D02*
X62616Y213291D01*
Y216290D02*
X60617Y213291D01*
X58602Y411126D02*
Y414125D01*
X60102D01*
X60602Y413625D01*
Y412626D01*
X60102Y412126D01*
X58602D01*
X59602D02*
X60602Y411126D01*
X61601Y414125D02*
X63601Y411126D01*
Y414125D02*
X61601Y411126D01*
D11*
X210389Y313576D02*
G03*
X210389Y313576I-492J0D01*
G01*
D12*
X220822Y316638D02*
G03*
X220822Y316638I-1181J0D01*
G01*
D13*
X218445Y265457D02*
X220217D01*
X209980D02*
X211752D01*
X209980Y259059D02*
Y265457D01*
X220217Y259059D02*
Y265457D01*
X272248Y290231D02*
Y293831D01*
X264248D02*
X272248D01*
X264248Y290231D02*
Y293831D01*
Y290231D02*
X272248D01*
X292791Y290231D02*
Y293831D01*
X299923D01*
X300823Y292932D01*
Y291032D02*
Y292932D01*
X300023Y290231D02*
X300823Y291032D01*
X292791Y290231D02*
X300023D01*
X283828Y329370D02*
Y337370D01*
X280228Y329370D02*
X283828D01*
X280228D02*
Y337370D01*
X283828D01*
X302432Y188800D02*
X310432D01*
X302432D02*
Y192400D01*
X310432D01*
Y188800D02*
Y192400D01*
X246900Y353031D02*
Y361032D01*
X250500D01*
Y353031D02*
Y361032D01*
X246900Y353031D02*
X250500D01*
X386527Y274252D02*
Y282252D01*
X390127D01*
Y274252D02*
Y282252D01*
X386527Y274252D02*
X390127D01*
X251500Y224269D02*
Y232269D01*
X255100D01*
Y224269D02*
Y232269D01*
X251500Y224269D02*
X255100D01*
X288668Y284300D02*
X296669D01*
X288668D02*
Y287900D01*
X296669D01*
Y284300D02*
Y287900D01*
X187350Y191467D02*
Y198699D01*
Y191467D02*
X188150Y190667D01*
X190050D01*
X190950Y191567D01*
Y198699D01*
X187350D02*
X190950D01*
X193350Y191467D02*
Y198699D01*
Y191467D02*
X194150Y190667D01*
X196050D01*
X196950Y191567D01*
Y198699D01*
X193350D02*
X196950D01*
X199350Y191467D02*
Y198699D01*
Y191467D02*
X200150Y190667D01*
X202050D01*
X202950Y191567D01*
Y198699D01*
X199350D02*
X202950D01*
X205850Y191467D02*
Y198699D01*
Y191467D02*
X206650Y190667D01*
X208550D01*
X209450Y191567D01*
Y198699D01*
X205850D02*
X209450D01*
X212350Y191467D02*
Y198699D01*
Y191467D02*
X213150Y190667D01*
X215050D01*
X215950Y191567D01*
Y198699D01*
X212350D02*
X215950D01*
X253421Y204602D02*
Y208202D01*
Y204602D02*
X261421D01*
Y208202D01*
X253421D02*
X261421D01*
X275075Y245940D02*
Y249540D01*
Y245940D02*
X283075D01*
Y249540D01*
X275075D02*
X283075D01*
X394064Y428780D02*
Y436779D01*
X390464Y428780D02*
X394064D01*
X390464D02*
Y436779D01*
X394064D01*
X395048Y361850D02*
Y369850D01*
X391448Y361850D02*
X395048D01*
X391448D02*
Y369850D01*
X395048D01*
Y294921D02*
Y302921D01*
X391448Y294921D02*
X395048D01*
X391448D02*
Y302921D01*
X395048D01*
Y227992D02*
Y235992D01*
X391448Y227992D02*
X395048D01*
X391448D02*
Y235992D01*
X395048D01*
X408180Y407126D02*
Y415126D01*
X411780D01*
Y407126D02*
Y415126D01*
X408180Y407126D02*
X411780D01*
X408180Y340197D02*
Y348197D01*
X411780D01*
Y340197D02*
Y348197D01*
X408180Y340197D02*
X411780D01*
X408180Y274252D02*
Y282252D01*
X411780D01*
Y274252D02*
Y282252D01*
X408180Y274252D02*
X411780D01*
X408180Y207323D02*
Y215323D01*
X411780D01*
Y207323D02*
Y215323D01*
X408180Y207323D02*
X411780D01*
X401938Y428780D02*
Y436779D01*
X398338Y428780D02*
X401938D01*
X398338D02*
Y436779D01*
X401938D01*
X402922Y361850D02*
Y369850D01*
X399322Y361850D02*
X402922D01*
X399322D02*
Y369850D01*
X402922D01*
Y294921D02*
Y302921D01*
X399322Y294921D02*
X402922D01*
X399322D02*
Y302921D01*
X402922D01*
Y227992D02*
Y235992D01*
X399322Y227992D02*
X402922D01*
X399322D02*
Y235992D01*
X402922D01*
X404243Y407126D02*
Y415126D01*
X407843D01*
Y407126D02*
Y415126D01*
X404243Y407126D02*
X407843D01*
X404243Y340197D02*
Y348197D01*
X407843D01*
Y340197D02*
Y348197D01*
X404243Y340197D02*
X407843D01*
X404243Y274252D02*
Y282252D01*
X407843D01*
Y274252D02*
Y282252D01*
X404243Y274252D02*
X407843D01*
X404243Y207323D02*
Y215323D01*
X407843D01*
Y207323D02*
Y215323D01*
X404243Y207323D02*
X407843D01*
X394401Y407126D02*
Y415126D01*
X398001D01*
Y407126D02*
Y415126D01*
X394401Y407126D02*
X398001D01*
X394401Y340197D02*
Y348197D01*
X398001D01*
Y340197D02*
Y348197D01*
X394401Y340197D02*
X398001D01*
X394401Y274252D02*
Y282252D01*
X398001D01*
Y274252D02*
Y282252D01*
X394401Y274252D02*
X398001D01*
X394401Y207323D02*
Y215323D01*
X398001D01*
Y207323D02*
Y215323D01*
X394401Y207323D02*
X398001D01*
X398001Y428780D02*
Y436779D01*
X394401Y428780D02*
X398001D01*
X394401D02*
Y436779D01*
X398001D01*
X398985Y361850D02*
Y369850D01*
X395385Y361850D02*
X398985D01*
X395385D02*
Y369850D01*
X398985D01*
X395385Y294921D02*
Y302921D01*
X398985D01*
Y294921D02*
Y302921D01*
X395385Y294921D02*
X398985D01*
X398985Y227992D02*
Y235992D01*
X395385Y227992D02*
X398985D01*
X395385D02*
Y235992D01*
X398985D01*
X386527Y407126D02*
Y415126D01*
X390127D01*
Y407126D02*
Y415126D01*
X386527Y407126D02*
X390127D01*
X386527Y340197D02*
Y348197D01*
X390127D01*
Y340197D02*
Y348197D01*
X386527Y340197D02*
X390127D01*
X386527Y207323D02*
Y215323D01*
X390127D01*
Y207323D02*
Y215323D01*
X386527Y207323D02*
X390127D01*
X390127Y428780D02*
Y436779D01*
X386527Y428780D02*
X390127D01*
X386527D02*
Y436779D01*
X390127D01*
X391111Y361850D02*
Y369850D01*
X387511Y361850D02*
X391111D01*
X387511D02*
Y369850D01*
X391111D01*
Y294921D02*
Y302921D01*
X387511Y294921D02*
X391111D01*
X387511D02*
Y302921D01*
X391111D01*
Y227992D02*
Y235992D01*
X387511Y227992D02*
X391111D01*
X387511D02*
Y235992D01*
X391111D01*
X386190Y428780D02*
Y436779D01*
X382590Y428780D02*
X386190D01*
X382590D02*
Y436779D01*
X386190D01*
X387174Y361850D02*
Y369850D01*
X383574Y361850D02*
X387174D01*
X383574D02*
Y369850D01*
X387174D01*
Y294921D02*
Y302921D01*
X383574Y294921D02*
X387174D01*
X383574D02*
Y302921D01*
X387174D01*
Y227992D02*
Y235992D01*
X383574Y227992D02*
X387174D01*
X383574D02*
Y235992D01*
X387174D01*
X89283Y239803D02*
Y247803D01*
X92883D01*
Y239803D02*
Y247803D01*
X89283Y239803D02*
X92883D01*
X89283Y370709D02*
Y378709D01*
X92883D01*
Y370709D02*
Y378709D01*
X89283Y370709D02*
X92883D01*
X64676Y245709D02*
Y253709D01*
X68276D01*
Y245709D02*
Y253709D01*
X64676Y245709D02*
X68276D01*
X65661Y376614D02*
Y384614D01*
X69261D01*
Y376614D02*
Y384614D01*
X65661Y376614D02*
X69261D01*
X70582Y253583D02*
Y261583D01*
X74182D01*
Y253583D02*
Y261583D01*
X70582Y253583D02*
X74182D01*
X71566Y384488D02*
Y392488D01*
X75166D01*
Y384488D02*
Y392488D01*
X71566Y384488D02*
X75166D01*
X149322Y259488D02*
Y267488D01*
X152922D01*
Y259488D02*
Y267488D01*
X149322Y259488D02*
X152922D01*
X149322Y392362D02*
Y400362D01*
X152922D01*
Y392362D02*
Y400362D01*
X149322Y392362D02*
X152922D01*
X68276Y235866D02*
Y243866D01*
X64676Y235866D02*
X68276D01*
X64676D02*
Y243866D01*
X68276D01*
X69261Y367756D02*
Y375756D01*
X65661Y367756D02*
X69261D01*
X65661D02*
Y375756D01*
X69261D01*
X102438Y323202D02*
X107638D01*
X102438Y314402D02*
X107638D01*
Y323202D01*
X90238D02*
X95438D01*
X90238Y314402D02*
X95438D01*
X90238D02*
Y323202D01*
X102438Y313360D02*
X107638D01*
X102438Y304560D02*
X107638D01*
Y313360D01*
X90238D02*
X95438D01*
X90238Y304560D02*
X95438D01*
X90238D02*
Y313360D01*
X192292Y221102D02*
Y229102D01*
X188692Y221102D02*
X192292D01*
X188692D02*
Y229102D01*
X192292D01*
X284165Y338228D02*
Y346228D01*
X287765D01*
Y338228D02*
Y346228D01*
X284165Y338228D02*
X287765D01*
X231015Y200433D02*
Y208433D01*
X234615D01*
Y200433D02*
Y208433D01*
X231015Y200433D02*
X234615D01*
X219957Y241019D02*
X227957D01*
X219957D02*
Y244619D01*
X227957D01*
Y241019D02*
Y244619D01*
X203456Y255551D02*
Y263551D01*
X207056D01*
Y255551D02*
Y263551D01*
X203456Y255551D02*
X207056D01*
X223141D02*
Y263551D01*
X226741D01*
Y255551D02*
Y263551D01*
X223141Y255551D02*
X226741D01*
X359720Y417200D02*
Y420800D01*
X366852D01*
X367752Y419900D01*
Y418000D02*
Y419900D01*
X366952Y417200D02*
X367752Y418000D01*
X359720Y417200D02*
X366952D01*
X359720Y350271D02*
Y353871D01*
X366852D01*
X367752Y352971D01*
Y351071D02*
Y352971D01*
X366952Y350271D02*
X367752Y351071D01*
X359720Y350271D02*
X366952D01*
X359720Y283342D02*
Y286942D01*
X366852D01*
X367752Y286042D01*
Y284142D02*
Y286042D01*
X366952Y283342D02*
X367752Y284142D01*
X359720Y283342D02*
X366952D01*
X359720Y217397D02*
Y220997D01*
X366852D01*
X367752Y220097D01*
Y218197D02*
Y220097D01*
X366952Y217397D02*
X367752Y218197D01*
X359720Y217397D02*
X366952D01*
X73429Y219365D02*
Y222965D01*
X66298Y219365D02*
X73429D01*
X65398Y220265D02*
X66298Y219365D01*
X65398Y220265D02*
Y222165D01*
X66198Y222965D01*
X73429D01*
Y416216D02*
Y419816D01*
X66298Y416216D02*
X73429D01*
X65398Y417116D02*
X66298Y416216D01*
X65398Y417116D02*
Y419016D01*
X66198Y419816D01*
X73429D01*
Y213460D02*
Y217060D01*
X66298Y213460D02*
X73429D01*
X65398Y214360D02*
X66298Y213460D01*
X65398Y214360D02*
Y216260D01*
X66198Y217060D01*
X73429D01*
Y410310D02*
Y413910D01*
X66298Y410310D02*
X73429D01*
X65398Y411210D02*
X66298Y410310D01*
X65398Y411210D02*
Y413110D01*
X66198Y413910D01*
X73429D01*
X359800Y408032D02*
X363400D01*
Y416032D01*
X359800D02*
X363400D01*
X359800Y408032D02*
Y416032D01*
X360000Y339332D02*
X363600D01*
Y347332D01*
X360000D02*
X363600D01*
X360000Y339332D02*
Y347332D01*
X359700Y273168D02*
X363300D01*
Y281169D01*
X359700D02*
X363300D01*
X359700Y273168D02*
Y281169D01*
X359800Y206631D02*
X363400D01*
Y214632D01*
X359800D02*
X363400D01*
X359800Y206631D02*
Y214632D01*
X388495Y458433D02*
X392095D01*
X388495Y450433D02*
Y458433D01*
Y450433D02*
X392095D01*
Y458433D01*
X366842Y374772D02*
X370442D01*
X366842Y366772D02*
Y374772D01*
Y366772D02*
X370442D01*
Y374772D01*
X388495Y391504D02*
X392095D01*
X388495Y383504D02*
Y391504D01*
Y383504D02*
X392095D01*
Y391504D01*
X365858Y307842D02*
X369458D01*
X365858Y299843D02*
Y307842D01*
Y299843D02*
X369458D01*
Y307842D01*
X388300Y324932D02*
X391900D01*
X388300Y316932D02*
Y324932D01*
Y316932D02*
X391900D01*
Y324932D01*
X365858Y240913D02*
X369458D01*
X365858Y232913D02*
Y240913D01*
Y232913D02*
X369458D01*
Y240913D01*
X388495Y259614D02*
X392095D01*
X388495Y251614D02*
Y259614D01*
Y251614D02*
X392095D01*
Y259614D01*
X191413Y304995D02*
Y308595D01*
Y304995D02*
X199413D01*
Y308595D01*
X191413D02*
X199413D01*
X150768Y367600D02*
Y371200D01*
Y367600D02*
X158768D01*
Y371200D01*
X150768D02*
X158768D01*
X84130Y270547D02*
Y274147D01*
Y270547D02*
X92130D01*
Y274147D01*
X84130D02*
X92130D01*
X85114Y405389D02*
Y408989D01*
Y405389D02*
X93114D01*
Y408989D01*
X85114D02*
X93114D01*
X74287Y219365D02*
Y222965D01*
Y219365D02*
X82287D01*
Y222965D01*
X74287D02*
X82287D01*
X74287Y416216D02*
Y419816D01*
Y416216D02*
X82287D01*
Y419816D01*
X74287D02*
X82287D01*
X74287Y213460D02*
Y217060D01*
Y213460D02*
X82287D01*
Y217060D01*
X74287D02*
X82287D01*
X74287Y410310D02*
Y413910D01*
Y410310D02*
X82287D01*
Y413910D01*
X74287D02*
X82287D01*
X180818Y229102D02*
X184418D01*
X180818Y221102D02*
Y229102D01*
Y221102D02*
X184418D01*
Y229102D01*
X184755Y221102D02*
X188355D01*
Y229102D01*
X184755D02*
X188355D01*
X184755Y221102D02*
Y229102D01*
X276291Y338228D02*
X279891D01*
Y346228D01*
X276291D02*
X279891D01*
X276291Y338228D02*
Y346228D01*
X280228Y346228D02*
X283828D01*
X280228Y338228D02*
Y346228D01*
Y338228D02*
X283828D01*
Y346228D01*
X223141Y217291D02*
X226741D01*
X223141Y209291D02*
Y217291D01*
Y209291D02*
X226741D01*
Y217291D01*
X223141Y200433D02*
X226741D01*
Y208433D01*
X223141D02*
X226741D01*
X223141Y200433D02*
Y208433D01*
X212198Y207449D02*
X215798D01*
X212198Y199449D02*
Y207449D01*
Y199449D02*
X215798D01*
Y207449D01*
X227078Y208433D02*
X230678D01*
X227078Y200433D02*
Y208433D01*
Y200433D02*
X230678D01*
Y208433D01*
X205424Y207449D02*
X209024D01*
X205424Y199449D02*
Y207449D01*
Y199449D02*
X209024D01*
Y207449D01*
X199519D02*
X203119D01*
X199519Y199449D02*
Y207449D01*
Y199449D02*
X203119D01*
Y207449D01*
X208146Y233145D02*
Y236745D01*
Y233145D02*
X216146D01*
Y236745D01*
X208146D02*
X216146D01*
X193613Y207449D02*
X197213D01*
X193613Y199449D02*
Y207449D01*
Y199449D02*
X197213D01*
Y207449D01*
X227957Y233145D02*
Y236745D01*
X219957D02*
X227957D01*
X219957Y233145D02*
Y236745D01*
Y233145D02*
X227957D01*
X219957Y237082D02*
Y240682D01*
Y237082D02*
X227957D01*
Y240682D01*
X219957D02*
X227957D01*
X227078Y255551D02*
X230678D01*
Y263551D01*
X227078D02*
X230678D01*
X227078Y255551D02*
Y263551D01*
X186724Y207449D02*
X190324D01*
X186724Y199449D02*
Y207449D01*
Y199449D02*
X190324D01*
Y207449D01*
X264248Y274483D02*
Y278083D01*
Y274483D02*
X272248D01*
Y278083D01*
X264248D02*
X272248D01*
X264248Y278420D02*
Y282020D01*
Y278420D02*
X272248D01*
Y282020D01*
X264248D02*
X272248D01*
X272248Y282358D02*
Y285958D01*
X264248D02*
X272248D01*
X264248Y282358D02*
Y285958D01*
Y282358D02*
X272248D01*
Y286295D02*
Y289895D01*
X264248D02*
X272248D01*
X264248Y286295D02*
Y289895D01*
Y286295D02*
X272248D01*
X276291Y329370D02*
X279891D01*
Y337370D01*
X276291D02*
X279891D01*
X276291Y329370D02*
Y337370D01*
X291933Y290231D02*
Y293831D01*
X283933D02*
X291933D01*
X283933Y290231D02*
Y293831D01*
Y290231D02*
X291933D01*
X197319Y345350D02*
Y348950D01*
Y345350D02*
X205319D01*
Y348950D01*
X197319D02*
X205319D01*
X197319Y341413D02*
Y345013D01*
Y341413D02*
X205319D01*
Y345013D01*
X197319D02*
X205319D01*
X568233Y455968D02*
X574154Y450047D01*
X565404Y455968D02*
X574154Y447219D01*
X573890Y455968D02*
X574154Y455704D01*
X571061Y455968D02*
X574154Y452876D01*
X542777Y455968D02*
X574154Y424591D01*
X539948Y455968D02*
X574154Y421763D01*
X562576Y455968D02*
X574154Y444390D01*
X545605Y455968D02*
X574154Y427420D01*
X531463Y455968D02*
X574154Y413277D01*
X528635Y455968D02*
X574154Y410449D01*
X537120Y455968D02*
X574154Y418934D01*
X534292Y455968D02*
X574154Y416106D01*
X520149Y455968D02*
X574154Y401964D01*
X517321Y455968D02*
X574154Y399135D01*
X525806Y455968D02*
X574154Y407621D01*
X522978Y455968D02*
X574154Y404792D01*
X554091Y455968D02*
X574154Y435905D01*
X551262Y455968D02*
X574154Y433076D01*
X559747Y455968D02*
X574154Y441562D01*
X556919Y455968D02*
X574154Y438733D01*
X509193Y435812D02*
X574154Y370851D01*
X509193Y368330D02*
X574154Y433291D01*
X548434Y455968D02*
X574154Y430248D01*
X509193Y371159D02*
X574154Y436119D01*
X509193Y362673D02*
X574154Y427634D01*
X509193Y427326D02*
X574154Y362366D01*
X509193Y432983D02*
X574154Y368023D01*
X509193Y430155D02*
X574154Y365194D01*
X509193Y418841D02*
X574154Y353881D01*
X509193Y351360D02*
X574154Y416320D01*
X509193Y354188D02*
X574154Y419149D01*
X509193Y413585D02*
X551576Y455968D01*
X509193Y410757D02*
X554404Y455968D01*
X509193Y419242D02*
X545919Y455968D01*
X509193Y416413D02*
X548747Y455968D01*
X511664D02*
X574154Y393478D01*
X514493Y455968D02*
X574154Y396307D01*
X509193Y407928D02*
X557233Y455968D01*
X509193Y393786D02*
X571375Y455968D01*
X509193Y441869D02*
X523291Y455968D01*
X509193Y439041D02*
X526120Y455968D01*
X509193Y453183D02*
X511978Y455968D01*
X509193Y444698D02*
X520463Y455968D01*
X509193Y399443D02*
X565718Y455968D01*
X509193Y396614D02*
X568546Y455968D01*
X509193Y405100D02*
X560061Y455968D01*
X509193Y402271D02*
X562889Y455968D01*
X509193Y373987D02*
X574154Y438948D01*
X509193Y438640D02*
X574154Y373679D01*
X509193Y430556D02*
X534605Y455968D01*
X509193Y441468D02*
X574154Y376508D01*
X509193Y357016D02*
X574154Y421977D01*
X509193Y421669D02*
X574154Y356709D01*
X509193Y359845D02*
X574154Y424805D01*
X509193Y424498D02*
X574154Y359537D01*
X509193Y436212D02*
X528948Y455968D01*
X509193Y433384D02*
X531777Y455968D01*
X509193Y450355D02*
X514806Y455968D01*
X509193Y447526D02*
X517635Y455968D01*
X509193Y424899D02*
X540262Y455968D01*
X509193Y422070D02*
X543090Y455968D01*
X509193Y427727D02*
X537434Y455968D01*
X518909Y177228D02*
X574154Y232472D01*
X521737Y177228D02*
X574154Y229644D01*
X513252Y177228D02*
X574154Y238129D01*
X516081Y177228D02*
X574154Y235301D01*
Y177228D02*
Y455968D01*
X530223Y177228D02*
X574154Y221159D01*
X524566Y177228D02*
X574154Y226815D01*
X527394Y177228D02*
X574154Y223987D01*
X509193Y303276D02*
X574154Y368237D01*
X509193Y367929D02*
X574154Y302969D01*
X509193Y306105D02*
X574154Y371065D01*
X509193Y370758D02*
X574154Y305797D01*
X510424Y177228D02*
X574154Y240957D01*
X510424Y177228D02*
X574154Y240957D01*
X509193Y300448D02*
X574154Y365408D01*
X509193Y365101D02*
X574154Y300140D01*
X558507Y177228D02*
X574154Y192874D01*
X561336Y177228D02*
X574154Y190046D01*
X552850Y177228D02*
X574154Y198531D01*
X555679Y177228D02*
X574154Y195703D01*
X569821Y177228D02*
X574154Y181561D01*
X572649Y177228D02*
X574154Y178732D01*
X564164Y177228D02*
X574154Y187217D01*
X566992Y177228D02*
X574154Y184389D01*
X538708Y177228D02*
X574154Y212673D01*
X541537Y177228D02*
X574154Y209845D01*
X533051Y177228D02*
X574154Y218330D01*
X535880Y177228D02*
X574154Y215502D01*
X547193Y177228D02*
X574154Y204188D01*
X550022Y177228D02*
X574154Y201360D01*
X544365Y177228D02*
X574154Y207016D01*
X509193Y401870D02*
X574154Y336910D01*
X509193Y334389D02*
X574154Y399350D01*
X509193Y404699D02*
X574154Y339738D01*
X509193Y337217D02*
X574154Y402178D01*
X509193Y396214D02*
X574154Y331253D01*
X509193Y328732D02*
X574154Y393693D01*
X509193Y399042D02*
X574154Y334081D01*
X509193Y331561D02*
X574154Y396521D01*
X509193Y413184D02*
X574154Y348224D01*
X509193Y345703D02*
X574154Y410663D01*
X509193Y416013D02*
X574154Y351052D01*
X509193Y348531D02*
X574154Y413492D01*
X509193Y407527D02*
X574154Y342567D01*
X509193Y340046D02*
X574154Y405007D01*
X509193Y410356D02*
X574154Y345395D01*
X509193Y342874D02*
X574154Y407835D01*
X509193Y314590D02*
X574154Y379551D01*
X509193Y379243D02*
X574154Y314282D01*
X509193Y317418D02*
X574154Y382379D01*
X509193Y382071D02*
X574154Y317111D01*
X509193Y308933D02*
X574154Y373894D01*
X509193Y373586D02*
X574154Y308626D01*
X509193Y311761D02*
X574154Y376722D01*
X509193Y376415D02*
X574154Y311454D01*
X509193Y390557D02*
X574154Y325596D01*
X509193Y323075D02*
X574154Y388036D01*
X509193Y393385D02*
X574154Y328425D01*
X509193Y325904D02*
X574154Y390864D01*
X509193Y320247D02*
X574154Y385208D01*
X509193Y384900D02*
X574154Y319939D01*
X509193Y387728D02*
X574154Y322768D01*
X509193Y258021D02*
X574154Y322982D01*
X509193Y322674D02*
X574154Y257714D01*
X509193Y260850D02*
X574154Y325810D01*
X509193Y325503D02*
X574154Y260542D01*
X509193Y252364D02*
X574154Y317325D01*
X509193Y317018D02*
X574154Y252057D01*
X509193Y255193D02*
X574154Y320154D01*
X509193Y319846D02*
X574154Y254885D01*
X509193Y269335D02*
X574154Y334296D01*
X509193Y333988D02*
X574154Y269028D01*
X509193Y272164D02*
X574154Y337124D01*
X509193Y336817D02*
X574154Y271856D01*
X509193Y263678D02*
X574154Y328639D01*
X509193Y328331D02*
X574154Y263371D01*
X509193Y266507D02*
X574154Y331467D01*
X509193Y331160D02*
X574154Y266199D01*
X509193Y302875D02*
X574154Y237915D01*
X509193Y235394D02*
X574154Y300355D01*
X509193Y305704D02*
X574154Y240743D01*
X509193Y238222D02*
X574154Y303183D01*
X509193Y297219D02*
X574154Y232258D01*
X509193Y229737D02*
X574154Y294698D01*
X509193Y300047D02*
X574154Y235086D01*
X509193Y232565D02*
X574154Y297526D01*
X509193Y246708D02*
X574154Y311668D01*
X509193Y311361D02*
X574154Y246400D01*
X509193Y249536D02*
X574154Y314497D01*
X509193Y314189D02*
X574154Y249229D01*
X509193Y308532D02*
X574154Y243572D01*
X509193Y241051D02*
X574154Y306011D01*
X509193Y243879D02*
X574154Y308840D01*
X509193Y444297D02*
X574154Y379336D01*
X509193Y376815D02*
X574154Y441776D01*
X509193Y447125D02*
X574154Y382165D01*
X509193Y379644D02*
X574154Y444604D01*
X509193Y362273D02*
X574154Y297312D01*
X509193Y294791D02*
X574154Y359752D01*
X509193Y365502D02*
X574154Y430462D01*
X509193Y297619D02*
X574154Y362580D01*
X509193Y455611D02*
X574154Y390650D01*
X509193Y388129D02*
X574154Y453090D01*
X509193Y455968D02*
X574154D01*
X509193Y390958D02*
X574154Y455918D01*
X509193Y449954D02*
X574154Y384993D01*
X509193Y382472D02*
X574154Y447433D01*
X509193Y452782D02*
X574154Y387822D01*
X509193Y385301D02*
X574154Y450261D01*
X509193Y280649D02*
X574154Y345609D01*
X509193Y345302D02*
X574154Y280341D01*
X509193Y283477D02*
X574154Y348438D01*
X509193Y348130D02*
X574154Y283170D01*
X509193Y274992D02*
X574154Y339953D01*
X509193Y339645D02*
X574154Y274684D01*
X509193Y277820D02*
X574154Y342781D01*
X509193Y342474D02*
X574154Y277513D01*
X509193Y356616D02*
X574154Y291655D01*
X509193Y289134D02*
X574154Y354095D01*
X509193Y359444D02*
X574154Y294483D01*
X509193Y291963D02*
X574154Y356923D01*
X509193Y286306D02*
X574154Y351266D01*
X509193Y350959D02*
X574154Y285998D01*
X509193Y353787D02*
X574154Y288827D01*
X509193Y280248D02*
X574154Y215287D01*
X509193Y212767D02*
X574154Y277727D01*
X509193Y283077D02*
X574154Y218116D01*
X509193Y215595D02*
X574154Y280556D01*
X509193Y274591D02*
X574154Y209630D01*
X509193Y207110D02*
X574154Y272070D01*
X509193Y277420D02*
X574154Y212459D01*
X509193Y209938D02*
X574154Y274899D01*
X509193Y291562D02*
X574154Y226601D01*
X509193Y224080D02*
X574154Y289041D01*
X509193Y294390D02*
X574154Y229430D01*
X509193Y226909D02*
X574154Y291869D01*
X509193Y285905D02*
X574154Y220944D01*
X509193Y218423D02*
X574154Y283384D01*
X509193Y288733D02*
X574154Y223773D01*
X509193Y221252D02*
X574154Y286212D01*
X509193Y192967D02*
X574154Y257928D01*
X509193Y257621D02*
X574154Y192660D01*
X509193Y195796D02*
X574154Y260756D01*
X509193Y260449D02*
X574154Y195488D01*
X509193Y187311D02*
X574154Y252271D01*
X509193Y251964D02*
X574154Y187003D01*
X509193Y190139D02*
X574154Y255100D01*
X509193Y254792D02*
X574154Y189831D01*
X509193Y268934D02*
X574154Y203974D01*
X509193Y201453D02*
X574154Y266413D01*
X509193Y271763D02*
X574154Y206802D01*
X509193Y204281D02*
X574154Y269242D01*
X509193Y198624D02*
X574154Y263585D01*
X509193Y263277D02*
X574154Y198317D01*
X509193Y266106D02*
X574154Y201145D01*
X509193Y237822D02*
X569787Y177228D01*
X509193Y234993D02*
X566958Y177228D01*
X509193Y232165D02*
X564130Y177228D01*
X509193Y229336D02*
X561302Y177228D01*
X509193Y226508D02*
X558473Y177228D01*
X509193Y223679D02*
X555645Y177228D01*
X509193Y220851D02*
X552816Y177228D01*
X509193Y218023D02*
X549988Y177228D01*
X509193Y181654D02*
X574154Y246614D01*
X509193Y246307D02*
X574154Y181346D01*
X509193Y184482D02*
X574154Y249443D01*
X509193Y249135D02*
X574154Y184175D01*
X509193Y178825D02*
X574154Y243786D01*
X509193Y243478D02*
X574154Y178518D01*
X509193Y177228D02*
Y455968D01*
Y240650D02*
X572615Y177228D01*
X509193Y195395D02*
X527360Y177228D01*
X509193Y192567D02*
X524532Y177228D01*
X509193Y189738D02*
X521703Y177228D01*
X509193Y186910D02*
X518875Y177228D01*
X509193Y184081D02*
X516047Y177228D01*
X509193D02*
X574154D01*
X509193Y181253D02*
X513218Y177228D01*
X509193Y178425D02*
X510390Y177228D01*
X509193Y215194D02*
X547159Y177228D01*
X509193Y212366D02*
X544331Y177228D01*
X509193Y209537D02*
X541503Y177228D01*
X509193Y206709D02*
X538674Y177228D01*
X509193Y203881D02*
X535846Y177228D01*
X509193Y201052D02*
X533017Y177228D01*
X509193Y198224D02*
X530189Y177228D01*
X130398Y463882D02*
X137587Y456692D01*
X127569Y463882D02*
X137587Y453864D01*
X136055Y463882D02*
X137587Y462349D01*
X133226Y463882D02*
X137587Y459521D01*
X119084Y463882D02*
X137587Y445379D01*
X116256Y463882D02*
X137587Y442550D01*
X124741Y463882D02*
X137587Y451035D01*
X121913Y463882D02*
X137587Y448207D01*
X107770Y463882D02*
X137587Y434065D01*
X104942Y463882D02*
X137587Y431236D01*
X113427Y463882D02*
X137587Y439722D01*
X110599Y463882D02*
X137587Y436893D01*
X103681Y462314D02*
X137587Y428408D01*
X103681Y426680D02*
X137587Y460587D01*
X103681Y429509D02*
X137587Y463415D01*
X103681Y387082D02*
X137587Y420989D01*
X103681Y419888D02*
X137587Y385982D01*
X103681Y415367D02*
X137587Y449273D01*
X103681Y448172D02*
X137587Y414266D01*
X103681Y381426D02*
X137587Y415332D01*
X103681Y414231D02*
X137587Y380325D01*
X103681Y384254D02*
X137587Y418160D01*
X103681Y417059D02*
X137587Y383153D01*
X103681Y456657D02*
X137587Y422751D01*
X103681Y421024D02*
X137587Y454930D01*
X103681Y459486D02*
X137587Y425580D01*
X103681Y423852D02*
X137587Y457758D01*
X103681Y418195D02*
X137587Y452102D01*
X103681Y451001D02*
X137587Y417094D01*
X103681Y453829D02*
X137587Y419923D01*
X103681Y454965D02*
X112598Y463882D01*
X103681Y452136D02*
X115427Y463882D01*
X103681Y463450D02*
X104113Y463882D01*
X103681Y460622D02*
X106941Y463882D01*
X103681Y445344D02*
X137587Y411437D01*
X103681Y409710D02*
X137587Y443616D01*
X103681Y449308D02*
X118255Y463882D01*
X103681Y412538D02*
X137587Y446445D01*
X103681Y443651D02*
X123912Y463882D01*
X103681Y440823D02*
X126740Y463882D01*
X103681Y457793D02*
X109770Y463882D01*
X103681Y446479D02*
X121083Y463882D01*
X103681Y435166D02*
X132397Y463882D01*
X103681Y432337D02*
X135226Y463882D01*
X103681Y437994D02*
X129569Y463882D01*
X103681Y378597D02*
X137587Y412503D01*
X103681Y411403D02*
X137587Y377496D01*
X103681Y389911D02*
X137587Y423817D01*
X103681Y422716D02*
X137587Y388810D01*
X103681Y372940D02*
X137587Y406847D01*
X103681Y405746D02*
X137587Y371839D01*
X103681Y375769D02*
X137587Y409675D01*
X103681Y408574D02*
X137587Y374668D01*
X103681Y439687D02*
X137587Y405781D01*
X103681Y436858D02*
X137587Y402952D01*
X103681Y442515D02*
X137587Y408609D01*
X103681Y406881D02*
X137587Y440788D01*
X103681Y392739D02*
X137587Y426646D01*
X103681Y425545D02*
X137587Y391638D01*
X103681Y395568D02*
X137587Y429474D01*
X103681Y360491D02*
X137587Y326585D01*
X103681Y324857D02*
X137587Y358763D01*
X103681Y363319D02*
X137587Y329413D01*
X103681Y327685D02*
X137587Y361592D01*
Y169135D02*
Y463882D01*
X103681Y354834D02*
X137587Y320928D01*
X103681Y357662D02*
X137587Y323756D01*
X103681Y322028D02*
X137587Y355935D01*
X103681Y316372D02*
X137587Y350278D01*
X103681Y349177D02*
X137587Y315271D01*
X103681Y319200D02*
X137587Y353106D01*
X103681Y352006D02*
X137587Y318099D01*
X103681Y346349D02*
X137587Y312442D01*
X103681Y310715D02*
X137587Y344621D01*
X103681Y313543D02*
X137587Y347449D01*
X120642Y169283D02*
X137587Y186229D01*
X123446Y169259D02*
X137587Y183401D01*
X115034Y169332D02*
X137587Y191886D01*
X117838Y169308D02*
X137587Y189058D01*
X131857Y169185D02*
X137587Y174915D01*
X134661Y169161D02*
X137587Y172087D01*
X126250Y169234D02*
X137587Y180572D01*
X129053Y169210D02*
X137587Y177744D01*
X103818Y169430D02*
X137587Y203200D01*
X103818Y169430D02*
X137587Y203200D01*
X103681Y343520D02*
X137587Y309614D01*
X103681Y340692D02*
X137587Y306785D01*
X109426Y169381D02*
X137587Y197543D01*
X112230Y169357D02*
X137587Y194714D01*
X106622Y169406D02*
X137587Y200371D01*
X103681Y391604D02*
X137587Y357697D01*
X103681Y355970D02*
X137587Y389876D01*
X103681Y394432D02*
X137587Y360526D01*
X103681Y358798D02*
X137587Y392704D01*
X103681Y385947D02*
X137587Y352040D01*
X103681Y350313D02*
X137587Y384219D01*
X103681Y388775D02*
X137587Y354869D01*
X103681Y353141D02*
X137587Y387048D01*
X103681Y367283D02*
X137587Y401190D01*
X103681Y400089D02*
X137587Y366182D01*
X103681Y370112D02*
X137587Y404018D01*
X103681Y402917D02*
X137587Y369011D01*
X103681Y397260D02*
X137587Y363354D01*
X103681Y361627D02*
X137587Y395533D01*
X103681Y364455D02*
X137587Y398361D01*
X103681Y336171D02*
X137587Y370077D01*
X103681Y368976D02*
X137587Y335070D01*
X103681Y338999D02*
X137587Y372905D01*
X103681Y371805D02*
X137587Y337898D01*
X103681Y366148D02*
X137587Y332241D01*
X103681Y330514D02*
X137587Y364420D01*
X103681Y333342D02*
X137587Y367249D01*
X103681Y380290D02*
X137587Y346384D01*
X103681Y344656D02*
X137587Y378562D01*
X103681Y383118D02*
X137587Y349212D01*
X103681Y347484D02*
X137587Y381391D01*
X103681Y341828D02*
X137587Y375734D01*
X103681Y374633D02*
X137587Y340727D01*
X103681Y377461D02*
X137587Y343555D01*
X103681Y262632D02*
X137587Y296538D01*
X103681Y295437D02*
X137587Y261531D01*
X103681Y265460D02*
X137587Y299366D01*
X103681Y298265D02*
X137587Y264359D01*
X103681Y256975D02*
X137587Y290881D01*
X103681Y289780D02*
X137587Y255874D01*
X103681Y259803D02*
X137587Y293709D01*
X103681Y292608D02*
X137587Y258702D01*
X103681Y306751D02*
X137587Y272844D01*
X103681Y271117D02*
X137587Y305023D01*
X103681Y309579D02*
X137587Y275673D01*
X103681Y273945D02*
X137587Y307852D01*
X103681Y268288D02*
X137587Y302195D01*
X103681Y301094D02*
X137587Y267188D01*
X103681Y303922D02*
X137587Y270016D01*
X103681Y275638D02*
X137587Y241732D01*
X103681Y240004D02*
X137587Y273910D01*
X103681Y278466D02*
X137587Y244560D01*
X103681Y242832D02*
X137587Y276739D01*
X103681Y269981D02*
X137587Y236075D01*
X103681Y234347D02*
X137587Y268253D01*
X103681Y272810D02*
X137587Y238903D01*
X103681Y237176D02*
X137587Y271082D01*
X103681Y251318D02*
X137587Y285224D01*
X103681Y284123D02*
X137587Y250217D01*
X103681Y254146D02*
X137587Y288053D01*
X103681Y286952D02*
X137587Y253045D01*
X103681Y281295D02*
X137587Y247389D01*
X103681Y245661D02*
X137587Y279567D01*
X103681Y248489D02*
X137587Y282396D01*
X103681Y337863D02*
X137587Y303957D01*
X103681Y302229D02*
X137587Y336136D01*
X103681Y307886D02*
X137587Y341793D01*
X103681Y305058D02*
X137587Y338964D01*
X103681Y332207D02*
X137587Y298300D01*
X103681Y296573D02*
X137587Y330479D01*
X103681Y335035D02*
X137587Y301129D01*
X103681Y299401D02*
X137587Y333307D01*
X103681Y401225D02*
X137587Y435131D01*
X103681Y434030D02*
X137587Y400124D01*
X103681Y463882D02*
X137587D01*
X103681Y404053D02*
X137587Y437959D01*
X103681Y431202D02*
X137587Y397295D01*
X103681Y428373D02*
X137587Y394467D01*
X103681Y398396D02*
X137587Y432302D01*
X103681Y282431D02*
X137587Y316337D01*
X103681Y315236D02*
X137587Y281330D01*
X103681Y285259D02*
X137587Y319165D01*
X103681Y318064D02*
X137587Y284158D01*
X103681Y312407D02*
X137587Y278501D01*
X103681Y276774D02*
X137587Y310680D01*
X103681Y279602D02*
X137587Y313508D01*
X103681Y326550D02*
X137587Y292643D01*
X103681Y290916D02*
X137587Y324822D01*
X103681Y329378D02*
X137587Y295472D01*
X103681Y293744D02*
X137587Y327650D01*
X103681Y288087D02*
X137587Y321994D01*
X103681Y320893D02*
X137587Y286986D01*
X103681Y323721D02*
X137587Y289815D01*
X103681Y220205D02*
X137587Y254111D01*
X103681Y253011D02*
X137587Y219104D01*
X103681Y223033D02*
X137587Y256940D01*
X103681Y255839D02*
X137587Y221933D01*
X103681Y214548D02*
X137587Y248454D01*
X103681Y247354D02*
X137587Y213447D01*
X103681Y217377D02*
X137587Y251283D01*
X103681Y250182D02*
X137587Y216276D01*
X103681Y264324D02*
X137587Y230418D01*
X103681Y228690D02*
X137587Y262597D01*
X103681Y267153D02*
X137587Y233246D01*
X103681Y231519D02*
X137587Y265425D01*
X103681Y225862D02*
X137587Y259768D01*
X103681Y258667D02*
X137587Y224761D01*
X103681Y261496D02*
X137587Y227590D01*
X103681Y233211D02*
X137587Y199305D01*
X103681Y197578D02*
X137587Y231484D01*
X103681Y236040D02*
X137587Y202134D01*
X103681Y200406D02*
X137587Y234312D01*
X103681Y227555D02*
X137587Y193648D01*
X103681Y191921D02*
X137587Y225827D01*
X103681Y230383D02*
X137587Y196477D01*
X103681Y194749D02*
X137587Y228656D01*
X103681Y208891D02*
X137587Y242798D01*
X103681Y241697D02*
X137587Y207790D01*
X103681Y211720D02*
X137587Y245626D01*
X103681Y244525D02*
X137587Y210619D01*
X103681Y238868D02*
X137587Y204962D01*
X103681Y203235D02*
X137587Y237141D01*
X103681Y206063D02*
X137587Y239969D01*
X103681Y213412D02*
X137587Y179506D01*
X103681Y177779D02*
X137587Y211685D01*
X103681Y216241D02*
X137587Y182335D01*
X103681Y180607D02*
X137587Y214513D01*
X103681Y207756D02*
X137587Y173849D01*
X103681Y172122D02*
X137587Y206028D01*
X103681Y210584D02*
X137587Y176678D01*
X103681Y174950D02*
X137587Y208857D01*
X103681Y221898D02*
X137587Y187991D01*
X103681Y186264D02*
X137587Y220170D01*
X103681Y224726D02*
X137587Y190820D01*
X103681Y189092D02*
X137587Y222999D01*
X103681Y219069D02*
X137587Y185163D01*
X103681Y183435D02*
X137587Y217342D01*
X103681Y169432D02*
Y463882D01*
Y179471D02*
X113809Y169343D01*
X103681Y176643D02*
X110956Y169368D01*
X103681Y173814D02*
X108103Y169393D01*
X103681Y170986D02*
X105249Y169418D01*
X103681Y185128D02*
X119516Y169293D01*
X103681Y169432D02*
X137587Y169135D01*
X103681Y182300D02*
X116663Y169318D01*
X103681Y204927D02*
X137587Y171021D01*
X103681Y193614D02*
X128076Y169218D01*
X103681Y190785D02*
X125223Y169243D01*
X103681Y187957D02*
X122370Y169268D01*
X103681Y202099D02*
X136636Y169143D01*
X103681Y199270D02*
X133783Y169168D01*
X103681Y196442D02*
X130930Y169193D01*
X288666Y431699D02*
X287833D01*
X288250D01*
Y429616D01*
X287833Y429200D01*
X287417D01*
X287000Y429616D01*
X289499Y431283D02*
X289916Y431699D01*
X290749D01*
X291165Y431283D01*
Y430866D01*
X290749Y430450D01*
X291165Y430033D01*
Y429616D01*
X290749Y429200D01*
X289916D01*
X289499Y429616D01*
Y430033D01*
X289916Y430450D01*
X289499Y430866D01*
Y431283D01*
X289916Y430450D02*
X290749D01*
X213300Y271199D02*
Y269116D01*
X213717Y268700D01*
X214550D01*
X214966Y269116D01*
Y271199D01*
X215799Y268700D02*
X216632D01*
X216216D01*
Y271199D01*
X215799Y270783D01*
X217882Y268700D02*
X218715D01*
X218298D01*
Y271199D01*
X217882Y270783D01*
X296000Y229499D02*
Y227416D01*
X296416Y227000D01*
X297250D01*
X297666Y227416D01*
Y229499D01*
X298499Y227000D02*
X299332D01*
X298916D01*
Y229499D01*
X298499Y229083D01*
X302248Y227000D02*
X300582D01*
X302248Y228666D01*
Y229083D01*
X301831Y229499D01*
X300998D01*
X300582Y229083D01*
X202636Y319837D02*
Y317754D01*
X203053Y317338D01*
X203886D01*
X204302Y317754D01*
Y319837D01*
X205135Y317338D02*
X205968D01*
X205552D01*
Y319837D01*
X205135Y319421D01*
X207218D02*
X207635Y319837D01*
X208468D01*
X208884Y319421D01*
Y319004D01*
X208468Y318587D01*
X208051D01*
X208468D01*
X208884Y318171D01*
Y317754D01*
X208468Y317338D01*
X207635D01*
X207218Y317754D01*
X85134Y442314D02*
Y440232D01*
X85550Y439815D01*
X86383D01*
X86800Y440232D01*
Y442314D01*
X89299Y441898D02*
X88883Y442314D01*
X88050D01*
X87633Y441898D01*
Y441481D01*
X88050Y441065D01*
X88883D01*
X89299Y440648D01*
Y440232D01*
X88883Y439815D01*
X88050D01*
X87633Y440232D01*
X90132Y442314D02*
Y439815D01*
X91382D01*
X91798Y440232D01*
Y440648D01*
X91382Y441065D01*
X90132D01*
X91382D01*
X91798Y441481D01*
Y441898D01*
X91382Y442314D01*
X90132D01*
X94298Y441898D02*
X93881Y442314D01*
X93048D01*
X92631Y441898D01*
Y440232D01*
X93048Y439815D01*
X93881D01*
X94298Y440232D01*
Y441065D01*
X93464D01*
X95131Y439815D02*
Y442314D01*
X96797Y439815D01*
Y442314D01*
X97630D02*
Y439815D01*
X98879D01*
X99296Y440232D01*
Y441898D01*
X98879Y442314D01*
X97630D01*
X100129D02*
Y439815D01*
X101379D01*
X101795Y440232D01*
Y440648D01*
X101379Y441065D01*
X100129D01*
X101379D01*
X101795Y441481D01*
Y441898D01*
X101379Y442314D01*
X100129D01*
X152000Y327999D02*
Y325500D01*
X153250D01*
X153666Y325917D01*
Y327583D01*
X153250Y327999D01*
X152000D01*
X156165Y325500D02*
X154499D01*
X156165Y327166D01*
Y327583D01*
X155749Y327999D01*
X154916D01*
X154499Y327583D01*
X290000Y207999D02*
Y207583D01*
X290833Y206750D01*
X291666Y207583D01*
Y207999D01*
X290833Y206750D02*
Y205500D01*
X292499D02*
X293332D01*
X292916D01*
Y207999D01*
X292499Y207583D01*
X525032Y460082D02*
X524199D01*
X524616D01*
Y457999D01*
X524199Y457583D01*
X523783D01*
X523366Y457999D01*
X525865Y459665D02*
X526282Y460082D01*
X527115D01*
X527531Y459665D01*
Y459249D01*
X527115Y458832D01*
X526698D01*
X527115D01*
X527531Y458416D01*
Y457999D01*
X527115Y457583D01*
X526282D01*
X525865Y457999D01*
X177166Y460999D02*
X176333D01*
X176750D01*
Y458917D01*
X176333Y458500D01*
X175917D01*
X175500Y458917D01*
X177999D02*
X178416Y458500D01*
X179249D01*
X179665Y458917D01*
Y460583D01*
X179249Y460999D01*
X178416D01*
X177999Y460583D01*
Y460166D01*
X178416Y459750D01*
X179665D01*
X245417Y452166D02*
X245001Y451750D01*
Y450916D01*
X245417Y450500D01*
X247083D01*
X247500Y450916D01*
Y451750D01*
X247083Y452166D01*
X247500Y452999D02*
Y453832D01*
Y453416D01*
X245001D01*
X245417Y452999D01*
Y455082D02*
X245001Y455498D01*
Y456331D01*
X245417Y456748D01*
X247083D01*
X247500Y456331D01*
Y455498D01*
X247083Y455082D01*
X245417D01*
X247500Y459247D02*
Y457581D01*
X245834Y459247D01*
X245417D01*
X245001Y458831D01*
Y457998D01*
X245417Y457581D01*
X273500Y291500D02*
Y293999D01*
X274750D01*
X275166Y293583D01*
Y292750D01*
X274750Y292333D01*
X273500D01*
X274333D02*
X275166Y291500D01*
X275999D02*
X276832D01*
X276416D01*
Y293999D01*
X275999Y293583D01*
X278082D02*
X278498Y293999D01*
X279331D01*
X279748Y293583D01*
Y291916D01*
X279331Y291500D01*
X278498D01*
X278082Y291916D01*
Y293583D01*
X302300Y293299D02*
Y290800D01*
X303550D01*
X303966Y291216D01*
Y292883D01*
X303550Y293299D01*
X302300D01*
X304799Y292883D02*
X305216Y293299D01*
X306049D01*
X306465Y292883D01*
Y292466D01*
X306049Y292050D01*
X305632D01*
X306049D01*
X306465Y291633D01*
Y291216D01*
X306049Y290800D01*
X305216D01*
X304799Y291216D01*
X307298Y290800D02*
X308131D01*
X307715D01*
Y293299D01*
X307298Y292883D01*
X281417Y322166D02*
X281001Y321750D01*
Y320917D01*
X281417Y320500D01*
X283084D01*
X283500Y320917D01*
Y321750D01*
X283084Y322166D01*
X283500Y322999D02*
Y323832D01*
Y323416D01*
X281001D01*
X281417Y322999D01*
Y325082D02*
X281001Y325498D01*
Y326331D01*
X281417Y326748D01*
X283084D01*
X283500Y326331D01*
Y325498D01*
X283084Y325082D01*
X281417D01*
X283500Y327581D02*
Y328414D01*
Y327998D01*
X281001D01*
X281417Y327581D01*
X303400Y193700D02*
Y196199D01*
X304650D01*
X305066Y195783D01*
Y194950D01*
X304650Y194533D01*
X303400D01*
X304233D02*
X305066Y193700D01*
X305899D02*
X306732D01*
X306316D01*
Y196199D01*
X305899Y195783D01*
X309648Y196199D02*
X308815Y195783D01*
X307982Y194950D01*
Y194116D01*
X308398Y193700D01*
X309231D01*
X309648Y194116D01*
Y194533D01*
X309231Y194950D01*
X307982D01*
X245900Y353900D02*
X243401D01*
Y355150D01*
X243817Y355566D01*
X244650D01*
X245067Y355150D01*
Y353900D01*
Y354733D02*
X245900Y355566D01*
Y356399D02*
Y357232D01*
Y356816D01*
X243401D01*
X243817Y356399D01*
X243401Y360148D02*
Y358482D01*
X244650D01*
X244234Y359315D01*
Y359731D01*
X244650Y360148D01*
X245483D01*
X245900Y359731D01*
Y358898D01*
X245483Y358482D01*
X417466Y200783D02*
X417050Y201199D01*
X416217D01*
X415800Y200783D01*
Y199117D01*
X416217Y198700D01*
X417050D01*
X417466Y199117D01*
X419965Y198700D02*
X418299D01*
X419965Y200366D01*
Y200783D01*
X419549Y201199D01*
X418716D01*
X418299Y200783D01*
X420798Y198700D02*
X421631D01*
X421215D01*
Y201199D01*
X420798Y200783D01*
X422881Y201199D02*
Y198700D01*
X424131D01*
X424547Y199117D01*
Y200783D01*
X424131Y201199D01*
X422881D01*
X417666Y267783D02*
X417250Y268199D01*
X416417D01*
X416000Y267783D01*
Y266116D01*
X416417Y265700D01*
X417250D01*
X417666Y266116D01*
X420165Y265700D02*
X418499D01*
X420165Y267366D01*
Y267783D01*
X419749Y268199D01*
X418916D01*
X418499Y267783D01*
X420998Y265700D02*
X421831D01*
X421415D01*
Y268199D01*
X420998Y267783D01*
X424747D02*
X424331Y268199D01*
X423498D01*
X423081Y267783D01*
Y266116D01*
X423498Y265700D01*
X424331D01*
X424747Y266116D01*
X417766Y333683D02*
X417350Y334099D01*
X416516D01*
X416100Y333683D01*
Y332016D01*
X416516Y331600D01*
X417350D01*
X417766Y332016D01*
X420265Y331600D02*
X418599D01*
X420265Y333266D01*
Y333683D01*
X419849Y334099D01*
X419016D01*
X418599Y333683D01*
X421098Y331600D02*
X421931D01*
X421515D01*
Y334099D01*
X421098Y333683D01*
X423181Y334099D02*
Y331600D01*
X424431D01*
X424847Y332016D01*
Y332433D01*
X424431Y332850D01*
X423181D01*
X424431D01*
X424847Y333266D01*
Y333683D01*
X424431Y334099D01*
X423181D01*
X418166Y400583D02*
X417750Y400999D01*
X416917D01*
X416500Y400583D01*
Y398917D01*
X416917Y398500D01*
X417750D01*
X418166Y398917D01*
X420665Y398500D02*
X418999D01*
X420665Y400166D01*
Y400583D01*
X420249Y400999D01*
X419416D01*
X418999Y400583D01*
X421498Y398500D02*
X422331D01*
X421915D01*
Y400999D01*
X421498Y400583D01*
X423581Y398500D02*
Y400166D01*
X424414Y400999D01*
X425247Y400166D01*
Y398500D01*
Y399750D01*
X423581D01*
X417124Y252541D02*
X416708Y252957D01*
X415875D01*
X415458Y252541D01*
Y250875D01*
X415875Y250458D01*
X416708D01*
X417124Y250875D01*
X419624Y250458D02*
X417957D01*
X419624Y252124D01*
Y252541D01*
X419207Y252957D01*
X418374D01*
X417957Y252541D01*
X420457D02*
X420873Y252957D01*
X421706D01*
X422123Y252541D01*
Y250875D01*
X421706Y250458D01*
X420873D01*
X420457Y250875D01*
Y252541D01*
X422956Y252957D02*
Y250458D01*
X424205D01*
X424622Y250875D01*
Y252541D01*
X424205Y252957D01*
X422956D01*
X417766Y316283D02*
X417350Y316699D01*
X416516D01*
X416100Y316283D01*
Y314616D01*
X416516Y314200D01*
X417350D01*
X417766Y314616D01*
X420265Y314200D02*
X418599D01*
X420265Y315866D01*
Y316283D01*
X419849Y316699D01*
X419016D01*
X418599Y316283D01*
X421098D02*
X421515Y316699D01*
X422348D01*
X422764Y316283D01*
Y314616D01*
X422348Y314200D01*
X421515D01*
X421098Y314616D01*
Y316283D01*
X425264D02*
X424847Y316699D01*
X424014D01*
X423598Y316283D01*
Y314616D01*
X424014Y314200D01*
X424847D01*
X425264Y314616D01*
X418366Y382883D02*
X417950Y383299D01*
X417116D01*
X416700Y382883D01*
Y381217D01*
X417116Y380800D01*
X417950D01*
X418366Y381217D01*
X420865Y380800D02*
X419199D01*
X420865Y382466D01*
Y382883D01*
X420449Y383299D01*
X419616D01*
X419199Y382883D01*
X421698D02*
X422115Y383299D01*
X422948D01*
X423364Y382883D01*
Y381217D01*
X422948Y380800D01*
X422115D01*
X421698Y381217D01*
Y382883D01*
X424198Y383299D02*
Y380800D01*
X425447D01*
X425864Y381217D01*
Y381633D01*
X425447Y382050D01*
X424198D01*
X425447D01*
X425864Y382466D01*
Y382883D01*
X425447Y383299D01*
X424198D01*
X417966Y454683D02*
X417550Y455099D01*
X416716D01*
X416300Y454683D01*
Y453017D01*
X416716Y452600D01*
X417550D01*
X417966Y453017D01*
X420465Y452600D02*
X418799D01*
X420465Y454266D01*
Y454683D01*
X420049Y455099D01*
X419216D01*
X418799Y454683D01*
X421298D02*
X421715Y455099D01*
X422548D01*
X422964Y454683D01*
Y453017D01*
X422548Y452600D01*
X421715D01*
X421298Y453017D01*
Y454683D01*
X423798Y452600D02*
Y454266D01*
X424631Y455099D01*
X425464Y454266D01*
Y452600D01*
Y453850D01*
X423798D01*
X387228Y284839D02*
X386812Y284423D01*
Y283590D01*
X387228Y283173D01*
X388895D01*
X389311Y283590D01*
Y284423D01*
X388895Y284839D01*
X389311Y285672D02*
Y286506D01*
Y286089D01*
X386812D01*
X387228Y285672D01*
X389311Y289421D02*
Y287755D01*
X387645Y289421D01*
X387228D01*
X386812Y289005D01*
Y288172D01*
X387228Y287755D01*
Y291920D02*
X386812Y291504D01*
Y290671D01*
X387228Y290254D01*
X388895D01*
X389311Y290671D01*
Y291504D01*
X388895Y291920D01*
X251911Y235437D02*
Y237936D01*
X253161D01*
X253577Y237520D01*
Y236687D01*
X253161Y236270D01*
X251911D01*
X252744D02*
X253577Y235437D01*
X254410D02*
X255243D01*
X254827D01*
Y237936D01*
X254410Y237520D01*
X257743Y235437D02*
Y237936D01*
X256493Y236687D01*
X258159D01*
X289600Y280700D02*
Y283199D01*
X290850D01*
X291266Y282783D01*
Y281950D01*
X290850Y281533D01*
X289600D01*
X290433D02*
X291266Y280700D01*
X292099D02*
X292932D01*
X292516D01*
Y283199D01*
X292099Y282783D01*
X294182D02*
X294598Y283199D01*
X295431D01*
X295848Y282783D01*
Y282366D01*
X295431Y281950D01*
X295015D01*
X295431D01*
X295848Y281533D01*
Y281117D01*
X295431Y280700D01*
X294598D01*
X294182Y281117D01*
X217001Y191500D02*
X219500D01*
Y192750D01*
X219083Y193166D01*
X217417D01*
X217001Y192750D01*
Y191500D01*
X219500Y193999D02*
Y194832D01*
Y194416D01*
X217001D01*
X217417Y193999D01*
X217001Y197748D02*
X217417Y196915D01*
X218250Y196082D01*
X219083D01*
X219500Y196498D01*
Y197331D01*
X219083Y197748D01*
X218667D01*
X218250Y197331D01*
Y196082D01*
X221001Y191500D02*
X223500D01*
Y192750D01*
X223083Y193166D01*
X221417D01*
X221001Y192750D01*
Y191500D01*
X223500Y193999D02*
Y194832D01*
Y194416D01*
X221001D01*
X221417Y193999D01*
X221001Y197748D02*
Y196082D01*
X222250D01*
X221834Y196915D01*
Y197331D01*
X222250Y197748D01*
X223083D01*
X223500Y197331D01*
Y196498D01*
X223083Y196082D01*
X225001Y191500D02*
X227500D01*
Y192750D01*
X227083Y193166D01*
X225417D01*
X225001Y192750D01*
Y191500D01*
X227500Y193999D02*
Y194832D01*
Y194416D01*
X225001D01*
X225417Y193999D01*
X227500Y197331D02*
X225001D01*
X226250Y196082D01*
Y197748D01*
X229001Y191500D02*
X231500D01*
Y192750D01*
X231083Y193166D01*
X229417D01*
X229001Y192750D01*
Y191500D01*
X231500Y193999D02*
Y194832D01*
Y194416D01*
X229001D01*
X229417Y193999D01*
Y196082D02*
X229001Y196498D01*
Y197331D01*
X229417Y197748D01*
X229834D01*
X230250Y197331D01*
Y196915D01*
Y197331D01*
X230667Y197748D01*
X231083D01*
X231500Y197331D01*
Y196498D01*
X231083Y196082D01*
X233001Y191500D02*
X235500D01*
Y192750D01*
X235084Y193166D01*
X233417D01*
X233001Y192750D01*
Y191500D01*
X235500Y193999D02*
Y194832D01*
Y194416D01*
X233001D01*
X233417Y193999D01*
X235500Y197748D02*
Y196082D01*
X233834Y197748D01*
X233417D01*
X233001Y197331D01*
Y196498D01*
X233417Y196082D01*
X251244Y435078D02*
Y432995D01*
X251661Y432579D01*
X252494D01*
X252910Y432995D01*
Y435078D01*
X253743Y432579D02*
X254576D01*
X254160D01*
Y435078D01*
X253743Y434661D01*
X257076Y432579D02*
Y435078D01*
X255826Y433828D01*
X257492D01*
X264000Y246499D02*
Y244000D01*
X265250D01*
X265666Y244416D01*
Y246083D01*
X265250Y246499D01*
X264000D01*
X266499Y244000D02*
X267332D01*
X266916D01*
Y246499D01*
X266499Y246083D01*
X268582Y244416D02*
X268998Y244000D01*
X269831D01*
X270248Y244416D01*
Y246083D01*
X269831Y246499D01*
X268998D01*
X268582Y246083D01*
Y245666D01*
X268998Y245250D01*
X270248D01*
X256166Y211583D02*
X255750Y211999D01*
X254917D01*
X254500Y211583D01*
Y209916D01*
X254917Y209500D01*
X255750D01*
X256166Y209916D01*
X256999Y211999D02*
X258665D01*
Y211583D01*
X256999Y209916D01*
Y209500D01*
X259498Y209916D02*
X259915Y209500D01*
X260748D01*
X261164Y209916D01*
Y211583D01*
X260748Y211999D01*
X259915D01*
X259498Y211583D01*
Y211166D01*
X259915Y210750D01*
X261164D01*
X277166Y252583D02*
X276750Y252999D01*
X275917D01*
X275500Y252583D01*
Y250917D01*
X275917Y250500D01*
X276750D01*
X277166Y250917D01*
X277999Y252999D02*
X279665D01*
Y252583D01*
X277999Y250917D01*
Y250500D01*
X280498Y252583D02*
X280915Y252999D01*
X281748D01*
X282165Y252583D01*
Y252166D01*
X281748Y251750D01*
X282165Y251333D01*
Y250917D01*
X281748Y250500D01*
X280915D01*
X280498Y250917D01*
Y251333D01*
X280915Y251750D01*
X280498Y252166D01*
Y252583D01*
X280915Y251750D02*
X281748D01*
X236500Y211750D02*
X238166D01*
X237333Y212583D02*
Y210916D01*
X240665Y210500D02*
X238999D01*
X240665Y212166D01*
Y212583D01*
X240249Y212999D01*
X239416D01*
X238999Y212583D01*
X241498Y210500D02*
Y210916D01*
X241915D01*
Y210500D01*
X241498D01*
X245247Y212999D02*
X243581D01*
Y211750D01*
X244414Y212166D01*
X244831D01*
X245247Y211750D01*
Y210916D01*
X244831Y210500D01*
X243998D01*
X243581Y210916D01*
X246080Y212999D02*
Y211333D01*
X246913Y210500D01*
X247746Y211333D01*
Y212999D01*
X177693Y271056D02*
X179359D01*
X178526Y271889D02*
Y270223D01*
X181858Y272305D02*
X180192D01*
Y271056D01*
X181025Y271472D01*
X181442D01*
X181858Y271056D01*
Y270223D01*
X181442Y269806D01*
X180609D01*
X180192Y270223D01*
X182691Y272305D02*
Y270639D01*
X183524Y269806D01*
X184357Y270639D01*
Y272305D01*
X185190Y269806D02*
Y272305D01*
X186857Y269806D01*
Y272305D01*
X188939D02*
X188106D01*
X187690Y271889D01*
Y270223D01*
X188106Y269806D01*
X188939D01*
X189356Y270223D01*
Y271889D01*
X188939Y272305D01*
X190189Y269806D02*
Y272305D01*
X191022Y271472D01*
X191855Y272305D01*
Y269806D01*
X192500Y247250D02*
X194166D01*
X196665Y246000D02*
X194999D01*
X196665Y247666D01*
Y248083D01*
X196249Y248499D01*
X195416D01*
X194999Y248083D01*
X197498Y246000D02*
Y246416D01*
X197915D01*
Y246000D01*
X197498D01*
X201247Y248499D02*
X199581D01*
Y247250D01*
X200414Y247666D01*
X200831D01*
X201247Y247250D01*
Y246416D01*
X200831Y246000D01*
X199998D01*
X199581Y246416D01*
X202080Y248499D02*
Y246833D01*
X202913Y246000D01*
X203746Y246833D01*
Y248499D01*
X236066Y263500D02*
X234400D01*
X236066Y265166D01*
Y265583D01*
X235650Y265999D01*
X234817D01*
X234400Y265583D01*
X236899Y263500D02*
Y263916D01*
X237316D01*
Y263500D01*
X236899D01*
X240648Y265999D02*
X238982D01*
Y264750D01*
X239815Y265166D01*
X240231D01*
X240648Y264750D01*
Y263916D01*
X240231Y263500D01*
X239398D01*
X238982Y263916D01*
X241481Y265999D02*
Y264333D01*
X242314Y263500D01*
X243147Y264333D01*
Y265999D01*
X243980Y263500D02*
Y265999D01*
X245230D01*
X245646Y265583D01*
Y264750D01*
X245230Y264333D01*
X243980D01*
X244813D02*
X245646Y263500D01*
X391165Y439367D02*
X390749Y438950D01*
Y438117D01*
X391165Y437701D01*
X392831D01*
X393248Y438117D01*
Y438950D01*
X392831Y439367D01*
X390749Y441866D02*
Y440200D01*
X391998D01*
X391582Y441033D01*
Y441450D01*
X391998Y441866D01*
X392831D01*
X393248Y441450D01*
Y440617D01*
X392831Y440200D01*
X393248Y442699D02*
X391582D01*
X390749Y443532D01*
X391582Y444365D01*
X393248D01*
X391998D01*
Y442699D01*
X392150Y372438D02*
X391733Y372021D01*
Y371188D01*
X392150Y370772D01*
X393816D01*
X394232Y371188D01*
Y372021D01*
X393816Y372438D01*
X391733Y374937D02*
Y373271D01*
X392983D01*
X392566Y374104D01*
Y374520D01*
X392983Y374937D01*
X393816D01*
X394232Y374520D01*
Y373687D01*
X393816Y373271D01*
X391733Y375770D02*
X394232D01*
Y377020D01*
X393816Y377436D01*
X393399D01*
X392983Y377020D01*
Y375770D01*
Y377020D01*
X392566Y377436D01*
X392150D01*
X391733Y377020D01*
Y375770D01*
X392150Y305509D02*
X391733Y305092D01*
Y304259D01*
X392150Y303842D01*
X393816D01*
X394232Y304259D01*
Y305092D01*
X393816Y305509D01*
X391733Y308008D02*
Y306342D01*
X392983D01*
X392566Y307175D01*
Y307591D01*
X392983Y308008D01*
X393816D01*
X394232Y307591D01*
Y306758D01*
X393816Y306342D01*
X392150Y310507D02*
X391733Y310090D01*
Y309257D01*
X392150Y308841D01*
X393816D01*
X394232Y309257D01*
Y310090D01*
X393816Y310507D01*
X392150Y238580D02*
X391733Y238163D01*
Y237330D01*
X392150Y236913D01*
X393816D01*
X394232Y237330D01*
Y238163D01*
X393816Y238580D01*
X391733Y241079D02*
Y239413D01*
X392983D01*
X392566Y240246D01*
Y240662D01*
X392983Y241079D01*
X393816D01*
X394232Y240662D01*
Y239829D01*
X393816Y239413D01*
X391733Y241912D02*
X394232D01*
Y243161D01*
X393816Y243578D01*
X392150D01*
X391733Y243161D01*
Y241912D01*
X409866Y417713D02*
X409450Y417297D01*
Y416464D01*
X409866Y416047D01*
X411532D01*
X411949Y416464D01*
Y417297D01*
X411532Y417713D01*
X409450Y420213D02*
X409866Y419380D01*
X410699Y418546D01*
X411532D01*
X411949Y418963D01*
Y419796D01*
X411532Y420213D01*
X411116D01*
X410699Y419796D01*
Y418546D01*
X411949Y421046D02*
X410283D01*
X409450Y421879D01*
X410283Y422712D01*
X411949D01*
X410699D01*
Y421046D01*
X408882Y350784D02*
X408465Y350368D01*
Y349535D01*
X408882Y349118D01*
X410548D01*
X410965Y349535D01*
Y350368D01*
X410548Y350784D01*
X408465Y353283D02*
X408882Y352450D01*
X409715Y351617D01*
X410548D01*
X410965Y352034D01*
Y352867D01*
X410548Y353283D01*
X410132D01*
X409715Y352867D01*
Y351617D01*
X408465Y354117D02*
X410965D01*
Y355366D01*
X410548Y355783D01*
X410132D01*
X409715Y355366D01*
Y354117D01*
Y355366D01*
X409298Y355783D01*
X408882D01*
X408465Y355366D01*
Y354117D01*
X408882Y284839D02*
X408465Y284423D01*
Y283590D01*
X408882Y283173D01*
X410548D01*
X410965Y283590D01*
Y284423D01*
X410548Y284839D01*
X408465Y287338D02*
X408882Y286506D01*
X409715Y285672D01*
X410548D01*
X410965Y286089D01*
Y286922D01*
X410548Y287338D01*
X410132D01*
X409715Y286922D01*
Y285672D01*
X408882Y289838D02*
X408465Y289421D01*
Y288588D01*
X408882Y288172D01*
X410548D01*
X410965Y288588D01*
Y289421D01*
X410548Y289838D01*
X408882Y217910D02*
X408465Y217494D01*
Y216661D01*
X408882Y216244D01*
X410548D01*
X410965Y216661D01*
Y217494D01*
X410548Y217910D01*
X408465Y220409D02*
X408882Y219576D01*
X409715Y218743D01*
X410548D01*
X410965Y219160D01*
Y219993D01*
X410548Y220409D01*
X410132D01*
X409715Y219993D01*
Y218743D01*
X408465Y221242D02*
X410965D01*
Y222492D01*
X410548Y222909D01*
X408882D01*
X408465Y222492D01*
Y221242D01*
X399039Y439367D02*
X398623Y438950D01*
Y438117D01*
X399039Y437701D01*
X400705D01*
X401122Y438117D01*
Y438950D01*
X400705Y439367D01*
X398623Y440200D02*
Y441866D01*
X399039D01*
X400705Y440200D01*
X401122D01*
Y442699D02*
X399456D01*
X398623Y443532D01*
X399456Y444365D01*
X401122D01*
X399872D01*
Y442699D01*
X400024Y372438D02*
X399607Y372021D01*
Y371188D01*
X400024Y370772D01*
X401690D01*
X402106Y371188D01*
Y372021D01*
X401690Y372438D01*
X399607Y373271D02*
Y374937D01*
X400024D01*
X401690Y373271D01*
X402106D01*
X399607Y375770D02*
X402106D01*
Y377020D01*
X401690Y377436D01*
X401273D01*
X400857Y377020D01*
Y375770D01*
Y377020D01*
X400440Y377436D01*
X400024D01*
X399607Y377020D01*
Y375770D01*
X400024Y305509D02*
X399607Y305092D01*
Y304259D01*
X400024Y303842D01*
X401690D01*
X402106Y304259D01*
Y305092D01*
X401690Y305509D01*
X399607Y306342D02*
Y308008D01*
X400024D01*
X401690Y306342D01*
X402106D01*
X400024Y310507D02*
X399607Y310090D01*
Y309257D01*
X400024Y308841D01*
X401690D01*
X402106Y309257D01*
Y310090D01*
X401690Y310507D01*
X400024Y238580D02*
X399607Y238163D01*
Y237330D01*
X400024Y236913D01*
X401690D01*
X402106Y237330D01*
Y238163D01*
X401690Y238580D01*
X399607Y239413D02*
Y241079D01*
X400024D01*
X401690Y239413D01*
X402106D01*
X399607Y241912D02*
X402106D01*
Y243161D01*
X401690Y243578D01*
X400024D01*
X399607Y243161D01*
Y241912D01*
X404945Y417713D02*
X404528Y417297D01*
Y416464D01*
X404945Y416047D01*
X406611D01*
X407028Y416464D01*
Y417297D01*
X406611Y417713D01*
X404945Y418546D02*
X404528Y418963D01*
Y419796D01*
X404945Y420213D01*
X405361D01*
X405778Y419796D01*
X406194Y420213D01*
X406611D01*
X407028Y419796D01*
Y418963D01*
X406611Y418546D01*
X406194D01*
X405778Y418963D01*
X405361Y418546D01*
X404945D01*
X405778Y418963D02*
Y419796D01*
X407028Y421046D02*
X405361D01*
X404528Y421879D01*
X405361Y422712D01*
X407028D01*
X405778D01*
Y421046D01*
X404945Y350784D02*
X404528Y350368D01*
Y349535D01*
X404945Y349118D01*
X406611D01*
X407028Y349535D01*
Y350368D01*
X406611Y350784D01*
X404945Y351617D02*
X404528Y352034D01*
Y352867D01*
X404945Y353283D01*
X405361D01*
X405778Y352867D01*
X406194Y353283D01*
X406611D01*
X407028Y352867D01*
Y352034D01*
X406611Y351617D01*
X406194D01*
X405778Y352034D01*
X405361Y351617D01*
X404945D01*
X405778Y352034D02*
Y352867D01*
X404528Y354117D02*
X407028D01*
Y355366D01*
X406611Y355783D01*
X406194D01*
X405778Y355366D01*
Y354117D01*
Y355366D01*
X405361Y355783D01*
X404945D01*
X404528Y355366D01*
Y354117D01*
X404945Y284839D02*
X404528Y284423D01*
Y283590D01*
X404945Y283173D01*
X406611D01*
X407028Y283590D01*
Y284423D01*
X406611Y284839D01*
X404945Y285672D02*
X404528Y286089D01*
Y286922D01*
X404945Y287338D01*
X405361D01*
X405778Y286922D01*
X406194Y287338D01*
X406611D01*
X407028Y286922D01*
Y286089D01*
X406611Y285672D01*
X406194D01*
X405778Y286089D01*
X405361Y285672D01*
X404945D01*
X405778Y286089D02*
Y286922D01*
X404945Y289838D02*
X404528Y289421D01*
Y288588D01*
X404945Y288172D01*
X406611D01*
X407028Y288588D01*
Y289421D01*
X406611Y289838D01*
X404945Y217910D02*
X404528Y217494D01*
Y216661D01*
X404945Y216244D01*
X406611D01*
X407028Y216661D01*
Y217494D01*
X406611Y217910D01*
X404945Y218743D02*
X404528Y219160D01*
Y219993D01*
X404945Y220409D01*
X405361D01*
X405778Y219993D01*
X406194Y220409D01*
X406611D01*
X407028Y219993D01*
Y219160D01*
X406611Y218743D01*
X406194D01*
X405778Y219160D01*
X405361Y218743D01*
X404945D01*
X405778Y219160D02*
Y219993D01*
X404528Y221242D02*
X407028D01*
Y222492D01*
X406611Y222909D01*
X404945D01*
X404528Y222492D01*
Y221242D01*
X395102Y417713D02*
X394686Y417297D01*
Y416464D01*
X395102Y416047D01*
X396768D01*
X397185Y416464D01*
Y417297D01*
X396768Y417713D01*
X397185Y418546D02*
Y419380D01*
Y418963D01*
X394686D01*
X395102Y418546D01*
Y420629D02*
X394686Y421046D01*
Y421879D01*
X395102Y422295D01*
X396768D01*
X397185Y421879D01*
Y421046D01*
X396768Y420629D01*
X395102D01*
X397185Y423128D02*
X395519D01*
X394686Y423961D01*
X395519Y424794D01*
X397185D01*
X395935D01*
Y423128D01*
X395102Y350784D02*
X394686Y350368D01*
Y349535D01*
X395102Y349118D01*
X396768D01*
X397185Y349535D01*
Y350368D01*
X396768Y350784D01*
X397185Y351617D02*
Y352450D01*
Y352034D01*
X394686D01*
X395102Y351617D01*
Y353700D02*
X394686Y354117D01*
Y354950D01*
X395102Y355366D01*
X396768D01*
X397185Y354950D01*
Y354117D01*
X396768Y353700D01*
X395102D01*
X394686Y356199D02*
X397185D01*
Y357449D01*
X396768Y357865D01*
X396352D01*
X395935Y357449D01*
Y356199D01*
Y357449D01*
X395519Y357865D01*
X395102D01*
X394686Y357449D01*
Y356199D01*
X395102Y284839D02*
X394686Y284423D01*
Y283590D01*
X395102Y283173D01*
X396768D01*
X397185Y283590D01*
Y284423D01*
X396768Y284839D01*
X397185Y285672D02*
Y286506D01*
Y286089D01*
X394686D01*
X395102Y285672D01*
Y287755D02*
X394686Y288172D01*
Y289005D01*
X395102Y289421D01*
X396768D01*
X397185Y289005D01*
Y288172D01*
X396768Y287755D01*
X395102D01*
Y291920D02*
X394686Y291504D01*
Y290671D01*
X395102Y290254D01*
X396768D01*
X397185Y290671D01*
Y291504D01*
X396768Y291920D01*
X395102Y217910D02*
X394686Y217494D01*
Y216661D01*
X395102Y216244D01*
X396768D01*
X397185Y216661D01*
Y217494D01*
X396768Y217910D01*
X397185Y218743D02*
Y219576D01*
Y219160D01*
X394686D01*
X395102Y218743D01*
Y220826D02*
X394686Y221242D01*
Y222076D01*
X395102Y222492D01*
X396768D01*
X397185Y222076D01*
Y221242D01*
X396768Y220826D01*
X395102D01*
X394686Y223325D02*
X397185D01*
Y224575D01*
X396768Y224991D01*
X395102D01*
X394686Y224575D01*
Y223325D01*
X395102Y439367D02*
X394686Y438950D01*
Y438117D01*
X395102Y437701D01*
X396768D01*
X397185Y438117D01*
Y438950D01*
X396768Y439367D01*
X397185Y440200D02*
Y441033D01*
Y440617D01*
X394686D01*
X395102Y440200D01*
X397185Y442283D02*
Y443116D01*
Y442699D01*
X394686D01*
X395102Y442283D01*
X397185Y444365D02*
X395519D01*
X394686Y445198D01*
X395519Y446031D01*
X397185D01*
X395935D01*
Y444365D01*
X396087Y372438D02*
X395670Y372021D01*
Y371188D01*
X396087Y370772D01*
X397753D01*
X398169Y371188D01*
Y372021D01*
X397753Y372438D01*
X398169Y373271D02*
Y374104D01*
Y373687D01*
X395670D01*
X396087Y373271D01*
X398169Y375354D02*
Y376187D01*
Y375770D01*
X395670D01*
X396087Y375354D01*
X395670Y377436D02*
X398169D01*
Y378686D01*
X397753Y379102D01*
X397336D01*
X396920Y378686D01*
Y377436D01*
Y378686D01*
X396503Y379102D01*
X396087D01*
X395670Y378686D01*
Y377436D01*
X396087Y305509D02*
X395670Y305092D01*
Y304259D01*
X396087Y303842D01*
X397753D01*
X398169Y304259D01*
Y305092D01*
X397753Y305509D01*
X398169Y306342D02*
Y307175D01*
Y306758D01*
X395670D01*
X396087Y306342D01*
X398169Y308424D02*
Y309257D01*
Y308841D01*
X395670D01*
X396087Y308424D01*
Y312173D02*
X395670Y311757D01*
Y310924D01*
X396087Y310507D01*
X397753D01*
X398169Y310924D01*
Y311757D01*
X397753Y312173D01*
X396087Y238580D02*
X395670Y238163D01*
Y237330D01*
X396087Y236913D01*
X397753D01*
X398169Y237330D01*
Y238163D01*
X397753Y238580D01*
X398169Y239413D02*
Y240246D01*
Y239829D01*
X395670D01*
X396087Y239413D01*
X398169Y241495D02*
Y242328D01*
Y241912D01*
X395670D01*
X396087Y241495D01*
X395670Y243578D02*
X398169D01*
Y244828D01*
X397753Y245244D01*
X396087D01*
X395670Y244828D01*
Y243578D01*
X387228Y417713D02*
X386812Y417297D01*
Y416464D01*
X387228Y416047D01*
X388895D01*
X389311Y416464D01*
Y417297D01*
X388895Y417713D01*
X389311Y418546D02*
Y419380D01*
Y418963D01*
X386812D01*
X387228Y418546D01*
X389311Y422295D02*
Y420629D01*
X387645Y422295D01*
X387228D01*
X386812Y421879D01*
Y421046D01*
X387228Y420629D01*
X389311Y423128D02*
X387645D01*
X386812Y423961D01*
X387645Y424794D01*
X389311D01*
X388061D01*
Y423128D01*
X387228Y350784D02*
X386812Y350368D01*
Y349535D01*
X387228Y349118D01*
X388895D01*
X389311Y349535D01*
Y350368D01*
X388895Y350784D01*
X389311Y351617D02*
Y352450D01*
Y352034D01*
X386812D01*
X387228Y351617D01*
X389311Y355366D02*
Y353700D01*
X387645Y355366D01*
X387228D01*
X386812Y354950D01*
Y354117D01*
X387228Y353700D01*
X386812Y356199D02*
X389311D01*
Y357449D01*
X388895Y357865D01*
X388478D01*
X388061Y357449D01*
Y356199D01*
Y357449D01*
X387645Y357865D01*
X387228D01*
X386812Y357449D01*
Y356199D01*
X387228Y217910D02*
X386812Y217494D01*
Y216661D01*
X387228Y216244D01*
X388895D01*
X389311Y216661D01*
Y217494D01*
X388895Y217910D01*
X389311Y218743D02*
Y219576D01*
Y219160D01*
X386812D01*
X387228Y218743D01*
X389311Y222492D02*
Y220826D01*
X387645Y222492D01*
X387228D01*
X386812Y222076D01*
Y221242D01*
X387228Y220826D01*
X386812Y223325D02*
X389311D01*
Y224575D01*
X388895Y224991D01*
X387228D01*
X386812Y224575D01*
Y223325D01*
X387228Y439367D02*
X386812Y438950D01*
Y438117D01*
X387228Y437701D01*
X388895D01*
X389311Y438117D01*
Y438950D01*
X388895Y439367D01*
X389311Y440200D02*
Y441033D01*
Y440617D01*
X386812D01*
X387228Y440200D01*
Y442283D02*
X386812Y442699D01*
Y443532D01*
X387228Y443949D01*
X387645D01*
X388061Y443532D01*
Y443116D01*
Y443532D01*
X388478Y443949D01*
X388895D01*
X389311Y443532D01*
Y442699D01*
X388895Y442283D01*
X389311Y444782D02*
X387645D01*
X386812Y445615D01*
X387645Y446448D01*
X389311D01*
X388061D01*
Y444782D01*
X388213Y372438D02*
X387796Y372021D01*
Y371188D01*
X388213Y370772D01*
X389879D01*
X390295Y371188D01*
Y372021D01*
X389879Y372438D01*
X390295Y373271D02*
Y374104D01*
Y373687D01*
X387796D01*
X388213Y373271D01*
Y375354D02*
X387796Y375770D01*
Y376603D01*
X388213Y377020D01*
X388629D01*
X389046Y376603D01*
Y376187D01*
Y376603D01*
X389462Y377020D01*
X389879D01*
X390295Y376603D01*
Y375770D01*
X389879Y375354D01*
X387796Y377853D02*
X390295D01*
Y379102D01*
X389879Y379519D01*
X389462D01*
X389046Y379102D01*
Y377853D01*
Y379102D01*
X388629Y379519D01*
X388213D01*
X387796Y379102D01*
Y377853D01*
X388213Y305509D02*
X387796Y305092D01*
Y304259D01*
X388213Y303842D01*
X389879D01*
X390295Y304259D01*
Y305092D01*
X389879Y305509D01*
X390295Y306342D02*
Y307175D01*
Y306758D01*
X387796D01*
X388213Y306342D01*
Y308424D02*
X387796Y308841D01*
Y309674D01*
X388213Y310090D01*
X388629D01*
X389046Y309674D01*
Y309257D01*
Y309674D01*
X389462Y310090D01*
X389879D01*
X390295Y309674D01*
Y308841D01*
X389879Y308424D01*
X388213Y312590D02*
X387796Y312173D01*
Y311340D01*
X388213Y310924D01*
X389879D01*
X390295Y311340D01*
Y312173D01*
X389879Y312590D01*
X388213Y238580D02*
X387796Y238163D01*
Y237330D01*
X388213Y236913D01*
X389879D01*
X390295Y237330D01*
Y238163D01*
X389879Y238580D01*
X390295Y239413D02*
Y240246D01*
Y239829D01*
X387796D01*
X388213Y239413D01*
Y241495D02*
X387796Y241912D01*
Y242745D01*
X388213Y243161D01*
X388629D01*
X389046Y242745D01*
Y242328D01*
Y242745D01*
X389462Y243161D01*
X389879D01*
X390295Y242745D01*
Y241912D01*
X389879Y241495D01*
X387796Y243994D02*
X390295D01*
Y245244D01*
X389879Y245661D01*
X388213D01*
X387796Y245244D01*
Y243994D01*
X383291Y439367D02*
X382875Y438950D01*
Y438117D01*
X383291Y437701D01*
X384958D01*
X385374Y438117D01*
Y438950D01*
X384958Y439367D01*
X385374Y440200D02*
Y441033D01*
Y440617D01*
X382875D01*
X383291Y440200D01*
X385374Y443532D02*
X382875D01*
X384124Y442283D01*
Y443949D01*
X385374Y444782D02*
X383708D01*
X382875Y445615D01*
X383708Y446448D01*
X385374D01*
X384124D01*
Y444782D01*
X384276Y372438D02*
X383859Y372021D01*
Y371188D01*
X384276Y370772D01*
X385942D01*
X386358Y371188D01*
Y372021D01*
X385942Y372438D01*
X386358Y373271D02*
Y374104D01*
Y373687D01*
X383859D01*
X384276Y373271D01*
X386358Y376603D02*
X383859D01*
X385109Y375354D01*
Y377020D01*
X383859Y377853D02*
X386358D01*
Y379102D01*
X385942Y379519D01*
X385525D01*
X385109Y379102D01*
Y377853D01*
Y379102D01*
X384692Y379519D01*
X384276D01*
X383859Y379102D01*
Y377853D01*
X384276Y305509D02*
X383859Y305092D01*
Y304259D01*
X384276Y303842D01*
X385942D01*
X386358Y304259D01*
Y305092D01*
X385942Y305509D01*
X386358Y306342D02*
Y307175D01*
Y306758D01*
X383859D01*
X384276Y306342D01*
X386358Y309674D02*
X383859D01*
X385109Y308424D01*
Y310090D01*
X384276Y312590D02*
X383859Y312173D01*
Y311340D01*
X384276Y310924D01*
X385942D01*
X386358Y311340D01*
Y312173D01*
X385942Y312590D01*
X384276Y238580D02*
X383859Y238163D01*
Y237330D01*
X384276Y236913D01*
X385942D01*
X386358Y237330D01*
Y238163D01*
X385942Y238580D01*
X386358Y239413D02*
Y240246D01*
Y239829D01*
X383859D01*
X384276Y239413D01*
X386358Y242745D02*
X383859D01*
X385109Y241495D01*
Y243161D01*
X383859Y243994D02*
X386358D01*
Y245244D01*
X385942Y245661D01*
X384276D01*
X383859Y245244D01*
Y243994D01*
X86047Y240548D02*
X85631Y240131D01*
Y239298D01*
X86047Y238882D01*
X87713D01*
X88130Y239298D01*
Y240131D01*
X87713Y240548D01*
X85631Y243047D02*
Y241381D01*
X86880D01*
X86464Y242214D01*
Y242631D01*
X86880Y243047D01*
X87713D01*
X88130Y242631D01*
Y241798D01*
X87713Y241381D01*
X88130Y245130D02*
X85631D01*
X86880Y243880D01*
Y245546D01*
X88130Y246379D02*
X86464D01*
X85631Y247213D01*
X86464Y248046D01*
X88130D01*
X86880D01*
Y246379D01*
X85917Y371666D02*
X85501Y371250D01*
Y370416D01*
X85917Y370000D01*
X87584D01*
X88000Y370416D01*
Y371250D01*
X87584Y371666D01*
X85501Y374165D02*
Y372499D01*
X86750D01*
X86334Y373332D01*
Y373749D01*
X86750Y374165D01*
X87584D01*
X88000Y373749D01*
Y372916D01*
X87584Y372499D01*
X88000Y376248D02*
X85501D01*
X86750Y374998D01*
Y376664D01*
X85501Y377498D02*
X88000D01*
Y378747D01*
X87584Y379164D01*
X87167D01*
X86750Y378747D01*
Y377498D01*
Y378747D01*
X86334Y379164D01*
X85917D01*
X85501Y378747D01*
Y377498D01*
X61441Y247438D02*
X61024Y247021D01*
Y246188D01*
X61441Y245772D01*
X63107D01*
X63524Y246188D01*
Y247021D01*
X63107Y247438D01*
X61024Y249937D02*
Y248271D01*
X62274D01*
X61857Y249104D01*
Y249520D01*
X62274Y249937D01*
X63107D01*
X63524Y249520D01*
Y248687D01*
X63107Y248271D01*
X61024Y252436D02*
Y250770D01*
X62274D01*
X61857Y251603D01*
Y252020D01*
X62274Y252436D01*
X63107D01*
X63524Y252020D01*
Y251187D01*
X63107Y250770D01*
X63524Y253269D02*
X61857D01*
X61024Y254102D01*
X61857Y254935D01*
X63524D01*
X62274D01*
Y253269D01*
X62417Y379666D02*
X62001Y379250D01*
Y378416D01*
X62417Y378000D01*
X64083D01*
X64500Y378416D01*
Y379250D01*
X64083Y379666D01*
X62001Y382165D02*
Y380499D01*
X63250D01*
X62834Y381332D01*
Y381749D01*
X63250Y382165D01*
X64083D01*
X64500Y381749D01*
Y380916D01*
X64083Y380499D01*
X62001Y384665D02*
Y382998D01*
X63250D01*
X62834Y383831D01*
Y384248D01*
X63250Y384665D01*
X64083D01*
X64500Y384248D01*
Y383415D01*
X64083Y382998D01*
X62001Y385498D02*
X64500D01*
Y386747D01*
X64083Y387164D01*
X63667D01*
X63250Y386747D01*
Y385498D01*
Y386747D01*
X62834Y387164D01*
X62417D01*
X62001Y386747D01*
Y385498D01*
X71417Y264666D02*
X71001Y264250D01*
Y263417D01*
X71417Y263000D01*
X73084D01*
X73500Y263417D01*
Y264250D01*
X73084Y264666D01*
X71001Y267165D02*
Y265499D01*
X72250D01*
X71834Y266332D01*
Y266749D01*
X72250Y267165D01*
X73084D01*
X73500Y266749D01*
Y265916D01*
X73084Y265499D01*
X71001Y269665D02*
X71417Y268831D01*
X72250Y267998D01*
X73084D01*
X73500Y268415D01*
Y269248D01*
X73084Y269665D01*
X72667D01*
X72250Y269248D01*
Y267998D01*
X73500Y270498D02*
X71834D01*
X71001Y271331D01*
X71834Y272164D01*
X73500D01*
X72250D01*
Y270498D01*
X76917Y385666D02*
X76501Y385250D01*
Y384417D01*
X76917Y384000D01*
X78584D01*
X79000Y384417D01*
Y385250D01*
X78584Y385666D01*
X76501Y388165D02*
Y386499D01*
X77750D01*
X77334Y387332D01*
Y387749D01*
X77750Y388165D01*
X78584D01*
X79000Y387749D01*
Y386916D01*
X78584Y386499D01*
X76501Y390665D02*
X76917Y389831D01*
X77750Y388998D01*
X78584D01*
X79000Y389415D01*
Y390248D01*
X78584Y390665D01*
X78167D01*
X77750Y390248D01*
Y388998D01*
X76501Y391498D02*
X79000D01*
Y392747D01*
X78584Y393164D01*
X78167D01*
X77750Y392747D01*
Y391498D01*
Y392747D01*
X77334Y393164D01*
X76917D01*
X76501Y392747D01*
Y391498D01*
X146087Y261217D02*
X145670Y260801D01*
Y259968D01*
X146087Y259551D01*
X147753D01*
X148169Y259968D01*
Y260801D01*
X147753Y261217D01*
X145670Y263717D02*
Y262050D01*
X146920D01*
X146503Y262883D01*
Y263300D01*
X146920Y263717D01*
X147753D01*
X148169Y263300D01*
Y262467D01*
X147753Y262050D01*
X145670Y264550D02*
Y266216D01*
X146087D01*
X147753Y264550D01*
X148169D01*
Y267049D02*
X146503D01*
X145670Y267882D01*
X146503Y268715D01*
X148169D01*
X146920D01*
Y267049D01*
X145917Y393666D02*
X145501Y393250D01*
Y392417D01*
X145917Y392000D01*
X147583D01*
X148000Y392417D01*
Y393250D01*
X147583Y393666D01*
X145501Y396165D02*
Y394499D01*
X146750D01*
X146334Y395332D01*
Y395749D01*
X146750Y396165D01*
X147583D01*
X148000Y395749D01*
Y394916D01*
X147583Y394499D01*
X145501Y396998D02*
Y398664D01*
X145917D01*
X147583Y396998D01*
X148000D01*
X145501Y399498D02*
X148000D01*
Y400747D01*
X147583Y401164D01*
X147167D01*
X146750Y400747D01*
Y399498D01*
Y400747D01*
X146334Y401164D01*
X145917D01*
X145501Y400747D01*
Y399498D01*
X61441Y236611D02*
X61024Y236194D01*
Y235361D01*
X61441Y234945D01*
X63107D01*
X63524Y235361D01*
Y236194D01*
X63107Y236611D01*
X61024Y239110D02*
Y237444D01*
X62274D01*
X61857Y238277D01*
Y238694D01*
X62274Y239110D01*
X63107D01*
X63524Y238694D01*
Y237861D01*
X63107Y237444D01*
X61441Y239943D02*
X61024Y240360D01*
Y241193D01*
X61441Y241609D01*
X61857D01*
X62274Y241193D01*
X62691Y241609D01*
X63107D01*
X63524Y241193D01*
Y240360D01*
X63107Y239943D01*
X62691D01*
X62274Y240360D01*
X61857Y239943D01*
X61441D01*
X62274Y240360D02*
Y241193D01*
X63524Y242442D02*
X61857D01*
X61024Y243275D01*
X61857Y244109D01*
X63524D01*
X62274D01*
Y242442D01*
X62417Y368666D02*
X62001Y368250D01*
Y367417D01*
X62417Y367000D01*
X64083D01*
X64500Y367417D01*
Y368250D01*
X64083Y368666D01*
X62001Y371165D02*
Y369499D01*
X63250D01*
X62834Y370332D01*
Y370749D01*
X63250Y371165D01*
X64083D01*
X64500Y370749D01*
Y369916D01*
X64083Y369499D01*
X62417Y371998D02*
X62001Y372415D01*
Y373248D01*
X62417Y373664D01*
X62834D01*
X63250Y373248D01*
X63667Y373664D01*
X64083D01*
X64500Y373248D01*
Y372415D01*
X64083Y371998D01*
X63667D01*
X63250Y372415D01*
X62834Y371998D01*
X62417D01*
X63250Y372415D02*
Y373248D01*
X62001Y374498D02*
X64500D01*
Y375747D01*
X64083Y376164D01*
X63667D01*
X63250Y375747D01*
Y374498D01*
Y375747D01*
X62834Y376164D01*
X62417D01*
X62001Y375747D01*
Y374498D01*
X110983Y320534D02*
X111399Y320950D01*
Y321783D01*
X110983Y322200D01*
X109317D01*
X108900Y321783D01*
Y320950D01*
X109317Y320534D01*
X111399Y318035D02*
Y319701D01*
X110150D01*
X110566Y318868D01*
Y318451D01*
X110150Y318035D01*
X109317D01*
X108900Y318451D01*
Y319284D01*
X109317Y319701D01*
Y317202D02*
X108900Y316785D01*
Y315952D01*
X109317Y315535D01*
X110983D01*
X111399Y315952D01*
Y316785D01*
X110983Y317202D01*
X110566D01*
X110150Y316785D01*
Y315535D01*
X110983Y310534D02*
X111399Y310950D01*
Y311784D01*
X110983Y312200D01*
X109317D01*
X108900Y311784D01*
Y310950D01*
X109317Y310534D01*
X111399Y308035D02*
X110983Y308868D01*
X110150Y309701D01*
X109317D01*
X108900Y309284D01*
Y308451D01*
X109317Y308035D01*
X109733D01*
X110150Y308451D01*
Y309701D01*
X110983Y307202D02*
X111399Y306785D01*
Y305952D01*
X110983Y305536D01*
X109317D01*
X108900Y305952D01*
Y306785D01*
X109317Y307202D01*
X110983D01*
X189417Y231666D02*
X189001Y231250D01*
Y230416D01*
X189417Y230000D01*
X191084D01*
X191500Y230416D01*
Y231250D01*
X191084Y231666D01*
X189001Y234165D02*
X189417Y233332D01*
X190250Y232499D01*
X191084D01*
X191500Y232916D01*
Y233749D01*
X191084Y234165D01*
X190667D01*
X190250Y233749D01*
Y232499D01*
X191500Y234998D02*
Y235831D01*
Y235415D01*
X189001D01*
X189417Y234998D01*
X284917Y349166D02*
X284501Y348750D01*
Y347917D01*
X284917Y347500D01*
X286583D01*
X287000Y347917D01*
Y348750D01*
X286583Y349166D01*
X284501Y351665D02*
X284917Y350832D01*
X285750Y349999D01*
X286583D01*
X287000Y350416D01*
Y351249D01*
X286583Y351665D01*
X286167D01*
X285750Y351249D01*
Y349999D01*
X284501Y352498D02*
Y354165D01*
X284917D01*
X286583Y352498D01*
X287000D01*
X232417Y211166D02*
X232001Y210750D01*
Y209916D01*
X232417Y209500D01*
X234084D01*
X234500Y209916D01*
Y210750D01*
X234084Y211166D01*
X232001Y211999D02*
Y213665D01*
X232417D01*
X234084Y211999D01*
X234500D01*
Y216164D02*
Y214498D01*
X232834Y216164D01*
X232417D01*
X232001Y215748D01*
Y214915D01*
X232417Y214498D01*
X230666Y243583D02*
X230250Y243999D01*
X229416D01*
X229000Y243583D01*
Y241916D01*
X229416Y241500D01*
X230250D01*
X230666Y241916D01*
X231499Y243999D02*
X233165D01*
Y243583D01*
X231499Y241916D01*
Y241500D01*
X235665Y243999D02*
X233998D01*
Y242750D01*
X234831Y243166D01*
X235248D01*
X235665Y242750D01*
Y241916D01*
X235248Y241500D01*
X234415D01*
X233998Y241916D01*
X204617Y266666D02*
X204201Y266250D01*
Y265417D01*
X204617Y265000D01*
X206283D01*
X206700Y265417D01*
Y266250D01*
X206283Y266666D01*
X204201Y267499D02*
Y269165D01*
X204617D01*
X206283Y267499D01*
X206700D01*
X204201Y271665D02*
X204617Y270831D01*
X205450Y269998D01*
X206283D01*
X206700Y270415D01*
Y271248D01*
X206283Y271665D01*
X205867D01*
X205450Y271248D01*
Y269998D01*
X224017Y266266D02*
X223601Y265850D01*
Y265017D01*
X224017Y264600D01*
X225683D01*
X226100Y265017D01*
Y265850D01*
X225683Y266266D01*
X223601Y267099D02*
Y268765D01*
X224017D01*
X225683Y267099D01*
X226100D01*
X223601Y269598D02*
Y271265D01*
X224017D01*
X225683Y269598D01*
X226100D01*
X307666Y413083D02*
X307250Y413499D01*
X306417D01*
X306000Y413083D01*
Y411416D01*
X306417Y411000D01*
X307250D01*
X307666Y411416D01*
X308499Y413499D02*
Y411000D01*
X310165D01*
X310998Y413499D02*
Y411000D01*
Y411833D01*
X312665Y413499D01*
X311415Y412250D01*
X312665Y411000D01*
X360768Y424452D02*
Y421953D01*
X362017D01*
X362434Y422369D01*
Y424035D01*
X362017Y424452D01*
X360768D01*
X363267Y421953D02*
X364100D01*
X363683D01*
Y424452D01*
X363267Y424035D01*
X365350Y421953D02*
Y423619D01*
X366183Y424452D01*
X367016Y423619D01*
Y421953D01*
Y423202D01*
X365350D01*
X360768Y357523D02*
Y355024D01*
X362017D01*
X362434Y355440D01*
Y357106D01*
X362017Y357523D01*
X360768D01*
X363267Y355024D02*
X364100D01*
X363683D01*
Y357523D01*
X363267Y357106D01*
X365350Y357523D02*
Y355024D01*
X366599D01*
X367016Y355440D01*
Y355857D01*
X366599Y356273D01*
X365350D01*
X366599D01*
X367016Y356690D01*
Y357106D01*
X366599Y357523D01*
X365350D01*
X360768Y290594D02*
Y288094D01*
X362017D01*
X362434Y288511D01*
Y290177D01*
X362017Y290594D01*
X360768D01*
X363267Y288094D02*
X364100D01*
X363683D01*
Y290594D01*
X363267Y290177D01*
X367016D02*
X366599Y290594D01*
X365766D01*
X365350Y290177D01*
Y288511D01*
X365766Y288094D01*
X366599D01*
X367016Y288511D01*
X360768Y224649D02*
Y222150D01*
X362017D01*
X362434Y222566D01*
Y224232D01*
X362017Y224649D01*
X360768D01*
X363267Y222150D02*
X364100D01*
X363683D01*
Y224649D01*
X363267Y224232D01*
X365350Y224649D02*
Y222150D01*
X366599D01*
X367016Y222566D01*
Y224232D01*
X366599Y224649D01*
X365350D01*
X65492Y226617D02*
Y224118D01*
X66742D01*
X67158Y224535D01*
Y226201D01*
X66742Y226617D01*
X65492D01*
X67991Y226201D02*
X68408Y226617D01*
X69241D01*
X69657Y226201D01*
Y225784D01*
X69241Y225368D01*
X69657Y224951D01*
Y224535D01*
X69241Y224118D01*
X68408D01*
X67991Y224535D01*
Y224951D01*
X68408Y225368D01*
X67991Y225784D01*
Y226201D01*
X68408Y225368D02*
X69241D01*
X70490Y224118D02*
Y225784D01*
X71324Y226617D01*
X72157Y225784D01*
Y224118D01*
Y225368D01*
X70490D01*
X66476Y423468D02*
Y420968D01*
X67726D01*
X68142Y421385D01*
Y423051D01*
X67726Y423468D01*
X66476D01*
X68976Y423051D02*
X69392Y423468D01*
X70225D01*
X70642Y423051D01*
Y422635D01*
X70225Y422218D01*
X70642Y421802D01*
Y421385D01*
X70225Y420968D01*
X69392D01*
X68976Y421385D01*
Y421802D01*
X69392Y422218D01*
X68976Y422635D01*
Y423051D01*
X69392Y422218D02*
X70225D01*
X71475Y423468D02*
Y420968D01*
X72724D01*
X73141Y421385D01*
Y421802D01*
X72724Y422218D01*
X71475D01*
X72724D01*
X73141Y422635D01*
Y423051D01*
X72724Y423468D01*
X71475D01*
X66000Y212499D02*
Y210000D01*
X67250D01*
X67666Y210417D01*
Y212083D01*
X67250Y212499D01*
X66000D01*
X68499Y210417D02*
X68916Y210000D01*
X69749D01*
X70165Y210417D01*
Y212083D01*
X69749Y212499D01*
X68916D01*
X68499Y212083D01*
Y211666D01*
X68916Y211250D01*
X70165D01*
X70998Y210000D02*
Y211666D01*
X71831Y212499D01*
X72664Y211666D01*
Y210000D01*
Y211250D01*
X70998D01*
X66000Y408999D02*
Y406500D01*
X67250D01*
X67666Y406917D01*
Y408583D01*
X67250Y408999D01*
X66000D01*
X68499Y406917D02*
X68916Y406500D01*
X69749D01*
X70165Y406917D01*
Y408583D01*
X69749Y408999D01*
X68916D01*
X68499Y408583D01*
Y408166D01*
X68916Y407750D01*
X70165D01*
X70998Y408999D02*
Y406500D01*
X72248D01*
X72664Y406917D01*
Y407333D01*
X72248Y407750D01*
X70998D01*
X72248D01*
X72664Y408166D01*
Y408583D01*
X72248Y408999D01*
X70998D01*
X324086Y416679D02*
Y414180D01*
X325335D01*
X325752Y414596D01*
Y416262D01*
X325335Y416679D01*
X324086D01*
X326585D02*
X327418D01*
X327002D01*
Y414180D01*
X326585D01*
X327418D01*
X329917Y416679D02*
X329084D01*
X328668Y416262D01*
Y414596D01*
X329084Y414180D01*
X329917D01*
X330334Y414596D01*
Y416262D01*
X329917Y416679D01*
X320666Y216083D02*
X320250Y216499D01*
X319416D01*
X319000Y216083D01*
Y214417D01*
X319416Y214000D01*
X320250D01*
X320666Y214417D01*
Y215250D01*
X319833D01*
X321499Y214000D02*
Y216499D01*
X323165Y214000D01*
Y216499D01*
X323998D02*
Y214000D01*
X325248D01*
X325664Y214417D01*
Y216083D01*
X325248Y216499D01*
X323998D01*
X326498Y214000D02*
X327331D01*
X326914D01*
Y216499D01*
X326498Y216083D01*
X282666Y385583D02*
X282250Y385999D01*
X281417D01*
X281000Y385583D01*
Y383916D01*
X281417Y383500D01*
X282250D01*
X282666Y383916D01*
Y384750D01*
X281833D01*
X283499Y383500D02*
Y385999D01*
X285165Y383500D01*
Y385999D01*
X285998D02*
Y383500D01*
X287248D01*
X287665Y383916D01*
Y385583D01*
X287248Y385999D01*
X285998D01*
X290164Y383500D02*
X288498D01*
X290164Y385166D01*
Y385583D01*
X289747Y385999D01*
X288914D01*
X288498Y385583D01*
X440132Y326039D02*
X439716Y326456D01*
X438883D01*
X438466Y326039D01*
Y324373D01*
X438883Y323957D01*
X439716D01*
X440132Y324373D01*
Y325206D01*
X439299D01*
X440965Y323957D02*
Y326456D01*
X442631Y323957D01*
Y326456D01*
X443465D02*
Y323957D01*
X444714D01*
X445131Y324373D01*
Y326039D01*
X444714Y326456D01*
X443465D01*
X445964Y326039D02*
X446380Y326456D01*
X447213D01*
X447630Y326039D01*
Y325623D01*
X447213Y325206D01*
X446797D01*
X447213D01*
X447630Y324790D01*
Y324373D01*
X447213Y323957D01*
X446380D01*
X445964Y324373D01*
X300666Y333499D02*
X299833D01*
X300250D01*
Y331417D01*
X299833Y331000D01*
X299416D01*
X299000Y331417D01*
X301499Y331000D02*
Y333499D01*
X302749D01*
X303165Y333083D01*
Y332250D01*
X302749Y331833D01*
X301499D01*
X302332D02*
X303165Y331000D01*
X305664Y333083D02*
X305248Y333499D01*
X304415D01*
X303998Y333083D01*
Y332666D01*
X304415Y332250D01*
X305248D01*
X305664Y331833D01*
Y331417D01*
X305248Y331000D01*
X304415D01*
X303998Y331417D01*
X306498Y333499D02*
X308164D01*
X307331D01*
Y331000D01*
X358647Y408095D02*
X356148D01*
Y409344D01*
X356565Y409761D01*
X357398D01*
X357814Y409344D01*
Y408095D01*
Y408928D02*
X358647Y409761D01*
Y412260D02*
Y410594D01*
X356981Y412260D01*
X356565D01*
X356148Y411843D01*
Y411010D01*
X356565Y410594D01*
X358647Y413093D02*
X356981D01*
X356148Y413926D01*
X356981Y414759D01*
X358647D01*
X357398D01*
Y413093D01*
X358371Y339969D02*
X355872D01*
Y341219D01*
X356288Y341635D01*
X357121D01*
X357538Y341219D01*
Y339969D01*
Y340802D02*
X358371Y341635D01*
Y344135D02*
Y342469D01*
X356705Y344135D01*
X356288D01*
X355872Y343718D01*
Y342885D01*
X356288Y342469D01*
X355872Y344968D02*
X358371D01*
Y346217D01*
X357954Y346634D01*
X357538D01*
X357121Y346217D01*
Y344968D01*
Y346217D01*
X356705Y346634D01*
X356288D01*
X355872Y346217D01*
Y344968D01*
X358642Y273306D02*
X356142D01*
Y274556D01*
X356559Y274972D01*
X357392D01*
X357809Y274556D01*
Y273306D01*
Y274139D02*
X358642Y274972D01*
Y277472D02*
Y275805D01*
X356976Y277472D01*
X356559D01*
X356142Y277055D01*
Y276222D01*
X356559Y275805D01*
Y279971D02*
X356142Y279554D01*
Y278721D01*
X356559Y278305D01*
X358225D01*
X358642Y278721D01*
Y279554D01*
X358225Y279971D01*
X358647Y207679D02*
X356148D01*
Y208928D01*
X356565Y209345D01*
X357398D01*
X357814Y208928D01*
Y207679D01*
Y208512D02*
X358647Y209345D01*
Y211844D02*
Y210178D01*
X356981Y211844D01*
X356565D01*
X356148Y211427D01*
Y210595D01*
X356565Y210178D01*
X356148Y212677D02*
X358647D01*
Y213927D01*
X358231Y214343D01*
X356565D01*
X356148Y213927D01*
Y212677D01*
X387000Y451000D02*
X384501D01*
Y452250D01*
X384917Y452666D01*
X385750D01*
X386167Y452250D01*
Y451000D01*
Y451833D02*
X387000Y452666D01*
Y455165D02*
Y453499D01*
X385334Y455165D01*
X384917D01*
X384501Y454749D01*
Y453916D01*
X384917Y453499D01*
X386583Y455998D02*
X387000Y456415D01*
Y457248D01*
X386583Y457664D01*
X384917D01*
X384501Y457248D01*
Y456415D01*
X384917Y455998D01*
X385334D01*
X385750Y456415D01*
Y457664D01*
X365500Y368000D02*
X363001D01*
Y369250D01*
X363417Y369666D01*
X364250D01*
X364667Y369250D01*
Y368000D01*
Y368833D02*
X365500Y369666D01*
X363417Y370499D02*
X363001Y370916D01*
Y371749D01*
X363417Y372165D01*
X363834D01*
X364250Y371749D01*
Y371332D01*
Y371749D01*
X364667Y372165D01*
X365084D01*
X365500Y371749D01*
Y370916D01*
X365084Y370499D01*
X365500Y372998D02*
Y373831D01*
Y373415D01*
X363001D01*
X363417Y372998D01*
X387500Y384500D02*
X385001D01*
Y385750D01*
X385417Y386166D01*
X386250D01*
X386667Y385750D01*
Y384500D01*
Y385333D02*
X387500Y386166D01*
X385417Y386999D02*
X385001Y387416D01*
Y388249D01*
X385417Y388665D01*
X385834D01*
X386250Y388249D01*
Y387832D01*
Y388249D01*
X386667Y388665D01*
X387084D01*
X387500Y388249D01*
Y387416D01*
X387084Y386999D01*
X387500Y391164D02*
Y389498D01*
X385834Y391164D01*
X385417D01*
X385001Y390748D01*
Y389915D01*
X385417Y389498D01*
X365000Y300500D02*
X362501D01*
Y301750D01*
X362917Y302166D01*
X363750D01*
X364167Y301750D01*
Y300500D01*
Y301333D02*
X365000Y302166D01*
X362917Y302999D02*
X362501Y303416D01*
Y304249D01*
X362917Y304665D01*
X363334D01*
X363750Y304249D01*
Y303832D01*
Y304249D01*
X364167Y304665D01*
X364583D01*
X365000Y304249D01*
Y303416D01*
X364583Y302999D01*
X362917Y305498D02*
X362501Y305915D01*
Y306748D01*
X362917Y307165D01*
X363334D01*
X363750Y306748D01*
Y306331D01*
Y306748D01*
X364167Y307165D01*
X364583D01*
X365000Y306748D01*
Y305915D01*
X364583Y305498D01*
X392895Y324490D02*
X395394D01*
Y323241D01*
X394978Y322824D01*
X394145D01*
X393728Y323241D01*
Y324490D01*
Y323657D02*
X392895Y322824D01*
X394978Y321991D02*
X395394Y321575D01*
Y320742D01*
X394978Y320325D01*
X394561D01*
X394145Y320742D01*
Y321158D01*
Y320742D01*
X393728Y320325D01*
X393312D01*
X392895Y320742D01*
Y321575D01*
X393312Y321991D01*
X392895Y318243D02*
X395394D01*
X394145Y319492D01*
Y317826D01*
X365000Y233500D02*
X362501D01*
Y234750D01*
X362917Y235166D01*
X363750D01*
X364167Y234750D01*
Y233500D01*
Y234333D02*
X365000Y235166D01*
X362917Y235999D02*
X362501Y236416D01*
Y237249D01*
X362917Y237665D01*
X363334D01*
X363750Y237249D01*
Y236832D01*
Y237249D01*
X364167Y237665D01*
X364583D01*
X365000Y237249D01*
Y236416D01*
X364583Y235999D01*
X362501Y240164D02*
Y238498D01*
X363750D01*
X363334Y239331D01*
Y239748D01*
X363750Y240164D01*
X364583D01*
X365000Y239748D01*
Y238915D01*
X364583Y238498D01*
X387500Y252500D02*
X385001D01*
Y253750D01*
X385417Y254166D01*
X386250D01*
X386667Y253750D01*
Y252500D01*
Y253333D02*
X387500Y254166D01*
X385417Y254999D02*
X385001Y255416D01*
Y256249D01*
X385417Y256665D01*
X385834D01*
X386250Y256249D01*
Y255832D01*
Y256249D01*
X386667Y256665D01*
X387084D01*
X387500Y256249D01*
Y255416D01*
X387084Y254999D01*
X385001Y257498D02*
Y259165D01*
X385417D01*
X387084Y257498D01*
X387500D01*
X191476Y309748D02*
Y312247D01*
X192726D01*
X193142Y311831D01*
Y310998D01*
X192726Y310581D01*
X191476D01*
X192309D02*
X193142Y309748D01*
X195225D02*
Y312247D01*
X193976Y310998D01*
X195642D01*
X196475Y311831D02*
X196891Y312247D01*
X197724D01*
X198141Y311831D01*
Y310165D01*
X197724Y309748D01*
X196891D01*
X196475Y310165D01*
Y311831D01*
X198974Y309748D02*
Y311414D01*
X199807Y312247D01*
X200640Y311414D01*
Y309748D01*
Y310998D01*
X198974D01*
X150355Y372321D02*
Y374820D01*
X151605D01*
X152021Y374404D01*
Y373571D01*
X151605Y373154D01*
X150355D01*
X151188D02*
X152021Y372321D01*
X154104D02*
Y374820D01*
X152854Y373571D01*
X154520D01*
X155353Y374404D02*
X155770Y374820D01*
X156603D01*
X157020Y374404D01*
Y372738D01*
X156603Y372321D01*
X155770D01*
X155353Y372738D01*
Y374404D01*
X157853Y374820D02*
Y372321D01*
X159102D01*
X159519Y372738D01*
Y373154D01*
X159102Y373571D01*
X157853D01*
X159102D01*
X159519Y373987D01*
Y374404D01*
X159102Y374820D01*
X157853D01*
X93800Y271200D02*
Y273699D01*
X95050D01*
X95466Y273283D01*
Y272450D01*
X95050Y272033D01*
X93800D01*
X94633D02*
X95466Y271200D01*
X97549D02*
Y273699D01*
X96299Y272450D01*
X97965D01*
X98798Y271200D02*
X99631D01*
X99215D01*
Y273699D01*
X98798Y273283D01*
X100881Y271200D02*
Y272866D01*
X101714Y273699D01*
X102547Y272866D01*
Y271200D01*
Y272450D01*
X100881D01*
X85177Y410142D02*
Y412641D01*
X86427D01*
X86843Y412224D01*
Y411391D01*
X86427Y410975D01*
X85177D01*
X86010D02*
X86843Y410142D01*
X88926D02*
Y412641D01*
X87676Y411391D01*
X89342D01*
X90175Y410142D02*
X91009D01*
X90592D01*
Y412641D01*
X90175Y412224D01*
X92258Y412641D02*
Y410142D01*
X93508D01*
X93924Y410558D01*
Y410975D01*
X93508Y411391D01*
X92258D01*
X93508D01*
X93924Y411808D01*
Y412224D01*
X93508Y412641D01*
X92258D01*
X74350Y224118D02*
Y226617D01*
X75600D01*
X76016Y226201D01*
Y225368D01*
X75600Y224951D01*
X74350D01*
X75183D02*
X76016Y224118D01*
X78099D02*
Y226617D01*
X76850Y225368D01*
X78516D01*
X81015Y224118D02*
X79349D01*
X81015Y225784D01*
Y226201D01*
X80598Y226617D01*
X79765D01*
X79349Y226201D01*
X81848Y224118D02*
Y225784D01*
X82681Y226617D01*
X83514Y225784D01*
Y224118D01*
Y225368D01*
X81848D01*
X74350Y420968D02*
Y423468D01*
X75600D01*
X76016Y423051D01*
Y422218D01*
X75600Y421802D01*
X74350D01*
X75183D02*
X76016Y420968D01*
X78099D02*
Y423468D01*
X76850Y422218D01*
X78516D01*
X81015Y420968D02*
X79349D01*
X81015Y422635D01*
Y423051D01*
X80598Y423468D01*
X79765D01*
X79349Y423051D01*
X81848Y423468D02*
Y420968D01*
X83098D01*
X83514Y421385D01*
Y421802D01*
X83098Y422218D01*
X81848D01*
X83098D01*
X83514Y422635D01*
Y423051D01*
X83098Y423468D01*
X81848D01*
X74500Y210000D02*
Y212499D01*
X75750D01*
X76166Y212083D01*
Y211250D01*
X75750Y210833D01*
X74500D01*
X75333D02*
X76166Y210000D01*
X78249D02*
Y212499D01*
X76999Y211250D01*
X78665D01*
X79498Y212083D02*
X79915Y212499D01*
X80748D01*
X81164Y212083D01*
Y211666D01*
X80748Y211250D01*
X80331D01*
X80748D01*
X81164Y210833D01*
Y210417D01*
X80748Y210000D01*
X79915D01*
X79498Y210417D01*
X81998Y210000D02*
Y211666D01*
X82831Y212499D01*
X83664Y211666D01*
Y210000D01*
Y211250D01*
X81998D01*
X74500Y406500D02*
Y408999D01*
X75750D01*
X76166Y408583D01*
Y407750D01*
X75750Y407333D01*
X74500D01*
X75333D02*
X76166Y406500D01*
X78249D02*
Y408999D01*
X76999Y407750D01*
X78665D01*
X79498Y408583D02*
X79915Y408999D01*
X80748D01*
X81164Y408583D01*
Y408166D01*
X80748Y407750D01*
X80331D01*
X80748D01*
X81164Y407333D01*
Y406917D01*
X80748Y406500D01*
X79915D01*
X79498Y406917D01*
X81998Y408999D02*
Y406500D01*
X83247D01*
X83664Y406917D01*
Y407333D01*
X83247Y407750D01*
X81998D01*
X83247D01*
X83664Y408166D01*
Y408583D01*
X83247Y408999D01*
X81998D01*
X183602Y230024D02*
X181103D01*
Y231273D01*
X181520Y231690D01*
X182353D01*
X182769Y231273D01*
Y230024D01*
Y230857D02*
X183602Y231690D01*
Y233772D02*
X181103D01*
X182353Y232523D01*
Y234189D01*
X181103Y236688D02*
X181520Y235855D01*
X182353Y235022D01*
X183186D01*
X183602Y235438D01*
Y236272D01*
X183186Y236688D01*
X182769D01*
X182353Y236272D01*
Y235022D01*
X187500Y230000D02*
X185001D01*
Y231250D01*
X185417Y231666D01*
X186250D01*
X186667Y231250D01*
Y230000D01*
Y230833D02*
X187500Y231666D01*
Y233749D02*
X185001D01*
X186250Y232499D01*
Y234165D01*
X185001Y234998D02*
Y236665D01*
X185417D01*
X187083Y234998D01*
X187500D01*
X279000Y347500D02*
X276501D01*
Y348750D01*
X276917Y349166D01*
X277750D01*
X278167Y348750D01*
Y347500D01*
Y348333D02*
X279000Y349166D01*
Y351249D02*
X276501D01*
X277750Y349999D01*
Y351665D01*
X278584Y352498D02*
X279000Y352915D01*
Y353748D01*
X278584Y354165D01*
X276917D01*
X276501Y353748D01*
Y352915D01*
X276917Y352498D01*
X277334D01*
X277750Y352915D01*
Y354165D01*
X283000Y347500D02*
X280501D01*
Y348750D01*
X280917Y349166D01*
X281750D01*
X282167Y348750D01*
Y347500D01*
Y348333D02*
X283000Y349166D01*
X280501Y351665D02*
Y349999D01*
X281750D01*
X281334Y350832D01*
Y351249D01*
X281750Y351665D01*
X282583D01*
X283000Y351249D01*
Y350416D01*
X282583Y349999D01*
X280917Y352498D02*
X280501Y352915D01*
Y353748D01*
X280917Y354165D01*
X282583D01*
X283000Y353748D01*
Y352915D01*
X282583Y352498D01*
X280917D01*
X226000Y218500D02*
X223501D01*
Y219750D01*
X223917Y220166D01*
X224750D01*
X225167Y219750D01*
Y218500D01*
Y219333D02*
X226000Y220166D01*
X223501Y222665D02*
Y220999D01*
X224750D01*
X224334Y221832D01*
Y222249D01*
X224750Y222665D01*
X225584D01*
X226000Y222249D01*
Y221416D01*
X225584Y220999D01*
X226000Y223498D02*
Y224331D01*
Y223915D01*
X223501D01*
X223917Y223498D01*
X222000Y201000D02*
X219501D01*
Y202250D01*
X219917Y202666D01*
X220750D01*
X221167Y202250D01*
Y201000D01*
Y201833D02*
X222000Y202666D01*
X219501Y205165D02*
Y203499D01*
X220750D01*
X220334Y204332D01*
Y204749D01*
X220750Y205165D01*
X221584D01*
X222000Y204749D01*
Y203916D01*
X221584Y203499D01*
X219917Y205998D02*
X219501Y206415D01*
Y207248D01*
X219917Y207664D01*
X220334D01*
X220750Y207248D01*
Y206831D01*
Y207248D01*
X221167Y207664D01*
X221584D01*
X222000Y207248D01*
Y206415D01*
X221584Y205998D01*
X215500Y208500D02*
X213001D01*
Y209750D01*
X213417Y210166D01*
X214250D01*
X214667Y209750D01*
Y208500D01*
Y209333D02*
X215500Y210166D01*
X213001Y212665D02*
Y210999D01*
X214250D01*
X213834Y211832D01*
Y212249D01*
X214250Y212665D01*
X215084D01*
X215500Y212249D01*
Y211416D01*
X215084Y210999D01*
X215500Y214748D02*
X213001D01*
X214250Y213498D01*
Y215164D01*
X230500Y209500D02*
X228001D01*
Y210750D01*
X228417Y211166D01*
X229250D01*
X229667Y210750D01*
Y209500D01*
Y210333D02*
X230500Y211166D01*
X228001Y213665D02*
Y211999D01*
X229250D01*
X228834Y212832D01*
Y213249D01*
X229250Y213665D01*
X230083D01*
X230500Y213249D01*
Y212416D01*
X230083Y211999D01*
X228001Y216164D02*
X228417Y215331D01*
X229250Y214498D01*
X230083D01*
X230500Y214915D01*
Y215748D01*
X230083Y216164D01*
X229667D01*
X229250Y215748D01*
Y214498D01*
X208500Y208500D02*
X206001D01*
Y209750D01*
X206417Y210166D01*
X207250D01*
X207667Y209750D01*
Y208500D01*
Y209333D02*
X208500Y210166D01*
X206001Y212665D02*
Y210999D01*
X207250D01*
X206834Y211832D01*
Y212249D01*
X207250Y212665D01*
X208084D01*
X208500Y212249D01*
Y211416D01*
X208084Y210999D01*
X206001Y213498D02*
Y215164D01*
X206417D01*
X208084Y213498D01*
X208500D01*
X203000Y208500D02*
X200501D01*
Y209750D01*
X200917Y210166D01*
X201750D01*
X202167Y209750D01*
Y208500D01*
Y209333D02*
X203000Y210166D01*
X200501Y212665D02*
X200917Y211832D01*
X201750Y210999D01*
X202584D01*
X203000Y211416D01*
Y212249D01*
X202584Y212665D01*
X202167D01*
X201750Y212249D01*
Y210999D01*
X200917Y213498D02*
X200501Y213915D01*
Y214748D01*
X200917Y215164D01*
X202584D01*
X203000Y214748D01*
Y213915D01*
X202584Y213498D01*
X200917D01*
X209500Y237500D02*
Y239999D01*
X210750D01*
X211166Y239583D01*
Y238750D01*
X210750Y238333D01*
X209500D01*
X210333D02*
X211166Y237500D01*
X213665Y239999D02*
X212832Y239583D01*
X211999Y238750D01*
Y237916D01*
X212416Y237500D01*
X213249D01*
X213665Y237916D01*
Y238333D01*
X213249Y238750D01*
X211999D01*
X214498Y237500D02*
X215331D01*
X214915D01*
Y239999D01*
X214498Y239583D01*
X196500Y208500D02*
X194001D01*
Y209750D01*
X194417Y210166D01*
X195250D01*
X195667Y209750D01*
Y208500D01*
Y209333D02*
X196500Y210166D01*
X194001Y212665D02*
X194417Y211832D01*
X195250Y210999D01*
X196083D01*
X196500Y211416D01*
Y212249D01*
X196083Y212665D01*
X195667D01*
X195250Y212249D01*
Y210999D01*
X196500Y215164D02*
Y213498D01*
X194834Y215164D01*
X194417D01*
X194001Y214748D01*
Y213915D01*
X194417Y213498D01*
X229000Y233500D02*
Y235999D01*
X230250D01*
X230666Y235583D01*
Y234750D01*
X230250Y234333D01*
X229000D01*
X229833D02*
X230666Y233500D01*
X233165Y235999D02*
X232332Y235583D01*
X231499Y234750D01*
Y233916D01*
X231916Y233500D01*
X232749D01*
X233165Y233916D01*
Y234333D01*
X232749Y234750D01*
X231499D01*
X233998Y235583D02*
X234415Y235999D01*
X235248D01*
X235665Y235583D01*
Y235166D01*
X235248Y234750D01*
X234831D01*
X235248D01*
X235665Y234333D01*
Y233916D01*
X235248Y233500D01*
X234415D01*
X233998Y233916D01*
X229000Y237500D02*
Y239999D01*
X230250D01*
X230666Y239583D01*
Y238750D01*
X230250Y238333D01*
X229000D01*
X229833D02*
X230666Y237500D01*
X233165Y239999D02*
X232332Y239583D01*
X231499Y238750D01*
Y237916D01*
X231916Y237500D01*
X232749D01*
X233165Y237916D01*
Y238333D01*
X232749Y238750D01*
X231499D01*
X235248Y237500D02*
Y239999D01*
X233998Y238750D01*
X235665D01*
X230000Y265100D02*
X227501D01*
Y266350D01*
X227917Y266766D01*
X228750D01*
X229167Y266350D01*
Y265100D01*
Y265933D02*
X230000Y266766D01*
X227501Y269265D02*
X227917Y268432D01*
X228750Y267599D01*
X229584D01*
X230000Y268016D01*
Y268849D01*
X229584Y269265D01*
X229167D01*
X228750Y268849D01*
Y267599D01*
X227501Y271764D02*
Y270098D01*
X228750D01*
X228334Y270931D01*
Y271348D01*
X228750Y271764D01*
X229584D01*
X230000Y271348D01*
Y270515D01*
X229584Y270098D01*
X189500Y208500D02*
X187001D01*
Y209750D01*
X187417Y210166D01*
X188250D01*
X188667Y209750D01*
Y208500D01*
Y209333D02*
X189500Y210166D01*
X187001Y212665D02*
X187417Y211832D01*
X188250Y210999D01*
X189084D01*
X189500Y211416D01*
Y212249D01*
X189084Y212665D01*
X188667D01*
X188250Y212249D01*
Y210999D01*
X187001Y215164D02*
X187417Y214331D01*
X188250Y213498D01*
X189084D01*
X189500Y213915D01*
Y214748D01*
X189084Y215164D01*
X188667D01*
X188250Y214748D01*
Y213498D01*
X273169Y275299D02*
Y277798D01*
X274419D01*
X274835Y277382D01*
Y276549D01*
X274419Y276132D01*
X273169D01*
X274002D02*
X274835Y275299D01*
X275669Y275716D02*
X276085Y275299D01*
X276918D01*
X277335Y275716D01*
Y277382D01*
X276918Y277798D01*
X276085D01*
X275669Y277382D01*
Y276965D01*
X276085Y276549D01*
X277335D01*
X278168Y277798D02*
X279834D01*
Y277382D01*
X278168Y275716D01*
Y275299D01*
X273169Y279236D02*
Y281735D01*
X274419D01*
X274835Y281319D01*
Y280486D01*
X274419Y280069D01*
X273169D01*
X274002D02*
X274835Y279236D01*
X275669Y279653D02*
X276085Y279236D01*
X276918D01*
X277335Y279653D01*
Y281319D01*
X276918Y281735D01*
X276085D01*
X275669Y281319D01*
Y280902D01*
X276085Y280486D01*
X277335D01*
X278168Y281319D02*
X278584Y281735D01*
X279417D01*
X279834Y281319D01*
Y280902D01*
X279417Y280486D01*
X279834Y280069D01*
Y279653D01*
X279417Y279236D01*
X278584D01*
X278168Y279653D01*
Y280069D01*
X278584Y280486D01*
X278168Y280902D01*
Y281319D01*
X278584Y280486D02*
X279417D01*
X273169Y283173D02*
Y285672D01*
X274419D01*
X274835Y285256D01*
Y284423D01*
X274419Y284006D01*
X273169D01*
X274002D02*
X274835Y283173D01*
X275669D02*
X276501D01*
X276085D01*
Y285672D01*
X275669Y285256D01*
X277751D02*
X278168Y285672D01*
X279001D01*
X279417Y285256D01*
Y283590D01*
X279001Y283173D01*
X278168D01*
X277751Y283590D01*
Y285256D01*
X280250D02*
X280667Y285672D01*
X281500D01*
X281916Y285256D01*
Y283590D01*
X281500Y283173D01*
X280667D01*
X280250Y283590D01*
Y285256D01*
X273169Y287110D02*
Y289609D01*
X274419D01*
X274835Y289193D01*
Y288360D01*
X274419Y287943D01*
X273169D01*
X274002D02*
X274835Y287110D01*
X275669D02*
X276501D01*
X276085D01*
Y289609D01*
X275669Y289193D01*
X277751D02*
X278168Y289609D01*
X279001D01*
X279417Y289193D01*
Y287527D01*
X279001Y287110D01*
X278168D01*
X277751Y287527D01*
Y289193D01*
X280250Y287110D02*
X281083D01*
X280667D01*
Y289609D01*
X280250Y289193D01*
X279000Y319500D02*
X276501D01*
Y320750D01*
X276917Y321166D01*
X277750D01*
X278167Y320750D01*
Y319500D01*
Y320333D02*
X279000Y321166D01*
Y321999D02*
Y322832D01*
Y322416D01*
X276501D01*
X276917Y321999D01*
Y324082D02*
X276501Y324498D01*
Y325331D01*
X276917Y325748D01*
X278584D01*
X279000Y325331D01*
Y324498D01*
X278584Y324082D01*
X276917D01*
X279000Y328247D02*
Y326581D01*
X277334Y328247D01*
X276917D01*
X276501Y327831D01*
Y326998D01*
X276917Y326581D01*
X286100Y280400D02*
X283601D01*
Y281650D01*
X284017Y282066D01*
X284850D01*
X285267Y281650D01*
Y280400D01*
Y281233D02*
X286100Y282066D01*
Y282899D02*
Y283732D01*
Y283316D01*
X283601D01*
X284017Y282899D01*
Y284982D02*
X283601Y285398D01*
Y286231D01*
X284017Y286648D01*
X285683D01*
X286100Y286231D01*
Y285398D01*
X285683Y284982D01*
X284017D01*
Y287481D02*
X283601Y287898D01*
Y288731D01*
X284017Y289147D01*
X284434D01*
X284850Y288731D01*
Y288314D01*
Y288731D01*
X285267Y289147D01*
X285683D01*
X286100Y288731D01*
Y287898D01*
X285683Y287481D01*
X279000Y412000D02*
Y414499D01*
X280250D01*
X280666Y414083D01*
Y413250D01*
X280250Y412833D01*
X279000D01*
X279833D02*
X280666Y412000D01*
X281499Y414499D02*
X283165D01*
X282332D01*
Y412000D01*
X285665Y414083D02*
X285248Y414499D01*
X284415D01*
X283998Y414083D01*
Y412417D01*
X284415Y412000D01*
X285248D01*
X285665Y412417D01*
X286498Y414499D02*
Y412833D01*
X287331Y412000D01*
X288164Y412833D01*
Y414499D01*
X288997D02*
Y412000D01*
X290246D01*
X290663Y412417D01*
Y414083D01*
X290246Y414499D01*
X288997D01*
X291496D02*
Y412000D01*
X292746D01*
X293162Y412417D01*
Y414083D01*
X292746Y414499D01*
X291496D01*
X90039Y194814D02*
Y192731D01*
X90456Y192315D01*
X91289D01*
X91706Y192731D01*
Y194814D01*
X94205Y194398D02*
X93788Y194814D01*
X92955D01*
X92539Y194398D01*
Y193981D01*
X92955Y193565D01*
X93788D01*
X94205Y193148D01*
Y192731D01*
X93788Y192315D01*
X92955D01*
X92539Y192731D01*
X95038Y194814D02*
Y192315D01*
X96287D01*
X96704Y192731D01*
Y193148D01*
X96287Y193565D01*
X95038D01*
X96287D01*
X96704Y193981D01*
Y194398D01*
X96287Y194814D01*
X95038D01*
X99203Y194398D02*
X98786Y194814D01*
X97953D01*
X97537Y194398D01*
Y192731D01*
X97953Y192315D01*
X98786D01*
X99203Y192731D01*
Y193565D01*
X98370D01*
X100036Y192315D02*
Y194814D01*
X101702Y192315D01*
Y194814D01*
X102535D02*
Y192315D01*
X103785D01*
X104201Y192731D01*
Y194398D01*
X103785Y194814D01*
X102535D01*
X105034Y192315D02*
Y193981D01*
X105868Y194814D01*
X106701Y193981D01*
Y192315D01*
Y193565D01*
X105034D01*
X192000Y346500D02*
Y348999D01*
X193250D01*
X193666Y348583D01*
Y347750D01*
X193250Y347333D01*
X192000D01*
X192833D02*
X193666Y346500D01*
X194499Y348583D02*
X194916Y348999D01*
X195749D01*
X196165Y348583D01*
Y348166D01*
X195749Y347750D01*
X196165Y347333D01*
Y346917D01*
X195749Y346500D01*
X194916D01*
X194499Y346917D01*
Y347333D01*
X194916Y347750D01*
X194499Y348166D01*
Y348583D01*
X194916Y347750D02*
X195749D01*
X192000Y342000D02*
Y344499D01*
X193250D01*
X193666Y344083D01*
Y343250D01*
X193250Y342833D01*
X192000D01*
X192833D02*
X193666Y342000D01*
X194499Y342417D02*
X194916Y342000D01*
X195749D01*
X196165Y342417D01*
Y344083D01*
X195749Y344499D01*
X194916D01*
X194499Y344083D01*
Y343666D01*
X194916Y343250D01*
X196165D01*
X300300Y247050D02*
X301966D01*
X301133Y247883D02*
Y246217D01*
X302799Y248299D02*
Y246633D01*
X303632Y245800D01*
X304465Y246633D01*
Y248299D01*
X306964Y247883D02*
X306548Y248299D01*
X305715D01*
X305298Y247883D01*
Y247466D01*
X305715Y247050D01*
X306548D01*
X306964Y246633D01*
Y246217D01*
X306548Y245800D01*
X305715D01*
X305298Y246217D01*
X307798Y248299D02*
Y247883D01*
X308631Y247050D01*
X309464Y247883D01*
Y248299D01*
X308631Y247050D02*
Y245800D01*
X311963Y247883D02*
X311546Y248299D01*
X310713D01*
X310297Y247883D01*
Y247466D01*
X310713Y247050D01*
X311546D01*
X311963Y246633D01*
Y246217D01*
X311546Y245800D01*
X310713D01*
X310297Y246217D01*
X300400Y256650D02*
X302066D01*
X304565Y255400D02*
X302899D01*
X304565Y257066D01*
Y257483D01*
X304149Y257899D01*
X303316D01*
X302899Y257483D01*
X305398Y255400D02*
Y255817D01*
X305815D01*
Y255400D01*
X305398D01*
X309147Y257899D02*
X307481D01*
Y256650D01*
X308314Y257066D01*
X308731D01*
X309147Y256650D01*
Y255817D01*
X308731Y255400D01*
X307898D01*
X307481Y255817D01*
X309980Y257899D02*
Y256233D01*
X310813Y255400D01*
X311646Y256233D01*
Y257899D01*
X300600Y266750D02*
X302266D01*
X301433Y267583D02*
Y265916D01*
X303099Y267583D02*
X303516Y267999D01*
X304349D01*
X304765Y267583D01*
Y267166D01*
X304349Y266750D01*
X303932D01*
X304349D01*
X304765Y266333D01*
Y265916D01*
X304349Y265500D01*
X303516D01*
X303099Y265916D01*
X305598Y265500D02*
Y265916D01*
X306015D01*
Y265500D01*
X305598D01*
X307681Y267583D02*
X308098Y267999D01*
X308931D01*
X309347Y267583D01*
Y267166D01*
X308931Y266750D01*
X308514D01*
X308931D01*
X309347Y266333D01*
Y265916D01*
X308931Y265500D01*
X308098D01*
X307681Y265916D01*
X310180Y267999D02*
Y266333D01*
X311013Y265500D01*
X311846Y266333D01*
Y267999D01*
X306866Y277883D02*
X306450Y278299D01*
X305616D01*
X305200Y277883D01*
Y277466D01*
X305616Y277050D01*
X306450D01*
X306866Y276633D01*
Y276217D01*
X306450Y275800D01*
X305616D01*
X305200Y276217D01*
X309365Y277883D02*
X308949Y278299D01*
X308116D01*
X307699Y277883D01*
Y276217D01*
X308116Y275800D01*
X308949D01*
X309365Y276217D01*
X310198Y278299D02*
Y275800D01*
X311864D01*
X305866Y286883D02*
X305450Y287299D01*
X304616D01*
X304200Y286883D01*
Y285216D01*
X304616Y284800D01*
X305450D01*
X305866Y285216D01*
Y286050D01*
X305033D01*
X306699Y284800D02*
Y287299D01*
X308365Y284800D01*
Y287299D01*
X309198D02*
Y284800D01*
X310448D01*
X310864Y285216D01*
Y286883D01*
X310448Y287299D01*
X309198D01*
X305466Y297983D02*
X305050Y298399D01*
X304217D01*
X303800Y297983D01*
Y297566D01*
X304217Y297150D01*
X305050D01*
X305466Y296733D01*
Y296317D01*
X305050Y295900D01*
X304217D01*
X303800Y296317D01*
X306299Y298399D02*
Y295900D01*
X307549D01*
X307965Y296317D01*
Y297983D01*
X307549Y298399D01*
X306299D01*
X308798Y295900D02*
Y297566D01*
X309631Y298399D01*
X310465Y297566D01*
Y295900D01*
Y297150D01*
X308798D01*
X302300Y305500D02*
Y307166D01*
X303133Y307999D01*
X303966Y307166D01*
Y305500D01*
Y306750D01*
X302300D01*
X304799Y307999D02*
Y305917D01*
X305216Y305500D01*
X306049D01*
X306465Y305917D01*
Y307999D01*
X307298D02*
X308964Y305500D01*
Y307999D02*
X307298Y305500D01*
X309798Y307583D02*
X310214Y307999D01*
X311047D01*
X311464Y307583D01*
Y305917D01*
X311047Y305500D01*
X310214D01*
X309798Y305917D01*
Y307583D01*
X300300Y318299D02*
Y316216D01*
X300716Y315800D01*
X301550D01*
X301966Y316216D01*
Y318299D01*
X302799Y315800D02*
X303632D01*
X303216D01*
Y318299D01*
X302799Y317883D01*
X304882Y315384D02*
X306548D01*
X307381Y318299D02*
X309047D01*
X308214D01*
Y315800D01*
X309880Y318299D02*
X311546Y315800D01*
Y318299D02*
X309880Y315800D01*
X294866Y327083D02*
X294450Y327499D01*
X293617D01*
X293200Y327083D01*
Y326666D01*
X293617Y326250D01*
X294450D01*
X294866Y325833D01*
Y325416D01*
X294450Y325000D01*
X293617D01*
X293200Y325416D01*
X295699Y325000D02*
Y327499D01*
X296949D01*
X297365Y327083D01*
Y326250D01*
X296949Y325833D01*
X295699D01*
X298198Y327499D02*
X299031D01*
X298615D01*
Y325000D01*
X298198D01*
X299031D01*
X300281D02*
X301114D01*
X300698D01*
Y327499D01*
X300281Y327083D01*
X302364Y324584D02*
X304030D01*
X304863Y325000D02*
Y327499D01*
X305696Y326666D01*
X306529Y327499D01*
Y325000D01*
X308612Y327499D02*
X307779D01*
X307362Y327083D01*
Y325416D01*
X307779Y325000D01*
X308612D01*
X309028Y325416D01*
Y327083D01*
X308612Y327499D01*
X311527Y327083D02*
X311111Y327499D01*
X310278D01*
X309861Y327083D01*
Y326666D01*
X310278Y326250D01*
X311111D01*
X311527Y325833D01*
Y325416D01*
X311111Y325000D01*
X310278D01*
X309861Y325416D01*
X312361Y327499D02*
X313193D01*
X312777D01*
Y325000D01*
X312361D01*
X313193D01*
X302600Y335600D02*
Y337266D01*
X303433Y338099D01*
X304266Y337266D01*
Y335600D01*
Y336850D01*
X302600D01*
X305099Y338099D02*
Y336017D01*
X305516Y335600D01*
X306349D01*
X306765Y336017D01*
Y338099D01*
X307598D02*
X309264Y335600D01*
Y338099D02*
X307598Y335600D01*
X311764D02*
X310098D01*
X311764Y337266D01*
Y337683D01*
X311347Y338099D01*
X310514D01*
X310098Y337683D01*
X296366Y347583D02*
X295950Y347999D01*
X295116D01*
X294700Y347583D01*
Y347166D01*
X295116Y346750D01*
X295950D01*
X296366Y346333D01*
Y345917D01*
X295950Y345500D01*
X295116D01*
X294700Y345917D01*
X297199Y345500D02*
Y347999D01*
X298449D01*
X298865Y347583D01*
Y346750D01*
X298449Y346333D01*
X297199D01*
X299698Y347999D02*
X300531D01*
X300115D01*
Y345500D01*
X299698D01*
X300531D01*
X301781D02*
X302614D01*
X302198D01*
Y347999D01*
X301781Y347583D01*
X303864Y345083D02*
X305530D01*
X308029Y347583D02*
X307612Y347999D01*
X306779D01*
X306363Y347583D01*
Y347166D01*
X306779Y346750D01*
X307612D01*
X308029Y346333D01*
Y345917D01*
X307612Y345500D01*
X306779D01*
X306363Y345917D01*
X310528Y347583D02*
X310112Y347999D01*
X309279D01*
X308862Y347583D01*
Y345917D01*
X309279Y345500D01*
X310112D01*
X310528Y345917D01*
X311361Y347999D02*
Y345500D01*
Y346333D01*
X313027Y347999D01*
X311778Y346750D01*
X313027Y345500D01*
X301200Y355800D02*
Y357466D01*
X302033Y358299D01*
X302866Y357466D01*
Y355800D01*
Y357050D01*
X301200D01*
X303699Y358299D02*
Y356217D01*
X304116Y355800D01*
X304949D01*
X305365Y356217D01*
Y358299D01*
X306198D02*
X307864Y355800D01*
Y358299D02*
X306198Y355800D01*
X308698Y357883D02*
X309114Y358299D01*
X309947D01*
X310364Y357883D01*
Y357466D01*
X309947Y357050D01*
X309531D01*
X309947D01*
X310364Y356633D01*
Y356217D01*
X309947Y355800D01*
X309114D01*
X308698Y356217D01*
X297166Y367383D02*
X296750Y367799D01*
X295917D01*
X295500Y367383D01*
Y366966D01*
X295917Y366550D01*
X296750D01*
X297166Y366133D01*
Y365717D01*
X296750Y365300D01*
X295917D01*
X295500Y365717D01*
X297999Y365300D02*
Y367799D01*
X299249D01*
X299665Y367383D01*
Y366550D01*
X299249Y366133D01*
X297999D01*
X300498Y367799D02*
X301331D01*
X300915D01*
Y365300D01*
X300498D01*
X301331D01*
X302581D02*
X303414D01*
X302998D01*
Y367799D01*
X302581Y367383D01*
X304664Y364883D02*
X306330D01*
X308829Y367383D02*
X308413Y367799D01*
X307579D01*
X307163Y367383D01*
Y365717D01*
X307579Y365300D01*
X308413D01*
X308829Y365717D01*
X311328Y367383D02*
X310912Y367799D01*
X310079D01*
X309662Y367383D01*
Y366966D01*
X310079Y366550D01*
X310912D01*
X311328Y366133D01*
Y365717D01*
X310912Y365300D01*
X310079D01*
X309662Y365717D01*
X293566Y377683D02*
X293150Y378099D01*
X292317D01*
X291900Y377683D01*
Y377266D01*
X292317Y376850D01*
X293150D01*
X293566Y376433D01*
Y376016D01*
X293150Y375600D01*
X292317D01*
X291900Y376016D01*
X294399Y375600D02*
Y378099D01*
X295649D01*
X296065Y377683D01*
Y376850D01*
X295649Y376433D01*
X294399D01*
X296898Y378099D02*
X297731D01*
X297315D01*
Y375600D01*
X296898D01*
X297731D01*
X298981Y377683D02*
X299398Y378099D01*
X300231D01*
X300647Y377683D01*
Y376016D01*
X300231Y375600D01*
X299398D01*
X298981Y376016D01*
Y377683D01*
X301480Y375184D02*
X303146D01*
X303979Y375600D02*
Y378099D01*
X304813Y377266D01*
X305646Y378099D01*
Y375600D01*
X306479Y378099D02*
X307312D01*
X306895D01*
Y375600D01*
X306479D01*
X307312D01*
X310227Y377683D02*
X309811Y378099D01*
X308978D01*
X308561Y377683D01*
Y377266D01*
X308978Y376850D01*
X309811D01*
X310227Y376433D01*
Y376016D01*
X309811Y375600D01*
X308978D01*
X308561Y376016D01*
X312310Y378099D02*
X311477D01*
X311061Y377683D01*
Y376016D01*
X311477Y375600D01*
X312310D01*
X312727Y376016D01*
Y377683D01*
X312310Y378099D01*
X299917Y385500D02*
Y387999D01*
X300750D02*
Y385500D01*
X299500Y387166D02*
X300750D01*
X301166D01*
X299500Y386333D02*
X301166D01*
X301999Y387999D02*
Y385500D01*
X303249D01*
X303665Y385916D01*
Y387583D01*
X303249Y387999D01*
X301999D01*
X304498Y385500D02*
Y387999D01*
X305748D01*
X306165Y387583D01*
Y386750D01*
X305748Y386333D01*
X304498D01*
X305331D02*
X306165Y385500D01*
X306998Y387999D02*
Y385500D01*
X308247D01*
X308664Y385916D01*
Y387583D01*
X308247Y387999D01*
X306998D01*
X309497D02*
Y387583D01*
X310330Y386750D01*
X311163Y387583D01*
Y387999D01*
X310330Y386750D02*
Y385500D01*
X332916Y385800D02*
Y388299D01*
X333750D02*
Y385800D01*
X332500Y387466D02*
X333750D01*
X334166D01*
X332500Y386633D02*
X334166D01*
X336665Y387883D02*
X336249Y388299D01*
X335416D01*
X334999Y387883D01*
Y386216D01*
X335416Y385800D01*
X336249D01*
X336665Y386216D01*
X339164Y387883D02*
X338748Y388299D01*
X337915D01*
X337498Y387883D01*
Y387466D01*
X337915Y387050D01*
X338748D01*
X339164Y386633D01*
Y386216D01*
X338748Y385800D01*
X337915D01*
X337498Y386216D01*
X339998Y387883D02*
X340414Y388299D01*
X341247D01*
X341664Y387883D01*
Y386216D01*
X341247Y385800D01*
X340414D01*
X339998Y386216D01*
Y387883D01*
X333000Y376650D02*
X334666D01*
X333833Y377483D02*
Y375816D01*
X337165Y375400D02*
X335499D01*
X337165Y377066D01*
Y377483D01*
X336749Y377899D01*
X335916D01*
X335499Y377483D01*
X337998Y375400D02*
Y375816D01*
X338415D01*
Y375400D01*
X337998D01*
X341747Y377899D02*
X340081D01*
Y376650D01*
X340914Y377066D01*
X341331D01*
X341747Y376650D01*
Y375816D01*
X341331Y375400D01*
X340498D01*
X340081Y375816D01*
X342580Y377899D02*
Y376233D01*
X343413Y375400D01*
X344246Y376233D01*
Y377899D01*
X333866Y367583D02*
X333450Y367999D01*
X332616D01*
X332200Y367583D01*
Y367166D01*
X332616Y366750D01*
X333450D01*
X333866Y366333D01*
Y365916D01*
X333450Y365500D01*
X332616D01*
X332200Y365916D01*
X334699Y365500D02*
Y367999D01*
X335949D01*
X336365Y367583D01*
Y366750D01*
X335949Y366333D01*
X334699D01*
X337198Y367999D02*
X338031D01*
X337615D01*
Y365500D01*
X337198D01*
X338031D01*
X339281Y367583D02*
X339698Y367999D01*
X340531D01*
X340947Y367583D01*
Y365916D01*
X340531Y365500D01*
X339698D01*
X339281Y365916D01*
Y367583D01*
X341780Y365084D02*
X343446D01*
X345946Y367583D02*
X345529Y367999D01*
X344696D01*
X344279Y367583D01*
Y367166D01*
X344696Y366750D01*
X345529D01*
X345946Y366333D01*
Y365916D01*
X345529Y365500D01*
X344696D01*
X344279Y365916D01*
X348445Y367583D02*
X348028Y367999D01*
X347195D01*
X346779Y367583D01*
Y365916D01*
X347195Y365500D01*
X348028D01*
X348445Y365916D01*
X349278Y367999D02*
Y365500D01*
Y366333D01*
X350944Y367999D01*
X349694Y366750D01*
X350944Y365500D01*
X332817Y355600D02*
Y358099D01*
X333650D02*
Y355600D01*
X332400Y357266D02*
X333650D01*
X334066D01*
X332400Y356433D02*
X334066D01*
X336565Y357683D02*
X336149Y358099D01*
X335316D01*
X334899Y357683D01*
Y356016D01*
X335316Y355600D01*
X336149D01*
X336565Y356016D01*
X339065Y357683D02*
X338648Y358099D01*
X337815D01*
X337398Y357683D01*
Y357266D01*
X337815Y356850D01*
X338648D01*
X339065Y356433D01*
Y356016D01*
X338648Y355600D01*
X337815D01*
X337398Y356016D01*
X339898Y355600D02*
X340731D01*
X340314D01*
Y358099D01*
X339898Y357683D01*
X333966Y347983D02*
X333550Y348399D01*
X332716D01*
X332300Y347983D01*
Y347566D01*
X332716Y347150D01*
X333550D01*
X333966Y346733D01*
Y346317D01*
X333550Y345900D01*
X332716D01*
X332300Y346317D01*
X334799Y348399D02*
X336465D01*
X335632D01*
Y345900D01*
X337298D02*
Y347566D01*
X338131Y348399D01*
X338965Y347566D01*
Y345900D01*
Y347150D01*
X337298D01*
X339798Y345900D02*
Y348399D01*
X341047D01*
X341464Y347983D01*
Y347150D01*
X341047Y346733D01*
X339798D01*
X340631D02*
X341464Y345900D01*
X342297Y348399D02*
X343963D01*
X343130D01*
Y345900D01*
X333300Y335700D02*
Y337366D01*
X334133Y338199D01*
X334966Y337366D01*
Y335700D01*
Y336950D01*
X333300D01*
X335799Y338199D02*
Y336117D01*
X336216Y335700D01*
X337049D01*
X337465Y336117D01*
Y338199D01*
X338298D02*
X339965Y335700D01*
Y338199D02*
X338298Y335700D01*
X340798D02*
X341631D01*
X341214D01*
Y338199D01*
X340798Y337783D01*
X333866Y327883D02*
X333450Y328299D01*
X332616D01*
X332200Y327883D01*
Y327466D01*
X332616Y327050D01*
X333450D01*
X333866Y326633D01*
Y326217D01*
X333450Y325800D01*
X332616D01*
X332200Y326217D01*
X334699Y325800D02*
Y328299D01*
X335949D01*
X336365Y327883D01*
Y327050D01*
X335949Y326633D01*
X334699D01*
X337198Y328299D02*
X338031D01*
X337615D01*
Y325800D01*
X337198D01*
X338031D01*
X339281D02*
X340114D01*
X339698D01*
Y328299D01*
X339281Y327883D01*
X341364Y325383D02*
X343030D01*
X343863Y325800D02*
Y328299D01*
X344696Y327466D01*
X345529Y328299D01*
Y325800D01*
X346362Y328299D02*
X347195D01*
X346779D01*
Y325800D01*
X346362D01*
X347195D01*
X350111Y327883D02*
X349694Y328299D01*
X348861D01*
X348445Y327883D01*
Y327466D01*
X348861Y327050D01*
X349694D01*
X350111Y326633D01*
Y326217D01*
X349694Y325800D01*
X348861D01*
X348445Y326217D01*
X352193Y328299D02*
X351361D01*
X350944Y327883D01*
Y326217D01*
X351361Y325800D01*
X352193D01*
X352610Y326217D01*
Y327883D01*
X352193Y328299D01*
X332300Y317899D02*
Y315816D01*
X332716Y315400D01*
X333550D01*
X333966Y315816D01*
Y317899D01*
X334799Y315400D02*
X335632D01*
X335216D01*
Y317899D01*
X334799Y317483D01*
X336882Y314984D02*
X338548D01*
X339381Y315400D02*
Y317899D01*
X340631D01*
X341047Y317483D01*
Y316650D01*
X340631Y316233D01*
X339381D01*
X340214D02*
X341047Y315400D01*
X341880Y317899D02*
X343546Y315400D01*
Y317899D02*
X341880Y315400D01*
X332500Y307899D02*
Y305817D01*
X332916Y305400D01*
X333750D01*
X334166Y305817D01*
Y307899D01*
X334999Y307483D02*
X335416Y307899D01*
X336249D01*
X336665Y307483D01*
Y305817D01*
X336249Y305400D01*
X335416D01*
X334999Y305817D01*
Y307483D01*
X337498Y304983D02*
X339164D01*
X339998Y307899D02*
X341664D01*
X340831D01*
Y305400D01*
X342497Y307899D02*
X344163Y305400D01*
Y307899D02*
X342497Y305400D01*
X332600Y297799D02*
Y295717D01*
X333016Y295300D01*
X333850D01*
X334266Y295717D01*
Y297799D01*
X335099Y297383D02*
X335516Y297799D01*
X336349D01*
X336765Y297383D01*
Y295717D01*
X336349Y295300D01*
X335516D01*
X335099Y295717D01*
Y297383D01*
X337598Y294883D02*
X339264D01*
X340098Y295300D02*
Y297799D01*
X341347D01*
X341764Y297383D01*
Y296550D01*
X341347Y296133D01*
X340098D01*
X340931D02*
X341764Y295300D01*
X342597Y297799D02*
X344263Y295300D01*
Y297799D02*
X342597Y295300D01*
X333117Y285500D02*
Y287999D01*
X333950D02*
Y285500D01*
X332700Y287166D02*
X333950D01*
X334366D01*
X332700Y286333D02*
X334366D01*
X336865Y287583D02*
X336449Y287999D01*
X335616D01*
X335199Y287583D01*
Y285916D01*
X335616Y285500D01*
X336449D01*
X336865Y285916D01*
X339365Y287583D02*
X338948Y287999D01*
X338115D01*
X337698Y287583D01*
Y287166D01*
X338115Y286750D01*
X338948D01*
X339365Y286333D01*
Y285916D01*
X338948Y285500D01*
X338115D01*
X337698Y285916D01*
X341864Y285500D02*
X340198D01*
X341864Y287166D01*
Y287583D01*
X341447Y287999D01*
X340614D01*
X340198Y287583D01*
X332817Y275600D02*
Y278099D01*
X333650D02*
Y275600D01*
X332400Y277266D02*
X333650D01*
X334066D01*
X332400Y276433D02*
X334066D01*
X334899Y275600D02*
Y278099D01*
X336149D01*
X336565Y277683D01*
Y276850D01*
X336149Y276433D01*
X334899D01*
X335732D02*
X336565Y275600D01*
X339065Y278099D02*
X337398D01*
Y275600D01*
X339065D01*
X337398Y276850D02*
X338231D01*
X341564Y277683D02*
X341147Y278099D01*
X340314D01*
X339898Y277683D01*
Y277266D01*
X340314Y276850D01*
X341147D01*
X341564Y276433D01*
Y276016D01*
X341147Y275600D01*
X340314D01*
X339898Y276016D01*
X344063Y278099D02*
X342397D01*
Y275600D01*
X344063D01*
X342397Y276850D02*
X343230D01*
X344896Y278099D02*
X346562D01*
X345729D01*
Y275600D01*
X333517Y265700D02*
Y268199D01*
X334350D02*
Y265700D01*
X333100Y267366D02*
X334350D01*
X334766D01*
X333100Y266533D02*
X334766D01*
X335599Y265700D02*
Y268199D01*
X336849D01*
X337265Y267783D01*
Y266950D01*
X336849Y266533D01*
X335599D01*
X338098Y268199D02*
Y265700D01*
X338931Y266533D01*
X339764Y265700D01*
Y268199D01*
X340598D02*
Y265700D01*
X341847D01*
X342264Y266116D01*
Y267783D01*
X341847Y268199D01*
X340598D01*
X343097Y265700D02*
Y268199D01*
X344763Y265700D01*
Y268199D01*
X334066Y257983D02*
X333650Y258399D01*
X332817D01*
X332400Y257983D01*
Y257566D01*
X332817Y257150D01*
X333650D01*
X334066Y256733D01*
Y256316D01*
X333650Y255900D01*
X332817D01*
X332400Y256316D01*
X334899Y255900D02*
Y258399D01*
X336149D01*
X336565Y257983D01*
Y257150D01*
X336149Y256733D01*
X334899D01*
X337398Y258399D02*
X338231D01*
X337815D01*
Y255900D01*
X337398D01*
X338231D01*
X339481Y257983D02*
X339898Y258399D01*
X340731D01*
X341147Y257983D01*
Y256316D01*
X340731Y255900D01*
X339898D01*
X339481Y256316D01*
Y257983D01*
X341980Y255484D02*
X343646D01*
X344479Y255900D02*
Y258399D01*
X345312Y257566D01*
X346146Y258399D01*
Y255900D01*
X348228Y258399D02*
X347395D01*
X346979Y257983D01*
Y256316D01*
X347395Y255900D01*
X348228D01*
X348645Y256316D01*
Y257983D01*
X348228Y258399D01*
X351144Y257983D02*
X350727Y258399D01*
X349894D01*
X349478Y257983D01*
Y257566D01*
X349894Y257150D01*
X350727D01*
X351144Y256733D01*
Y256316D01*
X350727Y255900D01*
X349894D01*
X349478Y256316D01*
X351977Y258399D02*
X352810D01*
X352394D01*
Y255900D01*
X351977D01*
X352810D01*
X334717Y245400D02*
Y247899D01*
X335550D02*
Y245400D01*
X334300Y247066D02*
X335550D01*
X335966D01*
X334300Y246233D02*
X335966D01*
X338465Y247483D02*
X338049Y247899D01*
X337216D01*
X336799Y247483D01*
Y245816D01*
X337216Y245400D01*
X338049D01*
X338465Y245816D01*
X340965Y247483D02*
X340548Y247899D01*
X339715D01*
X339298Y247483D01*
Y247066D01*
X339715Y246650D01*
X340548D01*
X340965Y246233D01*
Y245816D01*
X340548Y245400D01*
X339715D01*
X339298Y245816D01*
X341798Y247483D02*
X342214Y247899D01*
X343047D01*
X343464Y247483D01*
Y247066D01*
X343047Y246650D01*
X342631D01*
X343047D01*
X343464Y246233D01*
Y245816D01*
X343047Y245400D01*
X342214D01*
X341798Y245816D01*
D14*
X214073Y316638D02*
X237736Y292975D01*
Y340301D02*
X261399Y316638D01*
X214073Y316638D02*
X237736Y340301D01*
Y292975D02*
X261399Y316638D01*
D15*
X25000Y224000D02*
Y244000D01*
Y224000D02*
X45000D01*
Y244000D01*
X25000D02*
X45000D01*
X35000Y226500D02*
Y241500D01*
X27500Y234000D02*
X42500D01*
X32500Y391500D02*
X37500D01*
X30000Y396500D02*
X40000D01*
X25000Y401500D02*
X45000D01*
X25000Y406500D02*
X45000D01*
X30000Y411500D02*
X40000D01*
X32500Y416500D02*
X37500D01*
M02*
