G04 Layer_Color=32896*
%FSLAX25Y25*%
%MOIN*%
G70*
G01*
G75*
%ADD10C,0.00800*%
%ADD32C,0.02000*%
%ADD35C,0.01000*%
%ADD87C,0.00984*%
%ADD88C,0.02362*%
%ADD89C,0.00787*%
G36*
X590665Y93195D02*
X591590Y93047D01*
X592405Y92825D01*
X593072Y92566D01*
X593590Y92269D01*
X593960Y92047D01*
X594071Y91973D01*
X594182Y91899D01*
X594256Y91825D01*
X594553Y91529D01*
X594812Y91232D01*
X595182Y90566D01*
X595478Y89862D01*
X595701Y89196D01*
X595812Y88603D01*
X595849Y88344D01*
Y88122D01*
X595886Y87937D01*
Y87789D01*
Y87715D01*
Y87678D01*
X595849Y87048D01*
X595775Y86493D01*
X595627Y85937D01*
X595441Y85419D01*
X595182Y84974D01*
X594960Y84530D01*
X594664Y84123D01*
X594405Y83752D01*
X594145Y83456D01*
X593849Y83160D01*
X593627Y82938D01*
X593405Y82753D01*
X593183Y82567D01*
X593035Y82456D01*
X592961Y82419D01*
X592923Y82382D01*
X593405Y82123D01*
X593849Y81827D01*
X594219Y81531D01*
X594553Y81234D01*
X594775Y80938D01*
X594960Y80716D01*
X595071Y80568D01*
X595108Y80494D01*
X595367Y80012D01*
X595553Y79494D01*
X595701Y78975D01*
X595775Y78494D01*
X595849Y78087D01*
X595886Y77790D01*
Y77568D01*
Y77531D01*
Y77494D01*
X595849Y77013D01*
X595775Y76494D01*
X595627Y76050D01*
X595516Y75643D01*
X595367Y75309D01*
X595219Y75013D01*
X595145Y74865D01*
X595108Y74791D01*
X594812Y74310D01*
X594516Y73902D01*
X594182Y73532D01*
X593923Y73273D01*
X593664Y73051D01*
X593442Y72865D01*
X593294Y72791D01*
X593257Y72755D01*
Y72643D01*
X595404D01*
Y69866D01*
X580000D01*
Y72755D01*
X588517D01*
X589183Y72791D01*
X589813Y72940D01*
X590405Y73125D01*
X590887Y73310D01*
X591257Y73532D01*
X591553Y73680D01*
X591739Y73828D01*
X591813Y73865D01*
X592294Y74310D01*
X592664Y74791D01*
X592923Y75273D01*
X593072Y75717D01*
X593183Y76087D01*
X593220Y76420D01*
X593257Y76606D01*
Y76680D01*
X593220Y77309D01*
X593109Y77865D01*
X592961Y78309D01*
X592775Y78679D01*
X592590Y78975D01*
X592442Y79161D01*
X592331Y79272D01*
X592294Y79309D01*
X591887Y79568D01*
X591405Y79790D01*
X590887Y79938D01*
X590368Y80012D01*
X589887Y80086D01*
X589517Y80123D01*
X580000D01*
Y83012D01*
X588517D01*
X589183Y83049D01*
X589813Y83197D01*
X590405Y83382D01*
X590887Y83567D01*
X591257Y83789D01*
X591553Y83938D01*
X591739Y84086D01*
X591813Y84123D01*
X592294Y84567D01*
X592664Y85048D01*
X592923Y85530D01*
X593072Y85974D01*
X593183Y86344D01*
X593220Y86678D01*
X593257Y86863D01*
Y86937D01*
X593220Y87567D01*
X593109Y88122D01*
X592961Y88566D01*
X592775Y88937D01*
X592590Y89233D01*
X592442Y89418D01*
X592331Y89529D01*
X592294Y89566D01*
X591887Y89825D01*
X591405Y90048D01*
X590887Y90196D01*
X590368Y90270D01*
X589887Y90344D01*
X589517Y90381D01*
X580000D01*
Y93269D01*
X589591D01*
X590665Y93195D01*
D02*
G37*
G36*
X589109Y175919D02*
X589442Y175900D01*
X589757Y175845D01*
X590053Y175770D01*
X590331Y175697D01*
X590590Y175622D01*
X590812Y175530D01*
X591034Y175437D01*
X591219Y175326D01*
X591367Y175234D01*
X591515Y175160D01*
X591627Y175086D01*
X591719Y175012D01*
X591775Y174956D01*
X591812Y174938D01*
X591830Y174919D01*
X592034Y174715D01*
X592200Y174512D01*
X592348Y174290D01*
X592478Y174068D01*
X592589Y173846D01*
X592663Y173605D01*
X592811Y173179D01*
X592848Y172976D01*
X592885Y172790D01*
X592904Y172624D01*
X592922Y172476D01*
X592941Y172365D01*
Y172272D01*
Y172217D01*
Y172198D01*
X592922Y171902D01*
X592885Y171606D01*
X592830Y171328D01*
X592756Y171069D01*
X592571Y170606D01*
X592459Y170384D01*
X592367Y170199D01*
X592256Y170032D01*
X592145Y169884D01*
X592052Y169755D01*
X591960Y169662D01*
X591886Y169570D01*
X591830Y169514D01*
X591793Y169477D01*
X591775Y169459D01*
X591552Y169273D01*
X591312Y169107D01*
X591071Y168959D01*
X590831Y168848D01*
X590571Y168737D01*
X590331Y168644D01*
X589868Y168515D01*
X589665Y168478D01*
X589461Y168441D01*
X589294Y168422D01*
X589146Y168403D01*
X589017Y168385D01*
X588850D01*
X588517Y168403D01*
X588221Y168441D01*
X587925Y168478D01*
X587647Y168552D01*
X587388Y168644D01*
X587147Y168737D01*
X586906Y168829D01*
X586721Y168940D01*
X586536Y169033D01*
X586370Y169125D01*
X586240Y169218D01*
X586111Y169310D01*
X586018Y169385D01*
X585962Y169422D01*
X585925Y169459D01*
X585907Y169477D01*
X585703Y169699D01*
X585537Y169921D01*
X585370Y170143D01*
X585241Y170384D01*
X585130Y170625D01*
X585037Y170847D01*
X584907Y171310D01*
X584852Y171513D01*
X584815Y171698D01*
X584796Y171865D01*
X584778Y172013D01*
X584759Y172124D01*
Y172217D01*
Y172272D01*
Y172291D01*
X584778Y172716D01*
X584852Y173105D01*
X584926Y173457D01*
X585037Y173771D01*
X585130Y174012D01*
X585222Y174197D01*
X585241Y174271D01*
X585278Y174327D01*
X585296Y174345D01*
Y174364D01*
X585518Y174697D01*
X585759Y174975D01*
X586018Y175234D01*
X586259Y175437D01*
X586481Y175604D01*
X586647Y175715D01*
X586721Y175752D01*
X586777Y175789D01*
X586796Y175807D01*
X586814D01*
X587443Y174512D01*
X587203Y174364D01*
X586981Y174197D01*
X586796Y174031D01*
X586647Y173846D01*
X586499Y173660D01*
X586388Y173494D01*
X586296Y173309D01*
X586222Y173142D01*
X586129Y172827D01*
X586092Y172698D01*
X586074Y172568D01*
Y172476D01*
X586055Y172402D01*
Y172365D01*
Y172346D01*
X586092Y171994D01*
X586166Y171661D01*
X586277Y171365D01*
X586407Y171106D01*
X586518Y170902D01*
X586629Y170754D01*
X586703Y170662D01*
X586740Y170625D01*
X587018Y170384D01*
X587332Y170199D01*
X587628Y170069D01*
X587925Y169977D01*
X588184Y169921D01*
X588387Y169884D01*
X588461Y169866D01*
X588572D01*
Y175919D01*
X588739Y175937D01*
X589109Y175919D01*
D02*
G37*
G36*
X588221Y128929D02*
X588887Y128892D01*
X589517Y128781D01*
X590109Y128633D01*
X590665Y128485D01*
X591183Y128337D01*
X591627Y128151D01*
X592072Y127966D01*
X592442Y127744D01*
X592738Y127559D01*
X593035Y127411D01*
X593257Y127263D01*
X593442Y127114D01*
X593553Y127003D01*
X593627Y126966D01*
X593664Y126929D01*
X594071Y126522D01*
X594405Y126115D01*
X594701Y125670D01*
X594960Y125226D01*
X595182Y124782D01*
X595330Y124300D01*
X595627Y123449D01*
X595701Y123041D01*
X595775Y122671D01*
X595812Y122338D01*
X595849Y122041D01*
X595886Y121819D01*
Y121634D01*
Y121523D01*
Y121486D01*
X595849Y120894D01*
X595775Y120301D01*
X595664Y119746D01*
X595516Y119227D01*
X595145Y118301D01*
X594923Y117857D01*
X594738Y117487D01*
X594516Y117153D01*
X594294Y116857D01*
X594108Y116598D01*
X593923Y116413D01*
X593775Y116228D01*
X593664Y116117D01*
X593590Y116042D01*
X593553Y116006D01*
X593109Y115635D01*
X592627Y115302D01*
X592146Y115006D01*
X591665Y114784D01*
X591146Y114561D01*
X590665Y114376D01*
X589739Y114117D01*
X589332Y114043D01*
X588924Y113969D01*
X588591Y113932D01*
X588295Y113895D01*
X588035Y113858D01*
X587702D01*
X587036Y113895D01*
X586443Y113969D01*
X585851Y114043D01*
X585295Y114191D01*
X584777Y114376D01*
X584296Y114561D01*
X583814Y114746D01*
X583444Y114969D01*
X583074Y115154D01*
X582740Y115339D01*
X582481Y115524D01*
X582222Y115709D01*
X582037Y115857D01*
X581926Y115931D01*
X581851Y116006D01*
X581814Y116042D01*
X581407Y116487D01*
X581074Y116931D01*
X580741Y117376D01*
X580481Y117857D01*
X580259Y118338D01*
X580074Y118783D01*
X579815Y119709D01*
X579704Y120116D01*
X579630Y120486D01*
X579593Y120819D01*
X579556Y121116D01*
X579519Y121338D01*
Y121523D01*
Y121634D01*
Y121671D01*
X579556Y122523D01*
X579704Y123300D01*
X579852Y124004D01*
X580074Y124634D01*
X580259Y125115D01*
X580444Y125485D01*
X580481Y125633D01*
X580555Y125744D01*
X580592Y125781D01*
Y125819D01*
X581037Y126485D01*
X581518Y127040D01*
X582037Y127559D01*
X582518Y127966D01*
X582962Y128299D01*
X583296Y128522D01*
X583444Y128596D01*
X583555Y128670D01*
X583592Y128707D01*
X583629D01*
X584888Y126115D01*
X584407Y125819D01*
X583962Y125485D01*
X583592Y125152D01*
X583296Y124782D01*
X582999Y124411D01*
X582777Y124078D01*
X582592Y123708D01*
X582444Y123374D01*
X582259Y122745D01*
X582185Y122486D01*
X582148Y122227D01*
Y122041D01*
X582111Y121893D01*
Y121819D01*
Y121782D01*
X582185Y121079D01*
X582333Y120412D01*
X582555Y119820D01*
X582814Y119301D01*
X583037Y118894D01*
X583259Y118598D01*
X583407Y118412D01*
X583481Y118338D01*
X584036Y117857D01*
X584666Y117487D01*
X585258Y117227D01*
X585851Y117042D01*
X586369Y116931D01*
X586776Y116857D01*
X586925Y116820D01*
X587147D01*
Y128929D01*
X587480Y128966D01*
X588221Y128929D01*
D02*
G37*
G36*
X588332Y112080D02*
X588924Y112006D01*
X589480Y111932D01*
X590035Y111784D01*
X591035Y111414D01*
X591479Y111229D01*
X591887Y111044D01*
X592257Y110821D01*
X592553Y110636D01*
X592849Y110451D01*
X593072Y110266D01*
X593257Y110118D01*
X593405Y110044D01*
X593479Y109970D01*
X593516Y109933D01*
X593923Y109525D01*
X594294Y109118D01*
X594627Y108674D01*
X594886Y108229D01*
X595108Y107822D01*
X595293Y107378D01*
X595590Y106563D01*
X595775Y105859D01*
X595812Y105563D01*
X595849Y105304D01*
X595886Y105082D01*
Y104934D01*
Y104822D01*
Y104785D01*
X595849Y104156D01*
X595775Y103601D01*
X595664Y103045D01*
X595516Y102601D01*
X595367Y102193D01*
X595256Y101934D01*
X595182Y101749D01*
X595145Y101675D01*
X594849Y101193D01*
X594553Y100749D01*
X594256Y100379D01*
X593923Y100083D01*
X593664Y99860D01*
X593442Y99675D01*
X593294Y99564D01*
X593257Y99527D01*
Y99416D01*
X595404Y99527D01*
X602477D01*
Y96639D01*
X580000D01*
Y99416D01*
X582111D01*
Y99527D01*
X581703Y99860D01*
X581333Y100194D01*
X581000Y100564D01*
X580741Y100897D01*
X580518Y101193D01*
X580370Y101453D01*
X580259Y101601D01*
X580222Y101675D01*
X580000Y102230D01*
X579815Y102749D01*
X579704Y103267D01*
X579593Y103749D01*
X579556Y104156D01*
X579519Y104489D01*
Y104711D01*
Y104785D01*
X579556Y105341D01*
X579630Y105896D01*
X579741Y106378D01*
X579889Y106859D01*
X580259Y107748D01*
X580704Y108488D01*
X580889Y108822D01*
X581111Y109118D01*
X581296Y109340D01*
X581481Y109562D01*
X581629Y109710D01*
X581740Y109821D01*
X581814Y109896D01*
X581851Y109933D01*
X582333Y110303D01*
X582777Y110673D01*
X583296Y110932D01*
X583777Y111192D01*
X584258Y111414D01*
X584777Y111599D01*
X585666Y111858D01*
X586110Y111932D01*
X586480Y112006D01*
X586813Y112043D01*
X587110Y112080D01*
X587369Y112117D01*
X587702D01*
X588332Y112080D01*
D02*
G37*
G36*
X595553Y140779D02*
X595664Y140408D01*
X595738Y140075D01*
X595775Y139742D01*
X595812Y139445D01*
Y139223D01*
Y139075D01*
Y139001D01*
X595775Y138520D01*
X595664Y138001D01*
X595553Y137557D01*
X595404Y137150D01*
X595219Y136816D01*
X595108Y136520D01*
X594997Y136372D01*
X594960Y136298D01*
X594627Y135817D01*
X594294Y135446D01*
X593923Y135113D01*
X593590Y134891D01*
X593331Y134706D01*
X593109Y134557D01*
X592923Y134520D01*
X592886Y134484D01*
Y134372D01*
X595404D01*
Y131595D01*
X580000D01*
Y134484D01*
X588480D01*
X589109Y134520D01*
X589702Y134669D01*
X590220Y134854D01*
X590665Y135113D01*
X591035Y135335D01*
X591331Y135520D01*
X591479Y135668D01*
X591553Y135705D01*
X591998Y136187D01*
X592331Y136668D01*
X592553Y137150D01*
X592738Y137594D01*
X592812Y137964D01*
X592849Y138298D01*
X592886Y138483D01*
Y138557D01*
Y138964D01*
X592849Y139297D01*
X592812Y139594D01*
X592775Y139853D01*
X592738Y140038D01*
X592701Y140149D01*
X592664Y140223D01*
Y140260D01*
X595441Y141112D01*
X595553Y140779D01*
D02*
G37*
G36*
X589628Y164628D02*
X589683Y164664D01*
X589794Y165090D01*
X589961Y165460D01*
X590146Y165794D01*
X590349Y166071D01*
X590534Y166293D01*
X590683Y166460D01*
X590794Y166552D01*
X590812Y166590D01*
X590831D01*
X591182Y166849D01*
X591534Y167034D01*
X591886Y167163D01*
X592200Y167256D01*
X592497Y167311D01*
X592608Y167330D01*
X592700D01*
X592793Y167349D01*
X592904D01*
X593163Y167330D01*
X593403Y167311D01*
X593866Y167182D01*
X594274Y167015D01*
X594625Y166830D01*
X594903Y166645D01*
X595014Y166552D01*
X595107Y166479D01*
X595181Y166404D01*
X595236Y166349D01*
X595255Y166330D01*
X595273Y166312D01*
X595440Y166108D01*
X595588Y165905D01*
X595717Y165701D01*
X595828Y165498D01*
X595995Y165072D01*
X596125Y164683D01*
X596180Y164350D01*
X596199Y164202D01*
X596217Y164072D01*
X596236Y163980D01*
Y163906D01*
Y163850D01*
Y163832D01*
Y160000D01*
X585000D01*
Y161444D01*
X589553D01*
Y163036D01*
X585000Y166071D01*
Y167793D01*
X585055D01*
X589628Y164628D01*
D02*
G37*
G36*
X586370Y203901D02*
X589535Y207048D01*
X589868Y207344D01*
X590201Y207622D01*
X590516Y207844D01*
X590831Y208047D01*
X591127Y208214D01*
X591404Y208343D01*
X591664Y208454D01*
X591904Y208547D01*
X592126Y208621D01*
X592311Y208677D01*
X592497Y208714D01*
X592626Y208751D01*
X592756D01*
X592830Y208769D01*
X592904D01*
X593144Y208751D01*
X593366Y208732D01*
X593792Y208621D01*
X594162Y208454D01*
X594477Y208288D01*
X594736Y208103D01*
X594921Y207936D01*
X594995Y207881D01*
X595051Y207825D01*
X595069Y207807D01*
X595088Y207788D01*
X595255Y207603D01*
X595384Y207399D01*
X595514Y207214D01*
X595606Y207011D01*
X595773Y206604D01*
X595884Y206215D01*
X595939Y205882D01*
X595976Y205733D01*
Y205604D01*
X595995Y205511D01*
Y205437D01*
Y205382D01*
Y205363D01*
X595958Y204919D01*
X595884Y204512D01*
X595773Y204160D01*
X595662Y203846D01*
X595532Y203586D01*
X595421Y203401D01*
X595366Y203327D01*
X595347Y203272D01*
X595310Y203253D01*
Y203235D01*
X595032Y202920D01*
X594755Y202679D01*
X594477Y202457D01*
X594218Y202309D01*
X593977Y202180D01*
X593792Y202087D01*
X593718Y202068D01*
X593663Y202050D01*
X593644Y202031D01*
X593626D01*
X593107Y203364D01*
X593329Y203438D01*
X593533Y203531D01*
X593718Y203642D01*
X593866Y203771D01*
X593996Y203864D01*
X594088Y203957D01*
X594144Y204031D01*
X594162Y204049D01*
X594311Y204253D01*
X594422Y204475D01*
X594496Y204697D01*
X594551Y204882D01*
X594588Y205067D01*
X594607Y205197D01*
Y205289D01*
Y205326D01*
X594588Y205641D01*
X594533Y205919D01*
X594440Y206159D01*
X594366Y206363D01*
X594274Y206511D01*
X594181Y206641D01*
X594125Y206715D01*
X594107Y206733D01*
X593903Y206918D01*
X593700Y207048D01*
X593515Y207159D01*
X593311Y207214D01*
X593144Y207251D01*
X593015Y207288D01*
X592904D01*
X592608Y207270D01*
X592330Y207214D01*
X592071Y207122D01*
X591849Y207029D01*
X591664Y206918D01*
X591515Y206844D01*
X591423Y206770D01*
X591386Y206751D01*
X591238Y206641D01*
X591090Y206511D01*
X590757Y206233D01*
X590405Y205900D01*
X590053Y205585D01*
X589739Y205289D01*
X589609Y205160D01*
X589498Y205049D01*
X589387Y204956D01*
X589313Y204882D01*
X589276Y204845D01*
X589257Y204826D01*
X586444Y202031D01*
X585000D01*
Y208899D01*
X586370D01*
Y203901D01*
D02*
G37*
G36*
X589165Y218172D02*
X589461Y218135D01*
X589739Y218098D01*
X590016Y218024D01*
X590516Y217839D01*
X590738Y217746D01*
X590942Y217654D01*
X591127Y217543D01*
X591275Y217450D01*
X591423Y217358D01*
X591534Y217265D01*
X591627Y217191D01*
X591701Y217154D01*
X591738Y217117D01*
X591756Y217099D01*
X591960Y216895D01*
X592145Y216691D01*
X592311Y216469D01*
X592441Y216247D01*
X592552Y216044D01*
X592645Y215822D01*
X592793Y215414D01*
X592885Y215062D01*
X592904Y214914D01*
X592922Y214785D01*
X592941Y214674D01*
Y214600D01*
Y214544D01*
Y214526D01*
X592922Y214211D01*
X592885Y213933D01*
X592830Y213656D01*
X592756Y213434D01*
X592682Y213230D01*
X592626Y213101D01*
X592589Y213008D01*
X592571Y212971D01*
X592422Y212730D01*
X592274Y212508D01*
X592126Y212323D01*
X591960Y212175D01*
X591830Y212064D01*
X591719Y211971D01*
X591645Y211916D01*
X591627Y211897D01*
Y211842D01*
X592700Y211897D01*
X596236D01*
Y210454D01*
X585000D01*
Y211842D01*
X586055D01*
Y211897D01*
X585851Y212064D01*
X585666Y212230D01*
X585500Y212416D01*
X585370Y212582D01*
X585259Y212730D01*
X585185Y212860D01*
X585130Y212934D01*
X585111Y212971D01*
X585000Y213249D01*
X584907Y213508D01*
X584852Y213767D01*
X584796Y214007D01*
X584778Y214211D01*
X584759Y214378D01*
Y214489D01*
Y214526D01*
X584778Y214803D01*
X584815Y215081D01*
X584870Y215322D01*
X584944Y215562D01*
X585130Y216007D01*
X585352Y216377D01*
X585444Y216543D01*
X585555Y216691D01*
X585648Y216803D01*
X585740Y216914D01*
X585814Y216988D01*
X585870Y217043D01*
X585907Y217080D01*
X585925Y217099D01*
X586166Y217284D01*
X586388Y217469D01*
X586647Y217598D01*
X586888Y217728D01*
X587129Y217839D01*
X587388Y217932D01*
X587832Y218061D01*
X588054Y218098D01*
X588239Y218135D01*
X588406Y218154D01*
X588554Y218172D01*
X588684Y218191D01*
X588850D01*
X589165Y218172D01*
D02*
G37*
G36*
X602477Y59238D02*
Y55980D01*
X580000Y47500D01*
Y50685D01*
X586073Y52906D01*
Y62349D01*
X580000Y64534D01*
Y67718D01*
X602477Y59238D01*
D02*
G37*
G36*
X592700Y182601D02*
X586721Y180306D01*
Y180269D01*
X592700Y178010D01*
Y176437D01*
X585000Y179547D01*
Y180990D01*
X592700Y184137D01*
Y182601D01*
D02*
G37*
G36*
X588350Y197108D02*
X588647Y197052D01*
X588906Y196978D01*
X589146Y196886D01*
X589331Y196793D01*
X589479Y196719D01*
X589553Y196664D01*
X589591Y196645D01*
X589831Y196460D01*
X590053Y196238D01*
X590238Y196034D01*
X590386Y195812D01*
X590497Y195627D01*
X590571Y195479D01*
X590627Y195368D01*
X590646Y195349D01*
Y195331D01*
X590720D01*
X590868Y195590D01*
X591034Y195812D01*
X591201Y195997D01*
X591386Y196164D01*
X591590Y196312D01*
X591775Y196423D01*
X591960Y196516D01*
X592145Y196590D01*
X592478Y196701D01*
X592626Y196738D01*
X592756Y196756D01*
X592867Y196775D01*
X593015D01*
X593256Y196756D01*
X593478Y196738D01*
X593903Y196627D01*
X594274Y196478D01*
X594570Y196293D01*
X594810Y196108D01*
X594995Y195960D01*
X595107Y195849D01*
X595144Y195831D01*
Y195812D01*
X595292Y195627D01*
X595421Y195423D01*
X595643Y195016D01*
X595791Y194627D01*
X595884Y194239D01*
X595958Y193906D01*
X595976Y193776D01*
Y193647D01*
X595995Y193535D01*
Y193461D01*
Y193424D01*
Y193406D01*
X595976Y192999D01*
X595902Y192610D01*
X595810Y192277D01*
X595699Y191981D01*
X595569Y191740D01*
X595477Y191555D01*
X595403Y191444D01*
X595384Y191425D01*
Y191407D01*
X595144Y191111D01*
X594884Y190851D01*
X594607Y190648D01*
X594347Y190481D01*
X594125Y190352D01*
X593940Y190278D01*
X593866Y190241D01*
X593811Y190222D01*
X593792Y190204D01*
X593774D01*
X593218Y191536D01*
X593459Y191647D01*
X593681Y191758D01*
X593866Y191888D01*
X594014Y192036D01*
X594162Y192184D01*
X594274Y192351D01*
X594366Y192499D01*
X594440Y192665D01*
X594533Y192943D01*
X594570Y193073D01*
X594588Y193184D01*
X594607Y193276D01*
Y193350D01*
Y193387D01*
Y193406D01*
X594588Y193702D01*
X594533Y193980D01*
X594459Y194220D01*
X594385Y194405D01*
X594311Y194572D01*
X594237Y194683D01*
X594181Y194757D01*
X594162Y194776D01*
X593996Y194942D01*
X593811Y195072D01*
X593607Y195164D01*
X593422Y195238D01*
X593274Y195275D01*
X593126Y195294D01*
X593015D01*
X592737Y195275D01*
X592497Y195201D01*
X592293Y195127D01*
X592108Y195016D01*
X591960Y194924D01*
X591867Y194831D01*
X591793Y194757D01*
X591775Y194739D01*
X591608Y194516D01*
X591497Y194294D01*
X591404Y194054D01*
X591349Y193832D01*
X591312Y193628D01*
X591293Y193480D01*
Y193369D01*
Y193350D01*
Y193332D01*
Y192517D01*
X589942D01*
Y193443D01*
X589924Y193776D01*
X589850Y194072D01*
X589776Y194331D01*
X589665Y194553D01*
X589572Y194739D01*
X589479Y194887D01*
X589405Y194961D01*
X589387Y194998D01*
X589183Y195220D01*
X588943Y195386D01*
X588721Y195498D01*
X588517Y195590D01*
X588313Y195627D01*
X588165Y195646D01*
X588073Y195664D01*
X588036D01*
X587758Y195646D01*
X587480Y195571D01*
X587258Y195460D01*
X587055Y195349D01*
X586888Y195238D01*
X586777Y195127D01*
X586684Y195053D01*
X586666Y195035D01*
X586481Y194776D01*
X586351Y194516D01*
X586259Y194257D01*
X586203Y194017D01*
X586166Y193813D01*
X586129Y193647D01*
Y193535D01*
Y193517D01*
Y193498D01*
X586148Y193221D01*
X586203Y192943D01*
X586277Y192721D01*
X586370Y192517D01*
X586444Y192351D01*
X586518Y192240D01*
X586573Y192147D01*
X586592Y192129D01*
X586796Y191925D01*
X587018Y191758D01*
X587240Y191610D01*
X587462Y191499D01*
X587665Y191407D01*
X587832Y191351D01*
X587943Y191314D01*
X587962Y191296D01*
X587980D01*
X587425Y189981D01*
X586999Y190148D01*
X586610Y190333D01*
X586277Y190555D01*
X585999Y190777D01*
X585759Y190981D01*
X585592Y191148D01*
X585500Y191277D01*
X585481Y191296D01*
X585463Y191314D01*
X585222Y191684D01*
X585055Y192073D01*
X584926Y192443D01*
X584852Y192777D01*
X584796Y193073D01*
X584778Y193184D01*
Y193295D01*
X584759Y193387D01*
Y193443D01*
Y193480D01*
Y193498D01*
X584778Y193776D01*
X584796Y194054D01*
X584907Y194553D01*
X585055Y194979D01*
X585222Y195368D01*
X585315Y195516D01*
X585389Y195664D01*
X585463Y195794D01*
X585537Y195886D01*
X585592Y195960D01*
X585648Y196016D01*
X585666Y196053D01*
X585685Y196071D01*
X585870Y196256D01*
X586055Y196423D01*
X586259Y196553D01*
X586444Y196682D01*
X586647Y196793D01*
X586851Y196867D01*
X587221Y196997D01*
X587536Y197071D01*
X587684Y197089D01*
X587795Y197108D01*
X587906Y197126D01*
X588036D01*
X588350Y197108D01*
D02*
G37*
G36*
X586129Y200643D02*
X586277Y200606D01*
X586407Y200569D01*
X586518Y200514D01*
X586610Y200440D01*
X586666Y200403D01*
X586703Y200366D01*
X586721Y200347D01*
X586833Y200236D01*
X586906Y200107D01*
X586962Y199977D01*
X586999Y199866D01*
X587018Y199755D01*
X587036Y199662D01*
Y199607D01*
Y199588D01*
X587018Y199422D01*
X586981Y199292D01*
X586943Y199162D01*
X586888Y199051D01*
X586814Y198959D01*
X586777Y198885D01*
X586740Y198848D01*
X586721Y198829D01*
X586610Y198718D01*
X586481Y198644D01*
X586351Y198589D01*
X586240Y198552D01*
X586129Y198533D01*
X586037Y198515D01*
X585962D01*
X585796Y198533D01*
X585666Y198570D01*
X585537Y198607D01*
X585426Y198681D01*
X585333Y198737D01*
X585259Y198774D01*
X585222Y198811D01*
X585204Y198829D01*
X585111Y198959D01*
X585037Y199088D01*
X584981Y199199D01*
X584944Y199329D01*
X584926Y199440D01*
X584907Y199514D01*
Y199570D01*
Y199588D01*
X584926Y199755D01*
X584963Y199903D01*
X585000Y200032D01*
X585055Y200144D01*
X585111Y200236D01*
X585167Y200292D01*
X585185Y200329D01*
X585204Y200347D01*
X585333Y200458D01*
X585463Y200532D01*
X585574Y200588D01*
X585703Y200625D01*
X585814Y200643D01*
X585888Y200662D01*
X585962D01*
X586129Y200643D01*
D02*
G37*
%LPC*%
G36*
X589813Y174401D02*
X589776D01*
Y169977D01*
X590072Y170069D01*
X590331Y170180D01*
X590571Y170310D01*
X590757Y170440D01*
X590905Y170551D01*
X591016Y170662D01*
X591090Y170736D01*
X591108Y170754D01*
X591275Y170976D01*
X591404Y171217D01*
X591497Y171458D01*
X591571Y171680D01*
X591608Y171865D01*
X591627Y172031D01*
Y172124D01*
Y172161D01*
X591608Y172513D01*
X591552Y172827D01*
X591460Y173105D01*
X591367Y173327D01*
X591256Y173494D01*
X591182Y173623D01*
X591108Y173716D01*
X591090Y173734D01*
X590886Y173938D01*
X590664Y174086D01*
X590442Y174197D01*
X590238Y174290D01*
X590053Y174345D01*
X589905Y174382D01*
X589813Y174401D01*
D02*
G37*
G36*
X589628Y125892D02*
X589554D01*
Y117042D01*
X590146Y117227D01*
X590665Y117450D01*
X591146Y117709D01*
X591516Y117968D01*
X591813Y118190D01*
X592035Y118412D01*
X592183Y118561D01*
X592220Y118598D01*
X592553Y119042D01*
X592812Y119523D01*
X592998Y120005D01*
X593146Y120449D01*
X593220Y120819D01*
X593257Y121153D01*
Y121338D01*
Y121412D01*
X593220Y122116D01*
X593109Y122745D01*
X592923Y123300D01*
X592738Y123745D01*
X592516Y124078D01*
X592368Y124337D01*
X592220Y124522D01*
X592183Y124559D01*
X591776Y124967D01*
X591331Y125263D01*
X590887Y125485D01*
X590480Y125670D01*
X590109Y125781D01*
X589813Y125856D01*
X589628Y125892D01*
D02*
G37*
G36*
X587924Y109229D02*
X587702D01*
X586813Y109155D01*
X586036Y109007D01*
X585332Y108785D01*
X584777Y108525D01*
X584333Y108229D01*
X583962Y108007D01*
X583777Y107859D01*
X583703Y107785D01*
X583407Y107526D01*
X583185Y107229D01*
X582777Y106637D01*
X582518Y106081D01*
X582296Y105526D01*
X582185Y105045D01*
X582148Y104637D01*
X582111Y104489D01*
Y104415D01*
Y104341D01*
Y104304D01*
X582185Y103563D01*
X582370Y102860D01*
X582592Y102267D01*
X582888Y101749D01*
X583185Y101342D01*
X583407Y101045D01*
X583592Y100860D01*
X583666Y100786D01*
X584296Y100342D01*
X584962Y100008D01*
X585629Y99749D01*
X586258Y99601D01*
X586851Y99490D01*
X587073Y99453D01*
X587295D01*
X587480Y99416D01*
X587702D01*
X588554Y99490D01*
X589332Y99638D01*
X589998Y99860D01*
X590591Y100120D01*
X591035Y100342D01*
X591368Y100564D01*
X591590Y100712D01*
X591665Y100786D01*
X591961Y101045D01*
X592183Y101342D01*
X592590Y101934D01*
X592886Y102527D01*
X593072Y103082D01*
X593183Y103563D01*
X593220Y103971D01*
X593257Y104119D01*
Y104230D01*
Y104267D01*
Y104304D01*
Y104674D01*
X593183Y105045D01*
X592998Y105711D01*
X592738Y106304D01*
X592479Y106822D01*
X592183Y107229D01*
X591924Y107526D01*
X591739Y107711D01*
X591702Y107785D01*
X591665D01*
X591035Y108266D01*
X590405Y108636D01*
X589739Y108896D01*
X589109Y109044D01*
X588554Y109155D01*
X588295Y109192D01*
X588110D01*
X587924Y109229D01*
D02*
G37*
G36*
X593033Y165868D02*
X592904D01*
X592608Y165849D01*
X592330Y165775D01*
X592071Y165683D01*
X591867Y165571D01*
X591701Y165442D01*
X591590Y165349D01*
X591497Y165275D01*
X591478Y165257D01*
X591293Y165016D01*
X591145Y164757D01*
X591053Y164516D01*
X590979Y164276D01*
X590942Y164072D01*
X590923Y163906D01*
X590905Y163795D01*
Y163776D01*
Y163758D01*
Y161444D01*
X594866D01*
Y163850D01*
X594847Y164165D01*
X594773Y164442D01*
X594681Y164683D01*
X594570Y164905D01*
X594459Y165072D01*
X594366Y165183D01*
X594292Y165275D01*
X594274Y165294D01*
X594051Y165479D01*
X593811Y165627D01*
X593589Y165720D01*
X593366Y165794D01*
X593181Y165831D01*
X593033Y165868D01*
D02*
G37*
G36*
X588961Y216747D02*
X588850D01*
X588406Y216710D01*
X588017Y216636D01*
X587665Y216525D01*
X587388Y216395D01*
X587166Y216247D01*
X586981Y216136D01*
X586888Y216062D01*
X586851Y216025D01*
X586703Y215896D01*
X586592Y215747D01*
X586388Y215451D01*
X586259Y215174D01*
X586148Y214896D01*
X586092Y214655D01*
X586074Y214452D01*
X586055Y214378D01*
Y214341D01*
Y214304D01*
Y214285D01*
X586092Y213915D01*
X586185Y213563D01*
X586296Y213267D01*
X586444Y213008D01*
X586592Y212804D01*
X586703Y212656D01*
X586796Y212564D01*
X586833Y212527D01*
X587147Y212305D01*
X587480Y212138D01*
X587814Y212008D01*
X588128Y211934D01*
X588424Y211879D01*
X588535Y211860D01*
X588647D01*
X588739Y211842D01*
X588850D01*
X589276Y211879D01*
X589665Y211953D01*
X589998Y212064D01*
X590294Y212193D01*
X590516Y212305D01*
X590683Y212416D01*
X590794Y212490D01*
X590831Y212527D01*
X590979Y212656D01*
X591090Y212804D01*
X591293Y213101D01*
X591441Y213397D01*
X591534Y213674D01*
X591590Y213915D01*
X591608Y214119D01*
X591627Y214193D01*
Y214248D01*
Y214267D01*
Y214285D01*
Y214470D01*
X591590Y214655D01*
X591497Y214988D01*
X591367Y215285D01*
X591238Y215544D01*
X591090Y215747D01*
X590960Y215896D01*
X590868Y215988D01*
X590849Y216025D01*
X590831D01*
X590516Y216266D01*
X590201Y216451D01*
X589868Y216580D01*
X589553Y216654D01*
X589276Y216710D01*
X589146Y216728D01*
X589054D01*
X588961Y216747D01*
D02*
G37*
G36*
X588776Y61349D02*
Y53869D01*
X598922Y57535D01*
Y57683D01*
X588776Y61349D01*
D02*
G37*
%LPD*%
D10*
X126864Y294882D02*
X135039Y286706D01*
X124035Y294882D02*
X135039Y283878D01*
X132521Y294882D02*
X135039Y292363D01*
X129692Y294882D02*
X135039Y289535D01*
X115550Y294882D02*
X135039Y275393D01*
X112722Y294882D02*
X135039Y272564D01*
X121207Y294882D02*
X135039Y281049D01*
X118378Y294882D02*
X135039Y278221D01*
X104236Y294882D02*
X135039Y264079D01*
X101408Y294882D02*
X135039Y261250D01*
X109893Y294882D02*
X135039Y269736D01*
X107065Y294882D02*
X135039Y266907D01*
X101181Y292280D02*
X135039Y258422D01*
X101181Y257303D02*
X135039Y291161D01*
X101181Y260132D02*
X135039Y293990D01*
X101181Y217705D02*
X135039Y251564D01*
X101181Y249854D02*
X135039Y215996D01*
X101181Y245989D02*
X135039Y279848D01*
X101181Y278138D02*
X135039Y244280D01*
X101181Y212048D02*
X135039Y245907D01*
X101181Y244197D02*
X135039Y210339D01*
X101181Y214877D02*
X135039Y248735D01*
X101181Y247025D02*
X135039Y213167D01*
X101181Y286623D02*
X135039Y252765D01*
X101181Y251646D02*
X135039Y285505D01*
X101181Y289452D02*
X135039Y255594D01*
X101181Y254475D02*
X135039Y288333D01*
X101181Y248818D02*
X135039Y282676D01*
X101181Y280966D02*
X135039Y247108D01*
X101181Y283795D02*
X135039Y249937D01*
X101181Y285588D02*
X110475Y294882D01*
X101181Y282759D02*
X113304Y294882D01*
X101181Y294073D02*
X101990Y294882D01*
X101181Y291244D02*
X104819Y294882D01*
X101181Y275310D02*
X135039Y241451D01*
X101181Y240333D02*
X135039Y274191D01*
X101181Y279931D02*
X116132Y294882D01*
X101181Y243161D02*
X135039Y277019D01*
X101181Y274274D02*
X121789Y294882D01*
X101181Y271445D02*
X124618Y294882D01*
X101181Y288416D02*
X107647Y294882D01*
X101181Y277102D02*
X118961Y294882D01*
X101181Y265789D02*
X130274Y294882D01*
X101181Y262960D02*
X133103Y294882D01*
X101181Y268617D02*
X127446Y294882D01*
X101181Y209220D02*
X135039Y243078D01*
X101181Y241369D02*
X135039Y207510D01*
X101181Y220534D02*
X135039Y254392D01*
X101181Y252682D02*
X135039Y218824D01*
X101181Y203563D02*
X135039Y237421D01*
X101181Y235712D02*
X135039Y201853D01*
X101181Y206392D02*
X135039Y240250D01*
X101181Y238540D02*
X135039Y204682D01*
X101181Y269653D02*
X135039Y235794D01*
X101181Y266824D02*
X135039Y232966D01*
X101181Y272481D02*
X135039Y238623D01*
X101181Y237504D02*
X135039Y271362D01*
X101181Y223362D02*
X135039Y257220D01*
X101181Y255511D02*
X135039Y221652D01*
X101181Y226190D02*
X135039Y260049D01*
X101181Y190457D02*
X135039Y156598D01*
X101181Y155480D02*
X135039Y189338D01*
X101181Y193285D02*
X135039Y159427D01*
X101181Y158308D02*
X135039Y192166D01*
Y401D02*
Y294882D01*
X101181Y184800D02*
X135039Y150942D01*
X101181Y187628D02*
X135039Y153770D01*
X101181Y152651D02*
X135039Y186510D01*
X101181Y146994D02*
X135039Y180853D01*
X101181Y179143D02*
X135039Y145285D01*
X101181Y149823D02*
X135039Y183681D01*
X101181Y181972D02*
X135039Y148113D01*
X101181Y176315D02*
X135039Y142456D01*
X101181Y141338D02*
X135039Y175196D01*
X101181Y144166D02*
X135039Y178024D01*
X118636Y401D02*
X135039Y16804D01*
X121465Y401D02*
X135039Y13975D01*
X112979Y401D02*
X135039Y22461D01*
X115808Y401D02*
X135039Y19632D01*
X129950Y401D02*
X135039Y5490D01*
X132778Y401D02*
X135039Y2662D01*
X124293Y401D02*
X135039Y11147D01*
X127121Y401D02*
X135039Y8319D01*
X101666Y401D02*
X135039Y33774D01*
X101666Y401D02*
X135039Y33774D01*
X101181Y173486D02*
X135039Y139628D01*
X101181Y170658D02*
X135039Y136800D01*
X107322Y401D02*
X135039Y28117D01*
X110151Y401D02*
X135039Y25289D01*
X104494Y401D02*
X135039Y30946D01*
X101181Y221569D02*
X135039Y187711D01*
X101181Y186592D02*
X135039Y220451D01*
X101181Y224398D02*
X135039Y190540D01*
X101181Y189421D02*
X135039Y223279D01*
X101181Y215913D02*
X135039Y182054D01*
X101181Y180936D02*
X135039Y214794D01*
X101181Y218741D02*
X135039Y184883D01*
X101181Y183764D02*
X135039Y217622D01*
X101181Y197906D02*
X135039Y231765D01*
X101181Y230055D02*
X135039Y196196D01*
X101181Y200735D02*
X135039Y234593D01*
X101181Y232883D02*
X135039Y199025D01*
X101181Y227226D02*
X135039Y193368D01*
X101181Y192249D02*
X135039Y226108D01*
X101181Y195078D02*
X135039Y228936D01*
X101181Y166794D02*
X135039Y200652D01*
X101181Y198942D02*
X135039Y165084D01*
X101181Y169622D02*
X135039Y203480D01*
X101181Y201770D02*
X135039Y167912D01*
X101181Y196114D02*
X135039Y162255D01*
X101181Y161137D02*
X135039Y194995D01*
X101181Y163965D02*
X135039Y197823D01*
X101181Y210256D02*
X135039Y176398D01*
X101181Y175279D02*
X135039Y209137D01*
X101181Y213084D02*
X135039Y179226D01*
X101181Y178107D02*
X135039Y211965D01*
X101181Y172450D02*
X135039Y206309D01*
X101181Y204599D02*
X135039Y170741D01*
X101181Y207427D02*
X135039Y173569D01*
X101181Y93254D02*
X135039Y127113D01*
X101181Y125403D02*
X135039Y91545D01*
X101181Y96083D02*
X135039Y129941D01*
X101181Y128231D02*
X135039Y94373D01*
X101181Y87598D02*
X135039Y121456D01*
X101181Y119746D02*
X135039Y85888D01*
X101181Y90426D02*
X135039Y124284D01*
X101181Y122574D02*
X135039Y88716D01*
X101181Y136717D02*
X135039Y102858D01*
X101181Y101740D02*
X135039Y135598D01*
X101181Y139545D02*
X135039Y105687D01*
X101181Y104568D02*
X135039Y138426D01*
X101181Y98911D02*
X135039Y132769D01*
X101181Y131060D02*
X135039Y97202D01*
X101181Y133888D02*
X135039Y100030D01*
X101181Y105604D02*
X135039Y71746D01*
X101181Y70627D02*
X135039Y104485D01*
X101181Y108432D02*
X135039Y74574D01*
X101181Y73455D02*
X135039Y107314D01*
X101181Y99947D02*
X135039Y66089D01*
X101181Y64970D02*
X135039Y98828D01*
X101181Y102776D02*
X135039Y68917D01*
X101181Y67798D02*
X135039Y101657D01*
X101181Y81941D02*
X135039Y115799D01*
X101181Y114089D02*
X135039Y80231D01*
X101181Y84769D02*
X135039Y118627D01*
X101181Y116918D02*
X135039Y83059D01*
X101181Y111261D02*
X135039Y77403D01*
X101181Y76284D02*
X135039Y110142D01*
X101181Y79112D02*
X135039Y112970D01*
X101181Y167829D02*
X135039Y133971D01*
X101181Y132852D02*
X135039Y166711D01*
X101181Y138509D02*
X135039Y172368D01*
X101181Y135681D02*
X135039Y169539D01*
X101181Y162172D02*
X135039Y128314D01*
X101181Y127196D02*
X135039Y161054D01*
X101181Y165001D02*
X135039Y131143D01*
X101181Y130024D02*
X135039Y163882D01*
X101181Y231847D02*
X135039Y265706D01*
X101181Y263996D02*
X135039Y230138D01*
X101181Y294882D02*
X135039D01*
X101181Y234676D02*
X135039Y268534D01*
X101181Y261168D02*
X135039Y227309D01*
X101181Y258339D02*
X135039Y224481D01*
X101181Y229019D02*
X135039Y262877D01*
X101181Y113053D02*
X135039Y146912D01*
X101181Y145202D02*
X135039Y111344D01*
X101181Y115882D02*
X135039Y149740D01*
X101181Y148030D02*
X135039Y114172D01*
X101181Y142374D02*
X135039Y108515D01*
X101181Y107396D02*
X135039Y141255D01*
X101181Y110225D02*
X135039Y144083D01*
X101181Y156516D02*
X135039Y122657D01*
X101181Y121539D02*
X135039Y155397D01*
X101181Y159344D02*
X135039Y125486D01*
X101181Y124367D02*
X135039Y158225D01*
X101181Y118710D02*
X135039Y152568D01*
X101181Y150859D02*
X135039Y117000D01*
X101181Y153687D02*
X135039Y119829D01*
X101181Y50828D02*
X135039Y84686D01*
X101181Y82976D02*
X135039Y49118D01*
X101181Y53656D02*
X135039Y87515D01*
X101181Y85805D02*
X135039Y51947D01*
X101181Y45171D02*
X135039Y79029D01*
X101181Y77320D02*
X135039Y43461D01*
X101181Y47999D02*
X135039Y81858D01*
X101181Y80148D02*
X135039Y46290D01*
X101181Y94290D02*
X135039Y60432D01*
X101181Y59313D02*
X135039Y93171D01*
X101181Y97119D02*
X135039Y63260D01*
X101181Y62142D02*
X135039Y96000D01*
X101181Y56485D02*
X135039Y90343D01*
X101181Y88633D02*
X135039Y54775D01*
X101181Y91462D02*
X135039Y57604D01*
X101181Y63177D02*
X135039Y29319D01*
X101181Y28200D02*
X135039Y62059D01*
X101181Y66006D02*
X135039Y32148D01*
X101181Y31029D02*
X135039Y64887D01*
X101181Y57521D02*
X135039Y23662D01*
X101181Y22544D02*
X135039Y56402D01*
X101181Y60349D02*
X135039Y26491D01*
X101181Y25372D02*
X135039Y59230D01*
X101181Y39514D02*
X135039Y73372D01*
X101181Y71663D02*
X135039Y37804D01*
X101181Y42343D02*
X135039Y76201D01*
X101181Y74491D02*
X135039Y40633D01*
X101181Y68834D02*
X135039Y34976D01*
X101181Y33857D02*
X135039Y67716D01*
X101181Y36686D02*
X135039Y70544D01*
X101181Y43378D02*
X135039Y9520D01*
X101181Y8401D02*
X135039Y42260D01*
X101181Y46207D02*
X135039Y12349D01*
X101181Y11230D02*
X135039Y45088D01*
X101181Y37722D02*
X135039Y3863D01*
X101181Y2744D02*
X135039Y36603D01*
X101181Y40550D02*
X135039Y6692D01*
X101181Y5573D02*
X135039Y39431D01*
X101181Y51864D02*
X135039Y18005D01*
X101181Y16887D02*
X135039Y50745D01*
X101181Y54692D02*
X135039Y20834D01*
X101181Y19715D02*
X135039Y53573D01*
X101181Y49035D02*
X135039Y15177D01*
X101181Y14058D02*
X135039Y47916D01*
X101181Y401D02*
Y294882D01*
Y15094D02*
X115875Y401D01*
X101181Y12266D02*
X113046Y401D01*
X101181Y9437D02*
X110218Y401D01*
X101181Y6609D02*
X107389Y401D01*
X101181Y3780D02*
X104561Y401D01*
X101181D02*
X135039D01*
X101181Y952D02*
X101733Y401D01*
X101181Y34893D02*
X135039Y1035D01*
X101181Y32065D02*
X132845Y401D01*
X101181Y29236D02*
X130017Y401D01*
X101181Y26408D02*
X127188Y401D01*
X101181Y23579D02*
X124360Y401D01*
X101181Y20751D02*
X121531Y401D01*
X101181Y17923D02*
X118703Y401D01*
X449872Y167445D02*
X453572D01*
X449872Y162545D02*
Y167445D01*
Y162545D02*
X450572Y161845D01*
X453572Y162545D02*
Y167445D01*
X452872Y161845D02*
X453572Y162545D01*
X450572Y161845D02*
X452872D01*
X436845Y21538D02*
Y23838D01*
Y21538D02*
X437545Y20838D01*
X442445D01*
X436845Y23838D02*
X437545Y24538D01*
X442445D01*
Y20838D02*
Y24538D01*
X423297Y214098D02*
X426997D01*
X423297Y209198D02*
Y214098D01*
Y209198D02*
X423997Y208498D01*
X426997Y209198D02*
Y214098D01*
X426297Y208498D02*
X426997Y209198D01*
X423997Y208498D02*
X426297D01*
X439231Y38200D02*
X447231D01*
X439231Y34600D02*
Y38200D01*
Y34600D02*
X447231D01*
Y38200D01*
X439331Y105100D02*
X447331D01*
X439331Y101500D02*
Y105100D01*
Y101500D02*
X447331D01*
Y105100D01*
X439532Y172300D02*
X447532D01*
X439532Y168700D02*
Y172300D01*
Y168700D02*
X447532D01*
Y172300D01*
X439868Y239000D02*
X447868D01*
X439868Y235400D02*
Y239000D01*
Y235400D02*
X447868D01*
Y239000D01*
X429531Y34600D02*
X437532D01*
Y38200D01*
X429531D02*
X437532D01*
X429531Y34600D02*
Y38200D01*
Y101500D02*
X437532D01*
Y105100D01*
X429531D02*
X437532D01*
X429531Y101500D02*
Y105100D01*
Y168700D02*
X437532D01*
Y172300D01*
X429531D02*
X437532D01*
X429531Y168700D02*
Y172300D01*
X430532Y235400D02*
X438531D01*
Y239000D01*
X430532D02*
X438531D01*
X430532Y235400D02*
Y239000D01*
X443968Y158800D02*
Y162400D01*
X435968Y158800D02*
X443968D01*
X435968D02*
Y162400D01*
X443968D01*
X184576Y58997D02*
X193376D01*
Y53797D02*
Y58997D01*
X184576Y53797D02*
Y58997D01*
Y41597D02*
X193376D01*
Y46797D01*
X184576Y41597D02*
Y46797D01*
X179655Y74861D02*
X188455D01*
X179655D02*
Y80061D01*
X188455Y74861D02*
Y80061D01*
X179655Y92261D02*
X188455D01*
X179655Y87061D02*
Y92261D01*
X188455Y87061D02*
Y92261D01*
X189498Y74861D02*
X198298D01*
X189498D02*
Y80061D01*
X198298Y74861D02*
Y80061D01*
X189498Y92261D02*
X198298D01*
X189498Y87061D02*
Y92261D01*
X198298Y87061D02*
Y92261D01*
X401743Y216472D02*
Y224472D01*
Y216472D02*
X405343D01*
Y224472D01*
X401743D02*
X405343D01*
X401743Y148559D02*
Y156559D01*
Y148559D02*
X405343D01*
Y156559D01*
X401743D02*
X405343D01*
X401743Y82614D02*
Y90614D01*
Y82614D02*
X405343D01*
Y90614D01*
X401743D02*
X405343D01*
X401743Y15685D02*
Y23685D01*
Y15685D02*
X405343D01*
Y23685D01*
X401743D02*
X405343D01*
X433008Y230484D02*
X441008D01*
Y234084D01*
X433008D02*
X441008D01*
X433008Y230484D02*
Y234084D01*
X422076Y216472D02*
Y224472D01*
X418476D02*
X422076D01*
X418476Y216472D02*
Y224472D01*
Y216472D02*
X422076D01*
X433008Y210798D02*
X441008D01*
Y214398D01*
X433008D02*
X441008D01*
X433008Y210798D02*
Y214398D01*
X431800Y269932D02*
Y277931D01*
X428200D02*
X431800D01*
X428200Y269932D02*
Y277931D01*
Y269932D02*
X431800D01*
X434976Y33296D02*
X442976D01*
X434976Y29696D02*
Y33296D01*
Y29696D02*
X442976D01*
Y33296D01*
X203219Y66392D02*
Y71592D01*
X194419Y66392D02*
Y71592D01*
X203219D01*
Y54192D02*
Y59392D01*
X194419Y54192D02*
Y59392D01*
Y54192D02*
X203219D01*
X198003Y45213D02*
Y53213D01*
Y45213D02*
X201603D01*
Y53213D01*
X198003D02*
X201603D01*
X224241Y49150D02*
Y57150D01*
X220641D02*
X224241D01*
X220641Y49150D02*
Y57150D01*
Y49150D02*
X224241D01*
X216704Y49150D02*
Y57150D01*
Y49150D02*
X220304D01*
Y57150D01*
X216704D02*
X220304D01*
X205646Y67745D02*
X213646D01*
X205646Y64145D02*
Y67745D01*
Y64145D02*
X213646D01*
Y67745D01*
X232115Y135764D02*
Y143764D01*
X228515D02*
X232115D01*
X228515Y135764D02*
Y143764D01*
Y135764D02*
X232115D01*
X236052Y135764D02*
Y143764D01*
X232452D02*
X236052D01*
X232452Y135764D02*
Y143764D01*
Y135764D02*
X236052D01*
X220641Y139701D02*
Y147701D01*
Y139701D02*
X224241D01*
Y147701D01*
X220641D02*
X224241D01*
X231236Y162570D02*
X239236D01*
Y166170D01*
X231236D02*
X239236D01*
X231236Y162570D02*
Y166170D01*
X233436Y125921D02*
Y133921D01*
Y125921D02*
X237036D01*
Y133921D01*
X233436D02*
X237036D01*
X533795Y284027D02*
Y287627D01*
X541795D01*
Y284027D02*
Y287627D01*
X533795Y284027D02*
X541795D01*
X533402Y10405D02*
Y14005D01*
X541402D01*
Y10405D02*
Y14005D01*
X533402Y10405D02*
X541402D01*
X159617Y37339D02*
X163217D01*
X159617D02*
Y45339D01*
X163217D01*
Y37339D02*
Y45339D01*
X153712Y37339D02*
X157312D01*
X153712D02*
Y45339D01*
X157312D01*
Y37339D02*
Y45339D01*
X147806Y37339D02*
X151406D01*
X147806D02*
Y45339D01*
X151406D01*
Y37339D02*
Y45339D01*
X422413Y224472D02*
X426013D01*
Y216472D02*
Y224472D01*
X422413Y216472D02*
X426013D01*
X422413D02*
Y224472D01*
X424400Y269969D02*
X428000D01*
X424400D02*
Y277969D01*
X428000D01*
Y269969D02*
Y277969D01*
X435961Y163554D02*
Y167154D01*
X443961D01*
Y163554D02*
Y167154D01*
X435961Y163554D02*
X443961D01*
X434976Y25759D02*
Y29359D01*
X442976D01*
Y25759D02*
Y29359D01*
X434976Y25759D02*
X442976D01*
X165291Y41507D02*
Y45107D01*
X173291D01*
Y41507D02*
Y45107D01*
X165291Y41507D02*
X173291D01*
X174150D02*
Y45107D01*
X182150D01*
Y41507D02*
Y45107D01*
X174150Y41507D02*
X182150D01*
X183008Y67098D02*
Y70698D01*
X191008D01*
Y67098D02*
Y70698D01*
X183008Y67098D02*
X191008D01*
X220641Y40291D02*
X224241D01*
X220641D02*
Y48291D01*
X224241D01*
Y40291D02*
Y48291D01*
X224578Y53213D02*
X228178D01*
Y45213D02*
Y53213D01*
X224578Y45213D02*
X228178D01*
X224578D02*
Y53213D01*
X220641Y58008D02*
X224241D01*
X220641D02*
Y66008D01*
X224241D01*
Y58008D02*
Y66008D01*
X205646Y60208D02*
Y63808D01*
X213646D01*
Y60208D02*
Y63808D01*
X205646Y60208D02*
X213646D01*
X224578Y135764D02*
X228178D01*
X224578D02*
Y143764D01*
X228178D01*
Y135764D02*
Y143764D01*
X146600Y96900D02*
Y105700D01*
X151800D01*
X146600Y96900D02*
X151800D01*
X164000D02*
Y105700D01*
X158800D02*
X164000D01*
X158800Y96900D02*
X164000D01*
X177634Y139499D02*
X178467D01*
X178050D01*
Y137417D01*
X178467Y137000D01*
X178884D01*
X179300Y137417D01*
X176801Y137000D02*
Y139499D01*
X175551D01*
X175135Y139083D01*
Y138250D01*
X175551Y137833D01*
X176801D01*
X172635Y137000D02*
X174302D01*
X172635Y138666D01*
Y139083D01*
X173052Y139499D01*
X173885D01*
X174302Y139083D01*
X71334Y140499D02*
X72167D01*
X71750D01*
Y138417D01*
X72167Y138000D01*
X72584D01*
X73000Y138417D01*
X70501Y138000D02*
Y140499D01*
X69251D01*
X68835Y140083D01*
Y139250D01*
X69251Y138833D01*
X70501D01*
X68002Y138000D02*
X67169D01*
X67585D01*
Y140499D01*
X68002Y140083D01*
X326834Y71499D02*
X327667D01*
X327250D01*
Y69416D01*
X327667Y69000D01*
X328083D01*
X328500Y69416D01*
X326001Y71499D02*
X324335D01*
Y71083D01*
X326001Y69416D01*
Y69000D01*
X430499Y208000D02*
X428000D01*
Y209250D01*
X428416Y209666D01*
X430083D01*
X430499Y209250D01*
Y208000D01*
X428000Y212165D02*
Y210499D01*
X429666Y212165D01*
X430083D01*
X430499Y211749D01*
Y210916D01*
X430083Y210499D01*
Y212998D02*
X430499Y213415D01*
Y214248D01*
X430083Y214665D01*
X428416D01*
X428000Y214248D01*
Y213415D01*
X428416Y212998D01*
X430083D01*
X441500Y19499D02*
Y17000D01*
X440250D01*
X439834Y17416D01*
Y19083D01*
X440250Y19499D01*
X441500D01*
X439001D02*
X437335D01*
Y19083D01*
X439001Y17416D01*
Y17000D01*
X457999Y162500D02*
X455500D01*
Y163750D01*
X455917Y164166D01*
X457583D01*
X457999Y163750D01*
Y162500D01*
Y166665D02*
X457583Y165832D01*
X456750Y164999D01*
X455917D01*
X455500Y165416D01*
Y166249D01*
X455917Y166665D01*
X456333D01*
X456750Y166249D01*
Y164999D01*
X372583Y18166D02*
X372999Y17750D01*
Y16917D01*
X372583Y16500D01*
X370917D01*
X370500Y16917D01*
Y17750D01*
X370917Y18166D01*
Y18999D02*
X370500Y19416D01*
Y20249D01*
X370917Y20665D01*
X372583D01*
X372999Y20249D01*
Y19416D01*
X372583Y18999D01*
X372166D01*
X371750Y19416D01*
Y20665D01*
X372999Y21498D02*
X370500D01*
Y22748D01*
X370917Y23165D01*
X372583D01*
X372999Y22748D01*
Y21498D01*
X372583Y84666D02*
X372999Y84250D01*
Y83416D01*
X372583Y83000D01*
X370917D01*
X370500Y83416D01*
Y84250D01*
X370917Y84666D01*
Y85499D02*
X370500Y85916D01*
Y86749D01*
X370917Y87165D01*
X372583D01*
X372999Y86749D01*
Y85916D01*
X372583Y85499D01*
X372166D01*
X371750Y85916D01*
Y87165D01*
X372583Y89665D02*
X372999Y89248D01*
Y88415D01*
X372583Y87998D01*
X370917D01*
X370500Y88415D01*
Y89248D01*
X370917Y89665D01*
X372583Y150166D02*
X372999Y149750D01*
Y148916D01*
X372583Y148500D01*
X370917D01*
X370500Y148916D01*
Y149750D01*
X370917Y150166D01*
Y150999D02*
X370500Y151416D01*
Y152249D01*
X370917Y152665D01*
X372583D01*
X372999Y152249D01*
Y151416D01*
X372583Y150999D01*
X372166D01*
X371750Y151416D01*
Y152665D01*
X372999Y153498D02*
X370500D01*
Y154748D01*
X370917Y155165D01*
X371333D01*
X371750Y154748D01*
Y153498D01*
Y154748D01*
X372166Y155165D01*
X372583D01*
X372999Y154748D01*
Y153498D01*
X372083Y218166D02*
X372499Y217750D01*
Y216916D01*
X372083Y216500D01*
X370416D01*
X370000Y216916D01*
Y217750D01*
X370416Y218166D01*
Y218999D02*
X370000Y219416D01*
Y220249D01*
X370416Y220665D01*
X372083D01*
X372499Y220249D01*
Y219416D01*
X372083Y218999D01*
X371666D01*
X371250Y219416D01*
Y220665D01*
X370000Y221498D02*
X371666D01*
X372499Y222331D01*
X371666Y223165D01*
X370000D01*
X371250D01*
Y221498D01*
X458000Y95000D02*
Y97499D01*
X456750D01*
X456334Y97083D01*
Y96250D01*
X456750Y95833D01*
X458000D01*
X457167D02*
X456334Y95000D01*
X455501Y97083D02*
X455084Y97499D01*
X454251D01*
X453835Y97083D01*
Y96666D01*
X454251Y96250D01*
X454668D01*
X454251D01*
X453835Y95833D01*
Y95416D01*
X454251Y95000D01*
X455084D01*
X455501Y95416D01*
X453002Y97083D02*
X452585Y97499D01*
X451752D01*
X451335Y97083D01*
Y96666D01*
X451752Y96250D01*
X451335Y95833D01*
Y95416D01*
X451752Y95000D01*
X452585D01*
X453002Y95416D01*
Y95833D01*
X452585Y96250D01*
X453002Y96666D01*
Y97083D01*
X452585Y96250D02*
X451752D01*
X458500Y65000D02*
Y67499D01*
X457250D01*
X456834Y67083D01*
Y66250D01*
X457250Y65833D01*
X458500D01*
X457667D02*
X456834Y65000D01*
X456001D02*
X455168D01*
X455584D01*
Y67499D01*
X456001Y67083D01*
X453918Y67499D02*
Y65000D01*
X452669D01*
X452252Y65417D01*
Y67083D01*
X452669Y67499D01*
X453918D01*
X458000Y130500D02*
Y132999D01*
X456750D01*
X456334Y132583D01*
Y131750D01*
X456750Y131333D01*
X458000D01*
X457167D02*
X456334Y130500D01*
X455501D02*
X454668D01*
X455084D01*
Y132999D01*
X455501Y132583D01*
X451752D02*
X452169Y132999D01*
X453002D01*
X453418Y132583D01*
Y130917D01*
X453002Y130500D01*
X452169D01*
X451752Y130917D01*
X457500Y197500D02*
Y199999D01*
X456250D01*
X455834Y199583D01*
Y198750D01*
X456250Y198333D01*
X457500D01*
X456667D02*
X455834Y197500D01*
X455001D02*
X454168D01*
X454584D01*
Y199999D01*
X455001Y199583D01*
X452918Y199999D02*
Y197500D01*
X451669D01*
X451252Y197916D01*
Y198333D01*
X451669Y198750D01*
X452918D01*
X451669D01*
X451252Y199166D01*
Y199583D01*
X451669Y199999D01*
X452918D01*
X459000Y263500D02*
Y265999D01*
X457750D01*
X457334Y265583D01*
Y264750D01*
X457750Y264333D01*
X459000D01*
X458167D02*
X457334Y263500D01*
X456501D02*
X455668D01*
X456084D01*
Y265999D01*
X456501Y265583D01*
X454418Y263500D02*
Y265166D01*
X453585Y265999D01*
X452752Y265166D01*
Y263500D01*
Y264750D01*
X454418D01*
X429834Y75083D02*
X430250Y75499D01*
X431083D01*
X431500Y75083D01*
Y73417D01*
X431083Y73000D01*
X430250D01*
X429834Y73417D01*
X427335Y75499D02*
X429001D01*
Y74250D01*
X428168Y74666D01*
X427751D01*
X427335Y74250D01*
Y73417D01*
X427751Y73000D01*
X428584D01*
X429001Y73417D01*
X424835Y73000D02*
X426502D01*
X424835Y74666D01*
Y75083D01*
X425252Y75499D01*
X426085D01*
X426502Y75083D01*
X430234Y95883D02*
X430650Y96299D01*
X431484D01*
X431900Y95883D01*
Y94217D01*
X431484Y93800D01*
X430650D01*
X430234Y94217D01*
X427735Y96299D02*
X429401D01*
Y95050D01*
X428568Y95466D01*
X428151D01*
X427735Y95050D01*
Y94217D01*
X428151Y93800D01*
X428984D01*
X429401Y94217D01*
X426902Y93800D02*
X426069D01*
X426485D01*
Y96299D01*
X426902Y95883D01*
X430334Y67083D02*
X430750Y67499D01*
X431583D01*
X432000Y67083D01*
Y65417D01*
X431583Y65000D01*
X430750D01*
X430334Y65417D01*
X427835Y65000D02*
X429501D01*
X427835Y66666D01*
Y67083D01*
X428251Y67499D01*
X429084D01*
X429501Y67083D01*
X427002Y67499D02*
Y65000D01*
X425752D01*
X425336Y65417D01*
Y67083D01*
X425752Y67499D01*
X427002D01*
X440804Y137199D02*
X441221Y137616D01*
X442054D01*
X442470Y137199D01*
Y135533D01*
X442054Y135117D01*
X441221D01*
X440804Y135533D01*
X438305Y135117D02*
X439971D01*
X438305Y136783D01*
Y137199D01*
X438721Y137616D01*
X439554D01*
X439971Y137199D01*
X435806D02*
X436222Y137616D01*
X437055D01*
X437472Y137199D01*
Y135533D01*
X437055Y135117D01*
X436222D01*
X435806Y135533D01*
X440834Y204583D02*
X441250Y204999D01*
X442084D01*
X442500Y204583D01*
Y202917D01*
X442084Y202500D01*
X441250D01*
X440834Y202917D01*
X438335Y202500D02*
X440001D01*
X438335Y204166D01*
Y204583D01*
X438751Y204999D01*
X439584D01*
X440001Y204583D01*
X437502Y204999D02*
Y202500D01*
X436252D01*
X435836Y202917D01*
Y203333D01*
X436252Y203750D01*
X437502D01*
X436252D01*
X435836Y204166D01*
Y204583D01*
X436252Y204999D01*
X437502D01*
X441334Y270083D02*
X441750Y270499D01*
X442584D01*
X443000Y270083D01*
Y268417D01*
X442584Y268000D01*
X441750D01*
X441334Y268417D01*
X438835Y268000D02*
X440501D01*
X438835Y269666D01*
Y270083D01*
X439251Y270499D01*
X440084D01*
X440501Y270083D01*
X438002Y268000D02*
Y269666D01*
X437169Y270499D01*
X436336Y269666D01*
Y268000D01*
Y269250D01*
X438002D01*
X429634Y43483D02*
X430050Y43899D01*
X430884D01*
X431300Y43483D01*
Y41816D01*
X430884Y41400D01*
X430050D01*
X429634Y41816D01*
X428801Y41400D02*
X427968D01*
X428384D01*
Y43899D01*
X428801Y43483D01*
X426718Y43899D02*
Y41400D01*
X425468D01*
X425052Y41816D01*
Y43483D01*
X425468Y43899D01*
X426718D01*
X429834Y114183D02*
X430250Y114599D01*
X431083D01*
X431500Y114183D01*
Y112516D01*
X431083Y112100D01*
X430250D01*
X429834Y112516D01*
X429001Y112100D02*
X428168D01*
X428584D01*
Y114599D01*
X429001Y114183D01*
X425252D02*
X425668Y114599D01*
X426502D01*
X426918Y114183D01*
Y112516D01*
X426502Y112100D01*
X425668D01*
X425252Y112516D01*
X429834Y177583D02*
X430250Y177999D01*
X431083D01*
X431500Y177583D01*
Y175917D01*
X431083Y175500D01*
X430250D01*
X429834Y175917D01*
X429001Y175500D02*
X428168D01*
X428584D01*
Y177999D01*
X429001Y177583D01*
X426918Y177999D02*
Y175500D01*
X425668D01*
X425252Y175917D01*
Y176333D01*
X425668Y176750D01*
X426918D01*
X425668D01*
X425252Y177166D01*
Y177583D01*
X425668Y177999D01*
X426918D01*
X430834Y245283D02*
X431250Y245699D01*
X432084D01*
X432500Y245283D01*
Y243617D01*
X432084Y243200D01*
X431250D01*
X430834Y243617D01*
X430001Y243200D02*
X429168D01*
X429584D01*
Y245699D01*
X430001Y245283D01*
X427918Y243200D02*
Y244866D01*
X427085Y245699D01*
X426252Y244866D01*
Y243200D01*
Y244450D01*
X427918D01*
X447500Y215999D02*
Y213916D01*
X447084Y213500D01*
X446250D01*
X445834Y213916D01*
Y215999D01*
X443335D02*
X445001D01*
Y214750D01*
X444168Y215166D01*
X443751D01*
X443335Y214750D01*
Y213916D01*
X443751Y213500D01*
X444584D01*
X445001Y213916D01*
X225000Y145000D02*
X227499D01*
Y146250D01*
X227083Y146666D01*
X226250D01*
X225833Y146250D01*
Y145000D01*
Y145833D02*
X225000Y146666D01*
X225416Y147499D02*
X225000Y147916D01*
Y148749D01*
X225416Y149165D01*
X227083D01*
X227499Y148749D01*
Y147916D01*
X227083Y147499D01*
X226666D01*
X226250Y147916D01*
Y149165D01*
X225416Y149998D02*
X225000Y150415D01*
Y151248D01*
X225416Y151664D01*
X227083D01*
X227499Y151248D01*
Y150415D01*
X227083Y149998D01*
X226666D01*
X226250Y150415D01*
Y151664D01*
X213500Y68500D02*
Y70999D01*
X212250D01*
X211834Y70583D01*
Y69750D01*
X212250Y69333D01*
X213500D01*
X212667D02*
X211834Y68500D01*
X209335Y70999D02*
X211001D01*
Y69750D01*
X210168Y70166D01*
X209751D01*
X209335Y69750D01*
Y68916D01*
X209751Y68500D01*
X210584D01*
X211001Y68916D01*
X208502D02*
X208085Y68500D01*
X207252D01*
X206836Y68916D01*
Y70583D01*
X207252Y70999D01*
X208085D01*
X208502Y70583D01*
Y70166D01*
X208085Y69750D01*
X206836D01*
X221000Y67000D02*
X223499D01*
Y68250D01*
X223083Y68666D01*
X222250D01*
X221833Y68250D01*
Y67000D01*
Y67833D02*
X221000Y68666D01*
X223499Y71165D02*
Y69499D01*
X222250D01*
X222666Y70332D01*
Y70749D01*
X222250Y71165D01*
X221416D01*
X221000Y70749D01*
Y69916D01*
X221416Y69499D01*
X223083Y71998D02*
X223499Y72415D01*
Y73248D01*
X223083Y73664D01*
X222666D01*
X222250Y73248D01*
X221833Y73664D01*
X221416D01*
X221000Y73248D01*
Y72415D01*
X221416Y71998D01*
X221833D01*
X222250Y72415D01*
X222666Y71998D01*
X223083D01*
X222250Y72415D02*
Y73248D01*
X225500Y37000D02*
X227999D01*
Y38250D01*
X227583Y38666D01*
X226750D01*
X226333Y38250D01*
Y37000D01*
Y37833D02*
X225500Y38666D01*
X227999Y41165D02*
Y39499D01*
X226750D01*
X227166Y40332D01*
Y40749D01*
X226750Y41165D01*
X225917D01*
X225500Y40749D01*
Y39916D01*
X225917Y39499D01*
X227999Y43665D02*
Y41998D01*
X226750D01*
X227166Y42831D01*
Y43248D01*
X226750Y43665D01*
X225917D01*
X225500Y43248D01*
Y42415D01*
X225917Y41998D01*
X221500Y32000D02*
X223999D01*
Y33250D01*
X223583Y33666D01*
X222750D01*
X222333Y33250D01*
Y32000D01*
Y32833D02*
X221500Y33666D01*
X223999Y36165D02*
Y34499D01*
X222750D01*
X223166Y35332D01*
Y35749D01*
X222750Y36165D01*
X221917D01*
X221500Y35749D01*
Y34916D01*
X221917Y34499D01*
X221500Y38664D02*
Y36998D01*
X223166Y38664D01*
X223583D01*
X223999Y38248D01*
Y37415D01*
X223583Y36998D01*
X190000Y71500D02*
Y73999D01*
X188750D01*
X188334Y73583D01*
Y72750D01*
X188750Y72333D01*
X190000D01*
X189167D02*
X188334Y71500D01*
X186251D02*
Y73999D01*
X187501Y72750D01*
X185835D01*
X185002Y73583D02*
X184585Y73999D01*
X183752D01*
X183335Y73583D01*
Y73166D01*
X183752Y72750D01*
X183335Y72333D01*
Y71917D01*
X183752Y71500D01*
X184585D01*
X185002Y71917D01*
Y72333D01*
X184585Y72750D01*
X185002Y73166D01*
Y73583D01*
X184585Y72750D02*
X183752D01*
X181102Y46260D02*
Y48759D01*
X179853D01*
X179436Y48342D01*
Y47509D01*
X179853Y47093D01*
X181102D01*
X180269D02*
X179436Y46260D01*
X177354D02*
Y48759D01*
X178603Y47509D01*
X176937D01*
X174438Y48759D02*
X176104D01*
Y47509D01*
X175271Y47926D01*
X174854D01*
X174438Y47509D01*
Y46676D01*
X174854Y46260D01*
X175687D01*
X176104Y46676D01*
X172244Y46260D02*
Y48759D01*
X170994D01*
X170578Y48342D01*
Y47509D01*
X170994Y47093D01*
X172244D01*
X171411D02*
X170578Y46260D01*
X168495D02*
Y48759D01*
X169745Y47509D01*
X168079D01*
X165996Y46260D02*
Y48759D01*
X167246Y47509D01*
X165580D01*
X433600Y26200D02*
Y28699D01*
X432350D01*
X431934Y28283D01*
Y27450D01*
X432350Y27033D01*
X433600D01*
X432767D02*
X431934Y26200D01*
X431101Y28283D02*
X430684Y28699D01*
X429851D01*
X429435Y28283D01*
Y27866D01*
X429851Y27450D01*
X430268D01*
X429851D01*
X429435Y27033D01*
Y26616D01*
X429851Y26200D01*
X430684D01*
X431101Y26616D01*
X428602D02*
X428185Y26200D01*
X427352D01*
X426935Y26616D01*
Y28283D01*
X427352Y28699D01*
X428185D01*
X428602Y28283D01*
Y27866D01*
X428185Y27450D01*
X426935D01*
X434800Y163800D02*
Y166299D01*
X433550D01*
X433134Y165883D01*
Y165050D01*
X433550Y164633D01*
X434800D01*
X433967D02*
X433134Y163800D01*
X432301Y165883D02*
X431884Y166299D01*
X431051D01*
X430635Y165883D01*
Y165466D01*
X431051Y165050D01*
X431468D01*
X431051D01*
X430635Y164633D01*
Y164216D01*
X431051Y163800D01*
X431884D01*
X432301Y164216D01*
X428135Y166299D02*
X428969Y165883D01*
X429802Y165050D01*
Y164216D01*
X429385Y163800D01*
X428552D01*
X428135Y164216D01*
Y164633D01*
X428552Y165050D01*
X429802D01*
X424800Y262100D02*
X427299D01*
Y263350D01*
X426883Y263766D01*
X426050D01*
X425633Y263350D01*
Y262100D01*
Y262933D02*
X424800Y263766D01*
X426883Y264599D02*
X427299Y265016D01*
Y265849D01*
X426883Y266265D01*
X426466D01*
X426050Y265849D01*
Y265432D01*
Y265849D01*
X425633Y266265D01*
X425216D01*
X424800Y265849D01*
Y265016D01*
X425216Y264599D01*
X426883Y267098D02*
X427299Y267515D01*
Y268348D01*
X426883Y268764D01*
X425216D01*
X424800Y268348D01*
Y267515D01*
X425216Y267098D01*
X426883D01*
X423228Y225394D02*
X425728D01*
Y226643D01*
X425311Y227060D01*
X424478D01*
X424061Y226643D01*
Y225394D01*
Y226227D02*
X423228Y227060D01*
Y229559D02*
Y227893D01*
X424895Y229559D01*
X425311D01*
X425728Y229142D01*
Y228309D01*
X425311Y227893D01*
Y230392D02*
X425728Y230809D01*
Y231642D01*
X425311Y232058D01*
X424895D01*
X424478Y231642D01*
X424061Y232058D01*
X423645D01*
X423228Y231642D01*
Y230809D01*
X423645Y230392D01*
X424061D01*
X424478Y230809D01*
X424895Y230392D01*
X425311D01*
X424478Y230809D02*
Y231642D01*
X151500Y46500D02*
Y48999D01*
X150250D01*
X149834Y48583D01*
Y47750D01*
X150250Y47333D01*
X151500D01*
X150667D02*
X149834Y46500D01*
X149001Y48999D02*
X147335D01*
Y48583D01*
X149001Y46916D01*
Y46500D01*
X158000D02*
Y48999D01*
X156750D01*
X156334Y48583D01*
Y47750D01*
X156750Y47333D01*
X158000D01*
X157167D02*
X156334Y46500D01*
X153835Y48999D02*
X154668Y48583D01*
X155501Y47750D01*
Y46916D01*
X155084Y46500D01*
X154251D01*
X153835Y46916D01*
Y47333D01*
X154251Y47750D01*
X155501D01*
X164000Y46500D02*
Y48999D01*
X162750D01*
X162334Y48583D01*
Y47750D01*
X162750Y47333D01*
X164000D01*
X163167D02*
X162334Y46500D01*
X159835Y48999D02*
X161501D01*
Y47750D01*
X160668Y48166D01*
X160251D01*
X159835Y47750D01*
Y46916D01*
X160251Y46500D01*
X161084D01*
X161501Y46916D01*
X532300Y10900D02*
Y13399D01*
X531050D01*
X530634Y12983D01*
Y12150D01*
X531050Y11733D01*
X532300D01*
X531467D02*
X530634Y10900D01*
X528551D02*
Y13399D01*
X529801Y12150D01*
X528135D01*
X539732Y288846D02*
Y291346D01*
X538483D01*
X538066Y290929D01*
Y290096D01*
X538483Y289680D01*
X539732D01*
X538899D02*
X538066Y288846D01*
X537233Y290929D02*
X536817Y291346D01*
X535984D01*
X535567Y290929D01*
Y290513D01*
X535984Y290096D01*
X536400D01*
X535984D01*
X535567Y289680D01*
Y289263D01*
X535984Y288846D01*
X536817D01*
X537233Y289263D01*
X236083Y117666D02*
X236499Y117250D01*
Y116417D01*
X236083Y116000D01*
X234417D01*
X234000Y116417D01*
Y117250D01*
X234417Y117666D01*
X234000Y118499D02*
Y119332D01*
Y118916D01*
X236499D01*
X236083Y118499D01*
Y120582D02*
X236499Y120998D01*
Y121831D01*
X236083Y122248D01*
X234417D01*
X234000Y121831D01*
Y120998D01*
X234417Y120582D01*
X236083D01*
Y123081D02*
X236499Y123498D01*
Y124331D01*
X236083Y124747D01*
X234417D01*
X234000Y124331D01*
Y123498D01*
X234417Y123081D01*
X236083D01*
X236834Y169083D02*
X237250Y169499D01*
X238084D01*
X238500Y169083D01*
Y167417D01*
X238084Y167000D01*
X237250D01*
X236834Y167417D01*
X236001D02*
X235584Y167000D01*
X234751D01*
X234335Y167417D01*
Y169083D01*
X234751Y169499D01*
X235584D01*
X236001Y169083D01*
Y168666D01*
X235584Y168250D01*
X234335D01*
X233502Y167417D02*
X233085Y167000D01*
X232252D01*
X231836Y167417D01*
Y169083D01*
X232252Y169499D01*
X233085D01*
X233502Y169083D01*
Y168666D01*
X233085Y168250D01*
X231836D01*
X219083Y142166D02*
X219499Y141750D01*
Y140917D01*
X219083Y140500D01*
X217417D01*
X217000Y140917D01*
Y141750D01*
X217417Y142166D01*
Y142999D02*
X217000Y143416D01*
Y144249D01*
X217417Y144665D01*
X219083D01*
X219499Y144249D01*
Y143416D01*
X219083Y142999D01*
X218666D01*
X218250Y143416D01*
Y144665D01*
X219083Y145498D02*
X219499Y145915D01*
Y146748D01*
X219083Y147164D01*
X218666D01*
X218250Y146748D01*
X217833Y147164D01*
X217417D01*
X217000Y146748D01*
Y145915D01*
X217417Y145498D01*
X217833D01*
X218250Y145915D01*
X218666Y145498D01*
X219083D01*
X218250Y145915D02*
Y146748D01*
X253083Y143666D02*
X253499Y143250D01*
Y142417D01*
X253083Y142000D01*
X251416D01*
X251000Y142417D01*
Y143250D01*
X251416Y143666D01*
Y144499D02*
X251000Y144916D01*
Y145749D01*
X251416Y146165D01*
X253083D01*
X253499Y145749D01*
Y144916D01*
X253083Y144499D01*
X252666D01*
X252250Y144916D01*
Y146165D01*
X253499Y146998D02*
Y148664D01*
X253083D01*
X251416Y146998D01*
X251000D01*
X235083Y146666D02*
X235499Y146250D01*
Y145416D01*
X235083Y145000D01*
X233417D01*
X233000Y145416D01*
Y146250D01*
X233417Y146666D01*
Y147499D02*
X233000Y147916D01*
Y148749D01*
X233417Y149165D01*
X235083D01*
X235499Y148749D01*
Y147916D01*
X235083Y147499D01*
X234666D01*
X234250Y147916D01*
Y149165D01*
X235499Y151664D02*
X235083Y150831D01*
X234250Y149998D01*
X233417D01*
X233000Y150415D01*
Y151248D01*
X233417Y151664D01*
X233833D01*
X234250Y151248D01*
Y149998D01*
X231083Y146666D02*
X231499Y146250D01*
Y145416D01*
X231083Y145000D01*
X229416D01*
X229000Y145416D01*
Y146250D01*
X229416Y146666D01*
Y147499D02*
X229000Y147916D01*
Y148749D01*
X229416Y149165D01*
X231083D01*
X231499Y148749D01*
Y147916D01*
X231083Y147499D01*
X230666D01*
X230250Y147916D01*
Y149165D01*
X231499Y151664D02*
Y149998D01*
X230250D01*
X230666Y150831D01*
Y151248D01*
X230250Y151664D01*
X229416D01*
X229000Y151248D01*
Y150415D01*
X229416Y149998D01*
X239583Y147666D02*
X239999Y147250D01*
Y146416D01*
X239583Y146000D01*
X237916D01*
X237500Y146416D01*
Y147250D01*
X237916Y147666D01*
Y148499D02*
X237500Y148916D01*
Y149749D01*
X237916Y150165D01*
X239583D01*
X239999Y149749D01*
Y148916D01*
X239583Y148499D01*
X239166D01*
X238750Y148916D01*
Y150165D01*
X237500Y152248D02*
X239999D01*
X238750Y150998D01*
Y152664D01*
X211834Y74583D02*
X212250Y74999D01*
X213084D01*
X213500Y74583D01*
Y72917D01*
X213084Y72500D01*
X212250D01*
X211834Y72917D01*
X211001Y74999D02*
X209335D01*
Y74583D01*
X211001Y72917D01*
Y72500D01*
X207252D02*
Y74999D01*
X208502Y73750D01*
X206836D01*
X218583Y43166D02*
X218999Y42750D01*
Y41916D01*
X218583Y41500D01*
X216916D01*
X216500Y41916D01*
Y42750D01*
X216916Y43166D01*
X218999Y43999D02*
Y45665D01*
X218583D01*
X216916Y43999D01*
X216500D01*
X218583Y46498D02*
X218999Y46915D01*
Y47748D01*
X218583Y48164D01*
X218166D01*
X217750Y47748D01*
Y47331D01*
Y47748D01*
X217333Y48164D01*
X216916D01*
X216500Y47748D01*
Y46915D01*
X216916Y46498D01*
X227583Y56666D02*
X227999Y56250D01*
Y55417D01*
X227583Y55000D01*
X225917D01*
X225500Y55417D01*
Y56250D01*
X225917Y56666D01*
X227999Y57499D02*
Y59165D01*
X227583D01*
X225917Y57499D01*
X225500D01*
Y59998D02*
Y60831D01*
Y60415D01*
X227999D01*
X227583Y59998D01*
X201834Y43583D02*
X202250Y43999D01*
X203083D01*
X203500Y43583D01*
Y41916D01*
X203083Y41500D01*
X202250D01*
X201834Y41916D01*
X201001Y43999D02*
X199335D01*
Y43583D01*
X201001Y41916D01*
Y41500D01*
X198502Y43583D02*
X198085Y43999D01*
X197252D01*
X196835Y43583D01*
Y41916D01*
X197252Y41500D01*
X198085D01*
X198502Y41916D01*
Y43583D01*
X190834Y64083D02*
X191250Y64499D01*
X192084D01*
X192500Y64083D01*
Y62416D01*
X192084Y62000D01*
X191250D01*
X190834Y62416D01*
X188335Y64499D02*
X189168Y64083D01*
X190001Y63250D01*
Y62416D01*
X189584Y62000D01*
X188751D01*
X188335Y62416D01*
Y62833D01*
X188751Y63250D01*
X190001D01*
X187502Y64083D02*
X187085Y64499D01*
X186252D01*
X185836Y64083D01*
Y63666D01*
X186252Y63250D01*
X185836Y62833D01*
Y62416D01*
X186252Y62000D01*
X187085D01*
X187502Y62416D01*
Y62833D01*
X187085Y63250D01*
X187502Y63666D01*
Y64083D01*
X187085Y63250D02*
X186252D01*
X432134Y32483D02*
X432550Y32899D01*
X433384D01*
X433800Y32483D01*
Y30817D01*
X433384Y30400D01*
X432550D01*
X432134Y30817D01*
X429635Y32899D02*
X431301D01*
Y31650D01*
X430468Y32066D01*
X430051D01*
X429635Y31650D01*
Y30817D01*
X430051Y30400D01*
X430884D01*
X431301Y30817D01*
X428802Y32483D02*
X428385Y32899D01*
X427552D01*
X427136Y32483D01*
Y32066D01*
X427552Y31650D01*
X427969D01*
X427552D01*
X427136Y31233D01*
Y30817D01*
X427552Y30400D01*
X428385D01*
X428802Y30817D01*
X434883Y272566D02*
X435299Y272150D01*
Y271317D01*
X434883Y270900D01*
X433216D01*
X432800Y271317D01*
Y272150D01*
X433216Y272566D01*
X435299Y275065D02*
Y273399D01*
X434050D01*
X434466Y274232D01*
Y274649D01*
X434050Y275065D01*
X433216D01*
X432800Y274649D01*
Y273816D01*
X433216Y273399D01*
X434883Y275898D02*
X435299Y276315D01*
Y277148D01*
X434883Y277565D01*
X433216D01*
X432800Y277148D01*
Y276315D01*
X433216Y275898D01*
X434883D01*
X438834Y209583D02*
X439250Y209999D01*
X440084D01*
X440500Y209583D01*
Y207916D01*
X440084Y207500D01*
X439250D01*
X438834Y207916D01*
X436751Y207500D02*
Y209999D01*
X438001Y208750D01*
X436335D01*
X435502Y207916D02*
X435085Y207500D01*
X434252D01*
X433836Y207916D01*
Y209583D01*
X434252Y209999D01*
X435085D01*
X435502Y209583D01*
Y209166D01*
X435085Y208750D01*
X433836D01*
X421374Y227060D02*
X421791Y226643D01*
Y225810D01*
X421374Y225394D01*
X419708D01*
X419291Y225810D01*
Y226643D01*
X419708Y227060D01*
X419291Y229142D02*
X421791D01*
X420541Y227893D01*
Y229559D01*
X421374Y230392D02*
X421791Y230809D01*
Y231642D01*
X421374Y232058D01*
X420958D01*
X420541Y231642D01*
X420124Y232058D01*
X419708D01*
X419291Y231642D01*
Y230809D01*
X419708Y230392D01*
X420124D01*
X420541Y230809D01*
X420958Y230392D01*
X421374D01*
X420541Y230809D02*
Y231642D01*
X446934Y232783D02*
X447350Y233199D01*
X448183D01*
X448600Y232783D01*
Y231117D01*
X448183Y230700D01*
X447350D01*
X446934Y231117D01*
X444851Y230700D02*
Y233199D01*
X446101Y231950D01*
X444435D01*
X443602Y233199D02*
X441935D01*
Y232783D01*
X443602Y231117D01*
Y230700D01*
X408583Y18166D02*
X408999Y17750D01*
Y16917D01*
X408583Y16500D01*
X406917D01*
X406500Y16917D01*
Y17750D01*
X406917Y18166D01*
X406500Y20249D02*
X408999D01*
X407750Y18999D01*
Y20665D01*
X408999Y21498D02*
X406500D01*
Y22748D01*
X406917Y23165D01*
X408583D01*
X408999Y22748D01*
Y21498D01*
X408583Y85166D02*
X408999Y84750D01*
Y83916D01*
X408583Y83500D01*
X406917D01*
X406500Y83916D01*
Y84750D01*
X406917Y85166D01*
X406500Y87249D02*
X408999D01*
X407750Y85999D01*
Y87665D01*
X408583Y90165D02*
X408999Y89748D01*
Y88915D01*
X408583Y88498D01*
X406917D01*
X406500Y88915D01*
Y89748D01*
X406917Y90165D01*
X408583Y150666D02*
X408999Y150250D01*
Y149416D01*
X408583Y149000D01*
X406917D01*
X406500Y149416D01*
Y150250D01*
X406917Y150666D01*
X406500Y152749D02*
X408999D01*
X407750Y151499D01*
Y153165D01*
X408999Y153998D02*
X406500D01*
Y155248D01*
X406917Y155665D01*
X407333D01*
X407750Y155248D01*
Y153998D01*
Y155248D01*
X408166Y155665D01*
X408583D01*
X408999Y155248D01*
Y153998D01*
X408583Y219666D02*
X408999Y219250D01*
Y218417D01*
X408583Y218000D01*
X406917D01*
X406500Y218417D01*
Y219250D01*
X406917Y219666D01*
X406500Y221749D02*
X408999D01*
X407750Y220499D01*
Y222165D01*
X406500Y222998D02*
X408166D01*
X408999Y223831D01*
X408166Y224664D01*
X406500D01*
X407750D01*
Y222998D01*
X400834Y13583D02*
X401250Y13999D01*
X402083D01*
X402500Y13583D01*
Y11917D01*
X402083Y11500D01*
X401250D01*
X400834Y11917D01*
X400001Y13583D02*
X399584Y13999D01*
X398751D01*
X398335Y13583D01*
Y13166D01*
X398751Y12750D01*
X399168D01*
X398751D01*
X398335Y12333D01*
Y11917D01*
X398751Y11500D01*
X399584D01*
X400001Y11917D01*
X397502Y13999D02*
Y11500D01*
X396252D01*
X395835Y11917D01*
Y13583D01*
X396252Y13999D01*
X397502D01*
X405334Y81583D02*
X405750Y81999D01*
X406583D01*
X407000Y81583D01*
Y79917D01*
X406583Y79500D01*
X405750D01*
X405334Y79917D01*
X404501Y81583D02*
X404084Y81999D01*
X403251D01*
X402835Y81583D01*
Y81166D01*
X403251Y80750D01*
X403668D01*
X403251D01*
X402835Y80333D01*
Y79917D01*
X403251Y79500D01*
X404084D01*
X404501Y79917D01*
X400336Y81583D02*
X400752Y81999D01*
X401585D01*
X402002Y81583D01*
Y79917D01*
X401585Y79500D01*
X400752D01*
X400336Y79917D01*
X405834Y147583D02*
X406250Y147999D01*
X407084D01*
X407500Y147583D01*
Y145916D01*
X407084Y145500D01*
X406250D01*
X405834Y145916D01*
X405001Y147583D02*
X404584Y147999D01*
X403751D01*
X403335Y147583D01*
Y147166D01*
X403751Y146750D01*
X404168D01*
X403751D01*
X403335Y146333D01*
Y145916D01*
X403751Y145500D01*
X404584D01*
X405001Y145916D01*
X402502Y147999D02*
Y145500D01*
X401252D01*
X400836Y145916D01*
Y146333D01*
X401252Y146750D01*
X402502D01*
X401252D01*
X400836Y147166D01*
Y147583D01*
X401252Y147999D01*
X402502D01*
X405334Y215083D02*
X405750Y215499D01*
X406583D01*
X407000Y215083D01*
Y213417D01*
X406583Y213000D01*
X405750D01*
X405334Y213417D01*
X404501Y215083D02*
X404084Y215499D01*
X403251D01*
X402835Y215083D01*
Y214666D01*
X403251Y214250D01*
X403668D01*
X403251D01*
X402835Y213833D01*
Y213417D01*
X403251Y213000D01*
X404084D01*
X404501Y213417D01*
X402002Y213000D02*
Y214666D01*
X401169Y215499D01*
X400336Y214666D01*
Y213000D01*
Y214250D01*
X402002D01*
X195731Y95744D02*
X196148Y96161D01*
X196981D01*
X197398Y95744D01*
Y94078D01*
X196981Y93661D01*
X196148D01*
X195731Y94078D01*
X193232Y96161D02*
X194065Y95744D01*
X194898Y94911D01*
Y94078D01*
X194482Y93661D01*
X193649D01*
X193232Y94078D01*
Y94494D01*
X193649Y94911D01*
X194898D01*
X190733Y93661D02*
X192399D01*
X190733Y95328D01*
Y95744D01*
X191150Y96161D01*
X191983D01*
X192399Y95744D01*
X184889D02*
X185306Y96161D01*
X186139D01*
X186555Y95744D01*
Y94078D01*
X186139Y93661D01*
X185306D01*
X184889Y94078D01*
X182390Y96161D02*
X183223Y95744D01*
X184056Y94911D01*
Y94078D01*
X183639Y93661D01*
X182806D01*
X182390Y94078D01*
Y94494D01*
X182806Y94911D01*
X184056D01*
X181557Y95744D02*
X181140Y96161D01*
X180307D01*
X179891Y95744D01*
Y95328D01*
X180307Y94911D01*
X180724D01*
X180307D01*
X179891Y94494D01*
Y94078D01*
X180307Y93661D01*
X181140D01*
X181557Y94078D01*
X190834Y39583D02*
X191250Y39999D01*
X192084D01*
X192500Y39583D01*
Y37916D01*
X192084Y37500D01*
X191250D01*
X190834Y37916D01*
X188335Y39999D02*
X189168Y39583D01*
X190001Y38750D01*
Y37916D01*
X189584Y37500D01*
X188751D01*
X188335Y37916D01*
Y38333D01*
X188751Y38750D01*
X190001D01*
X187502Y37916D02*
X187085Y37500D01*
X186252D01*
X185836Y37916D01*
Y39583D01*
X186252Y39999D01*
X187085D01*
X187502Y39583D01*
Y39166D01*
X187085Y38750D01*
X185836D01*
X56000Y186499D02*
Y184000D01*
X54750D01*
X54334Y184416D01*
Y186083D01*
X54750Y186499D01*
X56000D01*
X53501Y184000D02*
X52668D01*
X53084D01*
Y186499D01*
X53501Y186083D01*
X51418D02*
X51002Y186499D01*
X50169D01*
X49752Y186083D01*
Y184416D01*
X50169Y184000D01*
X51002D01*
X51418Y184416D01*
Y186083D01*
X55000Y144999D02*
Y142500D01*
X53750D01*
X53334Y142917D01*
Y144583D01*
X53750Y144999D01*
X55000D01*
X52501Y142500D02*
X51668D01*
X52084D01*
Y144999D01*
X52501Y144583D01*
X50418Y142500D02*
X49585D01*
X50002D01*
Y144999D01*
X50418Y144583D01*
X272500Y263999D02*
Y261500D01*
X271250D01*
X270834Y261916D01*
Y263583D01*
X271250Y263999D01*
X272500D01*
X270001Y261500D02*
X269168D01*
X269584D01*
Y263999D01*
X270001Y263583D01*
X267918D02*
X267502Y263999D01*
X266669D01*
X266252Y263583D01*
Y263166D01*
X266669Y262750D01*
X266252Y262333D01*
Y261916D01*
X266669Y261500D01*
X267502D01*
X267918Y261916D01*
Y262333D01*
X267502Y262750D01*
X267918Y263166D01*
Y263583D01*
X267502Y262750D02*
X266669D01*
X150834Y240499D02*
X151667D01*
X151250D01*
Y238417D01*
X151667Y238000D01*
X152084D01*
X152500Y238417D01*
X150001Y238000D02*
X149168D01*
X149584D01*
Y240499D01*
X150001Y240083D01*
X44334Y153499D02*
X45167D01*
X44750D01*
Y151417D01*
X45167Y151000D01*
X45584D01*
X46000Y151417D01*
X41835Y153499D02*
X43501D01*
Y152250D01*
X42668Y152666D01*
X42251D01*
X41835Y152250D01*
Y151417D01*
X42251Y151000D01*
X43084D01*
X43501Y151417D01*
X42834Y28499D02*
X43667D01*
X43250D01*
Y26417D01*
X43667Y26000D01*
X44083D01*
X44500Y26417D01*
X40335Y28499D02*
X41168Y28083D01*
X42001Y27250D01*
Y26417D01*
X41584Y26000D01*
X40751D01*
X40335Y26417D01*
Y26833D01*
X40751Y27250D01*
X42001D01*
X421054Y275152D02*
Y273069D01*
X420637Y272653D01*
X419804D01*
X419387Y273069D01*
Y275152D01*
X418554Y272653D02*
X417721D01*
X418138D01*
Y275152D01*
X418554Y274735D01*
X416472Y272653D02*
Y274319D01*
X415639Y275152D01*
X414806Y274319D01*
Y272653D01*
Y273902D01*
X416472D01*
X422053Y208136D02*
Y206054D01*
X421637Y205637D01*
X420804D01*
X420387Y206054D01*
Y208136D01*
X419554Y205637D02*
X418721D01*
X419138D01*
Y208136D01*
X419554Y207720D01*
X417472Y208136D02*
Y205637D01*
X416222D01*
X415806Y206054D01*
Y206470D01*
X416222Y206887D01*
X417472D01*
X416222D01*
X415806Y207303D01*
Y207720D01*
X416222Y208136D01*
X417472D01*
X421554Y142621D02*
Y140538D01*
X421137Y140121D01*
X420304D01*
X419887Y140538D01*
Y142621D01*
X419054Y140121D02*
X418221D01*
X418638D01*
Y142621D01*
X419054Y142204D01*
X415306D02*
X415722Y142621D01*
X416555D01*
X416972Y142204D01*
Y140538D01*
X416555Y140121D01*
X415722D01*
X415306Y140538D01*
X421054Y75605D02*
Y73522D01*
X420637Y73106D01*
X419804D01*
X419387Y73522D01*
Y75605D01*
X418554Y73106D02*
X417721D01*
X418138D01*
Y75605D01*
X418554Y75188D01*
X416472Y75605D02*
Y73106D01*
X415222D01*
X414806Y73522D01*
Y75188D01*
X415222Y75605D01*
X416472D01*
X506694Y215433D02*
X508776D01*
X509193Y215017D01*
Y214183D01*
X508776Y213767D01*
X506694D01*
X509193Y211268D02*
Y212934D01*
X507527Y211268D01*
X507110D01*
X506694Y211684D01*
Y212517D01*
X507110Y212934D01*
X509193Y210435D02*
X507527D01*
X506694Y209602D01*
X507527Y208769D01*
X509193D01*
X507943D01*
Y210435D01*
X506694Y166772D02*
X508776D01*
X509193Y166355D01*
Y165522D01*
X508776Y165105D01*
X506694D01*
X509193Y162606D02*
Y164272D01*
X507527Y162606D01*
X507110D01*
X506694Y163023D01*
Y163856D01*
X507110Y164272D01*
X506694Y161773D02*
X509193D01*
Y160524D01*
X508776Y160107D01*
X508360D01*
X507943Y160524D01*
Y161773D01*
Y160524D01*
X507527Y160107D01*
X507110D01*
X506694Y160524D01*
Y161773D01*
X506576Y120630D02*
X508658D01*
X509075Y120213D01*
Y119380D01*
X508658Y118964D01*
X506576D01*
X509075Y116465D02*
Y118131D01*
X507409Y116465D01*
X506992D01*
X506576Y116881D01*
Y117714D01*
X506992Y118131D01*
Y113965D02*
X506576Y114382D01*
Y115215D01*
X506992Y115631D01*
X508658D01*
X509075Y115215D01*
Y114382D01*
X508658Y113965D01*
X506576Y80630D02*
X508658D01*
X509075Y80213D01*
Y79380D01*
X508658Y78964D01*
X506576D01*
X509075Y76465D02*
Y78131D01*
X507409Y76465D01*
X506992D01*
X506576Y76881D01*
Y77714D01*
X506992Y78131D01*
X506576Y75632D02*
X509075D01*
Y74382D01*
X508658Y73965D01*
X506992D01*
X506576Y74382D01*
Y75632D01*
X506694Y190433D02*
X508776D01*
X509193Y190017D01*
Y189183D01*
X508776Y188767D01*
X506694D01*
X507110Y187934D02*
X506694Y187517D01*
Y186684D01*
X507110Y186268D01*
X507527D01*
X507943Y186684D01*
Y187101D01*
Y186684D01*
X508360Y186268D01*
X508776D01*
X509193Y186684D01*
Y187517D01*
X508776Y187934D01*
X509193Y185435D02*
X507527D01*
X506694Y184602D01*
X507527Y183769D01*
X509193D01*
X507943D01*
Y185435D01*
X506694Y141969D02*
X508776D01*
X509193Y141552D01*
Y140719D01*
X508776Y140302D01*
X506694D01*
X507110Y139469D02*
X506694Y139053D01*
Y138220D01*
X507110Y137803D01*
X507527D01*
X507943Y138220D01*
Y138636D01*
Y138220D01*
X508360Y137803D01*
X508776D01*
X509193Y138220D01*
Y139053D01*
X508776Y139469D01*
X506694Y136970D02*
X509193D01*
Y135721D01*
X508776Y135304D01*
X508360D01*
X507943Y135721D01*
Y136970D01*
Y135721D01*
X507527Y135304D01*
X507110D01*
X506694Y135721D01*
Y136970D01*
X506969Y100433D02*
X509052D01*
X509469Y100016D01*
Y99183D01*
X509052Y98767D01*
X506969D01*
X507386Y97934D02*
X506969Y97517D01*
Y96684D01*
X507386Y96268D01*
X507802D01*
X508219Y96684D01*
Y97101D01*
Y96684D01*
X508636Y96268D01*
X509052D01*
X509469Y96684D01*
Y97517D01*
X509052Y97934D01*
X507386Y93769D02*
X506969Y94185D01*
Y95018D01*
X507386Y95435D01*
X509052D01*
X509469Y95018D01*
Y94185D01*
X509052Y93769D01*
X506379Y60433D02*
X508461D01*
X508878Y60017D01*
Y59184D01*
X508461Y58767D01*
X506379D01*
X506795Y57934D02*
X506379Y57517D01*
Y56684D01*
X506795Y56268D01*
X507212D01*
X507628Y56684D01*
Y57101D01*
Y56684D01*
X508045Y56268D01*
X508461D01*
X508878Y56684D01*
Y57517D01*
X508461Y57934D01*
X506379Y55435D02*
X508878D01*
Y54185D01*
X508461Y53769D01*
X506795D01*
X506379Y54185D01*
Y55435D01*
X567949Y144684D02*
Y142602D01*
X567532Y142185D01*
X566699D01*
X566283Y142602D01*
Y144684D01*
X563784D02*
X564617Y144268D01*
X565450Y143435D01*
Y142602D01*
X565033Y142185D01*
X564200D01*
X563784Y142602D01*
Y143018D01*
X564200Y143435D01*
X565450D01*
X567949Y127952D02*
Y125869D01*
X567532Y125453D01*
X566699D01*
X566283Y125869D01*
Y127952D01*
X565450D02*
X563784D01*
Y127535D01*
X565450Y125869D01*
Y125453D01*
X70542Y105695D02*
Y103613D01*
X70125Y103196D01*
X69292D01*
X68876Y103613D01*
Y105695D01*
X68042Y105279D02*
X67626Y105695D01*
X66793D01*
X66376Y105279D01*
Y104862D01*
X66793Y104446D01*
X66376Y104029D01*
Y103613D01*
X66793Y103196D01*
X67626D01*
X68042Y103613D01*
Y104029D01*
X67626Y104446D01*
X68042Y104862D01*
Y105279D01*
X67626Y104446D02*
X66793D01*
X65543Y103196D02*
Y104862D01*
X64710Y105695D01*
X63877Y104862D01*
Y103196D01*
Y104446D01*
X65543D01*
X70829Y237191D02*
Y235109D01*
X70413Y234692D01*
X69579D01*
X69163Y235109D01*
Y237191D01*
X68330Y236775D02*
X67913Y237191D01*
X67080D01*
X66664Y236775D01*
Y236358D01*
X67080Y235942D01*
X66664Y235525D01*
Y235109D01*
X67080Y234692D01*
X67913D01*
X68330Y235109D01*
Y235525D01*
X67913Y235942D01*
X68330Y236358D01*
Y236775D01*
X67913Y235942D02*
X67080D01*
X65831Y237191D02*
Y234692D01*
X64581D01*
X64165Y235109D01*
Y235525D01*
X64581Y235942D01*
X65831D01*
X64581D01*
X64165Y236358D01*
Y236775D01*
X64581Y237191D01*
X65831D01*
X140350Y63099D02*
X141183D01*
X141600Y62683D01*
Y61016D01*
X141183Y60600D01*
X140350D01*
X139934Y61016D01*
Y62683D01*
X140350Y63099D01*
X139101Y60600D02*
Y63099D01*
X137851D01*
X137435Y62683D01*
Y61850D01*
X137851Y61433D01*
X139101D01*
X136602Y60600D02*
X135769D01*
X136185D01*
Y63099D01*
X136602Y62683D01*
X134519Y60600D02*
Y62266D01*
X133686Y63099D01*
X132853Y62266D01*
Y60600D01*
Y61850D01*
X134519D01*
X152343Y211935D02*
X153176D01*
X153593Y211519D01*
Y209853D01*
X153176Y209436D01*
X152343D01*
X151927Y209853D01*
Y211519D01*
X152343Y211935D01*
X151094Y209436D02*
Y211935D01*
X149844D01*
X149428Y211519D01*
Y210686D01*
X149844Y210269D01*
X151094D01*
X148594Y209436D02*
X147761D01*
X148178D01*
Y211935D01*
X148594Y211519D01*
X146512Y211935D02*
Y209436D01*
X145262D01*
X144846Y209853D01*
Y210269D01*
X145262Y210686D01*
X146512D01*
X145262D01*
X144846Y211102D01*
Y211519D01*
X145262Y211935D01*
X146512D01*
X144550Y109499D02*
X145384D01*
X145800Y109083D01*
Y107416D01*
X145384Y107000D01*
X144550D01*
X144134Y107416D01*
Y109083D01*
X144550Y109499D01*
X143301Y107000D02*
Y109499D01*
X142051D01*
X141635Y109083D01*
Y108250D01*
X142051Y107833D01*
X143301D01*
X139136Y107000D02*
X140802D01*
X139136Y108666D01*
Y109083D01*
X139552Y109499D01*
X140385D01*
X140802Y109083D01*
X138302Y107000D02*
Y108666D01*
X137469Y109499D01*
X136636Y108666D01*
Y107000D01*
Y108250D01*
X138302D01*
X152343Y233246D02*
X153176D01*
X153593Y232830D01*
Y231164D01*
X153176Y230747D01*
X152343D01*
X151927Y231164D01*
Y232830D01*
X152343Y233246D01*
X151094Y230747D02*
Y233246D01*
X149844D01*
X149428Y232830D01*
Y231997D01*
X149844Y231580D01*
X151094D01*
X146928Y230747D02*
X148594D01*
X146928Y232413D01*
Y232830D01*
X147345Y233246D01*
X148178D01*
X148594Y232830D01*
X146095Y233246D02*
Y230747D01*
X144846D01*
X144429Y231164D01*
Y231580D01*
X144846Y231997D01*
X146095D01*
X144846D01*
X144429Y232413D01*
Y232830D01*
X144846Y233246D01*
X146095D01*
X357500Y284500D02*
Y286999D01*
X356250D01*
X355834Y286583D01*
Y285750D01*
X356250Y285333D01*
X357500D01*
X356667D02*
X355834Y284500D01*
X353335Y286999D02*
X355001D01*
Y285750D01*
X354168D01*
X355001D01*
Y284500D01*
X350835Y286583D02*
X351252Y286999D01*
X352085D01*
X352502Y286583D01*
Y286166D01*
X352085Y285750D01*
X351252D01*
X350835Y285333D01*
Y284916D01*
X351252Y284500D01*
X352085D01*
X352502Y284916D01*
X350002Y284500D02*
X349169D01*
X349586D01*
Y286999D01*
X350002Y286583D01*
X142334Y39499D02*
X143167D01*
X142750D01*
Y37416D01*
X143167Y37000D01*
X143584D01*
X144000Y37416D01*
X139835Y37000D02*
X141501D01*
X139835Y38666D01*
Y39083D01*
X140251Y39499D01*
X141084D01*
X141501Y39083D01*
X213500Y43999D02*
Y41916D01*
X213084Y41500D01*
X212250D01*
X211834Y41916D01*
Y43999D01*
X211001Y41500D02*
X210168D01*
X210584D01*
Y43999D01*
X211001Y43583D01*
X208918D02*
X208502Y43999D01*
X207669D01*
X207252Y43583D01*
Y41916D01*
X207669Y41500D01*
X208502D01*
X208918Y41916D01*
Y43583D01*
X433134Y161283D02*
X433550Y161699D01*
X434383D01*
X434800Y161283D01*
Y159616D01*
X434383Y159200D01*
X433550D01*
X433134Y159616D01*
X432301Y159200D02*
X431468D01*
X431884D01*
Y161699D01*
X432301Y161283D01*
X428552Y161699D02*
X430218D01*
Y160450D01*
X429385Y160866D01*
X428968D01*
X428552Y160450D01*
Y159616D01*
X428968Y159200D01*
X429802D01*
X430218Y159616D01*
X175566Y172917D02*
X175150Y172501D01*
X174317D01*
X173900Y172917D01*
Y174583D01*
X174317Y175000D01*
X175150D01*
X175566Y174583D01*
X176399Y175000D02*
X177232D01*
X176816D01*
Y172501D01*
X176399Y172917D01*
X180148Y172501D02*
X179315Y172917D01*
X178482Y173750D01*
Y174583D01*
X178898Y175000D01*
X179731D01*
X180148Y174583D01*
Y174167D01*
X179731Y173750D01*
X178482D01*
X79146Y179017D02*
X78729Y178601D01*
X77896D01*
X77479Y179017D01*
Y180684D01*
X77896Y181100D01*
X78729D01*
X79146Y180684D01*
X79979Y181100D02*
X80812D01*
X80395D01*
Y178601D01*
X79979Y179017D01*
X82061Y178601D02*
X83728D01*
Y179017D01*
X82061Y180684D01*
Y181100D01*
X155534Y109883D02*
X155950Y110299D01*
X156783D01*
X157200Y109883D01*
Y108217D01*
X156783Y107800D01*
X155950D01*
X155534Y108217D01*
X154701Y107800D02*
X153868D01*
X154284D01*
Y110299D01*
X154701Y109883D01*
X152618D02*
X152202Y110299D01*
X151369D01*
X150952Y109883D01*
Y109466D01*
X151369Y109050D01*
X150952Y108633D01*
Y108217D01*
X151369Y107800D01*
X152202D01*
X152618Y108217D01*
Y108633D01*
X152202Y109050D01*
X152618Y109466D01*
Y109883D01*
X152202Y109050D02*
X151369D01*
X141034Y57183D02*
X141450Y57599D01*
X142283D01*
X142700Y57183D01*
Y55516D01*
X142283Y55100D01*
X141450D01*
X141034Y55516D01*
X140201Y55100D02*
X139368D01*
X139784D01*
Y57599D01*
X140201Y57183D01*
X138118Y55516D02*
X137702Y55100D01*
X136869D01*
X136452Y55516D01*
Y57183D01*
X136869Y57599D01*
X137702D01*
X138118Y57183D01*
Y56766D01*
X137702Y56350D01*
X136452D01*
X429600Y234200D02*
Y236699D01*
X428350D01*
X427934Y236283D01*
Y235450D01*
X428350Y235033D01*
X429600D01*
X428767D02*
X427934Y234200D01*
X427101D02*
X426268D01*
X426684D01*
Y236699D01*
X427101Y236283D01*
X425018Y234200D02*
X424185D01*
X424602D01*
Y236699D01*
X425018Y236283D01*
X422935Y234200D02*
Y235866D01*
X422102Y236699D01*
X421269Y235866D01*
Y234200D01*
Y235450D01*
X422935D01*
X428700Y167100D02*
Y169599D01*
X427450D01*
X427034Y169183D01*
Y168350D01*
X427450Y167933D01*
X428700D01*
X427867D02*
X427034Y167100D01*
X426201D02*
X425368D01*
X425784D01*
Y169599D01*
X426201Y169183D01*
X424118Y167100D02*
X423285D01*
X423702D01*
Y169599D01*
X424118Y169183D01*
X422036Y169599D02*
Y167100D01*
X420786D01*
X420369Y167517D01*
Y167933D01*
X420786Y168350D01*
X422036D01*
X420786D01*
X420369Y168766D01*
Y169183D01*
X420786Y169599D01*
X422036D01*
X428400Y99800D02*
Y102299D01*
X427150D01*
X426734Y101883D01*
Y101050D01*
X427150Y100633D01*
X428400D01*
X427567D02*
X426734Y99800D01*
X425901D02*
X425068D01*
X425484D01*
Y102299D01*
X425901Y101883D01*
X423818Y99800D02*
X422985D01*
X423402D01*
Y102299D01*
X423818Y101883D01*
X420069D02*
X420486Y102299D01*
X421319D01*
X421735Y101883D01*
Y100216D01*
X421319Y99800D01*
X420486D01*
X420069Y100216D01*
X428500Y34400D02*
Y36899D01*
X427250D01*
X426834Y36483D01*
Y35650D01*
X427250Y35233D01*
X428500D01*
X427667D02*
X426834Y34400D01*
X426001D02*
X425168D01*
X425584D01*
Y36899D01*
X426001Y36483D01*
X423918Y34400D02*
X423085D01*
X423502D01*
Y36899D01*
X423918Y36483D01*
X421836Y36899D02*
Y34400D01*
X420586D01*
X420169Y34817D01*
Y36483D01*
X420586Y36899D01*
X421836D01*
X458000Y236400D02*
Y238899D01*
X456750D01*
X456334Y238483D01*
Y237650D01*
X456750Y237233D01*
X458000D01*
X457167D02*
X456334Y236400D01*
X455501D02*
X454668D01*
X455084D01*
Y238899D01*
X455501Y238483D01*
X451752Y236400D02*
X453418D01*
X451752Y238066D01*
Y238483D01*
X452169Y238899D01*
X453002D01*
X453418Y238483D01*
X450919Y236400D02*
Y238066D01*
X450086Y238899D01*
X449253Y238066D01*
Y236400D01*
Y237650D01*
X450919D01*
X457800Y169800D02*
Y172299D01*
X456550D01*
X456134Y171883D01*
Y171050D01*
X456550Y170633D01*
X457800D01*
X456967D02*
X456134Y169800D01*
X455301D02*
X454468D01*
X454884D01*
Y172299D01*
X455301Y171883D01*
X451552Y169800D02*
X453218D01*
X451552Y171466D01*
Y171883D01*
X451968Y172299D01*
X452802D01*
X453218Y171883D01*
X450719Y172299D02*
Y169800D01*
X449469D01*
X449053Y170217D01*
Y170633D01*
X449469Y171050D01*
X450719D01*
X449469D01*
X449053Y171466D01*
Y171883D01*
X449469Y172299D01*
X450719D01*
X457100Y102300D02*
Y104799D01*
X455850D01*
X455434Y104383D01*
Y103550D01*
X455850Y103133D01*
X457100D01*
X456267D02*
X455434Y102300D01*
X454601D02*
X453768D01*
X454184D01*
Y104799D01*
X454601Y104383D01*
X450852Y102300D02*
X452518D01*
X450852Y103966D01*
Y104383D01*
X451268Y104799D01*
X452102D01*
X452518Y104383D01*
X448353D02*
X448769Y104799D01*
X449602D01*
X450019Y104383D01*
Y102717D01*
X449602Y102300D01*
X448769D01*
X448353Y102717D01*
X457100Y35500D02*
Y37999D01*
X455850D01*
X455434Y37583D01*
Y36750D01*
X455850Y36333D01*
X457100D01*
X456267D02*
X455434Y35500D01*
X454601D02*
X453768D01*
X454184D01*
Y37999D01*
X454601Y37583D01*
X450852Y35500D02*
X452518D01*
X450852Y37166D01*
Y37583D01*
X451268Y37999D01*
X452102D01*
X452518Y37583D01*
X450019Y37999D02*
Y35500D01*
X448769D01*
X448353Y35917D01*
Y37583D01*
X448769Y37999D01*
X450019D01*
X127500Y114300D02*
Y116799D01*
X126250D01*
X125834Y116383D01*
Y115550D01*
X126250Y115133D01*
X127500D01*
X123335Y116383D02*
X123751Y116799D01*
X124584D01*
X125001Y116383D01*
Y115966D01*
X124584Y115550D01*
X123751D01*
X123335Y115133D01*
Y114716D01*
X123751Y114300D01*
X124584D01*
X125001Y114716D01*
X122502Y114300D02*
X121669D01*
X122085D01*
Y116799D01*
X122502Y116383D01*
X177300Y99799D02*
Y97716D01*
X176883Y97300D01*
X176050D01*
X175634Y97716D01*
Y99799D01*
X173551Y97300D02*
Y99799D01*
X174801Y98550D01*
X173135D01*
X323634Y30599D02*
X324467D01*
X324050D01*
Y28517D01*
X324467Y28100D01*
X324884D01*
X325300Y28517D01*
X322801Y28100D02*
Y30599D01*
X321551D01*
X321135Y30183D01*
Y29350D01*
X321551Y28933D01*
X322801D01*
X320302Y30183D02*
X319885Y30599D01*
X319052D01*
X318636Y30183D01*
Y29766D01*
X319052Y29350D01*
X319469D01*
X319052D01*
X318636Y28933D01*
Y28517D01*
X319052Y28100D01*
X319885D01*
X320302Y28517D01*
D32*
X55000Y37500D02*
Y57500D01*
Y37500D02*
X75000D01*
Y57500D01*
X55000D02*
X75000D01*
X65000Y40000D02*
Y55000D01*
X57500Y47500D02*
X72500D01*
X65000Y240000D02*
X70000D01*
X62500Y245000D02*
X72500D01*
X57500Y250000D02*
X77500D01*
X57500Y255000D02*
X77500D01*
X62500Y260000D02*
X72500D01*
X65000Y265000D02*
X70000D01*
D35*
X177817Y290778D02*
G03*
X166309Y279521I2442J-14007D01*
G01*
X233509Y279621D02*
G03*
X225309Y290721I-9650J1450D01*
G01*
X158209Y230921D02*
G03*
X241510Y230921I41650J26630D01*
G01*
X182921Y290732D02*
G03*
X215910Y290572I16553J12082D01*
G01*
X91957Y85409D02*
G03*
X91957Y85409I-500J0D01*
G01*
X144476Y214236D02*
G03*
X144476Y214236I-500J0D01*
G01*
X144240Y82898D02*
G03*
X144240Y82898I-500J0D01*
G01*
X572283Y124613D02*
G03*
X572283Y124613I-566J0D01*
G01*
Y141739D02*
G03*
X572283Y141739I-566J0D01*
G01*
X510481Y63217D02*
G03*
X510481Y63217I-566J0D01*
G01*
Y103217D02*
G03*
X510481Y103217I-566J0D01*
G01*
X510599Y144556D02*
G03*
X510599Y144556I-566J0D01*
G01*
Y193217D02*
G03*
X510599Y193217I-566J0D01*
G01*
X510481Y83217D02*
G03*
X510481Y83217I-566J0D01*
G01*
Y123217D02*
G03*
X510481Y123217I-566J0D01*
G01*
X510599Y169556D02*
G03*
X510599Y169556I-566J0D01*
G01*
Y218217D02*
G03*
X510599Y218217I-566J0D01*
G01*
X92193Y218047D02*
G03*
X92193Y218047I-500J0D01*
G01*
X433701Y215945D02*
G03*
X433701Y215945I-394J0D01*
G01*
X206386Y45055D02*
G03*
X206386Y45055I-500J0D01*
G01*
X158309Y279521D02*
X166309D01*
X137709Y266621D02*
X158309D01*
Y279521D01*
X233509Y279621D02*
X241510D01*
Y266621D02*
Y279621D01*
Y266621D02*
X261910D01*
Y243221D02*
Y266621D01*
X241510Y243221D02*
X261910D01*
X241510Y230921D02*
Y243221D01*
X158209Y230921D02*
Y243021D01*
X137709D02*
X158209D01*
X137709D02*
Y266621D01*
X177817Y290778D02*
X182909D01*
X215910Y290721D02*
X225309D01*
X265785Y232437D02*
X273485D01*
X275185Y234137D01*
Y259937D01*
X264185Y234037D02*
X265785Y232437D01*
X264185Y234037D02*
Y259937D01*
X275185D01*
X264185Y244037D02*
X275185D01*
X47256Y129191D02*
X58256D01*
X47256Y113291D02*
X58256D01*
Y139191D01*
X56656Y140791D02*
X58256Y139191D01*
X47256Y113291D02*
Y139091D01*
X48956Y140791D01*
X56656D01*
X48856Y155272D02*
X56556D01*
X58256Y156972D01*
Y182772D01*
X47256Y156872D02*
X48856Y155272D01*
X47256Y156872D02*
Y182772D01*
X58256D01*
X47256Y166872D02*
X58256D01*
X65546Y176900D02*
X100046D01*
X62546Y173900D02*
X65546Y176900D01*
X62546Y161900D02*
Y173900D01*
Y161900D02*
X65546Y158900D01*
X66546D01*
X100046D02*
Y176900D01*
X66546Y158900D02*
X100046D01*
X134754Y159000D02*
X169254D01*
X172254Y162000D01*
Y174000D01*
X169254Y177000D02*
X172254Y174000D01*
X168254Y177000D02*
X169254D01*
X134754Y159000D02*
Y177000D01*
X168254D01*
X117557Y81910D02*
Y106409D01*
X120457Y84909D02*
X140457D01*
X118457Y86910D02*
X120457Y84909D01*
X116457Y86910D02*
X118457D01*
X114457Y84909D02*
X116457Y86910D01*
X94957Y84909D02*
X114457D01*
X94957D02*
Y86910D01*
Y101909D02*
Y103909D01*
X140457D01*
Y101909D02*
Y103909D01*
Y84909D02*
Y86910D01*
X117876Y193236D02*
Y217736D01*
X94976Y214736D02*
X114976D01*
X116976Y212736D01*
X118976D01*
X120976Y214736D01*
X140476D01*
Y212736D02*
Y214736D01*
Y195736D02*
Y197736D01*
X94976Y195736D02*
X140476D01*
X94976D02*
Y197736D01*
Y212736D02*
Y214736D01*
X117640Y61898D02*
Y86398D01*
X94740Y83398D02*
X114740D01*
X116740Y81398D01*
X118740D01*
X120740Y83398D01*
X140240D01*
Y81398D02*
Y83398D01*
Y64398D02*
Y66398D01*
X94740Y64398D02*
X140240D01*
X94740D02*
Y66398D01*
Y81398D02*
Y83398D01*
X569917Y123213D02*
Y123713D01*
X561417D02*
X569917D01*
X561417Y123213D02*
Y123713D01*
X569917Y114213D02*
Y115213D01*
X561417Y114213D02*
X569917D01*
X561417D02*
Y115213D01*
Y131339D02*
Y132339D01*
Y131339D02*
X569917D01*
Y132339D01*
X561417Y140339D02*
Y140839D01*
X569917D01*
Y140339D02*
Y140839D01*
X510815Y61417D02*
X511315D01*
X510815Y52917D02*
Y61417D01*
Y52917D02*
X511315D01*
X519315Y61417D02*
X520315D01*
Y52917D02*
Y61417D01*
X519315Y52917D02*
X520315D01*
X519315Y92917D02*
X520315D01*
Y101417D01*
X519315D02*
X520315D01*
X510815Y92917D02*
X511315D01*
X510815D02*
Y101417D01*
X511315D01*
X510933Y142756D02*
X511433D01*
X510933Y134256D02*
Y142756D01*
Y134256D02*
X511433D01*
X519433Y142756D02*
X520433D01*
Y134256D02*
Y142756D01*
X519433Y134256D02*
X520433D01*
X519433Y182917D02*
X520433D01*
Y191417D01*
X519433D02*
X520433D01*
X510933Y182917D02*
X511433D01*
X510933D02*
Y191417D01*
X511433D01*
X510815Y81417D02*
X511315D01*
X510815Y72917D02*
Y81417D01*
Y72917D02*
X511315D01*
X519315Y81417D02*
X520315D01*
Y72917D02*
Y81417D01*
X519315Y72917D02*
X520315D01*
X519315Y112917D02*
X520315D01*
Y121417D01*
X519315D02*
X520315D01*
X510815Y112917D02*
X511315D01*
X510815D02*
Y121417D01*
X511315D01*
X510933Y167756D02*
X511433D01*
X510933Y159256D02*
Y167756D01*
Y159256D02*
X511433D01*
X519433Y167756D02*
X520433D01*
Y159256D02*
Y167756D01*
X519433Y159256D02*
X520433D01*
X519433Y207917D02*
X520433D01*
Y216417D01*
X519433D02*
X520433D01*
X510933Y207917D02*
X511433D01*
X510933D02*
Y216417D01*
X511433D01*
X-744Y155051D02*
Y265551D01*
Y155051D02*
X45756D01*
Y265551D01*
X-744D02*
X45756D01*
X183976Y50197D02*
X193976D01*
X179055Y83661D02*
X189055D01*
X188898D02*
X198898D01*
X395238Y217625D02*
Y223425D01*
X400038Y217725D02*
Y223425D01*
X395238Y149613D02*
Y155413D01*
X400038Y149713D02*
Y155413D01*
X395238Y83669D02*
Y89468D01*
X400038Y83768D02*
Y89468D01*
X395238Y16739D02*
Y22539D01*
X400038Y16839D02*
Y22539D01*
X193819Y62992D02*
X203819D01*
X241573Y136909D02*
Y142709D01*
X236773Y136909D02*
Y142609D01*
X249447Y141831D02*
Y147631D01*
X244647Y141831D02*
Y147531D01*
X444929Y174681D02*
Y187181D01*
X432929D02*
X444929D01*
X432929Y174681D02*
Y187181D01*
Y174681D02*
X444929D01*
Y107752D02*
Y120252D01*
X432929D02*
X444929D01*
X432929Y107752D02*
Y120252D01*
Y107752D02*
X444929D01*
Y40823D02*
Y53323D01*
X432929D02*
X444929D01*
X432929Y40823D02*
Y53323D01*
Y40823D02*
X444929D01*
X445913Y254012D02*
Y266512D01*
X433913D02*
X445913D01*
X433913Y254012D02*
Y266512D01*
Y254012D02*
X445913D01*
X444929Y188854D02*
Y201354D01*
X432929D02*
X444929D01*
X432929Y188854D02*
Y201354D01*
Y188854D02*
X444929D01*
X444899Y121451D02*
Y133951D01*
X432899D02*
X444899D01*
X432899Y121451D02*
Y133951D01*
Y121451D02*
X444899D01*
X444929Y54602D02*
Y67102D01*
X432929D02*
X444929D01*
X432929Y54602D02*
Y67102D01*
Y54602D02*
X444929D01*
Y86098D02*
Y98598D01*
X432929D02*
X444929D01*
X432929Y86098D02*
Y98598D01*
Y86098D02*
X444929D01*
Y72122D02*
Y84622D01*
X432929D02*
X444929D01*
X432929Y72122D02*
Y84622D01*
Y72122D02*
X444929D01*
X449477Y196382D02*
X459577D01*
Y179582D02*
Y196382D01*
X449477Y179582D02*
X459577D01*
X449477D02*
Y196382D01*
Y112653D02*
Y129453D01*
Y112653D02*
X459577D01*
Y129453D01*
X449477D02*
X459577D01*
X449477Y63508D02*
X459577D01*
Y46708D02*
Y63508D01*
X449477Y46708D02*
X459577D01*
X449477D02*
Y63508D01*
Y77220D02*
Y94020D01*
Y77220D02*
X459577D01*
Y94020D01*
X449477D02*
X459577D01*
X374264Y146559D02*
Y158559D01*
X392264D01*
X393264Y157559D01*
X374264Y146559D02*
X392264D01*
X393264Y147559D01*
Y157559D01*
X374264Y80614D02*
Y92614D01*
X392264D01*
X393264Y91614D01*
X374264Y80614D02*
X392264D01*
X393264Y81614D01*
Y91614D01*
X374264Y13685D02*
Y25685D01*
X392264D01*
X393264Y24685D01*
X374264Y13685D02*
X392264D01*
X393264Y14685D01*
Y24685D01*
X164400Y124900D02*
X184400D01*
Y135400D01*
X164400D02*
X184400D01*
X164400Y124900D02*
Y135400D01*
X138228Y4159D02*
X179228D01*
X138228D02*
Y35659D01*
X179228D01*
Y4159D02*
Y35659D01*
X155400Y96300D02*
Y106300D01*
X445913Y240429D02*
Y252929D01*
X433913D02*
X445913D01*
X433913Y240429D02*
Y252929D01*
Y240429D02*
X445913D01*
X374264Y213488D02*
Y225488D01*
X392264D01*
X393264Y224488D01*
X374264Y213488D02*
X392264D01*
X393264Y214488D01*
Y224488D01*
X449871Y245527D02*
Y262327D01*
Y245527D02*
X459971D01*
Y262327D01*
X449871D02*
X459971D01*
X147400Y68200D02*
X181900D01*
X144400Y65200D02*
X147400Y68200D01*
X144400Y53200D02*
Y65200D01*
Y53200D02*
X147400Y50200D01*
X148400D01*
X181900D02*
Y68200D01*
X148400Y50200D02*
X181900D01*
X60600Y125500D02*
X80600D01*
Y136000D01*
X60600D02*
X80600D01*
X60600Y125500D02*
Y136000D01*
X309961Y72795D02*
Y222795D01*
Y72795D02*
X329961D01*
Y222795D01*
X309961D02*
X329961D01*
X84600Y118700D02*
X161600D01*
Y157200D01*
X84600D02*
X161600D01*
X84600Y118700D02*
Y157200D01*
X-1138Y30248D02*
Y140748D01*
Y30248D02*
X45362D01*
Y140748D01*
X-1138D02*
X45362D01*
X117793Y214547D02*
Y239047D01*
X120693Y217547D02*
X140693D01*
X118693Y219547D02*
X120693Y217547D01*
X116693Y219547D02*
X118693D01*
X114693Y217547D02*
X116693Y219547D01*
X95193Y217547D02*
X114693D01*
X95193D02*
Y219547D01*
Y234547D02*
Y236547D01*
X140693D01*
Y234547D02*
Y236547D01*
Y217547D02*
Y219547D01*
X312300Y16300D02*
X332300D01*
Y26800D01*
X312300D02*
X332300D01*
X312300Y16300D02*
Y26800D01*
X333400Y13198D02*
Y7200D01*
X330401D01*
X329401Y8200D01*
Y9199D01*
X330401Y10199D01*
X333400D01*
X330401D01*
X329401Y11199D01*
Y12198D01*
X330401Y13198D01*
X333400D01*
X324403D02*
X326402D01*
X327402Y12198D01*
Y8200D01*
X326402Y7200D01*
X324403D01*
X323403Y8200D01*
Y12198D01*
X324403Y13198D01*
X318405D02*
X320404D01*
X321404Y12198D01*
Y8200D01*
X320404Y7200D01*
X318405D01*
X317405Y8200D01*
Y12198D01*
X318405Y13198D01*
X315406D02*
X311407D01*
X313406D01*
Y7200D01*
X170728Y38159D02*
Y40158D01*
Y39159D01*
X176726D01*
X175727Y38159D01*
X327961Y226295D02*
Y224296D01*
Y225296D01*
X321963D01*
X322962Y226295D01*
D87*
X80020Y101181D02*
G03*
X80020Y101181I-492J0D01*
G01*
X418996Y137108D02*
G03*
X418996Y137108I-492J0D01*
G01*
Y203790D02*
G03*
X418996Y203790I-492J0D01*
G01*
Y270473D02*
G03*
X418996Y270473I-492J0D01*
G01*
X80807Y232677D02*
G03*
X80807Y232677I-492J0D01*
G01*
X173113Y95892D02*
G03*
X173113Y95892I-492J0D01*
G01*
X418996Y70425D02*
G03*
X418996Y70425I-492J0D01*
G01*
D88*
X70472Y98228D02*
G03*
X70472Y98228I-1181J0D01*
G01*
X410630Y132383D02*
G03*
X410630Y132383I-1181J0D01*
G01*
Y199066D02*
G03*
X410630Y199066I-1181J0D01*
G01*
Y265748D02*
G03*
X410630Y265748I-1181J0D01*
G01*
X71260Y229724D02*
G03*
X71260Y229724I-1181J0D01*
G01*
X410630Y65701D02*
G03*
X410630Y65701I-1181J0D01*
G01*
D89*
X59055Y60827D02*
X73228D01*
X59055Y102165D02*
X73228D01*
X59055Y60827D02*
Y102165D01*
X73228Y60827D02*
Y102165D01*
X379921Y102856D02*
X413386D01*
X379921Y136320D02*
X413386D01*
X379921Y102856D02*
Y136320D01*
X413386Y102856D02*
Y136320D01*
X379921Y169538D02*
X413386D01*
X379921Y203003D02*
X413386D01*
X379921Y169538D02*
Y203003D01*
X413386Y169538D02*
Y203003D01*
X379921Y236221D02*
X413386D01*
X379921Y269685D02*
X413386D01*
X379921Y236221D02*
Y269685D01*
X413386Y236221D02*
Y269685D01*
X59842Y192323D02*
X74016D01*
X59842Y233661D02*
X74016D01*
X59842Y192323D02*
Y233661D01*
X74016Y192323D02*
Y233661D01*
X167306Y69711D02*
Y96089D01*
X155494Y69711D02*
Y96089D01*
X167306D01*
X155494Y69711D02*
X167306D01*
X441181Y227756D02*
Y228543D01*
X435276D02*
X441181D01*
X435276Y227756D02*
Y228543D01*
X441181Y216339D02*
Y217126D01*
X435276Y216339D02*
X441181D01*
X435276D02*
Y217126D01*
X379921Y36173D02*
X413386D01*
X379921Y69638D02*
X413386D01*
X379921Y36173D02*
Y69638D01*
X413386Y36173D02*
Y69638D01*
M02*
