G04 Layer_Color=8388736*
%FSLAX25Y25*%
%MOIN*%
G70*
G01*
G75*
%ADD10C,0.00800*%
%ADD35C,0.01000*%
%ADD90R,0.07493X0.10642*%
%ADD91R,0.02768X0.03162*%
%ADD92R,0.03162X0.02768*%
%ADD93R,0.04540X0.04540*%
%ADD94R,0.04737X0.07887*%
%ADD95R,0.04540X0.04540*%
%ADD96R,0.03556X0.05131*%
%ADD97R,0.06391X0.08005*%
%ADD98R,0.04186X0.11824*%
%ADD99R,0.03556X0.13910*%
%ADD100R,0.05800X0.09500*%
%ADD101R,0.07099X0.03556*%
G04:AMPARAMS|DCode=102|XSize=19.81mil|YSize=78.87mil|CornerRadius=0mil|HoleSize=0mil|Usage=FLASHONLY|Rotation=135.000|XOffset=0mil|YOffset=0mil|HoleType=Round|Shape=Round|*
%AMOVALD102*
21,1,0.05905,0.01981,0.00000,0.00000,225.0*
1,1,0.01981,0.02088,0.02088*
1,1,0.01981,-0.02088,-0.02088*
%
%ADD102OVALD102*%

G04:AMPARAMS|DCode=103|XSize=19.81mil|YSize=78.87mil|CornerRadius=0mil|HoleSize=0mil|Usage=FLASHONLY|Rotation=45.000|XOffset=0mil|YOffset=0mil|HoleType=Round|Shape=Round|*
%AMOVALD103*
21,1,0.05905,0.01981,0.00000,0.00000,135.0*
1,1,0.01981,0.02088,-0.02088*
1,1,0.01981,-0.02088,0.02088*
%
%ADD103OVALD103*%

%ADD104R,0.04343X0.02375*%
%ADD105R,0.03200X0.08600*%
%ADD106O,0.03200X0.08600*%
%ADD107R,0.04343X0.04540*%
%ADD108R,0.04343X0.04540*%
%ADD109C,0.03900*%
%ADD110C,0.25800*%
%ADD111C,0.00800*%
%ADD112C,0.06312*%
%ADD113C,0.06706*%
%ADD114C,0.06300*%
%ADD115C,0.05800*%
%ADD116C,0.07300*%
%ADD117R,0.05800X0.05800*%
%ADD118R,0.00800X0.00800*%
D10*
X155201Y287200D02*
G03*
X155201Y287200I-4701J0D01*
G01*
X153066Y287999D02*
X150400D01*
Y284000D01*
X153066D01*
X150400Y285999D02*
X151733D01*
X147800Y289999D02*
Y286000D01*
Y287999D01*
X150466D01*
Y289999D01*
Y286000D01*
D35*
X18350Y152850D02*
X25400Y145800D01*
Y142600D02*
Y145800D01*
X21900Y142400D02*
X25200D01*
X21900D02*
Y145800D01*
X25400D01*
X14800Y152800D02*
X18300D01*
X14800Y149400D02*
X18100D01*
X18300Y149600D02*
Y152800D01*
X14800Y149400D02*
X21850Y142350D01*
X14800Y149400D02*
Y152800D01*
X18150Y149450D02*
X21850Y145750D01*
X15000Y142400D02*
X18400D01*
X15000Y145900D02*
X18200D01*
X18400Y142400D02*
Y145700D01*
X15000Y142400D02*
Y145900D01*
X22000Y149300D02*
Y152800D01*
Y149300D02*
X25400D01*
Y152600D01*
X22000Y152800D02*
X25200D01*
X15000Y145900D02*
X16600Y147500D01*
X18400Y142400D02*
X20100Y144100D01*
X20200Y151100D02*
X21950Y152850D01*
X23600Y147600D02*
X25350Y149350D01*
D90*
X264764Y52165D02*
D03*
Y67913D02*
D03*
D91*
X192650Y23730D02*
D03*
Y27667D02*
D03*
X198650Y23730D02*
D03*
Y27667D02*
D03*
X205150Y23730D02*
D03*
Y27667D02*
D03*
X211650Y23730D02*
D03*
Y27667D02*
D03*
X186650Y23730D02*
D03*
Y27667D02*
D03*
X389764Y265748D02*
D03*
Y261811D02*
D03*
X390748Y198819D02*
D03*
Y194882D02*
D03*
Y131890D02*
D03*
Y127953D02*
D03*
Y64961D02*
D03*
Y61024D02*
D03*
X407480Y240158D02*
D03*
Y244094D02*
D03*
Y173228D02*
D03*
Y177165D02*
D03*
Y107283D02*
D03*
Y111221D02*
D03*
Y40354D02*
D03*
Y44291D02*
D03*
X397638Y265748D02*
D03*
Y261811D02*
D03*
X398622Y198819D02*
D03*
Y194882D02*
D03*
Y131890D02*
D03*
Y127953D02*
D03*
Y64961D02*
D03*
Y61024D02*
D03*
X403543Y240158D02*
D03*
Y244094D02*
D03*
Y173228D02*
D03*
Y177165D02*
D03*
Y107283D02*
D03*
Y111221D02*
D03*
Y40354D02*
D03*
Y44291D02*
D03*
X393701Y240158D02*
D03*
Y244094D02*
D03*
Y173228D02*
D03*
Y177165D02*
D03*
Y107283D02*
D03*
Y111221D02*
D03*
Y40354D02*
D03*
Y44291D02*
D03*
Y265748D02*
D03*
Y261811D02*
D03*
X394685Y198819D02*
D03*
Y194882D02*
D03*
Y127953D02*
D03*
Y131890D02*
D03*
Y64961D02*
D03*
Y61024D02*
D03*
X385827Y240158D02*
D03*
Y244094D02*
D03*
Y173228D02*
D03*
Y177165D02*
D03*
Y40354D02*
D03*
Y44291D02*
D03*
Y265748D02*
D03*
Y261811D02*
D03*
X386811Y198819D02*
D03*
Y194882D02*
D03*
Y131890D02*
D03*
Y127953D02*
D03*
Y64961D02*
D03*
Y61024D02*
D03*
X381890Y265748D02*
D03*
Y261811D02*
D03*
X382874Y198819D02*
D03*
Y194882D02*
D03*
Y131890D02*
D03*
Y127953D02*
D03*
Y64961D02*
D03*
Y61024D02*
D03*
X88583Y72835D02*
D03*
Y76772D02*
D03*
Y203740D02*
D03*
Y207677D02*
D03*
X63976Y78740D02*
D03*
Y82677D02*
D03*
X64961Y209646D02*
D03*
Y213583D02*
D03*
X69882Y86614D02*
D03*
Y90551D02*
D03*
X70866Y217520D02*
D03*
Y221457D02*
D03*
X148622Y92520D02*
D03*
Y96457D02*
D03*
Y225394D02*
D03*
Y229331D02*
D03*
X63976Y72835D02*
D03*
Y68898D02*
D03*
X64961Y204724D02*
D03*
Y200787D02*
D03*
X187992Y58071D02*
D03*
Y54134D02*
D03*
X283465Y171260D02*
D03*
Y175197D02*
D03*
X230315Y33465D02*
D03*
Y37402D02*
D03*
X202756Y88583D02*
D03*
Y92520D02*
D03*
X222441Y88583D02*
D03*
Y92520D02*
D03*
X279528Y166339D02*
D03*
Y162402D02*
D03*
X359100Y245000D02*
D03*
Y241063D02*
D03*
X359300Y176300D02*
D03*
Y172363D02*
D03*
X359000Y110137D02*
D03*
Y106200D02*
D03*
X359100Y43600D02*
D03*
Y39663D02*
D03*
X387795Y283465D02*
D03*
Y287402D02*
D03*
X366142Y199803D02*
D03*
Y203740D02*
D03*
X387795Y216535D02*
D03*
Y220472D02*
D03*
X365158Y132874D02*
D03*
Y136811D02*
D03*
X387600Y149963D02*
D03*
Y153900D02*
D03*
X365158Y65945D02*
D03*
Y69882D02*
D03*
X387795Y84646D02*
D03*
Y88583D02*
D03*
X180118Y54134D02*
D03*
Y58071D02*
D03*
X184055D02*
D03*
Y54134D02*
D03*
X275590Y175197D02*
D03*
Y171260D02*
D03*
X279528D02*
D03*
Y175197D02*
D03*
X222441Y42323D02*
D03*
Y46260D02*
D03*
X222441Y37402D02*
D03*
Y33465D02*
D03*
X211498Y32480D02*
D03*
Y36417D02*
D03*
X226378Y33465D02*
D03*
Y37402D02*
D03*
X204724Y32480D02*
D03*
Y36417D02*
D03*
X198819Y32480D02*
D03*
Y36417D02*
D03*
X192913Y32480D02*
D03*
Y36417D02*
D03*
X226378Y92520D02*
D03*
Y88583D02*
D03*
X186024Y32480D02*
D03*
Y36417D02*
D03*
X275590Y166339D02*
D03*
Y162402D02*
D03*
X385827Y107283D02*
D03*
Y111221D02*
D03*
X250800Y57300D02*
D03*
Y61237D02*
D03*
X246200Y186063D02*
D03*
Y190000D02*
D03*
D92*
X68898Y52165D02*
D03*
X64961D02*
D03*
X68898Y249016D02*
D03*
X64961D02*
D03*
X68898Y46260D02*
D03*
X64961D02*
D03*
X68898Y243110D02*
D03*
X64961D02*
D03*
X292323Y123031D02*
D03*
X296260D02*
D03*
X256890Y37402D02*
D03*
X252953D02*
D03*
X278543Y78740D02*
D03*
X274606D02*
D03*
X223425Y73819D02*
D03*
X219488D02*
D03*
X359252Y250000D02*
D03*
X363189D02*
D03*
X359252Y183071D02*
D03*
X363189D02*
D03*
X359252Y116142D02*
D03*
X363189D02*
D03*
X359252Y50197D02*
D03*
X363189D02*
D03*
X194882Y137795D02*
D03*
X190945D02*
D03*
X154237Y200400D02*
D03*
X150300D02*
D03*
X87598Y103347D02*
D03*
X83661D02*
D03*
X88583Y238189D02*
D03*
X84646D02*
D03*
X77756Y52165D02*
D03*
X73819D02*
D03*
X77756Y249016D02*
D03*
X73819D02*
D03*
X77756Y46260D02*
D03*
X73819D02*
D03*
X77756Y243110D02*
D03*
X73819D02*
D03*
X211614Y65945D02*
D03*
X207677D02*
D03*
X219488D02*
D03*
X223425D02*
D03*
Y69882D02*
D03*
X219488D02*
D03*
X267717Y107283D02*
D03*
X263779D02*
D03*
X267717Y111221D02*
D03*
X263779D02*
D03*
Y115157D02*
D03*
X267717D02*
D03*
X263779Y119095D02*
D03*
X267717D02*
D03*
X283465Y123031D02*
D03*
X287402D02*
D03*
X200787Y178150D02*
D03*
X196850D02*
D03*
X200787Y174213D02*
D03*
X196850D02*
D03*
X263779Y123031D02*
D03*
X267717D02*
D03*
X305900Y21600D02*
D03*
X301963D02*
D03*
X292137Y117100D02*
D03*
X288200D02*
D03*
D93*
X420709Y93000D02*
D03*
X415000D02*
D03*
X421000Y159000D02*
D03*
X415291D02*
D03*
X421000Y226000D02*
D03*
X415291D02*
D03*
X421000Y78000D02*
D03*
X415291D02*
D03*
X420854Y141500D02*
D03*
X415146D02*
D03*
X421854Y208000D02*
D03*
X416146D02*
D03*
X421000Y280000D02*
D03*
X415291D02*
D03*
X420854Y26224D02*
D03*
X415146D02*
D03*
D94*
X90532Y149802D02*
D03*
X102343D02*
D03*
X90532Y139960D02*
D03*
X102343D02*
D03*
D95*
X239173Y282579D02*
D03*
Y288287D02*
D03*
D96*
X227559Y287402D02*
D03*
X223228D02*
D03*
X218898D02*
D03*
X214567D02*
D03*
X210236D02*
D03*
X205906D02*
D03*
X201575D02*
D03*
X197244D02*
D03*
D97*
X182520D02*
D03*
D98*
X231811Y285202D02*
D03*
D99*
Y243902D02*
D03*
X181759D02*
D03*
D100*
X267465Y37402D02*
D03*
X283465D02*
D03*
D101*
X145100Y151734D02*
D03*
Y147600D02*
D03*
Y143466D02*
D03*
X156911D02*
D03*
Y147600D02*
D03*
Y151734D02*
D03*
D102*
X209346Y142627D02*
D03*
X210738Y141235D02*
D03*
X212130Y139843D02*
D03*
X213522Y138451D02*
D03*
X214914Y137059D02*
D03*
X216306Y135667D02*
D03*
X217698Y134275D02*
D03*
X219090Y132883D02*
D03*
X220482Y131491D02*
D03*
X221874Y130099D02*
D03*
X223266Y128707D02*
D03*
X224658Y127315D02*
D03*
X226049Y125924D02*
D03*
X227441Y124532D02*
D03*
X228833Y123140D02*
D03*
X230225Y121748D02*
D03*
X261126Y152649D02*
D03*
X259734Y154041D02*
D03*
X258343Y155433D02*
D03*
X256950Y156825D02*
D03*
X255559Y158217D02*
D03*
X254167Y159608D02*
D03*
X252775Y161001D02*
D03*
X251383Y162392D02*
D03*
X249991Y163784D02*
D03*
X248599Y165176D02*
D03*
X247207Y166568D02*
D03*
X245815Y167960D02*
D03*
X244423Y169352D02*
D03*
X243031Y170744D02*
D03*
X241639Y172136D02*
D03*
X240247Y173528D02*
D03*
D103*
Y121748D02*
D03*
X241639Y123140D02*
D03*
X243031Y124532D02*
D03*
X244423Y125924D02*
D03*
X245815Y127315D02*
D03*
X247207Y128707D02*
D03*
X248599Y130099D02*
D03*
X249991Y131491D02*
D03*
X251383Y132883D02*
D03*
X252775Y134275D02*
D03*
X254167Y135667D02*
D03*
X255559Y137059D02*
D03*
X256950Y138451D02*
D03*
X258343Y139843D02*
D03*
X259734Y141235D02*
D03*
X261126Y142627D02*
D03*
X230225Y173528D02*
D03*
X228833Y172136D02*
D03*
X227441Y170744D02*
D03*
X226049Y169352D02*
D03*
X224658Y167960D02*
D03*
X223266Y166568D02*
D03*
X221874Y165176D02*
D03*
X220482Y163784D02*
D03*
X219090Y162392D02*
D03*
X217698Y161001D02*
D03*
X216306Y159608D02*
D03*
X214914Y158217D02*
D03*
X213522Y156825D02*
D03*
X212130Y155433D02*
D03*
X210738Y154041D02*
D03*
X209346Y152649D02*
D03*
D104*
X255906Y275197D02*
D03*
Y272638D02*
D03*
Y270079D02*
D03*
X247244D02*
D03*
Y272638D02*
D03*
Y275197D02*
D03*
D105*
X274449Y49213D02*
D03*
D106*
X279449D02*
D03*
X284449D02*
D03*
X289449D02*
D03*
X274449Y69713D02*
D03*
X279449D02*
D03*
X284449D02*
D03*
X289449D02*
D03*
D107*
X208858Y86614D02*
D03*
X212598Y96457D02*
D03*
D108*
X216339Y86614D02*
D03*
D109*
X315600Y269500D02*
D03*
X310600D02*
D03*
X315600Y274500D02*
D03*
Y279500D02*
D03*
X310600Y274500D02*
D03*
Y279500D02*
D03*
D110*
X15748Y279528D02*
D03*
Y15748D02*
D03*
X275590Y279528D02*
D03*
Y15748D02*
D03*
X594095D02*
D03*
Y279528D02*
D03*
X485728D02*
D03*
Y15748D02*
D03*
X539901Y261976D02*
D03*
Y33776D02*
D03*
D111*
X12205Y194882D02*
D03*
Y226378D02*
D03*
X11811Y70079D02*
D03*
Y101575D02*
D03*
D112*
X29882Y215551D02*
D03*
Y205709D02*
D03*
X37756D02*
D03*
Y215551D02*
D03*
X29488Y90748D02*
D03*
Y80905D02*
D03*
X37362D02*
D03*
Y90748D02*
D03*
D113*
X179400Y130400D02*
D03*
X169400D02*
D03*
X75600Y131000D02*
D03*
X65600D02*
D03*
X327300Y21800D02*
D03*
X317300D02*
D03*
D114*
X314961Y77795D02*
D03*
X324961D02*
D03*
X314961Y87795D02*
D03*
X324961D02*
D03*
X314961Y97795D02*
D03*
X324961D02*
D03*
X314961Y107795D02*
D03*
X324961D02*
D03*
X314961Y117795D02*
D03*
X324961D02*
D03*
X314961Y127795D02*
D03*
X324961D02*
D03*
X314961Y137795D02*
D03*
X324961D02*
D03*
X314961Y147795D02*
D03*
X324961D02*
D03*
X314961Y157795D02*
D03*
X324961D02*
D03*
X314961Y167795D02*
D03*
X324961D02*
D03*
X314961Y177795D02*
D03*
X324961D02*
D03*
X314961Y187795D02*
D03*
X324961D02*
D03*
X314961Y197795D02*
D03*
X324961D02*
D03*
X314961Y207795D02*
D03*
X324961D02*
D03*
X314961Y217795D02*
D03*
X324961D02*
D03*
D115*
X92600Y131200D02*
D03*
X102600D02*
D03*
X132600D02*
D03*
X152600D02*
D03*
X551201Y70276D02*
D03*
X543701Y75276D02*
D03*
X551201Y80276D02*
D03*
X543701Y85276D02*
D03*
X551201Y90276D02*
D03*
X543701Y95276D02*
D03*
X551201Y100276D02*
D03*
X543701Y105276D02*
D03*
X551201Y110276D02*
D03*
X543701Y115276D02*
D03*
X551201Y120276D02*
D03*
X543701Y125276D02*
D03*
X551201Y130276D02*
D03*
X543701Y135276D02*
D03*
X551201Y140276D02*
D03*
X543701Y145276D02*
D03*
X551201Y150276D02*
D03*
X543701Y155276D02*
D03*
X551201Y160276D02*
D03*
X543701Y165276D02*
D03*
X551201Y170276D02*
D03*
X543701Y175276D02*
D03*
X551201Y180276D02*
D03*
X543701Y185276D02*
D03*
X551201Y190276D02*
D03*
X543701Y195276D02*
D03*
X551201Y200276D02*
D03*
X543701Y205276D02*
D03*
X551201Y210276D02*
D03*
X543701Y215276D02*
D03*
X551201Y220276D02*
D03*
X543701Y225276D02*
D03*
X551201Y230276D02*
D03*
X528701Y65276D02*
D03*
X536201Y70276D02*
D03*
X528701Y75276D02*
D03*
X536201Y80276D02*
D03*
X528701Y85276D02*
D03*
X536201Y90276D02*
D03*
X528701Y95276D02*
D03*
X536201Y100276D02*
D03*
X528701Y105276D02*
D03*
X536201Y110276D02*
D03*
X528701Y115276D02*
D03*
X536201Y120276D02*
D03*
X528701Y125276D02*
D03*
X536201Y130276D02*
D03*
X528701Y135276D02*
D03*
X536201Y140276D02*
D03*
X528701Y145276D02*
D03*
X536201Y150276D02*
D03*
X528701Y155276D02*
D03*
X536201Y160276D02*
D03*
X528701Y165276D02*
D03*
X536201Y170276D02*
D03*
X528701Y175276D02*
D03*
X536201Y180276D02*
D03*
X528701Y185276D02*
D03*
X536201Y190276D02*
D03*
X528701Y195276D02*
D03*
X536201Y200276D02*
D03*
X528701Y205276D02*
D03*
X536201Y210276D02*
D03*
X528701Y215276D02*
D03*
X536201Y220276D02*
D03*
X528701Y225276D02*
D03*
X536201Y230276D02*
D03*
D116*
X169100Y102300D02*
D03*
X207677Y78740D02*
D03*
X236221Y88583D02*
D03*
X307087Y236221D02*
D03*
X324700Y239400D02*
D03*
X319882Y39370D02*
D03*
X282480Y208661D02*
D03*
X440100Y148500D02*
D03*
X291339Y164370D02*
D03*
X283465Y237205D02*
D03*
X95000Y17500D02*
D03*
X90000Y265000D02*
D03*
X239173Y35433D02*
D03*
D117*
X543701Y65276D02*
D03*
D118*
X313100Y264500D02*
D03*
X309100Y284500D02*
D03*
X317100D02*
D03*
X303100Y264500D02*
D03*
Y277000D02*
D03*
X323100Y264500D02*
D03*
Y277000D02*
D03*
M02*
