M48
;Layer_Color=9474304
;FILE_FORMAT=2:5
INCH,LZ
;TYPE=PLATED
T1F00S00C0.01500
T2F00S00C0.03500
T3F00S00C0.05000
T4F00S00C0.10630
T5F00S00C0.12000
%
T01
X01407Y00431
X01633Y00318
X01596Y00741
X01848Y00656
X02152Y00702
X02263Y00629
X02365Y00664
X02364Y00772
X02403Y00738
X02479Y0076
X02473Y00973
X02407Y00939
X02362Y00992
X02364Y00882
X02262Y00841
X02261Y01072
X02365Y01111
X02401Y01174
X02362Y01211
X02365Y01328
X02403Y01396
X02362Y0144
X0248Y01417
X02475Y01195
X02263Y012886
X02164Y01217
X02167Y01434
X0217Y00995
X02149Y00478
X02264Y004
X02364Y00439
X02362Y00512
X02403Y0054
X02483Y00527
X0133Y01011
X01136Y00966
X01133Y01387
X01278Y014
X00948Y01481
X009Y01013
X00755Y01006
X00535Y00952
X00339Y00885
X00082Y01008
X00159Y00392
X00799Y00388
X01016Y00813
X00346Y01483
X00533Y01562
X00532Y02184
X00755Y02217
X00905Y02212
X01014Y02018
X00944Y02686
X00539Y0281
X0038984Y0262117
X00337Y02083
X01211Y02166
X01337Y02226
X01516
X01588Y02624
X017Y02685
X01566Y02785
X02165Y02484
X02264Y0240558
X02365Y02444
X02364Y02331
X02408Y02297
X02489Y02312
X02364Y02234
Y02108
X02403Y02056
X02363Y01993
X02361Y01882
X02402Y01836
X02477Y01864
X02364Y01767
X0226245Y01768
X02167Y01737
X0217Y01884
X02165Y02028
X02264Y019522
X02263Y02184
X02167Y02256
X02487Y02087
Y01646
X02407Y01619
X02365Y01664
X02364Y01558
X02262Y0151417
X0217Y01589
X01984Y01753
X01734Y01551
X01592Y01549
X01584Y01622
X0241Y02523
X02491Y02559
T02
X02865Y00702
Y00802
Y00902
Y01002
Y01102
Y01202
Y01302
Y01402
X0294Y01352
Y01252
Y01152
Y01052
Y00952
Y00852
Y00752
Y00652
X03015Y00702
Y00802
Y00902
Y01002
Y01102
Y01202
Y01302
Y01402
X0309Y01352
Y01252
Y01152
Y01052
Y00952
Y00852
Y00752
Y00652
Y01452
X0294
Y01552
Y01652
Y01752
Y01852
Y01952
Y02052
Y02152
Y02252
X03015Y02202
Y02102
Y02002
Y01902
Y01802
Y01702
Y01602
Y01502
X0309Y01552
Y01652
Y01752
Y01852
Y01952
Y02052
Y02152
Y02252
X03015Y02302
X02865
Y02202
Y02102
Y02002
Y01902
Y01802
Y01702
Y01602
Y01502
T03
X017Y00531
Y00651
Y01131
Y01251
X011
Y01131
Y00651
Y00531
X005
Y00651
Y01131
Y01251
Y01731
Y01851
Y02331
Y02451
X011
Y02331
Y01851
Y01731
X017Y02331
Y02451
T04
X02978Y00337
Y02617
T05
X0351992Y0015673
X0243626
X0016
Y02796
X0243626Y0279453
X0351992
M30
