G04 Layer_Color=16711935*
%FSLAX25Y25*%
%MOIN*%
G70*
G01*
G75*
%ADD10C,0.00800*%
D10*
X53599Y210299D02*
X53100Y210799D01*
X52100D01*
X51600Y210299D01*
Y208300D01*
X52100Y207800D01*
X53100D01*
X53599Y208300D01*
X56598Y210799D02*
X55599Y210299D01*
X54599Y209299D01*
Y208300D01*
X55099Y207800D01*
X56099D01*
X56598Y208300D01*
Y208800D01*
X56099Y209299D01*
X54599D01*
X57598Y207800D02*
Y209799D01*
X58598Y210799D01*
X59597Y209799D01*
Y207800D01*
Y209299D01*
X57598D01*
X54899Y90399D02*
X54400Y90899D01*
X53400D01*
X52900Y90399D01*
Y88400D01*
X53400Y87900D01*
X54400D01*
X54899Y88400D01*
X57898Y90899D02*
X56899Y90399D01*
X55899Y89399D01*
Y88400D01*
X56399Y87900D01*
X57399D01*
X57898Y88400D01*
Y88900D01*
X57399Y89399D01*
X55899D01*
X58898Y90899D02*
Y87900D01*
X60398D01*
X60897Y88400D01*
Y88900D01*
X60398Y89399D01*
X58898D01*
X60398D01*
X60897Y89899D01*
Y90399D01*
X60398Y90899D01*
X58898D01*
X114099Y209599D02*
X113600Y210099D01*
X112600D01*
X112100Y209599D01*
Y207600D01*
X112600Y207100D01*
X113600D01*
X114099Y207600D01*
X117098Y210099D02*
X116099Y209599D01*
X115099Y208599D01*
Y207600D01*
X115599Y207100D01*
X116599D01*
X117098Y207600D01*
Y208100D01*
X116599Y208599D01*
X115099D01*
X120097Y209599D02*
X119598Y210099D01*
X118598D01*
X118098Y209599D01*
Y207600D01*
X118598Y207100D01*
X119598D01*
X120097Y207600D01*
X115099Y89799D02*
X114600Y90299D01*
X113600D01*
X113100Y89799D01*
Y87800D01*
X113600Y87300D01*
X114600D01*
X115099Y87800D01*
X118098Y90299D02*
X117099Y89799D01*
X116099Y88800D01*
Y87800D01*
X116599Y87300D01*
X117599D01*
X118098Y87800D01*
Y88300D01*
X117599Y88800D01*
X116099D01*
X119098Y90299D02*
Y87300D01*
X120598D01*
X121097Y87800D01*
Y89799D01*
X120598Y90299D01*
X119098D01*
X76500Y228937D02*
Y231936D01*
X78000D01*
X78499Y231436D01*
Y230436D01*
X78000Y229937D01*
X76500D01*
X77500D02*
X78499Y228937D01*
X79499Y231436D02*
X79999Y231936D01*
X80999D01*
X81498Y231436D01*
Y230936D01*
X80999Y230436D01*
X80499D01*
X80999D01*
X81498Y229937D01*
Y229437D01*
X80999Y228937D01*
X79999D01*
X79499Y229437D01*
X84497Y231436D02*
X83998Y231936D01*
X82998D01*
X82498Y231436D01*
Y229437D01*
X82998Y228937D01*
X83998D01*
X84497Y229437D01*
X136000Y228795D02*
Y231794D01*
X137499D01*
X137999Y231294D01*
Y230295D01*
X137499Y229795D01*
X136000D01*
X137000D02*
X137999Y228795D01*
X138999Y231294D02*
X139499Y231794D01*
X140499D01*
X140998Y231294D01*
Y230795D01*
X140499Y230295D01*
X139999D01*
X140499D01*
X140998Y229795D01*
Y229295D01*
X140499Y228795D01*
X139499D01*
X138999Y229295D01*
X143997Y231794D02*
X141998D01*
Y228795D01*
X143997D01*
X141998Y230295D02*
X142998D01*
X98400Y207400D02*
Y210399D01*
X99900D01*
X100399Y209899D01*
Y208899D01*
X99900Y208400D01*
X98400D01*
X99400D02*
X100399Y207400D01*
X103398Y210399D02*
X101399D01*
Y208899D01*
X102399Y209399D01*
X102899D01*
X103398Y208899D01*
Y207900D01*
X102899Y207400D01*
X101899D01*
X101399Y207900D01*
X106397Y209899D02*
X105898Y210399D01*
X104898D01*
X104398Y209899D01*
Y207900D01*
X104898Y207400D01*
X105898D01*
X106397Y207900D01*
X98700Y86900D02*
Y89899D01*
X100199D01*
X100699Y89399D01*
Y88399D01*
X100199Y87900D01*
X98700D01*
X99700D02*
X100699Y86900D01*
X103698Y89899D02*
X101699D01*
Y88399D01*
X102699Y88899D01*
X103199D01*
X103698Y88399D01*
Y87400D01*
X103199Y86900D01*
X102199D01*
X101699Y87400D01*
X104698Y89899D02*
Y86900D01*
X106198D01*
X106697Y87400D01*
Y89399D01*
X106198Y89899D01*
X104698D01*
X136500Y108653D02*
Y111653D01*
X137999D01*
X138499Y111153D01*
Y110153D01*
X137999Y109653D01*
X136500D01*
X137500D02*
X138499Y108653D01*
X141498Y111653D02*
X140499Y111153D01*
X139499Y110153D01*
Y109153D01*
X139999Y108653D01*
X140999D01*
X141498Y109153D01*
Y109653D01*
X140999Y110153D01*
X139499D01*
X144497Y111653D02*
X142498D01*
Y108653D01*
X144497D01*
X142498Y110153D02*
X143498D01*
X76200Y210699D02*
Y208200D01*
X76700Y207700D01*
X77700D01*
X78199Y208200D01*
Y210699D01*
X79199Y207700D02*
X80199D01*
X79699D01*
Y210699D01*
X79199Y210199D01*
X81698Y207700D02*
Y209699D01*
X82698Y210699D01*
X83698Y209699D01*
Y207700D01*
Y209200D01*
X81698D01*
X76600Y91499D02*
Y89000D01*
X77100Y88500D01*
X78100D01*
X78599Y89000D01*
Y91499D01*
X79599Y88500D02*
X80599D01*
X80099D01*
Y91499D01*
X79599Y90999D01*
X82098Y91499D02*
Y88500D01*
X83598D01*
X84098Y89000D01*
Y89500D01*
X83598Y90000D01*
X82098D01*
X83598D01*
X84098Y90499D01*
Y90999D01*
X83598Y91499D01*
X82098D01*
X136600Y91799D02*
Y89300D01*
X137100Y88800D01*
X138100D01*
X138599Y89300D01*
Y91799D01*
X139599Y88800D02*
X140599D01*
X140099D01*
Y91799D01*
X139599Y91299D01*
X142098Y91799D02*
Y88800D01*
X143598D01*
X144098Y89300D01*
Y91299D01*
X143598Y91799D01*
X142098D01*
M02*
