G04 Layer_Physical_Order=4*
G04 Layer_Color=16711680*
%FSLAX25Y25*%
%MOIN*%
G70*
G01*
G75*
%ADD18C,0.01000*%
%ADD19C,0.01500*%
%ADD20C,0.25000*%
%ADD21C,0.10000*%
%ADD22C,0.05000*%
%ADD23R,0.05000X0.05000*%
%ADD24C,0.20000*%
%ADD25C,0.02500*%
G36*
X345042Y292200D02*
X343443Y291220D01*
X341707Y289738D01*
X340225Y288002D01*
X339033Y286056D01*
X338159Y283947D01*
X337626Y281728D01*
X337447Y279453D01*
X337626Y277177D01*
X338159Y274958D01*
X339033Y272849D01*
X340225Y270903D01*
X341707Y269168D01*
X343443Y267686D01*
X345389Y266493D01*
X347498Y265620D01*
X349717Y265087D01*
X351992Y264908D01*
X354267Y265087D01*
X356487Y265620D01*
X358595Y266493D01*
X360541Y267686D01*
X362277Y269168D01*
X363759Y270903D01*
X364952Y272849D01*
X365210Y273472D01*
X365700Y273375D01*
Y21751D01*
X365210Y21654D01*
X364952Y22276D01*
X363759Y24223D01*
X362277Y25958D01*
X360541Y27440D01*
X358595Y28633D01*
X356487Y29506D01*
X354267Y30039D01*
X351992Y30218D01*
X349717Y30039D01*
X347498Y29506D01*
X345389Y28633D01*
X343443Y27440D01*
X341707Y25958D01*
X340225Y24223D01*
X339033Y22276D01*
X338159Y20168D01*
X337626Y17948D01*
X337447Y15673D01*
X337626Y13398D01*
X338159Y11179D01*
X339033Y9070D01*
X340225Y7124D01*
X341707Y5389D01*
X343443Y3906D01*
X345389Y2714D01*
X346388Y2300D01*
X346288Y1800D01*
X249330D01*
X249231Y2300D01*
X250229Y2714D01*
X252175Y3906D01*
X253911Y5389D01*
X255393Y7124D01*
X256586Y9070D01*
X257459Y11179D01*
X257992Y13398D01*
X258171Y15673D01*
X257992Y17948D01*
X257459Y20168D01*
X256586Y22276D01*
X255393Y24223D01*
X253911Y25958D01*
X252175Y27440D01*
X250229Y28633D01*
X248121Y29506D01*
X245901Y30039D01*
X243626Y30218D01*
X241351Y30039D01*
X239131Y29506D01*
X237023Y28633D01*
X235077Y27440D01*
X233341Y25958D01*
X231859Y24223D01*
X230666Y22276D01*
X229793Y20168D01*
X229260Y17948D01*
X229081Y15673D01*
X229260Y13398D01*
X229793Y11179D01*
X230666Y9070D01*
X231859Y7124D01*
X233341Y5389D01*
X235077Y3906D01*
X237023Y2714D01*
X238021Y2300D01*
X237922Y1800D01*
X21704D01*
X21605Y2300D01*
X22603Y2714D01*
X24549Y3906D01*
X26285Y5389D01*
X27767Y7124D01*
X28960Y9070D01*
X29833Y11179D01*
X30366Y13398D01*
X30545Y15673D01*
X30366Y17948D01*
X29833Y20168D01*
X28960Y22276D01*
X27767Y24223D01*
X26285Y25958D01*
X24549Y27440D01*
X22603Y28633D01*
X20495Y29506D01*
X18275Y30039D01*
X16000Y30218D01*
X13725Y30039D01*
X11505Y29506D01*
X9397Y28633D01*
X7451Y27440D01*
X5715Y25958D01*
X4233Y24223D01*
X3040Y22276D01*
X2167Y20168D01*
X1634Y17948D01*
X1500Y16243D01*
X1000Y16263D01*
Y279011D01*
X1500Y279030D01*
X1634Y277325D01*
X2167Y275105D01*
X3040Y272997D01*
X4233Y271051D01*
X5715Y269315D01*
X7451Y267833D01*
X9397Y266640D01*
X11505Y265767D01*
X13725Y265234D01*
X16000Y265055D01*
X18275Y265234D01*
X20495Y265767D01*
X22603Y266640D01*
X24549Y267833D01*
X26285Y269315D01*
X27767Y271051D01*
X28960Y272997D01*
X29833Y275105D01*
X30366Y277325D01*
X30545Y279600D01*
X30366Y281875D01*
X29833Y284095D01*
X28960Y286203D01*
X27767Y288149D01*
X26285Y289885D01*
X24549Y291367D01*
X23190Y292200D01*
X23331Y292700D01*
X236535D01*
X236676Y292200D01*
X235077Y291220D01*
X233341Y289738D01*
X231859Y288002D01*
X230666Y286056D01*
X229793Y283947D01*
X229260Y281728D01*
X229081Y279453D01*
X229260Y277177D01*
X229793Y274958D01*
X230666Y272849D01*
X231859Y270903D01*
X233341Y269168D01*
X235077Y267686D01*
X237023Y266493D01*
X239131Y265620D01*
X241351Y265087D01*
X243626Y264908D01*
X245901Y265087D01*
X248121Y265620D01*
X250229Y266493D01*
X252175Y267686D01*
X253911Y269168D01*
X255393Y270903D01*
X256586Y272849D01*
X257459Y274958D01*
X257992Y277177D01*
X258171Y279453D01*
X257992Y281728D01*
X257459Y283947D01*
X256586Y286056D01*
X255393Y288002D01*
X253911Y289738D01*
X252175Y291220D01*
X250576Y292200D01*
X250717Y292700D01*
X344901D01*
X345042Y292200D01*
D02*
G37*
%LPC*%
G36*
X133000Y104378D02*
X132152Y104266D01*
X131361Y103939D01*
X130682Y103418D01*
X130161Y102739D01*
X129834Y101948D01*
X129722Y101100D01*
X129834Y100252D01*
X130161Y99461D01*
X130682Y98782D01*
X131361Y98261D01*
X132152Y97934D01*
X133000Y97822D01*
X133848Y97934D01*
X134639Y98261D01*
X135318Y98782D01*
X135839Y99461D01*
X136166Y100252D01*
X136278Y101100D01*
X136166Y101948D01*
X135839Y102739D01*
X135318Y103418D01*
X134639Y103939D01*
X133848Y104266D01*
X133000Y104378D01*
D02*
G37*
G36*
X90000Y104578D02*
X89152Y104466D01*
X88361Y104139D01*
X87682Y103618D01*
X87161Y102939D01*
X86834Y102148D01*
X86722Y101300D01*
X86834Y100452D01*
X87161Y99661D01*
X87682Y98982D01*
X88361Y98461D01*
X89152Y98134D01*
X90000Y98022D01*
X90848Y98134D01*
X91639Y98461D01*
X92318Y98982D01*
X92839Y99661D01*
X93166Y100452D01*
X93278Y101300D01*
X93166Y102148D01*
X92839Y102939D01*
X92318Y103618D01*
X91639Y104139D01*
X90848Y104466D01*
X90000Y104578D01*
D02*
G37*
G36*
X8200Y104078D02*
X7352Y103966D01*
X6561Y103639D01*
X5882Y103118D01*
X5361Y102439D01*
X5034Y101648D01*
X4922Y100800D01*
X5034Y99952D01*
X5361Y99161D01*
X5882Y98482D01*
X6561Y97961D01*
X7352Y97634D01*
X8200Y97522D01*
X9048Y97634D01*
X9839Y97961D01*
X10518Y98482D01*
X11039Y99161D01*
X11366Y99952D01*
X11478Y100800D01*
X11366Y101648D01*
X11039Y102439D01*
X10518Y103118D01*
X9839Y103639D01*
X9048Y103966D01*
X8200Y104078D01*
D02*
G37*
G36*
X236200Y102478D02*
X235352Y102366D01*
X234561Y102039D01*
X233882Y101518D01*
X233361Y100839D01*
X233034Y100048D01*
X232922Y99200D01*
X233034Y98352D01*
X233361Y97561D01*
X233831Y96949D01*
X233708Y96449D01*
X119556D01*
X117602Y98402D01*
X116776Y98955D01*
X115800Y99149D01*
X115617D01*
X115239Y99439D01*
X114448Y99766D01*
X113600Y99878D01*
X112752Y99766D01*
X111961Y99439D01*
X111282Y98918D01*
X110761Y98239D01*
X110434Y97448D01*
X110322Y96600D01*
X110434Y95752D01*
X110761Y94961D01*
X111282Y94282D01*
X111961Y93761D01*
X112752Y93434D01*
X113600Y93322D01*
X114448Y93434D01*
X115094Y93701D01*
X116698Y92098D01*
X117525Y91545D01*
X118500Y91351D01*
X234346D01*
X234516Y90851D01*
X234082Y90518D01*
X233561Y89839D01*
X233234Y89048D01*
X233122Y88200D01*
X233234Y87352D01*
X233561Y86561D01*
X234082Y85882D01*
X234761Y85361D01*
X235552Y85034D01*
X236400Y84922D01*
X237248Y85034D01*
X238039Y85361D01*
X238718Y85882D01*
X239239Y86561D01*
X239566Y87352D01*
X239678Y88200D01*
X239566Y89048D01*
X239239Y89839D01*
X238718Y90518D01*
X238637Y90580D01*
X238748Y91125D01*
X238920Y91169D01*
X239061Y91061D01*
X239852Y90734D01*
X240700Y90622D01*
X241548Y90734D01*
X242339Y91061D01*
X243018Y91582D01*
X243539Y92261D01*
X243866Y93052D01*
X243978Y93900D01*
X243866Y94748D01*
X243539Y95539D01*
X243018Y96218D01*
X242339Y96739D01*
X241548Y97066D01*
X240700Y97178D01*
X239852Y97066D01*
X239061Y96739D01*
X239006Y96697D01*
X238649Y97053D01*
X239039Y97561D01*
X239366Y98352D01*
X239478Y99200D01*
X239366Y100048D01*
X239039Y100839D01*
X238518Y101518D01*
X237839Y102039D01*
X237048Y102366D01*
X236200Y102478D01*
D02*
G37*
G36*
X75500Y103878D02*
X74652Y103766D01*
X73861Y103439D01*
X73182Y102918D01*
X72661Y102239D01*
X72334Y101448D01*
X72222Y100600D01*
X72334Y99752D01*
X72661Y98961D01*
X73182Y98282D01*
X73861Y97761D01*
X74652Y97434D01*
X75500Y97322D01*
X76348Y97434D01*
X77139Y97761D01*
X77818Y98282D01*
X78339Y98961D01*
X78666Y99752D01*
X78778Y100600D01*
X78666Y101448D01*
X78339Y102239D01*
X77818Y102918D01*
X77139Y103439D01*
X76348Y103766D01*
X75500Y103878D01*
D02*
G37*
G36*
X226300Y132138D02*
X225452Y132026D01*
X224661Y131699D01*
X223982Y131178D01*
X223461Y130499D01*
X223134Y129708D01*
X223022Y128860D01*
X223134Y128011D01*
X223461Y127221D01*
X223982Y126542D01*
X224661Y126021D01*
X225452Y125694D01*
X226300Y125582D01*
X227148Y125694D01*
X227939Y126021D01*
X228618Y126542D01*
X229139Y127221D01*
X229466Y128011D01*
X229578Y128860D01*
X229466Y129708D01*
X229139Y130499D01*
X228618Y131178D01*
X227939Y131699D01*
X227148Y132026D01*
X226300Y132138D01*
D02*
G37*
G36*
X236500Y136078D02*
X235652Y135966D01*
X234861Y135639D01*
X234182Y135118D01*
X233661Y134439D01*
X233334Y133648D01*
X233222Y132800D01*
X233334Y131952D01*
X233661Y131161D01*
X234182Y130482D01*
X234861Y129961D01*
X235652Y129634D01*
X236500Y129522D01*
X237348Y129634D01*
X238139Y129961D01*
X238818Y130482D01*
X239339Y131161D01*
X239666Y131952D01*
X239778Y132800D01*
X239666Y133648D01*
X239339Y134439D01*
X238818Y135118D01*
X238139Y135639D01*
X237348Y135966D01*
X236500Y136078D01*
D02*
G37*
G36*
X110000Y132134D02*
X108628Y131999D01*
X107308Y131598D01*
X106092Y130948D01*
X105026Y130074D01*
X104151Y129008D01*
X103501Y127792D01*
X103101Y126472D01*
X102966Y125100D01*
X103101Y123728D01*
X103501Y122408D01*
X104151Y121192D01*
X105026Y120126D01*
X105897Y119411D01*
X105932Y119328D01*
Y118872D01*
X105897Y118789D01*
X105026Y118074D01*
X104151Y117008D01*
X103501Y115792D01*
X103101Y114472D01*
X102966Y113100D01*
X103101Y111728D01*
X103501Y110408D01*
X104151Y109192D01*
X105026Y108126D01*
X106092Y107252D01*
X107308Y106602D01*
X108628Y106201D01*
X110000Y106066D01*
X111372Y106201D01*
X112692Y106602D01*
X113908Y107252D01*
X114974Y108126D01*
X115849Y109192D01*
X116498Y110408D01*
X116899Y111728D01*
X117034Y113100D01*
X116899Y114472D01*
X116498Y115792D01*
X115849Y117008D01*
X114974Y118074D01*
X114102Y118789D01*
X114068Y118872D01*
Y119328D01*
X114102Y119411D01*
X114974Y120126D01*
X115849Y121192D01*
X116498Y122408D01*
X116899Y123728D01*
X117034Y125100D01*
X116899Y126472D01*
X116498Y127792D01*
X115849Y129008D01*
X114974Y130074D01*
X113908Y130948D01*
X112692Y131598D01*
X111372Y131999D01*
X110000Y132134D01*
D02*
G37*
G36*
X226100Y110478D02*
X225252Y110366D01*
X224461Y110039D01*
X223782Y109518D01*
X223261Y108839D01*
X222934Y108048D01*
X222822Y107200D01*
X222934Y106352D01*
X223261Y105561D01*
X223782Y104882D01*
X224461Y104361D01*
X225252Y104034D01*
X226100Y103922D01*
X226948Y104034D01*
X227739Y104361D01*
X228418Y104882D01*
X228939Y105561D01*
X229266Y106352D01*
X229378Y107200D01*
X229266Y108048D01*
X228939Y108839D01*
X228418Y109518D01*
X227739Y110039D01*
X226948Y110366D01*
X226100Y110478D01*
D02*
G37*
G36*
X50000Y132134D02*
X48628Y131999D01*
X47308Y131598D01*
X46092Y130948D01*
X45026Y130074D01*
X44151Y129008D01*
X43501Y127792D01*
X43101Y126472D01*
X42966Y125100D01*
X43101Y123728D01*
X43501Y122408D01*
X44151Y121192D01*
X45026Y120126D01*
X45897Y119411D01*
X45932Y119328D01*
Y118872D01*
X45897Y118789D01*
X45026Y118074D01*
X44151Y117008D01*
X43501Y115792D01*
X43101Y114472D01*
X42966Y113100D01*
X43101Y111728D01*
X43501Y110408D01*
X44151Y109192D01*
X45026Y108126D01*
X46092Y107252D01*
X47308Y106602D01*
X48628Y106201D01*
X50000Y106066D01*
X51372Y106201D01*
X52692Y106602D01*
X53908Y107252D01*
X54974Y108126D01*
X55848Y109192D01*
X56498Y110408D01*
X56899Y111728D01*
X57034Y113100D01*
X56899Y114472D01*
X56498Y115792D01*
X55848Y117008D01*
X54974Y118074D01*
X54102Y118789D01*
X54068Y118872D01*
Y119328D01*
X54102Y119411D01*
X54974Y120126D01*
X55848Y121192D01*
X56498Y122408D01*
X56899Y123728D01*
X57034Y125100D01*
X56899Y126472D01*
X56498Y127792D01*
X55848Y129008D01*
X54974Y130074D01*
X53908Y130948D01*
X52692Y131598D01*
X51372Y131999D01*
X50000Y132134D01*
D02*
G37*
G36*
X226200Y87378D02*
X225352Y87266D01*
X224561Y86939D01*
X223882Y86418D01*
X223361Y85739D01*
X223034Y84948D01*
X222922Y84100D01*
X223034Y83252D01*
X223361Y82461D01*
X223882Y81782D01*
X224561Y81261D01*
X225352Y80934D01*
X226200Y80822D01*
X227048Y80934D01*
X227839Y81261D01*
X228518Y81782D01*
X229039Y82461D01*
X229366Y83252D01*
X229478Y84100D01*
X229366Y84948D01*
X229039Y85739D01*
X228518Y86418D01*
X227839Y86939D01*
X227048Y87266D01*
X226200Y87378D01*
D02*
G37*
G36*
X297800Y273737D02*
X295917Y273589D01*
X294080Y273148D01*
X292335Y272425D01*
X290725Y271438D01*
X289288Y270212D01*
X288062Y268775D01*
X287075Y267165D01*
X286352Y265420D01*
X285911Y263583D01*
X285763Y261700D01*
X285911Y259817D01*
X286352Y257980D01*
X287075Y256235D01*
X288062Y254625D01*
X289288Y253188D01*
X290725Y251962D01*
X292335Y250975D01*
X294080Y250252D01*
X295917Y249811D01*
X297800Y249663D01*
X299683Y249811D01*
X301520Y250252D01*
X303265Y250975D01*
X304875Y251962D01*
X306311Y253188D01*
X307538Y254625D01*
X308525Y256235D01*
X309248Y257980D01*
X309351Y258409D01*
X309832Y258545D01*
X326426Y241951D01*
Y49149D01*
X313751Y36474D01*
X309475D01*
X309248Y37420D01*
X308525Y39165D01*
X307538Y40775D01*
X306311Y42211D01*
X304875Y43438D01*
X303265Y44425D01*
X301520Y45148D01*
X299683Y45589D01*
X297800Y45737D01*
X295917Y45589D01*
X294080Y45148D01*
X292335Y44425D01*
X290725Y43438D01*
X289288Y42211D01*
X288062Y40775D01*
X287075Y39165D01*
X286352Y37420D01*
X285911Y35583D01*
X285763Y33700D01*
X285911Y31817D01*
X286352Y29980D01*
X287075Y28235D01*
X288062Y26625D01*
X289288Y25188D01*
X290725Y23962D01*
X292335Y22975D01*
X294080Y22252D01*
X295917Y21811D01*
X297800Y21663D01*
X299683Y21811D01*
X301520Y22252D01*
X303265Y22975D01*
X304875Y23962D01*
X306311Y25188D01*
X307538Y26625D01*
X308525Y28235D01*
X309248Y29980D01*
X309475Y30926D01*
X314900D01*
X315618Y31021D01*
X316287Y31298D01*
X316861Y31739D01*
X331161Y46039D01*
X331602Y46613D01*
X331879Y47282D01*
X331974Y48000D01*
Y243100D01*
X331879Y243818D01*
X331602Y244487D01*
X331161Y245061D01*
X312561Y263661D01*
X311987Y264102D01*
X311318Y264379D01*
X310600Y264474D01*
X309475D01*
X309248Y265420D01*
X308525Y267165D01*
X307538Y268775D01*
X306311Y270212D01*
X304875Y271438D01*
X303265Y272425D01*
X301520Y273148D01*
X299683Y273589D01*
X297800Y273737D01*
D02*
G37*
G36*
X226400Y43278D02*
X225552Y43166D01*
X224761Y42839D01*
X224082Y42318D01*
X223561Y41639D01*
X223234Y40848D01*
X223122Y40000D01*
X223234Y39152D01*
X223561Y38361D01*
X224082Y37682D01*
X224761Y37161D01*
X225552Y36834D01*
X226400Y36722D01*
X227248Y36834D01*
X228039Y37161D01*
X228718Y37682D01*
X229239Y38361D01*
X229566Y39152D01*
X229678Y40000D01*
X229566Y40848D01*
X229239Y41639D01*
X228718Y42318D01*
X228039Y42839D01*
X227248Y43166D01*
X226400Y43278D01*
D02*
G37*
G36*
X15900Y42478D02*
X15052Y42366D01*
X14261Y42039D01*
X13582Y41518D01*
X13061Y40839D01*
X12734Y40048D01*
X12622Y39200D01*
X12734Y38352D01*
X13061Y37561D01*
X13582Y36882D01*
X14261Y36361D01*
X15052Y36034D01*
X15900Y35922D01*
X16748Y36034D01*
X17539Y36361D01*
X18218Y36882D01*
X18739Y37561D01*
X19066Y38352D01*
X19178Y39200D01*
X19066Y40048D01*
X18739Y40839D01*
X18218Y41518D01*
X17539Y42039D01*
X16748Y42366D01*
X15900Y42478D01*
D02*
G37*
G36*
X163300Y35078D02*
X162452Y34966D01*
X161661Y34639D01*
X160982Y34118D01*
X160461Y33439D01*
X160134Y32648D01*
X160022Y31800D01*
X160134Y30952D01*
X160461Y30161D01*
X160982Y29482D01*
X161661Y28961D01*
X162452Y28634D01*
X163300Y28522D01*
X164148Y28634D01*
X164939Y28961D01*
X165618Y29482D01*
X166139Y30161D01*
X166466Y30952D01*
X166578Y31800D01*
X166466Y32648D01*
X166139Y33439D01*
X165618Y34118D01*
X164939Y34639D01*
X164148Y34966D01*
X163300Y35078D01*
D02*
G37*
G36*
X79900Y42078D02*
X79052Y41966D01*
X78261Y41639D01*
X77582Y41118D01*
X77061Y40439D01*
X76734Y39648D01*
X76622Y38800D01*
X76734Y37952D01*
X77061Y37161D01*
X77582Y36482D01*
X78261Y35961D01*
X79052Y35634D01*
X79900Y35522D01*
X80748Y35634D01*
X81539Y35961D01*
X82218Y36482D01*
X82739Y37161D01*
X83066Y37952D01*
X83178Y38800D01*
X83066Y39648D01*
X82739Y40439D01*
X82218Y41118D01*
X81539Y41639D01*
X80748Y41966D01*
X79900Y42078D01*
D02*
G37*
G36*
X110000Y72134D02*
X108628Y71999D01*
X107308Y71599D01*
X106092Y70948D01*
X105026Y70074D01*
X104151Y69008D01*
X103501Y67792D01*
X103101Y66472D01*
X102966Y65100D01*
X103101Y63728D01*
X103501Y62408D01*
X104151Y61192D01*
X105026Y60126D01*
X105897Y59411D01*
X105932Y59328D01*
Y58872D01*
X105897Y58789D01*
X105026Y58074D01*
X104151Y57008D01*
X103501Y55792D01*
X103101Y54472D01*
X102966Y53100D01*
X103101Y51728D01*
X103501Y50408D01*
X104151Y49192D01*
X105026Y48126D01*
X106092Y47251D01*
X107308Y46602D01*
X108628Y46201D01*
X110000Y46066D01*
X111372Y46201D01*
X112692Y46602D01*
X113908Y47251D01*
X114974Y48126D01*
X115849Y49192D01*
X116498Y50408D01*
X116899Y51728D01*
X117034Y53100D01*
X116899Y54472D01*
X116498Y55792D01*
X115849Y57008D01*
X114974Y58074D01*
X114102Y58789D01*
X114068Y58872D01*
Y59328D01*
X114102Y59411D01*
X114974Y60126D01*
X115849Y61192D01*
X116498Y62408D01*
X116899Y63728D01*
X117034Y65100D01*
X116899Y66472D01*
X116498Y67792D01*
X115849Y69008D01*
X114974Y70074D01*
X113908Y70948D01*
X112692Y71599D01*
X111372Y71999D01*
X110000Y72134D01*
D02*
G37*
G36*
X309000Y169739D02*
X307825Y169584D01*
X306731Y169131D01*
X305791Y168409D01*
X305069Y167469D01*
X304616Y166375D01*
X304461Y165200D01*
X304616Y164025D01*
X305069Y162931D01*
X305791Y161991D01*
X306731Y161269D01*
X307825Y160816D01*
X309000Y160661D01*
X310175Y160816D01*
X311269Y161269D01*
X312209Y161991D01*
X312544Y162426D01*
X313051D01*
X315926Y159551D01*
Y61449D01*
X313951Y59474D01*
X279549D01*
X267161Y71861D01*
X266587Y72302D01*
X265918Y72579D01*
X265200Y72674D01*
X243839D01*
X243496Y73174D01*
X243578Y73800D01*
X243466Y74648D01*
X243139Y75439D01*
X242618Y76118D01*
X241939Y76639D01*
X241148Y76966D01*
X240300Y77078D01*
X240117Y77054D01*
X239639Y77495D01*
X239566Y78048D01*
X239239Y78839D01*
X238718Y79518D01*
X238039Y80039D01*
X237248Y80366D01*
X236400Y80478D01*
X235552Y80366D01*
X234761Y80039D01*
X234082Y79518D01*
X233561Y78839D01*
X233234Y78048D01*
X233122Y77200D01*
X233168Y76849D01*
X232730Y76349D01*
X161971D01*
X161918Y76418D01*
X161239Y76939D01*
X160448Y77266D01*
X159600Y77378D01*
X158752Y77266D01*
X157961Y76939D01*
X157282Y76418D01*
X156761Y75739D01*
X156434Y74948D01*
X156322Y74100D01*
X156434Y73252D01*
X156761Y72461D01*
X157282Y71782D01*
X157961Y71261D01*
X158752Y70934D01*
X159600Y70822D01*
X160448Y70934D01*
X161215Y71251D01*
X165673D01*
X165852Y70751D01*
X165026Y70074D01*
X164152Y69008D01*
X163502Y67792D01*
X163101Y66472D01*
X162966Y65100D01*
X163101Y63728D01*
X163502Y62408D01*
X164152Y61192D01*
X165026Y60126D01*
X165898Y59411D01*
X165932Y59328D01*
Y58872D01*
X165898Y58789D01*
X165026Y58074D01*
X164152Y57008D01*
X163502Y55792D01*
X163101Y54472D01*
X162966Y53100D01*
X163101Y51728D01*
X163502Y50408D01*
X164152Y49192D01*
X165026Y48126D01*
X166092Y47251D01*
X167308Y46602D01*
X168628Y46201D01*
X170000Y46066D01*
X171372Y46201D01*
X172692Y46602D01*
X173908Y47251D01*
X174974Y48126D01*
X175848Y49192D01*
X176498Y50408D01*
X176899Y51728D01*
X177034Y53100D01*
X176899Y54472D01*
X176498Y55792D01*
X175848Y57008D01*
X174974Y58074D01*
X174102Y58789D01*
X174068Y58872D01*
Y59328D01*
X174102Y59411D01*
X174974Y60126D01*
X175848Y61192D01*
X176498Y62408D01*
X176899Y63728D01*
X176937Y64114D01*
X179649Y66826D01*
X181318D01*
X181618Y66326D01*
X181522Y65600D01*
X181634Y64752D01*
X181961Y63961D01*
X182482Y63282D01*
X183161Y62761D01*
X183952Y62434D01*
X184800Y62322D01*
X185648Y62434D01*
X186439Y62761D01*
X186817Y63051D01*
X189844D01*
X195398Y57498D01*
X196224Y56945D01*
X197200Y56751D01*
X233944D01*
X235770Y54926D01*
X235590Y54398D01*
X235352Y54366D01*
X234561Y54039D01*
X233882Y53518D01*
X233361Y52839D01*
X233034Y52048D01*
X232922Y51200D01*
X233034Y50352D01*
X233361Y49561D01*
X233882Y48882D01*
X234561Y48361D01*
X235352Y48034D01*
X236200Y47922D01*
X237048Y48034D01*
X237839Y48361D01*
X238518Y48882D01*
X239039Y49561D01*
X239366Y50352D01*
X239428Y50820D01*
X239452Y50834D01*
X240300Y50722D01*
X241148Y50834D01*
X241939Y51161D01*
X242618Y51682D01*
X243139Y52361D01*
X243466Y53152D01*
X243578Y54000D01*
X243466Y54848D01*
X243139Y55639D01*
X242618Y56318D01*
X241939Y56839D01*
X241148Y57166D01*
X240676Y57228D01*
X236802Y61102D01*
X235976Y61655D01*
X235000Y61849D01*
X229883D01*
X229505Y62349D01*
X229578Y62900D01*
X229466Y63748D01*
X229139Y64539D01*
X228618Y65218D01*
X227939Y65739D01*
X227148Y66066D01*
X226300Y66178D01*
X225452Y66066D01*
X224661Y65739D01*
X223982Y65218D01*
X223461Y64539D01*
X223134Y63748D01*
X223022Y62900D01*
X223095Y62349D01*
X222717Y61849D01*
X219991D01*
X219874Y62106D01*
X219853Y62349D01*
X220361Y62739D01*
X224749Y67126D01*
X232938D01*
X233268Y66750D01*
X233222Y66400D01*
X233334Y65552D01*
X233661Y64761D01*
X234182Y64082D01*
X234861Y63561D01*
X235652Y63234D01*
X236500Y63122D01*
X237348Y63234D01*
X238139Y63561D01*
X238818Y64082D01*
X239339Y64761D01*
X239666Y65552D01*
X239778Y66400D01*
X239732Y66750D01*
X240062Y67126D01*
X264051D01*
X276439Y54739D01*
X277013Y54298D01*
X277682Y54021D01*
X278400Y53926D01*
X315100D01*
X315818Y54021D01*
X316487Y54298D01*
X317061Y54739D01*
X320661Y58339D01*
X321102Y58913D01*
X321379Y59582D01*
X321474Y60300D01*
Y160700D01*
X321379Y161418D01*
X321102Y162087D01*
X320661Y162661D01*
X316161Y167161D01*
X315587Y167602D01*
X314918Y167879D01*
X314200Y167974D01*
X312544D01*
X312209Y168409D01*
X311269Y169131D01*
X310175Y169584D01*
X309000Y169739D01*
D02*
G37*
G36*
X50000Y72134D02*
X48628Y71999D01*
X47308Y71599D01*
X46092Y70948D01*
X45026Y70074D01*
X44151Y69008D01*
X43501Y67792D01*
X43101Y66472D01*
X42966Y65100D01*
X43101Y63728D01*
X43501Y62408D01*
X44151Y61192D01*
X45026Y60126D01*
X45897Y59411D01*
X45932Y59328D01*
Y58872D01*
X45897Y58789D01*
X45026Y58074D01*
X44151Y57008D01*
X43501Y55792D01*
X43101Y54472D01*
X42966Y53100D01*
X43101Y51728D01*
X43501Y50408D01*
X44151Y49192D01*
X45026Y48126D01*
X46092Y47251D01*
X47308Y46602D01*
X48628Y46201D01*
X50000Y46066D01*
X51372Y46201D01*
X52692Y46602D01*
X53908Y47251D01*
X54974Y48126D01*
X55848Y49192D01*
X56498Y50408D01*
X56899Y51728D01*
X57034Y53100D01*
X56899Y54472D01*
X56498Y55792D01*
X55848Y57008D01*
X54974Y58074D01*
X54102Y58789D01*
X54068Y58872D01*
Y59328D01*
X54102Y59411D01*
X54974Y60126D01*
X55848Y61192D01*
X56498Y62408D01*
X56899Y63728D01*
X57034Y65100D01*
X56899Y66472D01*
X56498Y67792D01*
X55848Y69008D01*
X54974Y70074D01*
X53908Y70948D01*
X52692Y71599D01*
X51372Y71999D01*
X50000Y72134D01*
D02*
G37*
G36*
X140700Y46378D02*
X139852Y46266D01*
X139061Y45939D01*
X138382Y45418D01*
X137861Y44739D01*
X137534Y43948D01*
X137422Y43100D01*
X137534Y42252D01*
X137861Y41461D01*
X138382Y40782D01*
X139061Y40261D01*
X139852Y39934D01*
X140700Y39822D01*
X141548Y39934D01*
X142339Y40261D01*
X143018Y40782D01*
X143539Y41461D01*
X143866Y42252D01*
X143978Y43100D01*
X143866Y43948D01*
X143539Y44739D01*
X143018Y45418D01*
X142339Y45939D01*
X141548Y46266D01*
X140700Y46378D01*
D02*
G37*
G36*
X236400Y47178D02*
X235552Y47066D01*
X234761Y46739D01*
X234082Y46218D01*
X233561Y45539D01*
X233234Y44748D01*
X233122Y43900D01*
X233234Y43052D01*
X233561Y42261D01*
X234082Y41582D01*
X234761Y41061D01*
X235552Y40734D01*
X236400Y40622D01*
X237248Y40734D01*
X238039Y41061D01*
X238718Y41582D01*
X239239Y42261D01*
X239566Y43052D01*
X239678Y43900D01*
X239566Y44748D01*
X239239Y45539D01*
X238718Y46218D01*
X238039Y46739D01*
X237248Y47066D01*
X236400Y47178D01*
D02*
G37*
G36*
X309000Y229739D02*
X307825Y229584D01*
X306731Y229131D01*
X305791Y228409D01*
X305069Y227469D01*
X304616Y226375D01*
X304461Y225200D01*
X304603Y224121D01*
X304391Y223933D01*
X304154Y223836D01*
X303769Y224131D01*
X302675Y224584D01*
X301500Y224739D01*
X300325Y224584D01*
X299231Y224131D01*
X298846Y223836D01*
X298609Y223933D01*
X298397Y224121D01*
X298539Y225200D01*
X298384Y226375D01*
X297931Y227469D01*
X297209Y228409D01*
X296269Y229131D01*
X295175Y229584D01*
X294000Y229739D01*
X292825Y229584D01*
X291731Y229131D01*
X290791Y228409D01*
X290069Y227469D01*
X289616Y226375D01*
X289461Y225200D01*
X289603Y224121D01*
X289391Y223933D01*
X289154Y223836D01*
X288769Y224131D01*
X287675Y224584D01*
X286500Y224739D01*
X285325Y224584D01*
X284231Y224131D01*
X283291Y223409D01*
X282569Y222469D01*
X282116Y221375D01*
X281961Y220200D01*
X282116Y219025D01*
X282569Y217931D01*
X283291Y216991D01*
X284231Y216269D01*
X285325Y215816D01*
X286500Y215661D01*
X287675Y215816D01*
X288769Y216269D01*
X289709Y216991D01*
X290431Y217931D01*
X290884Y219025D01*
X291039Y220200D01*
X290897Y221279D01*
X291109Y221467D01*
X291346Y221564D01*
X291731Y221269D01*
X292825Y220816D01*
X294000Y220661D01*
X295175Y220816D01*
X296269Y221269D01*
X296654Y221564D01*
X296891Y221467D01*
X297103Y221279D01*
X296961Y220200D01*
X297116Y219025D01*
X297569Y217931D01*
X298291Y216991D01*
X299231Y216269D01*
X300325Y215816D01*
X301500Y215661D01*
X302675Y215816D01*
X303769Y216269D01*
X304709Y216991D01*
X305431Y217931D01*
X305884Y219025D01*
X306039Y220200D01*
X305897Y221279D01*
X306109Y221467D01*
X306346Y221564D01*
X306731Y221269D01*
X307825Y220816D01*
X309000Y220661D01*
X310175Y220816D01*
X311269Y221269D01*
X312209Y221991D01*
X312931Y222931D01*
X313384Y224025D01*
X313539Y225200D01*
X313384Y226375D01*
X312931Y227469D01*
X312209Y228409D01*
X311269Y229131D01*
X310175Y229584D01*
X309000Y229739D01*
D02*
G37*
G36*
X50000Y252134D02*
X48628Y251999D01*
X47308Y251599D01*
X46092Y250949D01*
X45026Y250074D01*
X44151Y249008D01*
X43501Y247792D01*
X43101Y246472D01*
X42966Y245100D01*
X43101Y243728D01*
X43501Y242408D01*
X44151Y241192D01*
X45026Y240126D01*
X45897Y239411D01*
X45932Y239328D01*
Y238872D01*
X45897Y238789D01*
X45026Y238074D01*
X44151Y237008D01*
X43501Y235792D01*
X43101Y234472D01*
X42966Y233100D01*
X43101Y231728D01*
X43501Y230408D01*
X44151Y229192D01*
X45026Y228126D01*
X46092Y227252D01*
X47308Y226602D01*
X48628Y226201D01*
X50000Y226066D01*
X51372Y226201D01*
X52692Y226602D01*
X53908Y227252D01*
X54974Y228126D01*
X55848Y229192D01*
X56498Y230408D01*
X56899Y231728D01*
X57034Y233100D01*
X56899Y234472D01*
X56498Y235792D01*
X55848Y237008D01*
X54974Y238074D01*
X54102Y238789D01*
X54068Y238872D01*
Y239328D01*
X54102Y239411D01*
X54974Y240126D01*
X55848Y241192D01*
X56498Y242408D01*
X56899Y243728D01*
X57034Y245100D01*
X56899Y246472D01*
X56498Y247792D01*
X55848Y249008D01*
X54974Y250074D01*
X53908Y250949D01*
X52692Y251599D01*
X51372Y251999D01*
X50000Y252134D01*
D02*
G37*
G36*
X226300Y221678D02*
X225452Y221566D01*
X224661Y221239D01*
X223982Y220718D01*
X223461Y220039D01*
X223134Y219248D01*
X223022Y218400D01*
X223134Y217552D01*
X223461Y216761D01*
X223982Y216082D01*
X224661Y215561D01*
X225452Y215234D01*
X226300Y215122D01*
X227148Y215234D01*
X227939Y215561D01*
X228618Y216082D01*
X229139Y216761D01*
X229466Y217552D01*
X229578Y218400D01*
X229466Y219248D01*
X229139Y220039D01*
X228618Y220718D01*
X227939Y221239D01*
X227148Y221566D01*
X226300Y221678D01*
D02*
G37*
G36*
X301500Y214739D02*
X300325Y214584D01*
X299231Y214131D01*
X298291Y213409D01*
X297956Y212974D01*
X290044D01*
X289709Y213409D01*
X288769Y214131D01*
X287675Y214584D01*
X286500Y214739D01*
X285325Y214584D01*
X284231Y214131D01*
X283291Y213409D01*
X282569Y212469D01*
X282116Y211375D01*
X281961Y210200D01*
X282116Y209025D01*
X282569Y207931D01*
X283291Y206991D01*
X284231Y206269D01*
X285325Y205816D01*
X286500Y205661D01*
X287675Y205816D01*
X288769Y206269D01*
X289709Y206991D01*
X290044Y207426D01*
X297956D01*
X298291Y206991D01*
X299231Y206269D01*
X300325Y205816D01*
X301500Y205661D01*
X302675Y205816D01*
X303769Y206269D01*
X304709Y206991D01*
X305431Y207931D01*
X305884Y209025D01*
X306039Y210200D01*
X305884Y211375D01*
X305431Y212469D01*
X304709Y213409D01*
X303769Y214131D01*
X302675Y214584D01*
X301500Y214739D01*
D02*
G37*
G36*
X121100Y219878D02*
X120252Y219766D01*
X119461Y219439D01*
X118782Y218918D01*
X118261Y218239D01*
X117934Y217448D01*
X117822Y216600D01*
X117934Y215752D01*
X118261Y214961D01*
X118782Y214282D01*
X119461Y213761D01*
X120252Y213434D01*
X121100Y213322D01*
X121948Y213434D01*
X122739Y213761D01*
X123418Y214282D01*
X123939Y214961D01*
X124266Y215752D01*
X124378Y216600D01*
X124266Y217448D01*
X123939Y218239D01*
X123418Y218918D01*
X122739Y219439D01*
X121948Y219766D01*
X121100Y219878D01*
D02*
G37*
G36*
X53900Y284278D02*
X53052Y284166D01*
X52261Y283839D01*
X51582Y283318D01*
X51061Y282639D01*
X50734Y281848D01*
X50622Y281000D01*
X50734Y280152D01*
X51061Y279361D01*
X51582Y278682D01*
X52261Y278161D01*
X53052Y277834D01*
X53900Y277722D01*
X54748Y277834D01*
X55539Y278161D01*
X56218Y278682D01*
X56424Y278951D01*
X153002D01*
X153332Y278575D01*
X153322Y278500D01*
X153434Y277652D01*
X153761Y276861D01*
X154282Y276182D01*
X154961Y275661D01*
X155752Y275334D01*
X156600Y275222D01*
X157448Y275334D01*
X158239Y275661D01*
X158918Y276182D01*
X159439Y276861D01*
X159766Y277652D01*
X159878Y278500D01*
X159868Y278575D01*
X160198Y278951D01*
X210744D01*
X237772Y251924D01*
X237834Y251452D01*
X238161Y250661D01*
X238682Y249982D01*
X239361Y249461D01*
X240152Y249134D01*
X241000Y249022D01*
X241848Y249134D01*
X242639Y249461D01*
X243318Y249982D01*
X243839Y250661D01*
X244166Y251452D01*
X244278Y252300D01*
X244166Y253148D01*
X243839Y253939D01*
X243318Y254618D01*
X242639Y255139D01*
X241848Y255466D01*
X241376Y255528D01*
X213602Y283302D01*
X212775Y283855D01*
X211800Y284049D01*
X55032D01*
X54748Y284166D01*
X53900Y284278D01*
D02*
G37*
G36*
X170000Y271778D02*
X169152Y271666D01*
X168361Y271339D01*
X167682Y270818D01*
X167161Y270139D01*
X166834Y269348D01*
X166722Y268500D01*
X166834Y267652D01*
X167161Y266861D01*
X167682Y266182D01*
X168361Y265661D01*
X169152Y265334D01*
X170000Y265222D01*
X170848Y265334D01*
X171639Y265661D01*
X172318Y266182D01*
X172839Y266861D01*
X173166Y267652D01*
X173278Y268500D01*
X173166Y269348D01*
X172839Y270139D01*
X172318Y270818D01*
X171639Y271339D01*
X170848Y271666D01*
X170000Y271778D01*
D02*
G37*
G36*
X236500Y247678D02*
X235652Y247566D01*
X234861Y247239D01*
X234182Y246718D01*
X233661Y246039D01*
X233334Y245248D01*
X233222Y244400D01*
X233334Y243552D01*
X233661Y242761D01*
X234182Y242082D01*
X234861Y241561D01*
X235652Y241234D01*
X236500Y241122D01*
X237348Y241234D01*
X238139Y241561D01*
X238818Y242082D01*
X239339Y242761D01*
X239666Y243552D01*
X239778Y244400D01*
X239666Y245248D01*
X239339Y246039D01*
X238818Y246718D01*
X238139Y247239D01*
X237348Y247566D01*
X236500Y247678D01*
D02*
G37*
G36*
X170000Y252134D02*
X168628Y251999D01*
X167308Y251599D01*
X166092Y250949D01*
X165026Y250074D01*
X164152Y249008D01*
X163502Y247792D01*
X163101Y246472D01*
X162966Y245100D01*
X163101Y243728D01*
X163502Y242408D01*
X164152Y241192D01*
X165026Y240126D01*
X165898Y239411D01*
X165932Y239328D01*
Y238872D01*
X165898Y238789D01*
X165026Y238074D01*
X164152Y237008D01*
X163502Y235792D01*
X163101Y234472D01*
X162966Y233100D01*
X163101Y231728D01*
X163502Y230408D01*
X164068Y229349D01*
X163842Y228849D01*
X116158D01*
X115932Y229349D01*
X116498Y230408D01*
X116899Y231728D01*
X117034Y233100D01*
X116899Y234472D01*
X116498Y235792D01*
X115849Y237008D01*
X114974Y238074D01*
X114102Y238789D01*
X114068Y238872D01*
Y239328D01*
X114102Y239411D01*
X114974Y240126D01*
X115849Y241192D01*
X116498Y242408D01*
X116899Y243728D01*
X117034Y245100D01*
X116899Y246472D01*
X116498Y247792D01*
X115849Y249008D01*
X114974Y250074D01*
X113908Y250949D01*
X112692Y251599D01*
X111372Y251999D01*
X110000Y252134D01*
X108628Y251999D01*
X107308Y251599D01*
X106092Y250949D01*
X105026Y250074D01*
X104151Y249008D01*
X103501Y247792D01*
X103101Y246472D01*
X102966Y245100D01*
X103101Y243728D01*
X103501Y242408D01*
X104151Y241192D01*
X105026Y240126D01*
X105897Y239411D01*
X105932Y239328D01*
Y238872D01*
X105897Y238789D01*
X105026Y238074D01*
X104151Y237008D01*
X103501Y235792D01*
X103101Y234472D01*
X102966Y233100D01*
X103101Y231728D01*
X103501Y230408D01*
X104068Y229349D01*
X103842Y228849D01*
X61100D01*
X60124Y228655D01*
X59298Y228102D01*
X52824Y221628D01*
X52352Y221566D01*
X51561Y221239D01*
X50882Y220718D01*
X50361Y220039D01*
X50034Y219248D01*
X49922Y218400D01*
X50034Y217552D01*
X50361Y216761D01*
X50882Y216082D01*
X51561Y215561D01*
X52352Y215234D01*
X53200Y215122D01*
X54048Y215234D01*
X54839Y215561D01*
X55518Y216082D01*
X56039Y216761D01*
X56366Y217552D01*
X56428Y218024D01*
X62156Y223751D01*
X72420D01*
X72625Y223251D01*
X72334Y222548D01*
X72222Y221700D01*
X72334Y220852D01*
X72661Y220061D01*
X73182Y219382D01*
X73861Y218861D01*
X74652Y218534D01*
X75500Y218422D01*
X76348Y218534D01*
X77139Y218861D01*
X77818Y219382D01*
X78339Y220061D01*
X78666Y220852D01*
X78778Y221700D01*
X78666Y222548D01*
X78375Y223251D01*
X78580Y223751D01*
X87731D01*
X87977Y223251D01*
X87661Y222839D01*
X87334Y222048D01*
X87222Y221200D01*
X87334Y220352D01*
X87661Y219561D01*
X88182Y218882D01*
X88861Y218361D01*
X89652Y218034D01*
X90500Y217922D01*
X91348Y218034D01*
X92139Y218361D01*
X92818Y218882D01*
X93339Y219561D01*
X93666Y220352D01*
X93778Y221200D01*
X93666Y222048D01*
X93339Y222839D01*
X93023Y223251D01*
X93269Y223751D01*
X130175D01*
X130508Y223251D01*
X130422Y222600D01*
X130534Y221752D01*
X130861Y220961D01*
X131382Y220282D01*
X132061Y219761D01*
X132852Y219434D01*
X133700Y219322D01*
X134548Y219434D01*
X135339Y219761D01*
X136018Y220282D01*
X136539Y220961D01*
X136866Y221752D01*
X136978Y222600D01*
X136892Y223251D01*
X137225Y223751D01*
X148075D01*
X148408Y223251D01*
X148322Y222600D01*
X148434Y221752D01*
X148761Y220961D01*
X149282Y220282D01*
X149961Y219761D01*
X150752Y219434D01*
X151600Y219322D01*
X152448Y219434D01*
X153239Y219761D01*
X153918Y220282D01*
X154439Y220961D01*
X154766Y221752D01*
X154878Y222600D01*
X154792Y223251D01*
X155125Y223751D01*
X197200D01*
X198176Y223945D01*
X199002Y224498D01*
X201656Y227151D01*
X236162D01*
X236195Y226651D01*
X236121Y226641D01*
X235552Y226566D01*
X234761Y226239D01*
X234082Y225718D01*
X233561Y225039D01*
X233234Y224248D01*
X233122Y223400D01*
X233234Y222552D01*
X233561Y221761D01*
X234082Y221082D01*
X234761Y220561D01*
X235552Y220234D01*
X236400Y220122D01*
X237248Y220234D01*
X238039Y220561D01*
X238718Y221082D01*
X239239Y221761D01*
X239566Y222552D01*
X239678Y223400D01*
X239566Y224248D01*
X239239Y225039D01*
X238718Y225718D01*
X238039Y226239D01*
X237248Y226566D01*
X236679Y226641D01*
X236605Y226651D01*
X236638Y227151D01*
X238783D01*
X239161Y226861D01*
X239952Y226534D01*
X240800Y226422D01*
X241648Y226534D01*
X242439Y226861D01*
X243118Y227382D01*
X243639Y228061D01*
X243966Y228852D01*
X244078Y229700D01*
X243966Y230548D01*
X243639Y231339D01*
X243118Y232018D01*
X242439Y232539D01*
X241648Y232866D01*
X240800Y232978D01*
X240155Y232893D01*
X239833Y233033D01*
X239654Y233284D01*
X239566Y233948D01*
X239239Y234739D01*
X238718Y235418D01*
X238039Y235939D01*
X237248Y236266D01*
X236400Y236378D01*
X235552Y236266D01*
X234761Y235939D01*
X234082Y235418D01*
X233561Y234739D01*
X233234Y233948D01*
X233122Y233100D01*
X233168Y232749D01*
X232730Y232249D01*
X200600D01*
X199625Y232055D01*
X198798Y231502D01*
X196144Y228849D01*
X176158D01*
X175932Y229349D01*
X176498Y230408D01*
X176899Y231728D01*
X177034Y233100D01*
X176899Y234472D01*
X176498Y235792D01*
X175848Y237008D01*
X174974Y238074D01*
X174102Y238789D01*
X174068Y238872D01*
Y239328D01*
X174102Y239411D01*
X174974Y240126D01*
X175848Y241192D01*
X176498Y242408D01*
X176899Y243728D01*
X177034Y245100D01*
X176899Y246472D01*
X176498Y247792D01*
X175848Y249008D01*
X174974Y250074D01*
X173908Y250949D01*
X172692Y251599D01*
X171372Y251999D01*
X170000Y252134D01*
D02*
G37*
G36*
X226400Y243836D02*
X225552Y243725D01*
X224761Y243397D01*
X224082Y242876D01*
X223561Y242197D01*
X223234Y241407D01*
X223122Y240558D01*
X223234Y239710D01*
X223561Y238919D01*
X224082Y238240D01*
X224761Y237719D01*
X225552Y237392D01*
X226400Y237280D01*
X227248Y237392D01*
X228039Y237719D01*
X228718Y238240D01*
X229239Y238919D01*
X229566Y239710D01*
X229678Y240558D01*
X229566Y241407D01*
X229239Y242197D01*
X228718Y242876D01*
X228039Y243397D01*
X227248Y243725D01*
X226400Y243836D01*
D02*
G37*
G36*
Y198498D02*
X225552Y198386D01*
X224761Y198058D01*
X224082Y197538D01*
X223561Y196859D01*
X223234Y196068D01*
X223122Y195220D01*
X223234Y194371D01*
X223561Y193581D01*
X224082Y192902D01*
X224761Y192381D01*
X225552Y192053D01*
X226400Y191942D01*
X227248Y192053D01*
X228039Y192381D01*
X228718Y192902D01*
X229239Y193581D01*
X229566Y194371D01*
X229678Y195220D01*
X229566Y196068D01*
X229239Y196859D01*
X228718Y197538D01*
X228039Y198058D01*
X227248Y198386D01*
X226400Y198498D01*
D02*
G37*
G36*
X173400Y158378D02*
X172552Y158266D01*
X171761Y157939D01*
X171082Y157418D01*
X170561Y156739D01*
X170234Y155948D01*
X170122Y155100D01*
X170234Y154252D01*
X170561Y153461D01*
X171082Y152782D01*
X171761Y152261D01*
X172552Y151934D01*
X173400Y151822D01*
X174248Y151934D01*
X175039Y152261D01*
X175718Y152782D01*
X176239Y153461D01*
X176566Y154252D01*
X176678Y155100D01*
X176566Y155948D01*
X176239Y156739D01*
X175718Y157418D01*
X175039Y157939D01*
X174248Y158266D01*
X173400Y158378D01*
D02*
G37*
G36*
X50000Y192134D02*
X48628Y191999D01*
X47308Y191598D01*
X46092Y190948D01*
X45026Y190074D01*
X44151Y189008D01*
X43501Y187792D01*
X43101Y186472D01*
X42966Y185100D01*
X43101Y183728D01*
X43501Y182408D01*
X44151Y181192D01*
X45026Y180126D01*
X45897Y179411D01*
X45932Y179328D01*
Y178872D01*
X45897Y178789D01*
X45026Y178074D01*
X44151Y177008D01*
X43501Y175792D01*
X43101Y174472D01*
X42966Y173100D01*
X43101Y171728D01*
X43501Y170408D01*
X44151Y169192D01*
X45026Y168126D01*
X46092Y167252D01*
X47308Y166602D01*
X48628Y166201D01*
X50000Y166066D01*
X51372Y166201D01*
X52692Y166602D01*
X53908Y167252D01*
X54974Y168126D01*
X55848Y169192D01*
X56498Y170408D01*
X56899Y171728D01*
X57034Y173100D01*
X56899Y174472D01*
X56498Y175792D01*
X55848Y177008D01*
X54974Y178074D01*
X54102Y178789D01*
X54068Y178872D01*
Y179328D01*
X54102Y179411D01*
X54974Y180126D01*
X55848Y181192D01*
X56498Y182408D01*
X56899Y183728D01*
X57034Y185100D01*
X56899Y186472D01*
X56498Y187792D01*
X55848Y189008D01*
X54974Y190074D01*
X53908Y190948D01*
X52692Y191598D01*
X51372Y191999D01*
X50000Y192134D01*
D02*
G37*
G36*
X309000Y159739D02*
X307825Y159584D01*
X306731Y159131D01*
X305791Y158409D01*
X305069Y157469D01*
X304616Y156375D01*
X304461Y155200D01*
X304616Y154025D01*
X305069Y152931D01*
X305791Y151991D01*
X306731Y151269D01*
X307825Y150816D01*
X309000Y150661D01*
X310175Y150816D01*
X311269Y151269D01*
X312209Y151991D01*
X312931Y152931D01*
X313384Y154025D01*
X313539Y155200D01*
X313384Y156375D01*
X312931Y157469D01*
X312209Y158409D01*
X311269Y159131D01*
X310175Y159584D01*
X309000Y159739D01*
D02*
G37*
G36*
X236200Y147278D02*
X235352Y147166D01*
X234561Y146839D01*
X233882Y146318D01*
X233361Y145639D01*
X233034Y144848D01*
X232922Y144000D01*
X233034Y143152D01*
X233242Y142649D01*
X232920Y142149D01*
X130248D01*
X130118Y142318D01*
X129439Y142839D01*
X128648Y143166D01*
X127800Y143278D01*
X126952Y143166D01*
X126161Y142839D01*
X125482Y142318D01*
X124961Y141639D01*
X124634Y140848D01*
X124522Y140000D01*
X124634Y139152D01*
X124961Y138361D01*
X125431Y137749D01*
X125308Y137249D01*
X118356D01*
X116528Y139076D01*
X116466Y139548D01*
X116139Y140339D01*
X115618Y141018D01*
X114939Y141539D01*
X114148Y141866D01*
X113300Y141978D01*
X112452Y141866D01*
X111661Y141539D01*
X110982Y141018D01*
X110461Y140339D01*
X110134Y139548D01*
X110022Y138700D01*
X110134Y137852D01*
X110461Y137061D01*
X110982Y136382D01*
X111661Y135861D01*
X112452Y135534D01*
X112924Y135471D01*
X115498Y132898D01*
X116324Y132345D01*
X117300Y132151D01*
X167407D01*
X167482Y131651D01*
X167308Y131598D01*
X166092Y130948D01*
X165026Y130074D01*
X164152Y129008D01*
X163502Y127792D01*
X163101Y126472D01*
X162966Y125100D01*
X163101Y123728D01*
X163502Y122408D01*
X164152Y121192D01*
X165026Y120126D01*
X165898Y119411D01*
X165932Y119328D01*
Y118872D01*
X165898Y118789D01*
X165026Y118074D01*
X164152Y117008D01*
X163502Y115792D01*
X163101Y114472D01*
X162966Y113100D01*
X163101Y111728D01*
X163502Y110408D01*
X164152Y109192D01*
X165026Y108126D01*
X166092Y107252D01*
X167308Y106602D01*
X168628Y106201D01*
X170000Y106066D01*
X171372Y106201D01*
X172692Y106602D01*
X173908Y107252D01*
X174974Y108126D01*
X175848Y109192D01*
X176498Y110408D01*
X176899Y111728D01*
X177034Y113100D01*
X176899Y114472D01*
X176498Y115792D01*
X175848Y117008D01*
X174974Y118074D01*
X174102Y118789D01*
X174068Y118872D01*
Y119328D01*
X174102Y119411D01*
X174974Y120126D01*
X175848Y121192D01*
X176498Y122408D01*
X176899Y123728D01*
X177034Y125100D01*
X176899Y126472D01*
X176498Y127792D01*
X175848Y129008D01*
X174974Y130074D01*
X173908Y130948D01*
X172692Y131598D01*
X172519Y131651D01*
X172593Y132151D01*
X182244D01*
X198798Y115598D01*
X199625Y115045D01*
X200600Y114851D01*
X236262D01*
X236295Y114351D01*
X236221Y114341D01*
X235652Y114266D01*
X234861Y113939D01*
X234182Y113418D01*
X233661Y112739D01*
X233334Y111948D01*
X233222Y111100D01*
X233334Y110252D01*
X233661Y109461D01*
X234182Y108782D01*
X234861Y108261D01*
X235652Y107934D01*
X236500Y107822D01*
X237348Y107934D01*
X238139Y108261D01*
X238818Y108782D01*
X239339Y109461D01*
X239666Y110252D01*
X239778Y111100D01*
X239666Y111948D01*
X239339Y112739D01*
X238818Y113418D01*
X238139Y113939D01*
X237348Y114266D01*
X236779Y114341D01*
X236705Y114351D01*
X236738Y114851D01*
X238083D01*
X238461Y114561D01*
X239252Y114234D01*
X240100Y114122D01*
X240948Y114234D01*
X241739Y114561D01*
X242418Y115082D01*
X242939Y115761D01*
X243266Y116552D01*
X243378Y117400D01*
X243266Y118248D01*
X242939Y119039D01*
X242418Y119718D01*
X241739Y120239D01*
X240948Y120566D01*
X240100Y120678D01*
X239818Y120641D01*
X239464Y120994D01*
X239478Y121100D01*
X239366Y121948D01*
X239039Y122739D01*
X238518Y123418D01*
X237839Y123939D01*
X237048Y124266D01*
X236200Y124378D01*
X235352Y124266D01*
X234561Y123939D01*
X233882Y123418D01*
X233361Y122739D01*
X233034Y121948D01*
X232922Y121100D01*
X233008Y120449D01*
X232675Y119949D01*
X201656D01*
X185102Y136502D01*
X184997Y136573D01*
X185143Y137051D01*
X238283D01*
X238661Y136761D01*
X239452Y136434D01*
X240300Y136322D01*
X241148Y136434D01*
X241939Y136761D01*
X242618Y137282D01*
X243139Y137961D01*
X243466Y138752D01*
X243578Y139600D01*
X243466Y140448D01*
X243139Y141239D01*
X242618Y141918D01*
X241939Y142439D01*
X241148Y142766D01*
X240300Y142878D01*
X239765Y142808D01*
X239580Y142967D01*
X239380Y143259D01*
X239478Y144000D01*
X239366Y144848D01*
X239039Y145639D01*
X238518Y146318D01*
X237839Y146839D01*
X237048Y147166D01*
X236200Y147278D01*
D02*
G37*
G36*
X226200Y154695D02*
X225352Y154583D01*
X224561Y154255D01*
X223882Y153735D01*
X223361Y153056D01*
X223034Y152265D01*
X222922Y151417D01*
X223034Y150568D01*
X223361Y149777D01*
X223882Y149099D01*
X224561Y148578D01*
X225352Y148250D01*
X226200Y148138D01*
X227048Y148250D01*
X227839Y148578D01*
X228518Y149099D01*
X229039Y149777D01*
X229366Y150568D01*
X229478Y151417D01*
X229366Y152265D01*
X229039Y153056D01*
X228518Y153735D01*
X227839Y154255D01*
X227048Y154583D01*
X226200Y154695D01*
D02*
G37*
G36*
X110000Y192134D02*
X108628Y191999D01*
X107308Y191598D01*
X106092Y190948D01*
X105026Y190074D01*
X104151Y189008D01*
X103501Y187792D01*
X103101Y186472D01*
X102966Y185100D01*
X103101Y183728D01*
X103501Y182408D01*
X104151Y181192D01*
X105026Y180126D01*
X105897Y179411D01*
X105932Y179328D01*
Y178872D01*
X105897Y178789D01*
X105026Y178074D01*
X104151Y177008D01*
X103501Y175792D01*
X103101Y174472D01*
X102966Y173100D01*
X103101Y171728D01*
X103501Y170408D01*
X104151Y169192D01*
X105026Y168126D01*
X106092Y167252D01*
X107308Y166602D01*
X108628Y166201D01*
X110000Y166066D01*
X111372Y166201D01*
X112692Y166602D01*
X113908Y167252D01*
X114974Y168126D01*
X115849Y169192D01*
X116498Y170408D01*
X116899Y171728D01*
X117034Y173100D01*
X116899Y174472D01*
X116498Y175792D01*
X115849Y177008D01*
X114974Y178074D01*
X114102Y178789D01*
X114068Y178872D01*
Y179328D01*
X114102Y179411D01*
X114974Y180126D01*
X115849Y181192D01*
X116498Y182408D01*
X116899Y183728D01*
X117034Y185100D01*
X116899Y186472D01*
X116498Y187792D01*
X115849Y189008D01*
X114974Y190074D01*
X113908Y190948D01*
X112692Y191598D01*
X111372Y191999D01*
X110000Y192134D01*
D02*
G37*
G36*
X236100Y191478D02*
X235252Y191366D01*
X234461Y191039D01*
X233782Y190518D01*
X233261Y189839D01*
X232934Y189048D01*
X232822Y188200D01*
X232934Y187352D01*
X233225Y186649D01*
X233020Y186149D01*
X137800D01*
X136825Y185955D01*
X135998Y185402D01*
X108544Y157949D01*
X79500D01*
X78525Y157755D01*
X77698Y157202D01*
X60198Y139702D01*
X59645Y138875D01*
X59451Y137900D01*
Y104756D01*
X53124Y98428D01*
X52652Y98366D01*
X51861Y98039D01*
X51182Y97518D01*
X50661Y96839D01*
X50334Y96048D01*
X50222Y95200D01*
X50334Y94352D01*
X50661Y93561D01*
X51182Y92882D01*
X51861Y92361D01*
X52652Y92034D01*
X53500Y91922D01*
X54348Y92034D01*
X55139Y92361D01*
X55818Y92882D01*
X56339Y93561D01*
X56666Y94352D01*
X56729Y94824D01*
X63802Y101898D01*
X64355Y102725D01*
X64549Y103700D01*
Y136844D01*
X80556Y152851D01*
X109600D01*
X110575Y153045D01*
X111402Y153598D01*
X138856Y181051D01*
X238183D01*
X238561Y180761D01*
X239352Y180434D01*
X240200Y180322D01*
X241048Y180434D01*
X241839Y180761D01*
X242518Y181282D01*
X243039Y181961D01*
X243366Y182752D01*
X243478Y183600D01*
X243366Y184448D01*
X243039Y185239D01*
X242518Y185918D01*
X241839Y186439D01*
X241048Y186766D01*
X240200Y186878D01*
X239577Y186796D01*
X239211Y187219D01*
X239266Y187352D01*
X239378Y188200D01*
X239266Y189048D01*
X238939Y189839D01*
X238418Y190518D01*
X237739Y191039D01*
X236948Y191366D01*
X236100Y191478D01*
D02*
G37*
G36*
X236400Y214078D02*
X235552Y213966D01*
X234761Y213639D01*
X234082Y213118D01*
X233561Y212439D01*
X233234Y211648D01*
X233122Y210800D01*
X233234Y209952D01*
X233561Y209161D01*
X233954Y208649D01*
X233735Y208149D01*
X80100D01*
X79124Y207955D01*
X78298Y207402D01*
X64398Y193502D01*
X63845Y192675D01*
X63651Y191700D01*
Y173456D01*
X51498Y161302D01*
X50945Y160476D01*
X50751Y159500D01*
Y158217D01*
X50461Y157839D01*
X50134Y157048D01*
X50022Y156200D01*
X50134Y155352D01*
X50461Y154561D01*
X50982Y153882D01*
X51661Y153361D01*
X52452Y153034D01*
X53300Y152922D01*
X54148Y153034D01*
X54939Y153361D01*
X55618Y153882D01*
X56139Y154561D01*
X56466Y155352D01*
X56578Y156200D01*
X56466Y157048D01*
X56139Y157839D01*
X55849Y158217D01*
Y158444D01*
X68002Y170598D01*
X68555Y171424D01*
X68749Y172400D01*
Y190644D01*
X81156Y203051D01*
X236062D01*
X236095Y202551D01*
X236021Y202541D01*
X235452Y202466D01*
X234661Y202139D01*
X233982Y201618D01*
X233461Y200939D01*
X233134Y200148D01*
X233022Y199300D01*
X233134Y198452D01*
X233461Y197661D01*
X233982Y196982D01*
X234661Y196461D01*
X235452Y196134D01*
X235558Y196120D01*
X239589Y192089D01*
X240163Y191648D01*
X240832Y191371D01*
X241550Y191276D01*
X288556D01*
X290880Y188952D01*
X290848Y188453D01*
X290791Y188409D01*
X290069Y187469D01*
X289882Y187018D01*
X289455Y187074D01*
X263500D01*
X262782Y186979D01*
X262113Y186702D01*
X261539Y186261D01*
X249751Y174474D01*
X239353D01*
X239132Y174922D01*
X239239Y175061D01*
X239566Y175852D01*
X239678Y176700D01*
X239566Y177548D01*
X239239Y178339D01*
X238718Y179018D01*
X238039Y179539D01*
X237248Y179866D01*
X236400Y179978D01*
X235552Y179866D01*
X234761Y179539D01*
X234082Y179018D01*
X233561Y178339D01*
X233234Y177548D01*
X233122Y176700D01*
X233234Y175852D01*
X233561Y175061D01*
X233668Y174922D01*
X233447Y174474D01*
X232494D01*
X229425Y177542D01*
X229411Y177648D01*
X229084Y178439D01*
X228563Y179118D01*
X227884Y179639D01*
X227093Y179966D01*
X226245Y180078D01*
X225396Y179966D01*
X224606Y179639D01*
X223927Y179118D01*
X223406Y178439D01*
X223078Y177648D01*
X222967Y176800D01*
X223078Y175952D01*
X223406Y175161D01*
X223927Y174482D01*
X224606Y173961D01*
X225396Y173634D01*
X225503Y173620D01*
X229384Y169739D01*
X229958Y169298D01*
X230627Y169021D01*
X231345Y168926D01*
X233712D01*
X233958Y168426D01*
X233661Y168039D01*
X233334Y167248D01*
X233222Y166400D01*
X233334Y165552D01*
X233583Y164949D01*
X233320Y164449D01*
X160771D01*
X160718Y164518D01*
X160039Y165039D01*
X159248Y165366D01*
X158400Y165478D01*
X157552Y165366D01*
X156761Y165039D01*
X156082Y164518D01*
X155561Y163839D01*
X155234Y163048D01*
X155122Y162200D01*
X155234Y161352D01*
X155561Y160561D01*
X156082Y159882D01*
X156761Y159361D01*
X157552Y159034D01*
X158400Y158922D01*
X159248Y159034D01*
X160015Y159351D01*
X235174D01*
X235273Y158851D01*
X234761Y158639D01*
X234082Y158118D01*
X233561Y157439D01*
X233234Y156648D01*
X233122Y155800D01*
X233234Y154952D01*
X233561Y154161D01*
X234082Y153482D01*
X234761Y152961D01*
X235552Y152634D01*
X236400Y152522D01*
X237248Y152634D01*
X238039Y152961D01*
X238718Y153482D01*
X239239Y154161D01*
X239566Y154952D01*
X239678Y155800D01*
X239566Y156648D01*
X239239Y157439D01*
X238718Y158118D01*
X238039Y158639D01*
X237527Y158851D01*
X237626Y159351D01*
X238683D01*
X239061Y159061D01*
X239852Y158734D01*
X240700Y158622D01*
X241548Y158734D01*
X242339Y159061D01*
X243018Y159582D01*
X243539Y160261D01*
X243866Y161052D01*
X243978Y161900D01*
X243866Y162748D01*
X243539Y163539D01*
X243018Y164218D01*
X242339Y164739D01*
X241548Y165066D01*
X240700Y165178D01*
X240016Y165088D01*
X239634Y165474D01*
X239666Y165552D01*
X239778Y166400D01*
X239666Y167248D01*
X239339Y168039D01*
X239042Y168426D01*
X239288Y168926D01*
X250900D01*
X251618Y169021D01*
X252287Y169298D01*
X252861Y169739D01*
X264649Y181526D01*
X281670D01*
X282070Y181026D01*
X281961Y180200D01*
X282116Y179025D01*
X282569Y177931D01*
X283291Y176991D01*
X284231Y176269D01*
X285325Y175816D01*
X286500Y175661D01*
X287675Y175816D01*
X288769Y176269D01*
X289154Y176564D01*
X289391Y176467D01*
X289603Y176279D01*
X289461Y175200D01*
X289603Y174121D01*
X289391Y173933D01*
X289154Y173836D01*
X288769Y174131D01*
X287675Y174584D01*
X286500Y174739D01*
X285325Y174584D01*
X284231Y174131D01*
X283291Y173409D01*
X282569Y172469D01*
X282116Y171375D01*
X281961Y170200D01*
X282116Y169025D01*
X282569Y167931D01*
X283291Y166991D01*
X284231Y166269D01*
X285325Y165816D01*
X286500Y165661D01*
X287675Y165816D01*
X288769Y166269D01*
X289154Y166564D01*
X289391Y166467D01*
X289603Y166279D01*
X289461Y165200D01*
X289603Y164121D01*
X289391Y163933D01*
X289154Y163836D01*
X288769Y164131D01*
X287675Y164584D01*
X286500Y164739D01*
X285325Y164584D01*
X284231Y164131D01*
X283291Y163409D01*
X282569Y162469D01*
X282116Y161375D01*
X281961Y160200D01*
X282116Y159025D01*
X282569Y157931D01*
X283291Y156991D01*
X284231Y156269D01*
X285325Y155816D01*
X286500Y155661D01*
X287675Y155816D01*
X288769Y156269D01*
X289154Y156564D01*
X289391Y156467D01*
X289603Y156279D01*
X289461Y155200D01*
X289603Y154121D01*
X289391Y153933D01*
X289154Y153836D01*
X288769Y154131D01*
X287675Y154584D01*
X286500Y154739D01*
X285325Y154584D01*
X284231Y154131D01*
X283291Y153409D01*
X282569Y152469D01*
X282116Y151375D01*
X281961Y150200D01*
X282116Y149025D01*
X282569Y147931D01*
X283291Y146991D01*
X284231Y146269D01*
X285325Y145816D01*
X286500Y145661D01*
X287675Y145816D01*
X288769Y146269D01*
X289154Y146564D01*
X289391Y146467D01*
X289603Y146279D01*
X289461Y145200D01*
X289603Y144121D01*
X289391Y143933D01*
X289154Y143836D01*
X288769Y144131D01*
X287675Y144584D01*
X286500Y144739D01*
X285325Y144584D01*
X284231Y144131D01*
X283291Y143409D01*
X282569Y142469D01*
X282116Y141375D01*
X281961Y140200D01*
X282116Y139025D01*
X282569Y137931D01*
X283291Y136991D01*
X284231Y136269D01*
X285325Y135816D01*
X286500Y135661D01*
X287675Y135816D01*
X288769Y136269D01*
X289154Y136564D01*
X289391Y136467D01*
X289603Y136279D01*
X289461Y135200D01*
X289603Y134121D01*
X289391Y133933D01*
X289154Y133836D01*
X288769Y134131D01*
X287675Y134584D01*
X286500Y134739D01*
X285325Y134584D01*
X284231Y134131D01*
X283291Y133409D01*
X282569Y132469D01*
X282116Y131375D01*
X281961Y130200D01*
X282116Y129025D01*
X282569Y127931D01*
X283291Y126991D01*
X284231Y126269D01*
X285325Y125816D01*
X286500Y125661D01*
X287675Y125816D01*
X288769Y126269D01*
X289154Y126564D01*
X289391Y126467D01*
X289603Y126279D01*
X289461Y125200D01*
X289603Y124121D01*
X289391Y123933D01*
X289154Y123836D01*
X288769Y124131D01*
X287675Y124584D01*
X286500Y124739D01*
X285325Y124584D01*
X284231Y124131D01*
X283291Y123409D01*
X282569Y122469D01*
X282116Y121375D01*
X281961Y120200D01*
X282116Y119025D01*
X282569Y117931D01*
X283291Y116991D01*
X284231Y116269D01*
X285325Y115816D01*
X286500Y115661D01*
X287675Y115816D01*
X288769Y116269D01*
X289154Y116564D01*
X289391Y116467D01*
X289603Y116279D01*
X289461Y115200D01*
X289603Y114121D01*
X289391Y113933D01*
X289154Y113836D01*
X288769Y114131D01*
X287675Y114584D01*
X286500Y114739D01*
X285325Y114584D01*
X284231Y114131D01*
X283291Y113409D01*
X282569Y112469D01*
X282116Y111375D01*
X281961Y110200D01*
X282116Y109025D01*
X282569Y107931D01*
X283291Y106991D01*
X284231Y106269D01*
X285325Y105816D01*
X286500Y105661D01*
X287675Y105816D01*
X288769Y106269D01*
X289154Y106564D01*
X289391Y106467D01*
X289603Y106279D01*
X289461Y105200D01*
X289603Y104121D01*
X289391Y103933D01*
X289154Y103836D01*
X288769Y104131D01*
X287675Y104584D01*
X286500Y104739D01*
X285325Y104584D01*
X284231Y104131D01*
X283291Y103409D01*
X282569Y102469D01*
X282116Y101375D01*
X281961Y100200D01*
X282116Y99025D01*
X282569Y97931D01*
X283291Y96991D01*
X284231Y96269D01*
X285325Y95816D01*
X286500Y95661D01*
X287675Y95816D01*
X288769Y96269D01*
X289154Y96564D01*
X289391Y96467D01*
X289603Y96279D01*
X289461Y95200D01*
X289603Y94121D01*
X289391Y93933D01*
X289154Y93836D01*
X288769Y94131D01*
X287675Y94584D01*
X286500Y94739D01*
X285325Y94584D01*
X284231Y94131D01*
X283291Y93409D01*
X282569Y92469D01*
X282116Y91375D01*
X281961Y90200D01*
X282116Y89025D01*
X282569Y87931D01*
X283291Y86991D01*
X284231Y86269D01*
X285325Y85816D01*
X286500Y85661D01*
X287675Y85816D01*
X288769Y86269D01*
X289154Y86564D01*
X289391Y86467D01*
X289603Y86279D01*
X289461Y85200D01*
X289603Y84121D01*
X289391Y83933D01*
X289154Y83836D01*
X288769Y84131D01*
X287675Y84584D01*
X286500Y84739D01*
X285325Y84584D01*
X284231Y84131D01*
X283291Y83409D01*
X282569Y82469D01*
X282116Y81375D01*
X281961Y80200D01*
X282116Y79025D01*
X282569Y77931D01*
X283291Y76991D01*
X284231Y76269D01*
X285325Y75816D01*
X286500Y75661D01*
X287675Y75816D01*
X288769Y76269D01*
X289154Y76564D01*
X289391Y76467D01*
X289603Y76279D01*
X289461Y75200D01*
X289603Y74121D01*
X289391Y73933D01*
X289154Y73836D01*
X288769Y74131D01*
X287675Y74584D01*
X286500Y74739D01*
X285325Y74584D01*
X284231Y74131D01*
X283291Y73409D01*
X282569Y72469D01*
X282116Y71375D01*
X281961Y70200D01*
X282116Y69025D01*
X282569Y67931D01*
X283291Y66991D01*
X284231Y66269D01*
X285325Y65816D01*
X286500Y65661D01*
X287675Y65816D01*
X288769Y66269D01*
X289154Y66564D01*
X289391Y66467D01*
X289603Y66279D01*
X289461Y65200D01*
X289616Y64025D01*
X290069Y62931D01*
X290791Y61991D01*
X291731Y61269D01*
X292825Y60816D01*
X294000Y60661D01*
X295175Y60816D01*
X296269Y61269D01*
X297209Y61991D01*
X297931Y62931D01*
X298384Y64025D01*
X298539Y65200D01*
X298397Y66279D01*
X298609Y66467D01*
X298846Y66564D01*
X299231Y66269D01*
X300325Y65816D01*
X301500Y65661D01*
X302675Y65816D01*
X303769Y66269D01*
X304012Y66456D01*
X304461Y66234D01*
Y62700D01*
X304616Y61920D01*
X305058Y61258D01*
X305720Y60816D01*
X306500Y60661D01*
X311500D01*
X312280Y60816D01*
X312942Y61258D01*
X313384Y61920D01*
X313539Y62700D01*
Y67700D01*
X313384Y68480D01*
X312942Y69142D01*
X312280Y69584D01*
X311500Y69739D01*
X306500D01*
X306385Y69716D01*
X306020Y70058D01*
X306039Y70200D01*
X305897Y71279D01*
X306109Y71467D01*
X306346Y71564D01*
X306731Y71269D01*
X307825Y70816D01*
X309000Y70661D01*
X310175Y70816D01*
X311269Y71269D01*
X312209Y71991D01*
X312931Y72931D01*
X313384Y74025D01*
X313539Y75200D01*
X313384Y76375D01*
X312931Y77469D01*
X312209Y78409D01*
X311269Y79131D01*
X310175Y79584D01*
X309000Y79739D01*
X307825Y79584D01*
X306731Y79131D01*
X306346Y78836D01*
X306109Y78933D01*
X305897Y79121D01*
X306039Y80200D01*
X305897Y81279D01*
X306109Y81467D01*
X306346Y81564D01*
X306731Y81269D01*
X307825Y80816D01*
X309000Y80661D01*
X310175Y80816D01*
X311269Y81269D01*
X312209Y81991D01*
X312931Y82931D01*
X313384Y84025D01*
X313539Y85200D01*
X313384Y86375D01*
X312931Y87469D01*
X312209Y88409D01*
X311269Y89131D01*
X310175Y89584D01*
X309000Y89739D01*
X307825Y89584D01*
X306731Y89131D01*
X306346Y88836D01*
X306109Y88933D01*
X305897Y89121D01*
X306039Y90200D01*
X305897Y91279D01*
X306109Y91467D01*
X306346Y91564D01*
X306731Y91269D01*
X307825Y90816D01*
X309000Y90661D01*
X310175Y90816D01*
X311269Y91269D01*
X312209Y91991D01*
X312931Y92931D01*
X313384Y94025D01*
X313539Y95200D01*
X313384Y96375D01*
X312931Y97469D01*
X312209Y98409D01*
X311269Y99131D01*
X310175Y99584D01*
X309000Y99739D01*
X307825Y99584D01*
X306731Y99131D01*
X305791Y98409D01*
X305069Y97469D01*
X304616Y96375D01*
X304461Y95200D01*
X304603Y94121D01*
X304391Y93933D01*
X304154Y93836D01*
X303769Y94131D01*
X302675Y94584D01*
X301500Y94739D01*
X300325Y94584D01*
X299231Y94131D01*
X298846Y93836D01*
X298609Y93933D01*
X298397Y94121D01*
X298539Y95200D01*
X298384Y96375D01*
X297931Y97469D01*
X297209Y98409D01*
X296269Y99131D01*
X295175Y99584D01*
X294000Y99739D01*
X292825Y99584D01*
X291731Y99131D01*
X291346Y98836D01*
X291109Y98933D01*
X290897Y99121D01*
X291039Y100200D01*
X290897Y101279D01*
X291109Y101467D01*
X291346Y101564D01*
X291731Y101269D01*
X292825Y100816D01*
X294000Y100661D01*
X295175Y100816D01*
X296269Y101269D01*
X297209Y101991D01*
X297931Y102931D01*
X298384Y104025D01*
X298539Y105200D01*
X298397Y106279D01*
X298609Y106467D01*
X298846Y106564D01*
X299231Y106269D01*
X300325Y105816D01*
X301500Y105661D01*
X302675Y105816D01*
X303769Y106269D01*
X304709Y106991D01*
X305431Y107931D01*
X305884Y109025D01*
X306039Y110200D01*
X305897Y111279D01*
X306109Y111467D01*
X306346Y111564D01*
X306731Y111269D01*
X307825Y110816D01*
X309000Y110661D01*
X310175Y110816D01*
X311269Y111269D01*
X312209Y111991D01*
X312931Y112931D01*
X313384Y114025D01*
X313539Y115200D01*
X313384Y116375D01*
X312931Y117469D01*
X312209Y118409D01*
X311269Y119131D01*
X310175Y119584D01*
X309000Y119739D01*
X307825Y119584D01*
X306731Y119131D01*
X306346Y118836D01*
X306109Y118933D01*
X305897Y119121D01*
X306039Y120200D01*
X305897Y121279D01*
X306109Y121467D01*
X306346Y121564D01*
X306731Y121269D01*
X307825Y120816D01*
X309000Y120661D01*
X310175Y120816D01*
X311269Y121269D01*
X312209Y121991D01*
X312931Y122931D01*
X313384Y124025D01*
X313539Y125200D01*
X313384Y126375D01*
X312931Y127469D01*
X312209Y128409D01*
X311269Y129131D01*
X310175Y129584D01*
X309000Y129739D01*
X307825Y129584D01*
X306731Y129131D01*
X306346Y128836D01*
X306109Y128933D01*
X305897Y129121D01*
X306039Y130200D01*
X305897Y131279D01*
X306109Y131467D01*
X306346Y131564D01*
X306731Y131269D01*
X307825Y130816D01*
X309000Y130661D01*
X310175Y130816D01*
X311269Y131269D01*
X312209Y131991D01*
X312931Y132931D01*
X313384Y134025D01*
X313539Y135200D01*
X313384Y136375D01*
X312931Y137469D01*
X312209Y138409D01*
X311269Y139131D01*
X310175Y139584D01*
X309000Y139739D01*
X307825Y139584D01*
X306731Y139131D01*
X306346Y138836D01*
X306109Y138933D01*
X305897Y139121D01*
X306039Y140200D01*
X305897Y141279D01*
X306109Y141467D01*
X306346Y141564D01*
X306731Y141269D01*
X307825Y140816D01*
X309000Y140661D01*
X310175Y140816D01*
X311269Y141269D01*
X312209Y141991D01*
X312931Y142931D01*
X313384Y144025D01*
X313539Y145200D01*
X313384Y146375D01*
X312931Y147469D01*
X312209Y148409D01*
X311269Y149131D01*
X310175Y149584D01*
X309000Y149739D01*
X307825Y149584D01*
X306731Y149131D01*
X305791Y148409D01*
X305069Y147469D01*
X304616Y146375D01*
X304461Y145200D01*
X304603Y144121D01*
X304391Y143933D01*
X304154Y143836D01*
X303769Y144131D01*
X302675Y144584D01*
X301500Y144739D01*
X300325Y144584D01*
X299231Y144131D01*
X298846Y143836D01*
X298609Y143933D01*
X298397Y144121D01*
X298539Y145200D01*
X298384Y146375D01*
X297931Y147469D01*
X297209Y148409D01*
X296269Y149131D01*
X295175Y149584D01*
X294000Y149739D01*
X292825Y149584D01*
X291731Y149131D01*
X291346Y148836D01*
X291109Y148933D01*
X290897Y149121D01*
X291039Y150200D01*
X290897Y151279D01*
X291109Y151467D01*
X291346Y151564D01*
X291731Y151269D01*
X292825Y150816D01*
X294000Y150661D01*
X295175Y150816D01*
X296269Y151269D01*
X297209Y151991D01*
X297931Y152931D01*
X298384Y154025D01*
X298539Y155200D01*
X298384Y156375D01*
X297931Y157469D01*
X297209Y158409D01*
X296269Y159131D01*
X295175Y159584D01*
X294000Y159739D01*
X292825Y159584D01*
X291731Y159131D01*
X291346Y158836D01*
X291109Y158933D01*
X290897Y159121D01*
X291039Y160200D01*
X290897Y161279D01*
X291109Y161467D01*
X291346Y161564D01*
X291731Y161269D01*
X292825Y160816D01*
X294000Y160661D01*
X295175Y160816D01*
X296269Y161269D01*
X297209Y161991D01*
X297931Y162931D01*
X298384Y164025D01*
X298539Y165200D01*
X298384Y166375D01*
X297931Y167469D01*
X297209Y168409D01*
X296269Y169131D01*
X295175Y169584D01*
X294000Y169739D01*
X292825Y169584D01*
X291731Y169131D01*
X291346Y168836D01*
X291109Y168933D01*
X290897Y169121D01*
X291039Y170200D01*
X290897Y171279D01*
X291109Y171467D01*
X291346Y171564D01*
X291731Y171269D01*
X292825Y170816D01*
X294000Y170661D01*
X295175Y170816D01*
X296269Y171269D01*
X297209Y171991D01*
X297931Y172931D01*
X298384Y174025D01*
X298539Y175200D01*
X298384Y176375D01*
X297931Y177469D01*
X297266Y178335D01*
X297661Y178639D01*
X301449Y182426D01*
X305456D01*
X305791Y181991D01*
X306731Y181269D01*
X307825Y180816D01*
X309000Y180661D01*
X310175Y180816D01*
X311269Y181269D01*
X312209Y181991D01*
X312931Y182931D01*
X313384Y184025D01*
X313539Y185200D01*
X313384Y186375D01*
X312931Y187469D01*
X312209Y188409D01*
X311269Y189131D01*
X310175Y189584D01*
X309000Y189739D01*
X307825Y189584D01*
X306731Y189131D01*
X306346Y188836D01*
X306109Y188933D01*
X305897Y189121D01*
X306039Y190200D01*
X305897Y191279D01*
X306109Y191467D01*
X306346Y191564D01*
X306731Y191269D01*
X307825Y190816D01*
X309000Y190661D01*
X310175Y190816D01*
X311269Y191269D01*
X312209Y191991D01*
X312931Y192931D01*
X313384Y194025D01*
X313539Y195200D01*
X313384Y196375D01*
X312931Y197469D01*
X312209Y198409D01*
X311269Y199131D01*
X310175Y199584D01*
X309000Y199739D01*
X307825Y199584D01*
X306731Y199131D01*
X306346Y198836D01*
X306109Y198933D01*
X305897Y199121D01*
X306039Y200200D01*
X305884Y201375D01*
X305431Y202469D01*
X304709Y203409D01*
X303769Y204131D01*
X302675Y204584D01*
X301500Y204739D01*
X300325Y204584D01*
X299231Y204131D01*
X298291Y203409D01*
X297569Y202469D01*
X297116Y201375D01*
X296961Y200200D01*
X297103Y199121D01*
X296891Y198933D01*
X296654Y198836D01*
X296269Y199131D01*
X295175Y199584D01*
X294000Y199739D01*
X292825Y199584D01*
X291731Y199131D01*
X291346Y198836D01*
X291109Y198933D01*
X290897Y199121D01*
X291039Y200200D01*
X290884Y201375D01*
X290431Y202469D01*
X289709Y203409D01*
X288769Y204131D01*
X287675Y204584D01*
X286500Y204739D01*
X285325Y204584D01*
X284231Y204131D01*
X283291Y203409D01*
X282569Y202469D01*
X282116Y201375D01*
X281961Y200200D01*
X282116Y199025D01*
X282569Y197931D01*
X283035Y197324D01*
X282788Y196824D01*
X242699D01*
X239480Y200042D01*
X239466Y200148D01*
X239139Y200939D01*
X238618Y201618D01*
X237939Y202139D01*
X237148Y202466D01*
X236579Y202541D01*
X236505Y202551D01*
X236538Y203051D01*
X238283D01*
X238661Y202761D01*
X239452Y202434D01*
X240300Y202322D01*
X241148Y202434D01*
X241939Y202761D01*
X242618Y203282D01*
X243139Y203961D01*
X243466Y204752D01*
X243578Y205600D01*
X243466Y206448D01*
X243139Y207239D01*
X242618Y207918D01*
X241939Y208439D01*
X241148Y208766D01*
X240300Y208878D01*
X239579Y208783D01*
X239337Y209051D01*
X239267Y209228D01*
X239566Y209952D01*
X239678Y210800D01*
X239566Y211648D01*
X239239Y212439D01*
X238718Y213118D01*
X238039Y213639D01*
X237248Y213966D01*
X236400Y214078D01*
D02*
G37*
G36*
X309000Y179739D02*
X307825Y179584D01*
X306731Y179131D01*
X305791Y178409D01*
X305069Y177469D01*
X304616Y176375D01*
X304461Y175200D01*
X304616Y174025D01*
X305069Y172931D01*
X305791Y171991D01*
X306731Y171269D01*
X307825Y170816D01*
X309000Y170661D01*
X310175Y170816D01*
X311269Y171269D01*
X312209Y171991D01*
X312931Y172931D01*
X313384Y174025D01*
X313539Y175200D01*
X313384Y176375D01*
X312931Y177469D01*
X312209Y178409D01*
X311269Y179131D01*
X310175Y179584D01*
X309000Y179739D01*
D02*
G37*
G36*
X198400Y178578D02*
X197552Y178466D01*
X196761Y178139D01*
X196082Y177618D01*
X195561Y176939D01*
X195234Y176148D01*
X195122Y175300D01*
X195234Y174452D01*
X195561Y173661D01*
X196082Y172982D01*
X196761Y172461D01*
X197552Y172134D01*
X198400Y172022D01*
X199248Y172134D01*
X200039Y172461D01*
X200718Y172982D01*
X201239Y173661D01*
X201566Y174452D01*
X201678Y175300D01*
X201566Y176148D01*
X201239Y176939D01*
X200718Y177618D01*
X200039Y178139D01*
X199248Y178466D01*
X198400Y178578D01*
D02*
G37*
%LPD*%
G36*
X220566Y70789D02*
X217251Y67474D01*
X206049D01*
X202734Y70789D01*
X202925Y71251D01*
X220375D01*
X220566Y70789D01*
D02*
G37*
D18*
X235000Y59300D02*
X240300Y54000D01*
X197200Y59300D02*
X235000D01*
X190900Y65600D02*
X197200Y59300D01*
X184800Y65600D02*
X190900D01*
X159600Y74100D02*
X159900Y73800D01*
X240300D01*
X118500Y93900D02*
X240700D01*
X115800Y96600D02*
X118500Y93900D01*
X113600Y96600D02*
X115800D01*
X113300Y138700D02*
X117300Y134700D01*
X183300D01*
X200600Y117400D01*
X240100D01*
X127800Y140000D02*
X128200Y139600D01*
X240300D01*
X158400Y162200D02*
X158700Y161900D01*
X240700D01*
X109600Y155400D02*
X137800Y183600D01*
X79500Y155400D02*
X109600D01*
X62000Y137900D02*
X79500Y155400D01*
X62000Y103700D02*
Y137900D01*
X53500Y95200D02*
X62000Y103700D01*
X137800Y183600D02*
X240200D01*
X66200Y172400D02*
Y191700D01*
X53300Y159500D02*
X66200Y172400D01*
X53300Y156200D02*
Y159500D01*
X66200Y191700D02*
X80100Y205600D01*
X240300D01*
X53200Y218400D02*
X61100Y226300D01*
X197200D01*
X200600Y229700D01*
X240800D01*
X53900Y281000D02*
X54400Y281500D01*
X211800D01*
X241000Y252300D01*
D19*
X297800Y261700D02*
X310600D01*
X329200Y243100D01*
Y48000D02*
Y243100D01*
X314900Y33700D02*
X329200Y48000D01*
X297800Y33700D02*
X314900D01*
X286500Y210200D02*
X301500D01*
X226245Y176800D02*
X231345Y171700D01*
X250900D01*
X263500Y184300D01*
X289455D01*
X293155Y180600D01*
X295700D01*
X300300Y185200D01*
X309000D01*
X236300Y199300D02*
X241550Y194050D01*
X289705D01*
X293555Y190200D01*
X301500D01*
X309000Y165200D02*
X314200D01*
X318700Y160700D01*
Y60300D02*
Y160700D01*
X315100Y56700D02*
X318700Y60300D01*
X278400Y56700D02*
X315100D01*
X265200Y69900D02*
X278400Y56700D01*
X223600Y69900D02*
X265200D01*
X218400Y64700D02*
X223600Y69900D01*
X204900Y64700D02*
X218400D01*
X200000Y69600D02*
X204900Y64700D01*
X178500Y69600D02*
X200000D01*
X174000Y65100D02*
X178500Y69600D01*
X170000Y65100D02*
X174000D01*
D20*
X351992Y15673D02*
D03*
Y279453D02*
D03*
X16000Y279600D02*
D03*
X243626Y279453D02*
D03*
X16000Y15673D02*
D03*
X243626D02*
D03*
D21*
X170000Y113100D02*
D03*
Y125100D02*
D03*
Y245100D02*
D03*
Y233100D02*
D03*
X110000Y53100D02*
D03*
Y65100D02*
D03*
Y125100D02*
D03*
Y113100D02*
D03*
Y173100D02*
D03*
Y185100D02*
D03*
Y245100D02*
D03*
Y233100D02*
D03*
X50000Y53100D02*
D03*
Y65100D02*
D03*
Y125100D02*
D03*
Y113100D02*
D03*
Y173100D02*
D03*
Y185100D02*
D03*
Y245100D02*
D03*
Y233100D02*
D03*
X170000Y65100D02*
D03*
Y53100D02*
D03*
D22*
X301500Y70200D02*
D03*
X309000Y75200D02*
D03*
X301500Y80200D02*
D03*
X309000Y85200D02*
D03*
X301500Y90200D02*
D03*
X309000Y95200D02*
D03*
X301500Y100200D02*
D03*
X309000Y105200D02*
D03*
X301500Y110200D02*
D03*
X309000Y115200D02*
D03*
X301500Y120200D02*
D03*
X309000Y125200D02*
D03*
X301500Y130200D02*
D03*
X309000Y135200D02*
D03*
X301500Y140200D02*
D03*
X309000Y145200D02*
D03*
X301500Y150200D02*
D03*
X309000Y155200D02*
D03*
X301500Y160200D02*
D03*
X309000Y165200D02*
D03*
X301500Y170200D02*
D03*
X309000Y175200D02*
D03*
X301500Y180200D02*
D03*
X309000Y185200D02*
D03*
X301500Y190200D02*
D03*
X309000Y195200D02*
D03*
X301500Y200200D02*
D03*
X309000Y205200D02*
D03*
X301500Y210200D02*
D03*
X309000Y215200D02*
D03*
X301500Y220200D02*
D03*
X309000Y225200D02*
D03*
X301500Y230200D02*
D03*
X294000Y65200D02*
D03*
X286500Y70200D02*
D03*
X294000Y75200D02*
D03*
X286500Y80200D02*
D03*
X294000Y85200D02*
D03*
X286500Y90200D02*
D03*
X294000Y95200D02*
D03*
X286500Y100200D02*
D03*
X294000Y105200D02*
D03*
X286500Y110200D02*
D03*
X294000Y115200D02*
D03*
X286500Y120200D02*
D03*
X294000Y125200D02*
D03*
X286500Y130200D02*
D03*
X294000Y135200D02*
D03*
X286500Y140200D02*
D03*
X294000Y145200D02*
D03*
X286500Y150200D02*
D03*
X294000Y155200D02*
D03*
X286500Y160200D02*
D03*
X294000Y165200D02*
D03*
X286500Y170200D02*
D03*
X294000Y175200D02*
D03*
X286500Y180200D02*
D03*
X294000Y185200D02*
D03*
X286500Y190200D02*
D03*
X294000Y195200D02*
D03*
X286500Y200200D02*
D03*
X294000Y205200D02*
D03*
X286500Y210200D02*
D03*
X294000Y215200D02*
D03*
X286500Y220200D02*
D03*
X294000Y225200D02*
D03*
X286500Y230200D02*
D03*
D23*
X309000Y65200D02*
D03*
D24*
X297800Y33700D02*
D03*
Y261700D02*
D03*
D25*
X198400Y175300D02*
D03*
X163300Y31800D02*
D03*
X79900Y38800D02*
D03*
X15900Y39200D02*
D03*
X140700Y43100D02*
D03*
X173400Y155100D02*
D03*
X184800Y65600D02*
D03*
X240300Y54000D02*
D03*
X170000Y268500D02*
D03*
X159600Y74100D02*
D03*
X240300Y73800D02*
D03*
X113600Y96600D02*
D03*
X240700Y93900D02*
D03*
X113300Y138700D02*
D03*
X240100Y117400D02*
D03*
X121100Y216600D02*
D03*
X127800Y140000D02*
D03*
X240300Y139600D02*
D03*
X156600Y278500D02*
D03*
X158400Y162200D02*
D03*
X240700Y161900D02*
D03*
X8200Y100800D02*
D03*
X133000Y101100D02*
D03*
X75500Y221700D02*
D03*
X90500Y221200D02*
D03*
X75500Y100600D02*
D03*
X90000Y101300D02*
D03*
X53500Y95200D02*
D03*
X240200Y183600D02*
D03*
X53300Y156200D02*
D03*
X240300Y205600D02*
D03*
X53200Y218400D02*
D03*
X240800Y229700D02*
D03*
X53900Y281000D02*
D03*
X241000Y252300D02*
D03*
X236200Y51200D02*
D03*
X248300Y52700D02*
D03*
X214900Y47800D02*
D03*
X226300Y62900D02*
D03*
X247900Y76000D02*
D03*
X236500Y66400D02*
D03*
X236400Y77200D02*
D03*
X215200Y70200D02*
D03*
X226200Y84100D02*
D03*
X247300Y97300D02*
D03*
X236400Y88200D02*
D03*
X236200Y99200D02*
D03*
X217000Y99500D02*
D03*
X247500Y119500D02*
D03*
X236200Y121100D02*
D03*
X248000Y141700D02*
D03*
X248700Y164600D02*
D03*
X226245Y176800D02*
D03*
X226100Y107200D02*
D03*
X236500Y111100D02*
D03*
X216400Y121700D02*
D03*
X226300Y128860D02*
D03*
X236500Y132800D02*
D03*
X236200Y144000D02*
D03*
X216700Y143400D02*
D03*
X226200Y151417D02*
D03*
X217000Y158900D02*
D03*
X236500Y166400D02*
D03*
X236400Y155800D02*
D03*
Y43900D02*
D03*
X247700Y186400D02*
D03*
X216700Y173700D02*
D03*
X217000Y188400D02*
D03*
X226400Y40000D02*
D03*
Y195220D02*
D03*
X236100Y188200D02*
D03*
X236400Y176700D02*
D03*
X236300Y199300D02*
D03*
X248700Y208700D02*
D03*
X216500Y202800D02*
D03*
X226300Y218400D02*
D03*
X226400Y240558D02*
D03*
X248900Y231200D02*
D03*
X236400Y210800D02*
D03*
Y223400D02*
D03*
X216700Y225600D02*
D03*
X133700Y222600D02*
D03*
X151600D02*
D03*
X236400Y233100D02*
D03*
X236500Y244400D02*
D03*
X249100Y255900D02*
D03*
X216500Y248400D02*
D03*
X159200Y154900D02*
D03*
X158800Y262400D02*
D03*
X101600Y81300D02*
D03*
X94800Y148100D02*
D03*
X101400Y201800D02*
D03*
X94400Y268600D02*
D03*
X33900Y88500D02*
D03*
X34600Y148300D02*
D03*
X33700Y208300D02*
D03*
X38984Y262117D02*
D03*
M02*
