G04 Layer_Color=65535*
%FSLAX25Y25*%
%MOIN*%
G70*
G01*
G75*
%ADD10C,0.00800*%
%ADD18C,0.01000*%
%ADD32C,0.00787*%
G36*
X355252Y189339D02*
X353364D01*
Y189256D01*
X353392Y189228D01*
X353531Y189201D01*
X353697Y189090D01*
X353892Y188951D01*
X354141Y188784D01*
X354419Y188534D01*
X354669Y188257D01*
X354919Y187896D01*
X354947Y187840D01*
X355030Y187729D01*
X355114Y187507D01*
X355252Y187257D01*
X355363Y186951D01*
X355447Y186618D01*
X355530Y186229D01*
X355558Y185868D01*
Y185813D01*
Y185702D01*
Y185535D01*
X355530Y185313D01*
X355502Y185063D01*
X355447Y184813D01*
X355363Y184535D01*
X355280Y184285D01*
X353197Y184924D01*
Y184952D01*
X353225Y185007D01*
X353253Y185091D01*
X353281Y185230D01*
X353308Y185424D01*
X353336Y185646D01*
X353364Y185896D01*
Y186202D01*
Y186257D01*
X353336Y186396D01*
X353308Y186646D01*
X353253Y186924D01*
X353114Y187257D01*
X352947Y187618D01*
X352697Y187979D01*
X352364Y188340D01*
X352309Y188368D01*
X352198Y188479D01*
X351975Y188618D01*
X351698Y188784D01*
X351364Y188979D01*
X350976Y189117D01*
X350531Y189228D01*
X350059Y189256D01*
X343700D01*
Y191422D01*
X355252D01*
Y189339D01*
D02*
G37*
G36*
X349921Y93950D02*
X350143Y93922D01*
X350393Y93894D01*
X350698Y93839D01*
X351004Y93755D01*
X351698Y93561D01*
X352059Y93422D01*
X352448Y93255D01*
X352809Y93061D01*
X353170Y92839D01*
X353531Y92589D01*
X353864Y92283D01*
X353892Y92256D01*
X353947Y92200D01*
X354030Y92117D01*
X354141Y91978D01*
X354280Y91811D01*
X354419Y91617D01*
X354586Y91367D01*
X354752Y91117D01*
X354891Y90812D01*
X355058Y90506D01*
X355336Y89784D01*
X355447Y89368D01*
X355530Y88951D01*
X355586Y88507D01*
X355613Y88035D01*
Y88007D01*
Y87924D01*
Y87785D01*
X355586Y87590D01*
X355558Y87396D01*
X355530Y87118D01*
X355474Y86840D01*
X355391Y86535D01*
X355197Y85869D01*
X355058Y85508D01*
X354864Y85146D01*
X354669Y84785D01*
X354447Y84452D01*
X354169Y84119D01*
X353864Y83786D01*
X353836Y83758D01*
X353781Y83702D01*
X353697Y83619D01*
X353558Y83508D01*
X353392Y83397D01*
X353170Y83258D01*
X352920Y83091D01*
X352670Y82925D01*
X352364Y82786D01*
X352031Y82619D01*
X351670Y82481D01*
X351281Y82342D01*
X350865Y82258D01*
X350420Y82175D01*
X349948Y82120D01*
X349476Y82092D01*
X349226D01*
X349032Y82120D01*
X348810Y82147D01*
X348532Y82175D01*
X348226Y82231D01*
X347921Y82314D01*
X347227Y82508D01*
X346838Y82647D01*
X346477Y82814D01*
X346116Y83008D01*
X345755Y83230D01*
X345394Y83480D01*
X345061Y83786D01*
X345033Y83814D01*
X344977Y83869D01*
X344894Y83952D01*
X344783Y84091D01*
X344672Y84258D01*
X344505Y84452D01*
X344367Y84674D01*
X344200Y84952D01*
X344033Y85230D01*
X343894Y85563D01*
X343728Y85896D01*
X343617Y86285D01*
X343506Y86674D01*
X343422Y87118D01*
X343367Y87563D01*
X343339Y88035D01*
Y88062D01*
Y88146D01*
Y88284D01*
X343367Y88451D01*
X343394Y88673D01*
X343422Y88923D01*
X343478Y89201D01*
X343561Y89534D01*
X343756Y90201D01*
X343894Y90534D01*
X344061Y90895D01*
X344255Y91256D01*
X344505Y91617D01*
X344755Y91950D01*
X345061Y92283D01*
X345089Y92311D01*
X345144Y92367D01*
X345227Y92450D01*
X345366Y92533D01*
X345561Y92672D01*
X345755Y92811D01*
X346005Y92978D01*
X346283Y93116D01*
X346560Y93283D01*
X346921Y93450D01*
X347282Y93589D01*
X347671Y93700D01*
X348088Y93811D01*
X348532Y93894D01*
X348976Y93950D01*
X349476Y93977D01*
X349726D01*
X349921Y93950D01*
D02*
G37*
G36*
Y183508D02*
X350143Y183480D01*
X350393Y183452D01*
X350698Y183397D01*
X351004Y183341D01*
X351698Y183147D01*
X352059Y183008D01*
X352448Y182841D01*
X352809Y182675D01*
X353170Y182453D01*
X353531Y182203D01*
X353864Y181925D01*
X353892Y181897D01*
X353947Y181842D01*
X354030Y181758D01*
X354141Y181620D01*
X354280Y181481D01*
X354419Y181286D01*
X354586Y181064D01*
X354752Y180814D01*
X354891Y180536D01*
X355058Y180203D01*
X355336Y179509D01*
X355447Y179120D01*
X355530Y178704D01*
X355586Y178259D01*
X355613Y177815D01*
Y177787D01*
Y177704D01*
Y177565D01*
X355586Y177398D01*
X355558Y177176D01*
X355530Y176926D01*
X355474Y176649D01*
X355419Y176343D01*
X355197Y175704D01*
X355086Y175343D01*
X354919Y175010D01*
X354725Y174677D01*
X354503Y174344D01*
X354253Y174038D01*
X353947Y173733D01*
X353919Y173705D01*
X353864Y173677D01*
X353781Y173594D01*
X353642Y173483D01*
X353475Y173372D01*
X353253Y173261D01*
X353031Y173122D01*
X352753Y172955D01*
X352420Y172816D01*
X352086Y172678D01*
X351698Y172566D01*
X351281Y172455D01*
X350837Y172344D01*
X350365Y172261D01*
X349865Y172233D01*
X349309Y172205D01*
X349060Y172233D01*
Y181314D01*
X348893D01*
X348782Y181286D01*
X348476Y181231D01*
X348088Y181147D01*
X347643Y181009D01*
X347199Y180814D01*
X346727Y180536D01*
X346310Y180175D01*
X346255Y180120D01*
X346144Y179981D01*
X345977Y179759D01*
X345811Y179453D01*
X345616Y179065D01*
X345449Y178620D01*
X345338Y178120D01*
X345283Y177593D01*
Y177565D01*
Y177509D01*
X345311Y177398D01*
Y177260D01*
X345338Y177065D01*
X345394Y176871D01*
X345533Y176399D01*
X345644Y176149D01*
X345783Y175871D01*
X345949Y175621D01*
X346171Y175343D01*
X346394Y175066D01*
X346671Y174816D01*
X347005Y174566D01*
X347366Y174344D01*
X346422Y172400D01*
X346394D01*
X346366Y172428D01*
X346283Y172483D01*
X346171Y172539D01*
X345922Y172705D01*
X345588Y172955D01*
X345227Y173261D01*
X344839Y173650D01*
X344478Y174066D01*
X344144Y174566D01*
Y174594D01*
X344117Y174621D01*
X344061Y174705D01*
X344033Y174816D01*
X343894Y175093D01*
X343756Y175454D01*
X343589Y175927D01*
X343478Y176454D01*
X343367Y177037D01*
X343339Y177676D01*
Y177704D01*
Y177787D01*
Y177926D01*
X343367Y178093D01*
X343394Y178315D01*
X343422Y178565D01*
X343478Y178842D01*
X343561Y179148D01*
X343756Y179842D01*
X343894Y180175D01*
X344061Y180536D01*
X344255Y180897D01*
X344505Y181231D01*
X344755Y181564D01*
X345061Y181897D01*
X345089Y181925D01*
X345144Y181981D01*
X345227Y182036D01*
X345366Y182147D01*
X345561Y182286D01*
X345755Y182425D01*
X346005Y182564D01*
X346283Y182703D01*
X346560Y182869D01*
X346921Y183008D01*
X347282Y183147D01*
X347671Y183286D01*
X348088Y183397D01*
X348532Y183452D01*
X348976Y183508D01*
X349476Y183536D01*
X349726D01*
X349921Y183508D01*
D02*
G37*
G36*
X345394Y216249D02*
X345561Y216221D01*
X345727Y216165D01*
X345922Y216082D01*
X346116Y215971D01*
X346283Y215804D01*
X346310Y215777D01*
X346366Y215721D01*
X346422Y215610D01*
X346533Y215471D01*
X346616Y215304D01*
X346671Y215110D01*
X346727Y214916D01*
X346755Y214666D01*
Y214638D01*
Y214555D01*
X346727Y214416D01*
X346699Y214249D01*
X346644Y214083D01*
X346560Y213888D01*
X346449Y213694D01*
X346283Y213527D01*
X346255Y213499D01*
X346199Y213444D01*
X346116Y213388D01*
X345977Y213277D01*
X345811Y213194D01*
X345616Y213138D01*
X345394Y213083D01*
X345144Y213055D01*
X345033D01*
X344922Y213083D01*
X344755Y213111D01*
X344561Y213166D01*
X344394Y213249D01*
X344200Y213361D01*
X344005Y213527D01*
X343978Y213555D01*
X343950Y213611D01*
X343867Y213694D01*
X343783Y213833D01*
X343700Y213999D01*
X343644Y214194D01*
X343589Y214416D01*
X343561Y214666D01*
Y214693D01*
Y214777D01*
X343589Y214888D01*
X343617Y215054D01*
X343672Y215249D01*
X343756Y215416D01*
X343867Y215610D01*
X344005Y215804D01*
X344033Y215832D01*
X344089Y215888D01*
X344200Y215943D01*
X344339Y216026D01*
X344505Y216138D01*
X344700Y216193D01*
X344894Y216249D01*
X345144Y216276D01*
X345255D01*
X345394Y216249D01*
D02*
G37*
G36*
X347588Y80759D02*
X347893Y80703D01*
X348310Y80620D01*
X348754Y80453D01*
X349226Y80203D01*
X349476Y80065D01*
X349698Y79870D01*
X349921Y79676D01*
X350115Y79426D01*
Y79398D01*
X350170Y79370D01*
X350226Y79287D01*
X350282Y79176D01*
X350365Y79037D01*
X350448Y78870D01*
X350642Y78454D01*
X350837Y77954D01*
X351004Y77315D01*
X351115Y76621D01*
X351170Y75816D01*
Y75788D01*
Y75732D01*
Y75621D01*
Y75482D01*
X351142Y75316D01*
Y75121D01*
X351087Y74677D01*
X351004Y74177D01*
X350865Y73650D01*
X350698Y73122D01*
X350476Y72622D01*
X351170D01*
X351364Y72678D01*
X351642Y72733D01*
X351948Y72844D01*
X352253Y72983D01*
X352586Y73205D01*
X352892Y73511D01*
X352920Y73539D01*
X353003Y73677D01*
X353142Y73844D01*
X353281Y74094D01*
X353419Y74427D01*
X353558Y74788D01*
X353642Y75177D01*
X353669Y75621D01*
Y75649D01*
Y75705D01*
Y75788D01*
X353642Y75927D01*
X353586Y76260D01*
X353475Y76649D01*
X353308Y77121D01*
X353031Y77593D01*
X352864Y77815D01*
X352642Y78065D01*
X352420Y78287D01*
X352142Y78482D01*
X353364Y80398D01*
X353392Y80370D01*
X353475Y80314D01*
X353586Y80231D01*
X353725Y80092D01*
X353892Y79926D01*
X354086Y79731D01*
X354280Y79481D01*
X354503Y79232D01*
X354697Y78898D01*
X354891Y78565D01*
X355086Y78176D01*
X355252Y77760D01*
X355419Y77315D01*
X355530Y76815D01*
X355586Y76288D01*
X355613Y75732D01*
Y75705D01*
Y75621D01*
Y75510D01*
X355586Y75344D01*
Y75121D01*
X355558Y74899D01*
X355447Y74344D01*
X355308Y73733D01*
X355086Y73094D01*
X354752Y72483D01*
X354558Y72206D01*
X354336Y71928D01*
X354308Y71900D01*
X354280Y71872D01*
X354197Y71789D01*
X354114Y71706D01*
X353975Y71595D01*
X353808Y71484D01*
X353419Y71234D01*
X352920Y70984D01*
X352309Y70762D01*
X351614Y70595D01*
X351226Y70567D01*
X350809Y70539D01*
X343700D01*
Y72622D01*
X345283D01*
Y72706D01*
X345255Y72733D01*
X345200Y72761D01*
X345116Y72844D01*
X344977Y72955D01*
X344839Y73094D01*
X344672Y73261D01*
X344311Y73650D01*
X343950Y74177D01*
X343644Y74788D01*
X343506Y75121D01*
X343422Y75482D01*
X343367Y75871D01*
X343339Y76288D01*
Y76316D01*
Y76371D01*
Y76482D01*
X343367Y76593D01*
Y76760D01*
X343394Y76954D01*
X343478Y77399D01*
X343617Y77926D01*
X343811Y78454D01*
X344089Y78982D01*
X344450Y79509D01*
X344505Y79565D01*
X344644Y79704D01*
X344894Y79926D01*
X345227Y80148D01*
X345644Y80370D01*
X346116Y80592D01*
X346671Y80731D01*
X346977Y80759D01*
X347282Y80787D01*
X347449D01*
X347588Y80759D01*
D02*
G37*
G36*
X360556Y198920D02*
Y198892D01*
Y198837D01*
Y198726D01*
X360529Y198587D01*
Y198420D01*
X360501Y198198D01*
X360390Y197754D01*
X360251Y197198D01*
X360001Y196643D01*
X359696Y196060D01*
X359473Y195782D01*
X359251Y195504D01*
X359223Y195477D01*
X359196Y195449D01*
X359112Y195366D01*
X359029Y195282D01*
X358724Y195060D01*
X358363Y194782D01*
X357891Y194505D01*
X357307Y194283D01*
X356669Y194116D01*
X356335Y194088D01*
X355974Y194060D01*
X355863D01*
X355724Y194088D01*
X355558D01*
X355363Y194116D01*
X355141Y194172D01*
X354586Y194338D01*
X354308Y194477D01*
X354003Y194616D01*
X353725Y194810D01*
X353419Y195032D01*
X353142Y195282D01*
X352892Y195588D01*
X352670Y195949D01*
X352448Y196338D01*
X352364D01*
Y196310D01*
X352337Y196282D01*
X352281Y196115D01*
X352170Y195893D01*
X352031Y195588D01*
X351837Y195255D01*
X351559Y194894D01*
X351253Y194560D01*
X350892Y194255D01*
X350837Y194227D01*
X350698Y194144D01*
X350476Y194005D01*
X350198Y193866D01*
X349837Y193727D01*
X349448Y193588D01*
X349004Y193505D01*
X348504Y193477D01*
X348310D01*
X348171Y193505D01*
X347977Y193533D01*
X347782Y193561D01*
X347282Y193672D01*
X346755Y193838D01*
X346171Y194116D01*
X345894Y194283D01*
X345588Y194505D01*
X345311Y194727D01*
X345061Y195005D01*
X345033Y195032D01*
X345005Y195060D01*
X344950Y195143D01*
X344839Y195255D01*
X344755Y195393D01*
X344644Y195588D01*
X344394Y196004D01*
X344144Y196532D01*
X343922Y197143D01*
X343756Y197837D01*
X343728Y198226D01*
X343700Y198615D01*
Y205030D01*
X360556D01*
Y198920D01*
D02*
G37*
G36*
X349921Y147462D02*
X350143Y147435D01*
X350393Y147407D01*
X350698Y147351D01*
X351004Y147268D01*
X351698Y147074D01*
X352059Y146935D01*
X352448Y146768D01*
X352809Y146574D01*
X353170Y146352D01*
X353531Y146102D01*
X353864Y145796D01*
X353892Y145768D01*
X353947Y145713D01*
X354030Y145630D01*
X354141Y145491D01*
X354280Y145324D01*
X354419Y145130D01*
X354586Y144880D01*
X354752Y144630D01*
X354891Y144324D01*
X355058Y144019D01*
X355336Y143297D01*
X355447Y142880D01*
X355530Y142464D01*
X355586Y142019D01*
X355613Y141547D01*
Y141520D01*
Y141436D01*
Y141297D01*
X355586Y141103D01*
X355558Y140909D01*
X355530Y140631D01*
X355474Y140353D01*
X355391Y140048D01*
X355197Y139381D01*
X355058Y139020D01*
X354864Y138659D01*
X354669Y138298D01*
X354447Y137965D01*
X354169Y137632D01*
X353864Y137299D01*
X353836Y137271D01*
X353781Y137215D01*
X353697Y137132D01*
X353558Y137021D01*
X353392Y136910D01*
X353170Y136771D01*
X352920Y136604D01*
X352670Y136438D01*
X352364Y136299D01*
X352031Y136132D01*
X351670Y135993D01*
X351281Y135854D01*
X350865Y135771D01*
X350420Y135688D01*
X349948Y135632D01*
X349476Y135605D01*
X349226D01*
X349032Y135632D01*
X348810Y135660D01*
X348532Y135688D01*
X348226Y135743D01*
X347921Y135827D01*
X347227Y136021D01*
X346838Y136160D01*
X346477Y136327D01*
X346116Y136521D01*
X345755Y136743D01*
X345394Y136993D01*
X345061Y137299D01*
X345033Y137326D01*
X344977Y137382D01*
X344894Y137465D01*
X344783Y137604D01*
X344672Y137771D01*
X344505Y137965D01*
X344367Y138187D01*
X344200Y138465D01*
X344033Y138743D01*
X343894Y139076D01*
X343728Y139409D01*
X343617Y139798D01*
X343506Y140187D01*
X343422Y140631D01*
X343367Y141075D01*
X343339Y141547D01*
Y141575D01*
Y141658D01*
Y141797D01*
X343367Y141964D01*
X343394Y142186D01*
X343422Y142436D01*
X343478Y142714D01*
X343561Y143047D01*
X343756Y143713D01*
X343894Y144047D01*
X344061Y144408D01*
X344255Y144769D01*
X344505Y145130D01*
X344755Y145463D01*
X345061Y145796D01*
X345089Y145824D01*
X345144Y145879D01*
X345227Y145963D01*
X345366Y146046D01*
X345561Y146185D01*
X345755Y146324D01*
X346005Y146490D01*
X346283Y146629D01*
X346560Y146796D01*
X346921Y146962D01*
X347282Y147101D01*
X347671Y147212D01*
X348088Y147324D01*
X348532Y147407D01*
X348976Y147462D01*
X349476Y147490D01*
X349726D01*
X349921Y147462D01*
D02*
G37*
G36*
X355252Y131550D02*
X348004D01*
X347866Y131522D01*
X347671Y131495D01*
X347449Y131439D01*
X347227Y131384D01*
X346977Y131300D01*
X346699Y131161D01*
X346449Y131023D01*
X346171Y130828D01*
X345949Y130606D01*
X345727Y130328D01*
X345533Y130023D01*
X345394Y129634D01*
X345311Y129218D01*
X345283Y128718D01*
Y128690D01*
Y128662D01*
X345311Y128496D01*
X345338Y128245D01*
X345422Y127968D01*
X345533Y127607D01*
X345727Y127246D01*
X345977Y126885D01*
X346338Y126551D01*
X346394Y126524D01*
X346533Y126413D01*
X346755Y126274D01*
X347060Y126107D01*
X347421Y125941D01*
X347838Y125802D01*
X348310Y125691D01*
X348837Y125663D01*
X355252D01*
Y123497D01*
X343700D01*
Y125580D01*
X345283D01*
Y125663D01*
X345255Y125691D01*
X345144Y125746D01*
X344977Y125885D01*
X344811Y126052D01*
X344589Y126246D01*
X344339Y126524D01*
X344117Y126829D01*
X343894Y127190D01*
X343867Y127246D01*
X343811Y127357D01*
X343728Y127579D01*
X343617Y127829D01*
X343506Y128162D01*
X343422Y128523D01*
X343367Y128912D01*
X343339Y129329D01*
Y129356D01*
Y129412D01*
Y129523D01*
X343367Y129662D01*
Y129856D01*
X343394Y130051D01*
X343478Y130523D01*
X343644Y131050D01*
X343839Y131578D01*
X344144Y132106D01*
X344311Y132355D01*
X344533Y132578D01*
X344561D01*
X344589Y132633D01*
X344755Y132744D01*
X345033Y132939D01*
X345422Y133133D01*
X345894Y133355D01*
X346477Y133550D01*
X347171Y133661D01*
X347977Y133716D01*
X355252D01*
Y131550D01*
D02*
G37*
G36*
Y119581D02*
X358779D01*
Y117415D01*
X355252D01*
Y114583D01*
X353253D01*
Y117415D01*
X347310D01*
X347116Y117387D01*
X346866Y117360D01*
X346616Y117304D01*
X346338Y117221D01*
X346116Y117110D01*
X345922Y116971D01*
X345894Y116943D01*
X345866Y116888D01*
X345811Y116804D01*
X345727Y116665D01*
X345588Y116360D01*
X345561Y116166D01*
X345533Y115943D01*
Y115888D01*
Y115777D01*
X345561Y115638D01*
X345588Y115444D01*
Y115388D01*
X345616Y115305D01*
X345672Y115138D01*
X345727Y114999D01*
X343811Y114305D01*
Y114333D01*
X343756Y114444D01*
X343728Y114638D01*
X343672Y114860D01*
X343617Y115138D01*
X343589Y115499D01*
X343533Y115860D01*
Y116277D01*
Y116304D01*
Y116332D01*
X343561Y116499D01*
X343589Y116777D01*
X343644Y117110D01*
X343756Y117471D01*
X343894Y117859D01*
X344117Y118276D01*
X344394Y118637D01*
X344422Y118665D01*
X344561Y118776D01*
X344755Y118915D01*
X345033Y119109D01*
X345366Y119276D01*
X345783Y119415D01*
X346255Y119526D01*
X346810Y119581D01*
X353253D01*
Y121608D01*
X355252D01*
Y119581D01*
D02*
G37*
G36*
X347588Y170872D02*
X347893Y170817D01*
X348310Y170734D01*
X348754Y170567D01*
X349226Y170317D01*
X349476Y170178D01*
X349698Y169984D01*
X349921Y169789D01*
X350115Y169539D01*
Y169512D01*
X350170Y169484D01*
X350226Y169401D01*
X350282Y169290D01*
X350365Y169151D01*
X350448Y168984D01*
X350642Y168568D01*
X350837Y168068D01*
X351004Y167429D01*
X351115Y166735D01*
X351170Y165929D01*
Y165902D01*
Y165846D01*
Y165735D01*
Y165596D01*
X351142Y165429D01*
Y165235D01*
X351087Y164791D01*
X351004Y164291D01*
X350865Y163763D01*
X350698Y163236D01*
X350476Y162736D01*
X351170D01*
X351364Y162791D01*
X351642Y162847D01*
X351948Y162958D01*
X352253Y163097D01*
X352586Y163319D01*
X352892Y163625D01*
X352920Y163652D01*
X353003Y163791D01*
X353142Y163958D01*
X353281Y164208D01*
X353419Y164541D01*
X353558Y164902D01*
X353642Y165291D01*
X353669Y165735D01*
Y165763D01*
Y165818D01*
Y165902D01*
X353642Y166041D01*
X353586Y166374D01*
X353475Y166762D01*
X353308Y167235D01*
X353031Y167707D01*
X352864Y167929D01*
X352642Y168179D01*
X352420Y168401D01*
X352142Y168595D01*
X353364Y170511D01*
X353392Y170484D01*
X353475Y170428D01*
X353586Y170345D01*
X353725Y170206D01*
X353892Y170039D01*
X354086Y169845D01*
X354280Y169595D01*
X354503Y169345D01*
X354697Y169012D01*
X354891Y168679D01*
X355086Y168290D01*
X355252Y167873D01*
X355419Y167429D01*
X355530Y166929D01*
X355586Y166402D01*
X355613Y165846D01*
Y165818D01*
Y165735D01*
Y165624D01*
X355586Y165457D01*
Y165235D01*
X355558Y165013D01*
X355447Y164458D01*
X355308Y163847D01*
X355086Y163208D01*
X354752Y162597D01*
X354558Y162319D01*
X354336Y162042D01*
X354308Y162014D01*
X354280Y161986D01*
X354197Y161903D01*
X354114Y161820D01*
X353975Y161708D01*
X353808Y161597D01*
X353419Y161347D01*
X352920Y161097D01*
X352309Y160875D01*
X351614Y160709D01*
X351226Y160681D01*
X350809Y160653D01*
X343700D01*
Y162736D01*
X345283D01*
Y162819D01*
X345255Y162847D01*
X345200Y162875D01*
X345116Y162958D01*
X344977Y163069D01*
X344839Y163208D01*
X344672Y163375D01*
X344311Y163763D01*
X343950Y164291D01*
X343644Y164902D01*
X343506Y165235D01*
X343422Y165596D01*
X343367Y165985D01*
X343339Y166402D01*
Y166429D01*
Y166485D01*
Y166596D01*
X343367Y166707D01*
Y166874D01*
X343394Y167068D01*
X343478Y167512D01*
X343617Y168040D01*
X343811Y168568D01*
X344089Y169095D01*
X344450Y169623D01*
X344505Y169678D01*
X344644Y169817D01*
X344894Y170039D01*
X345227Y170262D01*
X345644Y170484D01*
X346116Y170706D01*
X346671Y170845D01*
X346977Y170872D01*
X347282Y170900D01*
X347449D01*
X347588Y170872D01*
D02*
G37*
G36*
X360556Y156043D02*
X350170D01*
X355252Y151045D01*
Y148268D01*
X355141D01*
X350670Y152766D01*
X343783Y148046D01*
X343700D01*
Y150656D01*
X349143Y154266D01*
X347393Y156043D01*
X343700D01*
Y158209D01*
X360556D01*
Y156043D01*
D02*
G37*
G36*
Y100809D02*
Y100781D01*
Y100725D01*
Y100614D01*
X360529Y100476D01*
Y100309D01*
X360501Y100087D01*
X360390Y99642D01*
X360251Y99087D01*
X360001Y98532D01*
X359696Y97948D01*
X359473Y97671D01*
X359251Y97393D01*
X359223Y97365D01*
X359196Y97338D01*
X359112Y97254D01*
X359029Y97171D01*
X358724Y96949D01*
X358363Y96671D01*
X357891Y96393D01*
X357307Y96171D01*
X356669Y96004D01*
X356335Y95977D01*
X355974Y95949D01*
X355863D01*
X355724Y95977D01*
X355558D01*
X355363Y96004D01*
X355141Y96060D01*
X354586Y96227D01*
X354308Y96366D01*
X354003Y96504D01*
X353725Y96699D01*
X353419Y96921D01*
X353142Y97171D01*
X352892Y97476D01*
X352670Y97837D01*
X352448Y98226D01*
X352364D01*
Y98198D01*
X352337Y98171D01*
X352281Y98004D01*
X352170Y97782D01*
X352031Y97476D01*
X351837Y97143D01*
X351559Y96782D01*
X351253Y96449D01*
X350892Y96143D01*
X350837Y96116D01*
X350698Y96032D01*
X350476Y95894D01*
X350198Y95755D01*
X349837Y95616D01*
X349448Y95477D01*
X349004Y95394D01*
X348504Y95366D01*
X348310D01*
X348171Y95394D01*
X347977Y95421D01*
X347782Y95449D01*
X347282Y95560D01*
X346755Y95727D01*
X346171Y96004D01*
X345894Y96171D01*
X345588Y96393D01*
X345311Y96615D01*
X345061Y96893D01*
X345033Y96921D01*
X345005Y96949D01*
X344950Y97032D01*
X344839Y97143D01*
X344755Y97282D01*
X344644Y97476D01*
X344394Y97893D01*
X344144Y98421D01*
X343922Y99032D01*
X343756Y99726D01*
X343728Y100115D01*
X343700Y100503D01*
Y106918D01*
X360556D01*
Y100809D01*
D02*
G37*
G36*
X330447Y222401D02*
X330530Y222387D01*
X330613Y222360D01*
X330710Y222318D01*
X330808Y222263D01*
X330891Y222179D01*
X330905Y222165D01*
X330932Y222138D01*
X330960Y222082D01*
X331016Y222013D01*
X331057Y221929D01*
X331085Y221832D01*
X331113Y221735D01*
X331127Y221610D01*
Y221596D01*
Y221555D01*
X331113Y221485D01*
X331099Y221402D01*
X331071Y221319D01*
X331030Y221221D01*
X330974Y221124D01*
X330891Y221041D01*
X330877Y221027D01*
X330849Y220999D01*
X330808Y220972D01*
X330738Y220916D01*
X330655Y220875D01*
X330558Y220847D01*
X330447Y220819D01*
X330322Y220805D01*
X330266D01*
X330211Y220819D01*
X330127Y220833D01*
X330030Y220861D01*
X329947Y220902D01*
X329850Y220958D01*
X329753Y221041D01*
X329739Y221055D01*
X329725Y221083D01*
X329683Y221124D01*
X329642Y221194D01*
X329600Y221277D01*
X329572Y221374D01*
X329544Y221485D01*
X329531Y221610D01*
Y221624D01*
Y221666D01*
X329544Y221721D01*
X329558Y221804D01*
X329586Y221902D01*
X329628Y221985D01*
X329683Y222082D01*
X329753Y222179D01*
X329767Y222193D01*
X329794Y222221D01*
X329850Y222249D01*
X329919Y222290D01*
X330002Y222346D01*
X330100Y222374D01*
X330197Y222401D01*
X330322Y222415D01*
X330377D01*
X330447Y222401D01*
D02*
G37*
G36*
X331835Y227828D02*
X331821D01*
X331807Y227815D01*
X331724Y227787D01*
X331599Y227745D01*
X331446Y227676D01*
X331279Y227592D01*
X331113Y227481D01*
X330946Y227357D01*
X330794Y227204D01*
X330780Y227190D01*
X330738Y227120D01*
X330683Y227037D01*
X330627Y226912D01*
X330558Y226760D01*
X330502Y226593D01*
X330461Y226385D01*
X330447Y226177D01*
Y226163D01*
Y226149D01*
Y226066D01*
X330474Y225941D01*
X330502Y225788D01*
X330544Y225608D01*
X330613Y225413D01*
X330710Y225219D01*
X330849Y225025D01*
X330863Y225011D01*
X330932Y224955D01*
X331016Y224872D01*
X331141Y224789D01*
X331293Y224705D01*
X331460Y224622D01*
X331668Y224567D01*
X331876Y224553D01*
X331904D01*
X331974Y224567D01*
X332084Y224581D01*
X332237Y224608D01*
X332390Y224678D01*
X332556Y224761D01*
X332737Y224886D01*
X332890Y225052D01*
X332903Y225080D01*
X332959Y225136D01*
X333028Y225247D01*
X333098Y225385D01*
X333181Y225552D01*
X333237Y225746D01*
X333292Y225969D01*
X333306Y226218D01*
Y226912D01*
X334319D01*
Y226302D01*
Y226288D01*
Y226274D01*
Y226191D01*
X334333Y226080D01*
X334361Y225927D01*
X334402Y225760D01*
X334472Y225580D01*
X334555Y225413D01*
X334680Y225247D01*
X334694Y225233D01*
X334750Y225177D01*
X334819Y225108D01*
X334930Y225039D01*
X335069Y224955D01*
X335221Y224900D01*
X335402Y224844D01*
X335610Y224830D01*
X335693D01*
X335804Y224844D01*
X335915Y224872D01*
X336054Y224927D01*
X336207Y224997D01*
X336346Y225094D01*
X336471Y225219D01*
X336485Y225233D01*
X336526Y225288D01*
X336582Y225372D01*
X336637Y225497D01*
X336693Y225635D01*
X336748Y225816D01*
X336790Y226024D01*
X336804Y226246D01*
Y226260D01*
Y226288D01*
Y226343D01*
X336790Y226413D01*
X336776Y226496D01*
X336748Y226593D01*
X336679Y226801D01*
X336623Y226926D01*
X336554Y227037D01*
X336471Y227162D01*
X336360Y227273D01*
X336248Y227384D01*
X336110Y227481D01*
X335943Y227565D01*
X335763Y227648D01*
X336179Y228647D01*
X336193D01*
X336207Y228633D01*
X336248Y228620D01*
X336304Y228592D01*
X336443Y228536D01*
X336609Y228439D01*
X336804Y228314D01*
X337012Y228162D01*
X337206Y227967D01*
X337387Y227745D01*
Y227731D01*
X337401Y227717D01*
X337456Y227634D01*
X337526Y227495D01*
X337623Y227315D01*
X337706Y227093D01*
X337775Y226843D01*
X337831Y226551D01*
X337845Y226246D01*
Y226232D01*
Y226204D01*
Y226149D01*
X337831Y226066D01*
Y225969D01*
X337817Y225871D01*
X337761Y225622D01*
X337692Y225330D01*
X337581Y225039D01*
X337414Y224733D01*
X337317Y224581D01*
X337206Y224442D01*
Y224428D01*
X337178Y224414D01*
X337095Y224331D01*
X336956Y224220D01*
X336776Y224081D01*
X336554Y223942D01*
X336276Y223831D01*
X335957Y223748D01*
X335790Y223734D01*
X335610Y223720D01*
X335499D01*
X335416Y223734D01*
X335319Y223748D01*
X335208Y223775D01*
X334958Y223859D01*
X334819Y223914D01*
X334680Y223984D01*
X334541Y224067D01*
X334389Y224178D01*
X334250Y224303D01*
X334125Y224442D01*
X334000Y224608D01*
X333889Y224803D01*
X333833D01*
Y224789D01*
X333820Y224775D01*
X333778Y224692D01*
X333722Y224581D01*
X333639Y224442D01*
X333528Y224275D01*
X333389Y224122D01*
X333223Y223956D01*
X333042Y223817D01*
X333014Y223803D01*
X332959Y223762D01*
X332848Y223706D01*
X332709Y223637D01*
X332529Y223567D01*
X332334Y223512D01*
X332112Y223470D01*
X331876Y223456D01*
X331779D01*
X331696Y223470D01*
X331613Y223484D01*
X331502Y223498D01*
X331266Y223553D01*
X330988Y223651D01*
X330835Y223706D01*
X330683Y223789D01*
X330544Y223886D01*
X330391Y223984D01*
X330252Y224109D01*
X330114Y224247D01*
X330100Y224261D01*
X330086Y224289D01*
X330044Y224331D01*
X330002Y224386D01*
X329947Y224456D01*
X329891Y224553D01*
X329836Y224664D01*
X329767Y224775D01*
X329642Y225066D01*
X329531Y225385D01*
X329447Y225760D01*
X329433Y225969D01*
X329420Y226177D01*
Y226191D01*
Y226218D01*
Y226260D01*
X329433Y226329D01*
Y226413D01*
X329447Y226496D01*
X329489Y226718D01*
X329544Y226968D01*
X329642Y227245D01*
X329767Y227537D01*
X329947Y227815D01*
X329961Y227828D01*
X329975Y227842D01*
X330044Y227939D01*
X330169Y228064D01*
X330349Y228217D01*
X330558Y228384D01*
X330808Y228550D01*
X331099Y228689D01*
X331418Y228814D01*
X331835Y227828D01*
D02*
G37*
G36*
X332809Y244599D02*
X332920Y244585D01*
X333045Y244571D01*
X333198Y244543D01*
X333350Y244515D01*
X333697Y244418D01*
X333878Y244349D01*
X334072Y244265D01*
X334253Y244182D01*
X334433Y244071D01*
X334613Y243946D01*
X334780Y243807D01*
X334794Y243793D01*
X334822Y243766D01*
X334863Y243724D01*
X334919Y243655D01*
X334988Y243585D01*
X335058Y243488D01*
X335141Y243377D01*
X335224Y243252D01*
X335294Y243113D01*
X335377Y242947D01*
X335516Y242600D01*
X335571Y242405D01*
X335613Y242197D01*
X335641Y241975D01*
X335654Y241753D01*
Y241739D01*
Y241698D01*
Y241628D01*
X335641Y241545D01*
X335627Y241434D01*
X335613Y241309D01*
X335585Y241170D01*
X335557Y241017D01*
X335446Y240698D01*
X335391Y240518D01*
X335308Y240351D01*
X335210Y240185D01*
X335099Y240018D01*
X334974Y239865D01*
X334822Y239713D01*
X334808Y239699D01*
X334780Y239685D01*
X334738Y239643D01*
X334669Y239588D01*
X334586Y239532D01*
X334475Y239477D01*
X334364Y239407D01*
X334225Y239324D01*
X334058Y239255D01*
X333892Y239185D01*
X333697Y239130D01*
X333489Y239074D01*
X333267Y239019D01*
X333031Y238977D01*
X332781Y238963D01*
X332504Y238949D01*
X332379Y238963D01*
Y243502D01*
X332296D01*
X332240Y243488D01*
X332087Y243460D01*
X331893Y243419D01*
X331671Y243349D01*
X331449Y243252D01*
X331213Y243113D01*
X331005Y242933D01*
X330977Y242905D01*
X330921Y242836D01*
X330838Y242725D01*
X330755Y242572D01*
X330658Y242378D01*
X330574Y242156D01*
X330519Y241906D01*
X330491Y241642D01*
Y241628D01*
Y241600D01*
X330505Y241545D01*
Y241476D01*
X330519Y241378D01*
X330547Y241281D01*
X330616Y241045D01*
X330672Y240920D01*
X330741Y240781D01*
X330824Y240657D01*
X330935Y240518D01*
X331046Y240379D01*
X331185Y240254D01*
X331352Y240129D01*
X331532Y240018D01*
X331060Y239047D01*
X331046D01*
X331032Y239060D01*
X330991Y239088D01*
X330935Y239116D01*
X330810Y239199D01*
X330644Y239324D01*
X330463Y239477D01*
X330269Y239671D01*
X330089Y239879D01*
X329922Y240129D01*
Y240143D01*
X329908Y240157D01*
X329880Y240198D01*
X329867Y240254D01*
X329797Y240393D01*
X329728Y240573D01*
X329644Y240809D01*
X329589Y241073D01*
X329533Y241364D01*
X329520Y241684D01*
Y241698D01*
Y241739D01*
Y241809D01*
X329533Y241892D01*
X329547Y242003D01*
X329561Y242128D01*
X329589Y242267D01*
X329631Y242419D01*
X329728Y242766D01*
X329797Y242933D01*
X329880Y243113D01*
X329978Y243294D01*
X330102Y243460D01*
X330227Y243627D01*
X330380Y243793D01*
X330394Y243807D01*
X330422Y243835D01*
X330463Y243863D01*
X330533Y243918D01*
X330630Y243988D01*
X330727Y244057D01*
X330852Y244127D01*
X330991Y244196D01*
X331130Y244279D01*
X331310Y244349D01*
X331490Y244418D01*
X331685Y244487D01*
X331893Y244543D01*
X332115Y244571D01*
X332337Y244599D01*
X332587Y244612D01*
X332712D01*
X332809Y244599D01*
D02*
G37*
G36*
X337650Y217405D02*
Y216710D01*
X329600D01*
Y217793D01*
X336304D01*
X335624Y219362D01*
X336540Y219778D01*
X337650Y217405D01*
D02*
G37*
G36*
X349893Y60181D02*
X350115Y60154D01*
X350365Y60126D01*
X350670Y60070D01*
X350976Y60015D01*
X351642Y59820D01*
X352003Y59681D01*
X352392Y59515D01*
X352753Y59348D01*
X353114Y59126D01*
X353475Y58876D01*
X353836Y58598D01*
X353864Y58571D01*
X353919Y58515D01*
X354003Y58432D01*
X354114Y58293D01*
X354253Y58154D01*
X354391Y57960D01*
X354558Y57737D01*
X354725Y57488D01*
X355058Y56932D01*
X355336Y56266D01*
X355447Y55905D01*
X355530Y55516D01*
X355586Y55127D01*
X355613Y54711D01*
Y54683D01*
Y54655D01*
Y54488D01*
X355586Y54238D01*
X355558Y53933D01*
X355474Y53572D01*
X355391Y53183D01*
X355252Y52767D01*
X355058Y52378D01*
X355030Y52322D01*
X354975Y52211D01*
X354836Y52017D01*
X354697Y51767D01*
X354475Y51517D01*
X354253Y51239D01*
X353947Y50989D01*
X353642Y50767D01*
Y50684D01*
X355252Y50767D01*
X360556D01*
Y48601D01*
X343700D01*
Y50684D01*
X345283D01*
Y50767D01*
X345255Y50795D01*
X345144Y50878D01*
X344977Y50989D01*
X344783Y51184D01*
X344561Y51406D01*
X344311Y51684D01*
X344089Y52017D01*
X343867Y52378D01*
X343839Y52433D01*
X343783Y52572D01*
X343700Y52767D01*
X343617Y53072D01*
X343506Y53405D01*
X343422Y53794D01*
X343367Y54238D01*
X343339Y54711D01*
Y54738D01*
Y54822D01*
Y54933D01*
X343367Y55099D01*
X343394Y55294D01*
X343422Y55516D01*
X343561Y56043D01*
X343756Y56655D01*
X343922Y56960D01*
X344089Y57293D01*
X344283Y57626D01*
X344505Y57960D01*
X344783Y58293D01*
X345089Y58598D01*
X345116Y58626D01*
X345172Y58654D01*
X345283Y58737D01*
X345422Y58848D01*
X345588Y58959D01*
X345811Y59098D01*
X346060Y59265D01*
X346338Y59404D01*
X346644Y59543D01*
X346977Y59709D01*
X347727Y59959D01*
X348115Y60070D01*
X348560Y60126D01*
X349004Y60181D01*
X349476Y60209D01*
X349726D01*
X349893Y60181D01*
D02*
G37*
G36*
X338125Y248027D02*
Y248013D01*
Y247971D01*
Y247916D01*
X338111Y247846D01*
X338097Y247749D01*
X338084Y247638D01*
X338042Y247388D01*
X337945Y247097D01*
X337820Y246778D01*
X337737Y246625D01*
X337639Y246472D01*
X337528Y246320D01*
X337403Y246167D01*
X337389Y246153D01*
X337376Y246139D01*
X337334Y246097D01*
X337279Y246042D01*
X337209Y245987D01*
X337126Y245917D01*
X336918Y245778D01*
X336654Y245639D01*
X336349Y245515D01*
X336001Y245417D01*
X335821Y245404D01*
X335627Y245390D01*
X335543D01*
X335474Y245404D01*
X335405D01*
X335321Y245417D01*
X335099Y245459D01*
X334863Y245528D01*
X334600Y245626D01*
X334336Y245764D01*
X334072Y245959D01*
X334058D01*
X334044Y245987D01*
X333961Y246056D01*
X333850Y246181D01*
X333711Y246347D01*
X333559Y246556D01*
X333420Y246805D01*
X333295Y247083D01*
X333212Y247402D01*
X333170Y247430D01*
X329742Y245057D01*
X329700D01*
Y246347D01*
X333115Y248624D01*
Y249817D01*
X329700D01*
Y250900D01*
X338125D01*
Y248027D01*
D02*
G37*
G36*
X345394Y234493D02*
X345561Y234466D01*
X345727Y234410D01*
X345922Y234327D01*
X346116Y234216D01*
X346283Y234049D01*
X346310Y234021D01*
X346366Y233966D01*
X346422Y233855D01*
X346533Y233716D01*
X346616Y233549D01*
X346671Y233355D01*
X346727Y233161D01*
X346755Y232911D01*
Y232883D01*
Y232800D01*
X346727Y232661D01*
X346699Y232494D01*
X346644Y232328D01*
X346560Y232133D01*
X346449Y231939D01*
X346283Y231772D01*
X346255Y231744D01*
X346199Y231689D01*
X346116Y231633D01*
X345977Y231522D01*
X345811Y231439D01*
X345616Y231383D01*
X345394Y231328D01*
X345144Y231300D01*
X345033D01*
X344922Y231328D01*
X344755Y231356D01*
X344561Y231411D01*
X344394Y231494D01*
X344200Y231606D01*
X344005Y231772D01*
X343978Y231800D01*
X343950Y231855D01*
X343867Y231939D01*
X343783Y232078D01*
X343700Y232244D01*
X343644Y232439D01*
X343589Y232661D01*
X343561Y232911D01*
Y232938D01*
Y233022D01*
X343589Y233133D01*
X343617Y233299D01*
X343672Y233494D01*
X343756Y233660D01*
X343867Y233855D01*
X344005Y234049D01*
X344033Y234077D01*
X344089Y234133D01*
X344200Y234188D01*
X344339Y234271D01*
X344505Y234383D01*
X344700Y234438D01*
X344894Y234493D01*
X345144Y234521D01*
X345255D01*
X345394Y234493D01*
D02*
G37*
G36*
X360556Y218609D02*
X358501D01*
Y226301D01*
X353142D01*
Y219387D01*
X351115D01*
Y226301D01*
X345755D01*
Y218609D01*
X343700D01*
Y228467D01*
X360556D01*
Y218609D01*
D02*
G37*
G36*
Y244741D02*
Y242297D01*
X343700Y235938D01*
Y238326D01*
X348254Y239964D01*
Y247046D01*
X343700Y248712D01*
Y251100D01*
X360556Y244741D01*
D02*
G37*
G36*
X335474Y237395D02*
X330991Y235701D01*
Y235674D01*
X335474Y233952D01*
Y232801D01*
X329700Y235160D01*
Y236243D01*
X335474Y238575D01*
Y237395D01*
D02*
G37*
G36*
X355252Y66013D02*
X353364D01*
Y65930D01*
X353392Y65902D01*
X353531Y65874D01*
X353697Y65763D01*
X353892Y65624D01*
X354141Y65458D01*
X354419Y65208D01*
X354669Y64930D01*
X354919Y64569D01*
X354947Y64513D01*
X355030Y64402D01*
X355114Y64180D01*
X355252Y63930D01*
X355363Y63625D01*
X355447Y63292D01*
X355530Y62903D01*
X355558Y62542D01*
Y62486D01*
Y62375D01*
Y62208D01*
X355530Y61986D01*
X355502Y61736D01*
X355447Y61486D01*
X355363Y61209D01*
X355280Y60959D01*
X353197Y61598D01*
Y61625D01*
X353225Y61681D01*
X353253Y61764D01*
X353281Y61903D01*
X353308Y62097D01*
X353336Y62319D01*
X353364Y62569D01*
Y62875D01*
Y62931D01*
X353336Y63069D01*
X353308Y63319D01*
X353253Y63597D01*
X353114Y63930D01*
X352947Y64291D01*
X352697Y64652D01*
X352364Y65013D01*
X352309Y65041D01*
X352198Y65152D01*
X351975Y65291D01*
X351698Y65458D01*
X351364Y65652D01*
X350976Y65791D01*
X350531Y65902D01*
X350059Y65930D01*
X343700D01*
Y68096D01*
X355252D01*
Y66013D01*
D02*
G37*
%LPC*%
G36*
X349476Y91811D02*
X349282D01*
X349171Y91783D01*
X349004D01*
X348810Y91756D01*
X348393Y91672D01*
X347921Y91534D01*
X347393Y91367D01*
X346894Y91089D01*
X346449Y90728D01*
X346394Y90673D01*
X346255Y90534D01*
X346088Y90312D01*
X345866Y89978D01*
X345644Y89590D01*
X345477Y89145D01*
X345338Y88618D01*
X345283Y88035D01*
Y88007D01*
Y87951D01*
Y87868D01*
X345311Y87757D01*
X345338Y87479D01*
X345422Y87090D01*
X345561Y86674D01*
X345783Y86229D01*
X346060Y85757D01*
X346449Y85341D01*
X346505Y85285D01*
X346671Y85174D01*
X346921Y85008D01*
X347255Y84785D01*
X347699Y84591D01*
X348199Y84425D01*
X348810Y84313D01*
X349476Y84258D01*
X349643D01*
X349782Y84286D01*
X349948D01*
X350115Y84313D01*
X350531Y84397D01*
X351004Y84508D01*
X351503Y84702D01*
X352003Y84980D01*
X352448Y85341D01*
X352475D01*
X352503Y85396D01*
X352642Y85535D01*
X352836Y85785D01*
X353059Y86091D01*
X353253Y86479D01*
X353447Y86952D01*
X353586Y87451D01*
X353642Y87729D01*
Y88035D01*
Y88062D01*
Y88090D01*
Y88173D01*
X353614Y88284D01*
X353586Y88590D01*
X353503Y88951D01*
X353364Y89395D01*
X353142Y89840D01*
X352836Y90284D01*
X352670Y90506D01*
X352448Y90728D01*
X352392Y90784D01*
X352253Y90895D01*
X352003Y91062D01*
X351642Y91256D01*
X351226Y91478D01*
X350726Y91645D01*
X350143Y91756D01*
X349476Y91811D01*
D02*
G37*
G36*
X350865Y181147D02*
Y174510D01*
X350920D01*
X351059Y174538D01*
X351281Y174594D01*
X351559Y174677D01*
X351864Y174816D01*
X352198Y174982D01*
X352531Y175205D01*
X352836Y175510D01*
X352864Y175538D01*
X352975Y175677D01*
X353086Y175871D01*
X353253Y176121D01*
X353392Y176454D01*
X353531Y176871D01*
X353614Y177343D01*
X353642Y177871D01*
Y177926D01*
Y178065D01*
X353614Y178315D01*
X353558Y178593D01*
X353447Y178926D01*
X353308Y179287D01*
X353114Y179648D01*
X352864Y179981D01*
X352836Y180009D01*
X352725Y180120D01*
X352559Y180287D01*
X352337Y180453D01*
X352059Y180648D01*
X351698Y180842D01*
X351309Y181009D01*
X350865Y181147D01*
D02*
G37*
G36*
X347227Y78537D02*
X347088D01*
X346921Y78509D01*
X346727Y78454D01*
X346505Y78371D01*
X346255Y78232D01*
X346033Y78065D01*
X345811Y77815D01*
X345783Y77787D01*
X345727Y77676D01*
X345644Y77538D01*
X345533Y77343D01*
X345422Y77093D01*
X345338Y76788D01*
X345283Y76482D01*
X345255Y76121D01*
Y76094D01*
Y76066D01*
X345283Y75899D01*
X345311Y75621D01*
X345394Y75316D01*
X345505Y74927D01*
X345672Y74538D01*
X345922Y74122D01*
X346255Y73705D01*
X346310Y73650D01*
X346449Y73539D01*
X346644Y73372D01*
X346949Y73150D01*
X347282Y72955D01*
X347699Y72789D01*
X348143Y72678D01*
X348643Y72622D01*
X348671Y72678D01*
X348782Y72817D01*
X348893Y73039D01*
X349060Y73344D01*
X349199Y73761D01*
X349337Y74233D01*
X349421Y74816D01*
X349448Y75455D01*
Y75482D01*
Y75510D01*
Y75677D01*
X349421Y75927D01*
X349365Y76205D01*
X349282Y76565D01*
X349171Y76927D01*
X349032Y77288D01*
X348810Y77649D01*
X348782Y77676D01*
X348699Y77787D01*
X348560Y77926D01*
X348365Y78093D01*
X348143Y78259D01*
X347866Y78398D01*
X347560Y78509D01*
X347227Y78537D01*
D02*
G37*
G36*
X358501Y202864D02*
X353336D01*
Y198920D01*
Y198865D01*
Y198726D01*
X353392Y198531D01*
X353447Y198254D01*
X353531Y197948D01*
X353669Y197643D01*
X353864Y197310D01*
X354114Y197004D01*
X354141Y196976D01*
X354253Y196893D01*
X354419Y196754D01*
X354641Y196615D01*
X354919Y196476D01*
X355224Y196338D01*
X355558Y196254D01*
X355919Y196227D01*
X356085D01*
X356280Y196254D01*
X356530Y196310D01*
X356807Y196421D01*
X357113Y196532D01*
X357418Y196726D01*
X357724Y196976D01*
X357752Y197004D01*
X357835Y197115D01*
X357974Y197282D01*
X358113Y197476D01*
X358252Y197754D01*
X358390Y198087D01*
X358474Y198448D01*
X358501Y198837D01*
Y202864D01*
D02*
G37*
G36*
X351309D02*
X345755D01*
Y198504D01*
Y198448D01*
X345783Y198309D01*
X345811Y198087D01*
X345866Y197809D01*
X345949Y197504D01*
X346116Y197171D01*
X346310Y196837D01*
X346588Y196504D01*
X346616Y196476D01*
X346727Y196365D01*
X346921Y196254D01*
X347144Y196088D01*
X347421Y195949D01*
X347754Y195810D01*
X348143Y195727D01*
X348532Y195699D01*
X348726D01*
X348921Y195754D01*
X349199Y195810D01*
X349504Y195893D01*
X349809Y196060D01*
X350143Y196254D01*
X350476Y196532D01*
X350504Y196560D01*
X350615Y196671D01*
X350754Y196865D01*
X350892Y197115D01*
X351059Y197393D01*
X351170Y197754D01*
X351281Y198170D01*
X351309Y198615D01*
Y202864D01*
D02*
G37*
G36*
X349476Y145324D02*
X349282D01*
X349171Y145296D01*
X349004D01*
X348810Y145268D01*
X348393Y145185D01*
X347921Y145046D01*
X347393Y144880D01*
X346894Y144602D01*
X346449Y144241D01*
X346394Y144185D01*
X346255Y144047D01*
X346088Y143825D01*
X345866Y143491D01*
X345644Y143103D01*
X345477Y142658D01*
X345338Y142130D01*
X345283Y141547D01*
Y141520D01*
Y141464D01*
Y141381D01*
X345311Y141270D01*
X345338Y140992D01*
X345422Y140603D01*
X345561Y140187D01*
X345783Y139742D01*
X346060Y139270D01*
X346449Y138854D01*
X346505Y138798D01*
X346671Y138687D01*
X346921Y138520D01*
X347255Y138298D01*
X347699Y138104D01*
X348199Y137937D01*
X348810Y137826D01*
X349476Y137771D01*
X349643D01*
X349782Y137798D01*
X349948D01*
X350115Y137826D01*
X350531Y137909D01*
X351004Y138021D01*
X351503Y138215D01*
X352003Y138493D01*
X352448Y138854D01*
X352475D01*
X352503Y138909D01*
X352642Y139048D01*
X352836Y139298D01*
X353059Y139603D01*
X353253Y139992D01*
X353447Y140464D01*
X353586Y140964D01*
X353642Y141242D01*
Y141547D01*
Y141575D01*
Y141603D01*
Y141686D01*
X353614Y141797D01*
X353586Y142103D01*
X353503Y142464D01*
X353364Y142908D01*
X353142Y143352D01*
X352836Y143797D01*
X352670Y144019D01*
X352448Y144241D01*
X352392Y144297D01*
X352253Y144408D01*
X352003Y144574D01*
X351642Y144769D01*
X351226Y144991D01*
X350726Y145157D01*
X350143Y145268D01*
X349476Y145324D01*
D02*
G37*
G36*
X347227Y168651D02*
X347088D01*
X346921Y168623D01*
X346727Y168568D01*
X346505Y168484D01*
X346255Y168345D01*
X346033Y168179D01*
X345811Y167929D01*
X345783Y167901D01*
X345727Y167790D01*
X345644Y167651D01*
X345533Y167457D01*
X345422Y167207D01*
X345338Y166901D01*
X345283Y166596D01*
X345255Y166235D01*
Y166207D01*
Y166179D01*
X345283Y166013D01*
X345311Y165735D01*
X345394Y165429D01*
X345505Y165041D01*
X345672Y164652D01*
X345922Y164235D01*
X346255Y163819D01*
X346310Y163763D01*
X346449Y163652D01*
X346644Y163486D01*
X346949Y163263D01*
X347282Y163069D01*
X347699Y162902D01*
X348143Y162791D01*
X348643Y162736D01*
X348671Y162791D01*
X348782Y162930D01*
X348893Y163152D01*
X349060Y163458D01*
X349199Y163874D01*
X349337Y164347D01*
X349421Y164930D01*
X349448Y165568D01*
Y165596D01*
Y165624D01*
Y165791D01*
X349421Y166041D01*
X349365Y166318D01*
X349282Y166679D01*
X349171Y167040D01*
X349032Y167401D01*
X348810Y167762D01*
X348782Y167790D01*
X348699Y167901D01*
X348560Y168040D01*
X348365Y168207D01*
X348143Y168373D01*
X347866Y168512D01*
X347560Y168623D01*
X347227Y168651D01*
D02*
G37*
G36*
X351309Y104752D02*
X345755D01*
Y100392D01*
Y100337D01*
X345783Y100198D01*
X345811Y99976D01*
X345866Y99698D01*
X345949Y99392D01*
X346116Y99059D01*
X346310Y98726D01*
X346588Y98393D01*
X346616Y98365D01*
X346727Y98254D01*
X346921Y98143D01*
X347144Y97976D01*
X347421Y97837D01*
X347754Y97698D01*
X348143Y97615D01*
X348532Y97587D01*
X348726D01*
X348921Y97643D01*
X349199Y97698D01*
X349504Y97782D01*
X349809Y97948D01*
X350143Y98143D01*
X350476Y98421D01*
X350504Y98448D01*
X350615Y98559D01*
X350754Y98754D01*
X350892Y99004D01*
X351059Y99281D01*
X351170Y99642D01*
X351281Y100059D01*
X351309Y100503D01*
Y104752D01*
D02*
G37*
G36*
X358501D02*
X353336D01*
Y100809D01*
Y100753D01*
Y100614D01*
X353392Y100420D01*
X353447Y100142D01*
X353531Y99837D01*
X353669Y99531D01*
X353864Y99198D01*
X354114Y98893D01*
X354141Y98865D01*
X354253Y98782D01*
X354419Y98643D01*
X354641Y98504D01*
X354919Y98365D01*
X355224Y98226D01*
X355558Y98143D01*
X355919Y98115D01*
X356085D01*
X356280Y98143D01*
X356530Y98198D01*
X356807Y98309D01*
X357113Y98421D01*
X357418Y98615D01*
X357724Y98865D01*
X357752Y98893D01*
X357835Y99004D01*
X357974Y99170D01*
X358113Y99365D01*
X358252Y99642D01*
X358390Y99976D01*
X358474Y100337D01*
X358501Y100725D01*
Y104752D01*
D02*
G37*
G36*
X333281Y243419D02*
Y240101D01*
X333309D01*
X333378Y240115D01*
X333489Y240143D01*
X333628Y240185D01*
X333781Y240254D01*
X333947Y240337D01*
X334114Y240448D01*
X334266Y240601D01*
X334280Y240615D01*
X334336Y240684D01*
X334391Y240781D01*
X334475Y240906D01*
X334544Y241073D01*
X334613Y241281D01*
X334655Y241517D01*
X334669Y241781D01*
Y241809D01*
Y241878D01*
X334655Y242003D01*
X334627Y242142D01*
X334572Y242308D01*
X334503Y242489D01*
X334405Y242669D01*
X334280Y242836D01*
X334266Y242850D01*
X334211Y242905D01*
X334128Y242988D01*
X334017Y243072D01*
X333878Y243169D01*
X333697Y243266D01*
X333503Y243349D01*
X333281Y243419D01*
D02*
G37*
G36*
X349476Y58043D02*
X349309D01*
X349171Y58015D01*
X349004D01*
X348837Y57987D01*
X348393Y57904D01*
X347921Y57765D01*
X347421Y57599D01*
X346921Y57321D01*
X346477Y56960D01*
X346422Y56904D01*
X346283Y56766D01*
X346088Y56543D01*
X345894Y56238D01*
X345672Y55849D01*
X345477Y55405D01*
X345338Y54905D01*
X345311Y54627D01*
X345283Y54349D01*
Y54322D01*
Y54266D01*
Y54183D01*
X345311Y54072D01*
X345338Y53794D01*
X345422Y53405D01*
X345561Y53017D01*
X345783Y52572D01*
X346060Y52128D01*
X346449Y51739D01*
X346505Y51684D01*
X346671Y51573D01*
X346921Y51406D01*
X347255Y51212D01*
X347699Y51017D01*
X348199Y50850D01*
X348810Y50739D01*
X349476Y50684D01*
X349643D01*
X349782Y50712D01*
X349921D01*
X350115Y50739D01*
X350531Y50823D01*
X351004Y50934D01*
X351503Y51128D01*
X351975Y51378D01*
X352448Y51739D01*
X352475D01*
X352503Y51795D01*
X352642Y51934D01*
X352836Y52156D01*
X353059Y52461D01*
X353253Y52822D01*
X353447Y53267D01*
X353586Y53794D01*
X353642Y54072D01*
Y54349D01*
Y54377D01*
Y54405D01*
Y54488D01*
X353614Y54599D01*
X353586Y54905D01*
X353503Y55266D01*
X353364Y55682D01*
X353142Y56099D01*
X352836Y56543D01*
X352670Y56766D01*
X352448Y56960D01*
X352392Y57016D01*
X352225Y57126D01*
X351975Y57293D01*
X351642Y57488D01*
X351198Y57710D01*
X350698Y57876D01*
X350115Y57987D01*
X349476Y58043D01*
D02*
G37*
G36*
X337098Y249817D02*
X334128D01*
Y248082D01*
Y248068D01*
Y248055D01*
X334142Y247971D01*
X334156Y247846D01*
X334183Y247694D01*
X334239Y247513D01*
X334308Y247333D01*
X334419Y247139D01*
X334558Y246958D01*
X334572Y246944D01*
X334641Y246889D01*
X334725Y246819D01*
X334850Y246722D01*
X335002Y246639D01*
X335196Y246569D01*
X335405Y246514D01*
X335627Y246500D01*
X335724D01*
X335835Y246528D01*
X335974Y246556D01*
X336140Y246611D01*
X336307Y246680D01*
X336487Y246792D01*
X336654Y246930D01*
X336668Y246944D01*
X336723Y247014D01*
X336793Y247097D01*
X336876Y247222D01*
X336959Y247388D01*
X337029Y247569D01*
X337084Y247777D01*
X337098Y248013D01*
Y249817D01*
D02*
G37*
G36*
X350282Y246324D02*
Y240714D01*
X357891Y243463D01*
Y243574D01*
X350282Y246324D01*
D02*
G37*
%LPD*%
D10*
X76500Y55958D02*
X83600D01*
X76500Y43295D02*
X83600D01*
X76500D02*
Y48795D01*
X83600Y43295D02*
Y48795D01*
Y50458D02*
Y55958D01*
X76500Y50458D02*
Y55958D01*
Y176100D02*
X83600D01*
X76500Y163437D02*
X83600D01*
X76500D02*
Y168937D01*
X83600Y163437D02*
Y168937D01*
Y170600D02*
Y176100D01*
X76500Y170600D02*
Y176100D01*
X12500Y55317D02*
X19600D01*
X12500Y42654D02*
X19600D01*
X12500D02*
Y48154D01*
X19600Y42654D02*
Y48154D01*
Y49817D02*
Y55317D01*
X12500Y49817D02*
Y55317D01*
Y175817D02*
X19600D01*
X12500Y163154D02*
X19600D01*
X12500D02*
Y168654D01*
X19600Y163154D02*
Y168654D01*
Y170317D02*
Y175817D01*
X12500Y170317D02*
Y175817D01*
X169217Y145000D02*
Y152100D01*
X156553Y145000D02*
Y152100D01*
X162054D01*
X156553Y145000D02*
X162054D01*
X163716D02*
X169217D01*
X163716Y152100D02*
X169217D01*
X109358Y85000D02*
Y92100D01*
X96695Y85000D02*
Y92100D01*
X102195D01*
X96695Y85000D02*
X102195D01*
X103858D02*
X109358D01*
X103858Y92100D02*
X109358D01*
Y205000D02*
Y212100D01*
X96695Y205000D02*
Y212100D01*
X102195D01*
X96695Y205000D02*
X102195D01*
X103858D02*
X109358D01*
X103858Y212100D02*
X109358D01*
X49216Y85500D02*
Y92600D01*
X36554Y85500D02*
Y92600D01*
X42054D01*
X36554Y85500D02*
X42054D01*
X43716D02*
X49216D01*
X43716Y92600D02*
X49216D01*
X48717Y205500D02*
Y212600D01*
X36054Y205500D02*
Y212600D01*
X41554D01*
X36054Y205500D02*
X41554D01*
X43216D02*
X48717D01*
X43216Y212600D02*
X48717D01*
X258158Y36600D02*
Y43700D01*
X245495Y36600D02*
Y43700D01*
X250995D01*
X245495Y36600D02*
X250995D01*
X252658D02*
X258158D01*
X252658Y43700D02*
X258158D01*
Y80600D02*
Y87700D01*
X245495Y80600D02*
Y87700D01*
X250995D01*
X245495Y80600D02*
X250995D01*
X252658D02*
X258158D01*
X252658Y87700D02*
X258158D01*
Y125600D02*
Y132700D01*
X245495Y125600D02*
Y132700D01*
X250995D01*
X245495Y125600D02*
X250995D01*
X252658D02*
X258158D01*
X252658Y132700D02*
X258158D01*
X258658Y169600D02*
Y176700D01*
X245995Y169600D02*
Y176700D01*
X251495D01*
X245995Y169600D02*
X251495D01*
X253158D02*
X258658D01*
X253158Y176700D02*
X258658D01*
X259158Y214600D02*
Y221700D01*
X246495Y214600D02*
Y221700D01*
X251995D01*
X246495Y214600D02*
X251995D01*
X253658D02*
X259158D01*
X253658Y221700D02*
X259158D01*
X136000Y235958D02*
X143100D01*
X136000Y223295D02*
X143100D01*
X136000D02*
Y228795D01*
X143100Y223295D02*
Y228795D01*
Y230458D02*
Y235958D01*
X136000Y230458D02*
Y235958D01*
X76500Y115958D02*
X83600D01*
X76500Y103295D02*
X83600D01*
X76500D02*
Y108795D01*
X83600Y103295D02*
Y108795D01*
Y110458D02*
Y115958D01*
X76500Y110458D02*
Y115958D01*
Y236100D02*
X83600D01*
X76500Y223437D02*
X83600D01*
X76500D02*
Y228937D01*
X83600Y223437D02*
Y228937D01*
Y230600D02*
Y236100D01*
X76500Y230600D02*
Y236100D01*
X12500Y115816D02*
X19600D01*
X12500Y103154D02*
X19600D01*
X12500D02*
Y108653D01*
X19600Y103154D02*
Y108653D01*
Y110317D02*
Y115816D01*
X12500Y110317D02*
Y115816D01*
Y235958D02*
X19600D01*
X12500Y223295D02*
X19600D01*
X12500D02*
Y228795D01*
X19600Y223295D02*
Y228795D01*
Y230458D02*
Y235958D01*
X12500Y230458D02*
Y235958D01*
X169000Y264500D02*
Y271600D01*
X156337Y264500D02*
Y271600D01*
X161837D01*
X156337Y264500D02*
X161837D01*
X163500D02*
X169000D01*
X163500Y271600D02*
X169000D01*
X109358Y145000D02*
Y152100D01*
X96695Y145000D02*
Y152100D01*
X102195D01*
X96695Y145000D02*
X102195D01*
X103858D02*
X109358D01*
X103858Y152100D02*
X109358D01*
X109716Y265500D02*
Y272600D01*
X97053Y265500D02*
Y272600D01*
X102553D01*
X97053Y265500D02*
X102553D01*
X104217D02*
X109716D01*
X104217Y272600D02*
X109716D01*
X49216Y145000D02*
Y152100D01*
X36554Y145000D02*
Y152100D01*
X42054D01*
X36554Y145000D02*
X42054D01*
X43716D02*
X49216D01*
X43716Y152100D02*
X49216D01*
Y265500D02*
Y272600D01*
X36554Y265500D02*
Y272600D01*
X42054D01*
X36554Y265500D02*
X42054D01*
X43716D02*
X49216D01*
X43716Y272600D02*
X49216D01*
X258158Y59100D02*
Y66200D01*
X245495Y59100D02*
Y66200D01*
X250995D01*
X245495Y59100D02*
X250995D01*
X252658D02*
X258158D01*
X252658Y66200D02*
X258158D01*
X258016Y103600D02*
Y110700D01*
X245354Y103600D02*
Y110700D01*
X250853D01*
X245354Y103600D02*
X250853D01*
X252517D02*
X258016D01*
X252517Y110700D02*
X258016D01*
X258658Y148600D02*
Y155700D01*
X245995Y148600D02*
Y155700D01*
X251495D01*
X245995Y148600D02*
X251495D01*
X253158D02*
X258658D01*
X253158Y155700D02*
X258658D01*
X259158Y192100D02*
Y199200D01*
X246495Y192100D02*
Y199200D01*
X251995D01*
X246495Y192100D02*
X251995D01*
X253658D02*
X259158D01*
X253658Y199200D02*
X259158D01*
X259016Y238100D02*
Y245200D01*
X246354Y238100D02*
Y245200D01*
X251853D01*
X246354Y238100D02*
X251853D01*
X253517D02*
X259016D01*
X253517Y245200D02*
X259016D01*
X74882Y65179D02*
Y71576D01*
X85118Y65179D02*
Y71576D01*
X83346Y65179D02*
X85118D01*
X74882D02*
X76654D01*
X74882Y185179D02*
Y191576D01*
X85118Y185179D02*
Y191576D01*
X83346Y185179D02*
X85118D01*
X74882D02*
X76654D01*
X10382Y65179D02*
Y71576D01*
X20618Y65179D02*
Y71576D01*
X18846Y65179D02*
X20618D01*
X10382D02*
X12154D01*
X10882Y185179D02*
Y191576D01*
X21118Y185179D02*
Y191576D01*
X19346Y185179D02*
X21118D01*
X10882D02*
X12654D01*
X134882Y245179D02*
Y251576D01*
X145118Y245179D02*
Y251576D01*
X143346Y245179D02*
X145118D01*
X134882D02*
X136654D01*
X74882Y125179D02*
Y131576D01*
X85118Y125179D02*
Y131576D01*
X83346Y125179D02*
X85118D01*
X74882D02*
X76654D01*
X74882Y245100D02*
Y251498D01*
X85118Y245100D02*
Y251498D01*
X83346Y245100D02*
X85118D01*
X74882D02*
X76654D01*
X10382Y125179D02*
Y131576D01*
X20618Y125179D02*
Y131576D01*
X18846Y125179D02*
X20618D01*
X10382D02*
X12154D01*
X10382Y245179D02*
Y251576D01*
X20618Y245179D02*
Y251576D01*
X18846Y245179D02*
X20618D01*
X10382D02*
X12154D01*
X258016Y88600D02*
Y95700D01*
X245354Y88600D02*
Y95700D01*
X250853D01*
X245354Y88600D02*
X250853D01*
X252517D02*
X258016D01*
X252517Y95700D02*
X258016D01*
X251658Y88600D02*
Y95700D01*
X258158Y133600D02*
Y140700D01*
X245495Y133600D02*
Y140700D01*
X250995D01*
X245495Y133600D02*
X250995D01*
X252658D02*
X258158D01*
X252658Y140700D02*
X258158D01*
X251800Y133600D02*
Y140700D01*
X258658Y177600D02*
Y184700D01*
X245995Y177600D02*
Y184700D01*
X251495D01*
X245995Y177600D02*
X251495D01*
X253158D02*
X258658D01*
X253158Y184700D02*
X258658D01*
X252300Y177600D02*
Y184700D01*
X259158Y222600D02*
Y229700D01*
X246495Y222600D02*
Y229700D01*
X251995D01*
X246495Y222600D02*
X251995D01*
X253658D02*
X259158D01*
X253658Y229700D02*
X259158D01*
X252800Y222600D02*
Y229700D01*
X216200Y37842D02*
X223300D01*
X216200Y50505D02*
X223300D01*
Y45005D02*
Y50505D01*
X216200Y45005D02*
Y50505D01*
Y37842D02*
Y43342D01*
X223300Y37842D02*
Y43342D01*
X216200Y44200D02*
X223300D01*
X230158Y95600D02*
Y102700D01*
X217495Y95600D02*
Y102700D01*
X222995D01*
X217495Y95600D02*
X222995D01*
X224658D02*
X230158D01*
X224658Y102700D02*
X230158D01*
X223800Y95600D02*
Y102700D01*
X230658Y140100D02*
Y147200D01*
X217995Y140100D02*
Y147200D01*
X223495D01*
X217995Y140100D02*
X223495D01*
X225158D02*
X230658D01*
X225158Y147200D02*
X230658D01*
X224300Y140100D02*
Y147200D01*
X230658Y184600D02*
Y191700D01*
X217995Y184600D02*
Y191700D01*
X223495D01*
X217995Y184600D02*
X223495D01*
X225158D02*
X230658D01*
X225158Y191700D02*
X230658D01*
X224300Y184600D02*
Y191700D01*
X231158Y229600D02*
Y236700D01*
X218495Y229600D02*
Y236700D01*
X223995D01*
X218495Y229600D02*
X223995D01*
X225658D02*
X231158D01*
X225658Y236700D02*
X231158D01*
X224800Y229600D02*
Y236700D01*
X170642Y145100D02*
Y152200D01*
X183305Y145100D02*
Y152200D01*
X177805Y145100D02*
X183305D01*
X177805Y152200D02*
X183305D01*
X170642D02*
X176142D01*
X170642Y145100D02*
X176142D01*
X177000D02*
Y152200D01*
X110642Y85100D02*
Y92200D01*
X123305Y85100D02*
Y92200D01*
X117805Y85100D02*
X123305D01*
X117805Y92200D02*
X123305D01*
X110642D02*
X116142D01*
X110642Y85100D02*
X116142D01*
X117000D02*
Y92200D01*
X110642Y205100D02*
Y212200D01*
X123305Y205100D02*
Y212200D01*
X117805Y205100D02*
X123305D01*
X117805Y212200D02*
X123305D01*
X110642D02*
X116142D01*
X110642Y205100D02*
X116142D01*
X117000D02*
Y212200D01*
X50642Y85600D02*
Y92700D01*
X63305Y85600D02*
Y92700D01*
X57805Y85600D02*
X63305D01*
X57805Y92700D02*
X63305D01*
X50642D02*
X56142D01*
X50642Y85600D02*
X56142D01*
X57000D02*
Y92700D01*
X50142Y205600D02*
Y212700D01*
X62805Y205600D02*
Y212700D01*
X57305Y205600D02*
X62805D01*
X57305Y212700D02*
X62805D01*
X50142D02*
X55642D01*
X50142Y205600D02*
X55642D01*
X56500D02*
Y212700D01*
X229658Y51600D02*
Y58700D01*
X216995Y51600D02*
Y58700D01*
X222495D01*
X216995Y51600D02*
X222495D01*
X224158D02*
X229658D01*
X224158Y58700D02*
X229658D01*
X223300Y51600D02*
Y58700D01*
X217200Y81700D02*
X224300D01*
X217200Y94363D02*
X224300D01*
Y88863D02*
Y94363D01*
X217200Y88863D02*
Y94363D01*
Y81700D02*
Y87200D01*
X224300Y81700D02*
Y87200D01*
X217200Y88058D02*
X224300D01*
X217700Y126200D02*
X224800D01*
X217700Y138863D02*
X224800D01*
Y133363D02*
Y138863D01*
X217700Y133363D02*
Y138863D01*
Y126200D02*
Y131700D01*
X224800Y126200D02*
Y131700D01*
X217700Y132558D02*
X224800D01*
X217800Y183700D02*
X224900D01*
X217800Y171037D02*
X224900D01*
X217800D02*
Y176537D01*
X224900Y171037D02*
Y176537D01*
Y178200D02*
Y183700D01*
X217800Y178200D02*
Y183700D01*
Y177342D02*
X224900D01*
X218342Y215342D02*
X225442D01*
X218342Y228005D02*
X225442D01*
Y222505D02*
Y228005D01*
X218342Y222505D02*
Y228005D01*
Y215342D02*
Y220842D01*
X225442Y215342D02*
Y220842D01*
X218342Y221700D02*
X225442D01*
X258158Y67100D02*
Y74200D01*
X245495Y67100D02*
Y74200D01*
X250995D01*
X245495Y67100D02*
X250995D01*
X252658D02*
X258158D01*
X252658Y74200D02*
X258158D01*
X251800Y67100D02*
Y74200D01*
X258158Y111600D02*
Y118700D01*
X245495Y111600D02*
Y118700D01*
X250995D01*
X245495Y111600D02*
X250995D01*
X252658D02*
X258158D01*
X252658Y118700D02*
X258158D01*
X251800Y111600D02*
Y118700D01*
X258658Y156600D02*
Y163700D01*
X245995Y156600D02*
Y163700D01*
X251495D01*
X245995Y156600D02*
X251495D01*
X253158D02*
X258658D01*
X253158Y163700D02*
X258658D01*
X252300Y156600D02*
Y163700D01*
X259016Y200100D02*
Y207200D01*
X246354Y200100D02*
Y207200D01*
X251853D01*
X246354Y200100D02*
X251853D01*
X253517D02*
X259016D01*
X253517Y207200D02*
X259016D01*
X252658Y200100D02*
Y207200D01*
X259158Y246100D02*
Y253200D01*
X246495Y246100D02*
Y253200D01*
X251995D01*
X246495Y246100D02*
X251995D01*
X253658D02*
X259158D01*
X253658Y253200D02*
X259158D01*
X252800Y246100D02*
Y253200D01*
X230158Y73600D02*
Y80700D01*
X217495Y73600D02*
Y80700D01*
X222995D01*
X217495Y73600D02*
X222995D01*
X224658D02*
X230158D01*
X224658Y80700D02*
X230158D01*
X223800Y73600D02*
Y80700D01*
X230300Y118100D02*
Y125200D01*
X217637Y118100D02*
Y125200D01*
X223137D01*
X217637Y118100D02*
X223137D01*
X224800D02*
X230300D01*
X224800Y125200D02*
X230300D01*
X223942Y118100D02*
Y125200D01*
X230658Y162600D02*
Y169700D01*
X217995Y162600D02*
Y169700D01*
X223495D01*
X217995Y162600D02*
X223495D01*
X225158D02*
X230658D01*
X225158Y169700D02*
X230658D01*
X224300Y162600D02*
Y169700D01*
X231158Y207100D02*
Y214200D01*
X218495Y207100D02*
Y214200D01*
X223995D01*
X218495Y207100D02*
X223995D01*
X225658D02*
X231158D01*
X225658Y214200D02*
X231158D01*
X224800Y207100D02*
Y214200D01*
X231517Y252100D02*
Y259200D01*
X218853Y252100D02*
Y259200D01*
X224354D01*
X218853Y252100D02*
X224354D01*
X226016D02*
X231517D01*
X226016Y259200D02*
X231517D01*
X225158Y252100D02*
Y259200D01*
X171000Y265100D02*
Y272200D01*
X183663Y265100D02*
Y272200D01*
X178163Y265100D02*
X183663D01*
X178163Y272200D02*
X183663D01*
X171000D02*
X176500D01*
X171000Y265100D02*
X176500D01*
X177358D02*
Y272200D01*
X110784Y145100D02*
Y152200D01*
X123447Y145100D02*
Y152200D01*
X117947Y145100D02*
X123447D01*
X117947Y152200D02*
X123447D01*
X110784D02*
X116284D01*
X110784Y145100D02*
X116284D01*
X117142D02*
Y152200D01*
X111000Y265600D02*
Y272700D01*
X123663Y265600D02*
Y272700D01*
X118163Y265600D02*
X123663D01*
X118163Y272700D02*
X123663D01*
X111000D02*
X116500D01*
X111000Y265600D02*
X116500D01*
X117358D02*
Y272700D01*
X50642Y145100D02*
Y152200D01*
X63305Y145100D02*
Y152200D01*
X57805Y145100D02*
X63305D01*
X57805Y152200D02*
X63305D01*
X50642D02*
X56142D01*
X50642Y145100D02*
X56142D01*
X57000D02*
Y152200D01*
X51000Y265600D02*
Y272700D01*
X63663Y265600D02*
Y272700D01*
X58163Y265600D02*
X63663D01*
X58163Y272700D02*
X63663D01*
X51000D02*
X56500D01*
X51000Y265600D02*
X56500D01*
X57358D02*
Y272700D01*
X216700Y59842D02*
X223800D01*
X216700Y72505D02*
X223800D01*
Y67005D02*
Y72505D01*
X216700Y67005D02*
Y72505D01*
Y59842D02*
Y65342D01*
X223800Y59842D02*
Y65342D01*
X216700Y66200D02*
X223800D01*
X217700Y104200D02*
X224800D01*
X217700Y116863D02*
X224800D01*
Y111363D02*
Y116863D01*
X217700Y111363D02*
Y116863D01*
Y104200D02*
Y109700D01*
X224800Y104200D02*
Y109700D01*
X217700Y110558D02*
X224800D01*
X217700Y148700D02*
X224800D01*
X217700Y161363D02*
X224800D01*
Y155863D02*
Y161363D01*
X217700Y155863D02*
Y161363D01*
Y148700D02*
Y154200D01*
X224800Y148700D02*
Y154200D01*
X217700Y155058D02*
X224800D01*
X218200Y193200D02*
X225300D01*
X218200Y205863D02*
X225300D01*
Y200363D02*
Y205863D01*
X218200Y200363D02*
Y205863D01*
Y193200D02*
Y198700D01*
X225300Y193200D02*
Y198700D01*
X218200Y199558D02*
X225300D01*
X218700Y237842D02*
X225800D01*
X218700Y250505D02*
X225800D01*
Y245005D02*
Y250505D01*
X218700Y245005D02*
Y250505D01*
Y237842D02*
Y243342D01*
X225800Y237842D02*
Y243342D01*
X218700Y244200D02*
X225800D01*
X258158Y44600D02*
Y51700D01*
X245495Y44600D02*
Y51700D01*
X250995D01*
X245495Y44600D02*
X250995D01*
X252658D02*
X258158D01*
X252658Y51700D02*
X258158D01*
X251800Y44600D02*
Y51700D01*
X136500Y115816D02*
X143600D01*
X136500Y103154D02*
X143600D01*
X136500D02*
Y108653D01*
X143600Y103154D02*
Y108653D01*
Y110317D02*
Y115816D01*
X136500Y110317D02*
Y115816D01*
X134882Y125179D02*
Y131576D01*
X145118Y125179D02*
Y131576D01*
X143346Y125179D02*
X145118D01*
X134882D02*
X136654D01*
X28499Y258499D02*
X27500D01*
X27999D01*
Y256000D01*
X27500Y255500D01*
X27000D01*
X26500Y256000D01*
X29499Y255500D02*
X30499D01*
X29999D01*
Y258499D01*
X29499Y257999D01*
X27899Y198899D02*
X26900D01*
X27400D01*
Y196400D01*
X26900Y195900D01*
X26400D01*
X25900Y196400D01*
X28899Y198399D02*
X29399Y198899D01*
X30399D01*
X30898Y198399D01*
Y197899D01*
X30399Y197399D01*
X29899D01*
X30399D01*
X30898Y196900D01*
Y196400D01*
X30399Y195900D01*
X29399D01*
X28899Y196400D01*
X27999Y139099D02*
X27000D01*
X27499D01*
Y136600D01*
X27000Y136100D01*
X26500D01*
X26000Y136600D01*
X30499Y136100D02*
Y139099D01*
X28999Y137600D01*
X30998D01*
X29799Y82099D02*
X28800D01*
X29300D01*
Y79600D01*
X28800Y79100D01*
X28300D01*
X27800Y79600D01*
X32798Y82099D02*
X30799D01*
Y80599D01*
X31799Y81099D01*
X32299D01*
X32798Y80599D01*
Y79600D01*
X32299Y79100D01*
X31299D01*
X30799Y79600D01*
X91299Y262499D02*
X90300D01*
X90799D01*
Y260000D01*
X90300Y259500D01*
X89800D01*
X89300Y260000D01*
X94298Y262499D02*
X93299Y261999D01*
X92299Y260999D01*
Y260000D01*
X92799Y259500D01*
X93799D01*
X94298Y260000D01*
Y260500D01*
X93799Y260999D01*
X92299D01*
X130199Y162299D02*
X129200D01*
X129700D01*
Y159800D01*
X129200Y159300D01*
X128700D01*
X128200Y159800D01*
X131199Y162299D02*
X133198D01*
Y161799D01*
X131199Y159800D01*
Y159300D01*
X89199Y139799D02*
X88200D01*
X88700D01*
Y137300D01*
X88200Y136800D01*
X87700D01*
X87200Y137300D01*
X90199Y139299D02*
X90699Y139799D01*
X91699D01*
X92198Y139299D01*
Y138799D01*
X91699Y138300D01*
X92198Y137800D01*
Y137300D01*
X91699Y136800D01*
X90699D01*
X90199Y137300D01*
Y137800D01*
X90699Y138300D01*
X90199Y138799D01*
Y139299D01*
X90699Y138300D02*
X91699D01*
X129799Y41499D02*
X128800D01*
X129299D01*
Y39000D01*
X128800Y38500D01*
X128300D01*
X127800Y39000D01*
X130799D02*
X131299Y38500D01*
X132299D01*
X132798Y39000D01*
Y40999D01*
X132299Y41499D01*
X131299D01*
X130799Y40999D01*
Y40499D01*
X131299Y39999D01*
X132798D01*
X186699Y260899D02*
X185700D01*
X186199D01*
Y258400D01*
X185700Y257900D01*
X185200D01*
X184700Y258400D01*
X187699Y257900D02*
X188699D01*
X188199D01*
Y260899D01*
X187699Y260399D01*
X190198D02*
X190698Y260899D01*
X191698D01*
X192198Y260399D01*
Y258400D01*
X191698Y257900D01*
X190698D01*
X190198Y258400D01*
Y260399D01*
X190999Y139199D02*
X190000D01*
X190499D01*
Y136700D01*
X190000Y136200D01*
X189500D01*
X189000Y136700D01*
X191999Y136200D02*
X192999D01*
X192499D01*
Y139199D01*
X191999Y138699D01*
X194498Y136200D02*
X195498D01*
X194998D01*
Y139199D01*
X194498Y138699D01*
X215101Y240999D02*
X214601Y240499D01*
Y239500D01*
X215101Y239000D01*
X217100D01*
X217600Y239500D01*
Y240499D01*
X217100Y240999D01*
X217600Y241999D02*
Y242999D01*
Y242499D01*
X214601D01*
X215101Y241999D01*
X217600Y244498D02*
X215601D01*
X214601Y245498D01*
X215601Y246498D01*
X217600D01*
X216101D01*
Y244498D01*
X214501Y197899D02*
X214001Y197399D01*
Y196400D01*
X214501Y195900D01*
X216500D01*
X217000Y196400D01*
Y197399D01*
X216500Y197899D01*
X217000Y198899D02*
Y199899D01*
Y199399D01*
X214001D01*
X214501Y198899D01*
X214001Y201398D02*
X217000D01*
Y202898D01*
X216500Y203398D01*
X216000D01*
X215500Y202898D01*
Y201398D01*
Y202898D01*
X215001Y203398D01*
X214501D01*
X214001Y202898D01*
Y201398D01*
X214201Y152899D02*
X213701Y152400D01*
Y151400D01*
X214201Y150900D01*
X216200D01*
X216700Y151400D01*
Y152400D01*
X216200Y152899D01*
X216700Y153899D02*
Y154899D01*
Y154399D01*
X213701D01*
X214201Y153899D01*
Y158398D02*
X213701Y157898D01*
Y156898D01*
X214201Y156398D01*
X216200D01*
X216700Y156898D01*
Y157898D01*
X216200Y158398D01*
X213701Y108299D02*
X213201Y107799D01*
Y106800D01*
X213701Y106300D01*
X215700D01*
X216200Y106800D01*
Y107799D01*
X215700Y108299D01*
X216200Y109299D02*
Y110299D01*
Y109799D01*
X213201D01*
X213701Y109299D01*
X213201Y111798D02*
X216200D01*
Y113298D01*
X215700Y113798D01*
X213701D01*
X213201Y113298D01*
Y111798D01*
X213101Y64099D02*
X212601Y63599D01*
Y62600D01*
X213101Y62100D01*
X215100D01*
X215600Y62600D01*
Y63599D01*
X215100Y64099D01*
X215600Y65099D02*
Y66099D01*
Y65599D01*
X212601D01*
X213101Y65099D01*
X212601Y69598D02*
Y67598D01*
X215600D01*
Y69598D01*
X214101Y67598D02*
Y68598D01*
X55299Y276399D02*
X54799Y276899D01*
X53800D01*
X53300Y276399D01*
Y274400D01*
X53800Y273900D01*
X54799D01*
X55299Y274400D01*
X58298Y273900D02*
X56299D01*
X58298Y275899D01*
Y276399D01*
X57799Y276899D01*
X56799D01*
X56299Y276399D01*
X59298Y273900D02*
Y275899D01*
X60298Y276899D01*
X61297Y275899D01*
Y273900D01*
Y275399D01*
X59298D01*
X66399Y149499D02*
X65899Y149999D01*
X64900D01*
X64400Y149499D01*
Y147500D01*
X64900Y147000D01*
X65899D01*
X66399Y147500D01*
X69398Y147000D02*
X67399D01*
X69398Y148999D01*
Y149499D01*
X68899Y149999D01*
X67899D01*
X67399Y149499D01*
X70398Y149999D02*
Y147000D01*
X71898D01*
X72397Y147500D01*
Y148000D01*
X71898Y148500D01*
X70398D01*
X71898D01*
X72397Y148999D01*
Y149499D01*
X71898Y149999D01*
X70398D01*
X114699Y276399D02*
X114199Y276899D01*
X113200D01*
X112700Y276399D01*
Y274400D01*
X113200Y273900D01*
X114199D01*
X114699Y274400D01*
X117698Y273900D02*
X115699D01*
X117698Y275899D01*
Y276399D01*
X117199Y276899D01*
X116199D01*
X115699Y276399D01*
X120697D02*
X120198Y276899D01*
X119198D01*
X118698Y276399D01*
Y274400D01*
X119198Y273900D01*
X120198D01*
X120697Y274400D01*
X126799Y149599D02*
X126300Y150099D01*
X125300D01*
X124800Y149599D01*
Y147600D01*
X125300Y147100D01*
X126300D01*
X126799Y147600D01*
X129798Y147100D02*
X127799D01*
X129798Y149099D01*
Y149599D01*
X129299Y150099D01*
X128299D01*
X127799Y149599D01*
X130798Y150099D02*
Y147100D01*
X132298D01*
X132797Y147600D01*
Y149599D01*
X132298Y150099D01*
X130798D01*
X174899Y275999D02*
X174399Y276499D01*
X173400D01*
X172900Y275999D01*
Y274000D01*
X173400Y273500D01*
X174399D01*
X174899Y274000D01*
X177898Y273500D02*
X175899D01*
X177898Y275499D01*
Y275999D01*
X177399Y276499D01*
X176399D01*
X175899Y275999D01*
X180897Y276499D02*
X178898D01*
Y273500D01*
X180897D01*
X178898Y274999D02*
X179898D01*
X222699Y262799D02*
X222200Y263299D01*
X221200D01*
X220700Y262799D01*
Y260800D01*
X221200Y260300D01*
X222200D01*
X222699Y260800D01*
X223699Y262799D02*
X224199Y263299D01*
X225199D01*
X225698Y262799D01*
Y262299D01*
X225199Y261800D01*
X224699D01*
X225199D01*
X225698Y261300D01*
Y260800D01*
X225199Y260300D01*
X224199D01*
X223699Y260800D01*
X226698Y260300D02*
Y262299D01*
X227698Y263299D01*
X228697Y262299D01*
Y260300D01*
Y261800D01*
X226698D01*
X211099Y211599D02*
X210599Y212099D01*
X209600D01*
X209100Y211599D01*
Y209600D01*
X209600Y209100D01*
X210599D01*
X211099Y209600D01*
X212099Y211599D02*
X212599Y212099D01*
X213598D01*
X214098Y211599D01*
Y211099D01*
X213598Y210599D01*
X213099D01*
X213598D01*
X214098Y210100D01*
Y209600D01*
X213598Y209100D01*
X212599D01*
X212099Y209600D01*
X215098Y212099D02*
Y209100D01*
X216598D01*
X217097Y209600D01*
Y210100D01*
X216598Y210599D01*
X215098D01*
X216598D01*
X217097Y211099D01*
Y211599D01*
X216598Y212099D01*
X215098D01*
X210699Y167099D02*
X210199Y167599D01*
X209200D01*
X208700Y167099D01*
Y165100D01*
X209200Y164600D01*
X210199D01*
X210699Y165100D01*
X211699Y167099D02*
X212199Y167599D01*
X213198D01*
X213698Y167099D01*
Y166599D01*
X213198Y166100D01*
X212699D01*
X213198D01*
X213698Y165600D01*
Y165100D01*
X213198Y164600D01*
X212199D01*
X211699Y165100D01*
X216697Y167099D02*
X216198Y167599D01*
X215198D01*
X214698Y167099D01*
Y165100D01*
X215198Y164600D01*
X216198D01*
X216697Y165100D01*
X210499Y123099D02*
X209999Y123599D01*
X209000D01*
X208500Y123099D01*
Y121100D01*
X209000Y120600D01*
X209999D01*
X210499Y121100D01*
X211499Y123099D02*
X211999Y123599D01*
X212999D01*
X213498Y123099D01*
Y122599D01*
X212999Y122099D01*
X212499D01*
X212999D01*
X213498Y121600D01*
Y121100D01*
X212999Y120600D01*
X211999D01*
X211499Y121100D01*
X214498Y123599D02*
Y120600D01*
X215998D01*
X216497Y121100D01*
Y123099D01*
X215998Y123599D01*
X214498D01*
X210499Y78099D02*
X209999Y78599D01*
X209000D01*
X208500Y78099D01*
Y76100D01*
X209000Y75600D01*
X209999D01*
X210499Y76100D01*
X211499Y78099D02*
X211999Y78599D01*
X212999D01*
X213498Y78099D01*
Y77599D01*
X212999Y77100D01*
X212499D01*
X212999D01*
X213498Y76600D01*
Y76100D01*
X212999Y75600D01*
X211999D01*
X211499Y76100D01*
X216497Y78599D02*
X214498D01*
Y75600D01*
X216497D01*
X214498Y77100D02*
X215498D01*
X262499Y250699D02*
X262000Y251199D01*
X261000D01*
X260500Y250699D01*
Y248700D01*
X261000Y248200D01*
X262000D01*
X262499Y248700D01*
X264999Y248200D02*
Y251199D01*
X263499Y249699D01*
X265498D01*
X266498Y248200D02*
Y250199D01*
X267498Y251199D01*
X268497Y250199D01*
Y248200D01*
Y249699D01*
X266498D01*
X262199Y204899D02*
X261700Y205399D01*
X260700D01*
X260200Y204899D01*
Y202900D01*
X260700Y202400D01*
X261700D01*
X262199Y202900D01*
X264699Y202400D02*
Y205399D01*
X263199Y203900D01*
X265198D01*
X266198Y205399D02*
Y202400D01*
X267698D01*
X268197Y202900D01*
Y203400D01*
X267698Y203900D01*
X266198D01*
X267698D01*
X268197Y204399D01*
Y204899D01*
X267698Y205399D01*
X266198D01*
X261999Y160899D02*
X261500Y161399D01*
X260500D01*
X260000Y160899D01*
Y158900D01*
X260500Y158400D01*
X261500D01*
X261999Y158900D01*
X264498Y158400D02*
Y161399D01*
X262999Y159899D01*
X264998D01*
X267997Y160899D02*
X267498Y161399D01*
X266498D01*
X265998Y160899D01*
Y158900D01*
X266498Y158400D01*
X267498D01*
X267997Y158900D01*
X261699Y115899D02*
X261199Y116399D01*
X260200D01*
X259700Y115899D01*
Y113900D01*
X260200Y113400D01*
X261199D01*
X261699Y113900D01*
X264198Y113400D02*
Y116399D01*
X262699Y114900D01*
X264698D01*
X265698Y116399D02*
Y113400D01*
X267198D01*
X267697Y113900D01*
Y115899D01*
X267198Y116399D01*
X265698D01*
X261399Y71699D02*
X260899Y72199D01*
X259900D01*
X259400Y71699D01*
Y69700D01*
X259900Y69200D01*
X260899D01*
X261399Y69700D01*
X263898Y69200D02*
Y72199D01*
X262399Y70700D01*
X264398D01*
X267397Y72199D02*
X265398D01*
Y69200D01*
X267397D01*
X265398Y70700D02*
X266398D01*
X214401Y219199D02*
X213901Y218700D01*
Y217700D01*
X214401Y217200D01*
X216400D01*
X216900Y217700D01*
Y218700D01*
X216400Y219199D01*
X213901Y222198D02*
Y220199D01*
X215401D01*
X214901Y221199D01*
Y221698D01*
X215401Y222198D01*
X216400D01*
X216900Y221698D01*
Y220699D01*
X216400Y220199D01*
X216900Y223198D02*
X214901D01*
X213901Y224198D01*
X214901Y225197D01*
X216900D01*
X215401D01*
Y223198D01*
X214001Y174999D02*
X213501Y174499D01*
Y173500D01*
X214001Y173000D01*
X216000D01*
X216500Y173500D01*
Y174499D01*
X216000Y174999D01*
X213501Y177998D02*
Y175999D01*
X215001D01*
X214501Y176999D01*
Y177499D01*
X215001Y177998D01*
X216000D01*
X216500Y177499D01*
Y176499D01*
X216000Y175999D01*
X213501Y178998D02*
X216500D01*
Y180498D01*
X216000Y180997D01*
X215500D01*
X215001Y180498D01*
Y178998D01*
Y180498D01*
X214501Y180997D01*
X214001D01*
X213501Y180498D01*
Y178998D01*
X214101Y130199D02*
X213601Y129700D01*
Y128700D01*
X214101Y128200D01*
X216100D01*
X216600Y128700D01*
Y129700D01*
X216100Y130199D01*
X213601Y133198D02*
Y131199D01*
X215101D01*
X214601Y132199D01*
Y132699D01*
X215101Y133198D01*
X216100D01*
X216600Y132699D01*
Y131699D01*
X216100Y131199D01*
X214101Y136197D02*
X213601Y135698D01*
Y134698D01*
X214101Y134198D01*
X216100D01*
X216600Y134698D01*
Y135698D01*
X216100Y136197D01*
X213501Y85599D02*
X213001Y85100D01*
Y84100D01*
X213501Y83600D01*
X215500D01*
X216000Y84100D01*
Y85100D01*
X215500Y85599D01*
X213001Y88598D02*
Y86599D01*
X214500D01*
X214001Y87599D01*
Y88099D01*
X214500Y88598D01*
X215500D01*
X216000Y88099D01*
Y87099D01*
X215500Y86599D01*
X213001Y89598D02*
X216000D01*
Y91098D01*
X215500Y91597D01*
X213501D01*
X213001Y91098D01*
Y89598D01*
X209499Y55999D02*
X208999Y56499D01*
X208000D01*
X207500Y55999D01*
Y54000D01*
X208000Y53500D01*
X208999D01*
X209499Y54000D01*
X212498Y56499D02*
X210499D01*
Y55000D01*
X211499Y55499D01*
X211999D01*
X212498Y55000D01*
Y54000D01*
X211999Y53500D01*
X210999D01*
X210499Y54000D01*
X215497Y56499D02*
X213498D01*
Y53500D01*
X215497D01*
X213498Y55000D02*
X214498D01*
X174799Y156099D02*
X174300Y156599D01*
X173300D01*
X172800Y156099D01*
Y154100D01*
X173300Y153600D01*
X174300D01*
X174799Y154100D01*
X177798Y156599D02*
X176799Y156099D01*
X175799Y155099D01*
Y154100D01*
X176299Y153600D01*
X177299D01*
X177798Y154100D01*
Y154600D01*
X177299Y155099D01*
X175799D01*
X180797Y156599D02*
X178798D01*
Y153600D01*
X180797D01*
X178798Y155099D02*
X179798D01*
X211099Y234099D02*
X210599Y234599D01*
X209600D01*
X209100Y234099D01*
Y232100D01*
X209600Y231600D01*
X210599D01*
X211099Y232100D01*
X212099Y234599D02*
X214098D01*
Y234099D01*
X212099Y232100D01*
Y231600D01*
X215098D02*
Y233599D01*
X216098Y234599D01*
X217097Y233599D01*
Y231600D01*
Y233100D01*
X215098D01*
X210799Y189299D02*
X210299Y189799D01*
X209300D01*
X208800Y189299D01*
Y187300D01*
X209300Y186800D01*
X210299D01*
X210799Y187300D01*
X211799Y189799D02*
X213798D01*
Y189299D01*
X211799Y187300D01*
Y186800D01*
X214798Y189799D02*
Y186800D01*
X216298D01*
X216797Y187300D01*
Y187800D01*
X216298Y188300D01*
X214798D01*
X216298D01*
X216797Y188799D01*
Y189299D01*
X216298Y189799D01*
X214798D01*
X210699Y144799D02*
X210199Y145299D01*
X209200D01*
X208700Y144799D01*
Y142800D01*
X209200Y142300D01*
X210199D01*
X210699Y142800D01*
X211699Y145299D02*
X213698D01*
Y144799D01*
X211699Y142800D01*
Y142300D01*
X216697Y144799D02*
X216198Y145299D01*
X215198D01*
X214698Y144799D01*
Y142800D01*
X215198Y142300D01*
X216198D01*
X216697Y142800D01*
X210299Y100699D02*
X209800Y101199D01*
X208800D01*
X208300Y100699D01*
Y98700D01*
X208800Y98200D01*
X209800D01*
X210299Y98700D01*
X211299Y101199D02*
X213298D01*
Y100699D01*
X211299Y98700D01*
Y98200D01*
X214298Y101199D02*
Y98200D01*
X215798D01*
X216297Y98700D01*
Y100699D01*
X215798Y101199D01*
X214298D01*
X212401Y42199D02*
X211901Y41699D01*
Y40700D01*
X212401Y40200D01*
X214400D01*
X214900Y40700D01*
Y41699D01*
X214400Y42199D01*
X211901Y43199D02*
Y45198D01*
X212401D01*
X214400Y43199D01*
X214900D01*
X211901Y48197D02*
Y46198D01*
X214900D01*
Y48197D01*
X213401Y46198D02*
Y47198D01*
X262199Y226999D02*
X261700Y227499D01*
X260700D01*
X260200Y226999D01*
Y225000D01*
X260700Y224500D01*
X261700D01*
X262199Y225000D01*
X263199Y226999D02*
X263699Y227499D01*
X264699D01*
X265198Y226999D01*
Y226499D01*
X264699Y225999D01*
X265198Y225500D01*
Y225000D01*
X264699Y224500D01*
X263699D01*
X263199Y225000D01*
Y225500D01*
X263699Y225999D01*
X263199Y226499D01*
Y226999D01*
X263699Y225999D02*
X264699D01*
X266198Y224500D02*
Y226499D01*
X267198Y227499D01*
X268197Y226499D01*
Y224500D01*
Y225999D01*
X266198D01*
X261899Y181699D02*
X261400Y182199D01*
X260400D01*
X259900Y181699D01*
Y179700D01*
X260400Y179200D01*
X261400D01*
X261899Y179700D01*
X262899Y181699D02*
X263399Y182199D01*
X264399D01*
X264898Y181699D01*
Y181199D01*
X264399Y180700D01*
X264898Y180200D01*
Y179700D01*
X264399Y179200D01*
X263399D01*
X262899Y179700D01*
Y180200D01*
X263399Y180700D01*
X262899Y181199D01*
Y181699D01*
X263399Y180700D02*
X264399D01*
X265898Y182199D02*
Y179200D01*
X267398D01*
X267897Y179700D01*
Y180200D01*
X267398Y180700D01*
X265898D01*
X267398D01*
X267897Y181199D01*
Y181699D01*
X267398Y182199D01*
X265898D01*
X261399Y137799D02*
X260899Y138299D01*
X259900D01*
X259400Y137799D01*
Y135800D01*
X259900Y135300D01*
X260899D01*
X261399Y135800D01*
X262399Y137799D02*
X262899Y138299D01*
X263898D01*
X264398Y137799D01*
Y137299D01*
X263898Y136800D01*
X264398Y136300D01*
Y135800D01*
X263898Y135300D01*
X262899D01*
X262399Y135800D01*
Y136300D01*
X262899Y136800D01*
X262399Y137299D01*
Y137799D01*
X262899Y136800D02*
X263898D01*
X267397Y137799D02*
X266898Y138299D01*
X265898D01*
X265398Y137799D01*
Y135800D01*
X265898Y135300D01*
X266898D01*
X267397Y135800D01*
X261199Y92699D02*
X260700Y93199D01*
X259700D01*
X259200Y92699D01*
Y90700D01*
X259700Y90200D01*
X260700D01*
X261199Y90700D01*
X262199Y92699D02*
X262699Y93199D01*
X263699D01*
X264198Y92699D01*
Y92199D01*
X263699Y91699D01*
X264198Y91200D01*
Y90700D01*
X263699Y90200D01*
X262699D01*
X262199Y90700D01*
Y91200D01*
X262699Y91699D01*
X262199Y92199D01*
Y92699D01*
X262699Y91699D02*
X263699D01*
X265198Y93199D02*
Y90200D01*
X266698D01*
X267197Y90700D01*
Y92699D01*
X266698Y93199D01*
X265198D01*
X261699Y48599D02*
X261199Y49099D01*
X260200D01*
X259700Y48599D01*
Y46600D01*
X260200Y46100D01*
X261199D01*
X261699Y46600D01*
X262699Y48599D02*
X263199Y49099D01*
X264198D01*
X264698Y48599D01*
Y48099D01*
X264198Y47600D01*
X264698Y47100D01*
Y46600D01*
X264198Y46100D01*
X263199D01*
X262699Y46600D01*
Y47100D01*
X263199Y47600D01*
X262699Y48099D01*
Y48599D01*
X263199Y47600D02*
X264198D01*
X267697Y49099D02*
X265698D01*
Y46100D01*
X267697D01*
X265698Y47600D02*
X266698D01*
X5601Y247200D02*
X8600D01*
Y248699D01*
X8100Y249199D01*
X6101D01*
X5601Y248699D01*
Y247200D01*
X8600Y250199D02*
Y251199D01*
Y250699D01*
X5601D01*
X6101Y250199D01*
X8600Y252698D02*
X6601D01*
X5601Y253698D01*
X6601Y254698D01*
X8600D01*
X7101D01*
Y252698D01*
X5201Y127300D02*
X8200D01*
Y128799D01*
X7700Y129299D01*
X5701D01*
X5201Y128799D01*
Y127300D01*
X8200Y130299D02*
Y131299D01*
Y130799D01*
X5201D01*
X5701Y130299D01*
X5201Y132798D02*
X8200D01*
Y134298D01*
X7700Y134798D01*
X7200D01*
X6701Y134298D01*
Y132798D01*
Y134298D01*
X6201Y134798D01*
X5701D01*
X5201Y134298D01*
Y132798D01*
X76200Y260799D02*
Y257800D01*
X77700D01*
X78199Y258300D01*
Y260299D01*
X77700Y260799D01*
X76200D01*
X79199Y257800D02*
X80199D01*
X79699D01*
Y260799D01*
X79199Y260299D01*
X83698D02*
X83198Y260799D01*
X82198D01*
X81698Y260299D01*
Y258300D01*
X82198Y257800D01*
X83198D01*
X83698Y258300D01*
X76000Y140999D02*
Y138000D01*
X77500D01*
X77999Y138500D01*
Y140499D01*
X77500Y140999D01*
X76000D01*
X78999Y138000D02*
X79999D01*
X79499D01*
Y140999D01*
X78999Y140499D01*
X81498Y140999D02*
Y138000D01*
X82998D01*
X83498Y138500D01*
Y140499D01*
X82998Y140999D01*
X81498D01*
X136100Y242399D02*
Y239400D01*
X137600D01*
X138099Y239900D01*
Y241899D01*
X137600Y242399D01*
X136100D01*
X139099Y239400D02*
X140099D01*
X139599D01*
Y242399D01*
X139099Y241899D01*
X143598Y242399D02*
X141598D01*
Y239400D01*
X143598D01*
X141598Y240899D02*
X142598D01*
X6101Y187600D02*
X9100D01*
Y189100D01*
X8600Y189599D01*
X6601D01*
X6101Y189100D01*
Y187600D01*
X9100Y192598D02*
Y190599D01*
X7101Y192598D01*
X6601D01*
X6101Y192099D01*
Y191099D01*
X6601Y190599D01*
X9100Y193598D02*
X7101D01*
X6101Y194598D01*
X7101Y195597D01*
X9100D01*
X7600D01*
Y193598D01*
X10400Y83099D02*
Y80100D01*
X11900D01*
X12399Y80600D01*
Y82599D01*
X11900Y83099D01*
X10400D01*
X15398Y80100D02*
X13399D01*
X15398Y82099D01*
Y82599D01*
X14899Y83099D01*
X13899D01*
X13399Y82599D01*
X16398Y83099D02*
Y80100D01*
X17898D01*
X18397Y80600D01*
Y81100D01*
X17898Y81599D01*
X16398D01*
X17898D01*
X18397Y82099D01*
Y82599D01*
X17898Y83099D01*
X16398D01*
X76000Y181999D02*
Y179000D01*
X77500D01*
X77999Y179500D01*
Y181499D01*
X77500Y181999D01*
X76000D01*
X80998Y179000D02*
X78999D01*
X80998Y180999D01*
Y181499D01*
X80499Y181999D01*
X79499D01*
X78999Y181499D01*
X83997D02*
X83498Y181999D01*
X82498D01*
X81998Y181499D01*
Y179500D01*
X82498Y179000D01*
X83498D01*
X83997Y179500D01*
X75900Y62199D02*
Y59200D01*
X77399D01*
X77899Y59700D01*
Y61699D01*
X77399Y62199D01*
X75900D01*
X80898Y59200D02*
X78899D01*
X80898Y61199D01*
Y61699D01*
X80399Y62199D01*
X79399D01*
X78899Y61699D01*
X81898Y62199D02*
Y59200D01*
X83398D01*
X83897Y59700D01*
Y61699D01*
X83398Y62199D01*
X81898D01*
X135800Y121999D02*
Y119000D01*
X137300D01*
X137799Y119500D01*
Y121499D01*
X137300Y121999D01*
X135800D01*
X140798Y119000D02*
X138799D01*
X140798Y120999D01*
Y121499D01*
X140299Y121999D01*
X139299D01*
X138799Y121499D01*
X143797Y121999D02*
X141798D01*
Y119000D01*
X143797D01*
X141798Y120500D02*
X142798D01*
X187899Y39899D02*
X186900D01*
X187399D01*
Y37400D01*
X186900Y36900D01*
X186400D01*
X185900Y37400D01*
X188899Y36900D02*
X189899D01*
X189399D01*
Y39899D01*
X188899Y39399D01*
X193398Y36900D02*
X191398D01*
X193398Y38899D01*
Y39399D01*
X192898Y39899D01*
X191898D01*
X191398Y39399D01*
X260700Y240200D02*
Y243199D01*
X262199D01*
X262699Y242699D01*
Y241700D01*
X262199Y241200D01*
X260700D01*
X261700D02*
X262699Y240200D01*
X263699D02*
X264699D01*
X264199D01*
Y243199D01*
X263699Y242699D01*
X266198Y240200D02*
Y242199D01*
X267198Y243199D01*
X268198Y242199D01*
Y240200D01*
Y241700D01*
X266198D01*
X260500Y194000D02*
Y196999D01*
X262000D01*
X262499Y196499D01*
Y195500D01*
X262000Y195000D01*
X260500D01*
X261500D02*
X262499Y194000D01*
X263499D02*
X264499D01*
X263999D01*
Y196999D01*
X263499Y196499D01*
X265998Y196999D02*
Y194000D01*
X267498D01*
X267998Y194500D01*
Y195000D01*
X267498Y195500D01*
X265998D01*
X267498D01*
X267998Y195999D01*
Y196499D01*
X267498Y196999D01*
X265998D01*
X260200Y150800D02*
Y153799D01*
X261700D01*
X262199Y153299D01*
Y152299D01*
X261700Y151800D01*
X260200D01*
X261200D02*
X262199Y150800D01*
X263199D02*
X264199D01*
X263699D01*
Y153799D01*
X263199Y153299D01*
X267698D02*
X267198Y153799D01*
X266198D01*
X265698Y153299D01*
Y151300D01*
X266198Y150800D01*
X267198D01*
X267698Y151300D01*
X259400Y105200D02*
Y108199D01*
X260899D01*
X261399Y107699D01*
Y106700D01*
X260899Y106200D01*
X259400D01*
X260400D02*
X261399Y105200D01*
X262399D02*
X263399D01*
X262899D01*
Y108199D01*
X262399Y107699D01*
X264898Y108199D02*
Y105200D01*
X266398D01*
X266898Y105700D01*
Y107699D01*
X266398Y108199D01*
X264898D01*
X259800Y61000D02*
Y63999D01*
X261299D01*
X261799Y63499D01*
Y62499D01*
X261299Y62000D01*
X259800D01*
X260800D02*
X261799Y61000D01*
X262799D02*
X263799D01*
X263299D01*
Y63999D01*
X262799Y63499D01*
X267298Y63999D02*
X265298D01*
Y61000D01*
X267298D01*
X265298Y62499D02*
X266298D01*
X39100Y273600D02*
Y276599D01*
X40600D01*
X41099Y276099D01*
Y275099D01*
X40600Y274600D01*
X39100D01*
X40100D02*
X41099Y273600D01*
X44098D02*
X42099D01*
X44098Y275599D01*
Y276099D01*
X43599Y276599D01*
X42599D01*
X42099Y276099D01*
X45098Y273600D02*
Y275599D01*
X46098Y276599D01*
X47097Y275599D01*
Y273600D01*
Y275099D01*
X45098D01*
X27700Y147200D02*
Y150199D01*
X29199D01*
X29699Y149699D01*
Y148699D01*
X29199Y148200D01*
X27700D01*
X28700D02*
X29699Y147200D01*
X32698D02*
X30699D01*
X32698Y149199D01*
Y149699D01*
X32199Y150199D01*
X31199D01*
X30699Y149699D01*
X33698Y150199D02*
Y147200D01*
X35198D01*
X35697Y147700D01*
Y148200D01*
X35198Y148699D01*
X33698D01*
X35198D01*
X35697Y149199D01*
Y149699D01*
X35198Y150199D01*
X33698D01*
X99000Y273900D02*
Y276899D01*
X100499D01*
X100999Y276399D01*
Y275399D01*
X100499Y274900D01*
X99000D01*
X100000D02*
X100999Y273900D01*
X103998D02*
X101999D01*
X103998Y275899D01*
Y276399D01*
X103499Y276899D01*
X102499D01*
X101999Y276399D01*
X106997D02*
X106498Y276899D01*
X105498D01*
X104998Y276399D01*
Y274400D01*
X105498Y273900D01*
X106498D01*
X106997Y274400D01*
X87400Y146800D02*
Y149799D01*
X88899D01*
X89399Y149299D01*
Y148300D01*
X88899Y147800D01*
X87400D01*
X88400D02*
X89399Y146800D01*
X92398D02*
X90399D01*
X92398Y148799D01*
Y149299D01*
X91899Y149799D01*
X90899D01*
X90399Y149299D01*
X93398Y149799D02*
Y146800D01*
X94898D01*
X95397Y147300D01*
Y149299D01*
X94898Y149799D01*
X93398D01*
X158300Y272700D02*
Y275699D01*
X159800D01*
X160299Y275199D01*
Y274200D01*
X159800Y273700D01*
X158300D01*
X159300D02*
X160299Y272700D01*
X163298D02*
X161299D01*
X163298Y274699D01*
Y275199D01*
X162799Y275699D01*
X161799D01*
X161299Y275199D01*
X166297Y275699D02*
X164298D01*
Y272700D01*
X166297D01*
X164298Y274200D02*
X165298D01*
X11000Y222742D02*
X8001D01*
Y224241D01*
X8501Y224741D01*
X9500D01*
X10000Y224241D01*
Y222742D01*
Y223741D02*
X11000Y224741D01*
X8501Y225741D02*
X8001Y226241D01*
Y227240D01*
X8501Y227740D01*
X9001D01*
X9500Y227240D01*
Y226741D01*
Y227240D01*
X10000Y227740D01*
X10500D01*
X11000Y227240D01*
Y226241D01*
X10500Y225741D01*
X11000Y228740D02*
X9001D01*
X8001Y229739D01*
X9001Y230739D01*
X11000D01*
X9500D01*
Y228740D01*
X11100Y105300D02*
X8101D01*
Y106799D01*
X8601Y107299D01*
X9601D01*
X10100Y106799D01*
Y105300D01*
Y106300D02*
X11100Y107299D01*
X8601Y108299D02*
X8101Y108799D01*
Y109799D01*
X8601Y110298D01*
X9101D01*
X9601Y109799D01*
Y109299D01*
Y109799D01*
X10100Y110298D01*
X10600D01*
X11100Y109799D01*
Y108799D01*
X10600Y108299D01*
X8101Y111298D02*
X11100D01*
Y112798D01*
X10600Y113297D01*
X10100D01*
X9601Y112798D01*
Y111298D01*
Y112798D01*
X9101Y113297D01*
X8601D01*
X8101Y112798D01*
Y111298D01*
X76100Y116800D02*
Y119799D01*
X77600D01*
X78099Y119299D01*
Y118299D01*
X77600Y117800D01*
X76100D01*
X77100D02*
X78099Y116800D01*
X79099Y119299D02*
X79599Y119799D01*
X80599D01*
X81098Y119299D01*
Y118799D01*
X80599Y118299D01*
X80099D01*
X80599D01*
X81098Y117800D01*
Y117300D01*
X80599Y116800D01*
X79599D01*
X79099Y117300D01*
X82098Y119799D02*
Y116800D01*
X83598D01*
X84097Y117300D01*
Y119299D01*
X83598Y119799D01*
X82098D01*
X260500Y216400D02*
Y219399D01*
X262000D01*
X262499Y218899D01*
Y217899D01*
X262000Y217400D01*
X260500D01*
X261500D02*
X262499Y216400D01*
X264999D02*
Y219399D01*
X263499Y217899D01*
X265498D01*
X266498Y216400D02*
Y218399D01*
X267498Y219399D01*
X268497Y218399D01*
Y216400D01*
Y217899D01*
X266498D01*
X260000Y171700D02*
Y174699D01*
X261500D01*
X261999Y174199D01*
Y173199D01*
X261500Y172700D01*
X260000D01*
X261000D02*
X261999Y171700D01*
X264498D02*
Y174699D01*
X262999Y173199D01*
X264998D01*
X265998Y174699D02*
Y171700D01*
X267498D01*
X267997Y172200D01*
Y172700D01*
X267498Y173199D01*
X265998D01*
X267498D01*
X267997Y173699D01*
Y174199D01*
X267498Y174699D01*
X265998D01*
X259700Y127400D02*
Y130399D01*
X261199D01*
X261699Y129899D01*
Y128900D01*
X261199Y128400D01*
X259700D01*
X260700D02*
X261699Y127400D01*
X264198D02*
Y130399D01*
X262699Y128900D01*
X264698D01*
X267697Y129899D02*
X267198Y130399D01*
X266198D01*
X265698Y129899D01*
Y127900D01*
X266198Y127400D01*
X267198D01*
X267697Y127900D01*
X259700Y82500D02*
Y85499D01*
X261199D01*
X261699Y84999D01*
Y84000D01*
X261199Y83500D01*
X259700D01*
X260700D02*
X261699Y82500D01*
X264198D02*
Y85499D01*
X262699Y84000D01*
X264698D01*
X265698Y85499D02*
Y82500D01*
X267198D01*
X267697Y83000D01*
Y84999D01*
X267198Y85499D01*
X265698D01*
X259700Y38200D02*
Y41199D01*
X261199D01*
X261699Y40699D01*
Y39700D01*
X261199Y39200D01*
X259700D01*
X260700D02*
X261699Y38200D01*
X264198D02*
Y41199D01*
X262699Y39700D01*
X264698D01*
X267697Y41199D02*
X265698D01*
Y38200D01*
X267697D01*
X265698Y39700D02*
X266698D01*
X26900Y207500D02*
Y210499D01*
X28400D01*
X28899Y209999D01*
Y208999D01*
X28400Y208500D01*
X26900D01*
X27900D02*
X28899Y207500D01*
X31898Y210499D02*
X29899D01*
Y208999D01*
X30899Y209499D01*
X31399D01*
X31898Y208999D01*
Y208000D01*
X31399Y207500D01*
X30399D01*
X29899Y208000D01*
X32898Y207500D02*
Y209499D01*
X33898Y210499D01*
X34897Y209499D01*
Y207500D01*
Y208999D01*
X32898D01*
X27300Y87400D02*
Y90399D01*
X28800D01*
X29299Y89899D01*
Y88899D01*
X28800Y88400D01*
X27300D01*
X28300D02*
X29299Y87400D01*
X32298Y90399D02*
X30299D01*
Y88899D01*
X31299Y89399D01*
X31799D01*
X32298Y88899D01*
Y87900D01*
X31799Y87400D01*
X30799D01*
X30299Y87900D01*
X33298Y90399D02*
Y87400D01*
X34798D01*
X35297Y87900D01*
Y88400D01*
X34798Y88899D01*
X33298D01*
X34798D01*
X35297Y89399D01*
Y89899D01*
X34798Y90399D01*
X33298D01*
X158300Y153100D02*
Y156099D01*
X159800D01*
X160299Y155599D01*
Y154599D01*
X159800Y154100D01*
X158300D01*
X159300D02*
X160299Y153100D01*
X163298Y156099D02*
X161299D01*
Y154599D01*
X162299Y155099D01*
X162799D01*
X163298Y154599D01*
Y153600D01*
X162799Y153100D01*
X161799D01*
X161299Y153600D01*
X166297Y156099D02*
X164298D01*
Y153100D01*
X166297D01*
X164298Y154599D02*
X165298D01*
X10800Y165200D02*
X7801D01*
Y166700D01*
X8301Y167199D01*
X9301D01*
X9800Y166700D01*
Y165200D01*
Y166200D02*
X10800Y167199D01*
X7801Y170198D02*
X8301Y169199D01*
X9301Y168199D01*
X10300D01*
X10800Y168699D01*
Y169699D01*
X10300Y170198D01*
X9800D01*
X9301Y169699D01*
Y168199D01*
X10800Y171198D02*
X8801D01*
X7801Y172198D01*
X8801Y173197D01*
X10800D01*
X9301D01*
Y171198D01*
X12900Y58558D02*
Y61557D01*
X14400D01*
X14899Y61057D01*
Y60058D01*
X14400Y59558D01*
X12900D01*
X13900D02*
X14899Y58558D01*
X17898Y61557D02*
X16899Y61057D01*
X15899Y60058D01*
Y59058D01*
X16399Y58558D01*
X17399D01*
X17898Y59058D01*
Y59558D01*
X17399Y60058D01*
X15899D01*
X18898Y61557D02*
Y58558D01*
X20398D01*
X20897Y59058D01*
Y59558D01*
X20398Y60058D01*
X18898D01*
X20398D01*
X20897Y60558D01*
Y61057D01*
X20398Y61557D01*
X18898D01*
X76600Y159400D02*
Y162399D01*
X78100D01*
X78599Y161899D01*
Y160899D01*
X78100Y160400D01*
X76600D01*
X77600D02*
X78599Y159400D01*
X81598Y162399D02*
X80599Y161899D01*
X79599Y160899D01*
Y159900D01*
X80099Y159400D01*
X81099D01*
X81598Y159900D01*
Y160400D01*
X81099Y160899D01*
X79599D01*
X84597Y161899D02*
X84098Y162399D01*
X83098D01*
X82598Y161899D01*
Y159900D01*
X83098Y159400D01*
X84098D01*
X84597Y159900D01*
X76100Y39000D02*
Y41999D01*
X77600D01*
X78099Y41499D01*
Y40499D01*
X77600Y40000D01*
X76100D01*
X77100D02*
X78099Y39000D01*
X81098Y41999D02*
X80099Y41499D01*
X79099Y40499D01*
Y39500D01*
X79599Y39000D01*
X80599D01*
X81098Y39500D01*
Y40000D01*
X80599Y40499D01*
X79099D01*
X82098Y41999D02*
Y39000D01*
X83598D01*
X84097Y39500D01*
Y41499D01*
X83598Y41999D01*
X82098D01*
X137500Y197999D02*
Y195500D01*
X138000Y195000D01*
X138999D01*
X139499Y195500D01*
Y197999D01*
X140499Y195000D02*
X141499D01*
X140999D01*
Y197999D01*
X140499Y197499D01*
X144998D02*
X144498Y197999D01*
X143498D01*
X142998Y197499D01*
Y195500D01*
X143498Y195000D01*
X144498D01*
X144998Y195500D01*
X165500Y188399D02*
Y185900D01*
X166000Y185400D01*
X166999D01*
X167499Y185900D01*
Y188399D01*
X168499Y185400D02*
X169499D01*
X168999D01*
Y188399D01*
X168499Y187899D01*
X172998Y188399D02*
X170998D01*
Y185400D01*
X172998D01*
X170998Y186899D02*
X171998D01*
X234000Y255099D02*
Y252600D01*
X234500Y252100D01*
X235500D01*
X235999Y252600D01*
Y255099D01*
X238998Y252100D02*
X236999D01*
X238998Y254099D01*
Y254599D01*
X238498Y255099D01*
X237499D01*
X236999Y254599D01*
X239998Y252100D02*
Y254099D01*
X240998Y255099D01*
X241997Y254099D01*
Y252100D01*
Y253600D01*
X239998D01*
X233400Y211899D02*
Y209400D01*
X233900Y208900D01*
X234899D01*
X235399Y209400D01*
Y211899D01*
X238398Y208900D02*
X236399D01*
X238398Y210899D01*
Y211399D01*
X237898Y211899D01*
X236899D01*
X236399Y211399D01*
X239398Y211899D02*
Y208900D01*
X240898D01*
X241397Y209400D01*
Y209900D01*
X240898Y210400D01*
X239398D01*
X240898D01*
X241397Y210899D01*
Y211399D01*
X240898Y211899D01*
X239398D01*
X233100Y166099D02*
Y163600D01*
X233600Y163100D01*
X234599D01*
X235099Y163600D01*
Y166099D01*
X238098Y163100D02*
X236099D01*
X238098Y165099D01*
Y165599D01*
X237598Y166099D01*
X236599D01*
X236099Y165599D01*
X241097D02*
X240598Y166099D01*
X239598D01*
X239098Y165599D01*
Y163600D01*
X239598Y163100D01*
X240598D01*
X241097Y163600D01*
X233100Y121499D02*
Y119000D01*
X233600Y118500D01*
X234599D01*
X235099Y119000D01*
Y121499D01*
X238098Y118500D02*
X236099D01*
X238098Y120499D01*
Y120999D01*
X237598Y121499D01*
X236599D01*
X236099Y120999D01*
X239098Y121499D02*
Y118500D01*
X240598D01*
X241097Y119000D01*
Y120999D01*
X240598Y121499D01*
X239098D01*
X233700Y77299D02*
Y74800D01*
X234200Y74300D01*
X235199D01*
X235699Y74800D01*
Y77299D01*
X238698Y74300D02*
X236699D01*
X238698Y76299D01*
Y76799D01*
X238198Y77299D01*
X237199D01*
X236699Y76799D01*
X241697Y77299D02*
X239698D01*
Y74300D01*
X241697D01*
X239698Y75800D02*
X240698D01*
X234200Y233099D02*
Y230600D01*
X234700Y230100D01*
X235700D01*
X236199Y230600D01*
Y233099D01*
X237199Y232599D02*
X237699Y233099D01*
X238699D01*
X239198Y232599D01*
Y232099D01*
X238699Y231599D01*
X238199D01*
X238699D01*
X239198Y231100D01*
Y230600D01*
X238699Y230100D01*
X237699D01*
X237199Y230600D01*
X240198Y230100D02*
Y232099D01*
X241198Y233099D01*
X242197Y232099D01*
Y230100D01*
Y231599D01*
X240198D01*
X232600Y187799D02*
Y185300D01*
X233100Y184800D01*
X234100D01*
X234599Y185300D01*
Y187799D01*
X235599Y187299D02*
X236099Y187799D01*
X237099D01*
X237598Y187299D01*
Y186799D01*
X237099Y186300D01*
X236599D01*
X237099D01*
X237598Y185800D01*
Y185300D01*
X237099Y184800D01*
X236099D01*
X235599Y185300D01*
X238598Y187799D02*
Y184800D01*
X240098D01*
X240597Y185300D01*
Y185800D01*
X240098Y186300D01*
X238598D01*
X240098D01*
X240597Y186799D01*
Y187299D01*
X240098Y187799D01*
X238598D01*
X233300Y143199D02*
Y140700D01*
X233800Y140200D01*
X234800D01*
X235299Y140700D01*
Y143199D01*
X236299Y142699D02*
X236799Y143199D01*
X237799D01*
X238298Y142699D01*
Y142199D01*
X237799Y141700D01*
X237299D01*
X237799D01*
X238298Y141200D01*
Y140700D01*
X237799Y140200D01*
X236799D01*
X236299Y140700D01*
X241297Y142699D02*
X240798Y143199D01*
X239798D01*
X239298Y142699D01*
Y140700D01*
X239798Y140200D01*
X240798D01*
X241297Y140700D01*
X233500Y98299D02*
Y95800D01*
X234000Y95300D01*
X234999D01*
X235499Y95800D01*
Y98299D01*
X236499Y97799D02*
X236999Y98299D01*
X237999D01*
X238498Y97799D01*
Y97299D01*
X237999Y96799D01*
X237499D01*
X237999D01*
X238498Y96300D01*
Y95800D01*
X237999Y95300D01*
X236999D01*
X236499Y95800D01*
X239498Y98299D02*
Y95300D01*
X240998D01*
X241497Y95800D01*
Y97799D01*
X240998Y98299D01*
X239498D01*
X234100Y54099D02*
Y51600D01*
X234600Y51100D01*
X235599D01*
X236099Y51600D01*
Y54099D01*
X237099Y53599D02*
X237599Y54099D01*
X238598D01*
X239098Y53599D01*
Y53099D01*
X238598Y52600D01*
X238099D01*
X238598D01*
X239098Y52100D01*
Y51600D01*
X238598Y51100D01*
X237599D01*
X237099Y51600D01*
X242097Y54099D02*
X240098D01*
Y51100D01*
X242097D01*
X240098Y52600D02*
X241098D01*
D18*
X240657Y81304D02*
G03*
X240657Y81304I-394J0D01*
G01*
X240458Y126104D02*
G03*
X240458Y126104I-394J0D01*
G01*
X240558Y170204D02*
G03*
X240558Y170204I-394J0D01*
G01*
X240914Y215444D02*
G03*
X240914Y215444I-394J0D01*
G01*
X240357Y60004D02*
G03*
X240357Y60004I-394J0D01*
G01*
X240272Y104444D02*
G03*
X240272Y104444I-394J0D01*
G01*
X240858Y149004D02*
G03*
X240858Y149004I-394J0D01*
G01*
X240458Y192464D02*
G03*
X240458Y192464I-394J0D01*
G01*
X240957Y237704D02*
G03*
X240957Y237704I-394J0D01*
G01*
X139500Y99100D02*
G03*
X142000Y99100I1250J0D01*
G01*
X140000Y219600D02*
G03*
X142500Y219600I1250J0D01*
G01*
X79000Y99600D02*
G03*
X81500Y99600I1250J0D01*
G01*
X79000Y219600D02*
G03*
X81500Y219600I1250J0D01*
G01*
X179487Y121938D02*
G03*
X160299Y122675I-9487J3162D01*
G01*
X194331Y119100D02*
G03*
X194331Y119100I-24331J0D01*
G01*
Y239100D02*
G03*
X194331Y239100I-24331J0D01*
G01*
X179487Y241938D02*
G03*
X160299Y242675I-9487J3162D01*
G01*
X119487Y61938D02*
G03*
X100299Y62675I-9487J3162D01*
G01*
X134331Y59100D02*
G03*
X134331Y59100I-24331J0D01*
G01*
Y119100D02*
G03*
X134331Y119100I-24331J0D01*
G01*
X119487Y121938D02*
G03*
X100299Y122675I-9487J3162D01*
G01*
X119487Y181938D02*
G03*
X100299Y182675I-9487J3162D01*
G01*
X134331Y179100D02*
G03*
X134331Y179100I-24331J0D01*
G01*
Y239100D02*
G03*
X134331Y239100I-24331J0D01*
G01*
X119487Y241938D02*
G03*
X100299Y242675I-9487J3162D01*
G01*
X59487Y61938D02*
G03*
X40299Y62675I-9487J3162D01*
G01*
X74331Y59100D02*
G03*
X74331Y59100I-24331J0D01*
G01*
Y119100D02*
G03*
X74331Y119100I-24331J0D01*
G01*
X59487Y121938D02*
G03*
X40299Y122675I-9487J3162D01*
G01*
X59487Y181938D02*
G03*
X40299Y182675I-9487J3162D01*
G01*
X74331Y179100D02*
G03*
X74331Y179100I-24331J0D01*
G01*
Y239100D02*
G03*
X74331Y239100I-24331J0D01*
G01*
X59487Y241938D02*
G03*
X40299Y242675I-9487J3162D01*
G01*
X194331Y59100D02*
G03*
X194331Y59100I-24331J0D01*
G01*
X179487Y61938D02*
G03*
X160299Y62675I-9487J3162D01*
G01*
X178000Y182100D02*
G03*
X180500Y182100I1250J0D01*
G01*
X240757Y37304D02*
G03*
X240757Y37304I-394J0D01*
G01*
X136000Y79100D02*
Y99100D01*
Y79100D02*
X145500D01*
Y99100D01*
X142000D02*
X145500D01*
X136000D02*
X139500D01*
X136500Y199600D02*
Y219600D01*
Y199600D02*
X146000D01*
Y219600D01*
X142500D02*
X146000D01*
X136500D02*
X140000D01*
X75500Y79600D02*
Y99600D01*
Y79600D02*
X85000D01*
Y99600D01*
X81500D02*
X85000D01*
X75500D02*
X79000D01*
X75500Y199600D02*
Y219600D01*
Y199600D02*
X85000D01*
Y219600D01*
X81500D02*
X85000D01*
X75500D02*
X79000D01*
X178000Y119100D02*
X179487Y121938D01*
X178000Y105100D02*
Y119100D01*
X162000Y105100D02*
X178000D01*
X162000D02*
Y119100D01*
X160299Y122675D02*
X162000Y119100D01*
X160299Y242675D02*
X162000Y239100D01*
Y225100D02*
Y239100D01*
Y225100D02*
X178000D01*
Y239100D01*
X179487Y241938D01*
X118000Y59100D02*
X119487Y61938D01*
X118000Y45100D02*
Y59100D01*
X102000Y45100D02*
X118000D01*
X102000D02*
Y59100D01*
X100299Y62675D02*
X102000Y59100D01*
X100299Y122675D02*
X102000Y119100D01*
Y105100D02*
Y119100D01*
Y105100D02*
X118000D01*
Y119100D01*
X119487Y121938D01*
X118000Y179100D02*
X119487Y181938D01*
X118000Y165100D02*
Y179100D01*
X102000Y165100D02*
X118000D01*
X102000D02*
Y179100D01*
X100299Y182675D02*
X102000Y179100D01*
X100299Y242675D02*
X102000Y239100D01*
Y225100D02*
Y239100D01*
Y225100D02*
X118000D01*
Y239100D01*
X119487Y241938D01*
X58000Y59100D02*
X59487Y61938D01*
X58000Y45100D02*
Y59100D01*
X42000Y45100D02*
X58000D01*
X42000D02*
Y59100D01*
X40299Y62675D02*
X42000Y59100D01*
X40299Y122675D02*
X42000Y119100D01*
Y105100D02*
Y119100D01*
Y105100D02*
X58000D01*
Y119100D01*
X59487Y121938D01*
X58000Y179100D02*
X59487Y181938D01*
X58000Y165100D02*
Y179100D01*
X42000Y165100D02*
X58000D01*
X42000D02*
Y179100D01*
X40299Y182675D02*
X42000Y179100D01*
X40299Y242675D02*
X42000Y239100D01*
Y225100D02*
Y239100D01*
Y225100D02*
X58000D01*
Y239100D01*
X59487Y241938D01*
X160299Y62675D02*
X162000Y59100D01*
Y45100D02*
Y59100D01*
Y45100D02*
X178000D01*
Y59100D01*
X179487Y61938D01*
X174500Y162100D02*
Y182100D01*
Y162100D02*
X184000D01*
Y182100D01*
X180500D02*
X184000D01*
X174500D02*
X178000D01*
X14299Y219698D02*
X13299Y220698D01*
X11300D01*
X10300Y219698D01*
Y215700D01*
X11300Y214700D01*
X13299D01*
X14299Y215700D01*
X16298Y220698D02*
Y214700D01*
Y217699D01*
X20297D01*
Y220698D01*
Y214700D01*
X28294D02*
X30294D01*
X29294D01*
Y220698D01*
X28294Y219698D01*
X14499Y159098D02*
X13499Y160098D01*
X11500D01*
X10500Y159098D01*
Y155100D01*
X11500Y154100D01*
X13499D01*
X14499Y155100D01*
X16498Y160098D02*
Y154100D01*
Y157099D01*
X20497D01*
Y160098D01*
Y154100D01*
X32493D02*
X28494D01*
X32493Y158099D01*
Y159098D01*
X31493Y160098D01*
X29494D01*
X28494Y159098D01*
X12899Y99098D02*
X11899Y100098D01*
X9900D01*
X8900Y99098D01*
Y95100D01*
X9900Y94100D01*
X11899D01*
X12899Y95100D01*
X14898Y100098D02*
Y94100D01*
Y97099D01*
X18897D01*
Y100098D01*
Y94100D01*
X26894Y99098D02*
X27894Y100098D01*
X29893D01*
X30893Y99098D01*
Y98099D01*
X29893Y97099D01*
X28894D01*
X29893D01*
X30893Y96099D01*
Y95100D01*
X29893Y94100D01*
X27894D01*
X26894Y95100D01*
X15099Y36798D02*
X14099Y37798D01*
X12100D01*
X11100Y36798D01*
Y32800D01*
X12100Y31800D01*
X14099D01*
X15099Y32800D01*
X17098Y37798D02*
Y31800D01*
Y34799D01*
X21097D01*
Y37798D01*
Y31800D01*
X32093D02*
Y37798D01*
X29094Y34799D01*
X33093D01*
X128799Y264398D02*
X127799Y265398D01*
X125800D01*
X124800Y264398D01*
Y260400D01*
X125800Y259400D01*
X127799D01*
X128799Y260400D01*
X130798Y265398D02*
Y259400D01*
Y262399D01*
X134797D01*
Y265398D01*
Y259400D01*
X146793Y265398D02*
X142794D01*
Y262399D01*
X144793Y263399D01*
X145793D01*
X146793Y262399D01*
Y260400D01*
X145793Y259400D01*
X143794D01*
X142794Y260400D01*
X139399Y190698D02*
X138399Y191698D01*
X136400D01*
X135400Y190698D01*
Y186700D01*
X136400Y185700D01*
X138399D01*
X139399Y186700D01*
X141398Y191698D02*
Y185700D01*
Y188699D01*
X145397D01*
Y191698D01*
Y185700D01*
X157393Y191698D02*
X155394Y190698D01*
X153394Y188699D01*
Y186700D01*
X154394Y185700D01*
X156393D01*
X157393Y186700D01*
Y187699D01*
X156393Y188699D01*
X153394D01*
X130399Y144798D02*
X129399Y145798D01*
X127400D01*
X126400Y144798D01*
Y140800D01*
X127400Y139800D01*
X129399D01*
X130399Y140800D01*
X132398Y145798D02*
Y139800D01*
Y142799D01*
X136397D01*
Y145798D01*
Y139800D01*
X144394Y145798D02*
X148393D01*
Y144798D01*
X144394Y140800D01*
Y139800D01*
X79599Y34698D02*
X78599Y35698D01*
X76600D01*
X75600Y34698D01*
Y30700D01*
X76600Y29700D01*
X78599D01*
X79599Y30700D01*
X81598Y35698D02*
Y29700D01*
Y32699D01*
X85597D01*
Y35698D01*
Y29700D01*
X93594Y34698D02*
X94594Y35698D01*
X96593D01*
X97593Y34698D01*
Y33699D01*
X96593Y32699D01*
X97593Y31699D01*
Y30700D01*
X96593Y29700D01*
X94594D01*
X93594Y30700D01*
Y31699D01*
X94594Y32699D01*
X93594Y33699D01*
Y34698D01*
X94594Y32699D02*
X96593D01*
X182599Y212998D02*
X181599Y213998D01*
X179600D01*
X178600Y212998D01*
Y209000D01*
X179600Y208000D01*
X181599D01*
X182599Y209000D01*
X184598Y213998D02*
Y208000D01*
Y210999D01*
X188597D01*
Y213998D01*
Y208000D01*
X196594Y209000D02*
X197594Y208000D01*
X199593D01*
X200593Y209000D01*
Y212998D01*
X199593Y213998D01*
X197594D01*
X196594Y212998D01*
Y211999D01*
X197594Y210999D01*
X200593D01*
X183800Y89400D02*
Y95398D01*
X186799D01*
X187799Y94398D01*
Y92399D01*
X186799Y91399D01*
X183800D01*
X185799D02*
X187799Y89400D01*
X193797Y95398D02*
X189798D01*
Y89400D01*
X193797D01*
X189798Y92399D02*
X191797D01*
X199795Y95398D02*
X195796D01*
Y92399D01*
X197795D01*
X195796D01*
Y89400D01*
X148800Y31098D02*
Y25100D01*
X151799D01*
X152799Y26100D01*
Y27099D01*
X151799Y28099D01*
X148800D01*
X151799D01*
X152799Y29099D01*
Y30098D01*
X151799Y31098D01*
X148800D01*
X154798D02*
X156797D01*
X155798D01*
Y25100D01*
X154798D01*
X156797D01*
X159796D02*
Y29099D01*
X161796Y31098D01*
X163795Y29099D01*
Y25100D01*
Y28099D01*
X159796D01*
X169793Y30098D02*
X168793Y31098D01*
X166794D01*
X165795Y30098D01*
Y29099D01*
X166794Y28099D01*
X168793D01*
X169793Y27099D01*
Y26100D01*
X168793Y25100D01*
X166794D01*
X165795Y26100D01*
X171793Y25100D02*
X175791Y29099D01*
X181789Y30098D02*
X180790Y31098D01*
X178790D01*
X177791Y30098D01*
Y26100D01*
X178790Y25100D01*
X180790D01*
X181789Y26100D01*
Y28099D01*
X179790D01*
X183789Y25100D02*
Y31098D01*
X187787Y25100D01*
Y31098D01*
X189787D02*
Y25100D01*
X192786D01*
X193785Y26100D01*
Y30098D01*
X192786Y31098D01*
X189787D01*
D32*
X238295Y81698D02*
Y82485D01*
X232390Y81698D02*
X238295D01*
X232390D02*
Y82485D01*
X238295Y93115D02*
Y93902D01*
X232390D02*
X238295D01*
X232390Y93115D02*
Y93902D01*
X238095Y126498D02*
Y127285D01*
X232190Y126498D02*
X238095D01*
X232190D02*
Y127285D01*
X238095Y137915D02*
Y138702D01*
X232190D02*
X238095D01*
X232190Y137915D02*
Y138702D01*
X238195Y170598D02*
Y171385D01*
X232290Y170598D02*
X238195D01*
X232290D02*
Y171385D01*
X238195Y182015D02*
Y182802D01*
X232290D02*
X238195D01*
X232290Y182015D02*
Y182802D01*
X238552Y215838D02*
Y216625D01*
X232646Y215838D02*
X238552D01*
X232646D02*
Y216625D01*
X238552Y227255D02*
Y228043D01*
X232646D02*
X238552D01*
X232646Y227255D02*
Y228043D01*
X237995Y60398D02*
Y61185D01*
X232090Y60398D02*
X237995D01*
X232090D02*
Y61185D01*
X237995Y71815D02*
Y72602D01*
X232090D02*
X237995D01*
X232090Y71815D02*
Y72602D01*
X237910Y104838D02*
Y105625D01*
X232005Y104838D02*
X237910D01*
X232005D02*
Y105625D01*
X237910Y116255D02*
Y117043D01*
X232005D02*
X237910D01*
X232005Y116255D02*
Y117043D01*
X238495Y149398D02*
Y150185D01*
X232590Y149398D02*
X238495D01*
X232590D02*
Y150185D01*
X238495Y160815D02*
Y161602D01*
X232590D02*
X238495D01*
X232590Y160815D02*
Y161602D01*
X238095Y192858D02*
Y193645D01*
X232190Y192858D02*
X238095D01*
X232190D02*
Y193645D01*
X238095Y204275D02*
Y205062D01*
X232190D02*
X238095D01*
X232190Y204275D02*
Y205062D01*
X238595Y238098D02*
Y238885D01*
X232690Y238098D02*
X238595D01*
X232690D02*
Y238885D01*
X238595Y249515D02*
Y250302D01*
X232690D02*
X238595D01*
X232690Y249515D02*
Y250302D01*
X238395Y37698D02*
Y38485D01*
X232490Y37698D02*
X238395D01*
X232490D02*
Y38485D01*
X238395Y49115D02*
Y49902D01*
X232490D02*
X238395D01*
X232490Y49115D02*
Y49902D01*
M02*
