G04 Layer_Physical_Order=2*
G04 Layer_Color=32768*
%FSLAX25Y25*%
%MOIN*%
G70*
G01*
G75*
%ADD26C,0.04000*%
%ADD27C,0.16000*%
%ADD28C,0.09000*%
%ADD29C,0.07500*%
%ADD30C,0.14630*%
%ADD31C,0.05500*%
D26*
X0Y11900D02*
X11900Y0D01*
X356400D01*
X368100Y11700D01*
Y283000D01*
X356000Y295100D02*
X368100Y283000D01*
X9900Y295100D02*
X356000D01*
X0Y285200D02*
X9900Y295100D01*
X0Y11900D02*
Y285200D01*
D27*
X351992Y15673D02*
D03*
Y279453D02*
D03*
X16000Y279600D02*
D03*
X243626Y279453D02*
D03*
X16000Y15673D02*
D03*
X243626D02*
D03*
D28*
X170000Y113100D02*
D03*
Y125100D02*
D03*
Y245100D02*
D03*
Y233100D02*
D03*
X110000Y53100D02*
D03*
Y65100D02*
D03*
Y125100D02*
D03*
Y113100D02*
D03*
Y173100D02*
D03*
Y185100D02*
D03*
Y245100D02*
D03*
Y233100D02*
D03*
X50000Y53100D02*
D03*
Y65100D02*
D03*
Y125100D02*
D03*
Y113100D02*
D03*
Y173100D02*
D03*
Y185100D02*
D03*
Y245100D02*
D03*
Y233100D02*
D03*
X170000Y65100D02*
D03*
Y53100D02*
D03*
D29*
X301500Y70200D02*
D03*
X309000Y65200D02*
D03*
Y75200D02*
D03*
X301500Y80200D02*
D03*
X309000Y85200D02*
D03*
X301500Y90200D02*
D03*
X309000Y95200D02*
D03*
X301500Y110200D02*
D03*
X309000Y115200D02*
D03*
X301500Y120200D02*
D03*
X309000Y125200D02*
D03*
X301500Y130200D02*
D03*
X309000Y135200D02*
D03*
X301500Y140200D02*
D03*
X309000Y145200D02*
D03*
Y155200D02*
D03*
Y165200D02*
D03*
Y175200D02*
D03*
Y185200D02*
D03*
X301500Y190200D02*
D03*
X309000Y195200D02*
D03*
X301500Y200200D02*
D03*
Y210200D02*
D03*
Y220200D02*
D03*
X309000Y225200D02*
D03*
X294000Y65200D02*
D03*
X286500Y70200D02*
D03*
X294000Y75200D02*
D03*
X286500Y80200D02*
D03*
X294000Y85200D02*
D03*
X286500Y90200D02*
D03*
X294000Y95200D02*
D03*
X286500Y100200D02*
D03*
X294000Y105200D02*
D03*
X286500Y110200D02*
D03*
X294000Y115200D02*
D03*
X286500Y120200D02*
D03*
X294000Y125200D02*
D03*
X286500Y130200D02*
D03*
X294000Y135200D02*
D03*
X286500Y140200D02*
D03*
X294000Y145200D02*
D03*
X286500Y150200D02*
D03*
X294000Y155200D02*
D03*
X286500Y160200D02*
D03*
X294000Y165200D02*
D03*
X286500Y170200D02*
D03*
X294000Y175200D02*
D03*
X286500Y180200D02*
D03*
X294000Y185200D02*
D03*
Y195200D02*
D03*
X286500Y200200D02*
D03*
Y210200D02*
D03*
Y220200D02*
D03*
X294000Y225200D02*
D03*
D30*
X297800Y33700D02*
D03*
Y261700D02*
D03*
D31*
X198400Y175300D02*
D03*
X163300Y31800D02*
D03*
X79900Y38800D02*
D03*
X15900Y39200D02*
D03*
X140700Y43100D02*
D03*
X173400Y155100D02*
D03*
X184800Y65600D02*
D03*
X240300Y54000D02*
D03*
X170000Y268500D02*
D03*
X159600Y74100D02*
D03*
X240300Y73800D02*
D03*
X113600Y96600D02*
D03*
X240700Y93900D02*
D03*
X113300Y138700D02*
D03*
X240100Y117400D02*
D03*
X121100Y216600D02*
D03*
X127800Y140000D02*
D03*
X240300Y139600D02*
D03*
X156600Y278500D02*
D03*
X158400Y162200D02*
D03*
X240700Y161900D02*
D03*
X8200Y100800D02*
D03*
X133000Y101100D02*
D03*
X75500Y221700D02*
D03*
X90500Y221200D02*
D03*
X75500Y100600D02*
D03*
X90000Y101300D02*
D03*
X53500Y95200D02*
D03*
X240200Y183600D02*
D03*
X53300Y156200D02*
D03*
X240300Y205600D02*
D03*
X53200Y218400D02*
D03*
X240800Y229700D02*
D03*
X53900Y281000D02*
D03*
X241000Y252300D02*
D03*
X236200Y51200D02*
D03*
X226300Y62900D02*
D03*
X236500Y66400D02*
D03*
X236400Y77200D02*
D03*
X226200Y84100D02*
D03*
X236400Y88200D02*
D03*
X236200Y99200D02*
D03*
Y121100D02*
D03*
X226245Y176800D02*
D03*
X226100Y107200D02*
D03*
X236500Y111100D02*
D03*
X226300Y128860D02*
D03*
X236500Y132800D02*
D03*
X236200Y144000D02*
D03*
X226200Y151417D02*
D03*
X236500Y166400D02*
D03*
X236400Y155800D02*
D03*
Y43900D02*
D03*
X226400Y40000D02*
D03*
Y195220D02*
D03*
X236100Y188200D02*
D03*
X236400Y176700D02*
D03*
X236300Y199300D02*
D03*
X226300Y218400D02*
D03*
X226400Y240558D02*
D03*
X236400Y210800D02*
D03*
Y223400D02*
D03*
X133700Y222600D02*
D03*
X151600D02*
D03*
X236400Y233100D02*
D03*
X236500Y244400D02*
D03*
M02*
