G04 Layer_Color=8421504*
%FSLAX25Y25*%
%MOIN*%
G70*
G01*
G75*
%ADD11R,0.04921X0.01968*%
%ADD12O,0.07800X0.02400*%
%ADD13R,0.07800X0.02400*%
%ADD14R,0.05512X0.03740*%
%ADD15R,0.03740X0.05512*%
%ADD16R,0.03543X0.03740*%
%ADD17R,0.03543X0.03740*%
D11*
X230185Y91540D02*
D03*
Y84060D02*
D03*
X240500Y91540D02*
D03*
Y87800D02*
D03*
Y84060D02*
D03*
X229985Y136340D02*
D03*
Y128860D02*
D03*
X240300Y136340D02*
D03*
Y132600D02*
D03*
Y128860D02*
D03*
X230085Y180440D02*
D03*
Y172960D02*
D03*
X240400Y180440D02*
D03*
Y176700D02*
D03*
Y172960D02*
D03*
X230442Y225680D02*
D03*
Y218200D02*
D03*
X240757Y225680D02*
D03*
Y221940D02*
D03*
Y218200D02*
D03*
X229885Y70240D02*
D03*
Y62760D02*
D03*
X240200Y70240D02*
D03*
Y66500D02*
D03*
Y62760D02*
D03*
X229800Y114680D02*
D03*
Y107200D02*
D03*
X240115Y114680D02*
D03*
Y110940D02*
D03*
Y107200D02*
D03*
X230385Y159240D02*
D03*
Y151760D02*
D03*
X240700Y159240D02*
D03*
Y155500D02*
D03*
Y151760D02*
D03*
X229985Y202700D02*
D03*
Y195220D02*
D03*
X240300Y202700D02*
D03*
Y198960D02*
D03*
Y195220D02*
D03*
X230485Y247940D02*
D03*
Y240460D02*
D03*
X240800Y247940D02*
D03*
Y244200D02*
D03*
Y240460D02*
D03*
X230285Y47540D02*
D03*
Y40060D02*
D03*
X240600Y47540D02*
D03*
Y43800D02*
D03*
Y40060D02*
D03*
D12*
X151000Y81600D02*
D03*
Y86600D02*
D03*
Y91600D02*
D03*
Y96600D02*
D03*
X130500Y81600D02*
D03*
Y86600D02*
D03*
Y91600D02*
D03*
X151500Y202100D02*
D03*
Y207100D02*
D03*
Y212100D02*
D03*
Y217100D02*
D03*
X131000Y202100D02*
D03*
Y207100D02*
D03*
Y212100D02*
D03*
X90500Y82100D02*
D03*
Y87100D02*
D03*
Y92100D02*
D03*
Y97100D02*
D03*
X70000Y82100D02*
D03*
Y87100D02*
D03*
Y92100D02*
D03*
X90500Y202100D02*
D03*
Y207100D02*
D03*
Y212100D02*
D03*
Y217100D02*
D03*
X70000Y202100D02*
D03*
Y207100D02*
D03*
Y212100D02*
D03*
X189500Y164600D02*
D03*
Y169600D02*
D03*
Y174600D02*
D03*
Y179600D02*
D03*
X169000Y164600D02*
D03*
Y169600D02*
D03*
Y174600D02*
D03*
D13*
X130500Y96600D02*
D03*
X131000Y217100D02*
D03*
X70000Y97100D02*
D03*
Y217100D02*
D03*
X169000Y179600D02*
D03*
D14*
X80000Y53242D02*
D03*
Y45958D02*
D03*
Y173383D02*
D03*
Y166100D02*
D03*
X16000Y52600D02*
D03*
Y45316D02*
D03*
Y173100D02*
D03*
Y165816D02*
D03*
X139500Y233242D02*
D03*
Y225958D02*
D03*
X80000Y113242D02*
D03*
Y105958D02*
D03*
Y233383D02*
D03*
Y226100D02*
D03*
X16000Y113100D02*
D03*
Y105816D02*
D03*
Y233242D02*
D03*
Y225958D02*
D03*
X219800Y40558D02*
D03*
Y47842D02*
D03*
X220800Y84417D02*
D03*
Y91700D02*
D03*
X221300Y128917D02*
D03*
Y136200D02*
D03*
Y180983D02*
D03*
Y173700D02*
D03*
X221942Y218058D02*
D03*
Y225342D02*
D03*
X220300Y62558D02*
D03*
Y69842D02*
D03*
X221300Y106916D02*
D03*
Y114200D02*
D03*
Y151417D02*
D03*
Y158700D02*
D03*
X221800Y195916D02*
D03*
Y203200D02*
D03*
X222300Y240558D02*
D03*
Y247842D02*
D03*
X140000Y113100D02*
D03*
Y105816D02*
D03*
D15*
X166500Y148600D02*
D03*
X159216D02*
D03*
X106642Y88600D02*
D03*
X99358D02*
D03*
X106642Y208600D02*
D03*
X99358D02*
D03*
X46500Y89100D02*
D03*
X39217D02*
D03*
X46000Y209100D02*
D03*
X38717D02*
D03*
X255442Y40200D02*
D03*
X248158D02*
D03*
X255442Y84200D02*
D03*
X248158D02*
D03*
X255442Y129200D02*
D03*
X248158D02*
D03*
X255942Y173200D02*
D03*
X248658D02*
D03*
X256442Y218200D02*
D03*
X249158D02*
D03*
X166284Y268100D02*
D03*
X159000D02*
D03*
X106642Y148600D02*
D03*
X99358D02*
D03*
X107000Y269100D02*
D03*
X99717D02*
D03*
X46500Y148600D02*
D03*
X39217D02*
D03*
X46500Y269100D02*
D03*
X39217D02*
D03*
X255442Y62700D02*
D03*
X248158D02*
D03*
X255300Y107200D02*
D03*
X248017D02*
D03*
X255942Y152200D02*
D03*
X248658D02*
D03*
X256442Y195700D02*
D03*
X249158D02*
D03*
X256300Y241700D02*
D03*
X249016D02*
D03*
X255300Y92200D02*
D03*
X248017D02*
D03*
X255442Y137200D02*
D03*
X248158D02*
D03*
X255942Y181200D02*
D03*
X248658D02*
D03*
X256442Y226200D02*
D03*
X249158D02*
D03*
X227442Y99200D02*
D03*
X220158D02*
D03*
X227942Y143700D02*
D03*
X220658D02*
D03*
X227942Y188200D02*
D03*
X220658D02*
D03*
X228442Y233200D02*
D03*
X221158D02*
D03*
X173358Y148600D02*
D03*
X180642D02*
D03*
X113358Y88600D02*
D03*
X120642D02*
D03*
X113358Y208600D02*
D03*
X120642D02*
D03*
X53358Y89100D02*
D03*
X60642D02*
D03*
X52858Y209100D02*
D03*
X60142D02*
D03*
X226942Y55200D02*
D03*
X219658D02*
D03*
X255442Y70700D02*
D03*
X248158D02*
D03*
X255442Y115200D02*
D03*
X248158D02*
D03*
X255942Y160200D02*
D03*
X248658D02*
D03*
X256300Y203700D02*
D03*
X249016D02*
D03*
X256442Y249700D02*
D03*
X249158D02*
D03*
X227442Y77200D02*
D03*
X220158D02*
D03*
X227584Y121700D02*
D03*
X220300D02*
D03*
X227942Y166200D02*
D03*
X220658D02*
D03*
X228442Y210700D02*
D03*
X221158D02*
D03*
X228800Y255700D02*
D03*
X221516D02*
D03*
X173716Y268600D02*
D03*
X181000D02*
D03*
X113500Y148600D02*
D03*
X120783D02*
D03*
X113716Y269100D02*
D03*
X121000D02*
D03*
X53358Y148600D02*
D03*
X60642D02*
D03*
X53716Y269100D02*
D03*
X61000D02*
D03*
X255442Y48200D02*
D03*
X248158D02*
D03*
D16*
X80000Y65179D02*
D03*
X83740Y75021D02*
D03*
X80000Y185179D02*
D03*
X83740Y195021D02*
D03*
X15500Y65179D02*
D03*
X19240Y75021D02*
D03*
X16000Y185179D02*
D03*
X19740Y195021D02*
D03*
X140000Y245179D02*
D03*
X143740Y255021D02*
D03*
X80000Y125179D02*
D03*
X83740Y135021D02*
D03*
X80000Y245100D02*
D03*
X83740Y254942D02*
D03*
X15500Y125179D02*
D03*
X19240Y135021D02*
D03*
X15500Y245179D02*
D03*
X19240Y255021D02*
D03*
X140000Y125179D02*
D03*
X143740Y135021D02*
D03*
D17*
X76260Y75021D02*
D03*
Y195021D02*
D03*
X11760Y75021D02*
D03*
X12260Y195021D02*
D03*
X136260Y255021D02*
D03*
X76260Y135021D02*
D03*
Y254942D02*
D03*
X11760Y135021D02*
D03*
Y255021D02*
D03*
X136260Y135021D02*
D03*
M02*
