G04*
G04 #@! TF.GenerationSoftware,Altium Limited,Altium Designer,19.0.15 (446)*
G04*
G04 Layer_Color=8421504*
%FSLAX25Y25*%
%MOIN*%
G70*
G01*
G75*
%ADD16R,0.03543X0.03740*%
%ADD17R,0.03543X0.03740*%
%ADD18O,0.02400X0.07800*%
%ADD19R,0.02400X0.07800*%
G04:AMPARAMS|DCode=20|XSize=11.81mil|YSize=70.87mil|CornerRadius=0mil|HoleSize=0mil|Usage=FLASHONLY|Rotation=45.000|XOffset=0mil|YOffset=0mil|HoleType=Round|Shape=Round|*
%AMOVALD20*
21,1,0.05906,0.01181,0.00000,0.00000,135.0*
1,1,0.01181,0.02088,-0.02088*
1,1,0.01181,-0.02088,0.02088*
%
%ADD20OVALD20*%

G04:AMPARAMS|DCode=21|XSize=11.81mil|YSize=70.87mil|CornerRadius=0mil|HoleSize=0mil|Usage=FLASHONLY|Rotation=135.000|XOffset=0mil|YOffset=0mil|HoleType=Round|Shape=Round|*
%AMOVALD21*
21,1,0.05906,0.01181,0.00000,0.00000,225.0*
1,1,0.01181,0.02088,0.02088*
1,1,0.01181,-0.02088,-0.02088*
%
%ADD21OVALD21*%

%ADD22R,0.06299X0.02756*%
%ADD23R,0.05000X0.08700*%
%ADD24R,0.02756X0.13110*%
%ADD25R,0.03386X0.11024*%
%ADD26R,0.05591X0.07205*%
%ADD27R,0.02756X0.04331*%
%ADD28R,0.03740X0.03740*%
%ADD29R,0.02362X0.01968*%
%ADD30R,0.01968X0.02362*%
%ADD31R,0.03740X0.03740*%
%ADD32R,0.03543X0.01575*%
%ADD33R,0.06693X0.09843*%
%ADD34R,0.03937X0.07087*%
D16*
X215098Y265457D02*
D03*
X211358Y255614D02*
D03*
D17*
X218839D02*
D03*
D18*
X291949Y238713D02*
D03*
X286949D02*
D03*
X281949D02*
D03*
X276949D02*
D03*
X291949Y218213D02*
D03*
X286949D02*
D03*
X281949D02*
D03*
D19*
X276949D02*
D03*
D20*
X211846Y321649D02*
D03*
X213238Y323041D02*
D03*
X214630Y324433D02*
D03*
X216022Y325825D02*
D03*
X217414Y327217D02*
D03*
X218806Y328608D02*
D03*
X220198Y330000D02*
D03*
X221590Y331392D02*
D03*
X222982Y332784D02*
D03*
X224374Y334176D02*
D03*
X225765Y335568D02*
D03*
X227157Y336960D02*
D03*
X228549Y338352D02*
D03*
X229941Y339744D02*
D03*
X231333Y341136D02*
D03*
X232725Y342528D02*
D03*
X263626Y311627D02*
D03*
X262234Y310235D02*
D03*
X260842Y308843D02*
D03*
X259451Y307451D02*
D03*
X258059Y306059D02*
D03*
X256667Y304667D02*
D03*
X255275Y303275D02*
D03*
X253883Y301883D02*
D03*
X252491Y300491D02*
D03*
X251099Y299099D02*
D03*
X249707Y297707D02*
D03*
X248315Y296316D02*
D03*
X246923Y294923D02*
D03*
X245531Y293532D02*
D03*
X244139Y292140D02*
D03*
X242747Y290748D02*
D03*
D21*
Y342528D02*
D03*
X244139Y341136D02*
D03*
X245531Y339744D02*
D03*
X246923Y338352D02*
D03*
X248315Y336960D02*
D03*
X249707Y335568D02*
D03*
X251099Y334176D02*
D03*
X252491Y332784D02*
D03*
X253883Y331392D02*
D03*
X255275Y330000D02*
D03*
X256667Y328608D02*
D03*
X258059Y327217D02*
D03*
X259451Y325825D02*
D03*
X260842Y324433D02*
D03*
X262234Y323041D02*
D03*
X263626Y321649D02*
D03*
X232725Y290748D02*
D03*
X231333Y292140D02*
D03*
X229941Y293532D02*
D03*
X228549Y294923D02*
D03*
X227157Y296316D02*
D03*
X225765Y297707D02*
D03*
X224374Y299099D02*
D03*
X222982Y300491D02*
D03*
X221590Y301883D02*
D03*
X220198Y303275D02*
D03*
X218806Y304667D02*
D03*
X217414Y306059D02*
D03*
X216022Y307451D02*
D03*
X214630Y308843D02*
D03*
X213238Y310235D02*
D03*
X211846Y311627D02*
D03*
D22*
X159411Y320734D02*
D03*
Y316600D02*
D03*
Y312466D02*
D03*
X147600D02*
D03*
Y316600D02*
D03*
Y320734D02*
D03*
D23*
X285965Y206402D02*
D03*
X269965D02*
D03*
D24*
X184259Y412902D02*
D03*
X234311D02*
D03*
D25*
Y454202D02*
D03*
D26*
X185020Y456402D02*
D03*
D27*
X199744D02*
D03*
X204075D02*
D03*
X208405D02*
D03*
X212736D02*
D03*
X217067D02*
D03*
X221398D02*
D03*
X225728D02*
D03*
X230059D02*
D03*
D28*
X241673Y457287D02*
D03*
Y451579D02*
D03*
D29*
X270216Y292032D02*
D03*
X266280D02*
D03*
X298760D02*
D03*
X294823D02*
D03*
X304463Y190600D02*
D03*
X308400D02*
D03*
X290700Y286100D02*
D03*
X294637D02*
D03*
X255453Y206402D02*
D03*
X259390D02*
D03*
X277106Y247740D02*
D03*
X281043D02*
D03*
X221988Y242819D02*
D03*
X225925D02*
D03*
X365689Y419000D02*
D03*
X361752D02*
D03*
X365689Y352071D02*
D03*
X361752D02*
D03*
X365689Y285142D02*
D03*
X361752D02*
D03*
X365689Y219197D02*
D03*
X361752D02*
D03*
X67461Y221165D02*
D03*
X71398D02*
D03*
X67461Y418016D02*
D03*
X71398D02*
D03*
X67461Y215260D02*
D03*
X71398D02*
D03*
X67461Y412110D02*
D03*
X71398D02*
D03*
X193445Y306795D02*
D03*
X197382D02*
D03*
X152800Y369400D02*
D03*
X156737D02*
D03*
X86161Y272346D02*
D03*
X90098D02*
D03*
X87146Y407189D02*
D03*
X91083D02*
D03*
X76319Y221165D02*
D03*
X80256D02*
D03*
X76319Y418016D02*
D03*
X80256D02*
D03*
X76319Y215260D02*
D03*
X80256D02*
D03*
X76319Y412110D02*
D03*
X80256D02*
D03*
X210177Y234945D02*
D03*
X214114D02*
D03*
X225925D02*
D03*
X221988D02*
D03*
Y238882D02*
D03*
X225925D02*
D03*
X266280Y276284D02*
D03*
X270216D02*
D03*
X266280Y280221D02*
D03*
X270216D02*
D03*
Y284157D02*
D03*
X266280D02*
D03*
X270216Y288094D02*
D03*
X266280D02*
D03*
X289902Y292032D02*
D03*
X285965D02*
D03*
X199350Y347150D02*
D03*
X203287D02*
D03*
X199350Y343213D02*
D03*
X203287D02*
D03*
D30*
X282028Y331402D02*
D03*
Y335339D02*
D03*
X248700Y359000D02*
D03*
Y355063D02*
D03*
X388327Y280221D02*
D03*
Y276284D02*
D03*
X253300Y230237D02*
D03*
Y226300D02*
D03*
X189150Y196667D02*
D03*
Y192730D02*
D03*
X195150Y196667D02*
D03*
Y192730D02*
D03*
X201150Y196667D02*
D03*
Y192730D02*
D03*
X207650Y196667D02*
D03*
Y192730D02*
D03*
X214150Y196667D02*
D03*
Y192730D02*
D03*
X392264Y430811D02*
D03*
Y434748D02*
D03*
X393248Y363882D02*
D03*
Y367819D02*
D03*
Y296953D02*
D03*
Y300890D02*
D03*
Y230024D02*
D03*
Y233961D02*
D03*
X409980Y413095D02*
D03*
Y409158D02*
D03*
Y346165D02*
D03*
Y342228D02*
D03*
Y280221D02*
D03*
Y276284D02*
D03*
Y213291D02*
D03*
Y209354D02*
D03*
X400138Y430811D02*
D03*
Y434748D02*
D03*
X401122Y363882D02*
D03*
Y367819D02*
D03*
Y296953D02*
D03*
Y300890D02*
D03*
Y230024D02*
D03*
Y233961D02*
D03*
X406043Y413095D02*
D03*
Y409158D02*
D03*
Y346165D02*
D03*
Y342228D02*
D03*
Y280221D02*
D03*
Y276284D02*
D03*
Y213291D02*
D03*
Y209354D02*
D03*
X396201Y413095D02*
D03*
Y409158D02*
D03*
Y346165D02*
D03*
Y342228D02*
D03*
Y280221D02*
D03*
Y276284D02*
D03*
Y213291D02*
D03*
Y209354D02*
D03*
Y430811D02*
D03*
Y434748D02*
D03*
X397185Y363882D02*
D03*
Y367819D02*
D03*
Y300890D02*
D03*
Y296953D02*
D03*
Y230024D02*
D03*
Y233961D02*
D03*
X388327Y413095D02*
D03*
Y409158D02*
D03*
Y346165D02*
D03*
Y342228D02*
D03*
Y213291D02*
D03*
Y209354D02*
D03*
Y430811D02*
D03*
Y434748D02*
D03*
X389311Y363882D02*
D03*
Y367819D02*
D03*
Y296953D02*
D03*
Y300890D02*
D03*
Y230024D02*
D03*
Y233961D02*
D03*
X384390Y430811D02*
D03*
Y434748D02*
D03*
X385374Y363882D02*
D03*
Y367819D02*
D03*
Y296953D02*
D03*
Y300890D02*
D03*
Y230024D02*
D03*
Y233961D02*
D03*
X91083Y245772D02*
D03*
Y241835D02*
D03*
Y376677D02*
D03*
Y372740D02*
D03*
X66476Y251677D02*
D03*
Y247740D02*
D03*
X67461Y382583D02*
D03*
Y378646D02*
D03*
X72382Y259551D02*
D03*
Y255614D02*
D03*
X73366Y390457D02*
D03*
Y386520D02*
D03*
X151122Y265457D02*
D03*
Y261520D02*
D03*
Y398331D02*
D03*
Y394394D02*
D03*
X66476Y237898D02*
D03*
Y241835D02*
D03*
X67461Y369787D02*
D03*
Y373724D02*
D03*
X190492Y223134D02*
D03*
Y227071D02*
D03*
X285965Y344197D02*
D03*
Y340260D02*
D03*
X232815Y206402D02*
D03*
Y202465D02*
D03*
X205256Y261520D02*
D03*
Y257583D02*
D03*
X224941Y261520D02*
D03*
Y257583D02*
D03*
X361600Y410063D02*
D03*
Y414000D02*
D03*
X361800Y341363D02*
D03*
Y345300D02*
D03*
X361500Y275200D02*
D03*
Y279137D02*
D03*
X361600Y208663D02*
D03*
Y212600D02*
D03*
X390295Y456402D02*
D03*
Y452465D02*
D03*
X368642Y372740D02*
D03*
Y368803D02*
D03*
X390295Y389472D02*
D03*
Y385535D02*
D03*
X367657Y305811D02*
D03*
Y301874D02*
D03*
X390100Y322900D02*
D03*
Y318963D02*
D03*
X367657Y238882D02*
D03*
Y234945D02*
D03*
X390295Y257583D02*
D03*
Y253646D02*
D03*
X182618Y227071D02*
D03*
Y223134D02*
D03*
X186555D02*
D03*
Y227071D02*
D03*
X278091Y340260D02*
D03*
Y344197D02*
D03*
X282028D02*
D03*
Y340260D02*
D03*
X224941Y215260D02*
D03*
Y211323D02*
D03*
X224941Y202465D02*
D03*
Y206402D02*
D03*
X213998Y205417D02*
D03*
Y201480D02*
D03*
X228878Y206402D02*
D03*
Y202465D02*
D03*
X207224Y205417D02*
D03*
Y201480D02*
D03*
X201319Y205417D02*
D03*
Y201480D02*
D03*
X195413Y205417D02*
D03*
Y201480D02*
D03*
X228878Y257583D02*
D03*
Y261520D02*
D03*
X188524Y205417D02*
D03*
Y201480D02*
D03*
X278091Y331402D02*
D03*
Y335339D02*
D03*
D31*
X417646Y195224D02*
D03*
X423354D02*
D03*
X417500Y262000D02*
D03*
X423209D02*
D03*
X417791Y328000D02*
D03*
X423500D02*
D03*
X417791Y395000D02*
D03*
X423500D02*
D03*
X417791Y247000D02*
D03*
X423500D02*
D03*
X417646Y310500D02*
D03*
X423354D02*
D03*
X418646Y377000D02*
D03*
X424354D02*
D03*
X417791Y449000D02*
D03*
X423500D02*
D03*
D32*
X249744Y444197D02*
D03*
Y441638D02*
D03*
Y439079D02*
D03*
X258405D02*
D03*
Y441638D02*
D03*
Y444197D02*
D03*
D33*
X267264Y236913D02*
D03*
Y221165D02*
D03*
D34*
X104843Y318802D02*
D03*
X93032D02*
D03*
X104843Y308960D02*
D03*
X93032D02*
D03*
M02*
