G04*
G04 #@! TF.GenerationSoftware,Altium Limited,Altium Designer,19.0.15 (446)*
G04*
G04 Layer_Color=16711935*
%FSLAX25Y25*%
%MOIN*%
G70*
G01*
G75*
%ADD35C,0.03900*%
%ADD48R,0.04540X0.04540*%
%ADD49R,0.03162X0.02769*%
%ADD50R,0.02769X0.03162*%
%ADD52R,0.04343X0.02375*%
%ADD53R,0.07493X0.10642*%
%ADD54R,0.04737X0.07887*%
%ADD55R,0.00800X0.00800*%
%ADD56C,0.06312*%
%ADD57C,0.00800*%
%ADD58C,0.07300*%
%ADD59C,0.05800*%
%ADD60C,0.06300*%
%ADD61C,0.06706*%
%ADD62C,0.25800*%
%ADD63R,0.05800X0.05800*%
%ADD119R,0.04737X0.11233*%
G04:AMPARAMS|DCode=120|XSize=27.69mil|YSize=17.84mil|CornerRadius=6.46mil|HoleSize=0mil|Usage=FLASHONLY|Rotation=180.000|XOffset=0mil|YOffset=0mil|HoleType=Round|Shape=RoundedRectangle|*
%AMROUNDEDRECTD120*
21,1,0.02769,0.00492,0,0,180.0*
21,1,0.01476,0.01784,0,0,180.0*
1,1,0.01292,-0.00738,0.00246*
1,1,0.01292,0.00738,0.00246*
1,1,0.01292,0.00738,-0.00246*
1,1,0.01292,-0.00738,-0.00246*
%
%ADD120ROUNDEDRECTD120*%
%ADD121O,0.07887X0.01981*%
%ADD122O,0.01981X0.07887*%
%ADD123R,0.05721X0.02769*%
%ADD124R,0.09068X0.13398*%
%ADD125R,0.09068X0.04343*%
%ADD126R,0.08320X0.03792*%
%ADD127R,0.03800X0.16800*%
%ADD128R,0.16700X0.03800*%
%ADD129R,0.03800X0.13300*%
%ADD130R,0.19800X0.03800*%
%ADD131R,0.02375X0.04343*%
%ADD132O,0.10249X0.02572*%
%ADD133R,0.22453X0.22453*%
%ADD134R,0.16548X0.16548*%
%ADD135R,0.11706X0.10839*%
%ADD136R,0.03162X0.01981*%
%ADD137R,0.05524X0.10642*%
%ADD138R,0.04737X0.02375*%
%ADD139R,0.07887X0.04737*%
%ADD140R,0.04147X0.11233*%
%ADD141R,0.04147X0.14776*%
%ADD142R,0.03162X0.02375*%
%ADD143R,0.02375X0.03162*%
D35*
X318100Y438500D02*
D03*
X313100D02*
D03*
X318100Y443500D02*
D03*
Y448500D02*
D03*
X313100Y443500D02*
D03*
Y448500D02*
D03*
D48*
X400138Y386717D02*
D03*
Y392425D02*
D03*
Y318705D02*
D03*
Y324413D02*
D03*
Y252760D02*
D03*
Y258469D02*
D03*
Y185831D02*
D03*
Y191539D02*
D03*
X241673Y311618D02*
D03*
Y305909D02*
D03*
X249547Y316539D02*
D03*
Y310831D02*
D03*
D49*
X443763Y205400D02*
D03*
X447700D02*
D03*
X443863Y272300D02*
D03*
X447800D02*
D03*
X444063Y339500D02*
D03*
X448000D02*
D03*
X444400Y406200D02*
D03*
X448337D02*
D03*
X438000Y205400D02*
D03*
X434063D02*
D03*
X438000Y272300D02*
D03*
X434063D02*
D03*
X438000Y339500D02*
D03*
X434063D02*
D03*
X439000Y406200D02*
D03*
X435063D02*
D03*
X444437Y329600D02*
D03*
X440500D02*
D03*
X441476Y401284D02*
D03*
X437539D02*
D03*
X441476Y381598D02*
D03*
X437539D02*
D03*
X439508Y200496D02*
D03*
X443445D02*
D03*
X210177Y234945D02*
D03*
X214114D02*
D03*
X239705Y333370D02*
D03*
X235768D02*
D03*
X538327Y454827D02*
D03*
X542264D02*
D03*
X537933Y181205D02*
D03*
X541870D02*
D03*
X440492Y334354D02*
D03*
X444429D02*
D03*
X439508Y196559D02*
D03*
X443445D02*
D03*
X169823Y212307D02*
D03*
X173760D02*
D03*
X178681D02*
D03*
X182618D02*
D03*
X187539Y237898D02*
D03*
X191476D02*
D03*
X210177Y231008D02*
D03*
X214114D02*
D03*
D50*
X406043Y387504D02*
D03*
Y391441D02*
D03*
Y319590D02*
D03*
Y323528D02*
D03*
Y253646D02*
D03*
Y257583D02*
D03*
Y186716D02*
D03*
Y190654D02*
D03*
X422776Y391441D02*
D03*
Y387504D02*
D03*
X432500Y444900D02*
D03*
Y440963D02*
D03*
X202303Y216244D02*
D03*
Y220181D02*
D03*
X224941Y224118D02*
D03*
Y220181D02*
D03*
X221004D02*
D03*
Y224118D02*
D03*
X232815Y310732D02*
D03*
Y306795D02*
D03*
X236752Y310732D02*
D03*
Y306795D02*
D03*
X224941Y310732D02*
D03*
Y314669D02*
D03*
X237736Y296953D02*
D03*
Y300890D02*
D03*
X163917Y208370D02*
D03*
Y212307D02*
D03*
X158012Y208370D02*
D03*
Y212307D02*
D03*
X152106Y208370D02*
D03*
Y212307D02*
D03*
X426713Y391441D02*
D03*
Y387504D02*
D03*
X428700Y441000D02*
D03*
Y444937D02*
D03*
X224941Y211323D02*
D03*
Y215260D02*
D03*
X228878Y220181D02*
D03*
Y216244D02*
D03*
X224941Y229039D02*
D03*
Y232976D02*
D03*
X228878Y306795D02*
D03*
Y310732D02*
D03*
D52*
X563756Y290713D02*
D03*
Y288154D02*
D03*
Y285595D02*
D03*
X572417D02*
D03*
Y288154D02*
D03*
Y290713D02*
D03*
Y307839D02*
D03*
Y305279D02*
D03*
Y302720D02*
D03*
X563756D02*
D03*
Y305279D02*
D03*
Y307839D02*
D03*
D53*
X55256Y345772D02*
D03*
Y330024D02*
D03*
X272185Y422937D02*
D03*
Y407189D02*
D03*
X55256Y304039D02*
D03*
Y288291D02*
D03*
D54*
X151894Y270300D02*
D03*
X163706D02*
D03*
D55*
X325600Y446000D02*
D03*
Y433500D02*
D03*
X305600Y446000D02*
D03*
Y433500D02*
D03*
X319600Y453500D02*
D03*
X311600D02*
D03*
X315600Y433500D02*
D03*
D56*
X40256Y384551D02*
D03*
Y374709D02*
D03*
X32382D02*
D03*
Y384551D02*
D03*
X39862Y259748D02*
D03*
Y249905D02*
D03*
X31988D02*
D03*
Y259748D02*
D03*
D57*
X14705Y395378D02*
D03*
Y363882D02*
D03*
X14311Y270575D02*
D03*
Y239079D02*
D03*
D58*
X92500Y434000D02*
D03*
X241673Y204433D02*
D03*
X171600Y271300D02*
D03*
X210177Y247740D02*
D03*
X238720Y257583D02*
D03*
X309587Y405221D02*
D03*
X327200Y408400D02*
D03*
X322382Y208370D02*
D03*
X284980Y377661D02*
D03*
X442600Y317500D02*
D03*
X293839Y333370D02*
D03*
X285965Y406205D02*
D03*
X97500Y186500D02*
D03*
D59*
X155100Y300200D02*
D03*
X135100D02*
D03*
X105100D02*
D03*
X95100D02*
D03*
X538701Y399276D02*
D03*
X531201Y394276D02*
D03*
X538701Y389276D02*
D03*
X531201Y384276D02*
D03*
X538701Y379276D02*
D03*
X531201Y374276D02*
D03*
X538701Y369276D02*
D03*
X531201Y364276D02*
D03*
X538701Y359276D02*
D03*
X531201Y354276D02*
D03*
X538701Y349276D02*
D03*
X531201Y344276D02*
D03*
X538701Y339276D02*
D03*
X531201Y334276D02*
D03*
X538701Y329276D02*
D03*
X531201Y324276D02*
D03*
X538701Y319276D02*
D03*
X531201Y314276D02*
D03*
X538701Y309276D02*
D03*
X531201Y304276D02*
D03*
X538701Y299276D02*
D03*
X531201Y294276D02*
D03*
X538701Y289276D02*
D03*
X531201Y284276D02*
D03*
X538701Y279276D02*
D03*
X531201Y274276D02*
D03*
X538701Y269276D02*
D03*
X531201Y264276D02*
D03*
X538701Y259276D02*
D03*
X531201Y254276D02*
D03*
X538701Y249276D02*
D03*
X531201Y244276D02*
D03*
X538701Y239276D02*
D03*
X531201Y234276D02*
D03*
X553701Y399276D02*
D03*
X546201Y394276D02*
D03*
X553701Y389276D02*
D03*
X546201Y384276D02*
D03*
X553701Y379276D02*
D03*
X546201Y374276D02*
D03*
X553701Y369276D02*
D03*
X546201Y364276D02*
D03*
X553701Y359276D02*
D03*
X546201Y354276D02*
D03*
X553701Y349276D02*
D03*
X546201Y344276D02*
D03*
X553701Y339276D02*
D03*
X546201Y334276D02*
D03*
X553701Y329276D02*
D03*
X546201Y324276D02*
D03*
X553701Y319276D02*
D03*
X546201Y314276D02*
D03*
X553701Y309276D02*
D03*
X546201Y304276D02*
D03*
X553701Y299276D02*
D03*
X546201Y294276D02*
D03*
X553701Y289276D02*
D03*
X546201Y284276D02*
D03*
X553701Y279276D02*
D03*
X546201Y274276D02*
D03*
X553701Y269276D02*
D03*
X546201Y264276D02*
D03*
X553701Y259276D02*
D03*
X546201Y254276D02*
D03*
X553701Y249276D02*
D03*
X546201Y244276D02*
D03*
X553701Y239276D02*
D03*
D60*
X327461Y386795D02*
D03*
X317461D02*
D03*
X327461Y376795D02*
D03*
X317461D02*
D03*
X327461Y366795D02*
D03*
X317461D02*
D03*
X327461Y356795D02*
D03*
X317461D02*
D03*
X327461Y346795D02*
D03*
X317461D02*
D03*
X327461Y336795D02*
D03*
X317461D02*
D03*
X327461Y326795D02*
D03*
X317461D02*
D03*
X327461Y316795D02*
D03*
X317461D02*
D03*
X327461Y306795D02*
D03*
X317461D02*
D03*
X327461Y296795D02*
D03*
X317461D02*
D03*
X327461Y286795D02*
D03*
X317461D02*
D03*
X327461Y276795D02*
D03*
X317461D02*
D03*
X327461Y266795D02*
D03*
X317461D02*
D03*
X327461Y256795D02*
D03*
X317461D02*
D03*
X327461Y246795D02*
D03*
X317461D02*
D03*
D61*
X171900Y299400D02*
D03*
X181900D02*
D03*
X319800Y190800D02*
D03*
X329800D02*
D03*
X68100Y300000D02*
D03*
X78100D02*
D03*
D62*
X542401Y202776D02*
D03*
Y430976D02*
D03*
X18248Y448528D02*
D03*
Y184748D02*
D03*
X278091Y448528D02*
D03*
Y184748D02*
D03*
X596594D02*
D03*
Y448528D02*
D03*
X488228D02*
D03*
Y184748D02*
D03*
D63*
X546201Y234276D02*
D03*
D119*
X212146Y221165D02*
D03*
D120*
X215886Y216213D02*
D03*
Y218181D02*
D03*
Y220150D02*
D03*
Y222118D02*
D03*
Y224087D02*
D03*
Y226055D02*
D03*
X208405D02*
D03*
Y224087D02*
D03*
Y222118D02*
D03*
Y220150D02*
D03*
Y218181D02*
D03*
Y216213D02*
D03*
D121*
X421004Y436717D02*
D03*
Y434748D02*
D03*
Y432780D02*
D03*
Y430811D02*
D03*
Y428843D02*
D03*
Y426874D02*
D03*
Y424905D02*
D03*
Y422937D02*
D03*
Y420968D02*
D03*
Y419000D02*
D03*
Y417031D02*
D03*
Y415063D02*
D03*
Y413095D02*
D03*
Y411126D02*
D03*
Y409158D02*
D03*
Y407189D02*
D03*
X377303D02*
D03*
Y409158D02*
D03*
Y411126D02*
D03*
Y413095D02*
D03*
Y415063D02*
D03*
Y417031D02*
D03*
Y419000D02*
D03*
Y420968D02*
D03*
Y422937D02*
D03*
Y424905D02*
D03*
Y426874D02*
D03*
Y428843D02*
D03*
Y430811D02*
D03*
Y432780D02*
D03*
Y434748D02*
D03*
Y436717D02*
D03*
X421004Y236669D02*
D03*
Y234701D02*
D03*
Y232732D02*
D03*
Y230764D02*
D03*
Y228795D02*
D03*
Y226827D02*
D03*
Y224858D02*
D03*
Y222890D02*
D03*
Y220921D02*
D03*
Y218953D02*
D03*
Y216984D02*
D03*
Y215016D02*
D03*
Y213047D02*
D03*
Y211079D02*
D03*
Y209110D02*
D03*
Y207142D02*
D03*
X377303D02*
D03*
Y209110D02*
D03*
Y211079D02*
D03*
Y213047D02*
D03*
Y215016D02*
D03*
Y216984D02*
D03*
Y218953D02*
D03*
Y220921D02*
D03*
Y222890D02*
D03*
Y224858D02*
D03*
Y226827D02*
D03*
Y228795D02*
D03*
Y230764D02*
D03*
Y232732D02*
D03*
Y234701D02*
D03*
Y236669D02*
D03*
X421004Y303352D02*
D03*
Y301383D02*
D03*
Y299415D02*
D03*
Y297446D02*
D03*
Y295478D02*
D03*
Y293509D02*
D03*
Y291541D02*
D03*
Y289572D02*
D03*
Y287604D02*
D03*
Y285635D02*
D03*
Y283667D02*
D03*
Y281698D02*
D03*
Y279730D02*
D03*
Y277761D02*
D03*
Y275793D02*
D03*
Y273824D02*
D03*
X377303D02*
D03*
Y275793D02*
D03*
Y277761D02*
D03*
Y279730D02*
D03*
Y281698D02*
D03*
Y283667D02*
D03*
Y285635D02*
D03*
Y287604D02*
D03*
Y289572D02*
D03*
Y291541D02*
D03*
Y293509D02*
D03*
Y295478D02*
D03*
Y297446D02*
D03*
Y299415D02*
D03*
Y301383D02*
D03*
Y303352D02*
D03*
X421004Y370034D02*
D03*
Y368066D02*
D03*
Y366097D02*
D03*
Y364129D02*
D03*
Y362160D02*
D03*
Y360192D02*
D03*
Y358223D02*
D03*
Y356255D02*
D03*
Y354286D02*
D03*
Y352318D02*
D03*
Y350349D02*
D03*
Y348381D02*
D03*
Y346412D02*
D03*
Y344444D02*
D03*
Y342475D02*
D03*
Y340507D02*
D03*
X377303D02*
D03*
Y342475D02*
D03*
Y344444D02*
D03*
Y346412D02*
D03*
Y348381D02*
D03*
Y350349D02*
D03*
Y352318D02*
D03*
Y354286D02*
D03*
Y356255D02*
D03*
Y358223D02*
D03*
Y360192D02*
D03*
Y362160D02*
D03*
Y364129D02*
D03*
Y366097D02*
D03*
Y368066D02*
D03*
Y370034D02*
D03*
D122*
X413917Y400102D02*
D03*
X411949D02*
D03*
X409980D02*
D03*
X408012D02*
D03*
X406043D02*
D03*
X404075D02*
D03*
X402106D02*
D03*
X400138D02*
D03*
X398169D02*
D03*
X396201D02*
D03*
X394232D02*
D03*
X392264D02*
D03*
X390295D02*
D03*
X388327D02*
D03*
X386358D02*
D03*
X384390D02*
D03*
Y443803D02*
D03*
X386358D02*
D03*
X388327D02*
D03*
X390295D02*
D03*
X392264D02*
D03*
X394232D02*
D03*
X396201D02*
D03*
X398169D02*
D03*
X400138D02*
D03*
X402106D02*
D03*
X404075D02*
D03*
X406043D02*
D03*
X408012D02*
D03*
X409980D02*
D03*
X411949D02*
D03*
X413917D02*
D03*
Y200055D02*
D03*
X411949D02*
D03*
X409980D02*
D03*
X408012D02*
D03*
X406043D02*
D03*
X404075D02*
D03*
X402106D02*
D03*
X400138D02*
D03*
X398169D02*
D03*
X396201D02*
D03*
X394232D02*
D03*
X392264D02*
D03*
X390295D02*
D03*
X388327D02*
D03*
X386358D02*
D03*
X384390D02*
D03*
Y243756D02*
D03*
X386358D02*
D03*
X388327D02*
D03*
X390295D02*
D03*
X392264D02*
D03*
X394232D02*
D03*
X396201D02*
D03*
X398169D02*
D03*
X400138D02*
D03*
X402106D02*
D03*
X404075D02*
D03*
X406043D02*
D03*
X408012D02*
D03*
X409980D02*
D03*
X411949D02*
D03*
X413917D02*
D03*
Y266738D02*
D03*
X411949D02*
D03*
X409980D02*
D03*
X408012D02*
D03*
X406043D02*
D03*
X404075D02*
D03*
X402106D02*
D03*
X400138D02*
D03*
X398169D02*
D03*
X396201D02*
D03*
X394232D02*
D03*
X392264D02*
D03*
X390295D02*
D03*
X388327D02*
D03*
X386358D02*
D03*
X384390D02*
D03*
Y310438D02*
D03*
X386358D02*
D03*
X388327D02*
D03*
X390295D02*
D03*
X392264D02*
D03*
X394232D02*
D03*
X396201D02*
D03*
X398169D02*
D03*
X400138D02*
D03*
X402106D02*
D03*
X404075D02*
D03*
X406043D02*
D03*
X408012D02*
D03*
X409980D02*
D03*
X411949D02*
D03*
X413917D02*
D03*
Y333420D02*
D03*
X411949D02*
D03*
X409980D02*
D03*
X408012D02*
D03*
X406043D02*
D03*
X404075D02*
D03*
X402106D02*
D03*
X400138D02*
D03*
X398169D02*
D03*
X396201D02*
D03*
X394232D02*
D03*
X392264D02*
D03*
X390295D02*
D03*
X388327D02*
D03*
X386358D02*
D03*
X384390D02*
D03*
Y377121D02*
D03*
X386358D02*
D03*
X388327D02*
D03*
X390295D02*
D03*
X392264D02*
D03*
X394232D02*
D03*
X396201D02*
D03*
X398169D02*
D03*
X400138D02*
D03*
X402106D02*
D03*
X404075D02*
D03*
X406043D02*
D03*
X408012D02*
D03*
X409980D02*
D03*
X411949D02*
D03*
X413917D02*
D03*
D123*
X445886Y395181D02*
D03*
Y387701D02*
D03*
X435571Y395181D02*
D03*
Y391441D02*
D03*
Y387701D02*
D03*
D124*
X152680Y251900D02*
D03*
D125*
X175120Y242845D02*
D03*
Y251900D02*
D03*
Y260955D02*
D03*
D126*
X98957Y247898D02*
D03*
Y242898D02*
D03*
Y237898D02*
D03*
X141240D02*
D03*
Y242898D02*
D03*
Y247898D02*
D03*
X141476Y391047D02*
D03*
Y396047D02*
D03*
Y401047D02*
D03*
X99193D02*
D03*
Y396047D02*
D03*
Y391047D02*
D03*
X141240Y258410D02*
D03*
Y263409D02*
D03*
Y268409D02*
D03*
X98957D02*
D03*
Y263409D02*
D03*
Y258410D02*
D03*
X99193Y379236D02*
D03*
Y374236D02*
D03*
Y369236D02*
D03*
X141476D02*
D03*
Y374236D02*
D03*
Y379236D02*
D03*
D127*
X471004Y204630D02*
D03*
Y227130D02*
D03*
Y249630D02*
D03*
Y272130D02*
D03*
Y294630D02*
D03*
Y317130D02*
D03*
Y339630D02*
D03*
Y362130D02*
D03*
Y384630D02*
D03*
Y407130D02*
D03*
Y429630D02*
D03*
X362804Y204630D02*
D03*
Y227130D02*
D03*
Y249630D02*
D03*
Y272130D02*
D03*
Y294630D02*
D03*
Y317130D02*
D03*
Y339630D02*
D03*
Y362130D02*
D03*
Y384630D02*
D03*
Y407130D02*
D03*
Y429630D02*
D03*
D128*
X438704Y177630D02*
D03*
X415804D02*
D03*
X393004D02*
D03*
X438704Y454630D02*
D03*
X415804D02*
D03*
X392904D02*
D03*
D129*
X471004Y184130D02*
D03*
X362804D02*
D03*
Y449830D02*
D03*
X471004D02*
D03*
D130*
X463004Y177630D02*
D03*
X370804D02*
D03*
Y454630D02*
D03*
X463004D02*
D03*
D131*
X515433Y385417D02*
D03*
X517992D02*
D03*
X520551D02*
D03*
Y376756D02*
D03*
X517992D02*
D03*
X515433D02*
D03*
X515315Y221756D02*
D03*
X517874D02*
D03*
X520433D02*
D03*
Y230417D02*
D03*
X517874D02*
D03*
X515315D02*
D03*
Y270417D02*
D03*
X517874D02*
D03*
X520433D02*
D03*
Y261756D02*
D03*
X517874D02*
D03*
X515315D02*
D03*
X515433Y303095D02*
D03*
X517992D02*
D03*
X520551D02*
D03*
Y311756D02*
D03*
X517992D02*
D03*
X515433D02*
D03*
Y360417D02*
D03*
X517992D02*
D03*
X520551D02*
D03*
Y351756D02*
D03*
X517992D02*
D03*
X515433D02*
D03*
X515315Y241756D02*
D03*
X517874D02*
D03*
X520433D02*
D03*
Y250417D02*
D03*
X517874D02*
D03*
X515315D02*
D03*
Y290417D02*
D03*
X517874D02*
D03*
X520433D02*
D03*
Y281756D02*
D03*
X517874D02*
D03*
X515315D02*
D03*
X515433Y328095D02*
D03*
X517992D02*
D03*
X520551D02*
D03*
Y336756D02*
D03*
X517992D02*
D03*
X515433D02*
D03*
D132*
X82028Y267130D02*
D03*
Y264571D02*
D03*
Y262012D02*
D03*
Y259453D02*
D03*
Y256894D02*
D03*
Y254335D02*
D03*
Y251776D02*
D03*
Y249217D02*
D03*
Y246657D02*
D03*
Y244098D02*
D03*
Y241539D02*
D03*
Y238980D02*
D03*
Y236421D02*
D03*
Y233862D02*
D03*
X55256Y267130D02*
D03*
Y264571D02*
D03*
Y262012D02*
D03*
Y259453D02*
D03*
Y256894D02*
D03*
Y254335D02*
D03*
Y251776D02*
D03*
Y249217D02*
D03*
Y246657D02*
D03*
Y244098D02*
D03*
Y241539D02*
D03*
Y238980D02*
D03*
Y236421D02*
D03*
Y233862D02*
D03*
X82815Y398626D02*
D03*
Y396067D02*
D03*
Y393508D02*
D03*
Y390949D02*
D03*
Y388390D02*
D03*
Y385831D02*
D03*
Y383272D02*
D03*
Y380713D02*
D03*
Y378153D02*
D03*
Y375594D02*
D03*
Y373035D02*
D03*
Y370476D02*
D03*
Y367917D02*
D03*
Y365358D02*
D03*
X56043Y398626D02*
D03*
Y396067D02*
D03*
Y393508D02*
D03*
Y390949D02*
D03*
Y388390D02*
D03*
Y385831D02*
D03*
Y383272D02*
D03*
Y380713D02*
D03*
Y378153D02*
D03*
Y375594D02*
D03*
Y373035D02*
D03*
Y370476D02*
D03*
Y367917D02*
D03*
Y365358D02*
D03*
D133*
X252697Y423921D02*
D03*
X151909D02*
D03*
D134*
X202303D02*
D03*
D135*
X168754Y337000D02*
D03*
X143400D02*
D03*
X152900Y228200D02*
D03*
X178254D02*
D03*
X71046Y336900D02*
D03*
X96400D02*
D03*
D136*
X453878Y261520D02*
D03*
Y259551D02*
D03*
Y257583D02*
D03*
Y255614D02*
D03*
Y253646D02*
D03*
Y251677D02*
D03*
Y249709D02*
D03*
Y247740D02*
D03*
X460177Y261520D02*
D03*
Y259551D02*
D03*
Y257583D02*
D03*
Y255614D02*
D03*
Y253646D02*
D03*
Y251677D02*
D03*
Y249709D02*
D03*
Y247740D02*
D03*
X454272Y429827D02*
D03*
Y427858D02*
D03*
Y425890D02*
D03*
Y423921D02*
D03*
Y421953D02*
D03*
Y419984D02*
D03*
Y418016D02*
D03*
Y416047D02*
D03*
X460571Y429827D02*
D03*
Y427858D02*
D03*
Y425890D02*
D03*
Y423921D02*
D03*
Y421953D02*
D03*
Y419984D02*
D03*
Y418016D02*
D03*
Y416047D02*
D03*
X460177Y350102D02*
D03*
Y352071D02*
D03*
Y354039D02*
D03*
Y356008D02*
D03*
Y357976D02*
D03*
Y359945D02*
D03*
Y361913D02*
D03*
Y363882D02*
D03*
X453878Y350102D02*
D03*
Y352071D02*
D03*
Y354039D02*
D03*
Y356008D02*
D03*
Y357976D02*
D03*
Y359945D02*
D03*
Y361913D02*
D03*
Y363882D02*
D03*
Y296953D02*
D03*
Y294984D02*
D03*
Y293016D02*
D03*
Y291047D02*
D03*
Y289079D02*
D03*
Y287110D02*
D03*
Y285142D02*
D03*
Y283173D02*
D03*
X460177Y296953D02*
D03*
Y294984D02*
D03*
Y293016D02*
D03*
Y291047D02*
D03*
Y289079D02*
D03*
Y287110D02*
D03*
Y285142D02*
D03*
Y283173D02*
D03*
Y217228D02*
D03*
Y219197D02*
D03*
Y221165D02*
D03*
Y223134D02*
D03*
Y225102D02*
D03*
Y227071D02*
D03*
Y229039D02*
D03*
Y231008D02*
D03*
X453878Y217228D02*
D03*
Y219197D02*
D03*
Y221165D02*
D03*
Y223134D02*
D03*
Y225102D02*
D03*
Y227071D02*
D03*
Y229039D02*
D03*
Y231008D02*
D03*
D137*
X392264Y188685D02*
D03*
X380059D02*
D03*
X392264Y388488D02*
D03*
X380059D02*
D03*
X392264Y321559D02*
D03*
X380059D02*
D03*
X392264Y255614D02*
D03*
X380059D02*
D03*
D138*
X444429Y242622D02*
D03*
Y245772D02*
D03*
Y248921D02*
D03*
Y252071D02*
D03*
X438130Y242622D02*
D03*
Y245772D02*
D03*
Y248921D02*
D03*
Y252071D02*
D03*
X445413Y410929D02*
D03*
Y414079D02*
D03*
Y417228D02*
D03*
Y420378D02*
D03*
X439114Y410929D02*
D03*
Y414079D02*
D03*
Y417228D02*
D03*
Y420378D02*
D03*
X444429Y345181D02*
D03*
Y348331D02*
D03*
Y351480D02*
D03*
Y354630D02*
D03*
X438130Y345181D02*
D03*
Y348331D02*
D03*
Y351480D02*
D03*
Y354630D02*
D03*
X444429Y278252D02*
D03*
Y281402D02*
D03*
Y284551D02*
D03*
Y287701D02*
D03*
X438130Y278252D02*
D03*
Y281402D02*
D03*
Y284551D02*
D03*
Y287701D02*
D03*
X444429Y211323D02*
D03*
Y214472D02*
D03*
Y217622D02*
D03*
Y220772D02*
D03*
X438130Y211323D02*
D03*
Y214472D02*
D03*
Y217622D02*
D03*
Y220772D02*
D03*
X445413Y424512D02*
D03*
Y427661D02*
D03*
Y430811D02*
D03*
Y433961D02*
D03*
X439114Y424512D02*
D03*
Y427661D02*
D03*
Y430811D02*
D03*
Y433961D02*
D03*
X444429Y359354D02*
D03*
Y362504D02*
D03*
Y365653D02*
D03*
Y368803D02*
D03*
X438130Y359354D02*
D03*
Y362504D02*
D03*
Y365653D02*
D03*
Y368803D02*
D03*
X444399Y291951D02*
D03*
Y295101D02*
D03*
Y298250D02*
D03*
Y301400D02*
D03*
X438100Y291951D02*
D03*
Y295101D02*
D03*
Y298250D02*
D03*
Y301400D02*
D03*
X444429Y225102D02*
D03*
Y228252D02*
D03*
Y231402D02*
D03*
Y234551D02*
D03*
X438130Y225102D02*
D03*
Y228252D02*
D03*
Y231402D02*
D03*
Y234551D02*
D03*
X444429Y256598D02*
D03*
Y259748D02*
D03*
Y262898D02*
D03*
Y266047D02*
D03*
X438130Y256598D02*
D03*
Y259748D02*
D03*
Y262898D02*
D03*
Y266047D02*
D03*
D139*
X201319Y237798D02*
D03*
Y225987D02*
D03*
X191476Y225202D02*
D03*
Y213391D02*
D03*
X186555Y246656D02*
D03*
Y258467D02*
D03*
X196398Y246656D02*
D03*
Y258467D02*
D03*
D140*
X175728Y196559D02*
D03*
X169823D02*
D03*
X163917D02*
D03*
X158012D02*
D03*
X152106D02*
D03*
X146201D02*
D03*
D141*
X175728Y181159D02*
D03*
X169823D02*
D03*
X163917D02*
D03*
X158012D02*
D03*
X152106D02*
D03*
X146201D02*
D03*
D142*
X427697Y379039D02*
D03*
Y381598D02*
D03*
X454272Y332386D02*
D03*
Y334945D02*
D03*
D143*
X443445Y191638D02*
D03*
X440886D02*
D03*
M02*
