G04*
G04 #@! TF.GenerationSoftware,Altium Limited,Altium Designer,19.0.15 (446)*
G04*
G04 Layer_Physical_Order=4*
G04 Layer_Color=16440176*
%FSLAX25Y25*%
%MOIN*%
G70*
G01*
G75*
%ADD15C,0.02000*%
%ADD65C,0.00600*%
%ADD67C,0.01500*%
%ADD69C,0.06500*%
%ADD70C,0.05000*%
%ADD71C,0.05500*%
%ADD72C,0.05906*%
%ADD74R,0.05000X0.05000*%
%ADD75C,0.01600*%
G36*
X351470Y389362D02*
X350970Y388952D01*
X350500Y389045D01*
X349603Y388867D01*
X348842Y388358D01*
X348742Y388258D01*
X348233Y387497D01*
X348055Y386600D01*
Y361816D01*
X347555Y361664D01*
X347358Y361958D01*
X347358Y361958D01*
X347058Y362258D01*
X346297Y362767D01*
X345745Y362876D01*
Y380800D01*
X345567Y381697D01*
X345058Y382458D01*
X344297Y382967D01*
X343400Y383145D01*
X342503Y382967D01*
X341742Y382458D01*
X341233Y381697D01*
X341055Y380800D01*
Y367698D01*
X340593Y367607D01*
X340555Y367615D01*
X340058Y368358D01*
X339297Y368867D01*
X338400Y369045D01*
X337503Y368867D01*
X336742Y368358D01*
X336642Y368258D01*
X336133Y367497D01*
X335955Y366600D01*
Y357899D01*
X335493Y357807D01*
X335455Y357815D01*
X334958Y358558D01*
X334197Y359067D01*
X333300Y359245D01*
X332403Y359067D01*
X331642Y358558D01*
X331422Y358338D01*
X330848Y358416D01*
X330736Y358686D01*
X330135Y359470D01*
X329352Y360071D01*
X328440Y360449D01*
X327461Y360578D01*
X326482Y360449D01*
X325570Y360071D01*
X324786Y359470D01*
X324185Y358686D01*
X323807Y357774D01*
X323678Y356795D01*
X323807Y355816D01*
X324185Y354904D01*
X324786Y354121D01*
X325570Y353520D01*
X326482Y353142D01*
X327461Y353013D01*
X328440Y353142D01*
X329352Y353520D01*
X330055Y354059D01*
X330555Y353924D01*
Y349667D01*
X330055Y349531D01*
X329352Y350071D01*
X328440Y350449D01*
X327461Y350578D01*
X326482Y350449D01*
X325570Y350071D01*
X324786Y349470D01*
X324185Y348687D01*
X323807Y347774D01*
X323678Y346795D01*
X323807Y345816D01*
X324185Y344904D01*
X324786Y344121D01*
X325570Y343520D01*
X326482Y343142D01*
X327461Y343013D01*
X328440Y343142D01*
X329352Y343520D01*
X330055Y344059D01*
X330555Y343924D01*
Y339667D01*
X330055Y339531D01*
X329352Y340071D01*
X328440Y340449D01*
X327461Y340578D01*
X326482Y340449D01*
X325570Y340071D01*
X324786Y339470D01*
X324185Y338686D01*
X323807Y337774D01*
X323678Y336795D01*
X323807Y335816D01*
X324185Y334904D01*
X324786Y334121D01*
X325570Y333520D01*
X326482Y333142D01*
X327461Y333013D01*
X328440Y333142D01*
X329352Y333520D01*
X330055Y334059D01*
X330555Y333924D01*
Y329667D01*
X330055Y329531D01*
X329352Y330071D01*
X328440Y330449D01*
X327461Y330578D01*
X326482Y330449D01*
X325570Y330071D01*
X324786Y329470D01*
X324185Y328686D01*
X323807Y327774D01*
X323678Y326795D01*
X323807Y325816D01*
X324185Y324904D01*
X324786Y324121D01*
X325570Y323520D01*
X326482Y323142D01*
X327461Y323013D01*
X328440Y323142D01*
X329352Y323520D01*
X330055Y324059D01*
X330555Y323924D01*
Y319667D01*
X330055Y319531D01*
X329352Y320071D01*
X328440Y320449D01*
X327461Y320578D01*
X326482Y320449D01*
X325570Y320071D01*
X324786Y319470D01*
X324185Y318687D01*
X323807Y317774D01*
X323678Y316795D01*
X323807Y315816D01*
X324185Y314904D01*
X324786Y314121D01*
X325570Y313520D01*
X326482Y313142D01*
X327461Y313013D01*
X328440Y313142D01*
X329352Y313520D01*
X330055Y314059D01*
X330555Y313924D01*
Y309667D01*
X330055Y309531D01*
X329352Y310071D01*
X328440Y310449D01*
X327461Y310578D01*
X326482Y310449D01*
X325570Y310071D01*
X324786Y309470D01*
X324185Y308686D01*
X323807Y307774D01*
X323678Y306795D01*
X323807Y305816D01*
X324185Y304904D01*
X324786Y304121D01*
X325570Y303520D01*
X326482Y303142D01*
X327461Y303013D01*
X328440Y303142D01*
X329352Y303520D01*
X330135Y304121D01*
X330281Y304310D01*
X330849Y304230D01*
X331242Y303642D01*
X332003Y303133D01*
X332555Y303024D01*
Y285271D01*
X332442Y285158D01*
X331933Y284397D01*
X331755Y283500D01*
X331933Y282603D01*
X332442Y281842D01*
X333203Y281333D01*
X334100Y281155D01*
X334997Y281333D01*
X335758Y281842D01*
X336558Y282642D01*
X337067Y283403D01*
X337078Y283459D01*
X337555Y283364D01*
Y281900D01*
X337733Y281003D01*
X338055Y280521D01*
Y274190D01*
X338000Y274145D01*
X337103Y273967D01*
X336342Y273458D01*
X335833Y272697D01*
X335655Y271800D01*
Y222000D01*
X335833Y221103D01*
X336342Y220342D01*
X336442Y220242D01*
X337203Y219733D01*
X338100Y219555D01*
X338997Y219733D01*
X339758Y220242D01*
X340267Y221003D01*
X340445Y221900D01*
X340345Y222403D01*
Y239534D01*
X340845Y239780D01*
X341213Y239498D01*
X341882Y239221D01*
X342600Y239126D01*
X343318Y239221D01*
X343987Y239498D01*
X344561Y239939D01*
X345002Y240513D01*
X345279Y241182D01*
X345374Y241900D01*
Y257156D01*
X345874Y257206D01*
X346033Y256403D01*
X346542Y255642D01*
X347303Y255133D01*
X348200Y254955D01*
X349097Y255133D01*
X349858Y255642D01*
X350367Y256403D01*
X350545Y257300D01*
Y263543D01*
X351045Y263860D01*
X351170Y263801D01*
Y171000D01*
X280797D01*
X280738Y171500D01*
X282275Y171869D01*
X284238Y172682D01*
X286050Y173793D01*
X287666Y175173D01*
X289046Y176788D01*
X290156Y178600D01*
X290969Y180563D01*
X291466Y182630D01*
X291632Y184748D01*
X291466Y186866D01*
X290969Y188933D01*
X290156Y190896D01*
X289046Y192708D01*
X287666Y194324D01*
X286050Y195703D01*
X284238Y196814D01*
X282275Y197627D01*
X280209Y198123D01*
X278091Y198290D01*
X275972Y198123D01*
X273906Y197627D01*
X271943Y196814D01*
X270131Y195703D01*
X268515Y194324D01*
X267135Y192708D01*
X266025Y190896D01*
X265212Y188933D01*
X264716Y186866D01*
X264549Y184748D01*
X264716Y182630D01*
X265212Y180563D01*
X266025Y178600D01*
X267135Y176788D01*
X268515Y175173D01*
X270131Y173793D01*
X271943Y172682D01*
X273906Y171869D01*
X275443Y171500D01*
X275384Y171000D01*
X132700D01*
Y463000D01*
X343007D01*
X343040Y462500D01*
X342882Y462479D01*
X342213Y462202D01*
X341639Y461761D01*
X341198Y461187D01*
X340921Y460518D01*
X340826Y459800D01*
Y424700D01*
X340921Y423982D01*
X341198Y423313D01*
X341639Y422739D01*
X342213Y422298D01*
X342882Y422021D01*
X343600Y421926D01*
X344318Y422021D01*
X344987Y422298D01*
X345561Y422739D01*
X346002Y423313D01*
X346279Y423982D01*
X346374Y424700D01*
Y459800D01*
X346279Y460518D01*
X346002Y461187D01*
X345561Y461761D01*
X344987Y462202D01*
X344318Y462479D01*
X344160Y462500D01*
X344193Y463000D01*
X351470D01*
Y389362D01*
D02*
G37*
G36*
X365655Y403285D02*
Y379571D01*
X363042Y376958D01*
X362745Y376514D01*
X362245Y376666D01*
Y400529D01*
X365193Y403477D01*
X365655Y403285D01*
D02*
G37*
G36*
X591868Y461632D02*
X591770Y461142D01*
X590447Y460593D01*
X588635Y459483D01*
X587019Y458103D01*
X585639Y456487D01*
X584529Y454675D01*
X583715Y452712D01*
X583219Y450646D01*
X583053Y448528D01*
X583219Y446409D01*
X583715Y444343D01*
X584529Y442380D01*
X585639Y440568D01*
X587019Y438952D01*
X588635Y437572D01*
X590447Y436462D01*
X592410Y435649D01*
X594476Y435152D01*
X596594Y434986D01*
X598713Y435152D01*
X600779Y435649D01*
X602742Y436462D01*
X604554Y437572D01*
X606170Y438952D01*
X607550Y440568D01*
X608660Y442380D01*
X609209Y443704D01*
X609699Y443801D01*
X610500Y443000D01*
Y189000D01*
X610021Y188521D01*
X609540Y188657D01*
X609473Y188933D01*
X608660Y190896D01*
X607550Y192708D01*
X606170Y194324D01*
X604554Y195703D01*
X602742Y196814D01*
X600779Y197627D01*
X598713Y198123D01*
X596594Y198290D01*
X594476Y198123D01*
X592410Y197627D01*
X590447Y196814D01*
X588635Y195703D01*
X587019Y194324D01*
X585639Y192708D01*
X584529Y190896D01*
X583715Y188933D01*
X583219Y186866D01*
X583053Y184748D01*
X583219Y182630D01*
X583715Y180563D01*
X584529Y178600D01*
X585639Y176788D01*
X587019Y175173D01*
X588635Y173793D01*
X590447Y172682D01*
X592410Y171869D01*
X593947Y171500D01*
X593888Y171000D01*
X490935D01*
X490876Y171500D01*
X492413Y171869D01*
X494376Y172682D01*
X496188Y173793D01*
X497804Y175173D01*
X499184Y176788D01*
X500294Y178600D01*
X501107Y180563D01*
X501603Y182630D01*
X501770Y184748D01*
X501603Y186866D01*
X501107Y188933D01*
X500294Y190896D01*
X499184Y192708D01*
X497804Y194324D01*
X496188Y195703D01*
X494376Y196814D01*
X492413Y197627D01*
X490347Y198123D01*
X488228Y198290D01*
X486110Y198123D01*
X484044Y197627D01*
X482081Y196814D01*
X480269Y195703D01*
X478653Y194324D01*
X477273Y192708D01*
X476163Y190896D01*
X475349Y188933D01*
X474853Y186866D01*
X474687Y184748D01*
X474853Y182630D01*
X475349Y180563D01*
X476163Y178600D01*
X477273Y176788D01*
X478653Y175173D01*
X480269Y173793D01*
X482081Y172682D01*
X484044Y171869D01*
X485581Y171500D01*
X485522Y171000D01*
X358230D01*
Y206352D01*
X358671Y206588D01*
X358903Y206433D01*
X359800Y206255D01*
X360697Y206433D01*
X361458Y206942D01*
X361958Y207442D01*
X362467Y208203D01*
X362645Y209100D01*
X362645Y209100D01*
Y209531D01*
X363145Y209738D01*
X363682Y209202D01*
X364046Y208657D01*
X364807Y208149D01*
X365571Y207997D01*
X365942Y207442D01*
X366703Y206933D01*
X367600Y206755D01*
X368497Y206933D01*
X369258Y207442D01*
X369658Y207842D01*
X369658Y207842D01*
X370167Y208603D01*
X370345Y209500D01*
X370345Y209500D01*
Y213604D01*
X370345Y213604D01*
X370317Y213746D01*
X371058Y214242D01*
X371567Y215003D01*
X371745Y215900D01*
Y216795D01*
X371745Y216795D01*
X371633Y217359D01*
X371998Y217602D01*
X372396Y218198D01*
X372535Y218900D01*
X372396Y219602D01*
X372380Y219625D01*
X372767Y220203D01*
X372945Y221100D01*
X372767Y221997D01*
X372258Y222758D01*
X371069Y223947D01*
X371111Y224444D01*
X371422Y224610D01*
X371545Y224625D01*
X372400Y224455D01*
X373297Y224633D01*
X374058Y225142D01*
X375658Y226742D01*
X376167Y227503D01*
X376345Y228400D01*
Y292600D01*
X376167Y293497D01*
X375785Y294069D01*
X376058Y294342D01*
X376058Y294342D01*
X376567Y295103D01*
X376745Y296000D01*
X376745Y296000D01*
Y353400D01*
X376567Y354297D01*
X376058Y355058D01*
X373545Y357571D01*
Y360000D01*
Y363029D01*
X376658Y366142D01*
X377167Y366903D01*
X377345Y367800D01*
Y423400D01*
X377345Y423400D01*
X377167Y424297D01*
X376658Y425058D01*
X373258Y428458D01*
X372497Y428967D01*
X371600Y429145D01*
X370703Y428967D01*
X369942Y428458D01*
X369433Y427697D01*
X369255Y426800D01*
X369433Y425903D01*
X369942Y425142D01*
X371286Y423798D01*
X371039Y423337D01*
X371000Y423345D01*
X370103Y423167D01*
X369342Y422658D01*
X368833Y421897D01*
X368655Y421000D01*
X368624Y420969D01*
X368179Y420831D01*
X367498Y420696D01*
X366902Y420298D01*
X366504Y419702D01*
X366365Y419000D01*
X366504Y418298D01*
X366902Y417702D01*
X367498Y417304D01*
X368200Y417165D01*
X368412Y417207D01*
X368765Y416853D01*
X368755Y416800D01*
X368933Y415903D01*
X369181Y415532D01*
X368951Y414976D01*
X368903Y414967D01*
X368142Y414458D01*
X367542Y413858D01*
X367261Y413437D01*
X366403Y413267D01*
X365642Y412758D01*
X365145Y412915D01*
Y426129D01*
X372058Y433042D01*
X372567Y433803D01*
X372745Y434700D01*
X372567Y435597D01*
X372058Y436358D01*
X371297Y436867D01*
X370400Y437045D01*
X369503Y436867D01*
X368742Y436358D01*
X361142Y428758D01*
X360633Y427997D01*
X360455Y427100D01*
Y420776D01*
X359977Y420631D01*
X359958Y420658D01*
X359197Y421167D01*
X358530Y421299D01*
Y463000D01*
X590500D01*
X591868Y461632D01*
D02*
G37*
%LPC*%
G36*
X322200Y461935D02*
X321498Y461796D01*
X320902Y461398D01*
X320504Y460802D01*
X320365Y460100D01*
X320504Y459398D01*
X320902Y458802D01*
X321498Y458404D01*
X322200Y458265D01*
X322902Y458404D01*
X323498Y458802D01*
X323896Y459398D01*
X324035Y460100D01*
X323896Y460802D01*
X323498Y461398D01*
X322902Y461796D01*
X322200Y461935D01*
D02*
G37*
G36*
X335500Y461835D02*
X334798Y461696D01*
X334202Y461298D01*
X333804Y460702D01*
X333665Y460000D01*
X333804Y459298D01*
X334202Y458702D01*
X334798Y458304D01*
X335500Y458165D01*
X336202Y458304D01*
X336798Y458702D01*
X337196Y459298D01*
X337335Y460000D01*
X337196Y460702D01*
X336798Y461298D01*
X336202Y461696D01*
X335500Y461835D01*
D02*
G37*
G36*
X317100Y460435D02*
X316398Y460296D01*
X315802Y459898D01*
X315404Y459302D01*
X315265Y458600D01*
X315404Y457898D01*
X315802Y457302D01*
X316398Y456904D01*
X317100Y456765D01*
X317802Y456904D01*
X318398Y457302D01*
X318796Y457898D01*
X318935Y458600D01*
X318796Y459302D01*
X318398Y459898D01*
X317802Y460296D01*
X317100Y460435D01*
D02*
G37*
G36*
X278091Y462069D02*
X275972Y461903D01*
X273906Y461407D01*
X271943Y460593D01*
X270131Y459483D01*
X268515Y458103D01*
X267135Y456487D01*
X266025Y454675D01*
X265212Y452712D01*
X264716Y450646D01*
X264549Y448528D01*
X264616Y447676D01*
X264142Y447317D01*
X263500Y447445D01*
X262603Y447267D01*
X261842Y446758D01*
X261333Y445997D01*
X261155Y445100D01*
X261333Y444203D01*
X261842Y443442D01*
X261955Y443329D01*
Y442900D01*
X262133Y442003D01*
X262357Y441668D01*
X261802Y441298D01*
X261404Y440702D01*
X261265Y440000D01*
X261404Y439298D01*
X261802Y438702D01*
X262398Y438304D01*
X262455Y438293D01*
Y391389D01*
X262068Y391072D01*
X261700Y391145D01*
X261532Y391112D01*
X261145Y391429D01*
Y411300D01*
X260967Y412197D01*
X260458Y412958D01*
X259697Y413467D01*
X258800Y413645D01*
X257903Y413467D01*
X257142Y412958D01*
X256633Y412197D01*
X256455Y411300D01*
Y402991D01*
X256078Y402789D01*
X255955Y402775D01*
X255100Y402945D01*
X254645Y402855D01*
X254145Y403265D01*
Y438329D01*
X255158Y439342D01*
X255667Y440103D01*
X255845Y441000D01*
X255667Y441897D01*
X255158Y442658D01*
X254397Y443167D01*
X253500Y443345D01*
X252603Y443167D01*
X251842Y442658D01*
X250142Y440958D01*
X249633Y440197D01*
X249455Y439300D01*
Y369800D01*
X249633Y368903D01*
X250142Y368142D01*
X250903Y367633D01*
X251800Y367455D01*
X252312Y367557D01*
X252812Y367155D01*
Y313918D01*
X252198Y313796D01*
X251602Y313398D01*
X251204Y312802D01*
X251065Y312100D01*
X251204Y311398D01*
X251602Y310802D01*
X252198Y310404D01*
X252812Y310282D01*
Y292257D01*
X252991Y291360D01*
X253499Y290599D01*
X254260Y290091D01*
X255157Y289912D01*
X256055Y290091D01*
X256815Y290599D01*
X257324Y291360D01*
X257502Y292257D01*
Y293275D01*
X258297Y293433D01*
X258824Y293785D01*
X259103Y293599D01*
X259355Y293549D01*
Y291571D01*
X258842Y291058D01*
X258333Y290297D01*
X258155Y289400D01*
X258333Y288503D01*
X258842Y287742D01*
X259603Y287233D01*
X259966Y287161D01*
X260033Y286997D01*
X259855Y286100D01*
Y263479D01*
X259533Y262997D01*
X259355Y262100D01*
X259533Y261203D01*
X260042Y260442D01*
X260803Y259933D01*
X261700Y259755D01*
X262597Y259933D01*
X262914Y260145D01*
X263355Y259909D01*
Y231371D01*
X257342Y225358D01*
X256833Y224597D01*
X256655Y223700D01*
X256833Y222803D01*
X257342Y222042D01*
X258103Y221533D01*
X259000Y221355D01*
X259897Y221533D01*
X260658Y222042D01*
X265293Y226677D01*
X265755Y226485D01*
Y199400D01*
X265933Y198503D01*
X266442Y197742D01*
X266542Y197642D01*
X267303Y197133D01*
X268200Y196955D01*
X269097Y197133D01*
X269858Y197642D01*
X270367Y198403D01*
X270545Y199300D01*
X270445Y199803D01*
Y265033D01*
X270802Y265104D01*
X271398Y265502D01*
X271796Y266098D01*
X271935Y266800D01*
X271796Y267502D01*
X271398Y268098D01*
X270802Y268496D01*
X270445Y268567D01*
Y277779D01*
X270445Y277779D01*
X270267Y278676D01*
X269758Y279437D01*
X269758Y279437D01*
X268914Y280281D01*
X268933Y280475D01*
X269331Y281071D01*
X269471Y281773D01*
X269331Y282476D01*
X268933Y283071D01*
X268338Y283469D01*
X268281Y283480D01*
Y293032D01*
X268586Y293171D01*
X268780Y293216D01*
X269503Y292733D01*
X270400Y292555D01*
X271297Y292733D01*
X272058Y293242D01*
X272567Y294003D01*
X272745Y294900D01*
Y295004D01*
X272567Y295902D01*
X272058Y296662D01*
X270445Y298275D01*
Y320100D01*
X270267Y320997D01*
X269758Y321758D01*
X268997Y322267D01*
X268100Y322445D01*
X267203Y322267D01*
X266442Y321758D01*
X265933Y320997D01*
X265755Y320100D01*
Y302483D01*
X265255Y302195D01*
X264704Y302304D01*
X264567Y302997D01*
X264058Y303758D01*
X263297Y304267D01*
X263045Y304317D01*
Y339929D01*
X264058Y340942D01*
X264567Y341703D01*
X264745Y342600D01*
Y363644D01*
X265197Y363733D01*
X265958Y364242D01*
X266458Y364742D01*
X266967Y365503D01*
X267145Y366400D01*
X267145Y366400D01*
Y439834D01*
X267614Y440007D01*
X268515Y438952D01*
X270131Y437572D01*
X271943Y436462D01*
X273906Y435649D01*
X275972Y435152D01*
X278091Y434986D01*
X280209Y435152D01*
X282275Y435649D01*
X284238Y436462D01*
X286050Y437572D01*
X287666Y438952D01*
X289046Y440568D01*
X290156Y442380D01*
X290969Y444343D01*
X290993Y444443D01*
X291494Y444384D01*
Y384476D01*
X291032Y384285D01*
X288310Y387007D01*
Y402647D01*
X288996Y403174D01*
X289677Y404061D01*
X290105Y405095D01*
X290251Y406205D01*
X290105Y407314D01*
X289677Y408348D01*
X288996Y409236D01*
X288108Y409917D01*
X287074Y410345D01*
X285965Y410491D01*
X284855Y410345D01*
X284554Y410221D01*
X284138Y410498D01*
Y423100D01*
X284302Y423313D01*
X284579Y423982D01*
X284674Y424700D01*
X284579Y425418D01*
X284302Y426087D01*
X283861Y426661D01*
X283287Y427102D01*
X282618Y427379D01*
X281900Y427474D01*
X281182Y427379D01*
X280513Y427102D01*
X279939Y426661D01*
X279403Y426126D01*
X278962Y425551D01*
X278685Y424883D01*
X278591Y424165D01*
Y402235D01*
X278685Y401517D01*
X278962Y400849D01*
X279403Y400274D01*
X279826Y399851D01*
Y393191D01*
X279203Y393067D01*
X278442Y392558D01*
X276042Y390158D01*
X275533Y389397D01*
X275355Y388500D01*
Y321100D01*
X275533Y320203D01*
X276042Y319442D01*
X276803Y318933D01*
X277526Y318790D01*
Y315213D01*
X277200Y314945D01*
X276303Y314767D01*
X275542Y314258D01*
X275033Y313497D01*
X274855Y312600D01*
X275033Y311703D01*
X275155Y311521D01*
Y283200D01*
X275333Y282303D01*
X275842Y281542D01*
X276603Y281033D01*
X277500Y280855D01*
X277607Y280767D01*
Y269515D01*
X277701Y268797D01*
X277978Y268128D01*
X278419Y267554D01*
X281139Y264834D01*
X281713Y264393D01*
X282382Y264116D01*
X283100Y264022D01*
X283818Y264116D01*
X284055Y264214D01*
X284555Y263880D01*
Y251300D01*
X284733Y250403D01*
X285242Y249642D01*
X285342Y249542D01*
X286103Y249033D01*
X287000Y248855D01*
X287368Y248928D01*
X287755Y248611D01*
Y246900D01*
X287933Y246003D01*
X288442Y245242D01*
X289203Y244733D01*
X290100Y244555D01*
X290997Y244733D01*
X291451Y245037D01*
X291533Y245003D01*
X292042Y244242D01*
X292803Y243733D01*
X293700Y243555D01*
X294555Y243725D01*
X294678Y243710D01*
X295055Y243509D01*
Y226400D01*
X295233Y225503D01*
X295742Y224742D01*
X296155Y224329D01*
Y216500D01*
X296333Y215603D01*
X296842Y214842D01*
X297603Y214333D01*
X298500Y214155D01*
X298940Y214242D01*
X299326Y213925D01*
Y194700D01*
X299421Y193982D01*
X299698Y193313D01*
X300139Y192739D01*
X300339Y192539D01*
X300913Y192098D01*
X301582Y191821D01*
X302300Y191726D01*
X303018Y191821D01*
X303687Y192098D01*
X304261Y192539D01*
X304702Y193113D01*
X304979Y193782D01*
X305074Y194500D01*
X304979Y195218D01*
X304874Y195473D01*
Y207208D01*
X305374Y207582D01*
X305800Y207526D01*
X306518Y207621D01*
X307187Y207898D01*
X307761Y208339D01*
X308202Y208913D01*
X308479Y209582D01*
X308574Y210300D01*
X308524Y210680D01*
Y254097D01*
X309024Y254343D01*
X309213Y254198D01*
X309882Y253921D01*
X310600Y253826D01*
X311318Y253921D01*
X311987Y254198D01*
X312561Y254639D01*
X313002Y255213D01*
X313279Y255882D01*
X313287Y255939D01*
X313791D01*
X313807Y255816D01*
X314185Y254904D01*
X314786Y254121D01*
X315569Y253520D01*
X316482Y253142D01*
X317461Y253013D01*
X318440Y253142D01*
X319352Y253520D01*
X320135Y254121D01*
X320736Y254904D01*
X321114Y255816D01*
X321243Y256795D01*
X321114Y257774D01*
X320736Y258686D01*
X320135Y259470D01*
X319352Y260071D01*
X318440Y260449D01*
X317461Y260578D01*
X316482Y260449D01*
X315569Y260071D01*
X314786Y259470D01*
X314185Y258686D01*
X313874Y257935D01*
X313374Y258034D01*
Y265556D01*
X313874Y265656D01*
X314185Y264904D01*
X314786Y264121D01*
X315569Y263520D01*
X316482Y263142D01*
X317461Y263013D01*
X318440Y263142D01*
X319352Y263520D01*
X320135Y264121D01*
X320736Y264904D01*
X321114Y265816D01*
X321243Y266795D01*
X321114Y267774D01*
X320736Y268687D01*
X320135Y269470D01*
X319352Y270071D01*
X318440Y270449D01*
X317461Y270578D01*
X316482Y270449D01*
X315569Y270071D01*
X314786Y269470D01*
X314185Y268687D01*
X313874Y267935D01*
X313374Y268034D01*
Y275556D01*
X313874Y275656D01*
X314185Y274904D01*
X314786Y274121D01*
X315569Y273520D01*
X316482Y273142D01*
X317461Y273013D01*
X318440Y273142D01*
X319352Y273520D01*
X320135Y274121D01*
X320736Y274904D01*
X321114Y275816D01*
X321243Y276795D01*
X321114Y277774D01*
X320736Y278686D01*
X320135Y279470D01*
X319352Y280071D01*
X318440Y280449D01*
X317461Y280578D01*
X316482Y280449D01*
X315569Y280071D01*
X314786Y279470D01*
X314185Y278686D01*
X313874Y277935D01*
X313374Y278034D01*
Y282700D01*
X313279Y283418D01*
X313002Y284087D01*
X312561Y284661D01*
X311987Y285102D01*
X311318Y285379D01*
X310600Y285474D01*
X309882Y285379D01*
X309213Y285102D01*
X309024Y284957D01*
X308524Y285203D01*
Y288350D01*
X308429Y289068D01*
X308152Y289737D01*
X307711Y290311D01*
X307361Y290661D01*
X306787Y291102D01*
X306118Y291379D01*
X306045Y291389D01*
Y301900D01*
X305867Y302797D01*
X305358Y303558D01*
X304597Y304067D01*
X304245Y304137D01*
Y305900D01*
X304067Y306797D01*
X303558Y307558D01*
X302958Y308158D01*
X302197Y308667D01*
X301300Y308845D01*
X300403Y308667D01*
X299642Y308158D01*
X299133Y307397D01*
X298955Y306500D01*
X299133Y305603D01*
X299555Y304972D01*
Y299372D01*
X299400Y299245D01*
X298503Y299067D01*
X297742Y298558D01*
X297542Y298358D01*
X297033Y297597D01*
X296855Y296700D01*
X297033Y295803D01*
X297255Y295471D01*
Y290916D01*
X296503Y290767D01*
X295742Y290258D01*
X295233Y289497D01*
X295055Y288600D01*
Y282591D01*
X294678Y282390D01*
X294555Y282375D01*
X293700Y282545D01*
X292803Y282367D01*
X292042Y281858D01*
X291533Y281097D01*
X291355Y280200D01*
Y279250D01*
X290855Y278915D01*
X290200Y279045D01*
X289745Y278955D01*
X289245Y279365D01*
Y331461D01*
X289426Y331610D01*
X290030Y331458D01*
X290126Y331227D01*
X290808Y330339D01*
X291695Y329658D01*
X292729Y329229D01*
X293839Y329083D01*
X294948Y329229D01*
X295982Y329658D01*
X296870Y330339D01*
X297551Y331227D01*
X297979Y332261D01*
X298125Y333370D01*
X297979Y334480D01*
X297551Y335513D01*
X296870Y336401D01*
X296184Y336928D01*
Y414734D01*
X296684Y414886D01*
X296842Y414649D01*
X305413Y406078D01*
X305300Y405221D01*
X305446Y404111D01*
X305874Y403077D01*
X306556Y402189D01*
X307443Y401508D01*
X308477Y401080D01*
X309587Y400934D01*
X310696Y401080D01*
X311730Y401508D01*
X312618Y402189D01*
X313299Y403077D01*
X313727Y404111D01*
X313873Y405221D01*
X313727Y406330D01*
X313299Y407364D01*
X312618Y408252D01*
X311730Y408933D01*
X310696Y409361D01*
X309587Y409507D01*
X308729Y409394D01*
X300845Y417278D01*
Y427567D01*
X301297Y427780D01*
X301608Y427525D01*
X302850Y426861D01*
X304198Y426452D01*
X305600Y426314D01*
X307002Y426452D01*
X308350Y426861D01*
X309592Y427525D01*
X310681Y428419D01*
X311575Y429508D01*
X311953Y430217D01*
X312533Y430241D01*
X313355Y429611D01*
X314438Y429162D01*
X315600Y429009D01*
X316762Y429162D01*
X317845Y429611D01*
X318667Y430242D01*
X319247Y430218D01*
X319626Y429508D01*
X320520Y428420D01*
X321608Y427526D01*
X322851Y426862D01*
X324198Y426453D01*
X325600Y426315D01*
X327002Y426453D01*
X328349Y426862D01*
X329592Y427526D01*
X330680Y428420D01*
X331574Y429508D01*
X332238Y430751D01*
X332646Y432098D01*
X332785Y433500D01*
X332646Y434902D01*
X332238Y436249D01*
X331574Y437492D01*
X330680Y438580D01*
X329592Y439474D01*
X329542Y439500D01*
Y440000D01*
X329592Y440026D01*
X330680Y440920D01*
X331574Y442008D01*
X332238Y443251D01*
X332646Y444598D01*
X332785Y446000D01*
X332646Y447402D01*
X332238Y448749D01*
X331574Y449992D01*
X330680Y451080D01*
X329592Y451974D01*
X328349Y452638D01*
X327002Y453047D01*
X325600Y453185D01*
X324198Y453047D01*
X322971Y452674D01*
X322657Y452860D01*
X322513Y453024D01*
X322575Y453500D01*
X322474Y454270D01*
X322177Y454988D01*
X321704Y455604D01*
X321088Y456077D01*
X320370Y456374D01*
X319600Y456475D01*
X318830Y456374D01*
X318112Y456077D01*
X317496Y455604D01*
X317023Y454988D01*
X316726Y454270D01*
X316624Y453500D01*
X316726Y452730D01*
X317023Y452012D01*
X317496Y451396D01*
X318112Y450923D01*
X318830Y450626D01*
X319435Y450546D01*
X319691Y450071D01*
X319626Y449992D01*
X318962Y448749D01*
X318553Y447402D01*
X318415Y446000D01*
X318553Y444598D01*
X318962Y443251D01*
X319626Y442008D01*
X320520Y440920D01*
X321608Y440026D01*
X321657Y440000D01*
Y439500D01*
X321608Y439474D01*
X320520Y438580D01*
X319626Y437492D01*
X319247Y436782D01*
X318667Y436758D01*
X317845Y437389D01*
X316762Y437838D01*
X315600Y437991D01*
X314438Y437838D01*
X313355Y437389D01*
X312533Y436759D01*
X311953Y436783D01*
X311575Y437492D01*
X310681Y438581D01*
X309592Y439475D01*
X309544Y439501D01*
Y440001D01*
X309592Y440026D01*
X310680Y440920D01*
X311574Y442008D01*
X312238Y443251D01*
X312647Y444598D01*
X312785Y446000D01*
X312647Y447402D01*
X312238Y448749D01*
X311574Y449992D01*
X311509Y450071D01*
X311765Y450546D01*
X312370Y450626D01*
X313088Y450923D01*
X313704Y451396D01*
X314177Y452012D01*
X314474Y452730D01*
X314576Y453500D01*
X314474Y454270D01*
X314177Y454988D01*
X313704Y455604D01*
X313088Y456077D01*
X312370Y456374D01*
X311600Y456475D01*
X310830Y456374D01*
X310112Y456077D01*
X309496Y455604D01*
X309023Y454988D01*
X308726Y454270D01*
X308625Y453500D01*
X308687Y453024D01*
X308543Y452860D01*
X308229Y452674D01*
X307002Y453047D01*
X305600Y453185D01*
X304198Y453047D01*
X302851Y452638D01*
X301608Y451974D01*
X300520Y451080D01*
X299626Y449992D01*
X298962Y448749D01*
X298553Y447402D01*
X298415Y446000D01*
X298553Y444598D01*
X298962Y443251D01*
X299626Y442008D01*
X300520Y440920D01*
X301608Y440026D01*
X301656Y440001D01*
Y439501D01*
X301608Y439475D01*
X301144Y439094D01*
X300747Y439236D01*
X300644Y439331D01*
X300158Y440058D01*
X299558Y440658D01*
X298797Y441167D01*
X297900Y441345D01*
X297003Y441167D01*
X296684Y440953D01*
X296184Y441221D01*
Y457139D01*
X296005Y458036D01*
X295497Y458797D01*
X294736Y459305D01*
X293839Y459484D01*
X292941Y459305D01*
X292180Y458797D01*
X291672Y458036D01*
X291494Y457139D01*
Y452671D01*
X290993Y452612D01*
X290969Y452712D01*
X290156Y454675D01*
X289046Y456487D01*
X287666Y458103D01*
X286050Y459483D01*
X284238Y460593D01*
X282275Y461407D01*
X280209Y461903D01*
X278091Y462069D01*
D02*
G37*
G36*
X336200Y442045D02*
X335303Y441867D01*
X334542Y441358D01*
X334033Y440597D01*
X333855Y439700D01*
Y420900D01*
Y418371D01*
X328057Y412574D01*
X327200Y412687D01*
X326091Y412541D01*
X325057Y412112D01*
X324169Y411431D01*
X323488Y410543D01*
X323059Y409510D01*
X322913Y408400D01*
X323059Y407291D01*
X323488Y406257D01*
X324169Y405369D01*
X325057Y404688D01*
X326091Y404259D01*
X327200Y404113D01*
X328309Y404259D01*
X329343Y404688D01*
X330231Y405369D01*
X330912Y406257D01*
X331341Y407291D01*
X331487Y408400D01*
X331374Y409257D01*
X337858Y415742D01*
X338367Y416503D01*
X338545Y417400D01*
Y420900D01*
Y439700D01*
X338367Y440597D01*
X337858Y441358D01*
X337097Y441867D01*
X336200Y442045D01*
D02*
G37*
G36*
X242200Y449745D02*
X241303Y449567D01*
X240542Y449058D01*
X240033Y448297D01*
X239855Y447400D01*
Y447127D01*
X239500Y446835D01*
X238798Y446696D01*
X238202Y446298D01*
X237804Y445702D01*
X237665Y445000D01*
X237804Y444298D01*
X238202Y443702D01*
X238798Y443304D01*
X239500Y443165D01*
X240202Y443304D01*
X240391Y443267D01*
X240542Y443042D01*
X240955Y442628D01*
X240827Y442049D01*
X240242Y441658D01*
X239733Y440897D01*
X239555Y440000D01*
Y439871D01*
X236242Y436558D01*
X235733Y435797D01*
X235555Y434900D01*
Y340800D01*
X235733Y339903D01*
X236242Y339142D01*
X236264Y339127D01*
X236372Y338453D01*
X236204Y338202D01*
X236065Y337500D01*
X236204Y336798D01*
X236602Y336202D01*
X237198Y335804D01*
X237900Y335665D01*
X238602Y335804D01*
X239198Y336202D01*
X239596Y336798D01*
X239735Y337500D01*
X239596Y338202D01*
X239428Y338453D01*
X239536Y339127D01*
X239558Y339142D01*
X240067Y339903D01*
X240245Y340800D01*
Y355534D01*
X240745Y355686D01*
X241042Y355242D01*
X241055Y355229D01*
Y330267D01*
X240698Y330196D01*
X240102Y329798D01*
X239704Y329202D01*
X239565Y328500D01*
X239704Y327798D01*
X240102Y327202D01*
X240698Y326804D01*
X241055Y326733D01*
Y299971D01*
X238642Y297558D01*
X238133Y296797D01*
X237955Y295900D01*
X238133Y295003D01*
X238642Y294242D01*
X239403Y293733D01*
X240300Y293555D01*
X241197Y293733D01*
X241958Y294242D01*
X245058Y297342D01*
X245567Y298103D01*
X245745Y299000D01*
Y356200D01*
X245567Y357097D01*
X245058Y357858D01*
X244358Y358558D01*
X243597Y359067D01*
X242700Y359245D01*
X241803Y359067D01*
X241042Y358558D01*
X240745Y358114D01*
X240245Y358266D01*
Y433929D01*
X241864Y435548D01*
X242326Y435357D01*
Y395914D01*
X242121Y395418D01*
X242026Y394700D01*
X242121Y393982D01*
X242398Y393313D01*
X242839Y392739D01*
X242939Y392639D01*
X243513Y392198D01*
X244182Y391921D01*
X244900Y391826D01*
X245618Y391921D01*
X246287Y392198D01*
X246861Y392639D01*
X247302Y393213D01*
X247428Y393516D01*
X247502Y393613D01*
X247779Y394282D01*
X247874Y395000D01*
Y441800D01*
X247779Y442518D01*
X247502Y443187D01*
X247061Y443761D01*
X246487Y444202D01*
X245818Y444479D01*
X245725Y444491D01*
X244545Y445671D01*
Y447400D01*
X244367Y448297D01*
X243858Y449058D01*
X243097Y449567D01*
X242200Y449745D01*
D02*
G37*
G36*
X150900Y392735D02*
X150198Y392596D01*
X149602Y392198D01*
X149204Y391602D01*
X149065Y390900D01*
X149204Y390198D01*
X149602Y389602D01*
X150198Y389204D01*
X150900Y389065D01*
X151602Y389204D01*
X152198Y389602D01*
X152596Y390198D01*
X152735Y390900D01*
X152596Y391602D01*
X152198Y392198D01*
X151602Y392596D01*
X150900Y392735D01*
D02*
G37*
G36*
X158100Y390535D02*
X157398Y390396D01*
X156802Y389998D01*
X156404Y389402D01*
X156265Y388700D01*
X156404Y387998D01*
X156802Y387402D01*
X157398Y387004D01*
X158100Y386865D01*
X158802Y387004D01*
X159398Y387402D01*
X159796Y387998D01*
X159935Y388700D01*
X159796Y389402D01*
X159398Y389998D01*
X158802Y390396D01*
X158100Y390535D01*
D02*
G37*
G36*
X327461Y390578D02*
X326482Y390449D01*
X325570Y390071D01*
X324786Y389470D01*
X324185Y388686D01*
X323807Y387774D01*
X323678Y386795D01*
X323807Y385816D01*
X324185Y384904D01*
X324786Y384121D01*
X325570Y383520D01*
X326482Y383142D01*
X327461Y383013D01*
X328440Y383142D01*
X329352Y383520D01*
X330135Y384121D01*
X330736Y384904D01*
X331114Y385816D01*
X331243Y386795D01*
X331114Y387774D01*
X330736Y388686D01*
X330135Y389470D01*
X329352Y390071D01*
X328440Y390449D01*
X327461Y390578D01*
D02*
G37*
G36*
X317461D02*
X316482Y390449D01*
X315569Y390071D01*
X314786Y389470D01*
X314185Y388686D01*
X313807Y387774D01*
X313678Y386795D01*
X313807Y385816D01*
X314185Y384904D01*
X314786Y384121D01*
X315569Y383520D01*
X316482Y383142D01*
X317461Y383013D01*
X318440Y383142D01*
X319352Y383520D01*
X320135Y384121D01*
X320736Y384904D01*
X321114Y385816D01*
X321243Y386795D01*
X321114Y387774D01*
X320736Y388686D01*
X320135Y389470D01*
X319352Y390071D01*
X318440Y390449D01*
X317461Y390578D01*
D02*
G37*
G36*
X327461Y380578D02*
X326482Y380449D01*
X325570Y380071D01*
X324786Y379470D01*
X324185Y378686D01*
X323807Y377774D01*
X323678Y376795D01*
X323807Y375816D01*
X324185Y374904D01*
X324786Y374121D01*
X325570Y373520D01*
X326482Y373142D01*
X327461Y373013D01*
X328440Y373142D01*
X329352Y373520D01*
X330135Y374121D01*
X330736Y374904D01*
X331114Y375816D01*
X331243Y376795D01*
X331114Y377774D01*
X330736Y378686D01*
X330135Y379470D01*
X329352Y380071D01*
X328440Y380449D01*
X327461Y380578D01*
D02*
G37*
G36*
X317461D02*
X316482Y380449D01*
X315569Y380071D01*
X314786Y379470D01*
X314185Y378686D01*
X313807Y377774D01*
X313678Y376795D01*
X313807Y375816D01*
X314185Y374904D01*
X314786Y374121D01*
X315569Y373520D01*
X316482Y373142D01*
X317461Y373013D01*
X318440Y373142D01*
X319352Y373520D01*
X320135Y374121D01*
X320736Y374904D01*
X321114Y375816D01*
X321243Y376795D01*
X321114Y377774D01*
X320736Y378686D01*
X320135Y379470D01*
X319352Y380071D01*
X318440Y380449D01*
X317461Y380578D01*
D02*
G37*
G36*
X162200Y373835D02*
X161498Y373696D01*
X160902Y373298D01*
X160504Y372702D01*
X160365Y372000D01*
X160504Y371298D01*
X160902Y370702D01*
X161498Y370304D01*
X162200Y370165D01*
X162902Y370304D01*
X163498Y370702D01*
X163896Y371298D01*
X164035Y372000D01*
X163896Y372702D01*
X163498Y373298D01*
X162902Y373696D01*
X162200Y373835D01*
D02*
G37*
G36*
X147700Y371135D02*
X146998Y370996D01*
X146402Y370598D01*
X146004Y370002D01*
X145865Y369300D01*
X146004Y368598D01*
X146402Y368002D01*
X146998Y367604D01*
X147700Y367465D01*
X148402Y367604D01*
X148998Y368002D01*
X149396Y368598D01*
X149535Y369300D01*
X149396Y370002D01*
X148998Y370598D01*
X148402Y370996D01*
X147700Y371135D01*
D02*
G37*
G36*
X327461Y370578D02*
X326482Y370449D01*
X325570Y370071D01*
X324786Y369470D01*
X324185Y368687D01*
X323807Y367774D01*
X323678Y366795D01*
X323807Y365816D01*
X324185Y364904D01*
X324786Y364121D01*
X325570Y363520D01*
X326482Y363142D01*
X327461Y363013D01*
X328440Y363142D01*
X329352Y363520D01*
X330135Y364121D01*
X330736Y364904D01*
X331114Y365816D01*
X331243Y366795D01*
X331114Y367774D01*
X330736Y368687D01*
X330135Y369470D01*
X329352Y370071D01*
X328440Y370449D01*
X327461Y370578D01*
D02*
G37*
G36*
X317461D02*
X316482Y370449D01*
X315569Y370071D01*
X314786Y369470D01*
X314185Y368687D01*
X313807Y367774D01*
X313678Y366795D01*
X313807Y365816D01*
X314185Y364904D01*
X314786Y364121D01*
X315569Y363520D01*
X316482Y363142D01*
X317461Y363013D01*
X318440Y363142D01*
X319352Y363520D01*
X320135Y364121D01*
X320736Y364904D01*
X321114Y365816D01*
X321243Y366795D01*
X321114Y367774D01*
X320736Y368687D01*
X320135Y369470D01*
X319352Y370071D01*
X318440Y370449D01*
X317461Y370578D01*
D02*
G37*
G36*
Y360578D02*
X316482Y360449D01*
X315569Y360071D01*
X314786Y359470D01*
X314185Y358686D01*
X313807Y357774D01*
X313678Y356795D01*
X313807Y355816D01*
X314185Y354904D01*
X314786Y354121D01*
X315569Y353520D01*
X316482Y353142D01*
X317461Y353013D01*
X318440Y353142D01*
X319352Y353520D01*
X320135Y354121D01*
X320736Y354904D01*
X321114Y355816D01*
X321243Y356795D01*
X321114Y357774D01*
X320736Y358686D01*
X320135Y359470D01*
X319352Y360071D01*
X318440Y360449D01*
X317461Y360578D01*
D02*
G37*
G36*
X222000Y364845D02*
X221103Y364667D01*
X220342Y364158D01*
X219833Y363397D01*
X219655Y362500D01*
Y351853D01*
X219155Y351804D01*
X219096Y352102D01*
X218698Y352698D01*
X218102Y353096D01*
X217400Y353235D01*
X216698Y353096D01*
X216102Y352698D01*
X215704Y352102D01*
X215565Y351400D01*
X215704Y350698D01*
X216102Y350102D01*
X216698Y349704D01*
X217400Y349565D01*
X218102Y349704D01*
X218698Y350102D01*
X219096Y350698D01*
X219155Y350996D01*
X219655Y350947D01*
Y348200D01*
X219833Y347303D01*
X220342Y346542D01*
X220542Y346342D01*
X221303Y345833D01*
X222200Y345655D01*
X223097Y345833D01*
X223858Y346342D01*
X224367Y347103D01*
X224545Y348000D01*
X224367Y348897D01*
X224345Y348930D01*
Y362500D01*
X224167Y363397D01*
X223658Y364158D01*
X222897Y364667D01*
X222000Y364845D01*
D02*
G37*
G36*
X271000Y354035D02*
X270298Y353896D01*
X269702Y353498D01*
X269304Y352902D01*
X269165Y352200D01*
X269304Y351498D01*
X269702Y350902D01*
X270298Y350504D01*
X271000Y350365D01*
X271702Y350504D01*
X272298Y350902D01*
X272696Y351498D01*
X272835Y352200D01*
X272696Y352902D01*
X272298Y353498D01*
X271702Y353896D01*
X271000Y354035D01*
D02*
G37*
G36*
X229100Y384545D02*
X228203Y384367D01*
X227442Y383858D01*
X226933Y383097D01*
X226755Y382200D01*
Y351300D01*
X226933Y350403D01*
X227442Y349642D01*
X227642Y349442D01*
X228403Y348933D01*
X229300Y348755D01*
X230197Y348933D01*
X230958Y349442D01*
X231467Y350203D01*
X231645Y351100D01*
X231467Y351997D01*
X231445Y352030D01*
Y382200D01*
X231267Y383097D01*
X230758Y383858D01*
X229997Y384367D01*
X229100Y384545D01*
D02*
G37*
G36*
X317461Y350578D02*
X316482Y350449D01*
X315569Y350071D01*
X314786Y349470D01*
X314185Y348687D01*
X313807Y347774D01*
X313678Y346795D01*
X313807Y345816D01*
X314185Y344904D01*
X314786Y344121D01*
X315569Y343520D01*
X316482Y343142D01*
X317461Y343013D01*
X318440Y343142D01*
X319352Y343520D01*
X320135Y344121D01*
X320736Y344904D01*
X321114Y345816D01*
X321243Y346795D01*
X321114Y347774D01*
X320736Y348687D01*
X320135Y349470D01*
X319352Y350071D01*
X318440Y350449D01*
X317461Y350578D01*
D02*
G37*
G36*
X270100Y346535D02*
X269398Y346396D01*
X268802Y345998D01*
X268404Y345402D01*
X268265Y344700D01*
X268404Y343998D01*
X268802Y343402D01*
X269398Y343004D01*
X270100Y342865D01*
X270802Y343004D01*
X271398Y343402D01*
X271796Y343998D01*
X271935Y344700D01*
X271796Y345402D01*
X271398Y345998D01*
X270802Y346396D01*
X270100Y346535D01*
D02*
G37*
G36*
X268200Y342335D02*
X267498Y342196D01*
X266902Y341798D01*
X266504Y341202D01*
X266365Y340500D01*
X266504Y339798D01*
X266902Y339202D01*
X267498Y338804D01*
X267545Y338795D01*
X267849Y338225D01*
X267765Y337800D01*
X267904Y337098D01*
X268302Y336502D01*
X268898Y336104D01*
X269600Y335965D01*
X270302Y336104D01*
X270898Y336502D01*
X271296Y337098D01*
X271435Y337800D01*
X271296Y338502D01*
X270898Y339098D01*
X270302Y339496D01*
X270255Y339505D01*
X269951Y340075D01*
X270035Y340500D01*
X269896Y341202D01*
X269498Y341798D01*
X268902Y342196D01*
X268200Y342335D01*
D02*
G37*
G36*
X317461Y340578D02*
X316482Y340449D01*
X315569Y340071D01*
X314786Y339470D01*
X314185Y338686D01*
X313807Y337774D01*
X313678Y336795D01*
X313807Y335816D01*
X314185Y334904D01*
X314786Y334121D01*
X315569Y333520D01*
X316482Y333142D01*
X317461Y333013D01*
X318440Y333142D01*
X319352Y333520D01*
X320135Y334121D01*
X320736Y334904D01*
X321114Y335816D01*
X321243Y336795D01*
X321114Y337774D01*
X320736Y338686D01*
X320135Y339470D01*
X319352Y340071D01*
X318440Y340449D01*
X317461Y340578D01*
D02*
G37*
G36*
X304800Y350845D02*
X303903Y350667D01*
X303142Y350158D01*
X302633Y349397D01*
X302455Y348500D01*
Y333903D01*
X302355Y333400D01*
X302533Y332503D01*
X303042Y331742D01*
X303803Y331233D01*
X304700Y331055D01*
X305597Y331233D01*
X306358Y331742D01*
X306458Y331842D01*
X306967Y332603D01*
X307145Y333500D01*
Y348500D01*
X306967Y349397D01*
X306458Y350158D01*
X305697Y350667D01*
X304800Y350845D01*
D02*
G37*
G36*
X181600Y380874D02*
X180882Y380779D01*
X180213Y380502D01*
X179639Y380061D01*
X179198Y379487D01*
X178921Y378818D01*
X178826Y378100D01*
X178921Y377382D01*
X178926Y377369D01*
Y328300D01*
Y312249D01*
X174939Y308261D01*
X174498Y307687D01*
X174221Y307018D01*
X174126Y306300D01*
Y303273D01*
X173626Y302963D01*
X172932Y303251D01*
X171900Y303387D01*
X170868Y303251D01*
X169907Y302853D01*
X169081Y302219D01*
X168447Y301393D01*
X168049Y300432D01*
X167913Y299400D01*
X168049Y298368D01*
X168447Y297407D01*
X169081Y296581D01*
X169907Y295947D01*
X170868Y295549D01*
X171900Y295413D01*
X172932Y295549D01*
X173626Y295837D01*
X174126Y295527D01*
Y285431D01*
X174121Y285418D01*
X174026Y284700D01*
X174121Y283982D01*
X174398Y283313D01*
X174839Y282739D01*
X175413Y282298D01*
X176082Y282021D01*
X176800Y281926D01*
X177518Y282021D01*
X178187Y282298D01*
X178761Y282739D01*
X178861Y282839D01*
X179302Y283413D01*
X179579Y284082D01*
X179674Y284800D01*
Y295527D01*
X180174Y295837D01*
X180868Y295549D01*
X181900Y295413D01*
X182932Y295549D01*
X183893Y295947D01*
X184719Y296581D01*
X184855Y296758D01*
X185355Y296588D01*
Y244679D01*
X184855Y244509D01*
X184661Y244761D01*
X184087Y245202D01*
X183418Y245479D01*
X182700Y245574D01*
X181982Y245479D01*
X181313Y245202D01*
X180739Y244761D01*
X180639Y244661D01*
X180198Y244087D01*
X179921Y243418D01*
X179826Y242700D01*
Y215000D01*
X179921Y214282D01*
X180198Y213613D01*
X180639Y213039D01*
X181213Y212598D01*
X181882Y212321D01*
X182600Y212226D01*
X183318Y212321D01*
X183987Y212598D01*
X184561Y213039D01*
X185002Y213613D01*
X185279Y214282D01*
X185374Y215000D01*
Y239342D01*
X185874Y239493D01*
X186042Y239242D01*
X186142Y239142D01*
X186903Y238633D01*
X187800Y238455D01*
X188697Y238633D01*
X189206Y238973D01*
X189539Y238539D01*
X190113Y238098D01*
X190782Y237821D01*
X191500Y237726D01*
X192218Y237821D01*
X192252Y237835D01*
X192690Y237475D01*
X192655Y237300D01*
Y236613D01*
X192363Y236476D01*
X192155Y236426D01*
X191602Y236796D01*
X190900Y236935D01*
X190198Y236796D01*
X189602Y236398D01*
X189204Y235802D01*
X189065Y235103D01*
X189037Y234968D01*
X188728Y234660D01*
X188300Y234745D01*
X187403Y234567D01*
X186642Y234058D01*
X186133Y233297D01*
X185955Y232400D01*
X186055Y231897D01*
Y209500D01*
X186233Y208603D01*
X186742Y207842D01*
X187503Y207333D01*
X188400Y207155D01*
X189297Y207333D01*
X190058Y207842D01*
X190567Y208603D01*
X190745Y209500D01*
Y232300D01*
X190645Y232806D01*
X190712Y232927D01*
X191056Y233296D01*
X191602Y233404D01*
X192155Y233774D01*
X192363Y233724D01*
X192655Y233587D01*
Y217100D01*
X192833Y216203D01*
X193052Y215875D01*
X192733Y215397D01*
X192555Y214500D01*
Y208800D01*
X192733Y207903D01*
X193242Y207142D01*
X193642Y206742D01*
X194403Y206233D01*
X195300Y206055D01*
X196197Y206233D01*
X196958Y206742D01*
X197467Y207503D01*
X197645Y208400D01*
X197467Y209297D01*
X197245Y209629D01*
Y213529D01*
X198658Y214942D01*
X199071Y215560D01*
X199600Y215455D01*
X200497Y215633D01*
X201258Y216142D01*
X201767Y216903D01*
X201945Y217800D01*
Y325585D01*
X202407Y325777D01*
X204442Y323742D01*
X205203Y323233D01*
X206100Y323055D01*
X206997Y323233D01*
X207758Y323742D01*
X208267Y324503D01*
X208445Y325400D01*
X208267Y326297D01*
X208278Y326355D01*
X208558Y326542D01*
X209067Y327303D01*
X209245Y328200D01*
Y329200D01*
X209067Y330097D01*
X208794Y330505D01*
X209095Y330956D01*
X209600Y330855D01*
X210497Y331033D01*
X211258Y331542D01*
X211767Y332303D01*
X211945Y333200D01*
Y364870D01*
X211967Y364903D01*
X212145Y365800D01*
X211967Y366697D01*
X211458Y367458D01*
X210697Y367967D01*
X209800Y368145D01*
X208903Y367967D01*
X208702Y367833D01*
X208252Y368133D01*
X208345Y368600D01*
X208167Y369497D01*
X207658Y370258D01*
X206897Y370767D01*
X206000Y370945D01*
X205845Y371072D01*
Y373297D01*
X205945Y373800D01*
X205767Y374697D01*
X205258Y375458D01*
X204497Y375967D01*
X203600Y376145D01*
X202703Y375967D01*
X201942Y375458D01*
X201842Y375358D01*
X201333Y374597D01*
X201155Y373700D01*
Y350302D01*
X200655Y350253D01*
X200567Y350697D01*
X200058Y351458D01*
X199297Y351967D01*
X198400Y352145D01*
X197503Y351967D01*
X196742Y351458D01*
X193042Y347758D01*
X192533Y346997D01*
X192355Y346100D01*
Y257033D01*
X191855Y256627D01*
X191500Y256674D01*
X190782Y256579D01*
X190545Y256481D01*
X190045Y256815D01*
Y306600D01*
X189867Y307497D01*
X189358Y308258D01*
X188597Y308767D01*
X187700Y308945D01*
X186803Y308767D01*
X186042Y308258D01*
X185533Y307497D01*
X185355Y306600D01*
Y302212D01*
X184855Y302042D01*
X184719Y302219D01*
X183893Y302853D01*
X182932Y303251D01*
X181900Y303387D01*
X180868Y303251D01*
X180174Y302963D01*
X179674Y303273D01*
Y305151D01*
X183661Y309139D01*
X184102Y309713D01*
X184379Y310382D01*
X184474Y311100D01*
Y328300D01*
Y378000D01*
X184379Y378718D01*
X184102Y379387D01*
X183661Y379961D01*
X183561Y380061D01*
X182987Y380502D01*
X182318Y380779D01*
X181600Y380874D01*
D02*
G37*
G36*
X233000Y336845D02*
X232103Y336667D01*
X231342Y336158D01*
X230833Y335397D01*
X230655Y334500D01*
Y304271D01*
X230642Y304258D01*
X230133Y303497D01*
X229955Y302600D01*
X230133Y301703D01*
X230642Y300942D01*
X231163Y300594D01*
X231065Y300100D01*
X231204Y299398D01*
X231602Y298802D01*
X232198Y298404D01*
X232900Y298265D01*
X233602Y298404D01*
X234198Y298802D01*
X234399Y299104D01*
X234698Y298904D01*
X235400Y298765D01*
X236102Y298904D01*
X236698Y299302D01*
X237096Y299898D01*
X237235Y300600D01*
X237096Y301302D01*
X236698Y301898D01*
X236102Y302296D01*
X235672Y302381D01*
X235289Y302845D01*
X235269Y302919D01*
X235345Y303300D01*
Y327661D01*
X235732Y327978D01*
X235800Y327965D01*
X236502Y328104D01*
X237098Y328502D01*
X237496Y329098D01*
X237635Y329800D01*
X237496Y330502D01*
X237098Y331098D01*
X236502Y331496D01*
X235800Y331635D01*
X235732Y331622D01*
X235345Y331939D01*
Y334500D01*
X235167Y335397D01*
X234658Y336158D01*
X233897Y336667D01*
X233000Y336845D01*
D02*
G37*
G36*
X317461Y330578D02*
X316482Y330449D01*
X315569Y330071D01*
X314786Y329470D01*
X314185Y328686D01*
X313807Y327774D01*
X313678Y326795D01*
X313807Y325816D01*
X314185Y324904D01*
X314786Y324121D01*
X315569Y323520D01*
X316482Y323142D01*
X317461Y323013D01*
X318440Y323142D01*
X319352Y323520D01*
X320135Y324121D01*
X320736Y324904D01*
X321114Y325816D01*
X321243Y326795D01*
X321114Y327774D01*
X320736Y328686D01*
X320135Y329470D01*
X319352Y330071D01*
X318440Y330449D01*
X317461Y330578D01*
D02*
G37*
G36*
X167400Y322835D02*
X166698Y322696D01*
X166102Y322298D01*
X165704Y321702D01*
X165565Y321000D01*
X165704Y320298D01*
X166102Y319702D01*
X166698Y319304D01*
X167400Y319165D01*
X168102Y319304D01*
X168698Y319702D01*
X169096Y320298D01*
X169235Y321000D01*
X169096Y321702D01*
X168698Y322298D01*
X168102Y322696D01*
X167400Y322835D01*
D02*
G37*
G36*
X208200Y318435D02*
X207498Y318296D01*
X206902Y317898D01*
X206504Y317302D01*
X206365Y316600D01*
X206504Y315898D01*
X206902Y315302D01*
X207498Y314904D01*
X208200Y314765D01*
X208902Y314904D01*
X209498Y315302D01*
X209896Y315898D01*
X210035Y316600D01*
X209896Y317302D01*
X209498Y317898D01*
X208902Y318296D01*
X208200Y318435D01*
D02*
G37*
G36*
X317461Y320578D02*
X316482Y320449D01*
X315569Y320071D01*
X314786Y319470D01*
X314185Y318687D01*
X313807Y317774D01*
X313678Y316795D01*
X313807Y315816D01*
X314185Y314904D01*
X314786Y314121D01*
X315569Y313520D01*
X316482Y313142D01*
X317461Y313013D01*
X318440Y313142D01*
X319352Y313520D01*
X320135Y314121D01*
X320736Y314904D01*
X321114Y315816D01*
X321243Y316795D01*
X321114Y317774D01*
X320736Y318687D01*
X320135Y319470D01*
X319352Y320071D01*
X318440Y320449D01*
X317461Y320578D01*
D02*
G37*
G36*
Y310578D02*
X316482Y310449D01*
X315569Y310071D01*
X314786Y309470D01*
X314185Y308686D01*
X313807Y307774D01*
X313678Y306795D01*
X313807Y305816D01*
X314185Y304904D01*
X314786Y304121D01*
X315569Y303520D01*
X316482Y303142D01*
X317461Y303013D01*
X318440Y303142D01*
X319352Y303520D01*
X320135Y304121D01*
X320736Y304904D01*
X321114Y305816D01*
X321243Y306795D01*
X321114Y307774D01*
X320736Y308686D01*
X320135Y309470D01*
X319352Y310071D01*
X318440Y310449D01*
X317461Y310578D01*
D02*
G37*
G36*
X160600Y305845D02*
X159703Y305667D01*
X158942Y305158D01*
X158433Y304397D01*
X158255Y303500D01*
Y302659D01*
X157755Y302489D01*
X157596Y302696D01*
X156865Y303257D01*
X156014Y303610D01*
X155100Y303730D01*
X154186Y303610D01*
X153335Y303257D01*
X152604Y302696D01*
X152043Y301965D01*
X151690Y301114D01*
X151570Y300200D01*
X151690Y299286D01*
X152043Y298435D01*
X152604Y297704D01*
X153335Y297143D01*
X154186Y296790D01*
X155100Y296670D01*
X156014Y296790D01*
X156865Y297143D01*
X157596Y297704D01*
X157755Y297911D01*
X158255Y297741D01*
Y264100D01*
X158433Y263203D01*
X158942Y262442D01*
X159703Y261933D01*
X160600Y261755D01*
X161497Y261933D01*
X162258Y262442D01*
X162767Y263203D01*
X162945Y264100D01*
Y303500D01*
X162767Y304397D01*
X162258Y305158D01*
X161497Y305667D01*
X160600Y305845D01*
D02*
G37*
G36*
X292900Y313245D02*
X292003Y313067D01*
X291242Y312558D01*
X290733Y311797D01*
X290555Y310900D01*
X290733Y310003D01*
X290955Y309671D01*
Y296000D01*
X291133Y295103D01*
X291642Y294342D01*
X292403Y293833D01*
X293300Y293655D01*
X294197Y293833D01*
X294958Y294342D01*
X295467Y295103D01*
X295645Y296000D01*
Y310500D01*
X295645Y310500D01*
X295467Y311397D01*
X294958Y312158D01*
X294958Y312158D01*
X294558Y312558D01*
X293797Y313067D01*
X292900Y313245D01*
D02*
G37*
G36*
X327461Y300578D02*
X326482Y300449D01*
X325570Y300071D01*
X324786Y299470D01*
X324185Y298687D01*
X323807Y297774D01*
X323678Y296795D01*
X323807Y295816D01*
X324185Y294904D01*
X324786Y294121D01*
X325570Y293520D01*
X326482Y293142D01*
X327461Y293013D01*
X328440Y293142D01*
X329352Y293520D01*
X330135Y294121D01*
X330736Y294904D01*
X331114Y295816D01*
X331243Y296795D01*
X331114Y297774D01*
X330736Y298687D01*
X330135Y299470D01*
X329352Y300071D01*
X328440Y300449D01*
X327461Y300578D01*
D02*
G37*
G36*
X317461D02*
X316482Y300449D01*
X315569Y300071D01*
X314786Y299470D01*
X314185Y298687D01*
X313807Y297774D01*
X313678Y296795D01*
X313807Y295816D01*
X314185Y294904D01*
X314786Y294121D01*
X315569Y293520D01*
X316482Y293142D01*
X317461Y293013D01*
X318440Y293142D01*
X319352Y293520D01*
X320135Y294121D01*
X320736Y294904D01*
X321114Y295816D01*
X321243Y296795D01*
X321114Y297774D01*
X320736Y298687D01*
X320135Y299470D01*
X319352Y300071D01*
X318440Y300449D01*
X317461Y300578D01*
D02*
G37*
G36*
X219200Y345445D02*
X218303Y345267D01*
X217542Y344758D01*
X217033Y343997D01*
X216855Y343100D01*
X217033Y342203D01*
X217055Y342170D01*
Y316007D01*
X216998Y315996D01*
X216402Y315598D01*
X216004Y315002D01*
X215865Y314300D01*
X216004Y313598D01*
X216402Y313002D01*
X216998Y312604D01*
X217055Y312593D01*
Y294830D01*
X217033Y294797D01*
X216855Y293900D01*
X217033Y293003D01*
X217317Y292579D01*
X217087Y292023D01*
X216803Y291967D01*
X216042Y291458D01*
X215212Y290628D01*
X214893Y290689D01*
X214697Y290792D01*
X214596Y291302D01*
X214198Y291898D01*
X213602Y292296D01*
X212900Y292435D01*
X212198Y292296D01*
X211602Y291898D01*
X211204Y291302D01*
X211065Y290600D01*
X211204Y289898D01*
X211602Y289302D01*
X212198Y288904D01*
X212900Y288765D01*
X213602Y288904D01*
X213999Y289169D01*
X214387Y288940D01*
X214455Y288873D01*
Y268575D01*
X214333Y268393D01*
X214155Y267496D01*
Y250359D01*
X213655Y250189D01*
X213208Y250771D01*
X212320Y251452D01*
X211287Y251881D01*
X210177Y252027D01*
X209068Y251881D01*
X208034Y251452D01*
X207146Y250771D01*
X206465Y249884D01*
X206037Y248850D01*
X205890Y247740D01*
X206037Y246631D01*
X206465Y245597D01*
X207146Y244709D01*
X208034Y244028D01*
X209068Y243600D01*
X210177Y243454D01*
X211287Y243600D01*
X212320Y244028D01*
X213208Y244709D01*
X213655Y245291D01*
X214155Y245121D01*
Y215062D01*
X214000Y214935D01*
X213298Y214796D01*
X212702Y214398D01*
X212304Y213802D01*
X212165Y213100D01*
X212304Y212398D01*
X212702Y211802D01*
X213298Y211404D01*
X214000Y211265D01*
X214155Y211138D01*
Y203000D01*
X214333Y202103D01*
X214842Y201342D01*
X215342Y200842D01*
X216103Y200333D01*
X217000Y200155D01*
X217897Y200333D01*
X218658Y200842D01*
X219167Y201603D01*
X219345Y202500D01*
X219167Y203397D01*
X218845Y203879D01*
Y213820D01*
X218900Y213865D01*
X219602Y214004D01*
X220198Y214402D01*
X220596Y214998D01*
X220735Y215700D01*
X220596Y216402D01*
X220198Y216998D01*
X219602Y217396D01*
X218900Y217535D01*
X218845Y217580D01*
Y222614D01*
X219302Y222704D01*
X219898Y223102D01*
X220296Y223698D01*
X220435Y224400D01*
X220296Y225102D01*
X219898Y225698D01*
X219302Y226096D01*
X218845Y226186D01*
Y233493D01*
X218902Y233504D01*
X219455Y233874D01*
X219663Y233824D01*
X219955Y233687D01*
Y232500D01*
X220133Y231603D01*
X220642Y230842D01*
X221403Y230333D01*
X222300Y230155D01*
X223197Y230333D01*
X223958Y230842D01*
X224467Y231603D01*
X224645Y232500D01*
Y240129D01*
X225658Y241142D01*
X225658Y241142D01*
X226167Y241903D01*
X226345Y242800D01*
Y264100D01*
X226167Y264997D01*
X225945Y265329D01*
Y287200D01*
X225767Y288097D01*
X225258Y288858D01*
X224497Y289367D01*
X223600Y289545D01*
X223362Y289783D01*
X223445Y290200D01*
X223267Y291097D01*
X222758Y291858D01*
X221997Y292367D01*
X221565Y292453D01*
X221374Y292914D01*
X221567Y293203D01*
X221745Y294100D01*
Y312838D01*
X221900Y312965D01*
X222602Y313104D01*
X223198Y313502D01*
X223596Y314098D01*
X223735Y314800D01*
X223596Y315502D01*
X223198Y316098D01*
X222602Y316496D01*
X221900Y316635D01*
X221745Y316762D01*
Y342900D01*
X221567Y343797D01*
X221058Y344558D01*
X220858Y344758D01*
X220097Y345267D01*
X219200Y345445D01*
D02*
G37*
G36*
X327461Y290578D02*
X326482Y290449D01*
X325570Y290071D01*
X324786Y289470D01*
X324185Y288686D01*
X323807Y287774D01*
X323678Y286795D01*
X323807Y285816D01*
X324185Y284904D01*
X324786Y284121D01*
X325570Y283520D01*
X326482Y283142D01*
X327461Y283013D01*
X328440Y283142D01*
X329352Y283520D01*
X330135Y284121D01*
X330736Y284904D01*
X331114Y285816D01*
X331243Y286795D01*
X331114Y287774D01*
X330736Y288686D01*
X330135Y289470D01*
X329352Y290071D01*
X328440Y290449D01*
X327461Y290578D01*
D02*
G37*
G36*
Y280578D02*
X326482Y280449D01*
X325570Y280071D01*
X324786Y279470D01*
X324185Y278686D01*
X323807Y277774D01*
X323678Y276795D01*
X323807Y275816D01*
X324185Y274904D01*
X324786Y274121D01*
X325570Y273520D01*
X326482Y273142D01*
X327461Y273013D01*
X328440Y273142D01*
X329352Y273520D01*
X330135Y274121D01*
X330736Y274904D01*
X331114Y275816D01*
X331243Y276795D01*
X331114Y277774D01*
X330736Y278686D01*
X330135Y279470D01*
X329352Y280071D01*
X328440Y280449D01*
X327461Y280578D01*
D02*
G37*
G36*
Y270578D02*
X326482Y270449D01*
X325570Y270071D01*
X324786Y269470D01*
X324185Y268687D01*
X323807Y267774D01*
X323678Y266795D01*
X323807Y265816D01*
X324185Y264904D01*
X324786Y264121D01*
X325570Y263520D01*
X326482Y263142D01*
X327461Y263013D01*
X328440Y263142D01*
X329352Y263520D01*
X330135Y264121D01*
X330736Y264904D01*
X331114Y265816D01*
X331243Y266795D01*
X331114Y267774D01*
X330736Y268687D01*
X330135Y269470D01*
X329352Y270071D01*
X328440Y270449D01*
X327461Y270578D01*
D02*
G37*
G36*
X146600Y265035D02*
X145898Y264896D01*
X145302Y264498D01*
X144904Y263902D01*
X144765Y263200D01*
X144904Y262498D01*
X145302Y261902D01*
X145898Y261504D01*
X146600Y261365D01*
X147302Y261504D01*
X147898Y261902D01*
X148296Y262498D01*
X148435Y263200D01*
X148296Y263902D01*
X147898Y264498D01*
X147302Y264896D01*
X146600Y265035D01*
D02*
G37*
G36*
Y260435D02*
X145898Y260296D01*
X145302Y259898D01*
X144904Y259302D01*
X144765Y258600D01*
X144904Y257898D01*
X145302Y257302D01*
X145898Y256904D01*
X146600Y256765D01*
X147302Y256904D01*
X147898Y257302D01*
X148296Y257898D01*
X148435Y258600D01*
X148296Y259302D01*
X147898Y259898D01*
X147302Y260296D01*
X146600Y260435D01*
D02*
G37*
G36*
X238720Y261869D02*
X237611Y261723D01*
X236577Y261295D01*
X235689Y260614D01*
X235008Y259726D01*
X234580Y258692D01*
X234434Y257583D01*
X234580Y256473D01*
X235008Y255439D01*
X235689Y254552D01*
X236577Y253870D01*
X237611Y253442D01*
X238720Y253296D01*
X239830Y253442D01*
X240864Y253870D01*
X241752Y254552D01*
X242433Y255439D01*
X242861Y256473D01*
X243007Y257583D01*
X242861Y258692D01*
X242433Y259726D01*
X241752Y260614D01*
X240864Y261295D01*
X239830Y261723D01*
X238720Y261869D01*
D02*
G37*
G36*
X327461Y260578D02*
X326482Y260449D01*
X325570Y260071D01*
X324786Y259470D01*
X324185Y258686D01*
X323807Y257774D01*
X323678Y256795D01*
X323807Y255816D01*
X324185Y254904D01*
X324786Y254121D01*
X325570Y253520D01*
X326482Y253142D01*
X327461Y253013D01*
X328440Y253142D01*
X329352Y253520D01*
X330135Y254121D01*
X330736Y254904D01*
X331114Y255816D01*
X331243Y256795D01*
X331114Y257774D01*
X330736Y258686D01*
X330135Y259470D01*
X329352Y260071D01*
X328440Y260449D01*
X327461Y260578D01*
D02*
G37*
G36*
X205000Y303835D02*
X204298Y303696D01*
X203702Y303298D01*
X203304Y302702D01*
X203165Y302000D01*
X203304Y301298D01*
X203499Y301007D01*
X203439Y300961D01*
X202998Y300387D01*
X202721Y299718D01*
X202626Y299000D01*
Y253800D01*
X202721Y253082D01*
X202998Y252413D01*
X203439Y251839D01*
X204013Y251398D01*
X204682Y251121D01*
X205400Y251026D01*
X206118Y251121D01*
X206787Y251398D01*
X207361Y251839D01*
X207802Y252413D01*
X208079Y253082D01*
X208174Y253800D01*
Y299000D01*
X208079Y299718D01*
X207802Y300387D01*
X207361Y300961D01*
X206787Y301402D01*
X206722Y301429D01*
X206835Y302000D01*
X206696Y302702D01*
X206298Y303298D01*
X205702Y303696D01*
X205000Y303835D01*
D02*
G37*
G36*
X327461Y250578D02*
X326482Y250449D01*
X325570Y250071D01*
X324786Y249470D01*
X324185Y248687D01*
X323807Y247774D01*
X323678Y246795D01*
X323807Y245816D01*
X324185Y244904D01*
X324786Y244121D01*
X325570Y243520D01*
X326482Y243142D01*
X327461Y243013D01*
X328440Y243142D01*
X329352Y243520D01*
X330135Y244121D01*
X330736Y244904D01*
X331114Y245816D01*
X331243Y246795D01*
X331114Y247774D01*
X330736Y248687D01*
X330135Y249470D01*
X329352Y250071D01*
X328440Y250449D01*
X327461Y250578D01*
D02*
G37*
G36*
X317461D02*
X316482Y250449D01*
X315569Y250071D01*
X314786Y249470D01*
X314185Y248687D01*
X313807Y247774D01*
X313678Y246795D01*
X313807Y245816D01*
X314185Y244904D01*
X314786Y244121D01*
X315569Y243520D01*
X316482Y243142D01*
X317461Y243013D01*
X318440Y243142D01*
X319352Y243520D01*
X320135Y244121D01*
X320736Y244904D01*
X321114Y245816D01*
X321243Y246795D01*
X321114Y247774D01*
X320736Y248687D01*
X320135Y249470D01*
X319352Y250071D01*
X318440Y250449D01*
X317461Y250578D01*
D02*
G37*
G36*
X141400Y236735D02*
X140698Y236596D01*
X140102Y236198D01*
X139704Y235602D01*
X139565Y234900D01*
X139704Y234198D01*
X140102Y233602D01*
X140698Y233204D01*
X141400Y233065D01*
X142102Y233204D01*
X142698Y233602D01*
X143096Y234198D01*
X143235Y234900D01*
X143096Y235602D01*
X142698Y236198D01*
X142102Y236596D01*
X141400Y236735D01*
D02*
G37*
G36*
X209500Y234535D02*
X208798Y234396D01*
X208202Y233998D01*
X207804Y233402D01*
X207665Y232700D01*
X207804Y231998D01*
X208202Y231402D01*
X208798Y231004D01*
X209500Y230865D01*
X210202Y231004D01*
X210798Y231402D01*
X211196Y231998D01*
X211335Y232700D01*
X211196Y233402D01*
X210798Y233998D01*
X210202Y234396D01*
X209500Y234535D01*
D02*
G37*
G36*
X249700Y286245D02*
X248803Y286067D01*
X248042Y285558D01*
X247533Y284797D01*
X247355Y283900D01*
Y236800D01*
X247533Y235903D01*
X248042Y235142D01*
X248142Y235042D01*
X248903Y234533D01*
X249800Y234355D01*
X250697Y234533D01*
X251458Y235042D01*
X251659Y235343D01*
X252326Y235440D01*
X252426Y235357D01*
Y233400D01*
X252521Y232682D01*
X252798Y232013D01*
X253239Y231439D01*
X253813Y230998D01*
X254482Y230721D01*
X255200Y230626D01*
X255918Y230721D01*
X256587Y230998D01*
X257161Y231439D01*
X257602Y232013D01*
X257879Y232682D01*
X257974Y233400D01*
Y258800D01*
X257879Y259518D01*
X257602Y260187D01*
X257161Y260761D01*
X256587Y261202D01*
X255918Y261479D01*
X255200Y261574D01*
X254482Y261479D01*
X253813Y261202D01*
X253239Y260761D01*
X252798Y260187D01*
X252521Y259518D01*
X252045Y259618D01*
Y283900D01*
X251867Y284797D01*
X251358Y285558D01*
X250597Y286067D01*
X249700Y286245D01*
D02*
G37*
G36*
X253400Y223535D02*
X252698Y223396D01*
X252102Y222998D01*
X251704Y222402D01*
X251565Y221700D01*
X251704Y220998D01*
X252102Y220402D01*
X252698Y220004D01*
X253400Y219865D01*
X254102Y220004D01*
X254698Y220402D01*
X255096Y220998D01*
X255235Y221700D01*
X255096Y222402D01*
X254698Y222998D01*
X254102Y223396D01*
X253400Y223535D01*
D02*
G37*
G36*
X158100Y220035D02*
X157398Y219896D01*
X156802Y219498D01*
X156404Y218902D01*
X156265Y218200D01*
X156404Y217498D01*
X156802Y216902D01*
X157398Y216504D01*
X158100Y216365D01*
X158802Y216504D01*
X159398Y216902D01*
X159796Y217498D01*
X159935Y218200D01*
X159796Y218902D01*
X159398Y219498D01*
X158802Y219896D01*
X158100Y220035D01*
D02*
G37*
G36*
X226400Y219635D02*
X225698Y219496D01*
X225102Y219098D01*
X224704Y218502D01*
X224565Y217800D01*
X224704Y217098D01*
X225102Y216502D01*
X225698Y216104D01*
X226400Y215965D01*
X227102Y216104D01*
X227698Y216502D01*
X228096Y217098D01*
X228235Y217800D01*
X228096Y218502D01*
X227698Y219098D01*
X227102Y219496D01*
X226400Y219635D01*
D02*
G37*
G36*
X163900Y218435D02*
X163198Y218296D01*
X162602Y217898D01*
X162204Y217302D01*
X162065Y216600D01*
X162204Y215898D01*
X162602Y215302D01*
X163198Y214904D01*
X163900Y214765D01*
X164602Y214904D01*
X165198Y215302D01*
X165596Y215898D01*
X165735Y216600D01*
X165596Y217302D01*
X165198Y217898D01*
X164602Y218296D01*
X163900Y218435D01*
D02*
G37*
G36*
X152100Y217935D02*
X151398Y217796D01*
X150802Y217398D01*
X150404Y216802D01*
X150265Y216100D01*
X150404Y215398D01*
X150802Y214802D01*
X151398Y214404D01*
X152100Y214265D01*
X152802Y214404D01*
X153398Y214802D01*
X153796Y215398D01*
X153935Y216100D01*
X153796Y216802D01*
X153398Y217398D01*
X152802Y217796D01*
X152100Y217935D01*
D02*
G37*
G36*
X171600Y275587D02*
X170491Y275441D01*
X169457Y275012D01*
X168569Y274331D01*
X167888Y273443D01*
X167459Y272410D01*
X167313Y271300D01*
X167459Y270191D01*
X167558Y269952D01*
X167498Y269873D01*
X167221Y269204D01*
X167126Y268487D01*
Y215100D01*
X167221Y214382D01*
X167498Y213713D01*
X167939Y213139D01*
X168513Y212698D01*
X169182Y212421D01*
X169900Y212326D01*
X170618Y212421D01*
X171287Y212698D01*
X171861Y213139D01*
X172302Y213713D01*
X172579Y214382D01*
X172674Y215100D01*
Y267155D01*
X172710Y267159D01*
X173743Y267588D01*
X174631Y268269D01*
X175312Y269157D01*
X175741Y270191D01*
X175887Y271300D01*
X175741Y272410D01*
X175312Y273443D01*
X174631Y274331D01*
X173743Y275012D01*
X172710Y275441D01*
X171600Y275587D01*
D02*
G37*
G36*
X205000Y222445D02*
X204103Y222267D01*
X203342Y221758D01*
X202833Y220997D01*
X202720Y220427D01*
X202633Y220297D01*
X202455Y219400D01*
Y215800D01*
Y213300D01*
X202633Y212403D01*
X203142Y211642D01*
X206142Y208642D01*
X206903Y208133D01*
X207800Y207955D01*
X208697Y208133D01*
X209458Y208642D01*
X209967Y209403D01*
X210145Y210300D01*
X209967Y211197D01*
X209458Y211958D01*
X207145Y214271D01*
Y218546D01*
X207417Y218953D01*
X207595Y219850D01*
X207417Y220747D01*
X206908Y221508D01*
X206658Y221758D01*
X205897Y222267D01*
X205000Y222445D01*
D02*
G37*
G36*
X224100Y210435D02*
X223398Y210296D01*
X222802Y209898D01*
X222404Y209302D01*
X222265Y208600D01*
X222404Y207898D01*
X222802Y207302D01*
X223398Y206904D01*
X224100Y206765D01*
X224802Y206904D01*
X225398Y207302D01*
X225796Y207898D01*
X225935Y208600D01*
X225796Y209302D01*
X225398Y209898D01*
X224802Y210296D01*
X224100Y210435D01*
D02*
G37*
G36*
X201300Y210235D02*
X200598Y210096D01*
X200002Y209698D01*
X199604Y209102D01*
X199465Y208400D01*
X199604Y207698D01*
X200002Y207102D01*
X200598Y206704D01*
X201300Y206565D01*
X202002Y206704D01*
X202598Y207102D01*
X202996Y207698D01*
X203135Y208400D01*
X202996Y209102D01*
X202598Y209698D01*
X202002Y210096D01*
X201300Y210235D01*
D02*
G37*
G36*
X237000Y218345D02*
X236103Y218167D01*
X235342Y217658D01*
X234833Y216897D01*
X234655Y216000D01*
Y192700D01*
X234833Y191803D01*
X235342Y191042D01*
X236103Y190533D01*
X237000Y190355D01*
X237897Y190533D01*
X238658Y191042D01*
X239167Y191803D01*
X239345Y192700D01*
Y200256D01*
X239845Y200590D01*
X240564Y200292D01*
X241673Y200146D01*
X242783Y200292D01*
X243817Y200721D01*
X244704Y201402D01*
X245386Y202290D01*
X245814Y203324D01*
X245960Y204433D01*
X245814Y205542D01*
X245386Y206576D01*
X244704Y207464D01*
X243817Y208145D01*
X242783Y208574D01*
X241673Y208720D01*
X240564Y208574D01*
X239845Y208276D01*
X239345Y208610D01*
Y216000D01*
X239167Y216897D01*
X238658Y217658D01*
X237897Y218167D01*
X237000Y218345D01*
D02*
G37*
G36*
X197900Y202845D02*
X197003Y202667D01*
X196242Y202158D01*
X195733Y201397D01*
X195555Y200500D01*
Y191300D01*
X195733Y190403D01*
X196242Y189642D01*
X196342Y189542D01*
X197103Y189033D01*
X198000Y188855D01*
X198897Y189033D01*
X199658Y189542D01*
X200167Y190303D01*
X200345Y191200D01*
X200245Y191703D01*
Y200500D01*
X200067Y201397D01*
X199558Y202158D01*
X198797Y202667D01*
X197900Y202845D01*
D02*
G37*
G36*
X319800Y194787D02*
X318768Y194651D01*
X317807Y194253D01*
X316981Y193619D01*
X316347Y192793D01*
X315949Y191832D01*
X315813Y190800D01*
X315949Y189768D01*
X316347Y188807D01*
X316981Y187981D01*
X317807Y187347D01*
X318768Y186949D01*
X319800Y186813D01*
X320832Y186949D01*
X321793Y187347D01*
X322619Y187981D01*
X323253Y188807D01*
X323651Y189768D01*
X323787Y190800D01*
X323651Y191832D01*
X323253Y192793D01*
X322619Y193619D01*
X321793Y194253D01*
X320832Y194651D01*
X319800Y194787D01*
D02*
G37*
%LPD*%
G36*
X283906Y384976D02*
X284306Y384377D01*
X287655Y381029D01*
Y336971D01*
X285242Y334558D01*
X284733Y333797D01*
X284555Y332900D01*
Y269916D01*
X284093Y269725D01*
X283154Y270664D01*
Y302700D01*
X283074Y303310D01*
Y344100D01*
X282979Y344818D01*
X282702Y345487D01*
X282374Y345915D01*
Y384151D01*
X283333Y385110D01*
X283906Y384976D01*
D02*
G37*
%LPC*%
G36*
X386800Y452235D02*
X386098Y452096D01*
X385502Y451698D01*
X385104Y451102D01*
X384965Y450400D01*
X385104Y449698D01*
X385502Y449102D01*
X386098Y448704D01*
X386800Y448565D01*
X387502Y448704D01*
X388098Y449102D01*
X388626Y448993D01*
X388704Y448598D01*
X389102Y448002D01*
X389698Y447604D01*
X390400Y447465D01*
X391102Y447604D01*
X391404Y447806D01*
X391902Y447902D01*
X392498Y447504D01*
X393200Y447365D01*
X393902Y447504D01*
X394498Y447902D01*
X394896Y448498D01*
X395035Y449200D01*
X394896Y449902D01*
X394498Y450498D01*
X393902Y450896D01*
X393200Y451035D01*
X392498Y450896D01*
X392223Y450712D01*
X391722Y450603D01*
X391470Y450750D01*
X391102Y450996D01*
X390400Y451135D01*
X389698Y450996D01*
X389102Y450598D01*
X388574Y450707D01*
X388496Y451102D01*
X388098Y451698D01*
X387502Y452096D01*
X386800Y452235D01*
D02*
G37*
G36*
X416600Y448044D02*
X415898Y447904D01*
X415302Y447506D01*
X414904Y446911D01*
X414765Y446209D01*
X414904Y445506D01*
X415302Y444911D01*
X415898Y444513D01*
X416600Y444373D01*
X417302Y444513D01*
X417898Y444911D01*
X418296Y445506D01*
X418435Y446209D01*
X418296Y446911D01*
X417898Y447506D01*
X417302Y447904D01*
X416600Y448044D01*
D02*
G37*
G36*
X488228Y462069D02*
X486110Y461903D01*
X484044Y461407D01*
X482081Y460593D01*
X480269Y459483D01*
X478653Y458103D01*
X477273Y456487D01*
X476163Y454675D01*
X475349Y452712D01*
X474853Y450646D01*
X474687Y448528D01*
X474853Y446409D01*
X475349Y444343D01*
X476163Y442380D01*
X477273Y440568D01*
X478653Y438952D01*
X480269Y437572D01*
X482081Y436462D01*
X484044Y435649D01*
X486110Y435152D01*
X488228Y434986D01*
X490347Y435152D01*
X492413Y435649D01*
X494376Y436462D01*
X496188Y437572D01*
X497804Y438952D01*
X499184Y440568D01*
X500294Y442380D01*
X501107Y444343D01*
X501603Y446409D01*
X501770Y448528D01*
X501603Y450646D01*
X501107Y452712D01*
X500294Y454675D01*
X499184Y456487D01*
X497804Y458103D01*
X496188Y459483D01*
X494376Y460593D01*
X492413Y461407D01*
X490347Y461903D01*
X488228Y462069D01*
D02*
G37*
G36*
X465600Y431635D02*
X464898Y431496D01*
X464302Y431098D01*
X463904Y430502D01*
X463788Y429918D01*
X463700Y429935D01*
X462998Y429796D01*
X462402Y429398D01*
X462004Y428802D01*
X461865Y428100D01*
X462004Y427398D01*
X462402Y426802D01*
X462998Y426404D01*
X463342Y426336D01*
X463459Y426215D01*
X463391Y425867D01*
X463272Y425690D01*
X462798Y425596D01*
X462202Y425198D01*
X461804Y424602D01*
X461665Y423900D01*
X461804Y423198D01*
X462202Y422602D01*
X462798Y422204D01*
X463047Y422155D01*
Y421645D01*
X462798Y421596D01*
X462202Y421198D01*
X461804Y420602D01*
X461665Y419900D01*
X461804Y419198D01*
X462202Y418602D01*
X462798Y418204D01*
X463147Y418135D01*
Y417625D01*
X462998Y417596D01*
X462402Y417198D01*
X462004Y416602D01*
X461865Y415900D01*
X462004Y415198D01*
X462402Y414602D01*
X462998Y414204D01*
X463700Y414065D01*
X464402Y414204D01*
X464998Y414602D01*
X465396Y415198D01*
X465494Y415693D01*
X465535Y415900D01*
X465941Y416253D01*
X466202Y416304D01*
X466798Y416702D01*
X467196Y417298D01*
X467335Y418000D01*
X467196Y418702D01*
X466798Y419298D01*
X466202Y419696D01*
X465953Y419745D01*
Y420255D01*
X466202Y420304D01*
X466798Y420702D01*
X467196Y421298D01*
X467335Y422000D01*
X467196Y422702D01*
X466798Y423298D01*
X466226Y423679D01*
X466212Y423785D01*
X466255Y424195D01*
X466302Y424204D01*
X466898Y424602D01*
X467296Y425198D01*
X467435Y425900D01*
X467296Y426602D01*
X466898Y427198D01*
X466303Y427595D01*
X466302Y427600D01*
Y428100D01*
X466303Y428105D01*
X466898Y428502D01*
X467296Y429098D01*
X467435Y429800D01*
X467296Y430502D01*
X466898Y431098D01*
X466302Y431496D01*
X465600Y431635D01*
D02*
G37*
G36*
X392300Y440826D02*
X391517Y440723D01*
X390787Y440420D01*
X390160Y439940D01*
X389680Y439313D01*
X389377Y438583D01*
X389274Y437800D01*
Y426400D01*
X388774Y426301D01*
X388521Y426913D01*
X388040Y427540D01*
X387526Y428053D01*
Y437700D01*
X387423Y438483D01*
X387121Y439213D01*
X386640Y439840D01*
X386013Y440320D01*
X385283Y440623D01*
X384500Y440726D01*
X383717Y440623D01*
X382987Y440320D01*
X382360Y439840D01*
X381879Y439213D01*
X381577Y438483D01*
X381474Y437700D01*
Y426800D01*
X381577Y426017D01*
X381879Y425287D01*
X382360Y424660D01*
X382874Y424147D01*
Y417685D01*
X382488Y417368D01*
X382100Y417445D01*
X381203Y417267D01*
X380442Y416758D01*
X379933Y415997D01*
X379755Y415100D01*
Y349371D01*
X378842Y348458D01*
X378333Y347697D01*
X378155Y346800D01*
Y285200D01*
X378333Y284303D01*
X378842Y283542D01*
X379755Y282629D01*
Y282530D01*
X379733Y282497D01*
X379555Y281600D01*
Y215800D01*
X379733Y214903D01*
X380242Y214142D01*
X380642Y213742D01*
X381403Y213233D01*
X382300Y213055D01*
X383197Y213233D01*
X383958Y213742D01*
X384467Y214503D01*
X384645Y215400D01*
X384467Y216297D01*
X384245Y216629D01*
Y234156D01*
X384745Y234490D01*
X385017Y234377D01*
X385800Y234274D01*
X386583Y234377D01*
X387313Y234680D01*
X387940Y235160D01*
X388421Y235787D01*
X388723Y236517D01*
X388826Y237300D01*
X388723Y238083D01*
X388421Y238813D01*
X387940Y239440D01*
X387026Y240353D01*
Y252510D01*
X387502Y252604D01*
X388098Y253002D01*
X388496Y253598D01*
X388635Y254300D01*
X388496Y255002D01*
X388098Y255598D01*
X387502Y255996D01*
X387026Y256090D01*
Y261447D01*
X387840Y262260D01*
X388320Y262887D01*
X388623Y263617D01*
X388726Y264400D01*
Y271849D01*
X389002Y271904D01*
X389598Y272302D01*
X389996Y272898D01*
X390135Y273600D01*
X389996Y274302D01*
X389598Y274898D01*
X389002Y275296D01*
X388726Y275351D01*
Y278100D01*
Y280430D01*
X389102Y280504D01*
X389698Y280902D01*
X390096Y281498D01*
X390235Y282200D01*
X390096Y282902D01*
X389698Y283498D01*
X389102Y283896D01*
X388726Y283970D01*
Y286300D01*
X388636Y286981D01*
X388655Y287122D01*
X388983Y287521D01*
X389402Y287604D01*
X389998Y288002D01*
X390274Y288416D01*
X390774Y288264D01*
Y250735D01*
X390388Y250418D01*
X390300Y250435D01*
X389598Y250296D01*
X389002Y249898D01*
X388604Y249302D01*
X388465Y248600D01*
X388604Y247898D01*
X389002Y247302D01*
X389598Y246904D01*
X390300Y246765D01*
X390388Y246782D01*
X390774Y246465D01*
Y238900D01*
X390877Y238117D01*
X390889Y238089D01*
X390602Y237898D01*
X390204Y237302D01*
X390065Y236600D01*
X390204Y235898D01*
X390602Y235302D01*
X391198Y234904D01*
X391374Y234869D01*
Y212153D01*
X390960Y211740D01*
X390479Y211113D01*
X390177Y210383D01*
X390074Y209600D01*
X390177Y208817D01*
X390479Y208087D01*
X390960Y207460D01*
X391587Y206979D01*
X392317Y206677D01*
X393100Y206574D01*
X393883Y206677D01*
X394442Y206909D01*
X394773Y206505D01*
X394504Y206102D01*
X394365Y205400D01*
X394504Y204698D01*
X394902Y204102D01*
X395498Y203704D01*
X396200Y203565D01*
X396902Y203704D01*
X397498Y204102D01*
X397896Y204698D01*
X398035Y205400D01*
X397896Y206102D01*
X397498Y206698D01*
X396902Y207096D01*
X396200Y207235D01*
X395603Y207117D01*
X395339Y207459D01*
X395308Y207529D01*
X396540Y208760D01*
X397021Y209387D01*
X397323Y210117D01*
X397426Y210900D01*
X397426Y210900D01*
Y213989D01*
X397502Y214004D01*
X398098Y214402D01*
X398496Y214998D01*
X398635Y215700D01*
X398496Y216402D01*
X398098Y216998D01*
X397502Y217396D01*
X397426Y217411D01*
Y225322D01*
X397600Y225465D01*
X398302Y225604D01*
X398898Y226002D01*
X399296Y226598D01*
X399435Y227300D01*
X399296Y228002D01*
X398898Y228598D01*
X398302Y228996D01*
X397600Y229135D01*
X397426Y229278D01*
Y235885D01*
X397502Y235900D01*
X398098Y236298D01*
X398496Y236894D01*
X398635Y237596D01*
X398549Y238031D01*
X399020Y238226D01*
X399102Y238102D01*
X399698Y237704D01*
X400400Y237565D01*
X401102Y237704D01*
X401698Y238102D01*
X402096Y238698D01*
X402235Y239400D01*
X402096Y240102D01*
X401698Y240698D01*
X401102Y241096D01*
X400400Y241235D01*
X399698Y241096D01*
X399102Y240698D01*
X398704Y240102D01*
X398565Y239400D01*
X398651Y238965D01*
X398180Y238770D01*
X398098Y238894D01*
X397502Y239291D01*
X397213Y239349D01*
X397021Y239813D01*
X396826Y240067D01*
Y270989D01*
X396902Y271004D01*
X397498Y271402D01*
X397896Y271998D01*
X398035Y272700D01*
X397896Y273402D01*
X397498Y273998D01*
X396902Y274396D01*
X396826Y274411D01*
Y280589D01*
X396902Y280604D01*
X397498Y281002D01*
X397896Y281598D01*
X398035Y282300D01*
X397896Y283002D01*
X397498Y283598D01*
X396902Y283996D01*
X396826Y284011D01*
Y304649D01*
X397102Y304704D01*
X397698Y305102D01*
X397956Y305489D01*
X398487Y305384D01*
X398504Y305298D01*
X398794Y304864D01*
X398655Y304382D01*
X398604Y304317D01*
X398498Y304296D01*
X397902Y303898D01*
X397504Y303302D01*
X397365Y302600D01*
X397504Y301898D01*
X397902Y301302D01*
X398498Y300904D01*
X399200Y300765D01*
X399902Y300904D01*
X400498Y301302D01*
X400896Y301898D01*
X401035Y302600D01*
X400896Y303302D01*
X400606Y303736D01*
X400745Y304218D01*
X400796Y304283D01*
X400902Y304304D01*
X401498Y304702D01*
X401896Y305298D01*
X402035Y306000D01*
X401896Y306702D01*
X401498Y307298D01*
X400902Y307696D01*
X400200Y307835D01*
X399498Y307696D01*
X398902Y307298D01*
X398643Y306910D01*
X398113Y307016D01*
X398096Y307102D01*
X397698Y307698D01*
X397102Y308096D01*
X396726Y308170D01*
Y337189D01*
X396802Y337204D01*
X397398Y337602D01*
X397796Y338198D01*
X397935Y338900D01*
X397796Y339602D01*
X397398Y340198D01*
X396802Y340596D01*
X396726Y340611D01*
Y344000D01*
Y346849D01*
X397002Y346904D01*
X397598Y347302D01*
X397996Y347898D01*
X398135Y348600D01*
X397996Y349302D01*
X397598Y349898D01*
X397002Y350296D01*
X396726Y350351D01*
Y359365D01*
X397112Y359682D01*
X397200Y359665D01*
X397902Y359804D01*
X398498Y360202D01*
X398896Y360798D01*
X399035Y361500D01*
X398896Y362202D01*
X398498Y362798D01*
X397902Y363196D01*
X397200Y363335D01*
X396826Y363642D01*
Y369185D01*
X397212Y369502D01*
X397400Y369465D01*
X398102Y369604D01*
X398698Y370002D01*
X399096Y370598D01*
X399235Y371300D01*
X399096Y372002D01*
X398931Y372248D01*
X399123Y372711D01*
X399226Y373494D01*
X399226Y373494D01*
Y398800D01*
X399123Y399583D01*
X398820Y400313D01*
X398340Y400940D01*
X395606Y403673D01*
X395852Y404134D01*
X396200Y404065D01*
X396902Y404204D01*
X397498Y404602D01*
X397896Y405198D01*
X398035Y405900D01*
X397896Y406602D01*
X397498Y407198D01*
X396902Y407596D01*
X396200Y407735D01*
X395826Y407661D01*
X395326Y408036D01*
Y410500D01*
Y413264D01*
X395826Y413639D01*
X396200Y413565D01*
X396902Y413704D01*
X397498Y414102D01*
X397896Y414698D01*
X398035Y415400D01*
X397896Y416102D01*
X397498Y416698D01*
X396902Y417096D01*
X396200Y417235D01*
X395826Y417161D01*
X395326Y417536D01*
Y426564D01*
X395826Y426939D01*
X396200Y426865D01*
X396902Y427004D01*
X397498Y427402D01*
X397896Y427998D01*
X398035Y428700D01*
X397896Y429402D01*
X397498Y429998D01*
X396902Y430396D01*
X396200Y430535D01*
X395826Y430461D01*
X395326Y430836D01*
Y435330D01*
X395826Y435659D01*
X396300Y435565D01*
X397002Y435704D01*
X397598Y436102D01*
X397996Y436698D01*
X398128Y437362D01*
X398247Y437429D01*
X398620Y437524D01*
X398902Y437102D01*
X399498Y436704D01*
X400200Y436565D01*
X400902Y436704D01*
X401033Y436792D01*
X401483Y436491D01*
X401465Y436400D01*
X401604Y435698D01*
X402002Y435102D01*
X402598Y434704D01*
X403300Y434565D01*
X403568Y434618D01*
X403955Y434301D01*
Y410500D01*
X404133Y409603D01*
X404642Y408842D01*
X405164Y408320D01*
X405088Y407689D01*
X404802Y407498D01*
X404404Y406902D01*
X404265Y406200D01*
X404404Y405498D01*
X404802Y404902D01*
X405398Y404504D01*
X405955Y404394D01*
Y383379D01*
X405833Y383197D01*
X405655Y382300D01*
Y373495D01*
X405155Y373084D01*
X404900Y373135D01*
X404198Y372996D01*
X403602Y372598D01*
X403469Y372398D01*
X403098D01*
X402502Y372796D01*
X401800Y372935D01*
X401098Y372796D01*
X400502Y372398D01*
X400104Y371802D01*
X399965Y371100D01*
X400104Y370398D01*
X400502Y369802D01*
X401098Y369404D01*
X401800Y369265D01*
X402502Y369404D01*
X403098Y369802D01*
X403231Y370002D01*
X403602D01*
X404198Y369604D01*
X404900Y369465D01*
X405155Y369515D01*
X405655Y369105D01*
Y352771D01*
X404142Y351258D01*
X403633Y350497D01*
X403455Y349600D01*
Y342286D01*
X402998Y342196D01*
X402402Y341798D01*
X402004Y341202D01*
X401865Y340500D01*
X402004Y339798D01*
X402402Y339202D01*
X402998Y338804D01*
X403700Y338665D01*
X404300Y338784D01*
X405555Y337529D01*
Y319769D01*
X405055Y319618D01*
X404798Y320002D01*
X404202Y320400D01*
X403500Y320540D01*
X402798Y320400D01*
X402202Y320002D01*
X401804Y319407D01*
X401665Y318705D01*
X401804Y318002D01*
X402202Y317407D01*
X402798Y317009D01*
X403500Y316869D01*
X404202Y317009D01*
X404798Y317407D01*
X405055Y317792D01*
X405555Y317640D01*
Y317000D01*
X405733Y316103D01*
X405855Y315921D01*
Y282700D01*
X406033Y281803D01*
X406542Y281042D01*
X409455Y278129D01*
Y273507D01*
X409398Y273496D01*
X408802Y273098D01*
X408518Y273368D01*
X408498Y273398D01*
X407902Y273796D01*
X407200Y273935D01*
X406498Y273796D01*
X405902Y273398D01*
X405504Y272802D01*
X405365Y272100D01*
X405504Y271398D01*
X405902Y270802D01*
X406498Y270404D01*
X407200Y270265D01*
X407902Y270404D01*
X408498Y270802D01*
X408782Y270532D01*
X408802Y270502D01*
X409398Y270104D01*
X409455Y270093D01*
Y261876D01*
X406442Y258862D01*
X405933Y258102D01*
X405755Y257204D01*
Y253550D01*
X405654Y253466D01*
X404988Y253563D01*
X404898Y253698D01*
X404302Y254096D01*
X403600Y254235D01*
X402898Y254096D01*
X402302Y253698D01*
X401904Y253102D01*
X401765Y252400D01*
X401904Y251698D01*
X402302Y251102D01*
X402898Y250704D01*
X403600Y250565D01*
X404302Y250704D01*
X404898Y251102D01*
X404988Y251237D01*
X405654Y251334D01*
X405755Y251250D01*
Y250600D01*
X405933Y249703D01*
X406442Y248942D01*
X407203Y248433D01*
X408100Y248255D01*
X408997Y248433D01*
X409758Y248942D01*
X410267Y249703D01*
X410445Y250600D01*
Y256233D01*
X412649Y258437D01*
X412698Y258404D01*
X413400Y258265D01*
X414102Y258404D01*
X414698Y258802D01*
X415096Y259398D01*
X415235Y260100D01*
X415096Y260802D01*
X414698Y261398D01*
X414145Y261767D01*
Y279100D01*
X413967Y279997D01*
X413458Y280758D01*
X411926Y282290D01*
X412071Y282769D01*
X412397Y282833D01*
X413158Y283342D01*
X413667Y284103D01*
X413845Y285000D01*
X413667Y285897D01*
X413545Y286079D01*
Y298129D01*
X414258Y298842D01*
X414767Y299603D01*
X414945Y300500D01*
Y303053D01*
X415202Y303104D01*
X415555Y303340D01*
X416055Y303073D01*
Y267000D01*
Y249253D01*
X415555Y249204D01*
X415496Y249502D01*
X415098Y250098D01*
X414502Y250496D01*
X413800Y250635D01*
X413098Y250496D01*
X412502Y250098D01*
X412104Y249502D01*
X411965Y248800D01*
X412104Y248098D01*
X412502Y247502D01*
X413098Y247104D01*
X413800Y246965D01*
X414502Y247104D01*
X415098Y247502D01*
X415496Y248098D01*
X415555Y248396D01*
X416055Y248347D01*
Y200380D01*
X416000Y200335D01*
X415298Y200196D01*
X414702Y199798D01*
X414304Y199202D01*
X414165Y198500D01*
X414304Y197798D01*
X414702Y197202D01*
X415298Y196804D01*
X416000Y196665D01*
X416702Y196804D01*
X417298Y197202D01*
X417696Y197798D01*
X417706Y197848D01*
X418400Y197710D01*
X419297Y197889D01*
X420058Y198397D01*
X420567Y199158D01*
X420745Y200055D01*
Y236011D01*
X421132Y236328D01*
X421500Y236255D01*
X422397Y236433D01*
X422514Y236511D01*
X422955Y236276D01*
Y234029D01*
X422733Y233697D01*
X422555Y232800D01*
X422733Y231903D01*
X423242Y231142D01*
X424003Y230633D01*
X424255Y230583D01*
Y230030D01*
X424233Y229997D01*
X424055Y229100D01*
X424233Y228203D01*
X424742Y227442D01*
X425503Y226933D01*
X425639Y226906D01*
X425743Y226410D01*
X425333Y225797D01*
X425155Y224900D01*
X425333Y224003D01*
X425842Y223242D01*
X426603Y222733D01*
X426758Y222703D01*
X426889Y222179D01*
X426633Y221797D01*
X426455Y220900D01*
X426633Y220003D01*
X427142Y219242D01*
X427780Y218816D01*
X427433Y218297D01*
X427255Y217400D01*
X427433Y216503D01*
X427942Y215742D01*
X428703Y215233D01*
X429048Y214669D01*
X428955Y214200D01*
X429133Y213303D01*
X429642Y212542D01*
X429961Y212329D01*
X429955Y212300D01*
Y210500D01*
X430133Y209603D01*
X430642Y208842D01*
X431403Y208333D01*
X432300Y208155D01*
X433197Y208333D01*
X433958Y208842D01*
X433988Y208887D01*
X434600Y208765D01*
X435302Y208904D01*
X435898Y209302D01*
X436296Y209898D01*
X436435Y210600D01*
X436296Y211302D01*
X435898Y211898D01*
X435302Y212296D01*
X435209Y212314D01*
X435345Y213000D01*
Y213093D01*
X435402Y213104D01*
X435998Y213502D01*
X436396Y214098D01*
X436535Y214800D01*
X436396Y215502D01*
X435998Y216098D01*
Y216102D01*
X436396Y216698D01*
X436535Y217400D01*
X436396Y218102D01*
X435998Y218698D01*
X436020Y219285D01*
X436296Y219698D01*
X436435Y220400D01*
X436296Y221102D01*
X435898Y221698D01*
X435746Y221799D01*
Y222401D01*
X435898Y222502D01*
X436296Y223098D01*
X436435Y223800D01*
X436296Y224502D01*
X435898Y225098D01*
X435745Y225200D01*
Y225700D01*
X435898Y225802D01*
X436296Y226398D01*
X436435Y227100D01*
X436296Y227802D01*
X435898Y228398D01*
X435745Y228500D01*
Y229000D01*
X435898Y229102D01*
X436296Y229698D01*
X436435Y230400D01*
X436296Y231102D01*
X435898Y231698D01*
X435721Y231816D01*
Y232417D01*
X435998Y232602D01*
X436396Y233198D01*
X436535Y233900D01*
X436396Y234602D01*
X435998Y235198D01*
X435402Y235596D01*
X435245Y235627D01*
Y240829D01*
X435258Y240842D01*
X435767Y241603D01*
X435945Y242500D01*
X435767Y243397D01*
X435258Y244158D01*
X434497Y244667D01*
X434491Y244668D01*
X434067Y244903D01*
X434245Y245800D01*
X434067Y246697D01*
X433558Y247458D01*
X432921Y247884D01*
X433067Y248103D01*
X433245Y249000D01*
X433067Y249897D01*
X432558Y250658D01*
X431799Y251166D01*
X431945Y251900D01*
X431767Y252797D01*
X431258Y253558D01*
X430497Y254067D01*
X430145Y254137D01*
Y255121D01*
X430467Y255603D01*
X430645Y256500D01*
X430467Y257397D01*
X429958Y258158D01*
X429437Y258507D01*
X429199Y258942D01*
X429201Y259176D01*
X429345Y259900D01*
X429167Y260797D01*
X428658Y261558D01*
X428624Y261907D01*
X428658Y261942D01*
X429167Y262703D01*
X429345Y263600D01*
X429167Y264497D01*
X428658Y265258D01*
X427897Y265767D01*
X427000Y265945D01*
X426103Y265767D01*
X425342Y265258D01*
X424307Y264223D01*
X423845Y264415D01*
Y266000D01*
X423667Y266897D01*
X423158Y267658D01*
X422397Y268167D01*
X421500Y268345D01*
X421132Y268272D01*
X420745Y268589D01*
Y333300D01*
Y399900D01*
X420567Y400797D01*
X420058Y401558D01*
X419958Y401658D01*
X419197Y402167D01*
X418300Y402345D01*
X417403Y402167D01*
X416642Y401658D01*
X416133Y400897D01*
X415955Y400000D01*
X416055Y399497D01*
Y395194D01*
X415555Y394927D01*
X415302Y395096D01*
X414600Y395235D01*
X413898Y395096D01*
X413302Y394698D01*
X412904Y394102D01*
X412765Y393400D01*
X412904Y392698D01*
X413302Y392102D01*
X413898Y391704D01*
X414600Y391565D01*
X415302Y391704D01*
X415555Y391873D01*
X416055Y391606D01*
Y375147D01*
X415798Y375096D01*
X415202Y374698D01*
X414804Y374102D01*
X414665Y373400D01*
X414804Y372698D01*
X415202Y372102D01*
X415798Y371704D01*
X416055Y371653D01*
Y333300D01*
Y329527D01*
X415555Y329260D01*
X415202Y329496D01*
X414500Y329635D01*
X413798Y329496D01*
X413202Y329098D01*
X412804Y328502D01*
X412665Y327800D01*
X412804Y327098D01*
X413202Y326502D01*
X413798Y326104D01*
X414500Y325965D01*
X415202Y326104D01*
X415555Y326340D01*
X416055Y326073D01*
Y306527D01*
X415555Y306260D01*
X415202Y306496D01*
X414945Y306547D01*
Y322400D01*
X414767Y323297D01*
X414258Y324058D01*
X413497Y324567D01*
X412600Y324745D01*
X411703Y324567D01*
X410942Y324058D01*
X410745Y323764D01*
X410245Y323916D01*
Y337433D01*
X410602Y337504D01*
X411198Y337902D01*
X411596Y338498D01*
X411735Y339200D01*
X411596Y339902D01*
X411198Y340498D01*
X410602Y340896D01*
X409900Y341035D01*
X409198Y340896D01*
X408972Y340745D01*
X408145Y341571D01*
Y348629D01*
X409658Y350142D01*
X410167Y350903D01*
X410345Y351800D01*
Y381521D01*
X410467Y381703D01*
X410645Y382600D01*
Y404093D01*
X410702Y404104D01*
X411298Y404502D01*
X411696Y405098D01*
X411835Y405800D01*
X411696Y406502D01*
X411298Y407098D01*
X410702Y407496D01*
X410645Y407507D01*
Y408500D01*
X410645Y408500D01*
X410467Y409397D01*
X409958Y410158D01*
X408645Y411471D01*
Y433729D01*
X410158Y435242D01*
X410667Y436003D01*
X410845Y436900D01*
X410667Y437797D01*
X410158Y438558D01*
X409397Y439067D01*
X408500Y439245D01*
X407603Y439067D01*
X406842Y438558D01*
X405453Y437170D01*
X404869Y437292D01*
X404598Y437698D01*
X404002Y438096D01*
X403300Y438235D01*
X402598Y438096D01*
X402467Y438008D01*
X402017Y438309D01*
X402035Y438400D01*
X401896Y439102D01*
X401498Y439698D01*
X400902Y440096D01*
X400200Y440235D01*
X399498Y440096D01*
X398902Y439698D01*
X398504Y439102D01*
X398372Y438438D01*
X398253Y438371D01*
X397880Y438276D01*
X397598Y438698D01*
X397002Y439096D01*
X396300Y439235D01*
X395598Y439096D01*
X395465Y439007D01*
X394987Y439152D01*
X394920Y439313D01*
X394440Y439940D01*
X393813Y440420D01*
X393083Y440723D01*
X392300Y440826D01*
D02*
G37*
G36*
X442800Y435935D02*
X442098Y435796D01*
X441502Y435398D01*
X441104Y434802D01*
X440965Y434100D01*
X441104Y433398D01*
X441502Y432802D01*
X441705Y432667D01*
Y432167D01*
X441602Y432098D01*
X441204Y431502D01*
X441065Y430800D01*
X441204Y430098D01*
X441602Y429502D01*
X441579Y428916D01*
X441402Y428798D01*
X441004Y428202D01*
X440865Y427500D01*
X441004Y426798D01*
X441402Y426202D01*
X441604Y426067D01*
Y425466D01*
X441502Y425398D01*
X441104Y424802D01*
X440965Y424100D01*
X441104Y423398D01*
X441502Y422802D01*
X442098Y422404D01*
X442800Y422265D01*
X443502Y422404D01*
X444098Y422802D01*
X444496Y423398D01*
X444635Y424100D01*
X444496Y424802D01*
X444098Y425398D01*
X443896Y425533D01*
Y426134D01*
X443998Y426202D01*
X444396Y426798D01*
X444535Y427500D01*
X444396Y428202D01*
X443998Y428798D01*
X444021Y429384D01*
X444198Y429502D01*
X444596Y430098D01*
X444735Y430800D01*
X444596Y431502D01*
X444198Y432098D01*
X443995Y432233D01*
Y432733D01*
X444098Y432802D01*
X444496Y433398D01*
X444635Y434100D01*
X444496Y434802D01*
X444098Y435398D01*
X443502Y435796D01*
X442800Y435935D01*
D02*
G37*
G36*
X435400Y435235D02*
X434698Y435096D01*
X434102Y434698D01*
X433704Y434102D01*
X433565Y433400D01*
X433704Y432698D01*
X433958Y432317D01*
X433905Y431861D01*
X433797Y431728D01*
X433302Y431398D01*
X432904Y430802D01*
X432765Y430100D01*
X432904Y429398D01*
X433302Y428802D01*
X433505Y428667D01*
Y428167D01*
X433402Y428098D01*
X433004Y427502D01*
X432865Y426800D01*
X433004Y426098D01*
X433173Y425846D01*
X433376Y425450D01*
X433173Y425054D01*
X433004Y424802D01*
X432865Y424100D01*
X433004Y423398D01*
X433402Y422802D01*
X433998Y422404D01*
X434700Y422265D01*
X435402Y422404D01*
X435998Y422802D01*
X436396Y423398D01*
X436535Y424100D01*
X436396Y424802D01*
X436227Y425054D01*
X436025Y425450D01*
X436227Y425846D01*
X436396Y426098D01*
X436535Y426800D01*
X436396Y427502D01*
X435998Y428098D01*
X435795Y428233D01*
Y428733D01*
X435898Y428802D01*
X436296Y429398D01*
X436435Y430100D01*
X436296Y430802D01*
X436041Y431182D01*
X436095Y431639D01*
X436203Y431772D01*
X436698Y432102D01*
X437096Y432698D01*
X437235Y433400D01*
X437096Y434102D01*
X436698Y434698D01*
X436102Y435096D01*
X435400Y435235D01*
D02*
G37*
G36*
X542401Y444517D02*
X540282Y444351D01*
X538216Y443855D01*
X536253Y443041D01*
X534441Y441931D01*
X532825Y440551D01*
X531445Y438935D01*
X530335Y437123D01*
X529522Y435160D01*
X529026Y433094D01*
X528859Y430976D01*
X529026Y428857D01*
X529522Y426791D01*
X530335Y424828D01*
X531445Y423016D01*
X532825Y421400D01*
X534441Y420020D01*
X536253Y418910D01*
X538216Y418097D01*
X540282Y417601D01*
X542401Y417434D01*
X544519Y417601D01*
X546585Y418097D01*
X548549Y418910D01*
X550360Y420020D01*
X551976Y421400D01*
X553356Y423016D01*
X554467Y424828D01*
X555280Y426791D01*
X555776Y428857D01*
X555942Y430976D01*
X555776Y433094D01*
X555280Y435160D01*
X554467Y437123D01*
X553356Y438935D01*
X551976Y440551D01*
X550360Y441931D01*
X548549Y443041D01*
X546585Y443855D01*
X544519Y444351D01*
X542401Y444517D01*
D02*
G37*
G36*
X442500Y421535D02*
X441798Y421396D01*
X441202Y420998D01*
X440804Y420402D01*
X440665Y419700D01*
X440804Y418998D01*
X441202Y418402D01*
X441330Y418317D01*
Y417917D01*
X441273Y417754D01*
X440904Y417202D01*
X440765Y416500D01*
X440904Y415798D01*
X441302Y415202D01*
X441702Y414935D01*
Y414798D01*
X441304Y414202D01*
X441165Y413500D01*
X441304Y412798D01*
X441504Y412499D01*
X441502Y412498D01*
X441104Y411902D01*
X440965Y411200D01*
X441104Y410498D01*
X441502Y409902D01*
X442098Y409504D01*
X442800Y409365D01*
X443502Y409504D01*
X444098Y409902D01*
X444496Y410498D01*
X444635Y411200D01*
X444496Y411902D01*
X444296Y412201D01*
X444298Y412202D01*
X444696Y412798D01*
X444835Y413500D01*
X444696Y414202D01*
X444298Y414798D01*
X443898Y415065D01*
Y415202D01*
X444296Y415798D01*
X444435Y416500D01*
X444296Y417202D01*
X443898Y417798D01*
X443770Y417883D01*
Y418383D01*
X443798Y418402D01*
X444196Y418998D01*
X444335Y419700D01*
X444196Y420402D01*
X443798Y420998D01*
X443202Y421396D01*
X442500Y421535D01*
D02*
G37*
G36*
X435200Y421735D02*
X434498Y421596D01*
X433902Y421198D01*
X433504Y420602D01*
X433365Y419900D01*
X433504Y419198D01*
X433706Y418897D01*
X433589Y418256D01*
X433502Y418198D01*
X433104Y417602D01*
X432965Y416900D01*
X433104Y416198D01*
X433502Y415602D01*
X433614Y415528D01*
X433704Y414950D01*
X433404Y414502D01*
X433265Y413800D01*
X433404Y413098D01*
X433802Y412502D01*
X434029Y412351D01*
Y411749D01*
X433802Y411598D01*
X433404Y411002D01*
X433265Y410300D01*
X433404Y409598D01*
X433802Y409002D01*
X434398Y408604D01*
X435100Y408465D01*
X435802Y408604D01*
X436398Y409002D01*
X436796Y409598D01*
X436935Y410300D01*
X436796Y411002D01*
X436398Y411598D01*
X436171Y411749D01*
Y412351D01*
X436398Y412502D01*
X436796Y413098D01*
X436935Y413800D01*
X436796Y414502D01*
X436398Y415098D01*
X436286Y415172D01*
X436196Y415750D01*
X436496Y416198D01*
X436635Y416900D01*
X436496Y417602D01*
X436295Y417903D01*
X436411Y418544D01*
X436498Y418602D01*
X436896Y419198D01*
X437035Y419900D01*
X436896Y420602D01*
X436498Y421198D01*
X435902Y421596D01*
X435200Y421735D01*
D02*
G37*
G36*
X402100Y407035D02*
X401398Y406896D01*
X400802Y406498D01*
X400404Y405902D01*
X400265Y405200D01*
X400404Y404498D01*
X400802Y403902D01*
X401398Y403504D01*
X402100Y403365D01*
X402802Y403504D01*
X403398Y403902D01*
X403796Y404498D01*
X403935Y405200D01*
X403796Y405902D01*
X403398Y406498D01*
X402802Y406896D01*
X402100Y407035D01*
D02*
G37*
G36*
X426000Y447345D02*
X425103Y447167D01*
X424342Y446658D01*
X423833Y445897D01*
X423655Y445000D01*
X423833Y444103D01*
X424342Y443342D01*
X424455Y443229D01*
Y395700D01*
X424633Y394803D01*
X425142Y394042D01*
X425903Y393533D01*
X426800Y393355D01*
X427697Y393533D01*
X428458Y394042D01*
X428967Y394803D01*
X429145Y395700D01*
Y444200D01*
X428967Y445097D01*
X428458Y445858D01*
X427658Y446658D01*
X426897Y447167D01*
X426000Y447345D01*
D02*
G37*
G36*
X453700Y396935D02*
X452998Y396796D01*
X452402Y396398D01*
X452004Y395802D01*
X451865Y395100D01*
X452004Y394398D01*
X452402Y393802D01*
X452998Y393404D01*
X453700Y393265D01*
X454402Y393404D01*
X454998Y393802D01*
X455396Y394398D01*
X455535Y395100D01*
X455396Y395802D01*
X454998Y396398D01*
X454402Y396796D01*
X453700Y396935D01*
D02*
G37*
G36*
X520700Y457826D02*
X519917Y457723D01*
X519187Y457420D01*
X518560Y456940D01*
X518460Y456840D01*
X517979Y456213D01*
X517677Y455483D01*
X517574Y454700D01*
Y394000D01*
X517677Y393217D01*
X517979Y392487D01*
X518460Y391860D01*
X519087Y391379D01*
X519817Y391077D01*
X520600Y390974D01*
X521383Y391077D01*
X522113Y391379D01*
X522740Y391860D01*
X523220Y392487D01*
X523523Y393217D01*
X523626Y394000D01*
Y454040D01*
X523726Y454800D01*
X523623Y455583D01*
X523320Y456313D01*
X522840Y456940D01*
X522213Y457420D01*
X521483Y457723D01*
X520700Y457826D01*
D02*
G37*
G36*
X546201Y397806D02*
X545287Y397686D01*
X544436Y397333D01*
X543705Y396772D01*
X543144Y396041D01*
X542791Y395189D01*
X542671Y394276D01*
X542791Y393362D01*
X543144Y392511D01*
X543705Y391779D01*
X544436Y391218D01*
X545287Y390866D01*
X546201Y390745D01*
X547115Y390866D01*
X547966Y391218D01*
X548697Y391779D01*
X549258Y392511D01*
X549611Y393362D01*
X549731Y394276D01*
X549611Y395189D01*
X549258Y396041D01*
X548697Y396772D01*
X547966Y397333D01*
X547115Y397686D01*
X546201Y397806D01*
D02*
G37*
G36*
X531201D02*
X530287Y397686D01*
X529436Y397333D01*
X528705Y396772D01*
X528144Y396041D01*
X527791Y395189D01*
X527671Y394276D01*
X527791Y393362D01*
X528144Y392511D01*
X528705Y391779D01*
X529436Y391218D01*
X530287Y390866D01*
X531201Y390745D01*
X532115Y390866D01*
X532966Y391218D01*
X533697Y391779D01*
X534258Y392511D01*
X534611Y393362D01*
X534731Y394276D01*
X534611Y395189D01*
X534258Y396041D01*
X533697Y396772D01*
X532966Y397333D01*
X532115Y397686D01*
X531201Y397806D01*
D02*
G37*
G36*
X403600Y390035D02*
X402898Y389896D01*
X402302Y389498D01*
X401904Y388902D01*
X401765Y388200D01*
X401904Y387498D01*
X402302Y386902D01*
X402898Y386504D01*
X403600Y386365D01*
X404302Y386504D01*
X404898Y386902D01*
X405296Y387498D01*
X405435Y388200D01*
X405296Y388902D01*
X404898Y389498D01*
X404302Y389896D01*
X403600Y390035D01*
D02*
G37*
G36*
X553701Y392806D02*
X552787Y392686D01*
X551936Y392333D01*
X551205Y391772D01*
X550643Y391041D01*
X550291Y390189D01*
X550171Y389276D01*
X550291Y388362D01*
X550643Y387510D01*
X551205Y386779D01*
X551936Y386218D01*
X552787Y385866D01*
X553701Y385745D01*
X554614Y385866D01*
X555466Y386218D01*
X556197Y386779D01*
X556758Y387510D01*
X557111Y388362D01*
X557231Y389276D01*
X557111Y390189D01*
X556758Y391041D01*
X556197Y391772D01*
X555466Y392333D01*
X554614Y392686D01*
X553701Y392806D01*
D02*
G37*
G36*
X538701D02*
X537787Y392686D01*
X536936Y392333D01*
X536205Y391772D01*
X535643Y391041D01*
X535291Y390189D01*
X535171Y389276D01*
X535291Y388362D01*
X535643Y387510D01*
X536205Y386779D01*
X536936Y386218D01*
X537787Y385866D01*
X538701Y385745D01*
X539614Y385866D01*
X540466Y386218D01*
X541197Y386779D01*
X541758Y387510D01*
X542111Y388362D01*
X542231Y389276D01*
X542111Y390189D01*
X541758Y391041D01*
X541197Y391772D01*
X540466Y392333D01*
X539614Y392686D01*
X538701Y392806D01*
D02*
G37*
G36*
X454900Y386835D02*
X454198Y386696D01*
X453602Y386298D01*
X453204Y385702D01*
X453065Y385000D01*
X453204Y384298D01*
X453602Y383702D01*
X454198Y383304D01*
X454900Y383165D01*
X455602Y383304D01*
X456198Y383702D01*
X456596Y384298D01*
X456735Y385000D01*
X456596Y385702D01*
X456198Y386298D01*
X455602Y386696D01*
X454900Y386835D01*
D02*
G37*
G36*
X446000Y403645D02*
X445103Y403467D01*
X444342Y402958D01*
X443833Y402197D01*
X443655Y401300D01*
Y391200D01*
X443833Y390303D01*
X443855Y390270D01*
Y381466D01*
X443355Y381220D01*
X442987Y381502D01*
X442318Y381779D01*
X441600Y381874D01*
X440882Y381779D01*
X440213Y381502D01*
X439639Y381061D01*
X439198Y380487D01*
X438921Y379818D01*
X438826Y379100D01*
Y374200D01*
X438921Y373482D01*
X439198Y372813D01*
X439639Y372239D01*
X440213Y371798D01*
X440882Y371521D01*
X441600Y371426D01*
X442318Y371521D01*
X442987Y371798D01*
X443355Y372080D01*
X443855Y371834D01*
Y369350D01*
X443754Y369266D01*
X443088Y369363D01*
X442998Y369498D01*
X442402Y369896D01*
X441700Y370035D01*
X440998Y369896D01*
X440402Y369498D01*
X440004Y368902D01*
X439865Y368200D01*
X440004Y367498D01*
X440402Y366902D01*
Y366464D01*
X440302Y366398D01*
X439904Y365802D01*
X439765Y365100D01*
X439904Y364398D01*
X440302Y363802D01*
X440414Y363728D01*
X440504Y363150D01*
X440204Y362702D01*
X440065Y362000D01*
X440204Y361298D01*
X440602Y360702D01*
X440580Y360116D01*
X440402Y359998D01*
X440004Y359402D01*
X439865Y358700D01*
X440004Y357998D01*
X440402Y357402D01*
X440554Y357301D01*
Y356699D01*
X440402Y356598D01*
X440004Y356002D01*
X439865Y355300D01*
X440004Y354598D01*
X440402Y354002D01*
X440502Y353936D01*
Y353498D01*
X440104Y352902D01*
X439965Y352200D01*
X440104Y351498D01*
X440502Y350902D01*
X440554Y350868D01*
Y350266D01*
X440302Y350098D01*
X439904Y349502D01*
X439765Y348800D01*
X439904Y348098D01*
X440302Y347502D01*
Y347098D01*
X439904Y346502D01*
X439765Y345800D01*
X439904Y345098D01*
X440302Y344502D01*
X440898Y344104D01*
X441600Y343965D01*
X442302Y344104D01*
X442898Y344502D01*
X443296Y345098D01*
X443355Y345396D01*
X443855Y345347D01*
Y342100D01*
X444033Y341203D01*
X444542Y340442D01*
X445303Y339933D01*
X446200Y339755D01*
X447097Y339933D01*
X447858Y340442D01*
X448367Y341203D01*
X448545Y342100D01*
Y391000D01*
X448367Y391897D01*
X448345Y391930D01*
Y401300D01*
X448167Y402197D01*
X447658Y402958D01*
X446897Y403467D01*
X446000Y403645D01*
D02*
G37*
G36*
X553701Y382806D02*
X552787Y382685D01*
X551936Y382333D01*
X551205Y381772D01*
X550643Y381041D01*
X550291Y380189D01*
X550171Y379276D01*
X550291Y378362D01*
X550643Y377510D01*
X551205Y376779D01*
X551936Y376218D01*
X552787Y375866D01*
X553701Y375745D01*
X554614Y375866D01*
X555466Y376218D01*
X556197Y376779D01*
X556758Y377510D01*
X557111Y378362D01*
X557231Y379276D01*
X557111Y380189D01*
X556758Y381041D01*
X556197Y381772D01*
X555466Y382333D01*
X554614Y382685D01*
X553701Y382806D01*
D02*
G37*
G36*
X538701D02*
X537787Y382685D01*
X536936Y382333D01*
X536205Y381772D01*
X535643Y381041D01*
X535291Y380189D01*
X535171Y379276D01*
X535291Y378362D01*
X535643Y377510D01*
X536205Y376779D01*
X536936Y376218D01*
X537787Y375866D01*
X538701Y375745D01*
X539614Y375866D01*
X540466Y376218D01*
X541197Y376779D01*
X541758Y377510D01*
X542111Y378362D01*
X542231Y379276D01*
X542111Y380189D01*
X541758Y381041D01*
X541197Y381772D01*
X540466Y382333D01*
X539614Y382685D01*
X538701Y382806D01*
D02*
G37*
G36*
X553701Y372806D02*
X552787Y372686D01*
X551936Y372333D01*
X551205Y371772D01*
X550643Y371041D01*
X550291Y370189D01*
X550171Y369276D01*
X550291Y368362D01*
X550643Y367511D01*
X551205Y366779D01*
X551936Y366218D01*
X552787Y365866D01*
X553701Y365745D01*
X554614Y365866D01*
X555466Y366218D01*
X556197Y366779D01*
X556758Y367511D01*
X557111Y368362D01*
X557231Y369276D01*
X557111Y370189D01*
X556758Y371041D01*
X556197Y371772D01*
X555466Y372333D01*
X554614Y372686D01*
X553701Y372806D01*
D02*
G37*
G36*
X538701D02*
X537787Y372686D01*
X536936Y372333D01*
X536205Y371772D01*
X535643Y371041D01*
X535291Y370189D01*
X535171Y369276D01*
X535291Y368362D01*
X535643Y367511D01*
X536205Y366779D01*
X536936Y366218D01*
X537787Y365866D01*
X538701Y365745D01*
X539614Y365866D01*
X540466Y366218D01*
X541197Y366779D01*
X541758Y367511D01*
X542111Y368362D01*
X542231Y369276D01*
X542111Y370189D01*
X541758Y371041D01*
X541197Y371772D01*
X540466Y372333D01*
X539614Y372686D01*
X538701Y372806D01*
D02*
G37*
G36*
X546201Y367806D02*
X545287Y367686D01*
X544436Y367333D01*
X543705Y366772D01*
X543144Y366041D01*
X542791Y365189D01*
X542671Y364276D01*
X542791Y363362D01*
X543144Y362510D01*
X543705Y361779D01*
X544436Y361218D01*
X545287Y360866D01*
X546201Y360745D01*
X547115Y360866D01*
X547966Y361218D01*
X548697Y361779D01*
X549258Y362510D01*
X549611Y363362D01*
X549731Y364276D01*
X549611Y365189D01*
X549258Y366041D01*
X548697Y366772D01*
X547966Y367333D01*
X547115Y367686D01*
X546201Y367806D01*
D02*
G37*
G36*
X531201D02*
X530287Y367686D01*
X529436Y367333D01*
X528705Y366772D01*
X528144Y366041D01*
X527791Y365189D01*
X527671Y364276D01*
X527791Y363362D01*
X528144Y362510D01*
X528705Y361779D01*
X529436Y361218D01*
X530287Y360866D01*
X531201Y360745D01*
X532115Y360866D01*
X532966Y361218D01*
X533697Y361779D01*
X534258Y362510D01*
X534611Y363362D01*
X534731Y364276D01*
X534611Y365189D01*
X534258Y366041D01*
X533697Y366772D01*
X532966Y367333D01*
X532115Y367686D01*
X531201Y367806D01*
D02*
G37*
G36*
X553701Y362806D02*
X552787Y362685D01*
X551936Y362333D01*
X551205Y361772D01*
X550643Y361041D01*
X550291Y360189D01*
X550171Y359276D01*
X550291Y358362D01*
X550643Y357510D01*
X551205Y356779D01*
X551936Y356218D01*
X552787Y355866D01*
X553701Y355745D01*
X554614Y355866D01*
X555466Y356218D01*
X556197Y356779D01*
X556758Y357510D01*
X557111Y358362D01*
X557231Y359276D01*
X557111Y360189D01*
X556758Y361041D01*
X556197Y361772D01*
X555466Y362333D01*
X554614Y362685D01*
X553701Y362806D01*
D02*
G37*
G36*
X507900Y432245D02*
X507003Y432067D01*
X506242Y431558D01*
X505733Y430797D01*
X505571Y429978D01*
X504942Y429558D01*
X504433Y428797D01*
X504296Y428105D01*
X504103Y428067D01*
X503342Y427558D01*
X502833Y426797D01*
X502694Y426094D01*
X502042Y425658D01*
X501533Y424897D01*
X501355Y424001D01*
X500842Y423658D01*
X500333Y422897D01*
X500200Y422226D01*
X499903Y422167D01*
X499142Y421658D01*
X498633Y420897D01*
X498486Y420155D01*
X497742Y419658D01*
X497233Y418897D01*
X497071Y418078D01*
X496442Y417658D01*
X495933Y416897D01*
X495755Y416000D01*
X495933Y415103D01*
X495955Y415070D01*
Y366256D01*
X495503Y366167D01*
X494742Y365658D01*
X494233Y364897D01*
X494187Y364663D01*
X493703Y364567D01*
X492942Y364058D01*
X492433Y363297D01*
X492255Y362400D01*
X492284Y362254D01*
X491542Y361758D01*
X491033Y360997D01*
X490855Y360100D01*
X490859Y360078D01*
X490803Y360067D01*
X490042Y359558D01*
X489533Y358797D01*
X489355Y357900D01*
X489442Y357460D01*
X488842Y357058D01*
X488333Y356297D01*
X488212Y355688D01*
X488103Y355667D01*
X487342Y355158D01*
X486833Y354397D01*
X486655Y353500D01*
X486659Y353478D01*
X486603Y353467D01*
X485842Y352958D01*
X485823Y352931D01*
X485345Y353076D01*
Y403800D01*
X485167Y404697D01*
X484658Y405458D01*
X483937Y405940D01*
X483767Y406797D01*
X483258Y407558D01*
X482497Y408067D01*
X481600Y408245D01*
X480703Y408067D01*
X479942Y407558D01*
X479642Y407258D01*
X479133Y406497D01*
X478955Y405600D01*
Y390936D01*
X478247Y390795D01*
X478167Y391197D01*
X477658Y391958D01*
X476897Y392467D01*
X476000Y392645D01*
X475103Y392467D01*
X474342Y391958D01*
X473833Y391197D01*
X473655Y390300D01*
Y387200D01*
X473833Y386303D01*
X474342Y385542D01*
X475955Y383929D01*
Y371865D01*
X475455Y371455D01*
X475000Y371545D01*
X474103Y371367D01*
X473342Y370858D01*
X473242Y370758D01*
X472733Y369997D01*
X472555Y369100D01*
Y314271D01*
X472542Y314258D01*
X472033Y313497D01*
X471855Y312600D01*
X472033Y311703D01*
X472542Y310942D01*
X473303Y310433D01*
X474155Y310264D01*
Y309403D01*
X474055Y308900D01*
X474233Y308003D01*
X474742Y307242D01*
X475503Y306733D01*
X476299Y306575D01*
X476651Y306304D01*
X476738Y306217D01*
X476655Y305800D01*
X476833Y304903D01*
X477342Y304142D01*
X478103Y303633D01*
X478955Y303464D01*
Y303203D01*
X478855Y302700D01*
X479033Y301803D01*
X479542Y301042D01*
X480303Y300533D01*
X480745Y300445D01*
X480833Y300003D01*
X481342Y299242D01*
X482103Y298733D01*
X483000Y298555D01*
X483897Y298733D01*
X484658Y299242D01*
X485167Y300003D01*
X485345Y300900D01*
Y307785D01*
X485845Y307936D01*
X486042Y307642D01*
X486803Y307133D01*
X487155Y307063D01*
Y306528D01*
X486733Y305897D01*
X486555Y305000D01*
X486733Y304103D01*
X487242Y303342D01*
X488003Y302833D01*
X488755Y302684D01*
Y299400D01*
X488933Y298503D01*
X489086Y298275D01*
X488833Y297897D01*
X488721Y297330D01*
X488403Y297267D01*
X487642Y296758D01*
X487133Y295997D01*
X486955Y295100D01*
X487088Y294429D01*
X486733Y293897D01*
X486608Y293267D01*
X486103Y293167D01*
X485342Y292658D01*
X484833Y291897D01*
X484716Y291309D01*
X484503Y291267D01*
X483742Y290758D01*
X483233Y289997D01*
X483092Y289284D01*
X483003Y289267D01*
X482242Y288758D01*
X481733Y287997D01*
X481616Y287409D01*
X481403Y287367D01*
X480642Y286858D01*
X480542Y286758D01*
X480033Y285997D01*
X479920Y285430D01*
X479603Y285367D01*
X478842Y284858D01*
X478333Y284097D01*
X478155Y283200D01*
Y274800D01*
X478333Y273903D01*
X478842Y273142D01*
X479603Y272633D01*
X479855Y272583D01*
Y270868D01*
X479742Y270755D01*
X479233Y269994D01*
X479055Y269097D01*
Y268800D01*
X479233Y267903D01*
X479742Y267142D01*
X480503Y266633D01*
X480755Y266583D01*
Y264300D01*
X480933Y263403D01*
X481442Y262642D01*
X482203Y262133D01*
X483100Y261955D01*
X483255Y261828D01*
Y259928D01*
X482833Y259297D01*
X482655Y258400D01*
X482833Y257503D01*
X483342Y256742D01*
X484103Y256233D01*
X484855Y256084D01*
Y249300D01*
X485033Y248403D01*
X485542Y247642D01*
X486226Y246957D01*
X486055Y246096D01*
Y243500D01*
X486233Y242603D01*
X486742Y241842D01*
X487503Y241333D01*
X488400Y241155D01*
X488755Y240864D01*
Y239503D01*
X488655Y239000D01*
X488833Y238103D01*
X489342Y237342D01*
X490103Y236833D01*
X491000Y236655D01*
X491897Y236833D01*
X492658Y237342D01*
X492758Y237442D01*
X493267Y238203D01*
X493445Y239100D01*
Y265529D01*
X493458Y265542D01*
X493967Y266303D01*
X494145Y267200D01*
Y280402D01*
X494607Y280493D01*
X494645Y280485D01*
X495142Y279742D01*
X495903Y279233D01*
X496800Y279055D01*
X496968Y279088D01*
X497355Y278771D01*
Y265371D01*
X495742Y263758D01*
X495233Y262997D01*
X495055Y262100D01*
X495233Y261203D01*
X495742Y260442D01*
X496503Y259933D01*
X497396Y259756D01*
X497656Y259699D01*
X497855Y259500D01*
X498033Y258603D01*
X498542Y257842D01*
X499303Y257333D01*
X499558Y257283D01*
X499749Y256821D01*
X499533Y256497D01*
X499355Y255600D01*
X499533Y254703D01*
X500042Y253942D01*
X500766Y253458D01*
X500755Y253400D01*
Y253200D01*
X500933Y252303D01*
X501442Y251542D01*
X502203Y251033D01*
X503100Y250855D01*
X503997Y251033D01*
X504125Y251119D01*
X504403Y250933D01*
X504612Y250892D01*
X504455Y250100D01*
X504633Y249203D01*
X504881Y248831D01*
X505042Y248358D01*
X504842Y248059D01*
X504842Y248059D01*
X504810Y248012D01*
X504533Y247597D01*
X504355Y246700D01*
X504533Y245803D01*
X505042Y245042D01*
X505803Y244533D01*
X506700Y244355D01*
X507299D01*
X507642Y243842D01*
X508403Y243333D01*
X509300Y243155D01*
X509355Y243110D01*
Y233071D01*
X509042Y232758D01*
X508533Y231997D01*
X508355Y231100D01*
X508533Y230203D01*
X509042Y229442D01*
X509555Y229099D01*
X509733Y228203D01*
X510242Y227442D01*
X511003Y226933D01*
X511061Y226922D01*
X511145Y226503D01*
X511653Y225742D01*
X512414Y225233D01*
X513311Y225055D01*
X514209Y225233D01*
X514969Y225742D01*
X516058Y226831D01*
X516567Y227591D01*
X516745Y228489D01*
Y256700D01*
X516567Y257597D01*
X516058Y258358D01*
X516058Y258358D01*
X515758Y258658D01*
X515190Y259038D01*
X514986Y259554D01*
X514982Y259679D01*
X515145Y260500D01*
X514967Y261397D01*
X514458Y262158D01*
X513697Y262667D01*
X513445Y262717D01*
Y264429D01*
X513858Y264842D01*
X514367Y265603D01*
X514545Y266500D01*
X514367Y267397D01*
X513858Y268158D01*
X513097Y268667D01*
X512982Y268690D01*
X512876Y269220D01*
X513298Y269502D01*
X513696Y270098D01*
X513835Y270800D01*
X513696Y271502D01*
X513298Y272098D01*
X512702Y272496D01*
X512045Y272626D01*
Y275721D01*
X512167Y275903D01*
X512345Y276800D01*
X512167Y277697D01*
X511658Y278458D01*
X510897Y278967D01*
X510645Y279017D01*
Y280470D01*
X510667Y280503D01*
X510845Y281400D01*
X510667Y282297D01*
X510158Y283058D01*
X510076Y283113D01*
X510027Y283611D01*
X510758Y284342D01*
X511267Y285103D01*
X511445Y286000D01*
X511267Y286897D01*
X510758Y287658D01*
X509997Y288167D01*
X509100Y288345D01*
X508345Y288195D01*
X507845Y288483D01*
Y291000D01*
X507667Y291897D01*
X507158Y292658D01*
X506397Y293167D01*
X506145Y293217D01*
Y295021D01*
X506267Y295203D01*
X506445Y296100D01*
X506267Y296997D01*
X505758Y297758D01*
X504997Y298267D01*
X504745Y298317D01*
Y302171D01*
X504967Y302503D01*
X505145Y303400D01*
X504967Y304297D01*
X504458Y305058D01*
X503697Y305567D01*
X503445Y305617D01*
Y306221D01*
X503567Y306403D01*
X503745Y307300D01*
X503567Y308197D01*
X503058Y308958D01*
X502297Y309467D01*
X502045Y309517D01*
Y313400D01*
X501867Y314297D01*
X501358Y315058D01*
X501258Y315158D01*
X500497Y315667D01*
X499600Y315845D01*
X499332Y315792D01*
X498945Y316109D01*
Y334098D01*
X499445Y334147D01*
X499533Y333703D01*
X500042Y332942D01*
X500803Y332433D01*
X501700Y332255D01*
X502597Y332433D01*
X502714Y332511D01*
X503155Y332276D01*
Y329971D01*
X502642Y329458D01*
X502133Y328697D01*
X501955Y327800D01*
X502133Y326903D01*
X502642Y326142D01*
X503403Y325633D01*
X504300Y325455D01*
X504355Y325410D01*
Y324871D01*
X504342Y324858D01*
X503833Y324097D01*
X503655Y323200D01*
X503833Y322303D01*
X504342Y321542D01*
X505103Y321033D01*
X505955Y320864D01*
Y320400D01*
X506133Y319503D01*
X506642Y318742D01*
X507403Y318233D01*
X508300Y318055D01*
X509197Y318233D01*
X509958Y318742D01*
X510467Y319503D01*
X510645Y320400D01*
Y428604D01*
X510467Y429502D01*
X510435Y429548D01*
X510267Y430397D01*
X510095Y430654D01*
X510067Y430797D01*
X509558Y431558D01*
X508797Y432067D01*
X507900Y432245D01*
D02*
G37*
G36*
X546201Y357806D02*
X545287Y357685D01*
X544436Y357333D01*
X543705Y356772D01*
X543144Y356041D01*
X542791Y355189D01*
X542671Y354276D01*
X542791Y353362D01*
X543144Y352510D01*
X543705Y351779D01*
X544436Y351218D01*
X545287Y350866D01*
X546201Y350745D01*
X547115Y350866D01*
X547966Y351218D01*
X548697Y351779D01*
X549258Y352510D01*
X549611Y353362D01*
X549731Y354276D01*
X549611Y355189D01*
X549258Y356041D01*
X548697Y356772D01*
X547966Y357333D01*
X547115Y357685D01*
X546201Y357806D01*
D02*
G37*
G36*
X531201D02*
X530287Y357685D01*
X529436Y357333D01*
X528705Y356772D01*
X528144Y356041D01*
X527791Y355189D01*
X527671Y354276D01*
X527791Y353362D01*
X528144Y352510D01*
X528705Y351779D01*
X529436Y351218D01*
X530287Y350866D01*
X531201Y350745D01*
X532115Y350866D01*
X532966Y351218D01*
X533697Y351779D01*
X534258Y352510D01*
X534611Y353362D01*
X534731Y354276D01*
X534611Y355189D01*
X534258Y356041D01*
X533697Y356772D01*
X532966Y357333D01*
X532115Y357685D01*
X531201Y357806D01*
D02*
G37*
G36*
X464900Y365635D02*
X464198Y365496D01*
X463602Y365098D01*
X463204Y364502D01*
X463065Y363800D01*
X463097Y363635D01*
X462898Y363596D01*
X462302Y363198D01*
X461904Y362602D01*
X461765Y361900D01*
X461904Y361198D01*
X462302Y360602D01*
X462898Y360204D01*
X463020Y360180D01*
X462965Y359900D01*
X463012Y359661D01*
X462936Y359646D01*
X462341Y359248D01*
X461943Y358652D01*
X461803Y357950D01*
X461943Y357248D01*
X462341Y356652D01*
X462823Y356330D01*
X462790Y355863D01*
X462770Y355810D01*
X462698Y355796D01*
X462102Y355398D01*
X461704Y354802D01*
X461565Y354100D01*
X461704Y353398D01*
X462102Y352802D01*
X462698Y352404D01*
X462990Y352346D01*
X462936Y352071D01*
X463002Y351737D01*
X463000Y351735D01*
X462298Y351596D01*
X461702Y351198D01*
X461304Y350602D01*
X461165Y349900D01*
X461304Y349198D01*
X461702Y348602D01*
X462298Y348204D01*
X463000Y348065D01*
X463702Y348204D01*
X464298Y348602D01*
X464696Y349198D01*
X464835Y349900D01*
X464769Y350234D01*
X464771Y350236D01*
X465473Y350375D01*
X466069Y350773D01*
X466466Y351369D01*
X466606Y352071D01*
X466466Y352773D01*
X466069Y353369D01*
X465473Y353766D01*
X465417Y353778D01*
Y354287D01*
X465502Y354304D01*
X466098Y354702D01*
X466496Y355298D01*
X466635Y356000D01*
X466496Y356702D01*
X466098Y357298D01*
X465502Y357696D01*
X465426Y357711D01*
X465474Y357950D01*
X465426Y358189D01*
X465502Y358204D01*
X466098Y358602D01*
X466496Y359198D01*
X466635Y359900D01*
X466496Y360602D01*
X466098Y361198D01*
X465526Y361579D01*
X465512Y361685D01*
X465555Y362095D01*
X465602Y362104D01*
X466198Y362502D01*
X466596Y363098D01*
X466735Y363800D01*
X466596Y364502D01*
X466198Y365098D01*
X465602Y365496D01*
X464900Y365635D01*
D02*
G37*
G36*
X538701Y352806D02*
X537787Y352685D01*
X536936Y352333D01*
X536205Y351772D01*
X535643Y351041D01*
X535291Y350189D01*
X535171Y349276D01*
X535291Y348362D01*
X535643Y347511D01*
X536205Y346779D01*
X536936Y346218D01*
X537787Y345866D01*
X538701Y345745D01*
X539614Y345866D01*
X540466Y346218D01*
X541197Y346779D01*
X541758Y347511D01*
X542111Y348362D01*
X542231Y349276D01*
X542111Y350189D01*
X541758Y351041D01*
X541197Y351772D01*
X540466Y352333D01*
X539614Y352685D01*
X538701Y352806D01*
D02*
G37*
G36*
X429700Y383945D02*
X428803Y383767D01*
X428042Y383258D01*
X427533Y382497D01*
X427355Y381600D01*
X427533Y380703D01*
X427655Y380521D01*
Y334171D01*
X427642Y334158D01*
X427133Y333397D01*
X426955Y332500D01*
X427133Y331603D01*
X427642Y330842D01*
X428403Y330333D01*
X429300Y330155D01*
X430197Y330333D01*
X430958Y330842D01*
X431658Y331542D01*
X432167Y332303D01*
X432345Y333200D01*
Y343186D01*
X432845Y343338D01*
X433002Y343102D01*
X433598Y342704D01*
X434300Y342565D01*
X435002Y342704D01*
X435598Y343102D01*
X435996Y343698D01*
X436135Y344400D01*
X435996Y345102D01*
X435598Y345698D01*
X435421Y345816D01*
X435398Y346402D01*
X435796Y346998D01*
X435935Y347700D01*
X435796Y348402D01*
X435398Y348998D01*
X434971Y349283D01*
X434810Y349530D01*
X434830Y349900D01*
X435096Y350298D01*
X435235Y351000D01*
X435096Y351702D01*
X434853Y352065D01*
X434999Y352591D01*
X435034Y352626D01*
X435598Y353002D01*
X435996Y353598D01*
X436135Y354300D01*
X435996Y355002D01*
X435598Y355598D01*
X435072Y355949D01*
X435064Y356233D01*
X435125Y356469D01*
X435302Y356504D01*
X435898Y356902D01*
X436296Y357498D01*
X436435Y358200D01*
X436296Y358902D01*
X435898Y359498D01*
X435695Y359633D01*
X435498Y360102D01*
X435896Y360698D01*
X436035Y361400D01*
X435896Y362102D01*
X435498Y362698D01*
X435364Y362787D01*
X435387Y363091D01*
X435446Y363334D01*
X435998Y363702D01*
X436396Y364298D01*
X436535Y365000D01*
X436396Y365702D01*
X435998Y366298D01*
X435746Y366466D01*
Y367068D01*
X435798Y367102D01*
X436196Y367698D01*
X436335Y368400D01*
X436196Y369102D01*
X435798Y369698D01*
X435202Y370096D01*
X434500Y370235D01*
X433798Y370096D01*
X433202Y369698D01*
X433112Y369563D01*
X432446Y369466D01*
X432345Y369550D01*
Y381300D01*
X432167Y382197D01*
X431658Y382958D01*
X431658Y382958D01*
X431358Y383258D01*
X430597Y383767D01*
X429700Y383945D01*
D02*
G37*
G36*
X460300Y345035D02*
X459598Y344896D01*
X459002Y344498D01*
X458604Y343902D01*
X458465Y343200D01*
X458604Y342498D01*
X459002Y341902D01*
X459598Y341504D01*
X460300Y341365D01*
X461002Y341504D01*
X461598Y341902D01*
X461996Y342498D01*
X462135Y343200D01*
X461996Y343902D01*
X461598Y344498D01*
X461002Y344896D01*
X460300Y345035D01*
D02*
G37*
G36*
X546201Y347806D02*
X545287Y347686D01*
X544436Y347333D01*
X543705Y346772D01*
X543144Y346041D01*
X542791Y345189D01*
X542671Y344276D01*
X542791Y343362D01*
X543144Y342511D01*
X543705Y341779D01*
X544436Y341218D01*
X545287Y340866D01*
X546201Y340745D01*
X547115Y340866D01*
X547966Y341218D01*
X548697Y341779D01*
X549258Y342511D01*
X549611Y343362D01*
X549731Y344276D01*
X549611Y345189D01*
X549258Y346041D01*
X548697Y346772D01*
X547966Y347333D01*
X547115Y347686D01*
X546201Y347806D01*
D02*
G37*
G36*
X531201D02*
X530287Y347686D01*
X529436Y347333D01*
X528705Y346772D01*
X528144Y346041D01*
X527791Y345189D01*
X527671Y344276D01*
X527791Y343362D01*
X528144Y342511D01*
X528705Y341779D01*
X529436Y341218D01*
X530287Y340866D01*
X531201Y340745D01*
X532115Y340866D01*
X532966Y341218D01*
X533697Y341779D01*
X534258Y342511D01*
X534611Y343362D01*
X534731Y344276D01*
X534611Y345189D01*
X534258Y346041D01*
X533697Y346772D01*
X532966Y347333D01*
X532115Y347686D01*
X531201Y347806D01*
D02*
G37*
G36*
X538701Y342806D02*
X537787Y342686D01*
X536936Y342333D01*
X536205Y341772D01*
X535643Y341041D01*
X535291Y340189D01*
X535171Y339276D01*
X535291Y338362D01*
X535643Y337510D01*
X536205Y336779D01*
X536936Y336218D01*
X537787Y335866D01*
X538701Y335745D01*
X539614Y335866D01*
X540466Y336218D01*
X541197Y336779D01*
X541758Y337510D01*
X542111Y338362D01*
X542231Y339276D01*
X542111Y340189D01*
X541758Y341041D01*
X541197Y341772D01*
X540466Y342333D01*
X539614Y342686D01*
X538701Y342806D01*
D02*
G37*
G36*
X457300Y336735D02*
X456598Y336596D01*
X456002Y336198D01*
X455604Y335602D01*
X455465Y334900D01*
X455604Y334198D01*
X456002Y333602D01*
X456598Y333204D01*
X457300Y333065D01*
X458002Y333204D01*
X458598Y333602D01*
X458996Y334198D01*
X459135Y334900D01*
X458996Y335602D01*
X458598Y336198D01*
X458002Y336596D01*
X457300Y336735D01*
D02*
G37*
G36*
X546201Y337806D02*
X545287Y337685D01*
X544436Y337333D01*
X543705Y336772D01*
X543144Y336041D01*
X542791Y335189D01*
X542671Y334276D01*
X542791Y333362D01*
X543144Y332510D01*
X543705Y331779D01*
X544436Y331218D01*
X545287Y330866D01*
X546201Y330745D01*
X547115Y330866D01*
X547966Y331218D01*
X548697Y331779D01*
X549258Y332510D01*
X549611Y333362D01*
X549731Y334276D01*
X549611Y335189D01*
X549258Y336041D01*
X548697Y336772D01*
X547966Y337333D01*
X547115Y337685D01*
X546201Y337806D01*
D02*
G37*
G36*
X531201D02*
X530287Y337685D01*
X529436Y337333D01*
X528705Y336772D01*
X528144Y336041D01*
X527791Y335189D01*
X527671Y334276D01*
X527791Y333362D01*
X528144Y332510D01*
X528705Y331779D01*
X529436Y331218D01*
X530287Y330866D01*
X531201Y330745D01*
X532115Y330866D01*
X532966Y331218D01*
X533697Y331779D01*
X534258Y332510D01*
X534611Y333362D01*
X534731Y334276D01*
X534611Y335189D01*
X534258Y336041D01*
X533697Y336772D01*
X532966Y337333D01*
X532115Y337685D01*
X531201Y337806D01*
D02*
G37*
G36*
X538701Y332806D02*
X537787Y332685D01*
X536936Y332333D01*
X536205Y331772D01*
X535643Y331041D01*
X535291Y330189D01*
X535171Y329276D01*
X535291Y328362D01*
X535643Y327510D01*
X536205Y326779D01*
X536936Y326218D01*
X537787Y325866D01*
X538701Y325745D01*
X539614Y325866D01*
X540466Y326218D01*
X541197Y326779D01*
X541758Y327510D01*
X542111Y328362D01*
X542231Y329276D01*
X542111Y330189D01*
X541758Y331041D01*
X541197Y331772D01*
X540466Y332333D01*
X539614Y332685D01*
X538701Y332806D01*
D02*
G37*
G36*
X546201Y327806D02*
X545287Y327685D01*
X544436Y327333D01*
X543705Y326772D01*
X543144Y326041D01*
X542791Y325189D01*
X542671Y324276D01*
X542791Y323362D01*
X543144Y322511D01*
X543705Y321779D01*
X544436Y321218D01*
X545287Y320866D01*
X546201Y320745D01*
X547115Y320866D01*
X547966Y321218D01*
X548697Y321779D01*
X549258Y322511D01*
X549611Y323362D01*
X549731Y324276D01*
X549611Y325189D01*
X549258Y326041D01*
X548697Y326772D01*
X547966Y327333D01*
X547115Y327685D01*
X546201Y327806D01*
D02*
G37*
G36*
X531201D02*
X530287Y327685D01*
X529436Y327333D01*
X528705Y326772D01*
X528144Y326041D01*
X527791Y325189D01*
X527671Y324276D01*
X527791Y323362D01*
X528144Y322511D01*
X528705Y321779D01*
X529436Y321218D01*
X530287Y320866D01*
X531201Y320745D01*
X532115Y320866D01*
X532966Y321218D01*
X533697Y321779D01*
X534258Y322511D01*
X534611Y323362D01*
X534731Y324276D01*
X534611Y325189D01*
X534258Y326041D01*
X533697Y326772D01*
X532966Y327333D01*
X532115Y327685D01*
X531201Y327806D01*
D02*
G37*
G36*
X538701Y322806D02*
X537787Y322686D01*
X536936Y322333D01*
X536205Y321772D01*
X535643Y321041D01*
X535291Y320189D01*
X535171Y319276D01*
X535291Y318362D01*
X535643Y317511D01*
X536205Y316779D01*
X536936Y316218D01*
X537787Y315866D01*
X538701Y315745D01*
X539614Y315866D01*
X540466Y316218D01*
X541197Y316779D01*
X541758Y317511D01*
X542111Y318362D01*
X542231Y319276D01*
X542111Y320189D01*
X541758Y321041D01*
X541197Y321772D01*
X540466Y322333D01*
X539614Y322686D01*
X538701Y322806D01*
D02*
G37*
G36*
X546201Y317806D02*
X545287Y317686D01*
X544436Y317333D01*
X543705Y316772D01*
X543144Y316041D01*
X542791Y315189D01*
X542671Y314276D01*
X542791Y313362D01*
X543144Y312510D01*
X543705Y311779D01*
X544436Y311218D01*
X545287Y310866D01*
X546201Y310745D01*
X547115Y310866D01*
X547966Y311218D01*
X548697Y311779D01*
X549258Y312510D01*
X549611Y313362D01*
X549731Y314276D01*
X549611Y315189D01*
X549258Y316041D01*
X548697Y316772D01*
X547966Y317333D01*
X547115Y317686D01*
X546201Y317806D01*
D02*
G37*
G36*
X531201D02*
X530287Y317686D01*
X529436Y317333D01*
X528705Y316772D01*
X528144Y316041D01*
X527791Y315189D01*
X527671Y314276D01*
X527791Y313362D01*
X528144Y312510D01*
X528705Y311779D01*
X529436Y311218D01*
X530287Y310866D01*
X531201Y310745D01*
X532115Y310866D01*
X532966Y311218D01*
X533697Y311779D01*
X534258Y312510D01*
X534611Y313362D01*
X534731Y314276D01*
X534611Y315189D01*
X534258Y316041D01*
X533697Y316772D01*
X532966Y317333D01*
X532115Y317686D01*
X531201Y317806D01*
D02*
G37*
G36*
X553701Y312806D02*
X552787Y312685D01*
X551936Y312333D01*
X551205Y311772D01*
X550643Y311041D01*
X550291Y310189D01*
X550171Y309276D01*
X550291Y308362D01*
X550643Y307510D01*
X551205Y306779D01*
X551936Y306218D01*
X552787Y305866D01*
X553701Y305745D01*
X554614Y305866D01*
X555466Y306218D01*
X556197Y306779D01*
X556758Y307510D01*
X557111Y308362D01*
X557231Y309276D01*
X557111Y310189D01*
X556758Y311041D01*
X556197Y311772D01*
X555466Y312333D01*
X554614Y312685D01*
X553701Y312806D01*
D02*
G37*
G36*
X538701D02*
X537787Y312685D01*
X536936Y312333D01*
X536205Y311772D01*
X535643Y311041D01*
X535291Y310189D01*
X535171Y309276D01*
X535291Y308362D01*
X535643Y307510D01*
X536205Y306779D01*
X536936Y306218D01*
X537787Y305866D01*
X538701Y305745D01*
X539614Y305866D01*
X540466Y306218D01*
X541197Y306779D01*
X541758Y307510D01*
X542111Y308362D01*
X542231Y309276D01*
X542111Y310189D01*
X541758Y311041D01*
X541197Y311772D01*
X540466Y312333D01*
X539614Y312685D01*
X538701Y312806D01*
D02*
G37*
G36*
X546201Y307806D02*
X545287Y307685D01*
X544436Y307333D01*
X543705Y306772D01*
X543144Y306041D01*
X542791Y305189D01*
X542671Y304276D01*
X542791Y303362D01*
X543144Y302510D01*
X543705Y301779D01*
X544436Y301218D01*
X545287Y300866D01*
X546201Y300745D01*
X547115Y300866D01*
X547966Y301218D01*
X548697Y301779D01*
X549258Y302510D01*
X549611Y303362D01*
X549731Y304276D01*
X549611Y305189D01*
X549258Y306041D01*
X548697Y306772D01*
X547966Y307333D01*
X547115Y307685D01*
X546201Y307806D01*
D02*
G37*
G36*
X531201D02*
X530287Y307685D01*
X529436Y307333D01*
X528705Y306772D01*
X528144Y306041D01*
X527791Y305189D01*
X527671Y304276D01*
X527791Y303362D01*
X528144Y302510D01*
X528705Y301779D01*
X529436Y301218D01*
X530287Y300866D01*
X531201Y300745D01*
X532115Y300866D01*
X532966Y301218D01*
X533697Y301779D01*
X534258Y302510D01*
X534611Y303362D01*
X534731Y304276D01*
X534611Y305189D01*
X534258Y306041D01*
X533697Y306772D01*
X532966Y307333D01*
X532115Y307685D01*
X531201Y307806D01*
D02*
G37*
G36*
X434000Y303235D02*
X433298Y303096D01*
X432702Y302698D01*
X432304Y302102D01*
X432165Y301400D01*
X432304Y300698D01*
X432702Y300102D01*
Y300065D01*
X432302Y299798D01*
X431904Y299202D01*
X431765Y298500D01*
X431904Y297798D01*
X432302Y297202D01*
X432898Y296804D01*
X433600Y296665D01*
X434302Y296804D01*
X434898Y297202D01*
X435296Y297798D01*
X435435Y298500D01*
X435296Y299202D01*
X435158Y299408D01*
X435286Y300094D01*
X435298Y300102D01*
X435696Y300698D01*
X435835Y301400D01*
X435696Y302102D01*
X435298Y302698D01*
X434702Y303096D01*
X434000Y303235D01*
D02*
G37*
G36*
X553701Y302806D02*
X552787Y302685D01*
X551936Y302333D01*
X551205Y301772D01*
X550643Y301041D01*
X550291Y300189D01*
X550171Y299276D01*
X550291Y298362D01*
X550643Y297511D01*
X551205Y296779D01*
X551936Y296218D01*
X552787Y295866D01*
X553701Y295745D01*
X554614Y295866D01*
X555466Y296218D01*
X556197Y296779D01*
X556758Y297511D01*
X557111Y298362D01*
X557231Y299276D01*
X557111Y300189D01*
X556758Y301041D01*
X556197Y301772D01*
X555466Y302333D01*
X554614Y302685D01*
X553701Y302806D01*
D02*
G37*
G36*
X538701D02*
X537787Y302685D01*
X536936Y302333D01*
X536205Y301772D01*
X535643Y301041D01*
X535291Y300189D01*
X535171Y299276D01*
X535291Y298362D01*
X535643Y297511D01*
X536205Y296779D01*
X536936Y296218D01*
X537787Y295866D01*
X538701Y295745D01*
X539614Y295866D01*
X540466Y296218D01*
X541197Y296779D01*
X541758Y297511D01*
X542111Y298362D01*
X542231Y299276D01*
X542111Y300189D01*
X541758Y301041D01*
X541197Y301772D01*
X540466Y302333D01*
X539614Y302685D01*
X538701Y302806D01*
D02*
G37*
G36*
X441600Y303735D02*
X440898Y303596D01*
X440302Y303198D01*
X439904Y302602D01*
X439765Y301900D01*
X439904Y301198D01*
X440302Y300602D01*
X440455Y300500D01*
Y300000D01*
X440302Y299898D01*
X439904Y299302D01*
X439765Y298600D01*
X439904Y297898D01*
X440302Y297302D01*
Y297298D01*
X439904Y296702D01*
X439765Y296000D01*
X439904Y295298D01*
X440302Y294702D01*
X440505Y294567D01*
Y294067D01*
X440402Y293998D01*
X440004Y293402D01*
X439865Y292700D01*
X440004Y291998D01*
X440402Y291402D01*
X440998Y291004D01*
X441700Y290865D01*
X442402Y291004D01*
X442998Y291402D01*
X443396Y291998D01*
X443535Y292700D01*
X443396Y293402D01*
X442998Y293998D01*
X442795Y294133D01*
Y294633D01*
X442898Y294702D01*
X443296Y295298D01*
X443435Y296000D01*
X443296Y296702D01*
X442898Y297298D01*
Y297302D01*
X443296Y297898D01*
X443435Y298600D01*
X443296Y299302D01*
X442898Y299898D01*
X442745Y300000D01*
Y300500D01*
X442898Y300602D01*
X443296Y301198D01*
X443435Y301900D01*
X443296Y302602D01*
X442898Y303198D01*
X442302Y303596D01*
X441600Y303735D01*
D02*
G37*
G36*
X546201Y297806D02*
X545287Y297686D01*
X544436Y297333D01*
X543705Y296772D01*
X543144Y296041D01*
X542791Y295189D01*
X542671Y294276D01*
X542791Y293362D01*
X543144Y292511D01*
X543705Y291779D01*
X544436Y291218D01*
X545287Y290866D01*
X546201Y290745D01*
X547115Y290866D01*
X547966Y291218D01*
X548697Y291779D01*
X549258Y292511D01*
X549611Y293362D01*
X549731Y294276D01*
X549611Y295189D01*
X549258Y296041D01*
X548697Y296772D01*
X547966Y297333D01*
X547115Y297686D01*
X546201Y297806D01*
D02*
G37*
G36*
X531201D02*
X530287Y297686D01*
X529436Y297333D01*
X528705Y296772D01*
X528144Y296041D01*
X527791Y295189D01*
X527671Y294276D01*
X527791Y293362D01*
X528144Y292511D01*
X528705Y291779D01*
X529436Y291218D01*
X530287Y290866D01*
X531201Y290745D01*
X532115Y290866D01*
X532966Y291218D01*
X533697Y291779D01*
X534258Y292511D01*
X534611Y293362D01*
X534731Y294276D01*
X534611Y295189D01*
X534258Y296041D01*
X533697Y296772D01*
X532966Y297333D01*
X532115Y297686D01*
X531201Y297806D01*
D02*
G37*
G36*
X553701Y292806D02*
X552787Y292686D01*
X551936Y292333D01*
X551205Y291772D01*
X550643Y291041D01*
X550291Y290189D01*
X550171Y289276D01*
X550291Y288362D01*
X550643Y287510D01*
X551205Y286779D01*
X551936Y286218D01*
X552787Y285866D01*
X553701Y285745D01*
X554614Y285866D01*
X555466Y286218D01*
X556197Y286779D01*
X556758Y287510D01*
X557111Y288362D01*
X557231Y289276D01*
X557111Y290189D01*
X556758Y291041D01*
X556197Y291772D01*
X555466Y292333D01*
X554614Y292686D01*
X553701Y292806D01*
D02*
G37*
G36*
X538701D02*
X537787Y292686D01*
X536936Y292333D01*
X536205Y291772D01*
X535643Y291041D01*
X535291Y290189D01*
X535171Y289276D01*
X535291Y288362D01*
X535643Y287510D01*
X536205Y286779D01*
X536936Y286218D01*
X537787Y285866D01*
X538701Y285745D01*
X539614Y285866D01*
X540466Y286218D01*
X541197Y286779D01*
X541758Y287510D01*
X542111Y288362D01*
X542231Y289276D01*
X542111Y290189D01*
X541758Y291041D01*
X541197Y291772D01*
X540466Y292333D01*
X539614Y292686D01*
X538701Y292806D01*
D02*
G37*
G36*
X546201Y287806D02*
X545287Y287685D01*
X544436Y287333D01*
X543705Y286772D01*
X543144Y286041D01*
X542791Y285189D01*
X542671Y284276D01*
X542791Y283362D01*
X543144Y282510D01*
X543705Y281779D01*
X544436Y281218D01*
X545287Y280866D01*
X546201Y280745D01*
X547115Y280866D01*
X547966Y281218D01*
X548697Y281779D01*
X549258Y282510D01*
X549611Y283362D01*
X549731Y284276D01*
X549611Y285189D01*
X549258Y286041D01*
X548697Y286772D01*
X547966Y287333D01*
X547115Y287685D01*
X546201Y287806D01*
D02*
G37*
G36*
X531201D02*
X530287Y287685D01*
X529436Y287333D01*
X528705Y286772D01*
X528144Y286041D01*
X527791Y285189D01*
X527671Y284276D01*
X527791Y283362D01*
X528144Y282510D01*
X528705Y281779D01*
X529436Y281218D01*
X530287Y280866D01*
X531201Y280745D01*
X532115Y280866D01*
X532966Y281218D01*
X533697Y281779D01*
X534258Y282510D01*
X534611Y283362D01*
X534731Y284276D01*
X534611Y285189D01*
X534258Y286041D01*
X533697Y286772D01*
X532966Y287333D01*
X532115Y287685D01*
X531201Y287806D01*
D02*
G37*
G36*
X465400Y298835D02*
X464698Y298696D01*
X464102Y298298D01*
X463704Y297702D01*
X463565Y297000D01*
X463145Y296545D01*
X462898Y296496D01*
X462302Y296098D01*
X461904Y295502D01*
X461765Y294800D01*
X461904Y294098D01*
X462302Y293502D01*
X462874Y293120D01*
X462889Y293017D01*
X462847Y292605D01*
X462298Y292496D01*
X461702Y292098D01*
X461304Y291502D01*
X461165Y290800D01*
X461304Y290098D01*
X461702Y289502D01*
X462298Y289104D01*
X463000Y288965D01*
X463164Y288997D01*
X463298Y288825D01*
X463280Y288626D01*
X463092Y288274D01*
X462698Y288196D01*
X462102Y287798D01*
X461704Y287202D01*
X461565Y286500D01*
X461704Y285798D01*
X462102Y285202D01*
X462698Y284804D01*
X463329Y284679D01*
X463473Y284361D01*
X463518Y284178D01*
X463311Y283725D01*
X463234Y283653D01*
X462702Y283298D01*
X462304Y282702D01*
X462165Y282000D01*
X462304Y281298D01*
X462702Y280702D01*
X463298Y280304D01*
X464000Y280165D01*
X464702Y280304D01*
X465298Y280702D01*
X465696Y281298D01*
X465835Y282000D01*
X465696Y282702D01*
X466066Y283047D01*
X466598Y283402D01*
X466996Y283998D01*
X467135Y284700D01*
X466996Y285402D01*
X466598Y285998D01*
X466002Y286396D01*
X465523Y286491D01*
X465424Y286629D01*
X465358Y286876D01*
X465668Y287318D01*
X466102Y287404D01*
X466698Y287802D01*
X467096Y288398D01*
X467235Y289100D01*
X467096Y289802D01*
X466698Y290398D01*
X466102Y290796D01*
X466055Y290805D01*
X466012Y291215D01*
X466026Y291320D01*
X466598Y291702D01*
X466996Y292298D01*
X467135Y293000D01*
X466996Y293702D01*
X466598Y294298D01*
X466002Y294696D01*
X465866Y294723D01*
X465809Y295207D01*
X465855Y295255D01*
X466102Y295304D01*
X466698Y295702D01*
X467096Y296298D01*
X467235Y297000D01*
X467096Y297702D01*
X466698Y298298D01*
X466102Y298696D01*
X465400Y298835D01*
D02*
G37*
G36*
X441500Y290235D02*
X440798Y290096D01*
X440202Y289698D01*
X439804Y289102D01*
X439665Y288400D01*
X439804Y287698D01*
X440202Y287102D01*
X440280Y287050D01*
Y286550D01*
X440202Y286498D01*
X439804Y285902D01*
X439665Y285200D01*
X439804Y284498D01*
X440202Y283902D01*
X440206Y283900D01*
Y283400D01*
X440202Y283398D01*
X439804Y282802D01*
X439665Y282100D01*
X439804Y281398D01*
X440202Y280802D01*
X440355Y280700D01*
Y280200D01*
X440202Y280098D01*
X439804Y279502D01*
X439665Y278800D01*
X439804Y278098D01*
X440202Y277502D01*
X440798Y277104D01*
X441500Y276965D01*
X442202Y277104D01*
X442798Y277502D01*
X443196Y278098D01*
X443335Y278800D01*
X443196Y279502D01*
X442798Y280098D01*
X442645Y280200D01*
Y280700D01*
X442798Y280802D01*
X443196Y281398D01*
X443335Y282100D01*
X443196Y282802D01*
X442798Y283398D01*
X442794Y283400D01*
Y283900D01*
X442798Y283902D01*
X443196Y284498D01*
X443335Y285200D01*
X443196Y285902D01*
X442798Y286498D01*
X442720Y286550D01*
Y287050D01*
X442798Y287102D01*
X443196Y287698D01*
X443335Y288400D01*
X443196Y289102D01*
X442798Y289698D01*
X442202Y290096D01*
X441500Y290235D01*
D02*
G37*
G36*
X553701Y282806D02*
X552787Y282685D01*
X551936Y282333D01*
X551205Y281772D01*
X550643Y281041D01*
X550291Y280189D01*
X550171Y279276D01*
X550291Y278362D01*
X550643Y277510D01*
X551205Y276779D01*
X551936Y276218D01*
X552787Y275866D01*
X553701Y275745D01*
X554614Y275866D01*
X555466Y276218D01*
X556197Y276779D01*
X556758Y277510D01*
X557111Y278362D01*
X557231Y279276D01*
X557111Y280189D01*
X556758Y281041D01*
X556197Y281772D01*
X555466Y282333D01*
X554614Y282685D01*
X553701Y282806D01*
D02*
G37*
G36*
X538701D02*
X537787Y282685D01*
X536936Y282333D01*
X536205Y281772D01*
X535643Y281041D01*
X535291Y280189D01*
X535171Y279276D01*
X535291Y278362D01*
X535643Y277510D01*
X536205Y276779D01*
X536936Y276218D01*
X537787Y275866D01*
X538701Y275745D01*
X539614Y275866D01*
X540466Y276218D01*
X541197Y276779D01*
X541758Y277510D01*
X542111Y278362D01*
X542231Y279276D01*
X542111Y280189D01*
X541758Y281041D01*
X541197Y281772D01*
X540466Y282333D01*
X539614Y282685D01*
X538701Y282806D01*
D02*
G37*
G36*
X433200Y295735D02*
X432498Y295596D01*
X431902Y295198D01*
X431504Y294602D01*
X431365Y293900D01*
X431504Y293198D01*
X431902Y292602D01*
X432097Y292472D01*
X432402Y292098D01*
X432224Y291831D01*
X432004Y291502D01*
X431865Y290800D01*
X432004Y290098D01*
X432402Y289502D01*
X432790Y289244D01*
X432684Y288713D01*
X432598Y288696D01*
X432002Y288298D01*
X431604Y287702D01*
X431465Y287000D01*
X431604Y286298D01*
X432002Y285702D01*
X432202Y285569D01*
X432142Y285008D01*
X431804Y284502D01*
X431665Y283800D01*
X431804Y283098D01*
X432202Y282502D01*
X432250Y281869D01*
X432004Y281502D01*
X431865Y280800D01*
X432004Y280098D01*
X432402Y279502D01*
X432629Y279351D01*
Y278749D01*
X432402Y278598D01*
X432004Y278002D01*
X431865Y277300D01*
X432004Y276598D01*
X432402Y276002D01*
X432998Y275604D01*
X433700Y275465D01*
X434402Y275604D01*
X434998Y276002D01*
X435396Y276598D01*
X435535Y277300D01*
X435396Y278002D01*
X434998Y278598D01*
X434771Y278749D01*
Y279351D01*
X434998Y279502D01*
X435396Y280098D01*
X435535Y280800D01*
X435396Y281502D01*
X434998Y282098D01*
X434950Y282731D01*
X435196Y283098D01*
X435335Y283800D01*
X435196Y284502D01*
X434798Y285098D01*
X434598Y285231D01*
X434658Y285792D01*
X434996Y286298D01*
X435135Y287000D01*
X434996Y287702D01*
X434598Y288298D01*
X434210Y288557D01*
X434316Y289087D01*
X434402Y289104D01*
X434998Y289502D01*
X435396Y290098D01*
X435535Y290800D01*
X435396Y291502D01*
X434998Y292098D01*
X434803Y292228D01*
X434498Y292602D01*
X434676Y292868D01*
X434896Y293198D01*
X435035Y293900D01*
X434896Y294602D01*
X434498Y295198D01*
X433902Y295596D01*
X433200Y295735D01*
D02*
G37*
G36*
X531201Y277806D02*
X530287Y277685D01*
X529436Y277333D01*
X528705Y276772D01*
X528144Y276041D01*
X527791Y275189D01*
X527671Y274276D01*
X527791Y273362D01*
X528144Y272511D01*
X528705Y271779D01*
X529436Y271218D01*
X530287Y270866D01*
X531201Y270745D01*
X532115Y270866D01*
X532966Y271218D01*
X533697Y271779D01*
X534258Y272511D01*
X534611Y273362D01*
X534731Y274276D01*
X534611Y275189D01*
X534258Y276041D01*
X533697Y276772D01*
X532966Y277333D01*
X532115Y277685D01*
X531201Y277806D01*
D02*
G37*
G36*
X401600Y274135D02*
X400898Y273996D01*
X400302Y273598D01*
X399904Y273002D01*
X399765Y272300D01*
X399904Y271598D01*
X400302Y271002D01*
X400898Y270604D01*
X401600Y270465D01*
X402302Y270604D01*
X402898Y271002D01*
X403296Y271598D01*
X403435Y272300D01*
X403296Y273002D01*
X402898Y273598D01*
X402302Y273996D01*
X401600Y274135D01*
D02*
G37*
G36*
X538701Y272806D02*
X537787Y272686D01*
X536936Y272333D01*
X536205Y271772D01*
X535643Y271041D01*
X535291Y270189D01*
X535171Y269276D01*
X535291Y268362D01*
X535643Y267511D01*
X536205Y266779D01*
X536936Y266218D01*
X537787Y265866D01*
X538701Y265745D01*
X539614Y265866D01*
X540466Y266218D01*
X541197Y266779D01*
X541758Y267511D01*
X542111Y268362D01*
X542231Y269276D01*
X542111Y270189D01*
X541758Y271041D01*
X541197Y271772D01*
X540466Y272333D01*
X539614Y272686D01*
X538701Y272806D01*
D02*
G37*
G36*
X546201Y267806D02*
X545287Y267686D01*
X544436Y267333D01*
X543705Y266772D01*
X543144Y266041D01*
X542791Y265189D01*
X542671Y264276D01*
X542791Y263362D01*
X543144Y262510D01*
X543705Y261779D01*
X544436Y261218D01*
X545287Y260866D01*
X546201Y260745D01*
X547115Y260866D01*
X547966Y261218D01*
X548697Y261779D01*
X549258Y262510D01*
X549611Y263362D01*
X549731Y264276D01*
X549611Y265189D01*
X549258Y266041D01*
X548697Y266772D01*
X547966Y267333D01*
X547115Y267686D01*
X546201Y267806D01*
D02*
G37*
G36*
X531201D02*
X530287Y267686D01*
X529436Y267333D01*
X528705Y266772D01*
X528144Y266041D01*
X527791Y265189D01*
X527671Y264276D01*
X527791Y263362D01*
X528144Y262510D01*
X528705Y261779D01*
X529436Y261218D01*
X530287Y260866D01*
X531201Y260745D01*
X532115Y260866D01*
X532966Y261218D01*
X533697Y261779D01*
X534258Y262510D01*
X534611Y263362D01*
X534731Y264276D01*
X534611Y265189D01*
X534258Y266041D01*
X533697Y266772D01*
X532966Y267333D01*
X532115Y267686D01*
X531201Y267806D01*
D02*
G37*
G36*
X553701Y262806D02*
X552787Y262685D01*
X551936Y262333D01*
X551205Y261772D01*
X550643Y261041D01*
X550291Y260189D01*
X550171Y259276D01*
X550291Y258362D01*
X550643Y257510D01*
X551205Y256779D01*
X551936Y256218D01*
X552787Y255866D01*
X553701Y255745D01*
X554614Y255866D01*
X555466Y256218D01*
X556197Y256779D01*
X556758Y257510D01*
X557111Y258362D01*
X557231Y259276D01*
X557111Y260189D01*
X556758Y261041D01*
X556197Y261772D01*
X555466Y262333D01*
X554614Y262685D01*
X553701Y262806D01*
D02*
G37*
G36*
X538701D02*
X537787Y262685D01*
X536936Y262333D01*
X536205Y261772D01*
X535643Y261041D01*
X535291Y260189D01*
X535171Y259276D01*
X535291Y258362D01*
X535643Y257510D01*
X536205Y256779D01*
X536936Y256218D01*
X537787Y255866D01*
X538701Y255745D01*
X539614Y255866D01*
X540466Y256218D01*
X541197Y256779D01*
X541758Y257510D01*
X542111Y258362D01*
X542231Y259276D01*
X542111Y260189D01*
X541758Y261041D01*
X541197Y261772D01*
X540466Y262333D01*
X539614Y262685D01*
X538701Y262806D01*
D02*
G37*
G36*
X465400Y263835D02*
X464698Y263696D01*
X464102Y263298D01*
X463704Y262702D01*
X463565Y262000D01*
X463704Y261298D01*
X464102Y260702D01*
X464127Y260686D01*
X464004Y260502D01*
X463865Y259800D01*
X464004Y259098D01*
X464065Y259007D01*
X463902Y258898D01*
X463504Y258302D01*
X463365Y257600D01*
X463504Y256898D01*
X463902Y256302D01*
X464328Y256017D01*
X464133Y255547D01*
X463939Y255585D01*
X463236Y255446D01*
X462641Y255048D01*
X462243Y254452D01*
X462104Y253750D01*
X462243Y253048D01*
X462641Y252452D01*
X463236Y252054D01*
X463311Y251535D01*
X463265Y251300D01*
X463404Y250598D01*
X463802Y250002D01*
X463642Y249508D01*
X463304Y249002D01*
X463165Y248300D01*
X463304Y247598D01*
X463702Y247002D01*
Y246965D01*
X463302Y246698D01*
X462904Y246102D01*
X462765Y245400D01*
X462904Y244698D01*
X463302Y244102D01*
X463898Y243704D01*
X464600Y243565D01*
X465302Y243704D01*
X465898Y244102D01*
X466296Y244698D01*
X466435Y245400D01*
X466296Y246102D01*
X466158Y246308D01*
X466286Y246994D01*
X466298Y247002D01*
X466696Y247598D01*
X466835Y248300D01*
X466696Y249002D01*
X466298Y249598D01*
X466458Y250092D01*
X466796Y250598D01*
X466935Y251300D01*
X466796Y252002D01*
X466398Y252598D01*
X465948Y252898D01*
X465953Y253144D01*
X466458Y253398D01*
X466598Y253304D01*
X467300Y253165D01*
X468002Y253304D01*
X468598Y253702D01*
X468996Y254298D01*
X469135Y255000D01*
X468996Y255702D01*
X468598Y256298D01*
X468002Y256696D01*
X467300Y256835D01*
X466972Y257280D01*
X467035Y257600D01*
X466896Y258302D01*
X466835Y258393D01*
X466998Y258502D01*
X467396Y259098D01*
X467535Y259800D01*
X467396Y260502D01*
X466998Y261098D01*
X466973Y261114D01*
X467096Y261298D01*
X467235Y262000D01*
X467096Y262702D01*
X466698Y263298D01*
X466102Y263696D01*
X465400Y263835D01*
D02*
G37*
G36*
X441700Y268435D02*
X440998Y268296D01*
X440402Y267898D01*
X440004Y267302D01*
X439865Y266600D01*
X440004Y265898D01*
X440234Y265554D01*
X440302Y264998D01*
X439904Y264402D01*
X439765Y263700D01*
X439904Y262998D01*
X440302Y262402D01*
X440430Y262317D01*
Y261817D01*
X440402Y261798D01*
X440004Y261202D01*
X439865Y260500D01*
X440004Y259798D01*
X440402Y259202D01*
X440481Y259150D01*
Y258650D01*
X440402Y258598D01*
X440004Y258002D01*
X439865Y257300D01*
X440004Y256598D01*
X440402Y256002D01*
X440998Y255604D01*
X441700Y255465D01*
X442402Y255604D01*
X442998Y256002D01*
X443396Y256598D01*
X443535Y257300D01*
X443396Y258002D01*
X442998Y258598D01*
X442919Y258650D01*
Y259150D01*
X442998Y259202D01*
X443396Y259798D01*
X443535Y260500D01*
X443396Y261202D01*
X442998Y261798D01*
X442870Y261883D01*
Y262383D01*
X442898Y262402D01*
X443296Y262998D01*
X443435Y263700D01*
X443296Y264402D01*
X443066Y264746D01*
X443005Y265240D01*
X443104Y265461D01*
X443396Y265898D01*
X443535Y266600D01*
X443396Y267302D01*
X442998Y267898D01*
X442402Y268296D01*
X441700Y268435D01*
D02*
G37*
G36*
X546201Y257806D02*
X545287Y257685D01*
X544436Y257333D01*
X543705Y256772D01*
X543144Y256041D01*
X542791Y255189D01*
X542671Y254276D01*
X542791Y253362D01*
X543144Y252510D01*
X543705Y251779D01*
X544436Y251218D01*
X545287Y250866D01*
X546201Y250745D01*
X547115Y250866D01*
X547966Y251218D01*
X548697Y251779D01*
X549258Y252510D01*
X549611Y253362D01*
X549731Y254276D01*
X549611Y255189D01*
X549258Y256041D01*
X548697Y256772D01*
X547966Y257333D01*
X547115Y257685D01*
X546201Y257806D01*
D02*
G37*
G36*
X531201D02*
X530287Y257685D01*
X529436Y257333D01*
X528705Y256772D01*
X528144Y256041D01*
X527791Y255189D01*
X527671Y254276D01*
X527791Y253362D01*
X528144Y252510D01*
X528705Y251779D01*
X529436Y251218D01*
X530287Y250866D01*
X531201Y250745D01*
X532115Y250866D01*
X532966Y251218D01*
X533697Y251779D01*
X534258Y252510D01*
X534611Y253362D01*
X534731Y254276D01*
X534611Y255189D01*
X534258Y256041D01*
X533697Y256772D01*
X532966Y257333D01*
X532115Y257685D01*
X531201Y257806D01*
D02*
G37*
G36*
X553701Y252806D02*
X552787Y252685D01*
X551936Y252333D01*
X551205Y251772D01*
X550643Y251041D01*
X550291Y250189D01*
X550171Y249276D01*
X550291Y248362D01*
X550643Y247511D01*
X551205Y246779D01*
X551936Y246218D01*
X552787Y245866D01*
X553701Y245745D01*
X554614Y245866D01*
X555466Y246218D01*
X556197Y246779D01*
X556758Y247511D01*
X557111Y248362D01*
X557231Y249276D01*
X557111Y250189D01*
X556758Y251041D01*
X556197Y251772D01*
X555466Y252333D01*
X554614Y252685D01*
X553701Y252806D01*
D02*
G37*
G36*
X538701D02*
X537787Y252685D01*
X536936Y252333D01*
X536205Y251772D01*
X535643Y251041D01*
X535291Y250189D01*
X535171Y249276D01*
X535291Y248362D01*
X535643Y247511D01*
X536205Y246779D01*
X536936Y246218D01*
X537787Y245866D01*
X538701Y245745D01*
X539614Y245866D01*
X540466Y246218D01*
X541197Y246779D01*
X541758Y247511D01*
X542111Y248362D01*
X542231Y249276D01*
X542111Y250189D01*
X541758Y251041D01*
X541197Y251772D01*
X540466Y252333D01*
X539614Y252685D01*
X538701Y252806D01*
D02*
G37*
G36*
X441500Y254335D02*
X440798Y254196D01*
X440202Y253798D01*
X439804Y253202D01*
X439665Y252500D01*
X439804Y251798D01*
X440202Y251202D01*
X440389Y251078D01*
X440004Y250502D01*
X439865Y249800D01*
X440004Y249098D01*
X440402Y248502D01*
X440604Y248367D01*
Y247766D01*
X440502Y247698D01*
X440104Y247102D01*
X439965Y246400D01*
X440104Y245698D01*
X440502Y245102D01*
X440506Y245100D01*
Y244600D01*
X440502Y244598D01*
X440104Y244002D01*
X439965Y243300D01*
X440104Y242598D01*
X440502Y242002D01*
X441098Y241604D01*
X441800Y241465D01*
X442502Y241604D01*
X443098Y242002D01*
X443496Y242598D01*
X443635Y243300D01*
X443496Y244002D01*
X443098Y244598D01*
X443094Y244600D01*
Y245100D01*
X443098Y245102D01*
X443496Y245698D01*
X443635Y246400D01*
X443496Y247102D01*
X443098Y247698D01*
X442896Y247833D01*
Y248434D01*
X442998Y248502D01*
X443396Y249098D01*
X443535Y249800D01*
X443396Y250502D01*
X442998Y251098D01*
X442811Y251222D01*
X443196Y251798D01*
X443335Y252500D01*
X443196Y253202D01*
X442798Y253798D01*
X442202Y254196D01*
X441500Y254335D01*
D02*
G37*
G36*
X546201Y247806D02*
X545287Y247686D01*
X544436Y247333D01*
X543705Y246772D01*
X543144Y246041D01*
X542791Y245189D01*
X542671Y244276D01*
X542791Y243362D01*
X543144Y242511D01*
X543705Y241779D01*
X544436Y241218D01*
X545287Y240866D01*
X546201Y240745D01*
X547115Y240866D01*
X547966Y241218D01*
X548697Y241779D01*
X549258Y242511D01*
X549611Y243362D01*
X549731Y244276D01*
X549611Y245189D01*
X549258Y246041D01*
X548697Y246772D01*
X547966Y247333D01*
X547115Y247686D01*
X546201Y247806D01*
D02*
G37*
G36*
X531201D02*
X530287Y247686D01*
X529436Y247333D01*
X528705Y246772D01*
X528144Y246041D01*
X527791Y245189D01*
X527671Y244276D01*
X527791Y243362D01*
X528144Y242511D01*
X528705Y241779D01*
X529436Y241218D01*
X530287Y240866D01*
X531201Y240745D01*
X532115Y240866D01*
X532966Y241218D01*
X533697Y241779D01*
X534258Y242511D01*
X534611Y243362D01*
X534731Y244276D01*
X534611Y245189D01*
X534258Y246041D01*
X533697Y246772D01*
X532966Y247333D01*
X532115Y247686D01*
X531201Y247806D01*
D02*
G37*
G36*
X409900Y239435D02*
X409198Y239296D01*
X408602Y238898D01*
X408204Y238302D01*
X408065Y237600D01*
X408204Y236898D01*
X408602Y236302D01*
X409198Y235904D01*
X409900Y235765D01*
X410602Y235904D01*
X411198Y236302D01*
X411596Y236898D01*
X411735Y237600D01*
X411596Y238302D01*
X411198Y238898D01*
X410602Y239296D01*
X409900Y239435D01*
D02*
G37*
G36*
X553701Y242806D02*
X552787Y242686D01*
X551936Y242333D01*
X551205Y241772D01*
X550643Y241041D01*
X550291Y240189D01*
X550171Y239276D01*
X550291Y238362D01*
X550643Y237510D01*
X551205Y236779D01*
X551936Y236218D01*
X552787Y235866D01*
X553701Y235745D01*
X554614Y235866D01*
X555466Y236218D01*
X556197Y236779D01*
X556758Y237510D01*
X557111Y238362D01*
X557231Y239276D01*
X557111Y240189D01*
X556758Y241041D01*
X556197Y241772D01*
X555466Y242333D01*
X554614Y242686D01*
X553701Y242806D01*
D02*
G37*
G36*
X538701D02*
X537787Y242686D01*
X536936Y242333D01*
X536205Y241772D01*
X535643Y241041D01*
X535291Y240189D01*
X535171Y239276D01*
X535291Y238362D01*
X535643Y237510D01*
X536205Y236779D01*
X536936Y236218D01*
X537787Y235866D01*
X538701Y235745D01*
X539614Y235866D01*
X540466Y236218D01*
X541197Y236779D01*
X541758Y237510D01*
X542111Y238362D01*
X542231Y239276D01*
X542111Y240189D01*
X541758Y241041D01*
X541197Y241772D01*
X540466Y242333D01*
X539614Y242686D01*
X538701Y242806D01*
D02*
G37*
G36*
X441800Y236935D02*
X441098Y236796D01*
X440502Y236398D01*
X440104Y235802D01*
X439965Y235100D01*
X440104Y234398D01*
X440247Y234185D01*
X440274Y234121D01*
X440402Y233698D01*
X440209Y233409D01*
X440209Y233409D01*
X440153Y233325D01*
X440004Y233102D01*
X439865Y232400D01*
X440004Y231698D01*
X440402Y231102D01*
X440720Y230890D01*
X440745Y230733D01*
X440679Y230316D01*
X440202Y229998D01*
X439804Y229402D01*
X439665Y228700D01*
X439804Y227998D01*
X440202Y227402D01*
X440302Y227336D01*
Y226898D01*
X439904Y226302D01*
X439765Y225600D01*
X439904Y224898D01*
X440302Y224302D01*
X440898Y223904D01*
X441600Y223765D01*
X442302Y223904D01*
X442898Y224302D01*
X443296Y224898D01*
X443435Y225600D01*
X443296Y226302D01*
X442898Y226898D01*
X442798Y226964D01*
Y227402D01*
X443196Y227998D01*
X443335Y228700D01*
X443196Y229402D01*
X442798Y229998D01*
X442480Y230210D01*
X442455Y230367D01*
X442521Y230784D01*
X442998Y231102D01*
X443396Y231698D01*
X443535Y232400D01*
X443396Y233102D01*
X443238Y233338D01*
X443098Y233802D01*
X443291Y234091D01*
X443496Y234398D01*
X443635Y235100D01*
X443496Y235802D01*
X443098Y236398D01*
X442502Y236796D01*
X441800Y236935D01*
D02*
G37*
G36*
X463900Y232535D02*
X463198Y232396D01*
X462602Y231998D01*
X462204Y231402D01*
X462065Y230700D01*
X462204Y229998D01*
X462602Y229402D01*
X463198Y229004D01*
X463247Y228995D01*
Y228485D01*
X462798Y228396D01*
X462202Y227998D01*
X461804Y227402D01*
X461665Y226700D01*
X461804Y225998D01*
X462202Y225402D01*
X462798Y225004D01*
X463186Y224927D01*
X463472Y224431D01*
X463413Y224239D01*
X462902Y223898D01*
X462504Y223302D01*
X462365Y222600D01*
X462504Y221898D01*
X462902Y221302D01*
X463498Y220904D01*
X463400Y220435D01*
X462698Y220296D01*
X462102Y219898D01*
X461704Y219302D01*
X461565Y218600D01*
X461704Y217898D01*
X462102Y217302D01*
X462584Y216980D01*
X462722Y216429D01*
X462704Y216402D01*
X462565Y215700D01*
X462704Y214998D01*
X463102Y214402D01*
X463698Y214004D01*
X464400Y213865D01*
X465102Y214004D01*
X465698Y214402D01*
X466096Y214998D01*
X466235Y215700D01*
X466096Y216402D01*
X465698Y216998D01*
X465216Y217320D01*
X465078Y217871D01*
X465096Y217898D01*
X465179Y218316D01*
X465432Y218625D01*
X465718Y218661D01*
X466200Y218565D01*
X466902Y218704D01*
X467498Y219102D01*
X467896Y219698D01*
X468035Y220400D01*
X467896Y221102D01*
X467498Y221698D01*
X466902Y222096D01*
X466462Y222183D01*
X466187Y222452D01*
X466253Y222826D01*
X466375Y222999D01*
X466402Y223004D01*
X466998Y223402D01*
X467396Y223998D01*
X467535Y224700D01*
X467396Y225402D01*
X466998Y225998D01*
X466402Y226396D01*
X466354Y226405D01*
X466249Y226936D01*
X466498Y227102D01*
X466896Y227698D01*
X467035Y228400D01*
X466896Y229102D01*
X466498Y229698D01*
X465902Y230096D01*
X465626Y230151D01*
X465735Y230700D01*
X465596Y231402D01*
X465198Y231998D01*
X464602Y232396D01*
X463900Y232535D01*
D02*
G37*
G36*
X549701Y237776D02*
X542701D01*
Y230776D01*
X543555D01*
Y219200D01*
X543733Y218303D01*
X544242Y217542D01*
X545003Y217033D01*
X545900Y216855D01*
X546797Y217033D01*
X547558Y217542D01*
X548067Y218303D01*
X548245Y219200D01*
Y230776D01*
X549701D01*
Y237776D01*
D02*
G37*
G36*
X523300Y253645D02*
X522403Y253467D01*
X521642Y252958D01*
X520542Y251858D01*
X520033Y251097D01*
X519855Y250200D01*
Y235700D01*
Y225700D01*
X520033Y224803D01*
X520542Y224042D01*
X521303Y223533D01*
X521555Y223483D01*
Y223400D01*
X521585Y223250D01*
X521555Y223100D01*
X521733Y222203D01*
X522242Y221442D01*
X523003Y220933D01*
X523288Y220877D01*
X523461Y220761D01*
X523942Y220042D01*
X524242Y219742D01*
X525003Y219233D01*
X525900Y219055D01*
X526797Y219233D01*
X527558Y219742D01*
X528067Y220503D01*
X528245Y221400D01*
X528067Y222297D01*
X527945Y222479D01*
Y231948D01*
X528445Y232118D01*
X528705Y231779D01*
X528955Y231587D01*
Y217200D01*
X529133Y216303D01*
X529642Y215542D01*
X530403Y215033D01*
X531300Y214855D01*
X532197Y215033D01*
X532958Y215542D01*
X533467Y216303D01*
X533645Y217200D01*
Y231739D01*
X533697Y231779D01*
X534258Y232510D01*
X534611Y233362D01*
X534731Y234276D01*
X534611Y235189D01*
X534258Y236041D01*
X533697Y236772D01*
X532966Y237333D01*
X532115Y237685D01*
X531201Y237806D01*
X530287Y237685D01*
X529436Y237333D01*
X528705Y236772D01*
X528445Y236434D01*
X527945Y236603D01*
Y241000D01*
X527767Y241897D01*
X527258Y242658D01*
X526497Y243167D01*
X526245Y243217D01*
Y244321D01*
X526567Y244803D01*
X526745Y245700D01*
X526567Y246597D01*
X526058Y247358D01*
X525297Y247867D01*
X524545Y248016D01*
Y249229D01*
X524958Y249642D01*
X525467Y250403D01*
X525645Y251300D01*
X525467Y252197D01*
X524958Y252958D01*
X524197Y253467D01*
X523300Y253645D01*
D02*
G37*
G36*
X565000Y327045D02*
X564103Y326867D01*
X563342Y326358D01*
X562833Y325597D01*
X562655Y324700D01*
Y216000D01*
X562833Y215103D01*
X563342Y214342D01*
X564103Y213833D01*
X565000Y213655D01*
X565897Y213833D01*
X566658Y214342D01*
X567167Y215103D01*
X567345Y216000D01*
Y324700D01*
X567167Y325597D01*
X566658Y326358D01*
X565897Y326867D01*
X565000Y327045D01*
D02*
G37*
G36*
X388200Y217235D02*
X387498Y217096D01*
X386902Y216698D01*
X386504Y216102D01*
X386365Y215400D01*
X386504Y214698D01*
X386902Y214102D01*
X387498Y213704D01*
X388200Y213565D01*
X388902Y213704D01*
X389498Y214102D01*
X389896Y214698D01*
X390035Y215400D01*
X389896Y216102D01*
X389498Y216698D01*
X388902Y217096D01*
X388200Y217235D01*
D02*
G37*
G36*
X441800Y223135D02*
X441098Y222996D01*
X440502Y222598D01*
X440104Y222002D01*
X439965Y221300D01*
X440104Y220598D01*
X440502Y220002D01*
X440506Y220000D01*
Y219500D01*
X440502Y219498D01*
X440104Y218902D01*
X439965Y218200D01*
X440104Y217498D01*
X440427Y217015D01*
X440431Y216461D01*
X440388Y216377D01*
X440004Y215802D01*
X439865Y215100D01*
X440004Y214398D01*
X440402Y213802D01*
X440602Y213669D01*
X440602Y213198D01*
X440204Y212602D01*
X440065Y211900D01*
X440204Y211198D01*
X440602Y210602D01*
X441198Y210204D01*
X441900Y210065D01*
X442602Y210204D01*
X443198Y210602D01*
X443596Y211198D01*
X443735Y211900D01*
X443596Y212602D01*
X443198Y213198D01*
X442998Y213331D01*
X443058Y213893D01*
X443396Y214398D01*
X443535Y215100D01*
X443396Y215802D01*
X443073Y216285D01*
X443069Y216839D01*
X443112Y216923D01*
X443496Y217498D01*
X443635Y218200D01*
X443496Y218902D01*
X443098Y219498D01*
X443094Y219500D01*
Y220000D01*
X443098Y220002D01*
X443496Y220598D01*
X443635Y221300D01*
X443496Y222002D01*
X443098Y222598D01*
X442502Y222996D01*
X441800Y223135D01*
D02*
G37*
G36*
X456200Y213435D02*
X455498Y213296D01*
X454902Y212898D01*
X454504Y212302D01*
X454365Y211600D01*
X454504Y210898D01*
X454902Y210302D01*
X455498Y209904D01*
X456200Y209765D01*
X456902Y209904D01*
X457498Y210302D01*
X457896Y210898D01*
X458035Y211600D01*
X457896Y212302D01*
X457498Y212898D01*
X456902Y213296D01*
X456200Y213435D01*
D02*
G37*
G36*
X388300Y207535D02*
X387598Y207396D01*
X387002Y206998D01*
X386985Y206973D01*
X386502Y207296D01*
X385800Y207435D01*
X385098Y207296D01*
X384502Y206898D01*
X384104Y206302D01*
X383965Y205600D01*
X384104Y204898D01*
X384502Y204302D01*
X385098Y203904D01*
X385800Y203765D01*
X386502Y203904D01*
X387098Y204302D01*
X387115Y204327D01*
X387598Y204004D01*
X388300Y203865D01*
X389002Y204004D01*
X389598Y204402D01*
X389996Y204998D01*
X390135Y205700D01*
X389996Y206402D01*
X389598Y206998D01*
X389002Y207396D01*
X388300Y207535D01*
D02*
G37*
G36*
X401900Y207035D02*
X401198Y206896D01*
X400602Y206498D01*
X400204Y205902D01*
X400065Y205200D01*
X400204Y204498D01*
X400602Y203902D01*
X401198Y203504D01*
X401900Y203365D01*
X402602Y203504D01*
X403198Y203902D01*
X403596Y204498D01*
X403735Y205200D01*
X403596Y205902D01*
X403198Y206498D01*
X402602Y206896D01*
X401900Y207035D01*
D02*
G37*
G36*
X409900Y208435D02*
X409198Y208296D01*
X408602Y207898D01*
X408204Y207302D01*
X408065Y206600D01*
X408000Y206535D01*
X407298Y206396D01*
X406702Y205998D01*
X406304Y205402D01*
X406165Y204700D01*
X406304Y203998D01*
X406702Y203402D01*
X407298Y203004D01*
X408000Y202865D01*
X408702Y203004D01*
X409298Y203402D01*
X409696Y203998D01*
X409835Y204700D01*
X409900Y204765D01*
X410602Y204904D01*
X411198Y205302D01*
X411596Y205898D01*
X411735Y206600D01*
X411596Y207302D01*
X411198Y207898D01*
X410602Y208296D01*
X409900Y208435D01*
D02*
G37*
G36*
X574900Y433926D02*
X574117Y433823D01*
X573387Y433521D01*
X572760Y433040D01*
X572280Y432413D01*
X571977Y431683D01*
X571874Y430900D01*
X571977Y430117D01*
X572280Y429387D01*
X572760Y428760D01*
X573474Y428047D01*
Y202800D01*
X573577Y202017D01*
X573879Y201287D01*
X574360Y200660D01*
X574660Y200360D01*
X575287Y199880D01*
X576017Y199577D01*
X576800Y199474D01*
X577583Y199577D01*
X578313Y199880D01*
X578940Y200360D01*
X579421Y200987D01*
X579723Y201717D01*
X579826Y202500D01*
X579723Y203283D01*
X579526Y203759D01*
Y429300D01*
X579423Y430083D01*
X579120Y430813D01*
X578640Y431440D01*
X577040Y433040D01*
X576413Y433521D01*
X575683Y433823D01*
X574900Y433926D01*
D02*
G37*
G36*
X542401Y216317D02*
X540282Y216151D01*
X538216Y215655D01*
X536253Y214841D01*
X534441Y213731D01*
X532825Y212351D01*
X531445Y210735D01*
X530335Y208923D01*
X529522Y206960D01*
X529026Y204894D01*
X528859Y202776D01*
X529026Y200657D01*
X529522Y198591D01*
X530335Y196628D01*
X531445Y194816D01*
X532825Y193200D01*
X534441Y191820D01*
X536253Y190710D01*
X538216Y189897D01*
X540282Y189401D01*
X542401Y189234D01*
X544519Y189401D01*
X546585Y189897D01*
X548549Y190710D01*
X550360Y191820D01*
X551976Y193200D01*
X553356Y194816D01*
X554467Y196628D01*
X555280Y198591D01*
X555776Y200657D01*
X555942Y202776D01*
X555776Y204894D01*
X555280Y206960D01*
X554467Y208923D01*
X553356Y210735D01*
X551976Y212351D01*
X550360Y213731D01*
X548549Y214841D01*
X546585Y215655D01*
X544519Y216151D01*
X542401Y216317D01*
D02*
G37*
G36*
X383600Y190535D02*
X382898Y190396D01*
X382302Y189998D01*
X381904Y189402D01*
X381765Y188700D01*
X381904Y187998D01*
X382302Y187402D01*
X382898Y187004D01*
X383600Y186865D01*
X384302Y187004D01*
X384898Y187402D01*
X385296Y187998D01*
X385435Y188700D01*
X385296Y189402D01*
X384898Y189998D01*
X384302Y190396D01*
X383600Y190535D01*
D02*
G37*
G36*
X403600Y187666D02*
X402898Y187526D01*
X402302Y187128D01*
X401904Y186533D01*
X401765Y185831D01*
X401904Y185128D01*
X402302Y184533D01*
X402898Y184135D01*
X403600Y183995D01*
X404302Y184135D01*
X404898Y184533D01*
X405296Y185128D01*
X405435Y185831D01*
X405296Y186533D01*
X404898Y187128D01*
X404302Y187526D01*
X403600Y187666D01*
D02*
G37*
%LPD*%
G36*
X390574Y391847D02*
Y384060D01*
X390300Y383835D01*
X389598Y383696D01*
X389002Y383298D01*
X388604Y382702D01*
X388465Y382000D01*
X388604Y381298D01*
X389002Y380702D01*
X389598Y380304D01*
X390032Y380218D01*
X390196Y379676D01*
X384907Y374386D01*
X384445Y374578D01*
Y386653D01*
X384702Y386704D01*
X385298Y387102D01*
X385696Y387698D01*
X385835Y388400D01*
X385696Y389102D01*
X385298Y389698D01*
X384702Y390096D01*
X384445Y390147D01*
Y397322D01*
X384907Y397514D01*
X390574Y391847D01*
D02*
G37*
G36*
X389616Y369830D02*
X389902Y369402D01*
X390498Y369004D01*
X390774Y368949D01*
Y363547D01*
X390674Y362788D01*
Y344000D01*
Y339957D01*
X390174Y339907D01*
X390096Y340302D01*
X389698Y340898D01*
X389102Y341296D01*
X388400Y341435D01*
X387698Y341296D01*
X387567Y341208D01*
X387126Y341444D01*
Y343347D01*
X387140Y343360D01*
X387620Y343987D01*
X387923Y344717D01*
X388026Y345500D01*
Y346340D01*
X388300Y346565D01*
X389002Y346704D01*
X389598Y347102D01*
X389996Y347698D01*
X390135Y348400D01*
X389996Y349102D01*
X389598Y349698D01*
X389002Y350096D01*
X388300Y350235D01*
X388026Y350460D01*
Y354689D01*
X387923Y355472D01*
X387620Y356202D01*
X387326Y356586D01*
Y368247D01*
X387540Y368460D01*
X387540Y368460D01*
X389041Y369961D01*
X389616Y369830D01*
D02*
G37*
G36*
X390674Y339243D02*
Y317142D01*
X390300Y316835D01*
X389598Y316696D01*
X389226Y316447D01*
X388726Y316714D01*
Y325789D01*
X388623Y326572D01*
X388320Y327302D01*
X387840Y327928D01*
X387126Y328642D01*
Y337756D01*
X387567Y337992D01*
X387698Y337904D01*
X388400Y337765D01*
X389102Y337904D01*
X389698Y338302D01*
X390096Y338898D01*
X390174Y339293D01*
X390674Y339243D01*
D02*
G37*
G36*
X389598Y313304D02*
X390300Y313165D01*
X390674Y312858D01*
Y305580D01*
X390102Y305198D01*
X389704Y304602D01*
X389565Y303900D01*
X389704Y303198D01*
X390102Y302602D01*
X390698Y302204D01*
X390774Y302189D01*
Y290336D01*
X390274Y290184D01*
X389998Y290598D01*
X389402Y290996D01*
X388700Y291135D01*
X387998Y290996D01*
X387526Y290680D01*
X387026Y290866D01*
Y294447D01*
X387540Y294960D01*
X388020Y295587D01*
X388323Y296317D01*
X388426Y297100D01*
Y302642D01*
X388623Y303117D01*
X388726Y303900D01*
Y313286D01*
X389226Y313553D01*
X389598Y313304D01*
D02*
G37*
D15*
X385700Y278100D02*
Y286300D01*
Y264400D02*
Y278100D01*
X576500Y202800D02*
Y429300D01*
X520600Y394000D02*
Y454700D01*
X520700Y454800D01*
X576500Y202800D02*
X576800Y202500D01*
X574900Y430900D02*
X576500Y429300D01*
X384500Y426800D02*
Y437700D01*
Y426800D02*
X385900Y425400D01*
Y400800D02*
X393600Y393100D01*
X385400Y370600D02*
X393600Y378800D01*
X384300Y369500D02*
X385400Y370600D01*
X384300Y355389D02*
Y369500D01*
Y355389D02*
X385000Y354689D01*
Y345500D02*
Y354689D01*
X384100Y344600D02*
X385000Y345500D01*
X384000Y295700D02*
X385400Y297100D01*
X384000Y288000D02*
Y295700D01*
Y288000D02*
X385700Y286300D01*
X394400Y210900D02*
Y238300D01*
X393100Y209600D02*
X394400Y210900D01*
X392300Y402700D02*
Y410500D01*
Y437800D01*
X385900Y400800D02*
Y425400D01*
X384100Y327389D02*
Y344600D01*
X393600Y378800D02*
Y382100D01*
Y393100D01*
X393700Y362788D02*
X393800Y362888D01*
X393700Y305400D02*
X393800Y305300D01*
X393600Y370800D02*
X393800Y370600D01*
Y362888D02*
Y370600D01*
X393700Y305400D02*
Y344000D01*
Y362788D01*
X384100Y327389D02*
X385700Y325789D01*
X385400Y303600D02*
X385700Y303900D01*
Y325789D01*
X385400Y297100D02*
Y303600D01*
X396200Y373494D02*
Y398800D01*
X392300Y402700D02*
X396200Y398800D01*
X393600Y370800D02*
Y370894D01*
X396200Y373494D01*
X393800Y238900D02*
X394400Y238300D01*
X384000Y262700D02*
X385700Y264400D01*
X384000Y239100D02*
Y262700D01*
Y239100D02*
X385800Y237300D01*
X393800Y238900D02*
Y305300D01*
D65*
X204800Y219400D02*
X205250Y219850D01*
X187700Y240900D02*
Y306600D01*
Y240900D02*
X187800Y240800D01*
X160600Y264100D02*
Y303500D01*
X446200Y342100D02*
Y391000D01*
X446100Y391100D02*
X446200Y391000D01*
X66700Y224900D02*
X67100Y224500D01*
X66700Y224900D02*
Y242621D01*
X46900Y418000D02*
X47000Y418100D01*
X46900Y386100D02*
Y418000D01*
X285965Y386035D02*
Y406205D01*
Y386035D02*
X290000Y382000D01*
Y336000D02*
Y382000D01*
X286900Y332900D02*
X290000Y336000D01*
X293839Y333370D02*
Y457139D01*
X223700Y264400D02*
X224000Y264100D01*
Y242800D02*
Y264100D01*
X338000Y222000D02*
X338100Y221900D01*
X338000Y222000D02*
Y271800D01*
X298500Y216500D02*
Y225300D01*
X297400Y226400D02*
X298500Y225300D01*
X297400Y226400D02*
Y288600D01*
X237000Y192700D02*
Y216000D01*
X197000Y216600D02*
Y234600D01*
X194900Y214500D02*
X197000Y216600D01*
X194900Y208800D02*
Y214500D01*
Y208800D02*
X195300Y208400D01*
X222300Y232500D02*
Y240500D01*
X188300Y232400D02*
X188400Y232300D01*
Y209500D02*
Y232300D01*
X197900Y191300D02*
X198000Y191200D01*
X197900Y191300D02*
Y200500D01*
X194700Y239000D02*
Y346100D01*
X198400Y349800D01*
X327200Y408400D02*
X336200Y417400D01*
X237900Y340800D02*
Y434900D01*
X209600Y365600D02*
X209800Y365800D01*
X209600Y333200D02*
Y365600D01*
X290100Y276600D02*
X290200Y276700D01*
X290100Y246900D02*
Y276600D01*
X286900Y251300D02*
X287000Y251200D01*
X286900Y251300D02*
Y332900D01*
X223600Y264500D02*
X223700Y264400D01*
X223600Y264500D02*
Y287200D01*
X249700Y236800D02*
X249800Y236700D01*
X249700Y236800D02*
Y283900D01*
X350400Y386600D02*
X350500Y386700D01*
X240300Y295900D02*
X243400Y299000D01*
Y356200D01*
X242700Y356900D02*
X243400Y356200D01*
X229100Y351300D02*
X229300Y351100D01*
X229100Y351300D02*
Y382200D01*
X222000Y348200D02*
X222200Y348000D01*
X222000Y348200D02*
Y362500D01*
X277200Y312600D02*
X277500Y312300D01*
Y283200D02*
Y312300D01*
X348200Y257300D02*
Y275200D01*
X348800Y275800D01*
X357400Y418100D02*
X358300Y419000D01*
X408000Y351800D02*
Y382300D01*
X405800Y349600D02*
X408000Y351800D01*
X299200Y296700D02*
X299400Y296900D01*
X408200Y282700D02*
Y316700D01*
X407900Y317000D02*
X408200Y316700D01*
X407900Y317000D02*
Y338500D01*
X405800Y340600D02*
X407900Y338500D01*
X405800Y340600D02*
Y349600D01*
X426000Y445000D02*
X426800Y444200D01*
Y395700D02*
Y444200D01*
X446000Y391200D02*
X446100Y391100D01*
X446000Y391200D02*
Y401300D01*
X565000Y216000D02*
Y324700D01*
X421500Y238600D02*
Y266000D01*
X426600Y229300D02*
Y259500D01*
X427000Y259900D01*
X503800Y295800D02*
X504100Y296100D01*
X545900Y219200D02*
Y233975D01*
X546201Y234276D01*
X531300Y217200D02*
Y234176D01*
X531201Y234276D02*
X531300Y234176D01*
X418400Y200055D02*
Y267000D01*
Y333300D01*
Y399900D01*
X418300Y400000D02*
X418400Y399900D01*
X382100Y348400D02*
Y415100D01*
Y281800D02*
Y283600D01*
X381900Y281600D02*
X382100Y281800D01*
X381900Y215800D02*
X382300Y215400D01*
X381900Y215800D02*
Y281600D01*
X336200Y417400D02*
Y420900D01*
Y439700D01*
X260700Y340900D02*
X262400Y342600D01*
X263500Y445100D02*
X264300Y444300D01*
X255100Y400600D02*
X255157Y400543D01*
Y292257D02*
Y400543D01*
X483000Y300900D02*
Y403800D01*
X481200Y302700D02*
X481300Y302800D01*
Y405600D02*
X481600Y405900D01*
X481300Y302800D02*
Y405600D01*
X345400Y360600D02*
X345700Y360300D01*
X338300Y366600D02*
X338400Y366700D01*
X411200Y285300D02*
X411500Y285000D01*
X411200Y285300D02*
Y299100D01*
X412600Y300500D01*
Y322400D01*
X476000Y387200D02*
Y390300D01*
X293700Y245900D02*
Y280200D01*
X304800Y333500D02*
Y348500D01*
X304700Y333400D02*
X304800Y333500D01*
X334100Y283500D02*
X334900Y284300D01*
Y345400D02*
X336200Y346700D01*
X268100Y199400D02*
X268200Y199300D01*
X268100Y199400D02*
Y277779D01*
X264500Y278421D02*
Y300000D01*
X265935Y279943D02*
X268100Y277779D01*
X205000Y220100D02*
X205250Y219850D01*
X204800Y215800D02*
Y219400D01*
X216800Y288900D02*
X217700Y289800D01*
X216800Y267796D02*
Y288900D01*
X216500Y203000D02*
X217000Y202500D01*
X216500Y203000D02*
Y267496D01*
X216800Y267796D01*
X204800Y213300D02*
X207800Y210300D01*
X204800Y213300D02*
Y215800D01*
X277700Y388500D02*
X280100Y390900D01*
X277700Y321100D02*
Y388500D01*
X425300Y261900D02*
X427000Y263600D01*
X364500Y211700D02*
X365704Y210496D01*
X367600Y209100D02*
X368000Y209500D01*
Y213604D01*
X365704Y210315D02*
Y210496D01*
X359800Y208600D02*
X360300Y209100D01*
Y273100D01*
X334900Y284300D02*
Y345400D01*
X340400Y246800D02*
Y281400D01*
X343400Y333921D02*
X344500Y332821D01*
X344200Y282400D02*
Y289496D01*
X343400Y333921D02*
Y380800D01*
X359800Y273600D02*
X360300Y273100D01*
X341900Y287000D02*
Y290099D01*
X339900Y281900D02*
X340400Y281400D01*
X339900Y281900D02*
Y290402D01*
X364504Y237496D02*
Y276700D01*
X365404Y277600D01*
X365604D02*
X365800D01*
X357400Y302900D02*
X357800Y302500D01*
X358600Y373603D02*
X360800Y371403D01*
X358600Y373603D02*
Y407900D01*
X372000Y324300D02*
Y347000D01*
X370200Y342800D02*
X370300Y342900D01*
Y346004D01*
X365700Y344200D02*
X365900Y344400D01*
X364700Y345600D02*
X365900Y344400D01*
X426400Y229100D02*
X426600Y229300D01*
X427800Y244102D02*
Y256000D01*
X428300Y256500D01*
X424900Y232800D02*
X425300Y233200D01*
Y261900D01*
X429000Y251300D02*
X429600Y251900D01*
X430200Y245096D02*
Y248300D01*
X430900Y249000D01*
X427800Y244102D02*
X428100Y243802D01*
X427500Y224900D02*
X428100Y225500D01*
Y243802D01*
X428800Y220900D02*
X429300Y221400D01*
X522200Y250200D02*
X523300Y251300D01*
X522200Y235700D02*
Y250200D01*
X509700Y254898D02*
Y276500D01*
X510000Y276800D01*
X508300Y254601D02*
Y281200D01*
X508500Y281400D01*
X512400Y260100D02*
X512800Y260500D01*
X480500Y274800D02*
Y283200D01*
X483900Y286004D02*
X484000Y285904D01*
X483900Y286004D02*
Y287100D01*
X491000Y239000D02*
X491100Y239100D01*
X501100Y354901D02*
Y419800D01*
X500900Y420000D02*
X501100Y419800D01*
X500800Y420000D02*
X500900D01*
X502400Y303000D02*
X502800Y303400D01*
X501100Y307000D02*
X501400Y307300D01*
X494076Y310418D02*
X496100Y308394D01*
X499600Y313500D02*
X499700Y313400D01*
X496800Y281400D02*
X498500Y283100D01*
Y309388D01*
X495300Y284100D02*
X497300Y286100D01*
Y308891D01*
X493700Y288800D02*
X496100Y291200D01*
Y308394D01*
X485000Y258400D02*
X485600Y259000D01*
X488400Y243500D02*
Y246096D01*
X489900Y247596D01*
X487200Y249300D02*
X488200Y248300D01*
X489400Y265796D02*
Y269400D01*
X489900Y247596D02*
Y265296D01*
X489400Y265796D02*
X489900Y265296D01*
X491100Y239100D02*
Y266500D01*
X488900Y269900D02*
X489400Y269400D01*
X488900Y293000D02*
X489400Y292500D01*
X492800Y309997D02*
X493500Y309297D01*
Y293700D02*
Y309297D01*
X489300Y295100D02*
X490600Y293800D01*
X491000Y297000D02*
X491800Y296200D01*
Y267200D02*
Y296200D01*
X491100Y266500D02*
X491800Y267200D01*
X483100Y264300D02*
Y269100D01*
X484000Y270000D01*
Y285904D01*
X481400Y268800D02*
Y269097D01*
X482200Y269897D01*
X487200Y270604D02*
X488196Y271600D01*
X487200Y249300D02*
Y270604D01*
X488196Y271600D02*
X489100D01*
X489400Y271900D01*
Y292500D01*
X490600Y271403D02*
Y293800D01*
X488900Y269900D02*
X489097D01*
X490600Y271403D01*
X506800Y254404D02*
Y283700D01*
X509100Y286000D01*
X365900Y348000D02*
X367000Y346900D01*
X367600Y346300D01*
X369400Y349600D02*
X372000Y347000D01*
X369400Y349600D02*
Y349979D01*
X373200Y323803D02*
Y351700D01*
X370700Y354200D02*
X373200Y351700D01*
X372500Y294100D02*
X374400Y296000D01*
X357400Y220000D02*
Y280800D01*
X360300Y280899D02*
X363599Y277600D01*
X357400Y220000D02*
X358600Y218800D01*
X359100Y274300D02*
X359800Y273600D01*
X369500Y283300D02*
X369600Y283200D01*
X370400Y287100D02*
Y321003D01*
X373200Y323803D01*
X368300Y351079D02*
X369400Y349979D01*
X369500Y355400D02*
X370700Y354200D01*
X339800Y246200D02*
X340400Y246800D01*
X332900Y356500D02*
X333300Y356900D01*
X332900Y305300D02*
Y356500D01*
X265935Y279943D02*
Y295335D01*
X266800Y296200D01*
X258300Y345304D02*
X258800Y345804D01*
Y411300D01*
X257000Y372100D02*
X257100Y372000D01*
Y295900D02*
X257400Y295600D01*
X257100Y295900D02*
Y372000D01*
X258300Y297466D02*
X260000Y295766D01*
X258300Y297466D02*
Y345304D01*
X474900Y369100D02*
X475000Y369200D01*
X479000Y305800D02*
X479900Y306700D01*
Y387700D01*
X479000Y388600D02*
X479900Y387700D01*
X478200Y321700D02*
X478300Y321800D01*
Y384900D01*
X476000Y387200D02*
X478300Y384900D01*
X293300Y296000D02*
Y310500D01*
X292900Y310900D02*
X293300Y310500D01*
X262400Y297467D02*
Y302100D01*
X260700Y297470D02*
Y340900D01*
Y297470D02*
X261700Y296470D01*
X297900Y439000D02*
X298500Y438400D01*
Y427000D02*
Y438400D01*
Y416307D02*
X309587Y405221D01*
X298500Y416307D02*
Y427000D01*
X525600Y221700D02*
Y241000D01*
Y221700D02*
X525900Y221400D01*
X523900Y223100D02*
X524200D01*
X524400Y222900D01*
X522200Y225700D02*
Y235700D01*
X511100Y265400D02*
X512200Y266500D01*
X499700Y264400D02*
Y313400D01*
X501100Y260400D02*
Y307000D01*
X497400Y262100D02*
X499700Y264400D01*
X500200Y259500D02*
X501100Y260400D01*
X501700Y255600D02*
X502400Y256300D01*
Y303000D01*
X503100Y253200D02*
Y253400D01*
X505300Y253100D02*
X505500Y253300D01*
Y291000D01*
X482200Y269897D02*
Y285100D01*
X482300Y285200D01*
X485600Y259000D02*
Y288900D01*
X485400Y289100D02*
X485600Y288900D01*
X487700Y273300D02*
Y290300D01*
X487000Y291000D02*
X487700Y290300D01*
X499900Y354404D02*
Y417500D01*
X499400Y418000D02*
X499900Y417500D01*
X486600Y314300D02*
Y347800D01*
X485900Y348500D02*
X486600Y347800D01*
X487500Y351300D02*
X488300Y350500D01*
Y309900D02*
Y350500D01*
X487700Y309300D02*
X488300Y309900D01*
X488900Y305000D02*
X489500Y305600D01*
X489000Y353500D02*
X489500Y353000D01*
Y305600D02*
Y353000D01*
X490500Y355400D02*
X491100Y354800D01*
Y299400D02*
Y354800D01*
X491700Y357900D02*
X492800Y356800D01*
Y309997D02*
Y356800D01*
X493200Y360100D02*
X494076Y359224D01*
Y310418D02*
Y359224D01*
X495276Y310915D02*
X497300Y308891D01*
X494600Y362400D02*
X495276Y361724D01*
Y310915D02*
Y361724D01*
X499200Y346900D02*
Y347500D01*
X496400Y364000D02*
X496600Y363800D01*
Y311288D02*
X498500Y309388D01*
X496600Y311288D02*
Y363800D01*
X498300Y352600D02*
Y415800D01*
X498100Y416000D02*
X498300Y415800D01*
X476300Y366800D02*
X476600Y367100D01*
X476300Y321779D02*
Y366800D01*
X476400Y308900D02*
X476500Y309000D01*
X476300Y321779D02*
X476500Y321579D01*
Y309000D02*
Y321579D01*
X474900Y313300D02*
Y369100D01*
X474200Y312600D02*
X474900Y313300D01*
X358900Y355400D02*
X359100Y355600D01*
X358900Y341506D02*
X359500Y340906D01*
X359900Y374000D02*
X362000Y371900D01*
X506600Y427900D02*
X506700Y427800D01*
X506000Y323200D02*
X506700Y323900D01*
Y427800D01*
X507900Y429700D02*
X508100Y429500D01*
X507900Y429700D02*
Y429900D01*
X508100Y428804D02*
X508300Y428604D01*
X508100Y428804D02*
Y429500D01*
X508300Y320400D02*
Y428604D01*
X406300Y434700D02*
X408500Y436900D01*
X380500Y285200D02*
X382100Y283600D01*
X380500Y285200D02*
Y346800D01*
X382100Y348400D01*
X429300Y332500D02*
X430000Y333200D01*
X429700Y381600D02*
X430000Y381300D01*
Y333200D02*
Y381300D01*
X259000Y223700D02*
X265700Y230400D01*
Y277221D01*
X264500Y278421D02*
X265700Y277221D01*
X370900Y372897D02*
Y408000D01*
X371600Y426800D02*
X375000Y423400D01*
X371000Y421000D02*
X373800Y418200D01*
X372600Y372900D02*
Y415300D01*
X371100Y416800D02*
X372600Y415300D01*
X369200Y412200D02*
X369800Y412800D01*
X369200Y378103D02*
Y412200D01*
X368000Y378600D02*
Y410400D01*
X367300Y411100D02*
X368000Y410400D01*
X220500Y246700D02*
X220900Y246300D01*
X220500Y246700D02*
Y289600D01*
X221100Y290200D01*
X219200Y293900D02*
X219400Y294100D01*
X219200Y343100D02*
X219400Y342900D01*
Y294100D02*
Y342900D01*
X242200Y444700D02*
Y447400D01*
Y444700D02*
X245100Y441800D01*
X195000Y237300D02*
X195700Y238000D01*
X195000Y217100D02*
Y237300D01*
X194700Y239000D02*
X195700Y238000D01*
X360700Y305100D02*
Y341403D01*
X359500Y300689D02*
Y340906D01*
X351200Y266900D02*
X351500Y266600D01*
X351200Y266900D02*
Y277400D01*
X348700Y275900D02*
X348800Y275800D01*
X348700Y275900D02*
Y330800D01*
X347000Y338000D02*
X347400Y338400D01*
X345900Y301100D02*
X347100Y302300D01*
X344200Y303700D02*
X345900Y305400D01*
X68500Y372200D02*
Y407400D01*
X68700Y407600D01*
X66700Y242621D02*
X68000Y243921D01*
Y256300D01*
X67200Y257100D02*
X68000Y256300D01*
X299200Y296700D02*
X299600Y296300D01*
Y279400D02*
X299700Y279300D01*
X299600Y279400D02*
Y296300D01*
X301300Y306500D02*
X301900Y305900D01*
Y283800D02*
Y305900D01*
X303700Y277500D02*
Y301900D01*
X302900Y276700D02*
X303700Y277500D01*
X204700Y367300D02*
X206000Y368600D01*
X204700Y331400D02*
Y367300D01*
X203500Y328000D02*
X206100Y325400D01*
X203500Y373700D02*
X203600Y373800D01*
X203500Y328000D02*
Y373700D01*
X199600Y217800D02*
Y337700D01*
X201800Y339900D01*
X251800Y369800D02*
Y439300D01*
X253500Y441000D01*
X232300Y302600D02*
X233000Y303300D01*
Y334500D01*
X206400Y340500D02*
X206800Y340100D01*
Y333100D02*
Y340100D01*
X204700Y331400D02*
X206900Y329200D01*
Y328200D02*
Y329200D01*
X68500Y372200D02*
X70700Y370000D01*
Y369700D02*
Y370000D01*
X411800Y260904D02*
Y279100D01*
X408200Y282700D02*
X411800Y279100D01*
X408100Y250600D02*
Y257204D01*
X411800Y260904D01*
X237900Y434900D02*
X241900Y438900D01*
Y440000D01*
X264300Y365900D02*
X264800Y366400D01*
X268100Y297304D02*
Y320100D01*
X270400Y294900D02*
Y295004D01*
X268100Y297304D02*
X270400Y295004D01*
X261700Y262100D02*
X262200Y262600D01*
X260500Y289400D02*
X261700Y290600D01*
Y296470D01*
X262200Y262600D02*
Y286100D01*
X262900Y286800D01*
Y296967D01*
X262400Y297467D02*
X262900Y296967D01*
X262400Y342600D02*
Y388100D01*
X261700Y388800D02*
X262400Y388100D01*
X264300Y442900D02*
Y444300D01*
Y442900D02*
X264800Y442400D01*
Y366400D02*
Y442400D01*
X363599Y277600D02*
X365404D01*
X361500Y281396D02*
X363396Y279500D01*
X367800D01*
X359100Y274300D02*
Y284298D01*
X360300Y280899D02*
Y283801D01*
X359100Y284298D02*
X361700Y286898D01*
X360300Y283801D02*
X362900Y286401D01*
X361500Y281396D02*
Y283300D01*
X364100Y285900D01*
X365300Y283000D02*
X366300Y282000D01*
X366500Y283900D02*
X367100Y283300D01*
X369500D01*
X368700Y223000D02*
X370600Y221100D01*
X368700Y223000D02*
Y234701D01*
X367500Y218695D02*
Y235198D01*
X363900Y236892D02*
X364504Y237496D01*
X365100Y217701D02*
Y236395D01*
X364500Y211700D02*
Y216604D01*
X363900Y217204D02*
X364500Y216604D01*
X363900Y217204D02*
Y236892D01*
X366300Y218198D02*
Y235695D01*
X367500Y218695D02*
X369400Y216795D01*
Y215900D02*
Y216795D01*
X366300Y212900D02*
Y216501D01*
X365100Y217701D02*
X366300Y216501D01*
X367500Y214104D02*
X368000Y213604D01*
X367500Y214104D02*
Y216998D01*
X366300Y218198D02*
X367500Y216998D01*
X361200Y294991D02*
Y304600D01*
X360700Y305100D02*
X361200Y304600D01*
X359300Y287100D02*
Y293091D01*
X361200Y294991D01*
X364400Y336000D02*
X366100Y337700D01*
X369200Y321500D02*
X372000Y324300D01*
X341800Y310294D02*
Y321000D01*
X340000Y310191D02*
Y339100D01*
X338300Y310188D02*
Y366600D01*
X342200Y307300D02*
X344700Y309800D01*
X341000Y307797D02*
X343500Y310297D01*
X339800Y308294D02*
X341800Y310294D01*
X338600Y308791D02*
X340000Y310191D01*
X337400Y309288D02*
X338300Y310188D01*
X336200Y287100D02*
X337600Y285700D01*
X336200Y287100D02*
Y340400D01*
X336600Y340800D01*
X337400Y288700D02*
X338200Y287900D01*
X337400Y288700D02*
Y309288D01*
X338600Y291702D02*
X339900Y290402D01*
X338600Y291702D02*
Y308791D01*
X339800Y292199D02*
X341900Y290099D01*
X339800Y292199D02*
Y308294D01*
X341000Y292696D02*
X344200Y289496D01*
X341000Y292696D02*
Y307797D01*
X342200Y293900D02*
Y307300D01*
Y293900D02*
X343000Y293100D01*
X344500Y331597D02*
Y332821D01*
X345700Y332094D02*
Y360300D01*
Y332094D02*
X345800Y331994D01*
X344500Y331597D02*
X344600Y331497D01*
X343500Y310297D02*
Y328505D01*
X345800Y329599D02*
Y331994D01*
X344600Y329102D02*
Y331497D01*
X343400Y328605D02*
X343500Y328505D01*
X343400Y328605D02*
Y331000D01*
X341700Y332700D02*
X343400Y331000D01*
X344600Y329102D02*
X344700Y329002D01*
Y309800D02*
Y329002D01*
X345800Y329599D02*
X345900Y329499D01*
Y305400D02*
Y329499D01*
X347000Y330096D02*
X347100Y329996D01*
Y302300D02*
Y329996D01*
X347000Y330096D02*
Y338000D01*
X361300Y342500D02*
X366100Y337700D01*
X360100Y342003D02*
X360700Y341403D01*
X365600Y332900D02*
X367800Y335100D01*
X366800Y332403D02*
X369000Y334603D01*
X368000Y331906D02*
X370200Y334106D01*
Y342800D01*
X365700Y342500D02*
Y344200D01*
Y342500D02*
X367800Y340400D01*
Y335100D02*
Y340400D01*
X367600Y342297D02*
X369000Y340897D01*
X367600Y342297D02*
Y346300D01*
X369000Y334603D02*
Y340897D01*
X357400Y302900D02*
Y418100D01*
X358900Y341506D02*
Y355400D01*
X360100Y342003D02*
Y349501D01*
X360800Y350201D01*
Y371403D01*
X361300Y342500D02*
Y349004D01*
X362000Y349704D01*
Y371900D01*
X367100Y349204D02*
X370300Y346004D01*
X364700Y345600D02*
Y375300D01*
X368000Y378600D01*
X365900Y348000D02*
Y374803D01*
X369200Y378103D01*
X367100Y349204D02*
Y369097D01*
X370900Y372897D01*
X368300Y351079D02*
Y368600D01*
X372600Y372900D01*
X359900Y374000D02*
Y401500D01*
X366300Y407900D01*
X358600D02*
X362800Y412100D01*
Y427100D01*
X370400Y434700D01*
X371200Y360000D02*
Y364000D01*
X375000Y367800D01*
Y423400D01*
X373800Y368297D02*
Y418200D01*
X369500Y355400D02*
Y363997D01*
X373800Y368297D01*
X371200Y356600D02*
Y360000D01*
Y356600D02*
X374400Y353400D01*
Y296000D02*
Y353400D01*
X366500Y283900D02*
Y288200D01*
X369200Y290900D01*
Y321500D01*
X365300Y288697D02*
X368000Y291397D01*
X364100Y289194D02*
X366800Y291894D01*
Y332403D01*
X362900Y289691D02*
X365600Y292391D01*
Y332900D01*
X361700Y290188D02*
X364400Y292888D01*
X365300Y283000D02*
Y288697D01*
X368000Y291397D02*
Y331906D01*
X364100Y285900D02*
Y289194D01*
X362900Y286401D02*
Y289691D01*
X361700Y286898D02*
Y290188D01*
X364400Y292888D02*
Y336000D01*
X408000Y382300D02*
X408300Y382600D01*
X406300Y410500D02*
Y434700D01*
Y410500D02*
X408300Y408500D01*
Y382600D02*
Y408500D01*
X431700Y245600D02*
X431900Y245800D01*
X429300Y221400D02*
Y244299D01*
X429000Y244599D02*
X429300Y244299D01*
X429000Y244599D02*
Y251300D01*
X430200Y245096D02*
X430500Y244796D01*
X432300Y210500D02*
Y212300D01*
X433000Y213000D01*
Y218796D01*
X432900Y241800D02*
X433600Y242500D01*
X432900Y218896D02*
X433000Y218796D01*
X432900Y218896D02*
Y241800D01*
X431300Y214200D02*
X431700Y214600D01*
Y245600D01*
X429600Y217400D02*
X430500Y218300D01*
Y244796D01*
X514100Y257000D02*
X514400Y256700D01*
X513311Y227400D02*
X514400Y228489D01*
Y256700D01*
X508300Y254601D02*
X509300Y253601D01*
X511100Y255195D02*
Y265400D01*
X512400Y255592D02*
Y260100D01*
X509700Y254898D02*
X510500Y254098D01*
X510700Y231100D02*
X511700Y232100D01*
Y254595D01*
X511100Y255195D02*
X511700Y254595D01*
X509300Y245500D02*
X510500Y246700D01*
Y254098D01*
X511900Y229100D02*
X512900Y230100D01*
Y255092D01*
X512400Y255592D02*
X512900Y255092D01*
X506700Y246700D02*
X507800D01*
X509300Y248200D01*
Y253601D01*
X506800Y250100D02*
X507400Y250700D01*
Y253804D01*
X506800Y254404D02*
X507400Y253804D01*
X503100Y253400D02*
X503800Y254100D01*
Y295800D01*
X499200Y347500D02*
X500200Y348500D01*
Y354104D01*
X499900Y354404D02*
X500200Y354104D01*
X499400Y343300D02*
X501900Y345800D01*
Y354101D01*
X501100Y354901D02*
X501900Y354101D01*
X504300Y327800D02*
X505500Y329000D01*
Y425400D01*
X505000Y425900D02*
X505500Y425400D01*
X501700Y334600D02*
X504300Y337200D01*
X503700Y424000D02*
X504300Y423400D01*
Y337200D02*
Y423400D01*
X501100Y338400D02*
X503100Y340400D01*
Y421400D01*
X502500Y422000D02*
X503100Y421400D01*
X523900Y245200D02*
X524400Y245700D01*
X523900Y223400D02*
Y245200D01*
X366300Y235695D02*
X369800Y239195D01*
X367704Y282000D02*
X369800Y279904D01*
X366300Y282000D02*
X367704D01*
X365100Y236395D02*
X367800Y239095D01*
Y279500D01*
X372500Y294100D02*
X374000Y292600D01*
X372400Y226800D02*
X374000Y228400D01*
Y292600D01*
X368700Y234701D02*
X372800Y238801D01*
Y284700D01*
X370400Y287100D02*
X372800Y284700D01*
X367500Y235198D02*
X371600Y239298D01*
Y281200D01*
X369600Y283200D02*
X371600Y281200D01*
X369800Y239195D02*
Y279904D01*
X222044Y240844D02*
X224000Y242800D01*
X350400Y306500D02*
Y386600D01*
X523900Y223400D02*
X524200Y223100D01*
D67*
X282600Y388300D02*
Y401000D01*
X280300Y302700D02*
Y344100D01*
X280380Y269515D02*
Y302700D01*
X244800Y394700D02*
X245100Y395000D01*
X255200Y233400D02*
Y258800D01*
X205400Y253800D02*
Y299000D01*
X170689Y269394D02*
Y269512D01*
X191500Y240500D02*
Y253900D01*
X169900Y215100D02*
Y268487D01*
X170807Y269394D01*
X176800Y284700D02*
X176900Y284800D01*
Y306300D01*
X244800Y394700D02*
X244900Y394600D01*
X343600Y424700D02*
Y459800D01*
X281365Y424165D02*
X281900Y424700D01*
X281365Y402235D02*
Y424165D01*
Y402235D02*
X282600Y401000D01*
X280380Y269515D02*
X283100Y266795D01*
X182600Y242700D02*
X182700Y242800D01*
X182600Y215000D02*
Y242700D01*
X170689Y269512D02*
X170807Y269394D01*
X305750Y210350D02*
X305800Y210300D01*
X305750Y210350D02*
Y288350D01*
X305400Y288700D02*
X305750Y288350D01*
X441600Y374200D02*
Y379100D01*
X310600Y256600D02*
Y282700D01*
X302100Y194700D02*
Y233300D01*
Y194700D02*
X302300Y194500D01*
X279600Y344100D02*
Y385300D01*
X282600Y388300D01*
X342600Y241900D02*
Y274400D01*
X245100Y395000D02*
Y441800D01*
X181700Y311100D02*
Y328300D01*
X176900Y306300D02*
X181700Y311100D01*
X181600Y378100D02*
X181700Y378000D01*
Y328300D02*
Y378000D01*
D69*
X171600Y271300D02*
D03*
X309587Y405221D02*
D03*
X327200Y408400D02*
D03*
X322382Y208370D02*
D03*
X284980Y377661D02*
D03*
X442600Y317500D02*
D03*
X293839Y333370D02*
D03*
X285965Y406205D02*
D03*
D70*
X135100Y300200D02*
D03*
X538701Y399276D02*
D03*
X531201Y384276D02*
D03*
Y374276D02*
D03*
X538701Y359276D02*
D03*
X531201Y234276D02*
D03*
X553701Y399276D02*
D03*
X546201Y384276D02*
D03*
Y374276D02*
D03*
X553701Y349276D02*
D03*
Y339276D02*
D03*
Y329276D02*
D03*
Y319276D02*
D03*
X546201Y274276D02*
D03*
X553701Y269276D02*
D03*
D71*
X317461Y286795D02*
D03*
D72*
X329800Y190800D02*
D03*
D74*
X546201Y234276D02*
D03*
D75*
X172500Y221500D02*
D03*
X180000D02*
D03*
X177500D02*
D03*
X175000D02*
D03*
X288800Y286200D02*
D03*
X205600Y284700D02*
D03*
X176800D02*
D03*
X160600Y303500D02*
D03*
X446200Y342100D02*
D03*
X385700Y278100D02*
D03*
X426000Y195600D02*
D03*
X426300Y328100D02*
D03*
X425100Y398100D02*
D03*
X426000Y449000D02*
D03*
X388600Y437900D02*
D03*
X67100Y224500D02*
D03*
X67200Y257100D02*
D03*
X68700Y407600D02*
D03*
X47000Y418100D02*
D03*
X46900Y386100D02*
D03*
X282500Y394800D02*
D03*
X244900Y394600D02*
D03*
X343600Y459800D02*
D03*
Y424700D02*
D03*
X281900D02*
D03*
X280300Y302700D02*
D03*
X283100Y266795D02*
D03*
X255200Y258800D02*
D03*
X338100Y221900D02*
D03*
X338000Y271800D02*
D03*
X359800Y208600D02*
D03*
X298500Y216500D02*
D03*
X297400Y288600D02*
D03*
X436000Y253800D02*
D03*
X181600Y378100D02*
D03*
X205400Y299000D02*
D03*
X255500Y203700D02*
D03*
X237000Y192700D02*
D03*
X205000Y220100D02*
D03*
X197000Y234600D02*
D03*
X195300Y208400D02*
D03*
X222300Y232500D02*
D03*
X188300Y232400D02*
D03*
X188400Y209500D02*
D03*
X198000Y191200D02*
D03*
X197900Y200500D02*
D03*
X208800Y214400D02*
D03*
X227100Y225500D02*
D03*
X230500Y220200D02*
D03*
X212200Y216800D02*
D03*
X212100Y219600D02*
D03*
X212000Y225600D02*
D03*
X201500Y234600D02*
D03*
X201900Y240900D02*
D03*
X205400Y253800D02*
D03*
X191500Y253900D02*
D03*
X191300Y258400D02*
D03*
X191500Y240500D02*
D03*
X184200Y260300D02*
D03*
Y262800D02*
D03*
Y265200D02*
D03*
X191300Y262000D02*
D03*
Y265000D02*
D03*
X187800Y240800D02*
D03*
X182700Y242800D02*
D03*
X182600Y215000D02*
D03*
X141600Y196300D02*
D03*
X264500Y300000D02*
D03*
X259000Y223700D02*
D03*
X297900Y439000D02*
D03*
X336200Y439700D02*
D03*
X293900Y457300D02*
D03*
X283900Y344197D02*
D03*
X283800Y331400D02*
D03*
X169900Y215100D02*
D03*
X198400Y349800D02*
D03*
X142900Y316700D02*
D03*
X237900Y340800D02*
D03*
X264300Y365900D02*
D03*
X209800Y365800D02*
D03*
X209600Y333200D02*
D03*
X290200Y276700D02*
D03*
X290100Y246900D02*
D03*
X293700Y245900D02*
D03*
X284100Y247600D02*
D03*
X287000Y251200D02*
D03*
X213900Y423900D02*
D03*
X190000Y424000D02*
D03*
X206000Y368600D02*
D03*
X247500Y456800D02*
D03*
X263500Y445100D02*
D03*
X242200Y447400D02*
D03*
X203600Y373800D02*
D03*
X187700Y306600D02*
D03*
X160600Y264100D02*
D03*
X223100Y310500D02*
D03*
X151000Y400900D02*
D03*
X231000Y206402D02*
D03*
X217000Y202500D02*
D03*
X217700Y289800D02*
D03*
X220900Y246300D02*
D03*
X221100Y290200D02*
D03*
X201800Y259600D02*
D03*
X215100Y268500D02*
D03*
X223700Y264400D02*
D03*
X223600Y287200D02*
D03*
X234700Y310732D02*
D03*
X236400Y294400D02*
D03*
X255100Y400600D02*
D03*
X255157Y292257D02*
D03*
X258800Y411300D02*
D03*
X260000Y295766D02*
D03*
X249800Y236700D02*
D03*
X249700Y283900D02*
D03*
X294900Y218300D02*
D03*
X305800Y210300D02*
D03*
X305400Y288700D02*
D03*
X206100Y325400D02*
D03*
X350500Y350400D02*
D03*
Y386700D02*
D03*
X350400Y306500D02*
D03*
X345900Y301100D02*
D03*
X341800Y321000D02*
D03*
X333300Y356900D02*
D03*
X240300Y295900D02*
D03*
X242700Y356900D02*
D03*
X345400Y360600D02*
D03*
X303700Y301900D02*
D03*
X229300Y351100D02*
D03*
X229100Y382200D02*
D03*
X343400Y380800D02*
D03*
X222200Y348000D02*
D03*
X222000Y362500D02*
D03*
X338400Y366700D02*
D03*
X277700Y321100D02*
D03*
X280100Y390900D02*
D03*
X277200Y312600D02*
D03*
X277500Y283200D02*
D03*
X261700Y262100D02*
D03*
X351500Y266600D02*
D03*
X348200Y257300D02*
D03*
X348800Y275800D02*
D03*
X342600Y241900D02*
D03*
X377300Y338200D02*
D03*
X377100Y272000D02*
D03*
X379200Y243700D02*
D03*
X383900Y222900D02*
D03*
X382300Y215400D02*
D03*
X382100Y281800D02*
D03*
Y348400D02*
D03*
Y415100D02*
D03*
X377700Y405400D02*
D03*
X370400Y434700D02*
D03*
X382400Y423000D02*
D03*
X441600Y379100D02*
D03*
Y374200D02*
D03*
X372400Y226800D02*
D03*
X476600Y367100D02*
D03*
X475000Y369200D02*
D03*
X429700Y381600D02*
D03*
X429300Y332500D02*
D03*
X476400Y308900D02*
D03*
X481200Y302700D02*
D03*
X481600Y405900D02*
D03*
X483000Y300900D02*
D03*
Y403800D02*
D03*
X358300Y419000D02*
D03*
X299200Y296700D02*
D03*
X367600Y209100D02*
D03*
X371000Y421000D02*
D03*
X371600Y426800D02*
D03*
X408100Y250600D02*
D03*
X408200Y316700D02*
D03*
X403700Y363600D02*
D03*
X377300Y204600D02*
D03*
X407900Y213291D02*
D03*
X386400Y194600D02*
D03*
X401200Y227800D02*
D03*
X415900Y243600D02*
D03*
X406000Y248400D02*
D03*
X394400Y238300D02*
D03*
X387343Y230024D02*
D03*
X387800Y257900D02*
D03*
X386400Y261100D02*
D03*
X407800Y280221D02*
D03*
X401000Y294700D02*
D03*
X388600Y305400D02*
D03*
X385400Y303600D02*
D03*
X406100Y315500D02*
D03*
X408000Y346165D02*
D03*
X387900Y382200D02*
D03*
X408500Y436900D02*
D03*
X408000Y382300D02*
D03*
X391400Y363882D02*
D03*
X387200D02*
D03*
X385400Y370600D02*
D03*
X393600Y370800D02*
D03*
X388200Y389700D02*
D03*
X386200Y395100D02*
D03*
X408000Y413095D02*
D03*
X392300Y437800D02*
D03*
X384500Y437700D02*
D03*
X388400Y428700D02*
D03*
X400300Y428300D02*
D03*
X406000Y448800D02*
D03*
X416100Y443800D02*
D03*
X426000Y445000D02*
D03*
X426800Y395700D02*
D03*
X446100Y391100D02*
D03*
X446000Y401300D02*
D03*
X434800Y381500D02*
D03*
X435200Y399800D02*
D03*
X535900Y181200D02*
D03*
X565000Y216000D02*
D03*
Y324700D02*
D03*
X438500Y191700D02*
D03*
X454400Y330100D02*
D03*
X520700Y454800D02*
D03*
X576800Y202500D02*
D03*
X574900Y430900D02*
D03*
X520600Y394000D02*
D03*
X450900Y177500D02*
D03*
X427300Y177800D02*
D03*
X404400Y177400D02*
D03*
X381800Y177300D02*
D03*
X362804Y194800D02*
D03*
X362700Y396000D02*
D03*
X362804Y440100D02*
D03*
X404400Y454400D02*
D03*
X428000Y454630D02*
D03*
X451300Y454600D02*
D03*
X470900Y439000D02*
D03*
X471004Y395600D02*
D03*
Y372900D02*
D03*
Y328200D02*
D03*
X470900Y306100D02*
D03*
X471000Y238300D02*
D03*
X471004Y215300D02*
D03*
X471000Y193800D02*
D03*
X421500Y238600D02*
D03*
Y266000D02*
D03*
X427000Y259900D02*
D03*
X428300Y256500D02*
D03*
X430900Y249000D02*
D03*
X433600Y242500D02*
D03*
X572800Y283700D02*
D03*
X572500Y300200D02*
D03*
X520700Y363900D02*
D03*
Y341500D02*
D03*
X520600Y317800D02*
D03*
X506600Y427900D02*
D03*
X505000Y425900D02*
D03*
X502500Y422000D02*
D03*
X496800Y281400D02*
D03*
X495300Y284100D02*
D03*
X491100Y299400D02*
D03*
X491000Y239000D02*
D03*
X499600Y313500D02*
D03*
X504100Y296100D02*
D03*
X505500Y291000D02*
D03*
X510700Y231100D02*
D03*
X511900Y229100D02*
D03*
X545900Y219200D02*
D03*
X531300Y217200D02*
D03*
X520500Y233200D02*
D03*
Y253100D02*
D03*
X522400Y270800D02*
D03*
X146800Y268500D02*
D03*
X163800Y274700D02*
D03*
Y262600D02*
D03*
X158700Y269000D02*
D03*
X237000Y216000D02*
D03*
X255000Y233400D02*
D03*
X451500Y406300D02*
D03*
X412100Y394800D02*
D03*
X416200Y409100D02*
D03*
X416000Y413200D02*
D03*
Y416900D02*
D03*
X415900Y420900D02*
D03*
Y424900D02*
D03*
Y428900D02*
D03*
Y432600D02*
D03*
X423000Y438200D02*
D03*
X447500Y329400D02*
D03*
X451400Y339600D02*
D03*
X451300Y272400D02*
D03*
X450600Y205400D02*
D03*
X418400Y200055D02*
D03*
Y267000D02*
D03*
Y333300D02*
D03*
X418300Y400000D02*
D03*
X412400Y366300D02*
D03*
X427300Y362300D02*
D03*
X414900Y358200D02*
D03*
X415400Y354400D02*
D03*
Y350300D02*
D03*
Y346500D02*
D03*
X414800Y340800D02*
D03*
X421400Y372700D02*
D03*
X421700Y305900D02*
D03*
X426800Y295500D02*
D03*
X415200Y291500D02*
D03*
Y287600D02*
D03*
Y283700D02*
D03*
Y279800D02*
D03*
Y275800D02*
D03*
X413700Y272800D02*
D03*
X310600Y282700D02*
D03*
Y256600D02*
D03*
X393100Y209600D02*
D03*
X393500Y277900D02*
D03*
X393700Y344000D02*
D03*
X392300Y410500D02*
D03*
X415200Y377000D02*
D03*
X336200Y420900D02*
D03*
X261700Y388800D02*
D03*
X257400Y295600D02*
D03*
X257000Y372100D02*
D03*
X293300Y296000D02*
D03*
X479000Y305800D02*
D03*
Y388600D02*
D03*
X411500Y285000D02*
D03*
X412600Y322400D02*
D03*
X476000Y390300D02*
D03*
X293700Y280200D02*
D03*
X301300Y306500D02*
D03*
X219200Y293900D02*
D03*
Y343100D02*
D03*
X304800Y348500D02*
D03*
X304700Y333400D02*
D03*
X268200Y199300D02*
D03*
X302100Y233300D02*
D03*
X302300Y194500D02*
D03*
X252000Y359000D02*
D03*
X371100Y416800D02*
D03*
X334100Y283500D02*
D03*
X336200Y346700D02*
D03*
X204800Y215800D02*
D03*
X200959Y214900D02*
D03*
X197200Y213400D02*
D03*
X199459D02*
D03*
X221988Y240900D02*
D03*
X206000Y238300D02*
D03*
X214000D02*
D03*
X207800Y210300D02*
D03*
X227200Y232500D02*
D03*
X279643Y332757D02*
D03*
X279600Y342900D02*
D03*
X427000Y263600D02*
D03*
X315500Y446600D02*
D03*
X366300Y212900D02*
D03*
X365704Y210315D02*
D03*
X358600Y218800D02*
D03*
X342600Y274400D02*
D03*
X387100Y292200D02*
D03*
X340400Y281400D02*
D03*
X344200Y282400D02*
D03*
Y303700D02*
D03*
X340000Y339100D02*
D03*
X336600Y340800D02*
D03*
X337600Y285700D02*
D03*
X359800Y273600D02*
D03*
X341900Y287000D02*
D03*
X338200Y287900D02*
D03*
X343000Y293100D02*
D03*
X359300Y287100D02*
D03*
X365800Y277600D02*
D03*
X367800Y279500D02*
D03*
X359500Y300689D02*
D03*
X357800Y302500D02*
D03*
X393600Y382100D02*
D03*
X443800Y202700D02*
D03*
X366100Y337700D02*
D03*
X370300Y342900D02*
D03*
X365900Y344400D02*
D03*
X481400Y268800D02*
D03*
X431300Y214200D02*
D03*
X432300Y210500D02*
D03*
X429600Y217400D02*
D03*
X428800Y220900D02*
D03*
X429600Y251900D02*
D03*
X424900Y232800D02*
D03*
X427500Y224900D02*
D03*
X426400Y229100D02*
D03*
X404900Y382800D02*
D03*
X523300Y251300D02*
D03*
X525600Y241000D02*
D03*
X522200Y235700D02*
D03*
X483100Y264300D02*
D03*
X480500Y274800D02*
D03*
X493700Y288800D02*
D03*
X512800Y260500D02*
D03*
X514100Y257000D02*
D03*
X508500Y281400D02*
D03*
X510000Y276800D02*
D03*
X488400Y243500D02*
D03*
X488200Y248300D02*
D03*
X485000Y258400D02*
D03*
X480500Y283200D02*
D03*
X483900Y287100D02*
D03*
X488900Y269900D02*
D03*
X498100Y416000D02*
D03*
X499400Y418000D02*
D03*
X500800Y420000D02*
D03*
X501400Y307300D02*
D03*
X502800Y303400D02*
D03*
X489300Y295200D02*
D03*
X487700Y273300D02*
D03*
X491100Y266500D02*
D03*
X491000Y297000D02*
D03*
X488900Y293000D02*
D03*
X493500Y293700D02*
D03*
X509100Y286000D02*
D03*
X367000Y346900D02*
D03*
X369400Y349600D02*
D03*
X370700Y354200D02*
D03*
X369600Y283200D02*
D03*
X372500Y294100D02*
D03*
X357400Y280800D02*
D03*
X370400Y287100D02*
D03*
X371200Y360000D02*
D03*
X339800Y246200D02*
D03*
X332900Y305300D02*
D03*
X266800Y296200D02*
D03*
X478200Y321700D02*
D03*
X292900Y310900D02*
D03*
X260500Y289400D02*
D03*
X262400Y302100D02*
D03*
X298500Y427000D02*
D03*
X393800Y305300D02*
D03*
X388100Y325100D02*
D03*
X386500Y328400D02*
D03*
X393600Y286200D02*
D03*
X413200Y295800D02*
D03*
X412500Y339200D02*
D03*
X525900Y221400D02*
D03*
X523900Y223100D02*
D03*
X522200Y225700D02*
D03*
X513311Y227400D02*
D03*
X512200Y266500D02*
D03*
X497400Y262100D02*
D03*
X500200Y259500D02*
D03*
X501700Y255600D02*
D03*
X503100Y253200D02*
D03*
X505300Y253100D02*
D03*
X506800Y250100D02*
D03*
X506700Y246700D02*
D03*
X509300Y245500D02*
D03*
X482300Y285200D02*
D03*
X485400Y289100D02*
D03*
X487000Y291000D02*
D03*
X486600Y314300D02*
D03*
X487700Y309300D02*
D03*
X488900Y305000D02*
D03*
X485900Y348500D02*
D03*
X487500Y351300D02*
D03*
X489000Y353500D02*
D03*
X490500Y355400D02*
D03*
X491700Y357900D02*
D03*
X493200Y360100D02*
D03*
X494600Y362400D02*
D03*
X496400Y364000D02*
D03*
X501100Y338400D02*
D03*
X501700Y334600D02*
D03*
X503700Y424000D02*
D03*
X499400Y343300D02*
D03*
X499200Y346900D02*
D03*
X498300Y352600D02*
D03*
X474200Y312600D02*
D03*
X359100Y355600D02*
D03*
X504300Y327800D02*
D03*
X506000Y323200D02*
D03*
X508300Y320400D02*
D03*
X507900Y429900D02*
D03*
X391300Y297200D02*
D03*
X520700Y295400D02*
D03*
X428300Y375800D02*
D03*
X414800Y315800D02*
D03*
X520600Y390100D02*
D03*
X388600Y237600D02*
D03*
X385800Y237300D02*
D03*
X384500Y448800D02*
D03*
X370900Y408000D02*
D03*
X369800Y412800D02*
D03*
X367300Y411100D02*
D03*
X366300Y407900D02*
D03*
X249900Y320400D02*
D03*
X245100Y441800D02*
D03*
X253500Y441000D02*
D03*
X249700Y436300D02*
D03*
X195000Y217100D02*
D03*
X199600Y217800D02*
D03*
X370600Y221100D02*
D03*
X369400Y215900D02*
D03*
X351200Y277400D02*
D03*
X348700Y330800D02*
D03*
X341700Y332700D02*
D03*
X347400Y338400D02*
D03*
X387000Y356200D02*
D03*
X232300Y302600D02*
D03*
X299700Y279300D02*
D03*
X301900Y283800D02*
D03*
X302900Y276700D02*
D03*
X206400Y340500D02*
D03*
X201800Y339900D02*
D03*
X251800Y369800D02*
D03*
X240100Y336700D02*
D03*
X233000Y334500D02*
D03*
X186400Y220500D02*
D03*
X206800Y333100D02*
D03*
X206900Y328200D02*
D03*
X181700Y328300D02*
D03*
X70700Y369700D02*
D03*
X241900Y440000D02*
D03*
X270400Y294900D02*
D03*
X268100Y320100D02*
D03*
X431900Y245800D02*
D03*
X524400Y245700D02*
D03*
X369900Y275600D02*
D03*
M02*
