G04*
G04 #@! TF.GenerationSoftware,Altium Limited,Altium Designer,19.0.15 (446)*
G04*
G04 Layer_Physical_Order=3*
G04 Layer_Color=36540*
%FSLAX25Y25*%
%MOIN*%
G70*
G01*
G75*
%ADD15C,0.02000*%
%ADD65C,0.00600*%
%ADD67C,0.01500*%
%ADD69C,0.06500*%
%ADD70C,0.05000*%
%ADD71C,0.05500*%
%ADD72C,0.05906*%
%ADD75C,0.01600*%
G36*
X592386Y461868D02*
X592276Y461351D01*
X590447Y460593D01*
X588635Y459483D01*
X587019Y458103D01*
X585639Y456487D01*
X584529Y454675D01*
X583715Y452712D01*
X583219Y450646D01*
X583053Y448528D01*
X583219Y446409D01*
X583715Y444343D01*
X584529Y442380D01*
X585639Y440568D01*
X587019Y438952D01*
X588635Y437572D01*
X590447Y436462D01*
X592410Y435649D01*
X594476Y435152D01*
X596594Y434986D01*
X598713Y435152D01*
X600779Y435649D01*
X602742Y436462D01*
X604554Y437572D01*
X606170Y438952D01*
X607550Y440568D01*
X608660Y442380D01*
X609473Y444343D01*
X609970Y446409D01*
X610000Y446797D01*
X610500Y446777D01*
Y187458D01*
X610365Y187359D01*
X609802Y187564D01*
X609473Y188933D01*
X608660Y190896D01*
X607550Y192708D01*
X606170Y194324D01*
X604554Y195703D01*
X602742Y196814D01*
X600779Y197627D01*
X598713Y198123D01*
X596594Y198290D01*
X594476Y198123D01*
X592410Y197627D01*
X590447Y196814D01*
X588635Y195703D01*
X587019Y194324D01*
X585639Y192708D01*
X584529Y190896D01*
X583715Y188933D01*
X583219Y186866D01*
X583053Y184748D01*
X583219Y182630D01*
X583715Y180563D01*
X584529Y178600D01*
X585639Y176788D01*
X587019Y175173D01*
X588635Y173793D01*
X590447Y172682D01*
X592410Y171869D01*
X593947Y171500D01*
X593888Y171000D01*
X490935D01*
X490876Y171500D01*
X492413Y171869D01*
X494376Y172682D01*
X496188Y173793D01*
X497804Y175173D01*
X499184Y176788D01*
X500294Y178600D01*
X501107Y180563D01*
X501603Y182630D01*
X501770Y184748D01*
X501603Y186866D01*
X501107Y188933D01*
X500294Y190896D01*
X499184Y192708D01*
X497804Y194324D01*
X496188Y195703D01*
X494376Y196814D01*
X492413Y197627D01*
X490347Y198123D01*
X488228Y198290D01*
X486110Y198123D01*
X484044Y197627D01*
X482081Y196814D01*
X480269Y195703D01*
X478653Y194324D01*
X477273Y192708D01*
X476163Y190896D01*
X475349Y188933D01*
X474853Y186866D01*
X474687Y184748D01*
X474853Y182630D01*
X475349Y180563D01*
X476163Y178600D01*
X477273Y176788D01*
X478653Y175173D01*
X480269Y173793D01*
X482081Y172682D01*
X484044Y171869D01*
X485581Y171500D01*
X485522Y171000D01*
X358230D01*
Y206883D01*
X358730Y207150D01*
X359098Y206904D01*
X359800Y206765D01*
X360502Y206904D01*
X361098Y207302D01*
X361496Y207898D01*
X361635Y208600D01*
X361496Y209302D01*
X361098Y209898D01*
X360502Y210296D01*
X359800Y210435D01*
X359098Y210296D01*
X358730Y210050D01*
X358230Y210317D01*
Y216151D01*
X358600Y216455D01*
X367281D01*
X367598Y216068D01*
X367565Y215900D01*
X367704Y215198D01*
X368102Y214602D01*
X368698Y214204D01*
X369400Y214065D01*
X370102Y214204D01*
X370698Y214602D01*
X371096Y215198D01*
X371235Y215900D01*
X371105Y216555D01*
X371497Y216633D01*
X372258Y217142D01*
X372358Y217242D01*
X372867Y218003D01*
X373045Y218900D01*
X372867Y219797D01*
X372358Y220558D01*
X372331Y220576D01*
X372435Y221100D01*
X372296Y221802D01*
X371898Y222398D01*
X371302Y222796D01*
X370600Y222935D01*
X369898Y222796D01*
X369302Y222398D01*
X368904Y221802D01*
X368774Y221145D01*
X358600D01*
X358230Y221448D01*
Y271100D01*
X358366Y271255D01*
X359800D01*
X360697Y271433D01*
X361458Y271942D01*
X361967Y272703D01*
X362096Y273355D01*
X369397D01*
X369900Y273255D01*
X370797Y273433D01*
X371558Y273942D01*
X372067Y274703D01*
X372245Y275600D01*
X372067Y276497D01*
X371558Y277258D01*
X371458Y277358D01*
X370697Y277867D01*
X370220Y277961D01*
X370015Y278420D01*
X370248Y278855D01*
X377100D01*
X377997Y279033D01*
X378758Y279542D01*
X380008Y280791D01*
X380651Y280728D01*
X380802Y280502D01*
X381398Y280104D01*
X382100Y279965D01*
X382802Y280104D01*
X383398Y280502D01*
X383796Y281098D01*
X383935Y281800D01*
X384144Y282055D01*
X386594D01*
X386704Y281498D01*
X387102Y280902D01*
X387698Y280504D01*
X388400Y280365D01*
X389102Y280504D01*
X389698Y280902D01*
X390096Y281498D01*
X390172Y281880D01*
X390800Y281755D01*
X394292D01*
X394500Y281364D01*
X394252Y280926D01*
X393500D01*
X392717Y280823D01*
X391987Y280521D01*
X391360Y280040D01*
X390880Y279413D01*
X390577Y278683D01*
X390474Y277900D01*
X390577Y277117D01*
X390880Y276387D01*
X391360Y275760D01*
X391987Y275279D01*
X392717Y274977D01*
X393500Y274874D01*
X395190D01*
X395471Y274411D01*
X395466Y274374D01*
X394902Y273998D01*
X394504Y273402D01*
X394365Y272700D01*
X394504Y271998D01*
X394902Y271402D01*
X395498Y271004D01*
X396200Y270865D01*
X396902Y271004D01*
X397498Y271402D01*
X397896Y271998D01*
X398035Y272700D01*
X397896Y273402D01*
X397498Y273998D01*
X396934Y274374D01*
X396929Y274411D01*
X397210Y274874D01*
X403747D01*
X405630Y272990D01*
X405504Y272802D01*
X405365Y272100D01*
X405504Y271398D01*
X405902Y270802D01*
X406498Y270404D01*
X407200Y270265D01*
X407467Y270318D01*
X407479Y270287D01*
X407960Y269660D01*
X408587Y269180D01*
X409317Y268877D01*
X410100Y268774D01*
X410883Y268877D01*
X411613Y269180D01*
X412240Y269660D01*
X412720Y270287D01*
X413023Y271017D01*
X413126Y271800D01*
Y272800D01*
X413023Y273583D01*
X412720Y274313D01*
X412240Y274940D01*
X407140Y280040D01*
X406513Y280521D01*
X405783Y280823D01*
X405000Y280926D01*
X398048D01*
X397781Y281426D01*
X397896Y281598D01*
X397967Y281955D01*
X410800D01*
X411697Y282133D01*
X412458Y282642D01*
X413158Y283342D01*
X413667Y284103D01*
X413845Y285000D01*
X413667Y285897D01*
X413158Y286658D01*
X412397Y287167D01*
X411500Y287345D01*
X410603Y287167D01*
X409842Y286658D01*
X409829Y286645D01*
X396800D01*
X395903Y286467D01*
X395870Y286445D01*
X395387D01*
X395296Y286902D01*
X394898Y287498D01*
X394302Y287896D01*
X393600Y288035D01*
X392898Y287896D01*
X392302Y287498D01*
X391904Y286902D01*
X391887Y286816D01*
X391453Y286595D01*
X391331Y286580D01*
X390666Y286712D01*
X390522Y287157D01*
X390526Y287234D01*
X390661Y287339D01*
X391102Y287913D01*
X391379Y288582D01*
X391474Y289300D01*
X391379Y290018D01*
X391102Y290687D01*
X390661Y291261D01*
X389911Y292011D01*
X389395Y292408D01*
X389406Y292611D01*
X389535Y292908D01*
X392004D01*
X392902Y293086D01*
X393662Y293595D01*
X395923Y295855D01*
X427400D01*
X428297Y296033D01*
X429058Y296542D01*
X430790Y298274D01*
X431333Y298109D01*
X431433Y297603D01*
X431942Y296842D01*
X432331Y296582D01*
X432315Y296298D01*
X432252Y296033D01*
X431542Y295558D01*
X431033Y294797D01*
X430855Y293900D01*
X431033Y293003D01*
X431542Y292242D01*
X431787Y292078D01*
X431533Y291697D01*
X431355Y290800D01*
X431533Y289903D01*
X431864Y289408D01*
X431788Y288756D01*
X431642Y288658D01*
X431133Y287897D01*
X430955Y287000D01*
X431133Y286103D01*
X431642Y285342D01*
X431726Y285285D01*
X431333Y284697D01*
X431155Y283800D01*
X431333Y282903D01*
X431836Y282150D01*
X431533Y281697D01*
X431355Y280800D01*
X431533Y279903D01*
X432042Y279142D01*
Y278958D01*
X431533Y278197D01*
X431355Y277300D01*
X431533Y276403D01*
X432042Y275642D01*
X432803Y275133D01*
X433700Y274955D01*
X440000D01*
X440897Y275133D01*
X441658Y275642D01*
X443158Y277142D01*
X443667Y277903D01*
X443845Y278800D01*
X443667Y279697D01*
X443164Y280450D01*
X443667Y281203D01*
X443845Y282100D01*
X443667Y282997D01*
X443230Y283650D01*
X443667Y284303D01*
X443845Y285200D01*
X443667Y286097D01*
X443197Y286800D01*
X443667Y287503D01*
X443845Y288400D01*
X443667Y289297D01*
X443158Y290058D01*
X442972Y290182D01*
Y290784D01*
X443358Y291042D01*
X443867Y291803D01*
X444045Y292700D01*
X443867Y293597D01*
X443358Y294358D01*
X443297Y294399D01*
X443767Y295103D01*
X443945Y296000D01*
X443767Y296897D01*
X443498Y297300D01*
X443767Y297703D01*
X443945Y298600D01*
X443767Y299497D01*
X443500Y299896D01*
X443558Y300018D01*
X444161Y300123D01*
X445042Y299242D01*
X445042Y299242D01*
X445803Y298733D01*
X446700Y298555D01*
X446700Y298555D01*
X463142D01*
X463378Y298114D01*
X463233Y297897D01*
X463062Y297038D01*
X462703Y296967D01*
X461942Y296458D01*
X461433Y295697D01*
X461255Y294800D01*
X461433Y293903D01*
X461942Y293142D01*
X461703Y292700D01*
X461342Y292458D01*
X460833Y291697D01*
X460655Y290800D01*
X460833Y289903D01*
X461342Y289142D01*
X461747Y288871D01*
X461811Y288227D01*
X461742Y288158D01*
X461233Y287397D01*
X461055Y286500D01*
X461233Y285603D01*
X461742Y284842D01*
X462503Y284333D01*
X462570Y283810D01*
X462342Y283658D01*
X461833Y282897D01*
X461655Y282000D01*
X461833Y281103D01*
X462342Y280342D01*
X463103Y279833D01*
X464000Y279655D01*
X479300D01*
X480197Y279833D01*
X480958Y280342D01*
X482158Y281542D01*
X482667Y282303D01*
X482800Y282974D01*
X483097Y283033D01*
X483858Y283542D01*
X484367Y284303D01*
X484461Y284776D01*
X485158Y285242D01*
X485358Y285442D01*
X485867Y286203D01*
X486029Y287022D01*
X486658Y287442D01*
X487167Y288203D01*
X487234Y288541D01*
X487697Y288633D01*
X488458Y289142D01*
X488658Y289342D01*
X489167Y290103D01*
X489292Y290733D01*
X489797Y290833D01*
X490558Y291342D01*
X491067Y292103D01*
X491097Y292256D01*
X491628Y292362D01*
X491842Y292042D01*
X492342Y291542D01*
X492554Y291400D01*
Y290900D01*
X492342Y290758D01*
X492342Y290758D01*
X492042Y290458D01*
X491533Y289697D01*
X491355Y288800D01*
X491533Y287903D01*
X492042Y287142D01*
X492803Y286633D01*
X493700Y286455D01*
X493820Y286479D01*
X494016Y286008D01*
X493642Y285758D01*
X493133Y284997D01*
X492955Y284100D01*
X493133Y283203D01*
X493642Y282442D01*
X494403Y281933D01*
X494555Y281903D01*
X494455Y281400D01*
X494633Y280503D01*
X495142Y279742D01*
X497039Y277845D01*
X496831Y277345D01*
X480700D01*
X479803Y277167D01*
X479042Y276658D01*
X478842Y276458D01*
X478333Y275697D01*
X478155Y274800D01*
X478333Y273903D01*
X478842Y273142D01*
X479603Y272633D01*
X480500Y272455D01*
X481397Y272633D01*
X481430Y272655D01*
X485483D01*
X485533Y272403D01*
X486042Y271642D01*
X486597Y271271D01*
X486776Y270718D01*
X486770Y270630D01*
X486713Y270545D01*
X482928D01*
X482297Y270967D01*
X481400Y271145D01*
X480503Y270967D01*
X479742Y270458D01*
X479233Y269697D01*
X479055Y268800D01*
X479233Y267903D01*
X479742Y267142D01*
X480342Y266542D01*
X480988Y266110D01*
X481103Y266033D01*
X481146Y265515D01*
X480933Y265197D01*
X480764Y264345D01*
X465400D01*
X464503Y264167D01*
X463742Y263658D01*
X463233Y262897D01*
X463055Y262000D01*
X463233Y261103D01*
X463527Y260664D01*
X463355Y259800D01*
X463481Y259167D01*
X463033Y258497D01*
X462855Y257600D01*
X463033Y256703D01*
X463248Y256382D01*
X463057Y255920D01*
X463041Y255917D01*
X462281Y255408D01*
X461772Y254647D01*
X461594Y253750D01*
X461772Y252853D01*
X462281Y252092D01*
X462838Y251719D01*
X462755Y251300D01*
X462933Y250403D01*
X463286Y249875D01*
X462833Y249197D01*
X462655Y248300D01*
X462833Y247403D01*
X463026Y247114D01*
X462942Y247058D01*
X462433Y246297D01*
X462255Y245400D01*
X462433Y244503D01*
X462942Y243742D01*
X463703Y243233D01*
X464600Y243055D01*
X486143D01*
X486233Y242603D01*
X486742Y241842D01*
X486890Y241693D01*
X487651Y241185D01*
X488549Y241006D01*
X489032D01*
X489240Y240506D01*
X488833Y239897D01*
X488655Y239000D01*
X488833Y238103D01*
X489342Y237342D01*
X490103Y236833D01*
X491000Y236655D01*
X520118D01*
X520455Y236155D01*
X520365Y235700D01*
X520504Y234998D01*
X520902Y234402D01*
X521498Y234004D01*
X522200Y233865D01*
X522902Y234004D01*
X523498Y234402D01*
X523896Y234998D01*
X524035Y235700D01*
X523945Y236155D01*
X524282Y236655D01*
X528050D01*
X528271Y236207D01*
X528144Y236041D01*
X527791Y235189D01*
X527671Y234276D01*
X527791Y233362D01*
X528144Y232510D01*
X528705Y231779D01*
X529436Y231218D01*
X530287Y230866D01*
X531201Y230745D01*
X532115Y230866D01*
X532966Y231218D01*
X533697Y231779D01*
X534258Y232510D01*
X534611Y233362D01*
X534731Y234276D01*
X534611Y235189D01*
X534258Y236041D01*
X534131Y236207D01*
X534352Y236655D01*
X536367D01*
X536936Y236218D01*
X537787Y235866D01*
X538701Y235745D01*
X539614Y235866D01*
X540466Y236218D01*
X541197Y236779D01*
X541758Y237510D01*
X542111Y238362D01*
X542120Y238430D01*
X542593Y238591D01*
X542946Y238238D01*
X542755Y237776D01*
X542701D01*
Y230776D01*
X549701D01*
Y236930D01*
X551089D01*
X551205Y236779D01*
X551936Y236218D01*
X552787Y235866D01*
X553701Y235745D01*
X554614Y235866D01*
X555466Y236218D01*
X556197Y236779D01*
X556758Y237510D01*
X557111Y238362D01*
X557231Y239276D01*
X557111Y240189D01*
X556758Y241041D01*
X556197Y241772D01*
X555466Y242333D01*
X554614Y242686D01*
X553701Y242806D01*
X552787Y242686D01*
X551936Y242333D01*
X551205Y241772D01*
X551089Y241621D01*
X549205D01*
X548959Y242121D01*
X549258Y242511D01*
X549611Y243362D01*
X549731Y244276D01*
X549611Y245189D01*
X549258Y246041D01*
X548959Y246430D01*
X549205Y246931D01*
X551089D01*
X551205Y246779D01*
X551936Y246218D01*
X552787Y245866D01*
X553701Y245745D01*
X554614Y245866D01*
X555466Y246218D01*
X556197Y246779D01*
X556758Y247511D01*
X557111Y248362D01*
X557231Y249276D01*
X557111Y250189D01*
X556758Y251041D01*
X556197Y251772D01*
X555466Y252333D01*
X554614Y252685D01*
X553701Y252806D01*
X552787Y252685D01*
X551936Y252333D01*
X551205Y251772D01*
X551089Y251621D01*
X549205D01*
X548959Y252121D01*
X549258Y252510D01*
X549611Y253362D01*
X549731Y254276D01*
X549611Y255189D01*
X549258Y256041D01*
X548959Y256431D01*
X549205Y256930D01*
X551089D01*
X551205Y256779D01*
X551936Y256218D01*
X552787Y255866D01*
X553701Y255745D01*
X554614Y255866D01*
X555466Y256218D01*
X556197Y256779D01*
X556758Y257510D01*
X557111Y258362D01*
X557231Y259276D01*
X557111Y260189D01*
X556758Y261041D01*
X556197Y261772D01*
X555466Y262333D01*
X554614Y262685D01*
X553701Y262806D01*
X552787Y262685D01*
X551936Y262333D01*
X551205Y261772D01*
X551089Y261621D01*
X549205D01*
X548959Y262121D01*
X549258Y262510D01*
X549611Y263362D01*
X549731Y264276D01*
X549611Y265189D01*
X549258Y266041D01*
X548697Y266772D01*
X547966Y267333D01*
X547115Y267686D01*
X546201Y267806D01*
X545287Y267686D01*
X544436Y267333D01*
X543705Y266772D01*
X543589Y266621D01*
X541706D01*
X541459Y267121D01*
X541758Y267511D01*
X542111Y268362D01*
X542231Y269276D01*
X542111Y270189D01*
X541758Y271041D01*
X541197Y271772D01*
X540466Y272333D01*
X539930Y272555D01*
X540029Y273055D01*
X540800D01*
X541697Y273233D01*
X542458Y273742D01*
X545647Y276930D01*
X551089D01*
X551205Y276779D01*
X551936Y276218D01*
X552787Y275866D01*
X553701Y275745D01*
X554614Y275866D01*
X555466Y276218D01*
X556197Y276779D01*
X556758Y277510D01*
X557111Y278362D01*
X557231Y279276D01*
X557111Y280189D01*
X556758Y281041D01*
X556197Y281772D01*
X555466Y282333D01*
X554614Y282685D01*
X553701Y282806D01*
X552787Y282685D01*
X551936Y282333D01*
X551205Y281772D01*
X551089Y281621D01*
X549205D01*
X548959Y282121D01*
X549258Y282510D01*
X549611Y283362D01*
X549731Y284276D01*
X549611Y285189D01*
X549258Y286041D01*
X548959Y286431D01*
X549205Y286930D01*
X551089D01*
X551205Y286779D01*
X551936Y286218D01*
X552787Y285866D01*
X553701Y285745D01*
X554614Y285866D01*
X555466Y286218D01*
X556197Y286779D01*
X556758Y287510D01*
X557111Y288362D01*
X557231Y289276D01*
X557111Y290189D01*
X556758Y291041D01*
X556197Y291772D01*
X555466Y292333D01*
X554614Y292686D01*
X553701Y292806D01*
X552787Y292686D01*
X551936Y292333D01*
X551205Y291772D01*
X551089Y291621D01*
X549205D01*
X548959Y292121D01*
X549258Y292511D01*
X549611Y293362D01*
X549731Y294276D01*
X549611Y295189D01*
X549258Y296041D01*
X548959Y296430D01*
X549205Y296931D01*
X551089D01*
X551205Y296779D01*
X551936Y296218D01*
X552787Y295866D01*
X553701Y295745D01*
X554614Y295866D01*
X555466Y296218D01*
X556197Y296779D01*
X556758Y297511D01*
X557111Y298362D01*
X557231Y299276D01*
X557111Y300189D01*
X556758Y301041D01*
X556197Y301772D01*
X555466Y302333D01*
X554614Y302685D01*
X553701Y302806D01*
X552787Y302685D01*
X551936Y302333D01*
X551205Y301772D01*
X551089Y301621D01*
X549205D01*
X548959Y302121D01*
X549258Y302510D01*
X549611Y303362D01*
X549731Y304276D01*
X549611Y305189D01*
X549258Y306041D01*
X548959Y306431D01*
X549205Y306930D01*
X551089D01*
X551205Y306779D01*
X551936Y306218D01*
X552787Y305866D01*
X553701Y305745D01*
X554614Y305866D01*
X555466Y306218D01*
X556197Y306779D01*
X556758Y307510D01*
X557111Y308362D01*
X557231Y309276D01*
X557111Y310189D01*
X556758Y311041D01*
X556197Y311772D01*
X555466Y312333D01*
X554614Y312685D01*
X553701Y312806D01*
X552787Y312685D01*
X551936Y312333D01*
X551205Y311772D01*
X551089Y311621D01*
X549205D01*
X548959Y312121D01*
X549258Y312510D01*
X549611Y313362D01*
X549731Y314276D01*
X549611Y315189D01*
X549258Y316041D01*
X548697Y316772D01*
X547966Y317333D01*
X547115Y317686D01*
X546201Y317806D01*
X545287Y317686D01*
X544436Y317333D01*
X543705Y316772D01*
X543589Y316621D01*
X541706D01*
X541459Y317121D01*
X541758Y317511D01*
X542111Y318362D01*
X542231Y319276D01*
X542111Y320189D01*
X541758Y321041D01*
X541197Y321772D01*
X540466Y322333D01*
X539614Y322686D01*
X538701Y322806D01*
X537841Y322692D01*
X537576Y322745D01*
X534805D01*
X534527Y323161D01*
X534611Y323362D01*
X534731Y324276D01*
X534642Y324955D01*
X534991Y325455D01*
X537225D01*
X538123Y325633D01*
X538358Y325791D01*
X538701Y325745D01*
X539614Y325866D01*
X540466Y326218D01*
X541197Y326779D01*
X541758Y327510D01*
X542111Y328362D01*
X542231Y329276D01*
X542111Y330189D01*
X541758Y331041D01*
X541459Y331431D01*
X541706Y331930D01*
X543589D01*
X543705Y331779D01*
X544436Y331218D01*
X545287Y330866D01*
X546201Y330745D01*
X547115Y330866D01*
X547966Y331218D01*
X548697Y331779D01*
X549258Y332510D01*
X549611Y333362D01*
X549731Y334276D01*
X549611Y335189D01*
X549258Y336041D01*
X548697Y336772D01*
X547966Y337333D01*
X547115Y337685D01*
X546201Y337806D01*
X545287Y337685D01*
X544436Y337333D01*
X543705Y336772D01*
X543589Y336621D01*
X541706D01*
X541459Y337121D01*
X541758Y337510D01*
X542111Y338362D01*
X542231Y339276D01*
X542111Y340189D01*
X541758Y341041D01*
X541459Y341430D01*
X541706Y341931D01*
X543589D01*
X543705Y341779D01*
X544436Y341218D01*
X545287Y340866D01*
X546201Y340745D01*
X547115Y340866D01*
X547966Y341218D01*
X548697Y341779D01*
X549258Y342511D01*
X549611Y343362D01*
X549731Y344276D01*
X549611Y345189D01*
X549258Y346041D01*
X548697Y346772D01*
X547966Y347333D01*
X547115Y347686D01*
X546201Y347806D01*
X545287Y347686D01*
X544436Y347333D01*
X543705Y346772D01*
X543589Y346621D01*
X541706D01*
X541459Y347121D01*
X541758Y347511D01*
X542111Y348362D01*
X542231Y349276D01*
X542111Y350189D01*
X541758Y351041D01*
X541197Y351772D01*
X540466Y352333D01*
X539614Y352685D01*
X538701Y352806D01*
X537787Y352685D01*
X536936Y352333D01*
X536205Y351772D01*
X535643Y351041D01*
X535291Y350189D01*
X535171Y349276D01*
X535144Y349245D01*
X534356D01*
X534267Y349334D01*
X533506Y349842D01*
X532609Y350021D01*
X530705D01*
X530553Y350521D01*
X530941Y350780D01*
X531201Y350745D01*
X532115Y350866D01*
X532966Y351218D01*
X533697Y351779D01*
X534258Y352510D01*
X534611Y353362D01*
X534731Y354276D01*
X534611Y355189D01*
X534258Y356041D01*
X533697Y356772D01*
X532966Y357333D01*
X532115Y357685D01*
X531201Y357806D01*
X530287Y357685D01*
X529436Y357333D01*
X528705Y356772D01*
X528144Y356041D01*
X527791Y355189D01*
X527759Y354945D01*
X498300D01*
X497403Y354767D01*
X496642Y354258D01*
X496133Y353497D01*
X495955Y352600D01*
X496133Y351703D01*
X496642Y350942D01*
X497403Y350433D01*
X498300Y350255D01*
X528613D01*
X528764Y349755D01*
X528134Y349334D01*
X528046Y349245D01*
X499200D01*
X498303Y349067D01*
X497542Y348558D01*
X497033Y347797D01*
X496855Y346900D01*
X497033Y346003D01*
X497542Y345242D01*
X497533Y344646D01*
X497233Y344197D01*
X497183Y343945D01*
X464000D01*
X463493Y343844D01*
X463022Y343912D01*
X462866Y344191D01*
X462702Y344587D01*
X462261Y345161D01*
X461687Y345602D01*
X461018Y345879D01*
X460300Y345974D01*
X459582Y345879D01*
X458913Y345602D01*
X458339Y345161D01*
X458051Y344874D01*
X444271D01*
X443860Y345374D01*
X443945Y345800D01*
X443767Y346697D01*
X443364Y347300D01*
X443767Y347903D01*
X443945Y348800D01*
X443767Y349697D01*
X443281Y350424D01*
X443458Y350542D01*
X443967Y351303D01*
X444145Y352200D01*
X443967Y353097D01*
X443480Y353825D01*
X443867Y354403D01*
X444045Y355300D01*
X443867Y356197D01*
X443358Y356958D01*
X443597Y357400D01*
X443867Y357803D01*
X444045Y358700D01*
X443867Y359597D01*
X443445Y360228D01*
X443558Y360342D01*
X444067Y361103D01*
X444245Y362000D01*
X444067Y362897D01*
X443558Y363658D01*
X443451Y363730D01*
X443767Y364203D01*
X443945Y365100D01*
X443767Y365997D01*
X443380Y366575D01*
X443867Y367303D01*
X444045Y368200D01*
X443867Y369097D01*
X443358Y369858D01*
X443158Y370058D01*
X442397Y370567D01*
X441500Y370745D01*
X434500D01*
X433603Y370567D01*
X432842Y370058D01*
X432333Y369297D01*
X432155Y368400D01*
X432333Y367503D01*
X432842Y366742D01*
X433019Y366624D01*
X432533Y365897D01*
X432355Y365000D01*
X432533Y364103D01*
X433018Y363377D01*
X432542Y363058D01*
X432033Y362297D01*
X431855Y361400D01*
X432033Y360503D01*
X432542Y359742D01*
X432764Y359593D01*
X432433Y359097D01*
X432255Y358200D01*
X432433Y357303D01*
X432841Y356693D01*
X432813Y356072D01*
X432642Y355958D01*
X432133Y355197D01*
X431955Y354300D01*
X432133Y353403D01*
X432356Y353069D01*
X431742Y352658D01*
X431233Y351897D01*
X431055Y351000D01*
X431233Y350103D01*
X431742Y349342D01*
X432218Y349024D01*
X431933Y348597D01*
X431755Y347700D01*
X431933Y346803D01*
X432442Y346042D01*
X432573Y345954D01*
X432133Y345297D01*
X432049Y344874D01*
X429549D01*
X429511Y344911D01*
X428937Y345352D01*
X428268Y345629D01*
X427550Y345724D01*
X413209D01*
X412492Y345629D01*
X411823Y345352D01*
X411248Y344911D01*
X410258Y343921D01*
X408040Y346140D01*
X407413Y346620D01*
X406683Y346923D01*
X405900Y347026D01*
X398014D01*
X397747Y347526D01*
X397996Y347898D01*
X398135Y348600D01*
X397996Y349302D01*
X397598Y349898D01*
X397002Y350296D01*
X396300Y350435D01*
X395598Y350296D01*
X395002Y349898D01*
X394604Y349302D01*
X394465Y348600D01*
X394604Y347898D01*
X394853Y347526D01*
X394586Y347026D01*
X393700D01*
X392917Y346923D01*
X392187Y346620D01*
X391560Y346140D01*
X391079Y345513D01*
X390777Y344783D01*
X390674Y344000D01*
X390777Y343217D01*
X391079Y342487D01*
X391560Y341860D01*
X392187Y341379D01*
X392917Y341077D01*
X393700Y340974D01*
X395064D01*
X395216Y340474D01*
X394802Y340198D01*
X394404Y339602D01*
X394265Y338900D01*
X394404Y338198D01*
X394802Y337602D01*
X395398Y337204D01*
X396100Y337065D01*
X396802Y337204D01*
X397398Y337602D01*
X397796Y338198D01*
X397935Y338900D01*
X397796Y339602D01*
X397398Y340198D01*
X396984Y340474D01*
X397136Y340974D01*
X401565D01*
X401882Y340588D01*
X401865Y340500D01*
X402004Y339798D01*
X402402Y339202D01*
X402998Y338804D01*
X403700Y338665D01*
X404402Y338804D01*
X404998Y339202D01*
X405284Y339630D01*
X405859Y339761D01*
X407128Y338492D01*
X407279Y338128D01*
X407471Y337878D01*
X407498Y337813D01*
X407939Y337239D01*
X408513Y336798D01*
X409182Y336521D01*
X409900Y336426D01*
X410618Y336521D01*
X411287Y336798D01*
X411861Y337239D01*
X412302Y337813D01*
X412329Y337878D01*
X412521Y338128D01*
X412670Y338488D01*
X414358Y340176D01*
X426401D01*
X426439Y340139D01*
X427013Y339698D01*
X427682Y339421D01*
X428400Y339326D01*
X457757D01*
X457948Y338864D01*
X455642Y336558D01*
X455133Y335797D01*
X454955Y334900D01*
X455133Y334003D01*
X455642Y333242D01*
X456403Y332733D01*
X457300Y332555D01*
X458197Y332733D01*
X458958Y333242D01*
X464971Y339255D01*
X498531D01*
X498848Y338868D01*
X498755Y338400D01*
X498933Y337503D01*
X499442Y336742D01*
X499688Y336577D01*
X499802Y335900D01*
X499533Y335497D01*
X499355Y334600D01*
X499533Y333703D01*
X499611Y333586D01*
X499376Y333145D01*
X463600D01*
X462703Y332967D01*
X461942Y332458D01*
X457529Y328045D01*
X437071D01*
X430958Y334158D01*
X430197Y334667D01*
X429300Y334845D01*
X428403Y334667D01*
X427642Y334158D01*
X427133Y333397D01*
X426955Y332500D01*
X427133Y331603D01*
X427642Y330842D01*
X433977Y324507D01*
X433785Y324045D01*
X414271D01*
X414258Y324058D01*
X413497Y324567D01*
X412600Y324745D01*
X411703Y324567D01*
X410942Y324058D01*
X410433Y323297D01*
X410255Y322400D01*
X410433Y321503D01*
X410942Y320742D01*
X411642Y320042D01*
X412403Y319533D01*
X413300Y319355D01*
X478200D01*
X479097Y319533D01*
X479858Y320042D01*
X480367Y320803D01*
X480545Y321700D01*
X480367Y322597D01*
X479858Y323358D01*
X479097Y323867D01*
X478200Y324045D01*
X460815D01*
X460623Y324507D01*
X464571Y328455D01*
X501691D01*
X502008Y328068D01*
X501955Y327800D01*
X502133Y326903D01*
X502642Y326142D01*
X503403Y325633D01*
X504300Y325455D01*
X504335D01*
X504487Y324955D01*
X504342Y324858D01*
X503833Y324097D01*
X503655Y323200D01*
X503833Y322303D01*
X504342Y321542D01*
X505103Y321033D01*
X505553Y320944D01*
X505955Y320400D01*
X506133Y319503D01*
X506642Y318742D01*
X507403Y318233D01*
X508300Y318055D01*
X529873D01*
X529972Y317555D01*
X529645Y317419D01*
X529379Y317367D01*
X528618Y316858D01*
X528405Y316645D01*
X527168D01*
X526955Y316858D01*
X526194Y317367D01*
X525297Y317545D01*
X498896D01*
X497998Y317367D01*
X497238Y316858D01*
X497024Y316645D01*
X486600D01*
X485703Y316467D01*
X484942Y315958D01*
X484433Y315197D01*
X484255Y314300D01*
X484433Y313403D01*
X484942Y312642D01*
X485703Y312133D01*
X486600Y311955D01*
X486702D01*
X486793Y311493D01*
X486785Y311455D01*
X486042Y310958D01*
X485533Y310197D01*
X485355Y309300D01*
X485533Y308403D01*
X486042Y307642D01*
X486142Y307542D01*
X486903Y307033D01*
X486909Y307032D01*
X486976Y306956D01*
X487123Y306480D01*
X486733Y305897D01*
X486555Y305000D01*
X486733Y304103D01*
X487242Y303342D01*
X488003Y302833D01*
X488900Y302655D01*
X489403Y302755D01*
X500583D01*
X500633Y302503D01*
X500845Y302186D01*
X500609Y301745D01*
X491100D01*
X490203Y301567D01*
X489442Y301058D01*
X488933Y300297D01*
X488755Y299400D01*
X488710Y299345D01*
X485258D01*
X485022Y299786D01*
X485167Y300003D01*
X485345Y300900D01*
X485167Y301797D01*
X484658Y302558D01*
X483897Y303067D01*
X483455Y303155D01*
X483367Y303597D01*
X482858Y304358D01*
X482097Y304867D01*
X481685Y304948D01*
X481292Y305534D01*
X481345Y305800D01*
X481167Y306697D01*
X480658Y307458D01*
X479897Y307967D01*
X479101Y308125D01*
X478841Y308325D01*
X478672Y308532D01*
X478745Y308900D01*
X478567Y309797D01*
X478058Y310558D01*
X477358Y311258D01*
X476597Y311767D01*
X476388Y311808D01*
X476545Y312600D01*
X476367Y313497D01*
X475858Y314258D01*
X475097Y314767D01*
X474200Y314945D01*
X409713D01*
X409576Y315237D01*
X409526Y315445D01*
X409896Y315998D01*
X410035Y316700D01*
X409896Y317402D01*
X409498Y317998D01*
X408902Y318396D01*
X408200Y318535D01*
X407498Y318396D01*
X406902Y317998D01*
X406504Y317402D01*
X406365Y316700D01*
X406504Y315998D01*
X406874Y315445D01*
X406824Y315237D01*
X406687Y314945D01*
X392180D01*
X392135Y315000D01*
X391996Y315702D01*
X391598Y316298D01*
X391002Y316696D01*
X390300Y316835D01*
X389598Y316696D01*
X389002Y316298D01*
X388604Y315702D01*
X388465Y315000D01*
X388555Y314546D01*
X388123Y314258D01*
X388123Y314258D01*
X377410Y303545D01*
X368800D01*
X368800Y303545D01*
X367903Y303367D01*
X367142Y302858D01*
X367142Y302858D01*
X365617Y301334D01*
X361717D01*
X361667Y301586D01*
X361158Y302347D01*
X361047Y302458D01*
X360286Y302967D01*
X360043Y303015D01*
X359967Y303397D01*
X359458Y304158D01*
X358697Y304667D01*
X358447Y304716D01*
X358410Y304786D01*
X358530Y305700D01*
Y349393D01*
X359030Y349768D01*
X359600Y349655D01*
X359600Y349655D01*
X367520D01*
X367565Y349600D01*
X367661Y349113D01*
X367318Y348701D01*
X367277Y348680D01*
X367000Y348735D01*
X366298Y348596D01*
X365702Y348198D01*
X365304Y347602D01*
X365165Y346900D01*
X365222Y346610D01*
X365198Y346096D01*
X364602Y345698D01*
X364204Y345102D01*
X364065Y344400D01*
X364204Y343698D01*
X364602Y343102D01*
X365198Y342704D01*
X365900Y342565D01*
X366602Y342704D01*
X367198Y343102D01*
X367596Y343698D01*
X367735Y344400D01*
X367678Y344690D01*
X367702Y345204D01*
X368298Y345602D01*
X368696Y346198D01*
X368835Y346900D01*
X368739Y347387D01*
X369082Y347799D01*
X369123Y347820D01*
X369400Y347765D01*
X370102Y347904D01*
X370698Y348302D01*
X371096Y348898D01*
X371235Y349600D01*
X371193Y349813D01*
X371297Y349833D01*
X372058Y350342D01*
X372567Y351103D01*
X372745Y352000D01*
X372567Y352897D01*
X372281Y353326D01*
X372396Y353498D01*
X372535Y354200D01*
X372396Y354902D01*
X371998Y355498D01*
X371402Y355896D01*
X370700Y356035D01*
X369998Y355896D01*
X369402Y355498D01*
X369004Y354902D01*
X368894Y354345D01*
X361445D01*
Y355600D01*
X361267Y356497D01*
X360758Y357258D01*
X359997Y357767D01*
X359100Y357945D01*
X358917Y357909D01*
X358530Y358226D01*
Y416655D01*
X368200D01*
X368788Y416772D01*
X369321Y416447D01*
X369342Y416411D01*
X369404Y416098D01*
X369802Y415502D01*
X370398Y415104D01*
X371100Y414965D01*
X371802Y415104D01*
X372398Y415502D01*
X372796Y416098D01*
X372935Y416800D01*
X372796Y417502D01*
X372398Y418098D01*
X371802Y418496D01*
X371389Y418578D01*
X371021Y419058D01*
X371009Y419124D01*
X371020Y419169D01*
X371021Y419169D01*
X371702Y419304D01*
X372298Y419702D01*
X372696Y420298D01*
X372835Y421000D01*
X372696Y421702D01*
X372298Y422298D01*
X371702Y422696D01*
X371000Y422835D01*
X370298Y422696D01*
X369702Y422298D01*
X369304Y421702D01*
X369284Y421598D01*
X368704Y421245D01*
X368200Y421345D01*
X358530D01*
Y463000D01*
X590500D01*
X592386Y461868D01*
D02*
G37*
G36*
X351470Y389362D02*
X350970Y388952D01*
X350500Y389045D01*
X330461D01*
X330135Y389470D01*
X329352Y390071D01*
X328440Y390449D01*
X327461Y390578D01*
X326482Y390449D01*
X325570Y390071D01*
X324786Y389470D01*
X324185Y388686D01*
X323807Y387774D01*
X323678Y386795D01*
X323807Y385816D01*
X324185Y384904D01*
X324786Y384121D01*
X325406Y383645D01*
X325236Y383145D01*
X319685D01*
X319515Y383645D01*
X320135Y384121D01*
X320736Y384904D01*
X321114Y385816D01*
X321243Y386795D01*
X321114Y387774D01*
X320736Y388686D01*
X320135Y389470D01*
X319352Y390071D01*
X318440Y390449D01*
X317666Y390551D01*
X315758Y392458D01*
X314997Y392967D01*
X314100Y393145D01*
X285287D01*
X284998Y393645D01*
X285179Y394082D01*
X285274Y394800D01*
X285179Y395518D01*
X284902Y396187D01*
X284461Y396761D01*
X283887Y397202D01*
X283218Y397479D01*
X282500Y397574D01*
X281782Y397479D01*
X281527Y397374D01*
X244900D01*
X244182Y397279D01*
X243513Y397002D01*
X242939Y396561D01*
X242498Y395987D01*
X242221Y395318D01*
X242126Y394600D01*
X242221Y393882D01*
X242498Y393213D01*
X242939Y392639D01*
X243513Y392198D01*
X244182Y391921D01*
X244900Y391826D01*
X277429D01*
X277840Y391326D01*
X277755Y390900D01*
X277933Y390003D01*
X278442Y389242D01*
X278542Y389142D01*
X279303Y388633D01*
X280200Y388455D01*
X313129D01*
X313808Y387776D01*
X313807Y387774D01*
X313678Y386795D01*
X313807Y385816D01*
X314185Y384904D01*
X314786Y384121D01*
X315406Y383645D01*
X315236Y383145D01*
X292671D01*
X292158Y383658D01*
X291397Y384167D01*
X290500Y384345D01*
X230030D01*
X229997Y384367D01*
X229100Y384545D01*
X228203Y384367D01*
X227442Y383858D01*
X226933Y383097D01*
X226755Y382200D01*
X226933Y381303D01*
X227442Y380542D01*
X227642Y380342D01*
X228403Y379833D01*
X229300Y379655D01*
X289529D01*
X290042Y379142D01*
X290803Y378633D01*
X291700Y378455D01*
X291700Y378455D01*
X313639D01*
X313917Y378039D01*
X313807Y377774D01*
X313678Y376795D01*
X313807Y375816D01*
X314185Y374904D01*
X314786Y374121D01*
X315569Y373520D01*
X316482Y373142D01*
X317461Y373013D01*
X318440Y373142D01*
X319352Y373520D01*
X320135Y374121D01*
X320736Y374904D01*
X321114Y375816D01*
X321243Y376795D01*
X321114Y377774D01*
X321019Y378003D01*
X321471Y378455D01*
X323639D01*
X323917Y378039D01*
X323807Y377774D01*
X323678Y376795D01*
X323807Y375816D01*
X324185Y374904D01*
X324786Y374121D01*
X325570Y373520D01*
X326482Y373142D01*
X327461Y373013D01*
X328440Y373142D01*
X329352Y373520D01*
X330135Y374121D01*
X330736Y374904D01*
X331114Y375816D01*
X331243Y376795D01*
X331114Y377774D01*
X331004Y378039D01*
X331282Y378455D01*
X343400D01*
X344297Y378633D01*
X345058Y379142D01*
X345567Y379903D01*
X345745Y380800D01*
X345567Y381697D01*
X345058Y382458D01*
X344297Y382967D01*
X343400Y383145D01*
X329685D01*
X329515Y383645D01*
X330135Y384121D01*
X330315Y384355D01*
X350500D01*
X350970Y384448D01*
X351470Y384038D01*
Y353089D01*
X350970Y352688D01*
X350455Y352790D01*
X328898D01*
X328798Y353290D01*
X329352Y353520D01*
X330135Y354121D01*
X330468Y354555D01*
X333300D01*
X334197Y354733D01*
X334958Y355242D01*
X335467Y356003D01*
X335645Y356900D01*
X335475Y357755D01*
X335490Y357878D01*
X335691Y358255D01*
X345400D01*
X346297Y358433D01*
X347058Y358942D01*
X347567Y359703D01*
X347745Y360600D01*
X347567Y361497D01*
X347058Y362258D01*
X346297Y362767D01*
X345400Y362945D01*
X329271D01*
X329172Y363445D01*
X329352Y363520D01*
X330135Y364121D01*
X330315Y364355D01*
X338400D01*
X339297Y364533D01*
X340058Y365042D01*
X340567Y365803D01*
X340745Y366700D01*
X340567Y367597D01*
X340058Y368358D01*
X339297Y368867D01*
X338400Y369045D01*
X330461D01*
X330135Y369470D01*
X329352Y370071D01*
X328440Y370449D01*
X327461Y370578D01*
X326482Y370449D01*
X325570Y370071D01*
X324786Y369470D01*
X324185Y368687D01*
X323842Y367859D01*
X321577Y365593D01*
X321149Y365802D01*
X321117Y365841D01*
X321243Y366795D01*
X321114Y367774D01*
X320736Y368687D01*
X320135Y369470D01*
X319352Y370071D01*
X318440Y370449D01*
X317461Y370578D01*
X316482Y370449D01*
X315569Y370071D01*
X314786Y369470D01*
X314185Y368687D01*
X313961Y368145D01*
X253991D01*
X253755Y368586D01*
X253967Y368903D01*
X254116Y369655D01*
X256900D01*
X257797Y369833D01*
X258558Y370342D01*
X258658Y370442D01*
X259167Y371203D01*
X259345Y372100D01*
X259167Y372997D01*
X258658Y373758D01*
X257897Y374267D01*
X257000Y374445D01*
X256497Y374345D01*
X205327D01*
X205296Y374502D01*
X204898Y375098D01*
X204302Y375496D01*
X203600Y375635D01*
X202898Y375496D01*
X202302Y375098D01*
X201904Y374502D01*
X201873Y374345D01*
X162200D01*
X161303Y374167D01*
X160542Y373658D01*
X160033Y372897D01*
X159855Y372000D01*
X160033Y371103D01*
X160542Y370342D01*
X161303Y369833D01*
X162200Y369655D01*
X203383D01*
X203765Y369155D01*
X203655Y368600D01*
X203833Y367703D01*
X204342Y366942D01*
X205103Y366433D01*
X206000Y366255D01*
X206897Y366433D01*
X207098Y366567D01*
X207548Y366267D01*
X207455Y365800D01*
X207633Y364903D01*
X208142Y364142D01*
X208903Y363633D01*
X209800Y363455D01*
X219335D01*
X219745Y362955D01*
X219655Y362500D01*
X219833Y361603D01*
X220342Y360842D01*
X221103Y360333D01*
X222000Y360155D01*
X222897Y360333D01*
X222930Y360355D01*
X315118D01*
X315288Y359855D01*
X314786Y359470D01*
X314533Y359140D01*
X243227D01*
X242700Y359245D01*
X241803Y359067D01*
X241042Y358558D01*
X240533Y357797D01*
X240355Y356900D01*
X240533Y356003D01*
X241042Y355242D01*
X241146Y355137D01*
X241907Y354629D01*
X242805Y354450D01*
X242805Y354450D01*
X269317D01*
X269431Y354074D01*
X269434Y353950D01*
X269342Y353858D01*
X268833Y353097D01*
X268772Y352790D01*
X266745D01*
X265848Y352612D01*
X265087Y352103D01*
X265087Y352103D01*
X259911Y346927D01*
X259103Y346767D01*
X258342Y346258D01*
X257833Y345497D01*
X257704Y344845D01*
X220728D01*
X220097Y345267D01*
X219200Y345445D01*
X218303Y345267D01*
X217542Y344758D01*
X217033Y343997D01*
X216855Y343100D01*
X216646Y342845D01*
X206400D01*
X205503Y342667D01*
X204742Y342158D01*
X204233Y341397D01*
X204055Y340500D01*
X204233Y339603D01*
X204742Y338842D01*
X205503Y338333D01*
X206400Y338155D01*
X235801D01*
X236118Y337768D01*
X236065Y337500D01*
X236118Y337232D01*
X235801Y336845D01*
X233000D01*
X232103Y336667D01*
X231342Y336158D01*
X230833Y335397D01*
X230655Y334500D01*
X230829Y333624D01*
X230837Y333535D01*
X230576Y333124D01*
X211498D01*
X211435Y333200D01*
X211296Y333902D01*
X210898Y334498D01*
X210302Y334896D01*
X209600Y335035D01*
X208898Y334896D01*
X208302Y334498D01*
X207804Y334594D01*
X207502Y334796D01*
X206800Y334935D01*
X206098Y334796D01*
X205502Y334398D01*
X205104Y333802D01*
X204970Y333124D01*
X183750D01*
X183032Y333029D01*
X182363Y332752D01*
X181789Y332311D01*
X179739Y330261D01*
X179298Y329687D01*
X179021Y329018D01*
X178926Y328300D01*
X179021Y327582D01*
X179298Y326913D01*
X179739Y326339D01*
X180313Y325898D01*
X180982Y325621D01*
X181700Y325526D01*
X182418Y325621D01*
X183087Y325898D01*
X183661Y326339D01*
X184899Y327576D01*
X204317D01*
X204469Y327076D01*
X204442Y327058D01*
X203933Y326297D01*
X203755Y325400D01*
X203933Y324503D01*
X204373Y323845D01*
X204204Y323345D01*
X167400D01*
X166503Y323167D01*
X165742Y322658D01*
X165233Y321897D01*
X165055Y321000D01*
X165233Y320103D01*
X165742Y319342D01*
X166503Y318833D01*
X167400Y318655D01*
X206231D01*
X206359Y318492D01*
X206473Y318155D01*
X206033Y317497D01*
X205855Y316600D01*
X206033Y315703D01*
X206542Y314942D01*
X207303Y314433D01*
X208200Y314255D01*
X209097Y314433D01*
X209279Y314555D01*
X215146D01*
X215355Y314300D01*
X215533Y313403D01*
X216042Y312642D01*
X217542Y311142D01*
X218303Y310633D01*
X219200Y310455D01*
X223900D01*
X224797Y310633D01*
X225558Y311142D01*
X226371Y311955D01*
X251094D01*
X251204Y311398D01*
X251602Y310802D01*
X252198Y310404D01*
X252900Y310265D01*
X253602Y310404D01*
X254198Y310802D01*
X254596Y311398D01*
X254706Y311955D01*
X275493D01*
X275504Y311898D01*
X275902Y311302D01*
X276498Y310904D01*
X277200Y310765D01*
X277902Y310904D01*
X278498Y311302D01*
X278896Y311898D01*
X278907Y311955D01*
X279429D01*
X279896Y311487D01*
X280657Y310979D01*
X281555Y310800D01*
X290575D01*
X290733Y310003D01*
X291242Y309242D01*
X292003Y308733D01*
X292900Y308555D01*
X299404D01*
X299573Y308055D01*
X299133Y307397D01*
X298955Y306500D01*
X299133Y305603D01*
X299642Y304842D01*
X300403Y304333D01*
X301300Y304155D01*
X302035D01*
X302186Y303655D01*
X302042Y303558D01*
X301533Y302797D01*
X301355Y301900D01*
X301533Y301003D01*
X302042Y300242D01*
X302296Y299987D01*
X302958Y299545D01*
X302870Y299045D01*
X299200D01*
X298303Y298867D01*
X297542Y298358D01*
X297033Y297597D01*
X296855Y296700D01*
X297033Y295803D01*
X297542Y295042D01*
X297768Y294890D01*
X297698Y294367D01*
X296938Y293858D01*
X294825Y291745D01*
X293015D01*
X292823Y292207D01*
X294958Y294342D01*
X295467Y295103D01*
X295645Y296000D01*
X295467Y296897D01*
X294958Y297658D01*
X294197Y298167D01*
X293300Y298345D01*
X292403Y298167D01*
X291642Y297658D01*
X288929Y294945D01*
X272226D01*
X272096Y295602D01*
X271698Y296198D01*
X271102Y296596D01*
X270400Y296735D01*
X269698Y296596D01*
X269106Y296200D01*
X269070Y296208D01*
X268605Y296353D01*
X268496Y296902D01*
X268098Y297498D01*
X267502Y297896D01*
X266800Y298035D01*
X266098Y297896D01*
X265502Y297498D01*
X265104Y296902D01*
X264965Y296200D01*
X265104Y295498D01*
X265179Y295386D01*
X264943Y294945D01*
X262172D01*
X261771Y295445D01*
X261835Y295766D01*
X261696Y296468D01*
X261298Y297064D01*
X260702Y297462D01*
X260000Y297601D01*
X259298Y297462D01*
X259026Y297280D01*
X258297Y297767D01*
X257400Y297945D01*
X256503Y297767D01*
X255742Y297258D01*
X255233Y296497D01*
X255055Y295600D01*
X255233Y294703D01*
X255352Y294525D01*
X255054Y294072D01*
X254455Y293953D01*
X253859Y293555D01*
X253462Y292959D01*
X253322Y292257D01*
X253462Y291555D01*
X253859Y290959D01*
X254455Y290562D01*
X255157Y290422D01*
X255859Y290562D01*
X256455Y290959D01*
X256853Y291555D01*
X256947Y292029D01*
X257473Y292211D01*
X258742Y290942D01*
X258757Y290932D01*
X258333Y290297D01*
X258155Y289400D01*
X258169Y289332D01*
X257851Y288945D01*
X250671D01*
X245958Y293658D01*
X245197Y294167D01*
X244300Y294345D01*
X242027D01*
X241760Y294845D01*
X241996Y295198D01*
X242135Y295900D01*
X241996Y296602D01*
X241598Y297198D01*
X241002Y297596D01*
X240300Y297735D01*
X239598Y297596D01*
X239002Y297198D01*
X238604Y296602D01*
X238465Y295900D01*
X238604Y295198D01*
X238840Y294845D01*
X238573Y294345D01*
X220947D01*
X220896Y294602D01*
X220498Y295198D01*
X219902Y295596D01*
X219200Y295735D01*
X218498Y295596D01*
X217902Y295198D01*
X217504Y294602D01*
X217453Y294345D01*
X214300D01*
X213403Y294167D01*
X212642Y293658D01*
X211242Y292258D01*
X210733Y291497D01*
X210555Y290600D01*
X210733Y289703D01*
X211242Y288942D01*
X212003Y288433D01*
X212900Y288255D01*
X213797Y288433D01*
X214558Y288942D01*
X215271Y289655D01*
X215894D01*
X216004Y289098D01*
X216402Y288502D01*
X216998Y288104D01*
X217700Y287965D01*
X218402Y288104D01*
X218998Y288502D01*
X219233Y288854D01*
X219798Y288902D01*
X219815Y288894D01*
X220398Y288504D01*
X221100Y288365D01*
X221691Y288482D01*
X221959Y288199D01*
X222021Y288077D01*
X221904Y287902D01*
X221765Y287200D01*
X221904Y286498D01*
X222302Y285902D01*
X222898Y285504D01*
X223600Y285365D01*
X224302Y285504D01*
X224898Y285902D01*
X225296Y286498D01*
X225435Y287200D01*
X225296Y287902D01*
X224898Y288498D01*
X224302Y288896D01*
X223600Y289035D01*
X223156Y288947D01*
X223048Y289035D01*
X222828Y289352D01*
X223002Y289655D01*
X243329D01*
X248042Y284942D01*
X248085Y284723D01*
X248004Y284602D01*
X247865Y283900D01*
X248004Y283198D01*
X248402Y282602D01*
X248998Y282204D01*
X249700Y282065D01*
X250402Y282204D01*
X250998Y282602D01*
X251396Y283198D01*
X251535Y283900D01*
X251827Y284255D01*
X266094D01*
X266301Y283755D01*
X265977Y283431D01*
X265469Y282671D01*
X265290Y281773D01*
X265469Y280876D01*
X265977Y280115D01*
X266738Y279607D01*
X267635Y279428D01*
X268533Y279607D01*
X269182Y280041D01*
X269743D01*
X270838Y278945D01*
X270631Y278445D01*
X264000D01*
X263103Y278267D01*
X262342Y277758D01*
X261833Y276997D01*
X261655Y276100D01*
X261833Y275203D01*
X262342Y274442D01*
X263103Y273933D01*
X264000Y273755D01*
X289600D01*
X290497Y273933D01*
X291128Y274355D01*
X296600D01*
X297079Y274450D01*
X314533D01*
X314786Y274121D01*
X315569Y273520D01*
X316482Y273142D01*
X317461Y273013D01*
X318440Y273142D01*
X319352Y273520D01*
X320135Y274121D01*
X320736Y274904D01*
X321114Y275816D01*
X321243Y276795D01*
X321137Y277600D01*
X321459Y278100D01*
X323462D01*
X323784Y277600D01*
X323678Y276795D01*
X323807Y275816D01*
X324185Y274904D01*
X324786Y274121D01*
X325570Y273520D01*
X326482Y273142D01*
X327461Y273013D01*
X328440Y273142D01*
X329352Y273520D01*
X330135Y274121D01*
X330736Y274904D01*
X331114Y275816D01*
X331238Y276755D01*
X346039D01*
X346373Y276354D01*
X346351Y276231D01*
X346187Y275923D01*
X345403Y275767D01*
X344714Y275307D01*
X344625Y275263D01*
X344089Y275412D01*
X343898Y275698D01*
X343302Y276096D01*
X342600Y276235D01*
X341898Y276096D01*
X341302Y275698D01*
X340904Y275102D01*
X340765Y274400D01*
X340556Y274145D01*
X338000D01*
X337103Y273967D01*
X336342Y273458D01*
X335833Y272697D01*
X335655Y271800D01*
X335833Y270903D01*
X336342Y270142D01*
X337103Y269633D01*
X338000Y269455D01*
X344500D01*
X345397Y269633D01*
X346158Y270142D01*
X347271Y271255D01*
X351034D01*
X351170Y271100D01*
Y268945D01*
X330538D01*
X330135Y269470D01*
X329352Y270071D01*
X328440Y270449D01*
X327461Y270578D01*
X326482Y270449D01*
X325570Y270071D01*
X324786Y269470D01*
X324185Y268687D01*
X323807Y267774D01*
X323678Y266795D01*
X323807Y265816D01*
X323809Y265812D01*
X323462Y265345D01*
X321369D01*
X321124Y265712D01*
X321118Y265845D01*
X321243Y266795D01*
X321114Y267774D01*
X320736Y268687D01*
X320135Y269470D01*
X319352Y270071D01*
X318440Y270449D01*
X317461Y270578D01*
X316482Y270449D01*
X315569Y270071D01*
X314915Y269569D01*
X262995D01*
X262277Y269475D01*
X261608Y269197D01*
X261034Y268757D01*
X248034Y255756D01*
X243014D01*
X242736Y256172D01*
X242861Y256473D01*
X243007Y257583D01*
X242861Y258692D01*
X242433Y259726D01*
X241752Y260614D01*
X240864Y261295D01*
X239830Y261723D01*
X238720Y261869D01*
X237611Y261723D01*
X236577Y261295D01*
X235689Y260614D01*
X235008Y259726D01*
X234580Y258692D01*
X234434Y257583D01*
X234580Y256473D01*
X234705Y256172D01*
X234427Y255756D01*
X207366D01*
X207361Y255761D01*
X206787Y256202D01*
X206118Y256479D01*
X205400Y256574D01*
X204682Y256479D01*
X204013Y256202D01*
X203439Y255761D01*
X202998Y255187D01*
X202721Y254518D01*
X202626Y253800D01*
X202721Y253082D01*
X202998Y252413D01*
X203439Y251839D01*
X204256Y251021D01*
X204831Y250581D01*
X205499Y250304D01*
X206097Y250225D01*
X206210Y250120D01*
X206295Y249988D01*
X206393Y249709D01*
X206037Y248850D01*
X205890Y247740D01*
X206037Y246631D01*
X206199Y246239D01*
X205921Y245824D01*
X182950D01*
X182232Y245729D01*
X181563Y245452D01*
X180989Y245011D01*
X180739Y244761D01*
X180298Y244187D01*
X180021Y243518D01*
X179972Y243145D01*
X147300D01*
X146403Y242967D01*
X145642Y242458D01*
X139742Y236558D01*
X139233Y235797D01*
X139055Y234900D01*
X139233Y234003D01*
X139742Y233242D01*
X140503Y232733D01*
X141400Y232555D01*
X142297Y232733D01*
X143058Y233242D01*
X148271Y238455D01*
X187800D01*
X188697Y238633D01*
X189458Y239142D01*
X189601Y239355D01*
X190101D01*
X190202Y239202D01*
X190704Y238867D01*
X190790Y238551D01*
X190781Y238298D01*
X189242Y236758D01*
X188733Y235997D01*
X188555Y235100D01*
X188572Y235017D01*
X188300Y234745D01*
X187403Y234567D01*
X186642Y234058D01*
X186133Y233297D01*
X185955Y232400D01*
X186133Y231503D01*
X186642Y230742D01*
X188042Y229342D01*
X188803Y228833D01*
X189700Y228655D01*
X220800D01*
X221697Y228833D01*
X222458Y229342D01*
X223958Y230842D01*
X224467Y231603D01*
X224645Y232500D01*
X224467Y233397D01*
X224027Y234055D01*
X224196Y234555D01*
X248870D01*
X248903Y234533D01*
X249800Y234355D01*
X250697Y234533D01*
X251458Y235042D01*
X251967Y235803D01*
X252145Y236700D01*
X251967Y237597D01*
X251458Y238358D01*
X251258Y238558D01*
X250497Y239067D01*
X249600Y239245D01*
X223583D01*
X223381Y239745D01*
X223684Y240198D01*
X223699Y240276D01*
X315901D01*
X316239Y239939D01*
X316813Y239498D01*
X317482Y239221D01*
X318200Y239126D01*
X342600D01*
X343318Y239221D01*
X343987Y239498D01*
X344561Y239939D01*
X345002Y240513D01*
X345279Y241182D01*
X345374Y241900D01*
X345279Y242618D01*
X345002Y243287D01*
X344561Y243861D01*
X343987Y244302D01*
X343318Y244579D01*
X342600Y244674D01*
X342077D01*
X341841Y245115D01*
X341967Y245303D01*
X342145Y246200D01*
X341967Y247097D01*
X341458Y247858D01*
X340697Y248367D01*
X339800Y248545D01*
X330795D01*
X330736Y248687D01*
X330135Y249470D01*
X329352Y250071D01*
X328440Y250449D01*
X327461Y250578D01*
X326482Y250449D01*
X325570Y250071D01*
X324786Y249470D01*
X324185Y248687D01*
X323807Y247774D01*
X323678Y246795D01*
X323807Y245816D01*
X324073Y245174D01*
X323762Y244674D01*
X321159D01*
X320848Y245174D01*
X321114Y245816D01*
X321243Y246795D01*
X321114Y247774D01*
X320736Y248687D01*
X320135Y249470D01*
X319352Y250071D01*
X318440Y250449D01*
X317461Y250578D01*
X316482Y250449D01*
X315569Y250071D01*
X314786Y249470D01*
X314185Y248687D01*
X313807Y247774D01*
X313678Y246795D01*
X313757Y246200D01*
X313427Y245824D01*
X295598D01*
X295535Y245900D01*
X295396Y246602D01*
X294998Y247198D01*
X294402Y247596D01*
X293700Y247735D01*
X292998Y247596D01*
X292402Y247198D01*
X292390Y247179D01*
X291859Y247284D01*
X291796Y247602D01*
X291398Y248198D01*
X290802Y248596D01*
X290100Y248735D01*
X289398Y248596D01*
X288802Y248198D01*
X288404Y247602D01*
X288265Y246900D01*
X288379Y246324D01*
X288099Y245824D01*
X223035D01*
X222717Y246210D01*
X222735Y246300D01*
X222727Y246340D01*
X223044Y246726D01*
X255197D01*
X255915Y246821D01*
X256584Y247098D01*
X257158Y247539D01*
X263346Y253726D01*
X315300D01*
X315569Y253520D01*
X316482Y253142D01*
X317461Y253013D01*
X318440Y253142D01*
X319352Y253520D01*
X320135Y254121D01*
X320736Y254904D01*
X321114Y255816D01*
X321243Y256795D01*
X321114Y257774D01*
X320736Y258686D01*
X320135Y259470D01*
X319352Y260071D01*
X319149Y260155D01*
X319248Y260655D01*
X324700D01*
X325597Y260833D01*
X326358Y261342D01*
X328116Y263099D01*
X328440Y263142D01*
X329352Y263520D01*
X330135Y264121D01*
X330238Y264255D01*
X351170D01*
Y171000D01*
X280797D01*
X280738Y171500D01*
X282275Y171869D01*
X284238Y172682D01*
X286050Y173793D01*
X287666Y175173D01*
X289046Y176788D01*
X290156Y178600D01*
X290969Y180563D01*
X291466Y182630D01*
X291632Y184748D01*
X291466Y186866D01*
X290969Y188933D01*
X290156Y190896D01*
X289046Y192708D01*
X287666Y194324D01*
X286050Y195703D01*
X284824Y196455D01*
X284965Y196955D01*
X315029D01*
X317455Y194529D01*
Y193983D01*
X316981Y193619D01*
X316347Y192793D01*
X315949Y191832D01*
X315813Y190800D01*
X315949Y189768D01*
X316347Y188807D01*
X316981Y187981D01*
X317807Y187347D01*
X318768Y186949D01*
X319800Y186813D01*
X320832Y186949D01*
X321793Y187347D01*
X322619Y187981D01*
X323253Y188807D01*
X323651Y189768D01*
X323787Y190800D01*
X323651Y191832D01*
X323253Y192793D01*
X322619Y193619D01*
X322145Y193983D01*
Y195500D01*
X321967Y196397D01*
X321458Y197158D01*
X317658Y200958D01*
X316897Y201467D01*
X316000Y201645D01*
X268200D01*
X267303Y201467D01*
X266542Y200958D01*
X266033Y200197D01*
X265855Y199300D01*
X266033Y198403D01*
X266542Y197642D01*
X267303Y197133D01*
X268200Y196955D01*
X271216D01*
X271357Y196455D01*
X270131Y195703D01*
X268515Y194324D01*
X267135Y192708D01*
X266025Y190896D01*
X265212Y188933D01*
X264716Y186866D01*
X264549Y184748D01*
X264716Y182630D01*
X265212Y180563D01*
X266025Y178600D01*
X267135Y176788D01*
X268515Y175173D01*
X270131Y173793D01*
X271943Y172682D01*
X273906Y171869D01*
X275443Y171500D01*
X275384Y171000D01*
X132800D01*
Y463000D01*
X351470D01*
Y389362D01*
D02*
G37*
G36*
X265932Y340113D02*
X266033Y339603D01*
X266542Y338842D01*
X267303Y338333D01*
X267359Y338322D01*
X267255Y337800D01*
X267345Y337345D01*
X266935Y336845D01*
X239999D01*
X239682Y337232D01*
X239735Y337500D01*
X239682Y337768D01*
X239999Y338155D01*
X262296D01*
X263193Y338333D01*
X263954Y338842D01*
X265389Y340277D01*
X265932Y340113D01*
D02*
G37*
G36*
X289930Y335039D02*
X289698Y334480D01*
X289552Y333370D01*
X289698Y332261D01*
X290126Y331227D01*
X290808Y330339D01*
X291695Y329658D01*
X292209Y329445D01*
X292109Y328945D01*
X244371D01*
X243158Y330158D01*
X242397Y330667D01*
X241500Y330845D01*
X241400D01*
X240503Y330667D01*
X239742Y330158D01*
X239233Y329397D01*
X239055Y328500D01*
X239128Y328132D01*
X238811Y327745D01*
X238320D01*
X238073Y328245D01*
X238202Y328413D01*
X238479Y329082D01*
X238574Y329800D01*
X238479Y330518D01*
X238202Y331187D01*
X237843Y331655D01*
X238003Y332155D01*
X273400D01*
X274297Y332333D01*
X275058Y332842D01*
X277671Y335455D01*
X289652D01*
X289930Y335039D01*
D02*
G37*
G36*
X427777Y306793D02*
X423929Y302945D01*
X415864D01*
X415712Y303445D01*
X415798Y303502D01*
X416196Y304098D01*
X416335Y304800D01*
X416196Y305502D01*
X415798Y306098D01*
X415202Y306496D01*
X414500Y306635D01*
X413798Y306496D01*
X413202Y306098D01*
X412804Y305502D01*
X412665Y304800D01*
X412804Y304098D01*
X413202Y303502D01*
X413288Y303445D01*
X413136Y302945D01*
X411924D01*
X411727Y303313D01*
X411705Y303445D01*
X411835Y304100D01*
X411696Y304802D01*
X411298Y305398D01*
X410702Y305796D01*
X410000Y305935D01*
X409298Y305796D01*
X408702Y305398D01*
X408304Y304802D01*
X408165Y304100D01*
X408295Y303445D01*
X408273Y303313D01*
X408076Y302945D01*
X400967D01*
X400896Y303302D01*
X400606Y303736D01*
X400745Y304218D01*
X400796Y304283D01*
X400902Y304304D01*
X401498Y304702D01*
X401896Y305298D01*
X402035Y306000D01*
X401896Y306702D01*
X401821Y306814D01*
X402057Y307255D01*
X427585D01*
X427777Y306793D01*
D02*
G37*
G36*
X319950Y289479D02*
X319926Y289300D01*
Y286849D01*
X318546Y285469D01*
X310636D01*
X310600Y285474D01*
X309882Y285379D01*
X309213Y285102D01*
X308639Y284661D01*
X308198Y284087D01*
X307921Y283418D01*
X307838Y282790D01*
X304547D01*
X304144Y283290D01*
X304245Y283800D01*
X304067Y284697D01*
X303558Y285458D01*
X303158Y285858D01*
X302397Y286367D01*
X301500Y286545D01*
X298464D01*
X298313Y287045D01*
X298698Y287302D01*
X299096Y287898D01*
X299235Y288600D01*
X299096Y289302D01*
X299063Y289351D01*
X299567Y289855D01*
X303477D01*
X303673Y289487D01*
X303695Y289355D01*
X303565Y288700D01*
X303704Y287998D01*
X304102Y287402D01*
X304698Y287004D01*
X305400Y286865D01*
X306102Y287004D01*
X306698Y287402D01*
X307096Y287998D01*
X307235Y288700D01*
X307105Y289355D01*
X307127Y289487D01*
X307324Y289855D01*
X319620D01*
X319950Y289479D01*
D02*
G37*
G36*
X512442Y255342D02*
X513203Y254833D01*
X514100Y254655D01*
X514997Y254833D01*
X515741Y255330D01*
X527598D01*
X527748Y254865D01*
X527671Y254276D01*
X527744Y253721D01*
X527339Y253221D01*
X524565D01*
X524197Y253467D01*
X523300Y253645D01*
X522403Y253467D01*
X521642Y252958D01*
X521133Y252197D01*
X520955Y251300D01*
X520910Y251245D01*
X508801D01*
X508458Y251758D01*
X507697Y252267D01*
X507508Y252304D01*
X507645Y252996D01*
X507645Y252996D01*
Y253100D01*
X507467Y253997D01*
X506958Y254758D01*
X506664Y254955D01*
X506815Y255455D01*
X512366D01*
X512442Y255342D01*
D02*
G37*
%LPC*%
G36*
X520700Y456635D02*
X519998Y456496D01*
X519402Y456098D01*
X519004Y455502D01*
X518865Y454800D01*
X519004Y454098D01*
X519402Y453502D01*
X519998Y453104D01*
X520700Y452965D01*
X521402Y453104D01*
X521998Y453502D01*
X522396Y454098D01*
X522535Y454800D01*
X522396Y455502D01*
X521998Y456098D01*
X521402Y456496D01*
X520700Y456635D01*
D02*
G37*
G36*
X386800Y452235D02*
X386098Y452096D01*
X385502Y451698D01*
X385104Y451102D01*
X384965Y450400D01*
X385104Y449698D01*
X385502Y449102D01*
X386098Y448704D01*
X386800Y448565D01*
X387502Y448704D01*
X388098Y449102D01*
X388626Y448993D01*
X388704Y448598D01*
X389102Y448002D01*
X389698Y447604D01*
X390400Y447465D01*
X391102Y447604D01*
X391404Y447806D01*
X391902Y447902D01*
X392498Y447504D01*
X393200Y447365D01*
X393902Y447504D01*
X394498Y447902D01*
X394896Y448498D01*
X395035Y449200D01*
X394896Y449902D01*
X394498Y450498D01*
X393902Y450896D01*
X393200Y451035D01*
X392498Y450896D01*
X392196Y450694D01*
X391698Y450598D01*
X391102Y450996D01*
X390400Y451135D01*
X389698Y450996D01*
X389102Y450598D01*
X388574Y450707D01*
X388496Y451102D01*
X388098Y451698D01*
X387502Y452096D01*
X386800Y452235D01*
D02*
G37*
G36*
X416600Y448044D02*
X415898Y447904D01*
X415302Y447506D01*
X414904Y446911D01*
X414765Y446209D01*
X414904Y445506D01*
X415302Y444911D01*
X415898Y444513D01*
X416600Y444373D01*
X417302Y444513D01*
X417898Y444911D01*
X418296Y445506D01*
X418435Y446209D01*
X418296Y446911D01*
X417898Y447506D01*
X417302Y447904D01*
X416600Y448044D01*
D02*
G37*
G36*
X426000Y446835D02*
X425298Y446696D01*
X424702Y446298D01*
X424304Y445702D01*
X424165Y445000D01*
X424304Y444298D01*
X424702Y443702D01*
X425298Y443304D01*
X426000Y443165D01*
X426702Y443304D01*
X427298Y443702D01*
X427696Y444298D01*
X427835Y445000D01*
X427696Y445702D01*
X427298Y446298D01*
X426702Y446696D01*
X426000Y446835D01*
D02*
G37*
G36*
X400200Y440235D02*
X399498Y440096D01*
X398902Y439698D01*
X398504Y439102D01*
X398372Y438438D01*
X398253Y438371D01*
X397880Y438276D01*
X397598Y438698D01*
X397002Y439096D01*
X396300Y439235D01*
X395598Y439096D01*
X395002Y438698D01*
X394604Y438102D01*
X394595Y438053D01*
X394085D01*
X393996Y438502D01*
X393598Y439098D01*
X393002Y439496D01*
X392300Y439635D01*
X391598Y439496D01*
X391002Y439098D01*
X390604Y438502D01*
X390465Y437800D01*
X390604Y437098D01*
X391002Y436502D01*
X391598Y436104D01*
X392300Y435965D01*
X393002Y436104D01*
X393598Y436502D01*
X393996Y437098D01*
X394005Y437147D01*
X394515D01*
X394604Y436698D01*
X395002Y436102D01*
X395598Y435704D01*
X396300Y435565D01*
X397002Y435704D01*
X397598Y436102D01*
X397996Y436698D01*
X398128Y437362D01*
X398247Y437429D01*
X398620Y437524D01*
X398902Y437102D01*
X399498Y436704D01*
X400200Y436565D01*
X400902Y436704D01*
X401033Y436792D01*
X401483Y436491D01*
X401465Y436400D01*
X401604Y435698D01*
X402002Y435102D01*
X402598Y434704D01*
X403300Y434565D01*
X404002Y434704D01*
X404598Y435102D01*
X404996Y435698D01*
X405135Y436400D01*
X404996Y437102D01*
X404598Y437698D01*
X404002Y438096D01*
X403300Y438235D01*
X402598Y438096D01*
X402467Y438008D01*
X402017Y438309D01*
X402035Y438400D01*
X401896Y439102D01*
X401498Y439698D01*
X400902Y440096D01*
X400200Y440235D01*
D02*
G37*
G36*
X384500Y439535D02*
X383798Y439396D01*
X383202Y438998D01*
X382804Y438402D01*
X382665Y437700D01*
X382804Y436998D01*
X383202Y436402D01*
X383798Y436004D01*
X384500Y435865D01*
X385202Y436004D01*
X385798Y436402D01*
X386196Y436998D01*
X386335Y437700D01*
X386196Y438402D01*
X385798Y438998D01*
X385202Y439396D01*
X384500Y439535D01*
D02*
G37*
G36*
X408500Y438735D02*
X407798Y438596D01*
X407202Y438198D01*
X406804Y437602D01*
X406665Y436900D01*
X406804Y436198D01*
X407202Y435602D01*
X407798Y435204D01*
X408500Y435065D01*
X409202Y435204D01*
X409798Y435602D01*
X410196Y436198D01*
X410335Y436900D01*
X410196Y437602D01*
X409798Y438198D01*
X409202Y438596D01*
X408500Y438735D01*
D02*
G37*
G36*
X488228Y462069D02*
X486110Y461903D01*
X484044Y461407D01*
X482081Y460593D01*
X480269Y459483D01*
X478653Y458103D01*
X477273Y456487D01*
X476163Y454675D01*
X475349Y452712D01*
X474853Y450646D01*
X474687Y448528D01*
X474853Y446409D01*
X475349Y444343D01*
X476163Y442380D01*
X477273Y440568D01*
X478653Y438952D01*
X480269Y437572D01*
X482081Y436462D01*
X484044Y435649D01*
X486110Y435152D01*
X488228Y434986D01*
X490347Y435152D01*
X492413Y435649D01*
X494376Y436462D01*
X496188Y437572D01*
X497804Y438952D01*
X499184Y440568D01*
X500294Y442380D01*
X501107Y444343D01*
X501603Y446409D01*
X501770Y448528D01*
X501603Y450646D01*
X501107Y452712D01*
X500294Y454675D01*
X499184Y456487D01*
X497804Y458103D01*
X496188Y459483D01*
X494376Y460593D01*
X492413Y461407D01*
X490347Y461903D01*
X488228Y462069D01*
D02*
G37*
G36*
X370400Y436535D02*
X369698Y436396D01*
X369102Y435998D01*
X368704Y435402D01*
X368565Y434700D01*
X368704Y433998D01*
X369102Y433402D01*
X369698Y433004D01*
X370400Y432865D01*
X371102Y433004D01*
X371698Y433402D01*
X372096Y433998D01*
X372235Y434700D01*
X372096Y435402D01*
X371698Y435998D01*
X371102Y436396D01*
X370400Y436535D01*
D02*
G37*
G36*
X574900Y432735D02*
X574198Y432596D01*
X573602Y432198D01*
X573204Y431602D01*
X573065Y430900D01*
X573204Y430198D01*
X573602Y429602D01*
X574198Y429204D01*
X574900Y429065D01*
X575602Y429204D01*
X576198Y429602D01*
X576596Y430198D01*
X576735Y430900D01*
X576596Y431602D01*
X576198Y432198D01*
X575602Y432596D01*
X574900Y432735D01*
D02*
G37*
G36*
X396200Y430535D02*
X395498Y430396D01*
X394902Y429998D01*
X394504Y429402D01*
X394365Y428700D01*
X394504Y427998D01*
X394902Y427402D01*
X395498Y427004D01*
X396200Y426865D01*
X396902Y427004D01*
X397498Y427402D01*
X397896Y427998D01*
X398035Y428700D01*
X397896Y429402D01*
X397498Y429998D01*
X396902Y430396D01*
X396200Y430535D01*
D02*
G37*
G36*
X371600Y428635D02*
X370898Y428496D01*
X370302Y428098D01*
X369904Y427502D01*
X369765Y426800D01*
X369904Y426098D01*
X370302Y425502D01*
X370898Y425104D01*
X371600Y424965D01*
X372302Y425104D01*
X372898Y425502D01*
X373296Y426098D01*
X373435Y426800D01*
X373296Y427502D01*
X372898Y428098D01*
X372302Y428496D01*
X371600Y428635D01*
D02*
G37*
G36*
X542401Y444517D02*
X540282Y444351D01*
X538216Y443855D01*
X536253Y443041D01*
X534441Y441931D01*
X532825Y440551D01*
X531445Y438935D01*
X530335Y437123D01*
X529522Y435160D01*
X529026Y433094D01*
X528859Y430976D01*
X529026Y428857D01*
X529522Y426791D01*
X530335Y424828D01*
X531445Y423016D01*
X532825Y421400D01*
X534441Y420020D01*
X536253Y418910D01*
X538216Y418097D01*
X540282Y417601D01*
X542401Y417434D01*
X544519Y417601D01*
X546585Y418097D01*
X548549Y418910D01*
X550360Y420020D01*
X551976Y421400D01*
X553356Y423016D01*
X554467Y424828D01*
X555280Y426791D01*
X555776Y428857D01*
X555942Y430976D01*
X555776Y433094D01*
X555280Y435160D01*
X554467Y437123D01*
X553356Y438935D01*
X551976Y440551D01*
X550360Y441931D01*
X548549Y443041D01*
X546585Y443855D01*
X544519Y444351D01*
X542401Y444517D01*
D02*
G37*
G36*
X507900Y432245D02*
X465700D01*
X464803Y432067D01*
X464042Y431558D01*
X463942Y431458D01*
X463433Y430697D01*
X463370Y430379D01*
X462803Y430267D01*
X462042Y429758D01*
X461533Y428997D01*
X461355Y428100D01*
X461533Y427203D01*
X462042Y426442D01*
X462204Y426333D01*
Y425833D01*
X461942Y425658D01*
X461842Y425558D01*
X461333Y424797D01*
X461155Y423900D01*
X461333Y423003D01*
X461842Y422242D01*
X461979Y422150D01*
Y421650D01*
X461842Y421558D01*
X461333Y420797D01*
X461155Y419900D01*
X461333Y419003D01*
X461842Y418242D01*
X462079Y418083D01*
Y417583D01*
X462042Y417558D01*
X461533Y416797D01*
X461355Y415900D01*
X461533Y415003D01*
X462042Y414242D01*
X462803Y413733D01*
X463700Y413555D01*
X498000D01*
X498897Y413733D01*
X499658Y414242D01*
X499758Y414342D01*
X500267Y415103D01*
X500429Y415922D01*
X501058Y416342D01*
X501567Y417103D01*
X501707Y417806D01*
X502358Y418242D01*
X502458Y418342D01*
X502967Y419103D01*
X503100Y419774D01*
X503397Y419833D01*
X504158Y420342D01*
X504667Y421103D01*
X504845Y421999D01*
X505358Y422342D01*
X505867Y423103D01*
X506006Y423806D01*
X506658Y424242D01*
X507167Y425003D01*
X507304Y425695D01*
X507497Y425733D01*
X508258Y426242D01*
X508767Y427003D01*
X508929Y427822D01*
X509558Y428242D01*
X510067Y429003D01*
X510245Y429900D01*
X510067Y430797D01*
X509558Y431558D01*
X508797Y432067D01*
X507900Y432245D01*
D02*
G37*
G36*
X388400Y417135D02*
X387698Y416996D01*
X387102Y416598D01*
X386704Y416002D01*
X386565Y415300D01*
X386704Y414598D01*
X387102Y414002D01*
X387698Y413604D01*
X388400Y413465D01*
X389102Y413604D01*
X389698Y414002D01*
X390096Y414598D01*
X390235Y415300D01*
X390096Y416002D01*
X389698Y416598D01*
X389102Y416996D01*
X388400Y417135D01*
D02*
G37*
G36*
X382100Y416935D02*
X381398Y416796D01*
X380802Y416398D01*
X380404Y415802D01*
X380265Y415100D01*
X380404Y414398D01*
X380802Y413802D01*
X381398Y413404D01*
X382100Y413265D01*
X382802Y413404D01*
X383398Y413802D01*
X383796Y414398D01*
X383935Y415100D01*
X383796Y415802D01*
X383398Y416398D01*
X382802Y416796D01*
X382100Y416935D01*
D02*
G37*
G36*
X369800Y414635D02*
X369098Y414496D01*
X368502Y414098D01*
X368104Y413502D01*
X367965Y412803D01*
X367300Y412935D01*
X366598Y412796D01*
X366002Y412398D01*
X365604Y411802D01*
X365465Y411100D01*
X365604Y410398D01*
X365776Y410141D01*
X365598Y409596D01*
X365002Y409198D01*
X364604Y408602D01*
X364465Y407900D01*
X364604Y407198D01*
X365002Y406602D01*
X365598Y406204D01*
X366300Y406065D01*
X367002Y406204D01*
X367598Y406602D01*
X367996Y407198D01*
X368135Y407900D01*
X367996Y408602D01*
X367824Y408859D01*
X368002Y409404D01*
X368598Y409802D01*
X368996Y410398D01*
X369135Y411097D01*
X369800Y410965D01*
X370502Y411104D01*
X371098Y411502D01*
X371496Y412098D01*
X371635Y412800D01*
X371496Y413502D01*
X371098Y414098D01*
X370502Y414496D01*
X369800Y414635D01*
D02*
G37*
G36*
X442800Y436445D02*
X436100D01*
X435203Y436267D01*
X434442Y435758D01*
X433742Y435058D01*
X433233Y434297D01*
X433055Y433400D01*
X433233Y432503D01*
X433487Y432123D01*
X432942Y431758D01*
X432433Y430997D01*
X432255Y430100D01*
X432433Y429203D01*
X432942Y428442D01*
X433003Y428401D01*
X432533Y427697D01*
X432355Y426800D01*
X432533Y425903D01*
X432836Y425450D01*
X432533Y424997D01*
X432355Y424100D01*
X432533Y423203D01*
X433042Y422442D01*
X433503Y422134D01*
X433542Y421558D01*
X433033Y420797D01*
X432855Y419900D01*
X433033Y419003D01*
X433272Y418645D01*
X433142Y418558D01*
X432633Y417797D01*
X432455Y416900D01*
X432633Y416003D01*
X433142Y415242D01*
X433249Y415170D01*
X432933Y414697D01*
X432755Y413800D01*
X432933Y412903D01*
X433442Y412142D01*
Y411958D01*
X432933Y411197D01*
X432755Y410300D01*
X432933Y409403D01*
X433442Y408642D01*
X434203Y408133D01*
X435100Y407955D01*
X441900D01*
X442797Y408133D01*
X443558Y408642D01*
X444458Y409542D01*
X444967Y410303D01*
X445145Y411200D01*
X444967Y412097D01*
X444898Y412200D01*
X445167Y412603D01*
X445345Y413500D01*
X445167Y414397D01*
X444658Y415158D01*
X444545Y415271D01*
X444767Y415603D01*
X444945Y416500D01*
X444767Y417397D01*
X444258Y418158D01*
X444245Y418172D01*
X444667Y418803D01*
X444845Y419700D01*
X444667Y420597D01*
X444158Y421358D01*
X443989Y421527D01*
X443960Y421585D01*
X443997Y422134D01*
X444458Y422442D01*
X444967Y423203D01*
X445145Y424100D01*
X444967Y424997D01*
X444458Y425758D01*
X444360Y425824D01*
X444358Y425842D01*
X444867Y426603D01*
X445045Y427500D01*
X444867Y428397D01*
X444445Y429029D01*
X444558Y429142D01*
X445067Y429903D01*
X445245Y430800D01*
X445067Y431697D01*
X444558Y432458D01*
X444538Y432561D01*
X444967Y433203D01*
X445145Y434100D01*
X444967Y434997D01*
X444458Y435758D01*
X443697Y436267D01*
X442800Y436445D01*
D02*
G37*
G36*
X370900Y409835D02*
X370198Y409696D01*
X369602Y409298D01*
X369204Y408702D01*
X369065Y408000D01*
X369204Y407298D01*
X369602Y406702D01*
X370198Y406304D01*
X370900Y406165D01*
X371602Y406304D01*
X372198Y406702D01*
X372596Y407298D01*
X372735Y408000D01*
X372596Y408702D01*
X372198Y409298D01*
X371602Y409696D01*
X370900Y409835D01*
D02*
G37*
G36*
X388400Y407735D02*
X387698Y407596D01*
X387102Y407198D01*
X386704Y406602D01*
X386565Y405900D01*
X386704Y405198D01*
X387102Y404602D01*
X387698Y404204D01*
X388400Y404065D01*
X389102Y404204D01*
X389698Y404602D01*
X390096Y405198D01*
X390235Y405900D01*
X390096Y406602D01*
X389698Y407198D01*
X389102Y407596D01*
X388400Y407735D01*
D02*
G37*
G36*
X396200Y417235D02*
X395498Y417096D01*
X394902Y416698D01*
X394504Y416102D01*
X394365Y415400D01*
X394504Y414698D01*
X394902Y414102D01*
X395017Y414026D01*
X394865Y413526D01*
X392300D01*
X391517Y413423D01*
X390787Y413121D01*
X390160Y412640D01*
X389680Y412013D01*
X389377Y411283D01*
X389274Y410500D01*
X389377Y409717D01*
X389680Y408987D01*
X390160Y408360D01*
X390787Y407879D01*
X391517Y407577D01*
X392300Y407474D01*
X394486D01*
X394753Y406974D01*
X394504Y406602D01*
X394365Y405900D01*
X394504Y405198D01*
X394902Y404602D01*
X395498Y404204D01*
X396200Y404065D01*
X396902Y404204D01*
X397498Y404602D01*
X397896Y405198D01*
X398035Y405900D01*
X397896Y406602D01*
X397647Y406974D01*
X397914Y407474D01*
X401743D01*
X401793Y406974D01*
X401398Y406896D01*
X400802Y406498D01*
X400404Y405902D01*
X400265Y405200D01*
X400404Y404498D01*
X400802Y403902D01*
X401398Y403504D01*
X402100Y403365D01*
X402802Y403504D01*
X403398Y403902D01*
X403796Y404498D01*
X403935Y405200D01*
X403796Y405902D01*
X403398Y406498D01*
X402802Y406896D01*
X402407Y406974D01*
X402457Y407474D01*
X404047D01*
X404490Y407031D01*
X404404Y406902D01*
X404265Y406200D01*
X404404Y405498D01*
X404802Y404902D01*
X405398Y404504D01*
X406100Y404365D01*
X406802Y404504D01*
X406931Y404590D01*
X407860Y403660D01*
X408487Y403180D01*
X409217Y402877D01*
X410000Y402774D01*
X410783Y402877D01*
X411513Y403180D01*
X412140Y403660D01*
X412620Y404287D01*
X412923Y405017D01*
X413026Y405800D01*
X412923Y406583D01*
X412620Y407313D01*
X412140Y407940D01*
X407440Y412640D01*
X406813Y413121D01*
X406083Y413423D01*
X405300Y413526D01*
X397535D01*
X397383Y414026D01*
X397498Y414102D01*
X397896Y414698D01*
X398035Y415400D01*
X397896Y416102D01*
X397498Y416698D01*
X396902Y417096D01*
X396200Y417235D01*
D02*
G37*
G36*
X446000Y403135D02*
X445298Y402996D01*
X444702Y402598D01*
X444304Y402002D01*
X444165Y401300D01*
X444304Y400598D01*
X444702Y400002D01*
X445298Y399604D01*
X446000Y399465D01*
X446702Y399604D01*
X447298Y400002D01*
X447696Y400598D01*
X447835Y401300D01*
X447696Y402002D01*
X447298Y402598D01*
X446702Y402996D01*
X446000Y403135D01*
D02*
G37*
G36*
X418300Y401835D02*
X417598Y401696D01*
X417002Y401298D01*
X416604Y400702D01*
X416465Y400000D01*
X416604Y399298D01*
X417002Y398702D01*
X417598Y398304D01*
X418300Y398165D01*
X419002Y398304D01*
X419598Y398702D01*
X419996Y399298D01*
X420135Y400000D01*
X419996Y400702D01*
X419598Y401298D01*
X419002Y401696D01*
X418300Y401835D01*
D02*
G37*
G36*
X426800Y397535D02*
X426098Y397396D01*
X425502Y396998D01*
X425104Y396402D01*
X424965Y395700D01*
X425104Y394998D01*
X425502Y394402D01*
X426098Y394004D01*
X426800Y393865D01*
X427502Y394004D01*
X428098Y394402D01*
X428496Y394998D01*
X428635Y395700D01*
X428496Y396402D01*
X428098Y396998D01*
X427502Y397396D01*
X426800Y397535D01*
D02*
G37*
G36*
X414600Y395235D02*
X413898Y395096D01*
X413302Y394698D01*
X412904Y394102D01*
X412765Y393400D01*
X412904Y392698D01*
X413302Y392102D01*
X413898Y391704D01*
X414600Y391565D01*
X415302Y391704D01*
X415898Y392102D01*
X416296Y392698D01*
X416435Y393400D01*
X416296Y394102D01*
X415898Y394698D01*
X415302Y395096D01*
X414600Y395235D01*
D02*
G37*
G36*
X525900Y408345D02*
X481700D01*
X480803Y408167D01*
X480042Y407658D01*
X479942Y407558D01*
X479433Y406797D01*
X479255Y405900D01*
X479433Y405003D01*
X479942Y404242D01*
X480663Y403760D01*
X480833Y402903D01*
X481342Y402142D01*
X482103Y401633D01*
X483000Y401455D01*
X520705D01*
X526910Y395250D01*
X526858Y395173D01*
X526679Y394276D01*
X526858Y393378D01*
X527366Y392617D01*
X528110Y392121D01*
X528118Y392083D01*
X528026Y391621D01*
X525576D01*
X524678Y391442D01*
X523917Y390934D01*
X523129Y390145D01*
X521689D01*
X521520Y390645D01*
X521540Y390660D01*
X522740Y391860D01*
X523220Y392487D01*
X523523Y393217D01*
X523626Y394000D01*
X523523Y394783D01*
X523220Y395513D01*
X522740Y396140D01*
X522113Y396620D01*
X521383Y396923D01*
X520600Y397026D01*
X519817Y396923D01*
X519087Y396620D01*
X518460Y396140D01*
X518147Y395826D01*
X457253D01*
X455840Y397240D01*
X455213Y397721D01*
X454483Y398023D01*
X453700Y398126D01*
X452917Y398023D01*
X452187Y397721D01*
X451560Y397240D01*
X451080Y396613D01*
X450777Y395883D01*
X450674Y395100D01*
X450777Y394317D01*
X451080Y393587D01*
X451560Y392960D01*
X453860Y390660D01*
X454487Y390179D01*
X455217Y389877D01*
X456000Y389774D01*
X473760D01*
X473833Y389403D01*
X474342Y388642D01*
X475103Y388133D01*
X476000Y387955D01*
X476783D01*
X476833Y387703D01*
X477342Y386942D01*
X479342Y384942D01*
X480103Y384433D01*
X481000Y384255D01*
X481000Y384255D01*
X524597D01*
X525494Y384433D01*
X526255Y384942D01*
X526644Y385331D01*
X533853D01*
X536442Y382742D01*
X536552Y382668D01*
X536572Y382054D01*
X536205Y381772D01*
X535643Y381041D01*
X535291Y380189D01*
X535171Y379276D01*
X535291Y378362D01*
X535643Y377510D01*
X536205Y376779D01*
X536936Y376218D01*
X537787Y375866D01*
X538701Y375745D01*
X539614Y375866D01*
X540466Y376218D01*
X541197Y376779D01*
X541758Y377510D01*
X542111Y378362D01*
X542231Y379276D01*
X542111Y380189D01*
X541758Y381041D01*
X541269Y381678D01*
X541366Y382207D01*
X541497Y382233D01*
X542258Y382742D01*
X546447Y386930D01*
X551089D01*
X551205Y386779D01*
X551936Y386218D01*
X552787Y385866D01*
X553701Y385745D01*
X554614Y385866D01*
X555466Y386218D01*
X556197Y386779D01*
X556758Y387510D01*
X557111Y388362D01*
X557231Y389276D01*
X557111Y390189D01*
X556758Y391041D01*
X556197Y391772D01*
X555466Y392333D01*
X554614Y392686D01*
X553701Y392806D01*
X552787Y392686D01*
X551936Y392333D01*
X551205Y391772D01*
X551089Y391621D01*
X549205D01*
X548959Y392121D01*
X549258Y392511D01*
X549611Y393362D01*
X549731Y394276D01*
X549611Y395189D01*
X549258Y396041D01*
X548697Y396772D01*
X547966Y397333D01*
X547115Y397686D01*
X546201Y397806D01*
X545287Y397686D01*
X544436Y397333D01*
X543705Y396772D01*
X543589Y396621D01*
X538596D01*
X527558Y407658D01*
X526797Y408167D01*
X525900Y408345D01*
D02*
G37*
G36*
X446100Y392935D02*
X445398Y392796D01*
X444802Y392398D01*
X444404Y391802D01*
X444265Y391100D01*
X444404Y390398D01*
X444802Y389802D01*
X445398Y389404D01*
X446100Y389265D01*
X446802Y389404D01*
X447398Y389802D01*
X447796Y390398D01*
X447935Y391100D01*
X447796Y391802D01*
X447398Y392398D01*
X446802Y392796D01*
X446100Y392935D01*
D02*
G37*
G36*
X384000Y390235D02*
X383298Y390096D01*
X382702Y389698D01*
X382304Y389102D01*
X382165Y388400D01*
X382304Y387698D01*
X382702Y387102D01*
X383298Y386704D01*
X384000Y386565D01*
X384702Y386704D01*
X385298Y387102D01*
X385696Y387698D01*
X385835Y388400D01*
X385696Y389102D01*
X385298Y389698D01*
X384702Y390096D01*
X384000Y390235D01*
D02*
G37*
G36*
X403600Y390035D02*
X402898Y389896D01*
X402302Y389498D01*
X401904Y388902D01*
X401765Y388200D01*
X401773Y388160D01*
X401455Y387774D01*
X396500D01*
X395782Y387679D01*
X395113Y387402D01*
X394539Y386961D01*
X391639Y384061D01*
X391237Y383538D01*
X391002Y383696D01*
X390300Y383835D01*
X389598Y383696D01*
X389002Y383298D01*
X388604Y382702D01*
X388465Y382000D01*
X388604Y381298D01*
X389002Y380702D01*
X389598Y380304D01*
X390300Y380165D01*
X391002Y380304D01*
X391339Y380529D01*
X391639Y380139D01*
X392213Y379698D01*
X392882Y379421D01*
X393600Y379326D01*
X394318Y379421D01*
X394987Y379698D01*
X395561Y380139D01*
X397649Y382226D01*
X406179D01*
X406304Y381598D01*
X406702Y381002D01*
X407298Y380604D01*
X408000Y380465D01*
X408702Y380604D01*
X409298Y381002D01*
X409696Y381598D01*
X409821Y382226D01*
X427595D01*
X427912Y381840D01*
X427865Y381600D01*
X428004Y380898D01*
X428402Y380302D01*
X428998Y379904D01*
X429700Y379765D01*
X430402Y379904D01*
X430998Y380302D01*
X431396Y380898D01*
X431535Y381600D01*
X431488Y381840D01*
X431805Y382226D01*
X454900D01*
X455618Y382321D01*
X456287Y382598D01*
X456861Y383039D01*
X457302Y383613D01*
X457579Y384282D01*
X457674Y385000D01*
X457579Y385718D01*
X457302Y386387D01*
X456861Y386961D01*
X456287Y387402D01*
X455618Y387679D01*
X454900Y387774D01*
X405745D01*
X405427Y388160D01*
X405435Y388200D01*
X405296Y388902D01*
X404898Y389498D01*
X404302Y389896D01*
X403600Y390035D01*
D02*
G37*
G36*
X441600Y380935D02*
X440898Y380796D01*
X440302Y380398D01*
X439904Y379802D01*
X439765Y379100D01*
X439904Y378398D01*
X440302Y377802D01*
X440898Y377404D01*
X441600Y377265D01*
X442302Y377404D01*
X442898Y377802D01*
X443296Y378398D01*
X443435Y379100D01*
X443296Y379802D01*
X442898Y380398D01*
X442302Y380796D01*
X441600Y380935D01*
D02*
G37*
G36*
X553701Y382806D02*
X552787Y382685D01*
X551936Y382333D01*
X551205Y381772D01*
X550643Y381041D01*
X550291Y380189D01*
X550171Y379276D01*
X550291Y378362D01*
X550643Y377510D01*
X551205Y376779D01*
X551936Y376218D01*
X552787Y375866D01*
X553701Y375745D01*
X554614Y375866D01*
X555466Y376218D01*
X556197Y376779D01*
X556758Y377510D01*
X557111Y378362D01*
X557231Y379276D01*
X557111Y380189D01*
X556758Y381041D01*
X556197Y381772D01*
X555466Y382333D01*
X554614Y382685D01*
X553701Y382806D01*
D02*
G37*
G36*
X404900Y373135D02*
X404198Y372996D01*
X403602Y372598D01*
X403469Y372398D01*
X403098D01*
X402502Y372796D01*
X401800Y372935D01*
X401098Y372796D01*
X400502Y372398D01*
X400104Y371802D01*
X399965Y371100D01*
X400104Y370398D01*
X400502Y369802D01*
X401098Y369404D01*
X401800Y369265D01*
X402502Y369404D01*
X403098Y369802D01*
X403231Y370002D01*
X403602D01*
X404198Y369604D01*
X404900Y369465D01*
X405602Y369604D01*
X406198Y370002D01*
X406596Y370598D01*
X406735Y371300D01*
X406596Y372002D01*
X406198Y372598D01*
X405602Y372996D01*
X404900Y373135D01*
D02*
G37*
G36*
X441600Y376035D02*
X440898Y375896D01*
X440302Y375498D01*
X439904Y374902D01*
X439765Y374200D01*
X439904Y373498D01*
X440302Y372902D01*
X440898Y372504D01*
X441600Y372365D01*
X442302Y372504D01*
X442898Y372902D01*
X443296Y373498D01*
X443435Y374200D01*
X443296Y374902D01*
X442898Y375498D01*
X442302Y375896D01*
X441600Y376035D01*
D02*
G37*
G36*
X397400Y373135D02*
X396698Y372996D01*
X396102Y372598D01*
X395704Y372002D01*
X395672Y371839D01*
X395141Y371733D01*
X394898Y372098D01*
X394302Y372496D01*
X393600Y372635D01*
X392898Y372496D01*
X392325Y372113D01*
X391902Y372396D01*
X391200Y372535D01*
X390498Y372396D01*
X389902Y371998D01*
X389504Y371402D01*
X389365Y370700D01*
X389504Y369998D01*
X389902Y369402D01*
X390498Y369004D01*
X391200Y368865D01*
X391902Y369004D01*
X392475Y369387D01*
X392898Y369104D01*
X393600Y368965D01*
X394302Y369104D01*
X394898Y369502D01*
X395296Y370098D01*
X395328Y370261D01*
X395859Y370367D01*
X396102Y370002D01*
X396698Y369604D01*
X397400Y369465D01*
X398102Y369604D01*
X398698Y370002D01*
X399096Y370598D01*
X399235Y371300D01*
X399096Y372002D01*
X398698Y372598D01*
X398102Y372996D01*
X397400Y373135D01*
D02*
G37*
G36*
X416500Y375235D02*
X415798Y375096D01*
X415202Y374698D01*
X414804Y374102D01*
X414665Y373400D01*
X414804Y372698D01*
X415202Y372102D01*
X415798Y371704D01*
X416500Y371565D01*
X417202Y371704D01*
X417798Y372102D01*
X418196Y372698D01*
X418335Y373400D01*
X418196Y374102D01*
X417798Y374698D01*
X417202Y375096D01*
X416500Y375235D01*
D02*
G37*
G36*
X385400Y372435D02*
X384698Y372296D01*
X384102Y371898D01*
X383704Y371302D01*
X383565Y370600D01*
X383704Y369898D01*
X384102Y369302D01*
X384698Y368904D01*
X385400Y368765D01*
X386102Y368904D01*
X386698Y369302D01*
X387096Y369898D01*
X387235Y370600D01*
X387096Y371302D01*
X386698Y371898D01*
X386102Y372296D01*
X385400Y372435D01*
D02*
G37*
G36*
X371000Y370335D02*
X370298Y370196D01*
X369702Y369798D01*
X369304Y369202D01*
X369165Y368500D01*
X369304Y367798D01*
X369702Y367202D01*
X370298Y366804D01*
X371000Y366665D01*
X371702Y366804D01*
X372298Y367202D01*
X372696Y367798D01*
X372835Y368500D01*
X372696Y369202D01*
X372298Y369798D01*
X371702Y370196D01*
X371000Y370335D01*
D02*
G37*
G36*
X553701Y372806D02*
X552787Y372686D01*
X551936Y372333D01*
X551205Y371772D01*
X550643Y371041D01*
X550291Y370189D01*
X550171Y369276D01*
X550291Y368362D01*
X550643Y367511D01*
X551205Y366779D01*
X551936Y366218D01*
X552787Y365866D01*
X553701Y365745D01*
X554614Y365866D01*
X555466Y366218D01*
X556197Y366779D01*
X556758Y367511D01*
X557111Y368362D01*
X557231Y369276D01*
X557111Y370189D01*
X556758Y371041D01*
X556197Y371772D01*
X555466Y372333D01*
X554614Y372686D01*
X553701Y372806D01*
D02*
G37*
G36*
X538701D02*
X537787Y372686D01*
X536936Y372333D01*
X536205Y371772D01*
X536086Y371618D01*
X474997Y371545D01*
X474100Y371365D01*
X473340Y370856D01*
X472832Y370095D01*
X472655Y369197D01*
X472834Y368300D01*
X473344Y367540D01*
X473927Y367151D01*
X473984Y366945D01*
X473631Y366445D01*
X465200D01*
X464303Y366267D01*
X463542Y365758D01*
X463542Y365758D01*
X463242Y365458D01*
X462733Y364697D01*
X462609Y364070D01*
X462142Y363758D01*
X461942Y363558D01*
X461433Y362797D01*
X461255Y361900D01*
X461433Y361003D01*
X461942Y360242D01*
X462061Y360162D01*
Y359662D01*
X461980Y359608D01*
X461472Y358847D01*
X461294Y357950D01*
X461472Y357053D01*
X461875Y356449D01*
X461845Y355827D01*
X461742Y355758D01*
X461233Y354997D01*
X461055Y354100D01*
X461233Y353203D01*
X461742Y352442D01*
X461751Y352433D01*
X461687Y351789D01*
X461342Y351558D01*
X460833Y350797D01*
X460655Y349900D01*
X460833Y349003D01*
X461342Y348242D01*
X462103Y347733D01*
X463000Y347555D01*
X483529D01*
X484242Y346842D01*
X485003Y346333D01*
X485900Y346155D01*
X486797Y346333D01*
X487558Y346842D01*
X488067Y347603D01*
X488245Y348500D01*
X488130Y349080D01*
X488397Y349133D01*
X489158Y349642D01*
X489667Y350403D01*
X489845Y351300D01*
X489863Y351327D01*
X489897Y351333D01*
X490658Y351842D01*
X491167Y352603D01*
X491288Y353212D01*
X491397Y353233D01*
X492158Y353742D01*
X492667Y354503D01*
X492845Y355400D01*
X492758Y355840D01*
X493358Y356242D01*
X493867Y357003D01*
X494045Y357900D01*
X494041Y357922D01*
X494097Y357933D01*
X494858Y358442D01*
X495367Y359203D01*
X495545Y360100D01*
X495534Y360158D01*
X495958Y360442D01*
X496258Y360742D01*
X496767Y361503D01*
X496813Y361737D01*
X497297Y361833D01*
X498058Y362342D01*
X498567Y363103D01*
X498745Y364000D01*
X498672Y364368D01*
X498989Y364755D01*
X520129D01*
X522266Y362617D01*
X523027Y362109D01*
X523924Y361930D01*
X528589D01*
X528705Y361779D01*
X529436Y361218D01*
X530287Y360866D01*
X531201Y360745D01*
X532115Y360866D01*
X532966Y361218D01*
X533697Y361779D01*
X534258Y362510D01*
X534611Y363362D01*
X534731Y364276D01*
X534611Y365189D01*
X534258Y366041D01*
X533963Y366425D01*
X534210Y366925D01*
X536091Y366927D01*
X536205Y366779D01*
X536936Y366218D01*
X537787Y365866D01*
X538701Y365745D01*
X539614Y365866D01*
X540466Y366218D01*
X541197Y366779D01*
X541758Y367511D01*
X542111Y368362D01*
X542231Y369276D01*
X542111Y370189D01*
X541758Y371041D01*
X541197Y371772D01*
X540466Y372333D01*
X539614Y372686D01*
X538701Y372806D01*
D02*
G37*
G36*
X546201Y367806D02*
X545287Y367686D01*
X544436Y367333D01*
X543705Y366772D01*
X543144Y366041D01*
X542791Y365189D01*
X542671Y364276D01*
X542791Y363362D01*
X543144Y362510D01*
X543705Y361779D01*
X544436Y361218D01*
X545287Y360866D01*
X546201Y360745D01*
X547115Y360866D01*
X547966Y361218D01*
X548697Y361779D01*
X549258Y362510D01*
X549611Y363362D01*
X549731Y364276D01*
X549611Y365189D01*
X549258Y366041D01*
X548697Y366772D01*
X547966Y367333D01*
X547115Y367686D01*
X546201Y367806D01*
D02*
G37*
G36*
X397200Y363335D02*
X396498Y363196D01*
X395902Y362798D01*
X395504Y362202D01*
X395365Y361500D01*
X395504Y360798D01*
X395902Y360202D01*
X396498Y359804D01*
X397200Y359665D01*
X397902Y359804D01*
X398498Y360202D01*
X398896Y360798D01*
X399035Y361500D01*
X398896Y362202D01*
X398498Y362798D01*
X397902Y363196D01*
X397200Y363335D01*
D02*
G37*
G36*
X371200Y361835D02*
X370498Y361696D01*
X369902Y361298D01*
X369504Y360702D01*
X369365Y360000D01*
X369504Y359298D01*
X369902Y358702D01*
X370498Y358304D01*
X371200Y358165D01*
X371902Y358304D01*
X372498Y358702D01*
X372896Y359298D01*
X373035Y360000D01*
X372896Y360702D01*
X372498Y361298D01*
X371902Y361696D01*
X371200Y361835D01*
D02*
G37*
G36*
X553701Y362806D02*
X552787Y362685D01*
X551936Y362333D01*
X551205Y361772D01*
X550643Y361041D01*
X550291Y360189D01*
X550171Y359276D01*
X550291Y358362D01*
X550643Y357510D01*
X551205Y356779D01*
X551936Y356218D01*
X552787Y355866D01*
X553701Y355745D01*
X554614Y355866D01*
X555466Y356218D01*
X556197Y356779D01*
X556758Y357510D01*
X557111Y358362D01*
X557231Y359276D01*
X557111Y360189D01*
X556758Y361041D01*
X556197Y361772D01*
X555466Y362333D01*
X554614Y362685D01*
X553701Y362806D01*
D02*
G37*
G36*
X546201Y357806D02*
X545287Y357685D01*
X544436Y357333D01*
X543705Y356772D01*
X543144Y356041D01*
X542791Y355189D01*
X542671Y354276D01*
X542791Y353362D01*
X543144Y352510D01*
X543705Y351779D01*
X544436Y351218D01*
X545287Y350866D01*
X546201Y350745D01*
X547115Y350866D01*
X547966Y351218D01*
X548697Y351779D01*
X549258Y352510D01*
X549611Y353362D01*
X549731Y354276D01*
X549611Y355189D01*
X549258Y356041D01*
X548697Y356772D01*
X547966Y357333D01*
X547115Y357685D01*
X546201Y357806D01*
D02*
G37*
G36*
X388300Y350235D02*
X387598Y350096D01*
X387002Y349698D01*
X386604Y349102D01*
X386465Y348400D01*
X386604Y347698D01*
X387002Y347102D01*
X387598Y346704D01*
X388300Y346565D01*
X389002Y346704D01*
X389598Y347102D01*
X389996Y347698D01*
X390135Y348400D01*
X389996Y349102D01*
X389598Y349698D01*
X389002Y350096D01*
X388300Y350235D01*
D02*
G37*
G36*
X382100D02*
X381398Y350096D01*
X380802Y349698D01*
X380404Y349102D01*
X380265Y348400D01*
X380404Y347698D01*
X380802Y347102D01*
X381398Y346704D01*
X382100Y346565D01*
X382802Y346704D01*
X383398Y347102D01*
X383796Y347698D01*
X383935Y348400D01*
X383796Y349102D01*
X383398Y349698D01*
X382802Y350096D01*
X382100Y350235D01*
D02*
G37*
G36*
X370300Y344735D02*
X369598Y344596D01*
X369002Y344198D01*
X368604Y343602D01*
X368465Y342900D01*
X368604Y342198D01*
X369002Y341602D01*
X369598Y341204D01*
X370300Y341065D01*
X371002Y341204D01*
X371598Y341602D01*
X371996Y342198D01*
X372135Y342900D01*
X371996Y343602D01*
X371598Y344198D01*
X371002Y344596D01*
X370300Y344735D01*
D02*
G37*
G36*
X388400Y341435D02*
X387698Y341296D01*
X387102Y340898D01*
X386704Y340302D01*
X386565Y339600D01*
X386704Y338898D01*
X387102Y338302D01*
X387698Y337904D01*
X388400Y337765D01*
X389102Y337904D01*
X389698Y338302D01*
X390096Y338898D01*
X390235Y339600D01*
X390096Y340302D01*
X389698Y340898D01*
X389102Y341296D01*
X388400Y341435D01*
D02*
G37*
G36*
X366100Y339535D02*
X365398Y339396D01*
X364802Y338998D01*
X364404Y338402D01*
X364265Y337700D01*
X364404Y336998D01*
X364802Y336402D01*
X365398Y336004D01*
X366100Y335865D01*
X366802Y336004D01*
X367398Y336402D01*
X367796Y336998D01*
X367935Y337700D01*
X367796Y338402D01*
X367398Y338998D01*
X366802Y339396D01*
X366100Y339535D01*
D02*
G37*
G36*
X418400Y335135D02*
X417698Y334996D01*
X417102Y334598D01*
X416704Y334002D01*
X416565Y333300D01*
X416704Y332598D01*
X417102Y332002D01*
X417698Y331604D01*
X418400Y331465D01*
X419102Y331604D01*
X419698Y332002D01*
X420096Y332598D01*
X420235Y333300D01*
X420096Y334002D01*
X419698Y334598D01*
X419102Y334996D01*
X418400Y335135D01*
D02*
G37*
G36*
X414500Y329635D02*
X413798Y329496D01*
X413202Y329098D01*
X412804Y328502D01*
X412665Y327800D01*
X412804Y327098D01*
X413202Y326502D01*
X413798Y326104D01*
X414500Y325965D01*
X415202Y326104D01*
X415798Y326502D01*
X416196Y327098D01*
X416335Y327800D01*
X416196Y328502D01*
X415798Y329098D01*
X415202Y329496D01*
X414500Y329635D01*
D02*
G37*
G36*
X546201Y327806D02*
X545287Y327685D01*
X544436Y327333D01*
X543705Y326772D01*
X543144Y326041D01*
X542791Y325189D01*
X542671Y324276D01*
X542791Y323362D01*
X543144Y322511D01*
X543705Y321779D01*
X544436Y321218D01*
X545287Y320866D01*
X546201Y320745D01*
X547115Y320866D01*
X547966Y321218D01*
X548697Y321779D01*
X548813Y321931D01*
X564576D01*
X565473Y322109D01*
X566234Y322617D01*
X566658Y323042D01*
X567167Y323803D01*
X567345Y324700D01*
X567167Y325597D01*
X566658Y326358D01*
X565897Y326867D01*
X565000Y327045D01*
X564103Y326867D01*
X563735Y326621D01*
X548813D01*
X548697Y326772D01*
X547966Y327333D01*
X547115Y327685D01*
X546201Y327806D01*
D02*
G37*
G36*
X383300Y323335D02*
X382598Y323196D01*
X382002Y322798D01*
X381604Y322202D01*
X381465Y321500D01*
X381604Y320798D01*
X382002Y320202D01*
X382598Y319804D01*
X383300Y319665D01*
X384002Y319804D01*
X384598Y320202D01*
X384996Y320798D01*
X385135Y321500D01*
X384996Y322202D01*
X384598Y322798D01*
X384002Y323196D01*
X383300Y323335D01*
D02*
G37*
G36*
X403500Y320540D02*
X402798Y320400D01*
X402202Y320002D01*
X401804Y319407D01*
X401665Y318705D01*
X401804Y318002D01*
X402202Y317407D01*
X402798Y317009D01*
X403500Y316869D01*
X404202Y317009D01*
X404798Y317407D01*
X405196Y318002D01*
X405335Y318705D01*
X405196Y319407D01*
X404798Y320002D01*
X404202Y320400D01*
X403500Y320540D01*
D02*
G37*
G36*
X385700Y279935D02*
X384998Y279796D01*
X384402Y279398D01*
X384004Y278802D01*
X383865Y278100D01*
X384004Y277398D01*
X384402Y276802D01*
X384998Y276404D01*
X385700Y276265D01*
X386402Y276404D01*
X386998Y276802D01*
X387396Y277398D01*
X387535Y278100D01*
X387396Y278802D01*
X386998Y279398D01*
X386402Y279796D01*
X385700Y279935D01*
D02*
G37*
G36*
X388300Y275435D02*
X387598Y275296D01*
X387002Y274898D01*
X386604Y274302D01*
X386465Y273600D01*
X386604Y272898D01*
X387002Y272302D01*
X387598Y271904D01*
X388300Y271765D01*
X389002Y271904D01*
X389598Y272302D01*
X389996Y272898D01*
X390135Y273600D01*
X389996Y274302D01*
X389598Y274898D01*
X389002Y275296D01*
X388300Y275435D01*
D02*
G37*
G36*
X401600Y274135D02*
X400898Y273996D01*
X400302Y273598D01*
X399904Y273002D01*
X399765Y272300D01*
X399904Y271598D01*
X400302Y271002D01*
X400898Y270604D01*
X401600Y270465D01*
X402302Y270604D01*
X402898Y271002D01*
X403296Y271598D01*
X403435Y272300D01*
X403296Y273002D01*
X402898Y273598D01*
X402302Y273996D01*
X401600Y274135D01*
D02*
G37*
G36*
X441700Y268945D02*
X422100D01*
X421203Y268767D01*
X420442Y268258D01*
X420290Y268107D01*
X419793Y268156D01*
X419698Y268298D01*
X419102Y268696D01*
X418400Y268835D01*
X417698Y268696D01*
X417102Y268298D01*
X416704Y267702D01*
X416565Y267000D01*
X416704Y266298D01*
X417102Y265702D01*
X417698Y265304D01*
X418400Y265165D01*
X419102Y265304D01*
X419447Y264933D01*
X419842Y264342D01*
X420603Y263833D01*
X421500Y263655D01*
X422397Y263833D01*
X423028Y264255D01*
X424391D01*
X424708Y263868D01*
X424655Y263600D01*
X424833Y262703D01*
X425241Y262092D01*
X425306Y261750D01*
X425241Y261408D01*
X424833Y260797D01*
X424655Y259900D01*
X424833Y259003D01*
X425342Y258242D01*
X426103Y257733D01*
X426099Y257224D01*
X425955Y256500D01*
X426133Y255603D01*
X426642Y254842D01*
X427403Y254333D01*
X427942Y254226D01*
X428046Y253982D01*
X428074Y253690D01*
X427942Y253558D01*
X427433Y252797D01*
X427255Y251900D01*
X427433Y251003D01*
X427942Y250242D01*
X428701Y249734D01*
X428555Y249000D01*
X428733Y248103D01*
X429242Y247342D01*
X429879Y246916D01*
X429733Y246697D01*
X429555Y245800D01*
X429733Y244903D01*
X430242Y244142D01*
X431003Y243633D01*
X431032Y243628D01*
X431365Y243052D01*
X431255Y242500D01*
X431433Y241603D01*
X431942Y240842D01*
X432703Y240333D01*
X433600Y240155D01*
X434497Y240333D01*
X435258Y240842D01*
X435371Y240955D01*
X441800D01*
X442697Y241133D01*
X443458Y241642D01*
X443967Y242403D01*
X444145Y243300D01*
X443967Y244197D01*
X443531Y244850D01*
X443967Y245503D01*
X444145Y246400D01*
X443967Y247297D01*
X443690Y247712D01*
X443658Y247759D01*
X443658Y247759D01*
X443458Y248058D01*
X443618Y248531D01*
X443867Y248903D01*
X444045Y249800D01*
X443867Y250697D01*
X443464Y251300D01*
X443667Y251603D01*
X443845Y252500D01*
X443667Y253397D01*
X443158Y254158D01*
X442493Y254603D01*
X442504Y254996D01*
X442546Y255123D01*
X442597Y255133D01*
X443358Y255642D01*
X443867Y256403D01*
X444045Y257300D01*
X443867Y258197D01*
X443397Y258900D01*
X443867Y259603D01*
X444045Y260500D01*
X443867Y261397D01*
X443358Y262158D01*
X443343Y262169D01*
X443767Y262803D01*
X443945Y263700D01*
X443767Y264597D01*
X443447Y265075D01*
X443867Y265703D01*
X444045Y266600D01*
X443867Y267497D01*
X443358Y268258D01*
X442597Y268767D01*
X441700Y268945D01*
D02*
G37*
G36*
X413400Y261935D02*
X412698Y261796D01*
X412102Y261398D01*
X411704Y260802D01*
X411565Y260100D01*
X411704Y259398D01*
X412102Y258802D01*
X412698Y258404D01*
X413400Y258265D01*
X414102Y258404D01*
X414698Y258802D01*
X415096Y259398D01*
X415235Y260100D01*
X415096Y260802D01*
X414698Y261398D01*
X414102Y261796D01*
X413400Y261935D01*
D02*
G37*
G36*
X386800Y256135D02*
X386098Y255996D01*
X385502Y255598D01*
X385104Y255002D01*
X384965Y254300D01*
X385104Y253598D01*
X385502Y253002D01*
X386098Y252604D01*
X386800Y252465D01*
X387502Y252604D01*
X388098Y253002D01*
X388496Y253598D01*
X388635Y254300D01*
X388496Y255002D01*
X388098Y255598D01*
X387502Y255996D01*
X386800Y256135D01*
D02*
G37*
G36*
X403600Y254235D02*
X402898Y254096D01*
X402302Y253698D01*
X401904Y253102D01*
X401765Y252400D01*
X401904Y251698D01*
X402302Y251102D01*
X402898Y250704D01*
X403600Y250565D01*
X404302Y250704D01*
X404898Y251102D01*
X405296Y251698D01*
X405435Y252400D01*
X405296Y253102D01*
X404898Y253698D01*
X404302Y254096D01*
X403600Y254235D01*
D02*
G37*
G36*
X408100Y252435D02*
X407398Y252296D01*
X406802Y251898D01*
X406404Y251302D01*
X406265Y250600D01*
X406404Y249898D01*
X406802Y249302D01*
X407398Y248904D01*
X408100Y248765D01*
X408802Y248904D01*
X409398Y249302D01*
X409796Y249898D01*
X409935Y250600D01*
X409796Y251302D01*
X409398Y251898D01*
X408802Y252296D01*
X408100Y252435D01*
D02*
G37*
G36*
X413800Y250635D02*
X413098Y250496D01*
X412502Y250098D01*
X412104Y249502D01*
X411965Y248800D01*
X412104Y248098D01*
X412502Y247502D01*
X413098Y247104D01*
X413800Y246965D01*
X414502Y247104D01*
X415098Y247502D01*
X415496Y248098D01*
X415635Y248800D01*
X415496Y249502D01*
X415098Y250098D01*
X414502Y250496D01*
X413800Y250635D01*
D02*
G37*
G36*
X390300Y250435D02*
X389598Y250296D01*
X389002Y249898D01*
X388604Y249302D01*
X388465Y248600D01*
X388604Y247898D01*
X389002Y247302D01*
X389598Y246904D01*
X390300Y246765D01*
X391002Y246904D01*
X391598Y247302D01*
X391996Y247898D01*
X392135Y248600D01*
X391996Y249302D01*
X391598Y249898D01*
X391002Y250296D01*
X390300Y250435D01*
D02*
G37*
G36*
X400400Y241235D02*
X399698Y241096D01*
X399102Y240698D01*
X398704Y240102D01*
X398565Y239400D01*
X398651Y238965D01*
X398180Y238770D01*
X398098Y238894D01*
X397502Y239291D01*
X396800Y239431D01*
X396098Y239291D01*
X395963Y239201D01*
X395698Y239598D01*
X395102Y239996D01*
X394400Y240135D01*
X393698Y239996D01*
X393102Y239598D01*
X392704Y239002D01*
X392565Y238303D01*
X391900Y238435D01*
X391198Y238296D01*
X390602Y237898D01*
X390204Y237302D01*
X390065Y236600D01*
X390204Y235898D01*
X390602Y235302D01*
X391198Y234904D01*
X391900Y234765D01*
X392602Y234904D01*
X393198Y235302D01*
X393596Y235898D01*
X393735Y236597D01*
X394400Y236465D01*
X395102Y236604D01*
X395237Y236695D01*
X395502Y236298D01*
X396098Y235900D01*
X396800Y235761D01*
X397502Y235900D01*
X398098Y236298D01*
X398496Y236894D01*
X398635Y237596D01*
X398549Y238031D01*
X399020Y238226D01*
X399102Y238102D01*
X399698Y237704D01*
X400400Y237565D01*
X401102Y237704D01*
X401698Y238102D01*
X402096Y238698D01*
X402235Y239400D01*
X402096Y240102D01*
X401698Y240698D01*
X401102Y241096D01*
X400400Y241235D01*
D02*
G37*
G36*
X421500Y240435D02*
X420798Y240296D01*
X420202Y239898D01*
X419804Y239302D01*
X419665Y238600D01*
X419804Y237898D01*
X420202Y237302D01*
X420798Y236904D01*
X421500Y236765D01*
X422202Y236904D01*
X422798Y237302D01*
X423196Y237898D01*
X423335Y238600D01*
X423196Y239302D01*
X422798Y239898D01*
X422202Y240296D01*
X421500Y240435D01*
D02*
G37*
G36*
X409900Y239435D02*
X409198Y239296D01*
X408602Y238898D01*
X408204Y238302D01*
X408065Y237600D01*
X408204Y236898D01*
X408602Y236302D01*
X409198Y235904D01*
X409900Y235765D01*
X410602Y235904D01*
X411198Y236302D01*
X411596Y236898D01*
X411735Y237600D01*
X411596Y238302D01*
X411198Y238898D01*
X410602Y239296D01*
X409900Y239435D01*
D02*
G37*
G36*
X385800Y239135D02*
X385098Y238996D01*
X384502Y238598D01*
X384104Y238002D01*
X383965Y237300D01*
X384104Y236598D01*
X384502Y236002D01*
X385098Y235604D01*
X385800Y235465D01*
X386502Y235604D01*
X387098Y236002D01*
X387496Y236598D01*
X387635Y237300D01*
X387496Y238002D01*
X387098Y238598D01*
X386502Y238996D01*
X385800Y239135D01*
D02*
G37*
G36*
X372200Y235935D02*
X371498Y235796D01*
X370902Y235398D01*
X370504Y234802D01*
X370365Y234100D01*
X370504Y233398D01*
X370902Y232802D01*
X371498Y232404D01*
X372200Y232265D01*
X372902Y232404D01*
X373498Y232802D01*
X373896Y233398D01*
X374035Y234100D01*
X373896Y234802D01*
X373498Y235398D01*
X372902Y235796D01*
X372200Y235935D01*
D02*
G37*
G36*
X424900Y234635D02*
X424198Y234496D01*
X423602Y234098D01*
X423204Y233502D01*
X423065Y232800D01*
X423204Y232098D01*
X423602Y231502D01*
X424198Y231104D01*
X424900Y230965D01*
X425115Y231008D01*
X425310Y230537D01*
X425102Y230398D01*
X424704Y229802D01*
X424565Y229100D01*
X424704Y228398D01*
X425102Y227802D01*
X425698Y227404D01*
X426400Y227265D01*
X427102Y227404D01*
X427698Y227802D01*
X428096Y228398D01*
X428235Y229100D01*
X428096Y229802D01*
X427698Y230398D01*
X427102Y230796D01*
X426400Y230935D01*
X426185Y230892D01*
X425990Y231364D01*
X426198Y231502D01*
X426596Y232098D01*
X426735Y232800D01*
X426596Y233502D01*
X426198Y234098D01*
X425602Y234496D01*
X424900Y234635D01*
D02*
G37*
G36*
X397600Y229135D02*
X396898Y228996D01*
X396302Y228598D01*
X395904Y228002D01*
X395765Y227300D01*
X395904Y226598D01*
X396302Y226002D01*
X396898Y225604D01*
X397600Y225465D01*
X398302Y225604D01*
X398898Y226002D01*
X399296Y226598D01*
X399435Y227300D01*
X399296Y228002D01*
X398898Y228598D01*
X398302Y228996D01*
X397600Y229135D01*
D02*
G37*
G36*
X372400Y228635D02*
X371698Y228496D01*
X371102Y228098D01*
X370704Y227502D01*
X370565Y226800D01*
X370704Y226098D01*
X371102Y225502D01*
X371698Y225104D01*
X372400Y224965D01*
X373102Y225104D01*
X373698Y225502D01*
X374096Y226098D01*
X374235Y226800D01*
X374096Y227502D01*
X373698Y228098D01*
X373102Y228496D01*
X372400Y228635D01*
D02*
G37*
G36*
X427500Y226735D02*
X426798Y226596D01*
X426202Y226198D01*
X425804Y225602D01*
X425665Y224900D01*
X425804Y224198D01*
X426202Y223602D01*
X426798Y223204D01*
X427500Y223065D01*
X428202Y223204D01*
X428798Y223602D01*
X429196Y224198D01*
X429335Y224900D01*
X429196Y225602D01*
X428798Y226198D01*
X428202Y226596D01*
X427500Y226735D01*
D02*
G37*
G36*
X435900Y237445D02*
X435003Y237267D01*
X434242Y236758D01*
X433042Y235558D01*
X432533Y234797D01*
X432355Y233900D01*
X432533Y233003D01*
X433042Y232242D01*
X432780Y231816D01*
X432433Y231297D01*
X432255Y230400D01*
X432433Y229503D01*
X432936Y228750D01*
X432433Y227997D01*
X432255Y227100D01*
X432433Y226203D01*
X432695Y225811D01*
X432142Y225258D01*
X431633Y224497D01*
X431455Y223600D01*
X431633Y222703D01*
X432142Y221942D01*
X432347Y221805D01*
X432445Y221314D01*
X432433Y221297D01*
X432255Y220400D01*
X432433Y219503D01*
X432886Y218825D01*
X432533Y218297D01*
X432355Y217400D01*
X432533Y216503D01*
X432553Y216473D01*
X432432Y216156D01*
X432002Y215896D01*
X431436Y216008D01*
X431217Y216363D01*
X431177Y216521D01*
X431296Y216698D01*
X431435Y217400D01*
X431296Y218102D01*
X430898Y218698D01*
X430302Y219096D01*
X430254Y219105D01*
X430157Y219413D01*
X430124Y219641D01*
X430496Y220198D01*
X430635Y220900D01*
X430496Y221602D01*
X430098Y222198D01*
X429502Y222596D01*
X428800Y222735D01*
X428098Y222596D01*
X427502Y222198D01*
X427104Y221602D01*
X426965Y220900D01*
X427104Y220198D01*
X427502Y219602D01*
X428098Y219204D01*
X428146Y219195D01*
X428243Y218887D01*
X428276Y218659D01*
X427904Y218102D01*
X427765Y217400D01*
X427904Y216698D01*
X428302Y216102D01*
X428898Y215704D01*
X429464Y215592D01*
X429683Y215237D01*
X429723Y215079D01*
X429604Y214902D01*
X429465Y214200D01*
X429604Y213498D01*
X430002Y212902D01*
X430598Y212504D01*
X431031Y212418D01*
X431137Y211887D01*
X431002Y211798D01*
X430604Y211202D01*
X430465Y210500D01*
X430604Y209798D01*
X431002Y209202D01*
X431598Y208804D01*
X432300Y208665D01*
X433002Y208804D01*
X433075Y208853D01*
X433703Y208433D01*
X434600Y208255D01*
X435497Y208433D01*
X436258Y208942D01*
X436871Y209555D01*
X441900D01*
X442797Y209733D01*
X443558Y210242D01*
X444067Y211003D01*
X444245Y211900D01*
X444067Y212797D01*
X443558Y213558D01*
X443474Y213615D01*
X443867Y214203D01*
X444045Y215100D01*
X443867Y215997D01*
X443480Y216575D01*
X443967Y217303D01*
X444145Y218200D01*
X443967Y219097D01*
X443531Y219750D01*
X443967Y220403D01*
X444145Y221300D01*
X443967Y222197D01*
X443458Y222958D01*
X443072Y223216D01*
Y223817D01*
X443258Y223942D01*
X443767Y224703D01*
X443945Y225600D01*
X443767Y226497D01*
X443281Y227225D01*
X443667Y227803D01*
X443845Y228700D01*
X443667Y229597D01*
X443158Y230358D01*
X443397Y230800D01*
X443867Y231503D01*
X444045Y232400D01*
X443867Y233297D01*
X443614Y233675D01*
X443967Y234203D01*
X444145Y235100D01*
X443967Y235997D01*
X443458Y236758D01*
X442697Y237267D01*
X441800Y237445D01*
X435900D01*
X435900Y237445D01*
D02*
G37*
G36*
X396800Y217535D02*
X396098Y217396D01*
X395502Y216998D01*
X395104Y216402D01*
X394965Y215700D01*
X395104Y214998D01*
X395502Y214402D01*
X396098Y214004D01*
X396800Y213865D01*
X397502Y214004D01*
X398098Y214402D01*
X398496Y214998D01*
X398635Y215700D01*
X398496Y216402D01*
X398098Y216998D01*
X397502Y217396D01*
X396800Y217535D01*
D02*
G37*
G36*
X510700Y233445D02*
X509803Y233267D01*
X509471Y233045D01*
X463900D01*
X463003Y232867D01*
X462242Y232358D01*
X461733Y231597D01*
X461555Y230700D01*
X461733Y229803D01*
X462242Y229042D01*
Y228625D01*
X461842Y228358D01*
X461333Y227597D01*
X461155Y226700D01*
X461333Y225803D01*
X461842Y225042D01*
X462328Y224717D01*
X462517Y224312D01*
X462431Y224093D01*
X462033Y223497D01*
X461855Y222600D01*
X462033Y221703D01*
X462354Y221223D01*
X462472Y220862D01*
X462226Y220582D01*
X461742Y220258D01*
X461233Y219497D01*
X461055Y218600D01*
X461233Y217703D01*
X461742Y216942D01*
X462241Y216608D01*
X462233Y216597D01*
X462055Y215700D01*
X462233Y214803D01*
X462472Y214445D01*
X462205Y213945D01*
X456200D01*
X455303Y213767D01*
X454542Y213258D01*
X454033Y212497D01*
X453855Y211600D01*
X454033Y210703D01*
X454542Y209942D01*
X455303Y209433D01*
X456200Y209255D01*
X530013D01*
X530265Y208755D01*
X529522Y206960D01*
X529026Y204894D01*
X528859Y202776D01*
X529026Y200657D01*
X529522Y198591D01*
X530335Y196628D01*
X531445Y194816D01*
X532825Y193200D01*
X534441Y191820D01*
X536253Y190710D01*
X538216Y189897D01*
X540282Y189401D01*
X542401Y189234D01*
X544519Y189401D01*
X546585Y189897D01*
X548549Y190710D01*
X550360Y191820D01*
X551976Y193200D01*
X553356Y194816D01*
X554467Y196628D01*
X555280Y198591D01*
X555776Y200657D01*
X555942Y202776D01*
X555776Y204894D01*
X555280Y206960D01*
X554467Y208923D01*
X553356Y210735D01*
X551976Y212351D01*
X550829Y213331D01*
X551014Y213830D01*
X564117D01*
X565000Y213655D01*
X565897Y213833D01*
X566658Y214342D01*
X567167Y215103D01*
X567345Y216000D01*
X567167Y216897D01*
X566658Y217658D01*
X566483Y217834D01*
X565722Y218342D01*
X564824Y218521D01*
X548504D01*
X548187Y218907D01*
X548245Y219200D01*
X548067Y220097D01*
X547558Y220858D01*
X546797Y221367D01*
X545900Y221545D01*
X545003Y221367D01*
X544821Y221245D01*
X528372D01*
X528245Y221400D01*
X528067Y222297D01*
X527558Y223058D01*
X526797Y223567D01*
X526126Y223700D01*
X526067Y223997D01*
X525558Y224758D01*
X524797Y225267D01*
X524472Y225331D01*
X524545Y225700D01*
X524367Y226597D01*
X523858Y227358D01*
X523097Y227867D01*
X522200Y228045D01*
X521303Y227867D01*
X520542Y227358D01*
X520229Y227045D01*
X515948D01*
X515656Y227400D01*
X515478Y228297D01*
X514969Y229058D01*
X514209Y229567D01*
X514150Y229578D01*
X514067Y229997D01*
X513558Y230758D01*
X513045Y231101D01*
X512867Y231997D01*
X512358Y232758D01*
X511597Y233267D01*
X510700Y233445D01*
D02*
G37*
G36*
X388200Y217235D02*
X387498Y217096D01*
X386902Y216698D01*
X386504Y216102D01*
X386365Y215400D01*
X386504Y214698D01*
X386902Y214102D01*
X387498Y213704D01*
X388200Y213565D01*
X388902Y213704D01*
X389498Y214102D01*
X389896Y214698D01*
X390035Y215400D01*
X389896Y216102D01*
X389498Y216698D01*
X388902Y217096D01*
X388200Y217235D01*
D02*
G37*
G36*
X382300D02*
X381598Y217096D01*
X381002Y216698D01*
X380604Y216102D01*
X380465Y215400D01*
X380604Y214698D01*
X381002Y214102D01*
X381598Y213704D01*
X382300Y213565D01*
X383002Y213704D01*
X383598Y214102D01*
X383996Y214698D01*
X384135Y215400D01*
X383996Y216102D01*
X383598Y216698D01*
X383002Y217096D01*
X382300Y217235D01*
D02*
G37*
G36*
X366300Y214735D02*
X365598Y214596D01*
X365002Y214198D01*
X364604Y213602D01*
X364465Y212900D01*
X364604Y212198D01*
X364813Y211885D01*
X364406Y211613D01*
X364008Y211017D01*
X363869Y210315D01*
X364008Y209613D01*
X364406Y209017D01*
X365002Y208620D01*
X365704Y208480D01*
X365881Y208515D01*
X365904Y208398D01*
X366302Y207802D01*
X366898Y207404D01*
X367600Y207265D01*
X368302Y207404D01*
X368898Y207802D01*
X369296Y208398D01*
X369435Y209100D01*
X369296Y209802D01*
X368898Y210398D01*
X368302Y210796D01*
X367600Y210935D01*
X367423Y210900D01*
X367400Y211017D01*
X367191Y211330D01*
X367598Y211602D01*
X367996Y212198D01*
X368135Y212900D01*
X367996Y213602D01*
X367598Y214198D01*
X367002Y214596D01*
X366300Y214735D01*
D02*
G37*
G36*
X388300Y207535D02*
X387598Y207396D01*
X387002Y206998D01*
X386985Y206973D01*
X386502Y207296D01*
X385800Y207435D01*
X385098Y207296D01*
X384502Y206898D01*
X384104Y206302D01*
X383965Y205600D01*
X384104Y204898D01*
X384502Y204302D01*
X385098Y203904D01*
X385800Y203765D01*
X386502Y203904D01*
X387098Y204302D01*
X387115Y204327D01*
X387598Y204004D01*
X388300Y203865D01*
X389002Y204004D01*
X389598Y204402D01*
X389996Y204998D01*
X390135Y205700D01*
X389996Y206402D01*
X389598Y206998D01*
X389002Y207396D01*
X388300Y207535D01*
D02*
G37*
G36*
X406900Y212626D02*
X393100D01*
X392317Y212523D01*
X391587Y212221D01*
X390960Y211740D01*
X390479Y211113D01*
X390177Y210383D01*
X390074Y209600D01*
X390177Y208817D01*
X390479Y208087D01*
X390960Y207460D01*
X391587Y206979D01*
X392317Y206677D01*
X393100Y206574D01*
X394245D01*
X394500Y206162D01*
X394499Y206074D01*
X394365Y205400D01*
X394504Y204698D01*
X394902Y204102D01*
X395498Y203704D01*
X396200Y203565D01*
X396902Y203704D01*
X397498Y204102D01*
X397896Y204698D01*
X398035Y205400D01*
X397901Y206074D01*
X397900Y206162D01*
X398155Y206574D01*
X400052D01*
X400319Y206074D01*
X400204Y205902D01*
X400065Y205200D01*
X400204Y204498D01*
X400602Y203902D01*
X401198Y203504D01*
X401900Y203365D01*
X402602Y203504D01*
X403198Y203902D01*
X403596Y204498D01*
X403735Y205200D01*
X403596Y205902D01*
X403481Y206074D01*
X403748Y206574D01*
X405647D01*
X406510Y205710D01*
X406304Y205402D01*
X406165Y204700D01*
X406304Y203998D01*
X406702Y203402D01*
X407298Y203004D01*
X408000Y202865D01*
X408702Y203004D01*
X409298Y203402D01*
X409452Y203633D01*
X409900Y203574D01*
X410683Y203677D01*
X411413Y203979D01*
X412040Y204460D01*
X412521Y205087D01*
X412823Y205817D01*
X412926Y206600D01*
X412823Y207383D01*
X412521Y208113D01*
X412040Y208740D01*
X409040Y211740D01*
X408413Y212221D01*
X407683Y212523D01*
X406900Y212626D01*
D02*
G37*
G36*
X576800Y204335D02*
X576098Y204196D01*
X575502Y203798D01*
X575104Y203202D01*
X574965Y202500D01*
X575104Y201798D01*
X575502Y201202D01*
X576098Y200804D01*
X576800Y200665D01*
X577502Y200804D01*
X578098Y201202D01*
X578496Y201798D01*
X578635Y202500D01*
X578496Y203202D01*
X578098Y203798D01*
X577502Y204196D01*
X576800Y204335D01*
D02*
G37*
G36*
X418400Y201890D02*
X417698Y201751D01*
X417102Y201353D01*
X416704Y200757D01*
X416597Y200217D01*
X416000Y200335D01*
X415298Y200196D01*
X414702Y199798D01*
X414304Y199202D01*
X414165Y198500D01*
X414304Y197798D01*
X414702Y197202D01*
X415298Y196804D01*
X416000Y196665D01*
X416702Y196804D01*
X417298Y197202D01*
X417696Y197798D01*
X417803Y198339D01*
X418400Y198220D01*
X419102Y198360D01*
X419698Y198757D01*
X420096Y199353D01*
X420235Y200055D01*
X420096Y200757D01*
X419698Y201353D01*
X419102Y201751D01*
X418400Y201890D01*
D02*
G37*
G36*
X383600Y190535D02*
X382898Y190396D01*
X382302Y189998D01*
X381904Y189402D01*
X381765Y188700D01*
X381904Y187998D01*
X382302Y187402D01*
X382898Y187004D01*
X383600Y186865D01*
X384302Y187004D01*
X384898Y187402D01*
X385296Y187998D01*
X385435Y188700D01*
X385296Y189402D01*
X384898Y189998D01*
X384302Y190396D01*
X383600Y190535D01*
D02*
G37*
G36*
X403600Y187666D02*
X402898Y187526D01*
X402302Y187128D01*
X401904Y186533D01*
X401765Y185831D01*
X401904Y185128D01*
X402302Y184533D01*
X402898Y184135D01*
X403600Y183995D01*
X404302Y184135D01*
X404898Y184533D01*
X405296Y185128D01*
X405435Y185831D01*
X405296Y186533D01*
X404898Y187128D01*
X404302Y187526D01*
X403600Y187666D01*
D02*
G37*
%LPD*%
G36*
X529733Y214155D02*
X529571Y213945D01*
X466997D01*
X466747Y214445D01*
X466905Y214655D01*
X529488D01*
X529733Y214155D01*
D02*
G37*
%LPC*%
G36*
X322200Y461935D02*
X321498Y461796D01*
X320902Y461398D01*
X320504Y460802D01*
X320365Y460100D01*
X320504Y459398D01*
X320902Y458802D01*
X321498Y458404D01*
X322200Y458265D01*
X322902Y458404D01*
X323498Y458802D01*
X323896Y459398D01*
X324035Y460100D01*
X323896Y460802D01*
X323498Y461398D01*
X322902Y461796D01*
X322200Y461935D01*
D02*
G37*
G36*
X335500Y461835D02*
X334798Y461696D01*
X334202Y461298D01*
X333804Y460702D01*
X333665Y460000D01*
X333804Y459298D01*
X334202Y458702D01*
X334798Y458304D01*
X335500Y458165D01*
X336202Y458304D01*
X336798Y458702D01*
X337196Y459298D01*
X337335Y460000D01*
X337196Y460702D01*
X336798Y461298D01*
X336202Y461696D01*
X335500Y461835D01*
D02*
G37*
G36*
X343600Y461635D02*
X342898Y461496D01*
X342302Y461098D01*
X341904Y460502D01*
X341765Y459800D01*
X341904Y459098D01*
X342302Y458502D01*
X342898Y458104D01*
X343600Y457965D01*
X344302Y458104D01*
X344898Y458502D01*
X345296Y459098D01*
X345435Y459800D01*
X345296Y460502D01*
X344898Y461098D01*
X344302Y461496D01*
X343600Y461635D01*
D02*
G37*
G36*
X317100Y460435D02*
X316398Y460296D01*
X315802Y459898D01*
X315404Y459302D01*
X315265Y458600D01*
X315404Y457898D01*
X315802Y457302D01*
X316398Y456904D01*
X317100Y456765D01*
X317802Y456904D01*
X318398Y457302D01*
X318796Y457898D01*
X318935Y458600D01*
X318796Y459302D01*
X318398Y459898D01*
X317802Y460296D01*
X317100Y460435D01*
D02*
G37*
G36*
X293900Y459135D02*
X293198Y458996D01*
X292602Y458598D01*
X292204Y458002D01*
X292065Y457300D01*
X292204Y456598D01*
X292602Y456002D01*
X293198Y455604D01*
X293900Y455465D01*
X294602Y455604D01*
X295198Y456002D01*
X295596Y456598D01*
X295735Y457300D01*
X295596Y458002D01*
X295198Y458598D01*
X294602Y458996D01*
X293900Y459135D01*
D02*
G37*
G36*
X278091Y462069D02*
X275972Y461903D01*
X273906Y461407D01*
X271943Y460593D01*
X270131Y459483D01*
X268515Y458103D01*
X267135Y456487D01*
X266025Y454675D01*
X265212Y452712D01*
X264716Y450646D01*
X264549Y448528D01*
X264616Y447676D01*
X264142Y447317D01*
X263500Y447445D01*
X262997Y447345D01*
X244080D01*
X244035Y447400D01*
X243896Y448102D01*
X243498Y448698D01*
X242902Y449096D01*
X242200Y449235D01*
X241498Y449096D01*
X240902Y448698D01*
X240504Y448102D01*
X240365Y447400D01*
X240320Y447345D01*
X239500D01*
X238603Y447167D01*
X237842Y446658D01*
X237333Y445897D01*
X237155Y445000D01*
X237333Y444103D01*
X237842Y443342D01*
X238603Y442833D01*
X239500Y442655D01*
X240902D01*
X240993Y442193D01*
X240985Y442155D01*
X240242Y441658D01*
X239733Y440897D01*
X239555Y440000D01*
X239733Y439103D01*
X240242Y438342D01*
X240942Y437642D01*
X241703Y437133D01*
X242600Y436955D01*
X262400D01*
X263297Y437133D01*
X264058Y437642D01*
X264758Y438342D01*
X265267Y439103D01*
X265445Y440000D01*
X265267Y440897D01*
X264758Y441658D01*
X263997Y442167D01*
X263753Y442215D01*
Y442725D01*
X264297Y442833D01*
X265058Y443342D01*
X265077Y443361D01*
X265621Y443353D01*
X266025Y442380D01*
X267135Y440568D01*
X268515Y438952D01*
X270131Y437572D01*
X271943Y436462D01*
X273906Y435649D01*
X275972Y435152D01*
X278091Y434986D01*
X280209Y435152D01*
X282275Y435649D01*
X284238Y436462D01*
X286050Y437572D01*
X287666Y438952D01*
X289046Y440568D01*
X290156Y442380D01*
X290969Y444343D01*
X291466Y446409D01*
X291632Y448528D01*
X291466Y450646D01*
X290969Y452712D01*
X290156Y454675D01*
X289046Y456487D01*
X287666Y458103D01*
X286050Y459483D01*
X284238Y460593D01*
X282275Y461407D01*
X280209Y461903D01*
X278091Y462069D01*
D02*
G37*
G36*
X336200Y441535D02*
X335498Y441396D01*
X334902Y440998D01*
X334504Y440402D01*
X334365Y439700D01*
X334504Y438998D01*
X334902Y438402D01*
X335498Y438004D01*
X336200Y437865D01*
X336902Y438004D01*
X337498Y438402D01*
X337896Y438998D01*
X338035Y439700D01*
X337896Y440402D01*
X337498Y440998D01*
X336902Y441396D01*
X336200Y441535D01*
D02*
G37*
G36*
X319600Y456475D02*
X318830Y456374D01*
X318112Y456077D01*
X317496Y455604D01*
X317023Y454988D01*
X316726Y454270D01*
X316624Y453500D01*
X316726Y452730D01*
X317023Y452012D01*
X317496Y451396D01*
X318112Y450923D01*
X318830Y450626D01*
X319435Y450546D01*
X319691Y450071D01*
X319626Y449992D01*
X318962Y448749D01*
X318553Y447402D01*
X318415Y446000D01*
X318553Y444598D01*
X318962Y443251D01*
X319626Y442008D01*
X320520Y440920D01*
X321608Y440026D01*
X321657Y440000D01*
Y439500D01*
X321608Y439474D01*
X320520Y438580D01*
X319626Y437492D01*
X319247Y436782D01*
X318667Y436758D01*
X317845Y437389D01*
X316762Y437838D01*
X315600Y437991D01*
X314438Y437838D01*
X313355Y437389D01*
X312533Y436759D01*
X311953Y436783D01*
X311575Y437492D01*
X310681Y438581D01*
X309592Y439475D01*
X309544Y439501D01*
Y440001D01*
X309592Y440026D01*
X310680Y440920D01*
X311574Y442008D01*
X312238Y443251D01*
X312647Y444598D01*
X312785Y446000D01*
X312647Y447402D01*
X312238Y448749D01*
X311574Y449992D01*
X311509Y450071D01*
X311765Y450546D01*
X312370Y450626D01*
X313088Y450923D01*
X313704Y451396D01*
X314177Y452012D01*
X314474Y452730D01*
X314576Y453500D01*
X314474Y454270D01*
X314177Y454988D01*
X313704Y455604D01*
X313088Y456077D01*
X312370Y456374D01*
X311600Y456475D01*
X310830Y456374D01*
X310112Y456077D01*
X309496Y455604D01*
X309023Y454988D01*
X308726Y454270D01*
X308625Y453500D01*
X308687Y453024D01*
X308543Y452860D01*
X308229Y452674D01*
X307002Y453047D01*
X305600Y453185D01*
X304198Y453047D01*
X302851Y452638D01*
X301608Y451974D01*
X300520Y451080D01*
X299626Y449992D01*
X298962Y448749D01*
X298553Y447402D01*
X298415Y446000D01*
X298553Y444598D01*
X298962Y443251D01*
X299626Y442008D01*
X300520Y440920D01*
X301608Y440026D01*
X301656Y440001D01*
Y439501D01*
X301608Y439475D01*
X300519Y438581D01*
X299877Y437799D01*
X299804Y437710D01*
X299402Y438008D01*
X299467Y438105D01*
X299596Y438298D01*
X299735Y439000D01*
X299596Y439702D01*
X299198Y440298D01*
X298602Y440696D01*
X297900Y440835D01*
X297198Y440696D01*
X296602Y440298D01*
X296204Y439702D01*
X296065Y439000D01*
X296204Y438298D01*
X296602Y437702D01*
X297198Y437304D01*
X297900Y437165D01*
X298602Y437304D01*
X299090Y437631D01*
X299198Y437702D01*
X299576Y437399D01*
X299525Y437304D01*
X298961Y436250D01*
X298552Y434902D01*
X298414Y433500D01*
X298552Y432098D01*
X298961Y430750D01*
X299625Y429508D01*
X300519Y428419D01*
X301244Y427824D01*
X301065Y427324D01*
X300271D01*
X300196Y427702D01*
X299798Y428298D01*
X299202Y428696D01*
X298500Y428835D01*
X297798Y428696D01*
X297202Y428298D01*
X296804Y427702D01*
X296729Y427324D01*
X282752D01*
X282618Y427379D01*
X281900Y427474D01*
X281182Y427379D01*
X280513Y427102D01*
X279939Y426661D01*
X279498Y426087D01*
X279221Y425418D01*
X279126Y424700D01*
X279221Y423982D01*
X279498Y423313D01*
X279939Y422739D01*
X280089Y422589D01*
X280663Y422148D01*
X281332Y421871D01*
X282050Y421776D01*
X334065D01*
X334440Y421276D01*
X334365Y420900D01*
X334504Y420198D01*
X334902Y419602D01*
X335498Y419204D01*
X336200Y419065D01*
X336902Y419204D01*
X337498Y419602D01*
X337896Y420198D01*
X338035Y420900D01*
X337960Y421276D01*
X338335Y421776D01*
X343450D01*
X344168Y421871D01*
X344837Y422148D01*
X345411Y422589D01*
X345561Y422739D01*
X346002Y423313D01*
X346279Y423982D01*
X346374Y424700D01*
X346279Y425418D01*
X346002Y426087D01*
X345561Y426661D01*
X344987Y427102D01*
X344318Y427379D01*
X343600Y427474D01*
X342882Y427379D01*
X342748Y427324D01*
X330133D01*
X329954Y427824D01*
X330680Y428420D01*
X331574Y429508D01*
X332238Y430751D01*
X332646Y432098D01*
X332785Y433500D01*
X332646Y434902D01*
X332238Y436249D01*
X331574Y437492D01*
X330680Y438580D01*
X329592Y439474D01*
X329542Y439500D01*
Y440000D01*
X329592Y440026D01*
X330680Y440920D01*
X331574Y442008D01*
X332238Y443251D01*
X332646Y444598D01*
X332785Y446000D01*
X332646Y447402D01*
X332238Y448749D01*
X331574Y449992D01*
X330680Y451080D01*
X329592Y451974D01*
X328349Y452638D01*
X327002Y453047D01*
X325600Y453185D01*
X324198Y453047D01*
X322971Y452674D01*
X322657Y452860D01*
X322513Y453024D01*
X322575Y453500D01*
X322474Y454270D01*
X322177Y454988D01*
X321704Y455604D01*
X321088Y456077D01*
X320370Y456374D01*
X319600Y456475D01*
D02*
G37*
G36*
X324300Y413645D02*
X258800D01*
X257903Y413467D01*
X257142Y412958D01*
X256633Y412197D01*
X256455Y411300D01*
X256633Y410403D01*
X257142Y409642D01*
X257903Y409133D01*
X258800Y408955D01*
X282153D01*
X282374Y408506D01*
X282252Y408348D01*
X281824Y407314D01*
X281678Y406205D01*
X281824Y405095D01*
X282252Y404061D01*
X282725Y403445D01*
X282478Y402945D01*
X255100D01*
X254203Y402767D01*
X253442Y402258D01*
X252933Y401497D01*
X252755Y400600D01*
X252933Y399703D01*
X253442Y398942D01*
X254203Y398433D01*
X255100Y398255D01*
X304966D01*
X305864Y398433D01*
X306624Y398942D01*
X308729Y401047D01*
X309587Y400934D01*
X310696Y401080D01*
X311730Y401508D01*
X312618Y402189D01*
X313299Y403077D01*
X313727Y404111D01*
X313873Y405221D01*
X313727Y406330D01*
X313299Y407364D01*
X312618Y408252D01*
X312353Y408455D01*
X312523Y408955D01*
X322607D01*
X322937Y408579D01*
X322913Y408400D01*
X323059Y407291D01*
X323488Y406257D01*
X324169Y405369D01*
X325057Y404688D01*
X326091Y404259D01*
X327200Y404113D01*
X328309Y404259D01*
X329343Y404688D01*
X330231Y405369D01*
X330912Y406257D01*
X331341Y407291D01*
X331487Y408400D01*
X331341Y409510D01*
X330912Y410543D01*
X330231Y411431D01*
X329343Y412112D01*
X328309Y412541D01*
X327200Y412687D01*
X326343Y412574D01*
X325958Y412958D01*
X325197Y413467D01*
X324300Y413645D01*
D02*
G37*
G36*
X150900Y392735D02*
X150198Y392596D01*
X149602Y392198D01*
X149204Y391602D01*
X149065Y390900D01*
X149204Y390198D01*
X149602Y389602D01*
X150198Y389204D01*
X150900Y389065D01*
X151602Y389204D01*
X152198Y389602D01*
X152596Y390198D01*
X152735Y390900D01*
X152596Y391602D01*
X152198Y392198D01*
X151602Y392596D01*
X150900Y392735D01*
D02*
G37*
G36*
X261700Y391145D02*
X158200D01*
X157303Y390967D01*
X156542Y390458D01*
X156442Y390358D01*
X155933Y389597D01*
X155755Y388700D01*
X155933Y387803D01*
X156442Y387042D01*
X157203Y386533D01*
X158100Y386355D01*
X158603Y386455D01*
X261700D01*
X262597Y386633D01*
X263358Y387142D01*
X263867Y387903D01*
X264045Y388800D01*
X263867Y389697D01*
X263358Y390458D01*
X262597Y390967D01*
X261700Y391145D01*
D02*
G37*
G36*
X181600Y379935D02*
X180898Y379796D01*
X180302Y379398D01*
X179904Y378802D01*
X179765Y378100D01*
X179904Y377398D01*
X180302Y376802D01*
X180898Y376404D01*
X181600Y376265D01*
X182302Y376404D01*
X182898Y376802D01*
X183296Y377398D01*
X183435Y378100D01*
X183296Y378802D01*
X182898Y379398D01*
X182302Y379796D01*
X181600Y379935D01*
D02*
G37*
G36*
X147700Y371135D02*
X146998Y370996D01*
X146402Y370598D01*
X146004Y370002D01*
X145865Y369300D01*
X146004Y368598D01*
X146402Y368002D01*
X146998Y367604D01*
X147700Y367465D01*
X148402Y367604D01*
X148998Y368002D01*
X149396Y368598D01*
X149535Y369300D01*
X149396Y370002D01*
X148998Y370598D01*
X148402Y370996D01*
X147700Y371135D01*
D02*
G37*
G36*
X198400Y351635D02*
X197698Y351496D01*
X197102Y351098D01*
X196704Y350502D01*
X196565Y349800D01*
X196704Y349098D01*
X197102Y348502D01*
X197698Y348104D01*
X198400Y347965D01*
X199102Y348104D01*
X199698Y348502D01*
X200096Y349098D01*
X200235Y349800D01*
X200096Y350502D01*
X199698Y351098D01*
X199102Y351496D01*
X198400Y351635D01*
D02*
G37*
G36*
X217400Y353745D02*
X216503Y353567D01*
X215742Y353058D01*
X215233Y352297D01*
X215055Y351400D01*
X215233Y350503D01*
X215742Y349742D01*
X216042Y349442D01*
X216042Y349442D01*
X216803Y348933D01*
X217700Y348755D01*
X220005D01*
X220415Y348255D01*
X220365Y348000D01*
X220504Y347298D01*
X220902Y346702D01*
X221498Y346304D01*
X222200Y346165D01*
X222902Y346304D01*
X223498Y346702D01*
X223896Y347298D01*
X224035Y348000D01*
X223985Y348255D01*
X224395Y348755D01*
X229300D01*
X230197Y348933D01*
X230958Y349442D01*
X231467Y350203D01*
X231645Y351100D01*
X231467Y351997D01*
X230958Y352758D01*
X230197Y353267D01*
X229300Y353445D01*
X218479D01*
X218297Y353567D01*
X217400Y353745D01*
D02*
G37*
G36*
X201800Y341735D02*
X201098Y341596D01*
X200502Y341198D01*
X200104Y340602D01*
X199965Y339900D01*
X200104Y339198D01*
X200502Y338602D01*
X201098Y338204D01*
X201800Y338065D01*
X202502Y338204D01*
X203098Y338602D01*
X203496Y339198D01*
X203635Y339900D01*
X203496Y340602D01*
X203098Y341198D01*
X202502Y341596D01*
X201800Y341735D01*
D02*
G37*
G36*
X280300Y304535D02*
X279598Y304396D01*
X279002Y303998D01*
X278604Y303402D01*
X278465Y302700D01*
X278604Y301998D01*
X279002Y301402D01*
X279598Y301004D01*
X280300Y300865D01*
X281002Y301004D01*
X281598Y301402D01*
X281996Y301998D01*
X282135Y302700D01*
X281996Y303402D01*
X281598Y303998D01*
X281002Y304396D01*
X280300Y304535D01*
D02*
G37*
G36*
X232300Y304435D02*
X231598Y304296D01*
X231002Y303898D01*
X230604Y303302D01*
X230465Y302600D01*
X230604Y301898D01*
X231002Y301302D01*
X231373Y301055D01*
X231204Y300802D01*
X231065Y300100D01*
X231204Y299398D01*
X231602Y298802D01*
X232198Y298404D01*
X232900Y298265D01*
X233602Y298404D01*
X234198Y298802D01*
X234399Y299104D01*
X234698Y298904D01*
X235400Y298765D01*
X236102Y298904D01*
X236698Y299302D01*
X237096Y299898D01*
X237235Y300600D01*
X237096Y301302D01*
X236698Y301898D01*
X236102Y302296D01*
X235400Y302435D01*
X234698Y302296D01*
X234567Y302208D01*
X234117Y302509D01*
X234135Y302600D01*
X233996Y303302D01*
X233598Y303898D01*
X233002Y304296D01*
X232300Y304435D01*
D02*
G37*
G36*
X262400Y303935D02*
X261698Y303796D01*
X261102Y303398D01*
X260704Y302802D01*
X260565Y302100D01*
X260704Y301398D01*
X261102Y300802D01*
X261698Y300404D01*
X262400Y300265D01*
X262665Y300000D01*
X262804Y299298D01*
X263202Y298702D01*
X263798Y298304D01*
X264500Y298165D01*
X265202Y298304D01*
X265798Y298702D01*
X266196Y299298D01*
X266335Y300000D01*
X266196Y300702D01*
X265798Y301298D01*
X265202Y301696D01*
X264500Y301835D01*
X264235Y302100D01*
X264096Y302802D01*
X263698Y303398D01*
X263102Y303796D01*
X262400Y303935D01*
D02*
G37*
G36*
X187700Y308435D02*
X186998Y308296D01*
X186402Y307898D01*
X186004Y307302D01*
X185865Y306600D01*
X185916Y306345D01*
X185505Y305845D01*
X160600D01*
X159703Y305667D01*
X158942Y305158D01*
X158433Y304397D01*
X158255Y303500D01*
X158433Y302603D01*
X158942Y301842D01*
X159703Y301333D01*
X160600Y301155D01*
X167898D01*
X168176Y300739D01*
X168049Y300432D01*
X167913Y299400D01*
X168049Y298368D01*
X168447Y297407D01*
X169081Y296581D01*
X169907Y295947D01*
X170868Y295549D01*
X171900Y295413D01*
X172932Y295549D01*
X173893Y295947D01*
X174719Y296581D01*
X175353Y297407D01*
X175751Y298368D01*
X175887Y299400D01*
X175751Y300432D01*
X175624Y300739D01*
X175901Y301155D01*
X177899D01*
X178176Y300739D01*
X178049Y300432D01*
X177913Y299400D01*
X178049Y298368D01*
X178447Y297407D01*
X179081Y296581D01*
X179907Y295947D01*
X180868Y295549D01*
X181900Y295413D01*
X182932Y295549D01*
X183893Y295947D01*
X184719Y296581D01*
X185353Y297407D01*
X185751Y298368D01*
X185887Y299400D01*
X185751Y300432D01*
X185624Y300739D01*
X185901Y301155D01*
X202529D01*
X203342Y300342D01*
X203613Y300160D01*
X203704Y299702D01*
X203565Y299000D01*
X203704Y298298D01*
X204102Y297702D01*
X204698Y297304D01*
X205400Y297165D01*
X206102Y297304D01*
X206698Y297702D01*
X207096Y298298D01*
X207235Y299000D01*
X207096Y299702D01*
X206698Y300298D01*
X206919Y300732D01*
X207167Y301103D01*
X207345Y302000D01*
X207167Y302897D01*
X206658Y303658D01*
X205158Y305158D01*
X204397Y305667D01*
X203500Y305845D01*
X189895D01*
X189485Y306345D01*
X189535Y306600D01*
X189396Y307302D01*
X188998Y307898D01*
X188402Y308296D01*
X187700Y308435D01*
D02*
G37*
G36*
X155100Y303730D02*
X154186Y303610D01*
X153335Y303257D01*
X152604Y302696D01*
X152043Y301965D01*
X151690Y301114D01*
X151570Y300200D01*
X151690Y299286D01*
X152043Y298435D01*
X152604Y297704D01*
X153335Y297143D01*
X154186Y296790D01*
X155100Y296670D01*
X156014Y296790D01*
X156865Y297143D01*
X157596Y297704D01*
X158157Y298435D01*
X158510Y299286D01*
X158630Y300200D01*
X158510Y301114D01*
X158157Y301965D01*
X157596Y302696D01*
X156865Y303257D01*
X156014Y303610D01*
X155100Y303730D01*
D02*
G37*
G36*
X205600Y287474D02*
X176800D01*
X176082Y287379D01*
X175413Y287102D01*
X174839Y286661D01*
X174398Y286087D01*
X174121Y285418D01*
X174026Y284700D01*
X174121Y283982D01*
X174398Y283313D01*
X174839Y282739D01*
X175413Y282298D01*
X176082Y282021D01*
X176800Y281926D01*
X205600D01*
X206318Y282021D01*
X206987Y282298D01*
X207561Y282739D01*
X208002Y283313D01*
X208279Y283982D01*
X208374Y284700D01*
X208279Y285418D01*
X208002Y286087D01*
X207561Y286661D01*
X206987Y287102D01*
X206318Y287379D01*
X205600Y287474D01*
D02*
G37*
G36*
X171600Y275587D02*
X170491Y275441D01*
X169457Y275012D01*
X168569Y274331D01*
X167888Y273443D01*
X167459Y272410D01*
X167313Y271300D01*
X167459Y270191D01*
X167888Y269157D01*
X168569Y268269D01*
X169457Y267588D01*
X170491Y267159D01*
X171600Y267013D01*
X172710Y267159D01*
X173743Y267588D01*
X174631Y268269D01*
X175312Y269157D01*
X175741Y270191D01*
X175887Y271300D01*
X175741Y272410D01*
X175312Y273443D01*
X174631Y274331D01*
X173743Y275012D01*
X172710Y275441D01*
X171600Y275587D01*
D02*
G37*
G36*
X223700Y266235D02*
X222998Y266096D01*
X222402Y265698D01*
X222004Y265102D01*
X221865Y264400D01*
X222004Y263698D01*
X222402Y263102D01*
X222998Y262704D01*
X223700Y262565D01*
X224402Y262704D01*
X224998Y263102D01*
X225396Y263698D01*
X225535Y264400D01*
X225396Y265102D01*
X224998Y265698D01*
X224402Y266096D01*
X223700Y266235D01*
D02*
G37*
G36*
X327461Y260578D02*
X326482Y260449D01*
X325570Y260071D01*
X324786Y259470D01*
X324185Y258686D01*
X323807Y257774D01*
X323678Y256795D01*
X323807Y255816D01*
X324185Y254904D01*
X324786Y254121D01*
X325570Y253520D01*
X326482Y253142D01*
X327461Y253013D01*
X328440Y253142D01*
X329352Y253520D01*
X330135Y254121D01*
X330736Y254904D01*
X330757Y254955D01*
X348200D01*
X349097Y255133D01*
X349858Y255642D01*
X350367Y256403D01*
X350545Y257300D01*
X350367Y258197D01*
X349858Y258958D01*
X349097Y259467D01*
X348200Y259645D01*
X329907D01*
X329352Y260071D01*
X328440Y260449D01*
X327461Y260578D01*
D02*
G37*
G36*
X160600Y266445D02*
X159703Y266267D01*
X158942Y265758D01*
X158729Y265545D01*
X146600D01*
X145703Y265367D01*
X144942Y264858D01*
X144433Y264097D01*
X144255Y263200D01*
X144433Y262303D01*
X144942Y261542D01*
X145467Y261191D01*
Y260609D01*
X144942Y260258D01*
X144433Y259497D01*
X144255Y258600D01*
X144433Y257703D01*
X144942Y256942D01*
X145703Y256433D01*
X146600Y256255D01*
X176929D01*
X180942Y252242D01*
X181703Y251733D01*
X182600Y251555D01*
X191500D01*
X192397Y251733D01*
X193158Y252242D01*
X193667Y253003D01*
X193845Y253900D01*
X193667Y254797D01*
X193158Y255558D01*
X192397Y256067D01*
X191500Y256245D01*
X183571D01*
X179558Y260258D01*
X178797Y260767D01*
X177900Y260945D01*
X161365D01*
X161213Y261445D01*
X161358Y261542D01*
X162258Y262442D01*
X162767Y263203D01*
X162945Y264100D01*
X162767Y264997D01*
X162258Y265758D01*
X161497Y266267D01*
X160600Y266445D01*
D02*
G37*
G36*
X287000Y253035D02*
X286298Y252896D01*
X285702Y252498D01*
X285304Y251902D01*
X285165Y251200D01*
X285304Y250498D01*
X285702Y249902D01*
X286298Y249504D01*
X287000Y249365D01*
X287702Y249504D01*
X288298Y249902D01*
X288696Y250498D01*
X288835Y251200D01*
X288696Y251902D01*
X288298Y252498D01*
X287702Y252896D01*
X287000Y253035D01*
D02*
G37*
G36*
X302000Y236174D02*
X255000D01*
X254282Y236079D01*
X253613Y235802D01*
X253039Y235361D01*
X252598Y234787D01*
X252321Y234118D01*
X252226Y233400D01*
X252321Y232682D01*
X252598Y232013D01*
X253039Y231439D01*
X253613Y230998D01*
X254282Y230721D01*
X255000Y230626D01*
X301369D01*
X301382Y230621D01*
X302100Y230526D01*
X302818Y230621D01*
X303487Y230898D01*
X304061Y231339D01*
X304502Y231913D01*
X304779Y232582D01*
X304874Y233300D01*
X304779Y234018D01*
X304502Y234687D01*
X304061Y235261D01*
X303961Y235361D01*
X303387Y235802D01*
X302718Y236079D01*
X302000Y236174D01*
D02*
G37*
G36*
X241324Y226245D02*
X240427Y226067D01*
X239666Y225558D01*
X239153Y225045D01*
X220307D01*
X220296Y225102D01*
X219898Y225698D01*
X219302Y226096D01*
X218600Y226235D01*
X217898Y226096D01*
X217302Y225698D01*
X217200Y225545D01*
X159200D01*
X159200Y225545D01*
X158303Y225367D01*
X157542Y224858D01*
X150442Y217758D01*
X149933Y216997D01*
X149755Y216100D01*
X149933Y215203D01*
X150442Y214442D01*
X151203Y213933D01*
X152100Y213755D01*
X152997Y213933D01*
X153758Y214442D01*
X155929Y216613D01*
X156427Y216564D01*
X156442Y216542D01*
X157203Y216033D01*
X158100Y215855D01*
X158997Y216033D01*
X159628Y216455D01*
X161584D01*
X161733Y215703D01*
X162242Y214942D01*
X163003Y214433D01*
X163900Y214255D01*
X164797Y214433D01*
X165279Y214755D01*
X168133D01*
X168204Y214398D01*
X168602Y213802D01*
X169198Y213404D01*
X169900Y213265D01*
X170602Y213404D01*
X171198Y213802D01*
X171596Y214398D01*
X171667Y214755D01*
X180304D01*
X180433Y214103D01*
X180942Y213342D01*
X184242Y210042D01*
X184242Y210042D01*
X185003Y209533D01*
X185900Y209355D01*
X186594D01*
X186704Y208798D01*
X187102Y208202D01*
X187698Y207804D01*
X188400Y207665D01*
X189102Y207804D01*
X189698Y208202D01*
X190096Y208798D01*
X190206Y209355D01*
X193218D01*
X193555Y208855D01*
X193465Y208400D01*
X193604Y207698D01*
X194002Y207102D01*
X194598Y206704D01*
X195300Y206565D01*
X196002Y206704D01*
X196598Y207102D01*
X196996Y207698D01*
X197135Y208400D01*
X197045Y208855D01*
X197382Y209355D01*
X198635D01*
X199045Y208855D01*
X198955Y208400D01*
X199133Y207503D01*
X199642Y206742D01*
X200403Y206233D01*
X201300Y206055D01*
X223058D01*
X223382Y205921D01*
X224100Y205826D01*
X224500D01*
X225218Y205921D01*
X225887Y206198D01*
X226461Y206639D01*
X227349Y207526D01*
X238059D01*
X238306Y207026D01*
X237961Y206576D01*
X237533Y205542D01*
X237387Y204433D01*
X237533Y203324D01*
X237961Y202290D01*
X238642Y201402D01*
X239530Y200721D01*
X240564Y200292D01*
X241673Y200146D01*
X242783Y200292D01*
X243817Y200721D01*
X244704Y201402D01*
X245386Y202290D01*
X245814Y203324D01*
X245960Y204433D01*
X245814Y205542D01*
X245386Y206576D01*
X245040Y207026D01*
X245287Y207526D01*
X305800D01*
X306518Y207621D01*
X307187Y207898D01*
X307761Y208339D01*
X308202Y208913D01*
X308479Y209582D01*
X308574Y210300D01*
X308479Y211018D01*
X308202Y211687D01*
X307761Y212261D01*
X307187Y212702D01*
X306518Y212979D01*
X305800Y213074D01*
X226200D01*
X225482Y212979D01*
X224813Y212702D01*
X224239Y212261D01*
X223168Y211191D01*
X222713Y211002D01*
X222378Y210745D01*
X215615D01*
X215423Y211207D01*
X215658Y211442D01*
X216167Y212203D01*
X216276Y212755D01*
X218300D01*
X219197Y212933D01*
X219958Y213442D01*
X220558Y214042D01*
X221067Y214803D01*
X221245Y215700D01*
X221067Y216597D01*
X220558Y217358D01*
X219797Y217867D01*
X218900Y218045D01*
X218003Y217867D01*
X217372Y217445D01*
X212467D01*
X212154Y217758D01*
X211393Y218267D01*
X210496Y218445D01*
X206595D01*
X206393Y218945D01*
X206696Y219398D01*
X206835Y220100D01*
X206785Y220355D01*
X207195Y220855D01*
X216517D01*
X216998Y220533D01*
X217896Y220355D01*
X217896Y220355D01*
X240124D01*
X241022Y220533D01*
X241782Y221042D01*
X242296Y221555D01*
X244855D01*
X244973Y221531D01*
X251128D01*
X251233Y221003D01*
X251742Y220242D01*
X252503Y219733D01*
X253400Y219555D01*
X338100D01*
X338997Y219733D01*
X339758Y220242D01*
X340267Y221003D01*
X340445Y221900D01*
X340267Y222797D01*
X339758Y223558D01*
X338997Y224067D01*
X338100Y224245D01*
X261237D01*
X261167Y224597D01*
X260658Y225358D01*
X260482Y225535D01*
X259721Y226043D01*
X258824Y226221D01*
X245069D01*
X244950Y226245D01*
X241324D01*
X241324Y226245D01*
D02*
G37*
G36*
X226400Y219635D02*
X225698Y219496D01*
X225102Y219098D01*
X224704Y218502D01*
X224565Y217800D01*
X224704Y217098D01*
X225102Y216502D01*
X225698Y216104D01*
X226400Y215965D01*
X227102Y216104D01*
X227698Y216502D01*
X228096Y217098D01*
X228235Y217800D01*
X228096Y218502D01*
X227698Y219098D01*
X227102Y219496D01*
X226400Y219635D01*
D02*
G37*
G36*
X298500Y218845D02*
X297603Y218667D01*
X297377Y218516D01*
X237171D01*
X236273Y218337D01*
X235513Y217829D01*
X235342Y217658D01*
X234833Y216897D01*
X234655Y216000D01*
X234833Y215103D01*
X235342Y214342D01*
X236103Y213833D01*
X237000Y213655D01*
X237859Y213826D01*
X298171D01*
X299068Y214004D01*
X299829Y214513D01*
X300158Y214842D01*
X300667Y215603D01*
X300845Y216500D01*
X300667Y217397D01*
X300158Y218158D01*
X299397Y218667D01*
X298500Y218845D01*
D02*
G37*
G36*
X217000Y204335D02*
X216298Y204196D01*
X215702Y203798D01*
X215304Y203202D01*
X215165Y202500D01*
X215304Y201798D01*
X215702Y201202D01*
X216298Y200804D01*
X217000Y200665D01*
X217702Y200804D01*
X218298Y201202D01*
X218696Y201798D01*
X218835Y202500D01*
X218696Y203202D01*
X218298Y203798D01*
X217702Y204196D01*
X217000Y204335D01*
D02*
G37*
G36*
X197900Y202335D02*
X197198Y202196D01*
X196602Y201798D01*
X196204Y201202D01*
X196065Y200500D01*
X196204Y199798D01*
X196602Y199202D01*
X197198Y198804D01*
X197900Y198665D01*
X198602Y198804D01*
X199198Y199202D01*
X199596Y199798D01*
X199735Y200500D01*
X199596Y201202D01*
X199198Y201798D01*
X198602Y202196D01*
X197900Y202335D01*
D02*
G37*
G36*
X302300Y196335D02*
X301598Y196196D01*
X301002Y195798D01*
X300604Y195202D01*
X300465Y194500D01*
X300604Y193798D01*
X301002Y193202D01*
X301598Y192804D01*
X302300Y192665D01*
X303002Y192804D01*
X303598Y193202D01*
X303996Y193798D01*
X304135Y194500D01*
X303996Y195202D01*
X303598Y195798D01*
X303002Y196196D01*
X302300Y196335D01*
D02*
G37*
G36*
X237000Y194535D02*
X236298Y194396D01*
X235702Y193998D01*
X235304Y193402D01*
X235165Y192700D01*
X235304Y191998D01*
X235702Y191402D01*
X236298Y191004D01*
X237000Y190865D01*
X237702Y191004D01*
X238298Y191402D01*
X238696Y191998D01*
X238835Y192700D01*
X238696Y193402D01*
X238298Y193998D01*
X237702Y194396D01*
X237000Y194535D01*
D02*
G37*
G36*
X198000Y193035D02*
X197298Y192896D01*
X196702Y192498D01*
X196304Y191902D01*
X196165Y191200D01*
X196304Y190498D01*
X196702Y189902D01*
X197298Y189504D01*
X198000Y189365D01*
X198702Y189504D01*
X199298Y189902D01*
X199696Y190498D01*
X199835Y191200D01*
X199696Y191902D01*
X199298Y192498D01*
X198702Y192896D01*
X198000Y193035D01*
D02*
G37*
%LPD*%
G36*
X203216Y220355D02*
X203165Y220100D01*
X203304Y219398D01*
X203702Y218802D01*
X204103Y218534D01*
X204118Y218489D01*
X204018Y217990D01*
X203903Y217967D01*
X203142Y217458D01*
X202633Y216697D01*
X202455Y215800D01*
X202633Y214903D01*
X202872Y214545D01*
X202605Y214045D01*
X187029D01*
X186867Y214255D01*
X187112Y214755D01*
X195000D01*
X195897Y214933D01*
X196658Y215442D01*
X197167Y216203D01*
X197188Y216311D01*
X197702Y216381D01*
X197942Y216142D01*
X198703Y215633D01*
X199600Y215455D01*
X200497Y215633D01*
X201258Y216142D01*
X201767Y216903D01*
X201945Y217800D01*
X201767Y218697D01*
X201258Y219458D01*
X200361Y220355D01*
X200507Y220855D01*
X202805D01*
X203216Y220355D01*
D02*
G37*
%LPC*%
G36*
X279643Y334593D02*
X278941Y334453D01*
X278346Y334055D01*
X277948Y333460D01*
X277808Y332757D01*
X277948Y332055D01*
X278346Y331460D01*
X278941Y331062D01*
X279643Y330922D01*
X280346Y331062D01*
X280941Y331460D01*
X281339Y332055D01*
X281479Y332757D01*
X281339Y333460D01*
X280941Y334055D01*
X280346Y334453D01*
X279643Y334593D01*
D02*
G37*
%LPD*%
D15*
X393100Y209600D02*
X406900D01*
X409900Y206600D01*
X410100Y271800D02*
Y272800D01*
X405000Y277900D02*
X410100Y272800D01*
X393500Y277900D02*
X405000D01*
X405900Y344000D02*
X409900Y340000D01*
X393700Y344000D02*
X405900D01*
X405300Y410500D02*
X410000Y405800D01*
X392300Y410500D02*
X405300D01*
X519400Y392800D02*
X520600Y394000D01*
X453700Y395100D02*
X456000Y392800D01*
X519400D01*
X409900Y339640D02*
Y340000D01*
D65*
X182600Y253900D02*
X191500D01*
X177900Y258600D02*
X182600Y253900D01*
X146600Y258600D02*
X177900D01*
X203500Y303500D02*
X205000Y302000D01*
X160600Y303500D02*
X203500D01*
X262600Y263000D02*
X324700D01*
X261700Y262100D02*
X262600Y263000D01*
X237171Y216171D02*
X298171D01*
X298500Y216500D01*
X244973Y223876D02*
X258824D01*
X259000Y223700D01*
X338000Y271800D02*
X344500D01*
X210700Y325400D02*
X316065D01*
X325445Y323145D02*
X327461Y325161D01*
X222200Y362700D02*
X322000D01*
X326095Y366795D01*
X222000Y362500D02*
X222200Y362700D01*
X242700Y356900D02*
X242805Y356795D01*
X327556Y366700D02*
X338400D01*
X263400Y445000D02*
X263500Y445100D01*
X239500Y445000D02*
X263400D01*
X208200Y316600D02*
X208500Y316900D01*
X317356D02*
X317461Y316795D01*
X303700Y301900D02*
X303955Y301645D01*
X304966Y400600D02*
X309587Y405221D01*
X255100Y400600D02*
X304966D01*
X324300Y411300D02*
X327200Y408400D01*
X258800Y411300D02*
X324300D01*
X277700Y321100D02*
X341700D01*
X341800Y321000D01*
X324645Y313145D02*
X327461Y315961D01*
X327556Y386700D02*
X350500D01*
X327461Y356795D02*
X327565Y356900D01*
X333300D01*
X317461Y356795D02*
X321265Y360600D01*
X345400D01*
X276700Y337800D02*
X316456D01*
X317461Y336795D01*
X243400Y326600D02*
X296497D01*
X217400Y351400D02*
X217700Y351100D01*
X229300D01*
X229100Y382200D02*
X229300Y382000D01*
X290500D01*
X291700Y380800D01*
X320500D01*
X317461Y376795D02*
Y377761D01*
X320500Y380800D01*
X343400D01*
X314100Y390800D02*
X317100Y387800D01*
X280100Y390900D02*
X280200Y390800D01*
X314100D01*
X327461Y276795D02*
X330165Y279500D01*
X327656Y266600D02*
X351500D01*
X327461Y256795D02*
X327965Y257300D01*
X348200D01*
X476600Y367100D02*
X521100D01*
X523924Y364276D01*
X531201D01*
X463600Y330800D02*
X534700D01*
X538176Y334276D01*
X546201D01*
X475000Y369200D02*
X538701Y369276D01*
X481600Y405900D02*
X481700Y406000D01*
X525900D01*
X537624Y394276D01*
X546201D01*
X483000Y403800D02*
X521676D01*
X531201Y394276D01*
X358300Y419000D02*
X368200D01*
X529024Y394276D02*
X531201D01*
X456200Y211600D02*
X530700D01*
X535276Y216176D01*
X564824D01*
X565000Y216000D01*
X564576Y324276D02*
X565000Y324700D01*
X546201Y324276D02*
X564576D01*
X530276Y335200D02*
X531201Y334276D01*
X530125Y293200D02*
X531201Y294276D01*
X534024Y297676D02*
X535824Y295876D01*
X505676Y297676D02*
X534024D01*
X504100Y296100D02*
X505676Y297676D01*
X538676Y339300D02*
X538701Y339276D01*
X530925Y344000D02*
X531201Y344276D01*
X465600Y425900D02*
X505000D01*
X465500Y422000D02*
X502500D01*
X538576Y299400D02*
X538701Y299276D01*
X530276Y315200D02*
X531201Y314276D01*
X465400Y297000D02*
X491000D01*
X530376Y245100D02*
X531201Y244276D01*
X538025Y268600D02*
X538701Y269276D01*
X499600Y313500D02*
X525300D01*
X528200Y310600D01*
X533900D01*
X537576Y314276D01*
X546201D01*
X538625Y309200D02*
X538701Y309276D01*
X544976D02*
X553701D01*
X529876Y305600D02*
X531201Y304276D01*
X534776Y300876D02*
X537000Y303100D01*
X545025D01*
X546201Y304276D01*
X491100Y299400D02*
X538576D01*
X538425Y239000D02*
X538701Y239276D01*
X491000Y239000D02*
X538425D01*
X530676Y264800D02*
X531201Y264276D01*
X529976Y255500D02*
X531201Y254276D01*
X545276Y299276D02*
X553701D01*
X505500Y291000D02*
X505624Y290876D01*
X533776D01*
X535824Y295876D02*
X541876D01*
X545276Y299276D01*
X533776Y290876D02*
X537176Y294276D01*
X546201D01*
X531025Y284100D02*
X531201Y284276D01*
X495300Y284100D02*
X531025D01*
X527800Y287900D02*
X533900D01*
X536500Y285300D01*
X540700D01*
X544676Y289276D01*
X553701D01*
X538525Y289100D02*
X538701Y289276D01*
X537125Y247700D02*
X538701Y249276D01*
X496800Y281400D02*
X498924Y279276D01*
X538701D01*
X536600Y283600D02*
X545525D01*
X546201Y284276D01*
X536500Y275400D02*
X540800D01*
X544676Y279276D01*
X553701D01*
X533724Y267676D02*
X537124Y264276D01*
X546201D01*
X534000Y260500D02*
X536500Y263000D01*
X541400D01*
X545124Y259276D01*
X553701D01*
X533624Y257676D02*
X537024Y254276D01*
X546201D01*
X536100Y252900D02*
X541300D01*
X544924Y249276D01*
X553701D01*
X534076Y250876D02*
X536100Y252900D01*
X538124Y244276D02*
X546201D01*
X534476Y240876D02*
X536276Y242676D01*
X541824D01*
X545224Y239276D01*
X553701D01*
X146600Y263200D02*
X159700D01*
X160600Y264100D01*
X147300Y240800D02*
X187800D01*
X141400Y234900D02*
X147300Y240800D01*
X237000Y216000D02*
X237171Y216171D01*
X241324Y223900D02*
X244950D01*
X244973Y223876D01*
X458500Y325700D02*
X463600Y330800D01*
X436100Y325700D02*
X458500D01*
X429300Y332500D02*
X436100Y325700D01*
X537476Y344276D02*
X546201D01*
X533800Y340600D02*
X537476Y344276D01*
X526200Y340600D02*
X533800D01*
X524097Y344400D02*
X524497Y344000D01*
X530925D01*
X523600Y343200D02*
X526200Y340600D01*
X518200Y343200D02*
X523600D01*
X316465Y365800D02*
X317461Y366795D01*
X327461Y286795D02*
X329156Y285100D01*
X326095Y366795D02*
X327461D01*
X327556Y366700D01*
X317365Y296700D02*
X317461Y296795D01*
X299200Y296700D02*
X317365D01*
X327461Y386795D02*
X327556Y386700D01*
X327461Y265761D02*
Y266795D01*
X327656Y266600D01*
X208500Y316900D02*
X317356D01*
X242805Y356795D02*
X317461D01*
X316065Y325400D02*
X317461Y326795D01*
X327461Y315961D02*
Y316795D01*
Y325161D02*
Y326795D01*
X158200Y388800D02*
X261700D01*
X158100Y388700D02*
X158200Y388800D01*
X256900Y372000D02*
X257000Y372100D01*
X162200Y372000D02*
X256900D01*
X322865Y292200D02*
X327461Y296795D01*
X257400Y295600D02*
X260400Y292600D01*
X289900D01*
X293300Y296000D01*
X327461Y306795D02*
Y309039D01*
X303955Y301645D02*
X329469D01*
X317461Y296795D02*
X321111Y300445D01*
X328973D01*
X317461Y306795D02*
X321411Y302845D01*
X332055D01*
X350400Y305200D02*
Y306500D01*
Y305200D02*
X353100Y302500D01*
X434900Y305700D02*
X441900D01*
X446700Y300900D01*
X483000D01*
X442900Y306900D02*
X447100Y302700D01*
X481200D01*
X433997Y306900D02*
X442900D01*
X528724Y300876D02*
X534776D01*
X526200Y303400D02*
X528724Y300876D01*
X378879Y300000D02*
X388479Y309600D01*
X475700D02*
X476400Y308900D01*
X388479Y309600D02*
X475700D01*
X380300Y284400D02*
X390500D01*
X390800Y284100D01*
X396600D01*
X396800Y284300D01*
X410800D01*
X411500Y285000D01*
X538100Y384400D02*
X540600D01*
X545476Y389276D01*
X553701D01*
X534824Y387676D02*
X538100Y384400D01*
X476000Y390300D02*
X513300D01*
X515800Y387800D01*
X479000Y388600D02*
X481000Y386600D01*
X524597D02*
X525673Y387676D01*
X534824D01*
X481000Y386600D02*
X524597D01*
X515800Y387800D02*
X524100D01*
X525576Y389276D01*
X538701D01*
X212900Y290600D02*
X214300Y292000D01*
X244300D01*
X249700Y286600D01*
X329220Y280445D02*
X330165Y279500D01*
X290200Y276700D02*
X296600D01*
X296695Y276795D01*
X249700Y286600D02*
X283000D01*
X277500Y283200D02*
X277700Y283000D01*
X283000Y286600D02*
X285400Y284200D01*
X301300Y306500D02*
X317165D01*
X317461Y306795D01*
X219200Y343100D02*
X219800Y342500D01*
X261500D01*
X350455Y350445D02*
X350500Y350400D01*
X324895Y356795D02*
X327461D01*
X271000Y352200D02*
X271100Y352300D01*
X320400D01*
X324895Y356795D01*
X266745Y350445D02*
X350455D01*
X304700Y333400D02*
X304955Y333145D01*
X323811D01*
X327461Y336795D01*
X268200Y199300D02*
X316000D01*
X319800Y195500D01*
Y190800D02*
Y195500D01*
X317359Y346897D02*
X317461Y346795D01*
X311600Y344800D02*
X313255Y343145D01*
X322045D01*
X317461Y336795D02*
X320786D01*
X324436Y340445D01*
X328973D01*
X322894Y340600D02*
X323939Y341645D01*
X322397Y341800D02*
X323442Y342845D01*
X334355D01*
X322045Y343145D02*
X325695Y346795D01*
X327461D01*
X327556Y346700D02*
X336200D01*
X327461Y346795D02*
X327556Y346700D01*
X272900Y280200D02*
X293700D01*
X267635Y281773D02*
X268248Y282386D01*
X270714D01*
X272900Y280200D01*
X204800Y215800D02*
X205200D01*
X205500Y216100D02*
X210496D01*
X211496Y215100D01*
X218300D01*
X218900Y215700D01*
X182600Y215000D02*
X185900Y211700D01*
X199499Y236700D02*
X200299Y237500D01*
X249600Y236900D02*
X249800Y236700D01*
X200299Y237500D02*
X204396D01*
X205296Y236600D01*
X217196D01*
X217496Y236900D01*
X249600D01*
X197000Y234600D02*
X199096D01*
X200796Y236300D01*
X203899D01*
X204999Y235200D01*
X218200D01*
X185900Y211700D02*
X206796D01*
X207096Y212000D01*
X212900D02*
X214000Y213100D01*
X207096Y212000D02*
X212900D01*
X304500Y348800D02*
X304800Y348500D01*
X261500Y342500D02*
X267800Y348800D01*
X304500D01*
X305601Y346897D02*
X317359D01*
X269600Y337800D02*
X271386Y339586D01*
X268200Y340500D02*
X268900Y341200D01*
X344500Y271800D02*
X346300Y273600D01*
X348800Y275800D02*
X348900Y275700D01*
X344200Y303700D02*
X347503D01*
X334355Y342845D02*
X336400Y340800D01*
X336600D01*
X335896Y339100D02*
X340000D01*
X323939Y341645D02*
X333351D01*
X335896Y339100D01*
X328973Y340445D02*
X332018Y337400D01*
X341100D01*
X342100Y338400D01*
X340400Y281400D02*
X341100Y280700D01*
X344200Y282400D02*
X344300Y282500D01*
X329756Y285700D02*
X337600D01*
X338000Y285300D01*
X334100Y283500D02*
X342501D01*
X346300Y273600D02*
X359800D01*
X341900Y287000D02*
X342000Y287100D01*
X338200Y288200D02*
X338800Y288800D01*
X338200Y287900D02*
Y288200D01*
X342000Y287100D02*
X359300D01*
X377100Y281200D02*
X380300Y284400D01*
X353100Y302500D02*
X357800D01*
X328973Y300445D02*
X334618Y294800D01*
X329469Y301645D02*
X335115Y296000D01*
X332055Y302845D02*
X337700Y297200D01*
X347503Y303700D02*
X352214Y298989D01*
X352100Y300800D02*
X359389D01*
X359500Y300689D01*
X435500Y355300D02*
X441700D01*
X435600Y352200D02*
X441800D01*
X435300Y348800D02*
X441600D01*
X421500Y266000D02*
X422100Y266600D01*
X441700D01*
X441500Y263600D02*
X441600Y263700D01*
X427000Y263600D02*
X441500D01*
X441100Y259900D02*
X441700Y260500D01*
X427000Y259900D02*
X441100D01*
X428300Y256500D02*
X429100Y257300D01*
X441700D01*
X441100Y252100D02*
X441500Y252500D01*
X430900Y249000D02*
X431700Y249800D01*
X441700D01*
X434400Y243300D02*
X441800D01*
X433600Y242500D02*
X434400Y243300D01*
X434600Y210600D02*
X435900Y211900D01*
X441900D01*
X434700Y233900D02*
X435900Y235100D01*
X441800D01*
X429800Y252100D02*
X441100D01*
X432500Y246400D02*
X441800D01*
X429600Y251900D02*
X429800Y252100D01*
X436600Y232400D02*
X441700D01*
X434600Y230400D02*
X436600Y232400D01*
X434600Y227100D02*
X439900D01*
X441500Y228700D01*
X435800Y225600D02*
X441600D01*
X434000Y223800D02*
X434600D01*
X433800Y223600D02*
X434000Y223800D01*
X440100Y220400D02*
X440200Y220300D01*
X434600Y220400D02*
X440100D01*
X440200Y220300D02*
X441200Y221300D01*
X441800D01*
X441000Y217400D02*
X441800Y218200D01*
X434700Y217400D02*
X441000D01*
X441400Y214800D02*
X441700Y215100D01*
X434700Y214800D02*
X441400D01*
X441300Y361400D02*
X441900Y362000D01*
X434200Y361400D02*
X441300D01*
X441500Y365000D02*
X441600Y365100D01*
X434700Y365000D02*
X441500D01*
Y368400D02*
X441700Y368200D01*
X434500Y368400D02*
X441500D01*
X436400Y285200D02*
X441500D01*
X436000Y288400D02*
X441500D01*
X436900Y292700D02*
X441700D01*
X436900Y296000D02*
X441600D01*
X435400Y433400D02*
X436100Y434100D01*
X442800D01*
X442200Y430100D02*
X442900Y430800D01*
X434600Y430100D02*
X442200D01*
X442000Y426800D02*
X442700Y427500D01*
X434700Y426800D02*
X442000D01*
X434700Y424100D02*
X442800D01*
X442300Y419900D02*
X442500Y419700D01*
X435200Y419900D02*
X442300D01*
X442200Y416900D02*
X442600Y416500D01*
X434800Y416900D02*
X442200D01*
X442700Y413800D02*
X443000Y413500D01*
X435100Y413800D02*
X442700D01*
X435100Y410300D02*
X441900D01*
X442800Y411200D01*
X434400Y351000D02*
X435600Y352200D01*
X433400Y351000D02*
X434400D01*
X434500Y354300D02*
X435500Y355300D01*
X434300Y354300D02*
X434500D01*
X434600Y358200D02*
X441200D01*
X441700Y358700D01*
X434200Y347700D02*
X435300Y348800D01*
X434100Y347700D02*
X434200D01*
X434300Y344400D02*
X440200D01*
X441600Y345800D01*
X441100Y301400D02*
X441600Y301900D01*
X434000Y301400D02*
X441100D01*
X441500Y298500D02*
X441600Y298600D01*
X433600Y298500D02*
X441500D01*
X434800Y293900D02*
X436900Y296000D01*
X433200Y293900D02*
X434800D01*
X435000Y290800D02*
X436900Y292700D01*
X433700Y290800D02*
X435000D01*
X434600Y287000D02*
X436000Y288400D01*
X433300Y287000D02*
X434600D01*
X435000Y283800D02*
X436400Y285200D01*
X433500Y283800D02*
X435000D01*
X440200Y280800D02*
X441500Y282100D01*
X433700Y280800D02*
X440200D01*
X440000Y277300D02*
X441500Y278800D01*
X433700Y277300D02*
X440000D01*
X201300Y208400D02*
X223900D01*
X224100Y208600D01*
X152100Y216100D02*
X159200Y223200D01*
X217396D01*
X217896Y222700D01*
X240124D01*
X241324Y223900D01*
X525600Y241000D02*
X525724Y240876D01*
X534476D01*
X523300Y251300D02*
X523724Y250876D01*
X534076D01*
X493700Y288800D02*
X494000Y289100D01*
X538525D01*
X512800Y260500D02*
X534000D01*
X513580Y258876D02*
X538301D01*
X510000Y276800D02*
X510876Y277676D01*
X534224D01*
X536500Y275400D01*
X508500Y281400D02*
X509024Y280876D01*
X533876D01*
X536600Y283600D01*
X514100Y257000D02*
X514776Y257676D01*
X533624D01*
X485000Y258400D02*
X485600Y257800D01*
X465200Y257600D02*
X477200D01*
X478200Y256600D01*
X489604Y268200D02*
X490280Y268876D01*
X465500Y418000D02*
X499400D01*
X502800Y303400D02*
X526200D01*
X501400Y307300D02*
X501776Y307676D01*
X534424D01*
X501200Y344400D02*
X524097D01*
X481400Y268800D02*
X482000Y268200D01*
X489604D01*
X480500Y274800D02*
X480700Y275000D01*
X530476D01*
X531201Y274276D01*
X493500Y293700D02*
X494000Y293200D01*
X530125D01*
X465700Y259800D02*
X466000Y260100D01*
X509100Y286000D02*
X525900D01*
X527800Y287900D01*
X359100Y352500D02*
X359600Y352000D01*
X370400D01*
X342501Y283500D02*
X343101Y284100D01*
X367900Y285300D02*
X368200Y285000D01*
X338000Y285300D02*
X367900D01*
X341100Y280700D02*
X357300D01*
X357400Y280800D01*
X368700Y288800D02*
X370400Y287100D01*
X328056Y246200D02*
X339800D01*
X327461Y246795D02*
X328056Y246200D01*
X332900Y305300D02*
X333000Y305400D01*
X347500D02*
X352100Y300800D01*
X333000Y305400D02*
X347500D01*
X260900Y344600D02*
X266745Y350445D01*
X260000Y344600D02*
X260900D01*
X412600Y322400D02*
X413300Y321700D01*
X478200D01*
X325600Y310900D02*
X327461Y309039D01*
X292900Y310900D02*
X325600D01*
X260500Y289400D02*
X295796D01*
X298596Y292200D01*
X322865D01*
X427400Y298200D02*
X434900Y305700D01*
X385894Y297100D02*
X388194Y299400D01*
X426497D01*
X433997Y306900D01*
X385000Y298800D02*
X386800Y300600D01*
X424900D01*
X432700Y308400D01*
X531100Y217000D02*
X531300Y217200D01*
X466200Y220400D02*
X467200Y221400D01*
X525900D01*
X523400Y222600D02*
X523900Y223100D01*
X464200Y222600D02*
X523400D01*
X465700Y224700D02*
X521200D01*
X522200Y225700D01*
X512611Y226700D02*
X513311Y227400D01*
X463500Y226700D02*
X512611D01*
X511200Y228400D02*
X511900Y229100D01*
X465200Y228400D02*
X511200D01*
X463900Y230700D02*
X510300D01*
X510700Y231100D01*
X512200Y266500D02*
X513376Y267676D01*
X533724D01*
X487700Y273300D02*
X509500D01*
X512000Y270800D01*
X465400Y262000D02*
X497300D01*
X466000Y260100D02*
X493200D01*
X493800Y259500D01*
X483100Y264300D02*
X530176D01*
X497300Y262000D02*
X497400Y262100D01*
X493800Y259500D02*
X500200D01*
X478200Y256600D02*
X500700D01*
X501700Y255600D01*
X503804Y251500D02*
X505300Y252996D01*
Y253100D01*
X507504Y248400D02*
X508004Y248900D01*
X535925D01*
X488200Y248300D02*
X488300Y248400D01*
X507504D01*
X488400Y243500D02*
X488549Y243352D01*
X528628D01*
X505443Y244551D02*
X507852D01*
X506600Y246600D02*
X506700Y246700D01*
X507852Y244551D02*
X508800Y245500D01*
X509300D01*
X479300Y282000D02*
X480500Y283200D01*
X464000Y282000D02*
X479300D01*
X465300Y284700D02*
X465800Y285200D01*
X482200D01*
X463400Y286500D02*
X463800Y286900D01*
X483500D02*
X483700Y287100D01*
X463800Y286900D02*
X483500D01*
X465400Y289100D02*
X485000D01*
X463000Y290800D02*
X486800D01*
X487000Y291000D01*
X465300Y293000D02*
X488900D01*
Y294800D02*
X489300Y295200D01*
X463600Y294800D02*
X488900D01*
X486600Y314300D02*
X497996D01*
X498896Y315200D01*
X526197Y314300D02*
X529376D01*
X498896Y315200D02*
X525297D01*
X526197Y314300D01*
X487700Y309300D02*
X487800Y309200D01*
X538625D01*
X503504Y305100D02*
X503604Y305000D01*
X529276D01*
X488900D02*
X489000Y305100D01*
X503504D01*
X463600Y361900D02*
X463800Y362100D01*
X463000Y349900D02*
X484500D01*
X485900Y348500D01*
X464771Y352071D02*
X465542Y351300D01*
X487500D01*
X488729Y353771D02*
X489000Y353500D01*
X463400Y354100D02*
X463729Y353771D01*
X488729D01*
X464800Y356000D02*
X465400Y355400D01*
X490500D01*
X491650Y357950D02*
X491700Y357900D01*
X463639Y357950D02*
X491650D01*
X464800Y359900D02*
X465000Y360100D01*
X493200D01*
X494300Y362100D02*
X494600Y362400D01*
X463800Y362100D02*
X494300D01*
X496300Y364100D02*
X496400Y364000D01*
X464900Y363800D02*
X465200Y364100D01*
X496300D01*
X498000Y415900D02*
X498100Y416000D01*
X463700Y415900D02*
X498000D01*
X500700Y419900D02*
X500800Y420000D01*
X463500Y419900D02*
X500700D01*
X506400Y428100D02*
X506600Y427900D01*
X463700Y428100D02*
X506400D01*
X501100Y338400D02*
X537776D01*
X501700Y334600D02*
X529676D01*
X463500Y423900D02*
X463600Y424000D01*
X503700D01*
X500100Y343300D02*
X501200Y344400D01*
X499400Y343300D02*
X500100D01*
X457300Y334900D02*
X464000Y341600D01*
X516600D01*
X518200Y343200D01*
X499200Y346900D02*
X529017D01*
X529792Y347676D01*
X532609D01*
X533385Y346900D01*
X536325D01*
X538701Y349276D01*
X498300Y352600D02*
X529525D01*
X531201Y354276D01*
X389782Y312600D02*
X474200D01*
X378382Y301200D02*
X389782Y312600D01*
X504300Y327800D02*
X537225D01*
X538701Y329276D01*
X506000Y323200D02*
X530125D01*
X531201Y324276D01*
X508300Y320400D02*
X537576D01*
X465600Y429800D02*
X465700Y429900D01*
X507900D01*
X537576Y320400D02*
X538701Y319276D01*
X394951Y298200D02*
X427400D01*
X392004Y295253D02*
X394951Y298200D01*
X432700Y308400D02*
X471900D01*
X474500Y305800D01*
X479000D01*
X289600Y276100D02*
X290200Y276700D01*
X264000Y276100D02*
X289600D01*
X206100Y325400D02*
X208200Y323300D01*
X190900Y235100D02*
X192500Y236700D01*
X199499D01*
X158100Y218200D02*
X158700Y218800D01*
X163900Y216600D02*
X164400Y217100D01*
X195000D01*
X158700Y218800D02*
X198600D01*
X199600Y217800D01*
X358600Y218800D02*
X370600D01*
X370700Y218900D01*
X330165Y279500D02*
X330565Y279100D01*
X300697Y330800D02*
X348700D01*
X296497Y326600D02*
X300697Y330800D01*
X331556Y332700D02*
X341700D01*
X342100Y338400D02*
X347400D01*
X327461Y336795D02*
X331556Y332700D01*
X300959Y280445D02*
X329220D01*
X277700Y283000D02*
X298404D01*
X300959Y280445D01*
X293700Y280200D02*
X298800D01*
X299700Y279300D01*
X301500Y284200D02*
X301900Y283800D01*
X285400Y284200D02*
X301500D01*
X206000Y368600D02*
X207200Y369800D01*
X251800D01*
X233000Y334500D02*
X273400D01*
X276700Y337800D01*
X207900Y328200D02*
X210700Y325400D01*
X206900Y328200D02*
X207900D01*
X241500Y328500D02*
X243400Y326600D01*
X241400Y328500D02*
X241500D01*
X241900Y440000D02*
X242600Y439300D01*
X262400D02*
X263100Y440000D01*
X242600Y439300D02*
X262400D01*
X188300Y232400D02*
X189700Y231000D01*
X220800D01*
X222300Y232500D01*
X253700Y322100D02*
X255700Y320100D01*
X268100D01*
X254197Y323300D02*
X254352Y323145D01*
X325445D01*
X208200Y323300D02*
X254197D01*
X167400Y321000D02*
X244400D01*
X245500Y322100D01*
X253700D01*
X294100Y344800D02*
X311600D01*
X304296Y346600D02*
X305304D01*
X305601Y346897D01*
X262296Y340500D02*
X268893Y347097D01*
X303799D01*
X304296Y346600D01*
X270100Y344700D02*
X271297Y345897D01*
X293003D01*
X294100Y344800D01*
X271386Y339586D02*
X283986D01*
X285000Y340600D01*
X322894D01*
X268900Y341200D02*
X283100D01*
X283700Y341800D01*
X322397D01*
X324700Y263000D02*
X327461Y265761D01*
X205200Y215800D02*
X205500Y216100D01*
X217700Y314300D02*
X219200Y312800D01*
X223900D01*
X225400Y314300D01*
X280400D01*
X281555Y313145D01*
X324645D01*
X344300Y282500D02*
X358300D01*
X360400Y280400D01*
X364200D01*
X365000Y281200D01*
X377100D01*
X364997Y279500D02*
X367800D01*
X330565Y279100D02*
X364597D01*
X364997Y279500D01*
X343101Y284100D02*
X364800D01*
X365700Y283200D01*
X369600D01*
X352214Y298989D02*
X366589D01*
X368800Y301200D01*
X378382D01*
X367086Y297789D02*
X369297Y300000D01*
X378879D01*
X369791Y297100D02*
X385894D01*
X369794Y298800D02*
X385000D01*
X338800Y288800D02*
X368700D01*
X349211Y297789D02*
X367086D01*
X367583Y296589D02*
X369794Y298800D01*
X368080Y295389D02*
X369791Y297100D01*
X368577Y294189D02*
X370188Y295800D01*
X370900Y292500D02*
X372500Y294100D01*
X343000Y293100D02*
X343600Y292500D01*
X348714Y296589D02*
X367583D01*
X345900Y301100D02*
X349211Y297789D01*
X343600Y292500D02*
X370900D01*
X348217Y295389D02*
X368080D01*
X347720Y294189D02*
X368577D01*
X334618Y294800D02*
X347109D01*
X347720Y294189D01*
X335115Y296000D02*
X347606D01*
X348217Y295389D01*
X337700Y297200D02*
X348103D01*
X348714Y296589D01*
X370188Y295800D02*
X387753D01*
X388300Y295253D01*
X392004D01*
X545600Y218900D02*
X545900Y219200D01*
X467104Y218900D02*
X545600D01*
X467300Y255000D02*
X469100Y253200D01*
X503100D01*
X463939Y253750D02*
X465850D01*
X468100Y251500D01*
X503804D01*
X465100Y251300D02*
X466300Y250100D01*
X506800D01*
X465000Y248300D02*
X466700Y246600D01*
X506600D01*
X464600Y245400D02*
X504595D01*
X505443Y244551D01*
X534424Y307676D02*
X537000Y305100D01*
X540800D01*
X544976Y309276D01*
X538025Y268600D02*
Y268876D01*
X490280D02*
X538025D01*
X538301Y258876D02*
X538701Y259276D01*
X485600Y257800D02*
X512496D01*
X513396Y258700D01*
X513404D01*
X513580Y258876D01*
X464400Y215700D02*
X465700Y217000D01*
X531100D01*
X463400Y218600D02*
X466804D01*
X467104Y218900D01*
X431900Y245800D02*
X432500Y246400D01*
X524400Y245700D02*
X526376Y247676D01*
X534724D01*
X538124Y244276D01*
X359100Y352500D02*
Y355600D01*
X348900Y275700D02*
X369800D01*
X369900Y275600D01*
X206400Y340500D02*
X262296D01*
X529376Y314300D02*
X530276Y315200D01*
X296695Y276795D02*
X317461D01*
X529276Y305000D02*
X529876Y305600D01*
X253400Y221900D02*
X338100D01*
X530176Y264300D02*
X530676Y264800D01*
X351200Y277400D02*
X365800D01*
X537776Y338400D02*
X538676Y339300D01*
X434000Y223800D02*
X435800Y225600D01*
X529676Y334600D02*
X530276Y335200D01*
X535925Y248900D02*
X537125Y247700D01*
X209800Y365800D02*
X316465D01*
X528628Y243352D02*
X530376Y245100D01*
X329156Y285100D02*
X329756Y285700D01*
D67*
X262197Y256500D02*
X317165D01*
X262995Y266795D02*
X283100D01*
X249183Y252983D02*
X262995Y266795D01*
X176800Y284700D02*
X205600D01*
X446200Y342100D02*
X459200D01*
X428400D02*
X446200D01*
X459200D02*
X460300Y343200D01*
X396500Y385000D02*
X454900D01*
X282300Y394600D02*
X282500Y394800D01*
X244900Y394600D02*
X282300D01*
X206217Y252983D02*
X249183D01*
X205400Y253800D02*
X206217Y252983D01*
X218200Y249500D02*
X255197D01*
X317461Y242639D02*
X318200Y241900D01*
X226200Y210300D02*
X305800D01*
X317165Y256500D02*
X317461Y256795D01*
X318200Y241900D02*
X342600D01*
X283100Y266795D02*
X317461D01*
Y242639D02*
Y246795D01*
X310600Y282700D02*
X310605Y282695D01*
X281900Y424700D02*
X282050Y424550D01*
X343450D02*
X343600Y424700D01*
X282050Y424550D02*
X343450D01*
X310605Y282695D02*
X319695D01*
X322700Y285700D01*
X255000Y233400D02*
X302000D01*
X302100Y233300D01*
X317050Y243050D02*
X317461Y242639D01*
X182700Y242800D02*
X182950Y243050D01*
X317050D01*
X386210Y290050D02*
X387950D01*
X388700Y289300D01*
X385809Y290450D02*
X386210Y290050D01*
X224100Y208600D02*
X224500D01*
X226200Y210300D01*
X393600Y382100D02*
X396500Y385000D01*
X409900Y339200D02*
Y339640D01*
X413209Y342950D01*
X427550D01*
X428400Y342100D01*
X181700Y328300D02*
X183750Y330350D01*
X235250D01*
X235800Y329800D01*
X335058Y291600D02*
X336208Y290450D01*
X322700Y285700D02*
Y289300D01*
X325000Y291600D01*
X335058D01*
X255197Y249500D02*
X262197Y256500D01*
X336208Y290450D02*
X385809D01*
D69*
X309587Y405221D02*
D03*
X327200Y408400D02*
D03*
X322382Y208370D02*
D03*
X284980Y377661D02*
D03*
X442600Y317500D02*
D03*
D70*
X135100Y300200D02*
D03*
X538701Y399276D02*
D03*
X531201Y394276D02*
D03*
X538701Y389276D02*
D03*
X531201Y384276D02*
D03*
Y374276D02*
D03*
X538701Y369276D02*
D03*
X531201Y364276D02*
D03*
X538701Y359276D02*
D03*
X531201Y354276D02*
D03*
X538701Y349276D02*
D03*
X531201Y344276D02*
D03*
X538701Y339276D02*
D03*
X531201Y334276D02*
D03*
X538701Y329276D02*
D03*
X531201Y324276D02*
D03*
X538701Y319276D02*
D03*
X531201Y314276D02*
D03*
X538701Y309276D02*
D03*
X531201Y304276D02*
D03*
X538701Y299276D02*
D03*
X531201Y294276D02*
D03*
X538701Y289276D02*
D03*
X531201Y284276D02*
D03*
X538701Y279276D02*
D03*
X531201Y274276D02*
D03*
X538701Y269276D02*
D03*
X531201Y264276D02*
D03*
X538701Y259276D02*
D03*
X531201Y254276D02*
D03*
X538701Y249276D02*
D03*
X531201Y244276D02*
D03*
X538701Y239276D02*
D03*
X553701Y399276D02*
D03*
X546201Y394276D02*
D03*
X553701Y389276D02*
D03*
X546201Y384276D02*
D03*
Y374276D02*
D03*
X553701Y349276D02*
D03*
X546201Y344276D02*
D03*
X553701Y339276D02*
D03*
X546201Y334276D02*
D03*
X553701Y329276D02*
D03*
X546201Y324276D02*
D03*
X553701Y319276D02*
D03*
X546201Y314276D02*
D03*
X553701Y309276D02*
D03*
X546201Y304276D02*
D03*
X553701Y299276D02*
D03*
X546201Y294276D02*
D03*
X553701Y289276D02*
D03*
X546201Y284276D02*
D03*
X553701Y279276D02*
D03*
X546201Y274276D02*
D03*
X553701Y269276D02*
D03*
X546201Y264276D02*
D03*
X553701Y259276D02*
D03*
X546201Y254276D02*
D03*
X553701Y249276D02*
D03*
X546201Y244276D02*
D03*
X553701Y239276D02*
D03*
D71*
X327461Y386795D02*
D03*
X317461D02*
D03*
Y376795D02*
D03*
X327461Y366795D02*
D03*
X317461D02*
D03*
X327461Y356795D02*
D03*
X317461D02*
D03*
X327461Y346795D02*
D03*
X317461D02*
D03*
X327461Y336795D02*
D03*
X317461D02*
D03*
X327461Y326795D02*
D03*
X317461D02*
D03*
X327461Y316795D02*
D03*
X317461D02*
D03*
X327461Y306795D02*
D03*
X317461D02*
D03*
X327461Y296795D02*
D03*
X317461D02*
D03*
X327461Y286795D02*
D03*
X317461D02*
D03*
X327461Y276795D02*
D03*
X317461D02*
D03*
X327461Y266795D02*
D03*
X317461D02*
D03*
X327461Y256795D02*
D03*
X317461D02*
D03*
X327461Y246795D02*
D03*
X317461D02*
D03*
D72*
X319800Y190800D02*
D03*
X329800D02*
D03*
D75*
X205600Y284700D02*
D03*
X176800D02*
D03*
X160600Y303500D02*
D03*
X446200Y342100D02*
D03*
X460300Y343200D02*
D03*
X454900Y385000D02*
D03*
X426000Y195600D02*
D03*
X423600Y250500D02*
D03*
X423400Y258600D02*
D03*
X426300Y328100D02*
D03*
X425100Y398100D02*
D03*
X426000Y449000D02*
D03*
X388600Y437900D02*
D03*
X282500Y394800D02*
D03*
X244900Y394600D02*
D03*
X343600Y424700D02*
D03*
X281900D02*
D03*
X283100Y266795D02*
D03*
X255200Y258800D02*
D03*
X270100Y266800D02*
D03*
X338100Y221900D02*
D03*
X338000Y271800D02*
D03*
X298500Y216500D02*
D03*
X235800Y329800D02*
D03*
X255500Y203700D02*
D03*
X214000Y213100D02*
D03*
X201300Y208400D02*
D03*
X197000Y234600D02*
D03*
X222300Y232500D02*
D03*
X188300Y232400D02*
D03*
X227100Y225500D02*
D03*
X230500Y220200D02*
D03*
X218900Y215700D02*
D03*
X212200Y216800D02*
D03*
X212100Y219600D02*
D03*
X212000Y225600D02*
D03*
X205400Y253800D02*
D03*
X191500Y253900D02*
D03*
X191300Y258400D02*
D03*
X184200Y260300D02*
D03*
Y262800D02*
D03*
Y265200D02*
D03*
X197500Y260600D02*
D03*
Y263300D02*
D03*
Y266000D02*
D03*
X191300Y262000D02*
D03*
Y265000D02*
D03*
X187800Y240800D02*
D03*
X182700Y242800D02*
D03*
X182600Y215000D02*
D03*
X141600Y196300D02*
D03*
X259000Y223700D02*
D03*
X283800Y331400D02*
D03*
X163900Y216600D02*
D03*
X158100Y218200D02*
D03*
X142900Y316700D02*
D03*
X167400Y321000D02*
D03*
X237900Y340800D02*
D03*
X264300Y365900D02*
D03*
X209800Y365800D02*
D03*
X290200Y276700D02*
D03*
X284100Y247600D02*
D03*
X213900Y423900D02*
D03*
X190000Y424000D02*
D03*
X206000Y368600D02*
D03*
X247500Y456800D02*
D03*
X263500Y445100D02*
D03*
X239500Y445000D02*
D03*
X160600Y264100D02*
D03*
X205000Y302000D02*
D03*
X223100Y310500D02*
D03*
X151000Y400900D02*
D03*
X231000Y206402D02*
D03*
X201800Y259600D02*
D03*
X215100Y268500D02*
D03*
X234700Y310732D02*
D03*
X236400Y294400D02*
D03*
X255100Y400600D02*
D03*
X258800Y411300D02*
D03*
X249800Y236700D02*
D03*
X294900Y218300D02*
D03*
X305800Y210300D02*
D03*
X206100Y325400D02*
D03*
X217700Y314300D02*
D03*
X208200Y316600D02*
D03*
X350500Y350400D02*
D03*
Y386700D02*
D03*
X350400Y306500D02*
D03*
X345900Y301100D02*
D03*
X341800Y321000D02*
D03*
X271000Y352200D02*
D03*
X333300Y356900D02*
D03*
X242700D02*
D03*
X345400Y360600D02*
D03*
X303700Y301900D02*
D03*
X217400Y351400D02*
D03*
X229300Y351100D02*
D03*
X229100Y382200D02*
D03*
X343400Y380800D02*
D03*
X218200Y249500D02*
D03*
X222000Y362500D02*
D03*
X338400Y366700D02*
D03*
X277700Y321100D02*
D03*
X280100Y390900D02*
D03*
X269600Y337800D02*
D03*
X268200Y340500D02*
D03*
X277500Y283200D02*
D03*
X261700Y262100D02*
D03*
X351500Y266600D02*
D03*
X348200Y257300D02*
D03*
X348800Y275800D02*
D03*
X342600Y241900D02*
D03*
X377300Y338200D02*
D03*
X377100Y272000D02*
D03*
X379200Y243700D02*
D03*
X383900Y222900D02*
D03*
X377700Y405400D02*
D03*
X363000Y348300D02*
D03*
X382400Y423000D02*
D03*
X388700Y289300D02*
D03*
X476600Y367100D02*
D03*
X475000Y369200D02*
D03*
X429300Y332500D02*
D03*
X476400Y308900D02*
D03*
X481200Y302700D02*
D03*
X481600Y405900D02*
D03*
X483000Y300900D02*
D03*
Y403800D02*
D03*
X358300Y419000D02*
D03*
X368200D02*
D03*
X299200Y296700D02*
D03*
X368700Y374900D02*
D03*
X410100Y271800D02*
D03*
X403700Y363600D02*
D03*
X377300Y204600D02*
D03*
X407900Y213291D02*
D03*
X409900Y206600D02*
D03*
X386400Y194600D02*
D03*
X401200Y227800D02*
D03*
X415900Y243600D02*
D03*
X406000Y248400D02*
D03*
X387343Y230024D02*
D03*
X387800Y257900D02*
D03*
X386400Y261100D02*
D03*
X407800Y280221D02*
D03*
X401000Y294700D02*
D03*
X406100Y315500D02*
D03*
X409900Y339200D02*
D03*
X408000Y346165D02*
D03*
X387900Y382200D02*
D03*
X391400Y363882D02*
D03*
X387200D02*
D03*
X388200Y389700D02*
D03*
X386200Y395100D02*
D03*
X408000Y413095D02*
D03*
X410000Y405800D02*
D03*
X388400Y428700D02*
D03*
X400300Y428300D02*
D03*
X406000Y448800D02*
D03*
X416100Y443800D02*
D03*
X434800Y381500D02*
D03*
X435200Y399800D02*
D03*
X535900Y181200D02*
D03*
X456200Y211600D02*
D03*
X565000Y216000D02*
D03*
Y324700D02*
D03*
X438500Y191700D02*
D03*
X457300Y334900D02*
D03*
X454400Y330100D02*
D03*
X520600Y394000D02*
D03*
X453700Y395100D02*
D03*
X450900Y177500D02*
D03*
X427300Y177800D02*
D03*
X404400Y177400D02*
D03*
X381800Y177300D02*
D03*
X362804Y194800D02*
D03*
Y238200D02*
D03*
X362800Y261000D02*
D03*
X362804Y373500D02*
D03*
X362700Y396000D02*
D03*
X362804Y440100D02*
D03*
X404400Y454400D02*
D03*
X428000Y454630D02*
D03*
X451300Y454600D02*
D03*
X470900Y439000D02*
D03*
X471004Y395600D02*
D03*
Y372900D02*
D03*
Y328200D02*
D03*
X471000Y238300D02*
D03*
X471004Y215300D02*
D03*
X471000Y193800D02*
D03*
X421500Y266000D02*
D03*
X427000Y259900D02*
D03*
X428300Y256500D02*
D03*
X430900Y249000D02*
D03*
X433600Y242500D02*
D03*
X572800Y283700D02*
D03*
X572500Y300200D02*
D03*
X520700Y363900D02*
D03*
X520600Y317800D02*
D03*
X465600Y429800D02*
D03*
X506600Y427900D02*
D03*
X465600Y425900D02*
D03*
X505000D02*
D03*
X465500Y422000D02*
D03*
X502500D02*
D03*
X465500Y418000D02*
D03*
X496800Y281400D02*
D03*
X495300Y284100D02*
D03*
X491100Y299400D02*
D03*
X464771Y352071D02*
D03*
X465400Y297000D02*
D03*
X491000Y239000D02*
D03*
X499600Y313500D02*
D03*
X465200Y257600D02*
D03*
X504100Y296100D02*
D03*
X505500Y291000D02*
D03*
X510700Y231100D02*
D03*
X511900Y229100D02*
D03*
X545900Y219200D02*
D03*
X531300Y217200D02*
D03*
X520500Y233200D02*
D03*
Y253100D02*
D03*
X152100Y216100D02*
D03*
X146600Y258600D02*
D03*
X146800Y268500D02*
D03*
X146600Y263200D02*
D03*
X141400Y234900D02*
D03*
X163800Y274700D02*
D03*
Y262600D02*
D03*
X158700Y269000D02*
D03*
X237000Y216000D02*
D03*
X255000Y233400D02*
D03*
X253400Y221700D02*
D03*
X451500Y406300D02*
D03*
X412100Y394800D02*
D03*
X416200Y409100D02*
D03*
X416000Y413200D02*
D03*
Y416900D02*
D03*
X415900Y420900D02*
D03*
Y424900D02*
D03*
Y428900D02*
D03*
Y432600D02*
D03*
X423000Y438200D02*
D03*
X447500Y329400D02*
D03*
X451400Y339600D02*
D03*
X451300Y272400D02*
D03*
X450600Y205400D02*
D03*
X412400Y366300D02*
D03*
X427300Y362300D02*
D03*
X414900Y358200D02*
D03*
X415400Y354400D02*
D03*
Y350300D02*
D03*
Y346500D02*
D03*
X414800Y340800D02*
D03*
X421400Y372700D02*
D03*
X421700Y305900D02*
D03*
X426800Y295500D02*
D03*
X415200Y291500D02*
D03*
Y287600D02*
D03*
Y283700D02*
D03*
Y279800D02*
D03*
Y275800D02*
D03*
X413700Y272800D02*
D03*
X310600Y282700D02*
D03*
Y256600D02*
D03*
X393100Y209600D02*
D03*
X393500Y277900D02*
D03*
X393700Y344000D02*
D03*
X392300Y410500D02*
D03*
X415200Y377000D02*
D03*
X261700Y388800D02*
D03*
X158100Y388700D02*
D03*
X257400Y295600D02*
D03*
X257000Y372100D02*
D03*
X162200Y372000D02*
D03*
X293300Y296000D02*
D03*
X479000Y305800D02*
D03*
Y388600D02*
D03*
X411500Y285000D02*
D03*
X412600Y322400D02*
D03*
X476000Y390300D02*
D03*
X212900Y290600D02*
D03*
X293700Y280200D02*
D03*
X301300Y306500D02*
D03*
X219200Y343100D02*
D03*
X304800Y348500D02*
D03*
X304700Y333400D02*
D03*
X268200Y199300D02*
D03*
X302100Y233300D02*
D03*
X252000Y359000D02*
D03*
X334100Y283500D02*
D03*
X336200Y346700D02*
D03*
X267635Y281773D02*
D03*
X204800Y215800D02*
D03*
X200959Y214900D02*
D03*
X197200Y213400D02*
D03*
X199459D02*
D03*
X218200Y235200D02*
D03*
X227200Y232500D02*
D03*
X270100Y344700D02*
D03*
X427000Y263600D02*
D03*
X315500Y446600D02*
D03*
X362800Y215900D02*
D03*
X358600Y218800D02*
D03*
X340400Y281400D02*
D03*
X344200Y282400D02*
D03*
Y303700D02*
D03*
X340000Y339100D02*
D03*
X336600Y340800D02*
D03*
X337600Y285700D02*
D03*
X359800Y273600D02*
D03*
X341900Y287000D02*
D03*
X338200Y287900D02*
D03*
X343000Y293100D02*
D03*
X359300Y287100D02*
D03*
X362700Y306100D02*
D03*
X365800Y277600D02*
D03*
X367800Y279500D02*
D03*
X359500Y300689D02*
D03*
X357800Y302500D02*
D03*
X393600Y382100D02*
D03*
X442800Y411200D02*
D03*
X443000Y413500D02*
D03*
X442600Y416500D02*
D03*
X442500Y419700D02*
D03*
X442800Y424100D02*
D03*
X442700Y427500D02*
D03*
X442900Y430800D02*
D03*
X442800Y434100D02*
D03*
X441700Y368200D02*
D03*
X441600Y365100D02*
D03*
X441900Y362000D02*
D03*
X441700Y358700D02*
D03*
Y355300D02*
D03*
X441800Y352200D02*
D03*
X441600Y348800D02*
D03*
Y345800D02*
D03*
Y301900D02*
D03*
Y298600D02*
D03*
Y296000D02*
D03*
X441700Y292700D02*
D03*
X441500Y288400D02*
D03*
Y285200D02*
D03*
Y282100D02*
D03*
Y278800D02*
D03*
X441700Y266600D02*
D03*
X441600Y263700D02*
D03*
X441700Y260500D02*
D03*
Y257300D02*
D03*
X441500Y252500D02*
D03*
X441700Y249800D02*
D03*
X441800Y246400D02*
D03*
Y243300D02*
D03*
Y235100D02*
D03*
X441700Y232400D02*
D03*
X441500Y228700D02*
D03*
X441600Y225600D02*
D03*
X441800Y221300D02*
D03*
Y218200D02*
D03*
X441700Y215100D02*
D03*
X441900Y211900D02*
D03*
X443800Y202700D02*
D03*
X481400Y268800D02*
D03*
X434600Y210600D02*
D03*
X434700Y233900D02*
D03*
X429600Y251900D02*
D03*
X434600Y230400D02*
D03*
Y227100D02*
D03*
Y223800D02*
D03*
Y220400D02*
D03*
X434700Y217400D02*
D03*
Y214800D02*
D03*
X434200Y361400D02*
D03*
X434700Y365000D02*
D03*
X434500Y368400D02*
D03*
X435400Y433400D02*
D03*
X434600Y430100D02*
D03*
X434700Y426800D02*
D03*
Y424100D02*
D03*
X435200Y419900D02*
D03*
X434800Y416900D02*
D03*
X435100Y413800D02*
D03*
Y410300D02*
D03*
X433400Y351000D02*
D03*
X434300Y354300D02*
D03*
X434600Y358200D02*
D03*
X434100Y347700D02*
D03*
X434300Y344400D02*
D03*
X434000Y301400D02*
D03*
X433600Y298500D02*
D03*
X433200Y293900D02*
D03*
X433700Y290800D02*
D03*
X433300Y287000D02*
D03*
X433500Y283800D02*
D03*
X433700Y280800D02*
D03*
Y277300D02*
D03*
X224100Y208600D02*
D03*
X404900Y382800D02*
D03*
X523300Y251300D02*
D03*
X525600Y241000D02*
D03*
X483100Y264300D02*
D03*
X480500Y274800D02*
D03*
X493700Y288800D02*
D03*
X463939Y253750D02*
D03*
X512800Y260500D02*
D03*
X514100Y257000D02*
D03*
X508500Y281400D02*
D03*
X510000Y276800D02*
D03*
X488400Y243500D02*
D03*
X488200Y248300D02*
D03*
X485000Y258400D02*
D03*
X480500Y283200D02*
D03*
X483900Y287100D02*
D03*
X498100Y416000D02*
D03*
X499400Y418000D02*
D03*
X500800Y420000D02*
D03*
X501400Y307300D02*
D03*
X502800Y303400D02*
D03*
X489300Y295200D02*
D03*
X487700Y273300D02*
D03*
X491000Y297000D02*
D03*
X488900Y293000D02*
D03*
X493500Y293700D02*
D03*
X465400Y262000D02*
D03*
X465700Y259800D02*
D03*
X467300Y255000D02*
D03*
X464600Y245400D02*
D03*
X465000Y248300D02*
D03*
X465100Y251300D02*
D03*
X509100Y286000D02*
D03*
X370400Y352000D02*
D03*
X369600Y283200D02*
D03*
X372500Y294100D02*
D03*
X357400Y280800D02*
D03*
X368200Y285000D02*
D03*
X370400Y287100D02*
D03*
X339800Y246200D02*
D03*
X332900Y305300D02*
D03*
X260000Y344600D02*
D03*
X478200Y321700D02*
D03*
X292900Y310900D02*
D03*
X260500Y289400D02*
D03*
X388100Y325100D02*
D03*
X386500Y328400D02*
D03*
X413200Y295800D02*
D03*
X412500Y339200D02*
D03*
X525900Y221400D02*
D03*
X523900Y223100D02*
D03*
X522200Y225700D02*
D03*
X513311Y227400D02*
D03*
X464400Y215700D02*
D03*
X463400Y218600D02*
D03*
X466200Y220400D02*
D03*
X464200Y222600D02*
D03*
X465700Y224700D02*
D03*
X463500Y226700D02*
D03*
X465200Y228400D02*
D03*
X463900Y230700D02*
D03*
X512200Y266500D02*
D03*
X512000Y270800D02*
D03*
X497400Y262100D02*
D03*
X500200Y259500D02*
D03*
X501700Y255600D02*
D03*
X503100Y253200D02*
D03*
X505300Y253100D02*
D03*
X506800Y250100D02*
D03*
X506700Y246700D02*
D03*
X509300Y245500D02*
D03*
X464000Y282000D02*
D03*
X465300Y284700D02*
D03*
X482300Y285200D02*
D03*
X463400Y286500D02*
D03*
X465400Y289100D02*
D03*
X485400D02*
D03*
X463000Y290800D02*
D03*
X487000Y291000D02*
D03*
X465300Y293000D02*
D03*
X463600Y294800D02*
D03*
X486600Y314300D02*
D03*
X463000Y349900D02*
D03*
X463400Y354100D02*
D03*
X487700Y309300D02*
D03*
X488900Y305000D02*
D03*
X464900Y363800D02*
D03*
X463600Y361900D02*
D03*
X464800Y359900D02*
D03*
X463639Y357950D02*
D03*
X464800Y356000D02*
D03*
X485900Y348500D02*
D03*
X487500Y351300D02*
D03*
X489000Y353500D02*
D03*
X490500Y355400D02*
D03*
X491700Y357900D02*
D03*
X493200Y360100D02*
D03*
X494600Y362400D02*
D03*
X496400Y364000D02*
D03*
X463700Y415900D02*
D03*
X463500Y419900D02*
D03*
Y423900D02*
D03*
X463700Y428100D02*
D03*
X501100Y338400D02*
D03*
X501700Y334600D02*
D03*
X503700Y424000D02*
D03*
X499400Y343300D02*
D03*
X499200Y346900D02*
D03*
X498300Y352600D02*
D03*
X474200Y312600D02*
D03*
X359100Y355600D02*
D03*
X504300Y327800D02*
D03*
X506000Y323200D02*
D03*
X508300Y320400D02*
D03*
X507900Y429900D02*
D03*
X382200Y310100D02*
D03*
X428300Y375800D02*
D03*
X414800Y315800D02*
D03*
X388600Y237600D02*
D03*
X264000Y276100D02*
D03*
X384500Y448800D02*
D03*
X190900Y235100D02*
D03*
X222200Y260700D02*
D03*
X249700Y436300D02*
D03*
X195000Y217100D02*
D03*
X199600Y217800D02*
D03*
X362600Y328600D02*
D03*
X370700Y218900D02*
D03*
X351200Y277400D02*
D03*
X348700Y330800D02*
D03*
X341700Y332700D02*
D03*
X347400Y338400D02*
D03*
X387000Y356200D02*
D03*
X299700Y279300D02*
D03*
X301900Y283800D02*
D03*
X302900Y276700D02*
D03*
X206400Y340500D02*
D03*
X251800Y369800D02*
D03*
X240100Y336700D02*
D03*
X233000Y334500D02*
D03*
X206900Y328200D02*
D03*
X181700Y328300D02*
D03*
X241400Y328500D02*
D03*
X241900Y440000D02*
D03*
X263100D02*
D03*
X268100Y320100D02*
D03*
X431900Y245800D02*
D03*
X524400Y245700D02*
D03*
X369900Y275600D02*
D03*
M02*
