G04*
G04 #@! TF.GenerationSoftware,Altium Limited,Altium Designer,19.0.15 (446)*
G04*
G04 Layer_Physical_Order=2*
G04 Layer_Color=32768*
%FSLAX25Y25*%
%MOIN*%
G70*
G01*
G75*
%ADD76C,0.04000*%
%ADD77C,0.25000*%
%ADD78C,0.03000*%
%ADD79C,0.13350*%
%ADD80C,0.07900*%
%ADD81C,0.07622*%
%ADD82C,0.13055*%
%ADD83C,0.07000*%
%ADD84C,0.08000*%
%ADD85C,0.08331*%
%ADD86C,0.16500*%
%ADD87C,0.07500*%
%ADD88C,0.08500*%
%ADD89C,0.16000*%
%ADD90C,0.04600*%
D76*
X2511Y180900D02*
X14311Y169100D01*
X601025D01*
X612736Y180811D01*
Y452071D01*
X600407Y464400D02*
X612736Y452071D01*
X14311Y464400D02*
X600407D01*
X2511Y452600D02*
X14311Y464400D01*
X2511Y180900D02*
Y452600D01*
D77*
X120100Y169100D02*
Y462500D01*
D78*
X354700Y169100D02*
Y271200D01*
X355000Y305600D02*
Y464100D01*
D79*
X325600Y446000D02*
D03*
Y433500D02*
D03*
X305600Y446000D02*
D03*
Y433500D02*
D03*
D80*
X319600Y453500D02*
D03*
X311600D02*
D03*
X315600Y433500D02*
D03*
D81*
X40256Y384551D02*
D03*
Y374709D02*
D03*
X32382D02*
D03*
X39862Y259748D02*
D03*
Y249905D02*
D03*
X31988D02*
D03*
D82*
X14705Y395378D02*
D03*
Y363882D02*
D03*
X14311Y270575D02*
D03*
Y239079D02*
D03*
D83*
X155100Y300200D02*
D03*
X95100D02*
D03*
D84*
X327461Y386795D02*
D03*
X317461D02*
D03*
X327461Y376795D02*
D03*
X317461D02*
D03*
X327461Y366795D02*
D03*
X317461D02*
D03*
X327461Y356795D02*
D03*
X317461D02*
D03*
X327461Y346795D02*
D03*
X317461D02*
D03*
X327461Y336795D02*
D03*
X317461D02*
D03*
X327461Y326795D02*
D03*
X317461D02*
D03*
X327461Y316795D02*
D03*
X317461D02*
D03*
X327461Y306795D02*
D03*
X317461D02*
D03*
X327461Y296795D02*
D03*
X317461D02*
D03*
X327461Y286795D02*
D03*
Y276795D02*
D03*
X317461D02*
D03*
X327461Y266795D02*
D03*
X317461D02*
D03*
X327461Y256795D02*
D03*
X317461D02*
D03*
X327461Y246795D02*
D03*
X317461D02*
D03*
D85*
X171900Y299400D02*
D03*
X181900D02*
D03*
X319800Y190800D02*
D03*
X68100Y300000D02*
D03*
X78100D02*
D03*
D86*
X542401Y202776D02*
D03*
Y430976D02*
D03*
D87*
X531201Y394276D02*
D03*
X538701Y389276D02*
D03*
Y379276D02*
D03*
Y369276D02*
D03*
X531201Y364276D02*
D03*
Y354276D02*
D03*
X538701Y349276D02*
D03*
X531201Y344276D02*
D03*
X538701Y339276D02*
D03*
X531201Y334276D02*
D03*
X538701Y329276D02*
D03*
X531201Y324276D02*
D03*
X538701Y319276D02*
D03*
X531201Y314276D02*
D03*
X538701Y309276D02*
D03*
X531201Y304276D02*
D03*
X538701Y299276D02*
D03*
X531201Y294276D02*
D03*
X538701Y289276D02*
D03*
X531201Y284276D02*
D03*
X538701Y279276D02*
D03*
X531201Y274276D02*
D03*
X538701Y269276D02*
D03*
X531201Y264276D02*
D03*
X538701Y259276D02*
D03*
X531201Y254276D02*
D03*
X538701Y249276D02*
D03*
X531201Y244276D02*
D03*
X538701Y239276D02*
D03*
X531201Y234276D02*
D03*
X546201Y394276D02*
D03*
X553701Y389276D02*
D03*
Y379276D02*
D03*
Y369276D02*
D03*
X546201Y364276D02*
D03*
X553701Y359276D02*
D03*
X546201Y354276D02*
D03*
Y344276D02*
D03*
Y334276D02*
D03*
Y324276D02*
D03*
Y314276D02*
D03*
X553701Y309276D02*
D03*
X546201Y304276D02*
D03*
X553701Y299276D02*
D03*
X546201Y294276D02*
D03*
X553701Y289276D02*
D03*
X546201Y284276D02*
D03*
X553701Y279276D02*
D03*
X546201Y264276D02*
D03*
X553701Y259276D02*
D03*
X546201Y254276D02*
D03*
X553701Y249276D02*
D03*
X546201Y244276D02*
D03*
X553701Y239276D02*
D03*
X546201Y234276D02*
D03*
D88*
X241673Y204433D02*
D03*
X171600Y271300D02*
D03*
X210177Y247740D02*
D03*
X238720Y257583D02*
D03*
X309587Y405221D02*
D03*
X327200Y408400D02*
D03*
X293839Y333370D02*
D03*
X285965Y406205D02*
D03*
D89*
X18248Y448528D02*
D03*
Y184748D02*
D03*
X278091Y448528D02*
D03*
Y184748D02*
D03*
X596594D02*
D03*
Y448528D02*
D03*
X488228D02*
D03*
Y184748D02*
D03*
D90*
X205600Y284700D02*
D03*
X176800D02*
D03*
X160600Y303500D02*
D03*
X446200Y342100D02*
D03*
X460300Y343200D02*
D03*
X454900Y385000D02*
D03*
X385700Y278100D02*
D03*
X413800Y248800D02*
D03*
X414500Y304800D02*
D03*
Y327800D02*
D03*
X414600Y393400D02*
D03*
X61300Y218400D02*
D03*
X67100Y224500D02*
D03*
X67200Y257100D02*
D03*
X99000Y272200D02*
D03*
X82300Y272300D02*
D03*
X90900Y247800D02*
D03*
X63300Y238000D02*
D03*
X64100Y247600D02*
D03*
X75000Y259500D02*
D03*
X46500Y348100D02*
D03*
X47700Y346900D02*
D03*
X49000Y345700D02*
D03*
X68700Y407600D02*
D03*
X47000Y418100D02*
D03*
X46900Y386100D02*
D03*
X63300Y369700D02*
D03*
Y378100D02*
D03*
X91300Y379600D02*
D03*
X76300Y391100D02*
D03*
X97700Y407100D02*
D03*
X84100Y407200D02*
D03*
X282500Y394800D02*
D03*
X244900Y394600D02*
D03*
X343600Y459800D02*
D03*
Y424700D02*
D03*
X281900D02*
D03*
X280300Y302700D02*
D03*
X283100Y266795D02*
D03*
X255200Y258800D02*
D03*
X270100Y266800D02*
D03*
X338100Y221900D02*
D03*
X338000Y271800D02*
D03*
X359800Y208600D02*
D03*
X298500Y216500D02*
D03*
X297400Y288600D02*
D03*
X235800Y329800D02*
D03*
X181600Y378100D02*
D03*
X205400Y299000D02*
D03*
X237000Y192700D02*
D03*
X214000Y213100D02*
D03*
X205000Y220100D02*
D03*
X201300Y208400D02*
D03*
X197000Y234600D02*
D03*
X195300Y208400D02*
D03*
X222300Y232500D02*
D03*
X188300Y232400D02*
D03*
X188400Y209500D02*
D03*
X198000Y191200D02*
D03*
X197900Y200500D02*
D03*
X218900Y215700D02*
D03*
X205400Y253800D02*
D03*
X191500Y253900D02*
D03*
Y240500D02*
D03*
X187800Y240800D02*
D03*
X182700Y242800D02*
D03*
X182600Y215000D02*
D03*
X264500Y300000D02*
D03*
X259000Y223700D02*
D03*
X297900Y439000D02*
D03*
X336200Y439700D02*
D03*
X335500Y460000D02*
D03*
X293900Y457300D02*
D03*
X169900Y215100D02*
D03*
X163900Y216600D02*
D03*
X198400Y349800D02*
D03*
X158100Y218200D02*
D03*
X167400Y321000D02*
D03*
X237900Y340800D02*
D03*
X264300Y365900D02*
D03*
X209800Y365800D02*
D03*
X209600Y333200D02*
D03*
X290200Y276700D02*
D03*
X290100Y246900D02*
D03*
X293700Y245900D02*
D03*
X287000Y251200D02*
D03*
X206000Y368600D02*
D03*
X263500Y445100D02*
D03*
X239500Y445000D02*
D03*
X242200Y447400D02*
D03*
X203600Y373800D02*
D03*
X187700Y306600D02*
D03*
X160600Y264100D02*
D03*
X205000Y302000D02*
D03*
X150900Y390900D02*
D03*
X217000Y202500D02*
D03*
X217700Y289800D02*
D03*
X220900Y246300D02*
D03*
X221100Y290200D02*
D03*
X223700Y264400D02*
D03*
X223600Y287200D02*
D03*
X232900Y300100D02*
D03*
X235400Y300600D02*
D03*
X255100Y400600D02*
D03*
X255157Y292257D02*
D03*
X258800Y411300D02*
D03*
X260000Y295766D02*
D03*
X249800Y236700D02*
D03*
X249700Y283900D02*
D03*
X252900Y312100D02*
D03*
X305800Y210300D02*
D03*
X305400Y288700D02*
D03*
X206100Y325400D02*
D03*
X217700Y314300D02*
D03*
X208200Y316600D02*
D03*
X350500Y350400D02*
D03*
Y386700D02*
D03*
X350400Y306500D02*
D03*
X345900Y301100D02*
D03*
X341800Y321000D02*
D03*
X271000Y352200D02*
D03*
X333300Y356900D02*
D03*
X240300Y295900D02*
D03*
X242700Y356900D02*
D03*
X345400Y360600D02*
D03*
X303700Y301900D02*
D03*
X217400Y351400D02*
D03*
X229300Y351100D02*
D03*
X229100Y382200D02*
D03*
X343400Y380800D02*
D03*
X218200Y249500D02*
D03*
X222200Y348000D02*
D03*
X222000Y362500D02*
D03*
X338400Y366700D02*
D03*
X277700Y321100D02*
D03*
X280100Y390900D02*
D03*
X269600Y337800D02*
D03*
X268200Y340500D02*
D03*
X277200Y312600D02*
D03*
X277500Y283200D02*
D03*
X261700Y262100D02*
D03*
X351500Y266600D02*
D03*
X348200Y257300D02*
D03*
X348800Y275800D02*
D03*
X342600Y241900D02*
D03*
X409900Y237600D02*
D03*
X382300Y215400D02*
D03*
X382100Y281800D02*
D03*
Y348400D02*
D03*
Y415100D02*
D03*
X370400Y434700D02*
D03*
X441600Y379100D02*
D03*
Y374200D02*
D03*
X372400Y226800D02*
D03*
X388700Y289300D02*
D03*
X476600Y367100D02*
D03*
X475000Y369200D02*
D03*
X429700Y381600D02*
D03*
X429300Y332500D02*
D03*
X476400Y308900D02*
D03*
X481200Y302700D02*
D03*
X481600Y405900D02*
D03*
X483000Y300900D02*
D03*
Y403800D02*
D03*
X358300Y419000D02*
D03*
X368200D02*
D03*
X299200Y296700D02*
D03*
X367600Y209100D02*
D03*
X371000Y421000D02*
D03*
X371600Y426800D02*
D03*
X408100Y250600D02*
D03*
X410100Y271800D02*
D03*
X408200Y316700D02*
D03*
X410000Y304100D02*
D03*
X409900Y206600D02*
D03*
X408000Y204700D02*
D03*
X396200Y205400D02*
D03*
X388300Y205700D02*
D03*
X394400Y238300D02*
D03*
X390300Y248600D02*
D03*
X396200Y272700D02*
D03*
X388300Y273600D02*
D03*
X385400Y303600D02*
D03*
X371000Y368500D02*
D03*
X403700Y340500D02*
D03*
X409900Y339200D02*
D03*
X396100Y338900D02*
D03*
X390300Y315000D02*
D03*
X388400Y339600D02*
D03*
X403300Y436400D02*
D03*
X408500Y436900D02*
D03*
X408000Y382300D02*
D03*
X385400Y370600D02*
D03*
X393600Y370800D02*
D03*
X390300Y382000D02*
D03*
X388400Y405900D02*
D03*
X396200D02*
D03*
X406100Y406200D02*
D03*
X410000Y405800D02*
D03*
X392300Y437800D02*
D03*
X390400Y449300D02*
D03*
X384500Y437700D02*
D03*
X396300Y437400D02*
D03*
X400200Y438400D02*
D03*
X426000Y445000D02*
D03*
X426800Y395700D02*
D03*
X446100Y391100D02*
D03*
X446000Y401300D02*
D03*
X456200Y211600D02*
D03*
X565000Y216000D02*
D03*
Y324700D02*
D03*
X457300Y334900D02*
D03*
X520700Y454800D02*
D03*
X576800Y202500D02*
D03*
X574900Y430900D02*
D03*
X520600Y394000D02*
D03*
X453700Y395100D02*
D03*
X421500Y238600D02*
D03*
Y266000D02*
D03*
X427000Y259900D02*
D03*
X428300Y256500D02*
D03*
X430900Y249000D02*
D03*
X433600Y242500D02*
D03*
X465600Y429800D02*
D03*
X506600Y427900D02*
D03*
X465600Y425900D02*
D03*
X505000D02*
D03*
X465500Y422000D02*
D03*
X502500D02*
D03*
X465500Y418000D02*
D03*
X496800Y281400D02*
D03*
X495300Y284100D02*
D03*
X491100Y299400D02*
D03*
X464771Y352071D02*
D03*
X465400Y297000D02*
D03*
X491000Y239000D02*
D03*
X499600Y313500D02*
D03*
X465200Y257600D02*
D03*
X504100Y296100D02*
D03*
X505500Y291000D02*
D03*
X510700Y231100D02*
D03*
X511900Y229100D02*
D03*
X545900Y219200D02*
D03*
X531300Y217200D02*
D03*
X152100Y216100D02*
D03*
X146600Y258600D02*
D03*
Y263200D02*
D03*
X141400Y234900D02*
D03*
X237000Y216000D02*
D03*
X255000Y233400D02*
D03*
X253400Y221700D02*
D03*
X418400Y200055D02*
D03*
Y267000D02*
D03*
Y333300D02*
D03*
X418300Y400000D02*
D03*
X403600Y252400D02*
D03*
X403500Y318705D02*
D03*
X403600Y388200D02*
D03*
X310600Y282700D02*
D03*
Y256600D02*
D03*
X393100Y209600D02*
D03*
X393500Y277900D02*
D03*
X393700Y344000D02*
D03*
X392300Y410500D02*
D03*
X396200Y415400D02*
D03*
X388400Y415300D02*
D03*
X384000Y388400D02*
D03*
X393200Y449200D02*
D03*
X396200Y428700D02*
D03*
X402100Y405200D02*
D03*
X397200Y361500D02*
D03*
X388300Y348400D02*
D03*
X396300Y348600D02*
D03*
X383300Y321500D02*
D03*
X391400Y303900D02*
D03*
X400200Y306000D02*
D03*
X388400Y282200D02*
D03*
X396200Y282300D02*
D03*
X401600Y272300D02*
D03*
X397600Y227300D02*
D03*
X388200Y215400D02*
D03*
X396800Y215700D02*
D03*
X401900Y205200D02*
D03*
X385800Y205600D02*
D03*
X383600Y188700D02*
D03*
X403600Y185831D02*
D03*
X336200Y420900D02*
D03*
X322200Y460100D02*
D03*
X261700Y388800D02*
D03*
X158100Y388700D02*
D03*
X257400Y295600D02*
D03*
X147700Y369300D02*
D03*
X257000Y372100D02*
D03*
X162200Y372000D02*
D03*
X293300Y296000D02*
D03*
X479000Y305800D02*
D03*
Y388600D02*
D03*
X411500Y285000D02*
D03*
X412600Y322400D02*
D03*
X476000Y390300D02*
D03*
X212900Y290600D02*
D03*
X293700Y280200D02*
D03*
X301300Y306500D02*
D03*
X219200Y293900D02*
D03*
Y343100D02*
D03*
X304800Y348500D02*
D03*
X304700Y333400D02*
D03*
X268200Y199300D02*
D03*
X302100Y233300D02*
D03*
X302300Y194500D02*
D03*
X371100Y416800D02*
D03*
X334100Y283500D02*
D03*
X336200Y346700D02*
D03*
X267635Y281773D02*
D03*
X204800Y215800D02*
D03*
X221988Y240900D02*
D03*
X218200Y235200D02*
D03*
X207800Y210300D02*
D03*
X270100Y344700D02*
D03*
X279643Y332757D02*
D03*
X279600Y342900D02*
D03*
X427000Y263600D02*
D03*
X416000Y198500D02*
D03*
X366300Y212900D02*
D03*
X365704Y210315D02*
D03*
X358600Y218800D02*
D03*
X342600Y274400D02*
D03*
X340400Y281400D02*
D03*
X344200Y282400D02*
D03*
Y303700D02*
D03*
X340000Y339100D02*
D03*
X336600Y340800D02*
D03*
X337600Y285700D02*
D03*
X359800Y273600D02*
D03*
X341900Y287000D02*
D03*
X338200Y287900D02*
D03*
X343000Y293100D02*
D03*
X359300Y287100D02*
D03*
X365800Y277600D02*
D03*
X367800Y279500D02*
D03*
X359500Y300689D02*
D03*
X357800Y302500D02*
D03*
X393600Y382100D02*
D03*
X442800Y411200D02*
D03*
X443000Y413500D02*
D03*
X442600Y416500D02*
D03*
X442500Y419700D02*
D03*
X442800Y424100D02*
D03*
X442700Y427500D02*
D03*
X442900Y430800D02*
D03*
X442800Y434100D02*
D03*
X441700Y368200D02*
D03*
X441600Y365100D02*
D03*
X441900Y362000D02*
D03*
X441700Y358700D02*
D03*
Y355300D02*
D03*
X441800Y352200D02*
D03*
X441600Y348800D02*
D03*
Y345800D02*
D03*
Y301900D02*
D03*
Y298600D02*
D03*
Y296000D02*
D03*
X441700Y292700D02*
D03*
X441500Y288400D02*
D03*
Y285200D02*
D03*
Y282100D02*
D03*
Y278800D02*
D03*
X441700Y266600D02*
D03*
X441600Y263700D02*
D03*
X441700Y260500D02*
D03*
Y257300D02*
D03*
X441500Y252500D02*
D03*
X441700Y249800D02*
D03*
X441800Y246400D02*
D03*
Y243300D02*
D03*
Y235100D02*
D03*
X441700Y232400D02*
D03*
X441500Y228700D02*
D03*
X441600Y225600D02*
D03*
X441800Y221300D02*
D03*
Y218200D02*
D03*
X441700Y215100D02*
D03*
X441900Y211900D02*
D03*
X366100Y337700D02*
D03*
X370300Y342900D02*
D03*
X365900Y344400D02*
D03*
X481400Y268800D02*
D03*
X431300Y214200D02*
D03*
X432300Y210500D02*
D03*
X429600Y217400D02*
D03*
X434600Y210600D02*
D03*
X434700Y233900D02*
D03*
X428800Y220900D02*
D03*
X429600Y251900D02*
D03*
X424900Y232800D02*
D03*
X427500Y224900D02*
D03*
X426400Y229100D02*
D03*
X434600Y230400D02*
D03*
Y227100D02*
D03*
Y223800D02*
D03*
Y220400D02*
D03*
X434700Y217400D02*
D03*
Y214800D02*
D03*
X434200Y361400D02*
D03*
X434700Y365000D02*
D03*
X434500Y368400D02*
D03*
X435400Y433400D02*
D03*
X434600Y430100D02*
D03*
X434700Y426800D02*
D03*
Y424100D02*
D03*
X435200Y419900D02*
D03*
X434800Y416900D02*
D03*
X435100Y413800D02*
D03*
Y410300D02*
D03*
X433400Y351000D02*
D03*
X434300Y354300D02*
D03*
X434600Y358200D02*
D03*
X434100Y347700D02*
D03*
X434300Y344400D02*
D03*
X434000Y301400D02*
D03*
X433600Y298500D02*
D03*
X433200Y293900D02*
D03*
X433700Y290800D02*
D03*
X433300Y287000D02*
D03*
X433500Y283800D02*
D03*
X433700Y280800D02*
D03*
Y277300D02*
D03*
X226400Y217800D02*
D03*
X224100Y208600D02*
D03*
X218600Y224400D02*
D03*
X416600Y446209D02*
D03*
X416500Y373400D02*
D03*
X523300Y251300D02*
D03*
X525600Y241000D02*
D03*
X522200Y235700D02*
D03*
X483100Y264300D02*
D03*
X480500Y274800D02*
D03*
X493700Y288800D02*
D03*
X463939Y253750D02*
D03*
X512800Y260500D02*
D03*
X514100Y257000D02*
D03*
X508500Y281400D02*
D03*
X510000Y276800D02*
D03*
X488400Y243500D02*
D03*
X488200Y248300D02*
D03*
X485000Y258400D02*
D03*
X480500Y283200D02*
D03*
X483900Y287100D02*
D03*
X488900Y269900D02*
D03*
X498100Y416000D02*
D03*
X499400Y418000D02*
D03*
X500800Y420000D02*
D03*
X501400Y307300D02*
D03*
X502800Y303400D02*
D03*
X489300Y295200D02*
D03*
X487700Y273300D02*
D03*
X491100Y266500D02*
D03*
X491000Y297000D02*
D03*
X488900Y293000D02*
D03*
X493500Y293700D02*
D03*
X465400Y262000D02*
D03*
X465700Y259800D02*
D03*
X467300Y255000D02*
D03*
X464600Y245400D02*
D03*
X465000Y248300D02*
D03*
X465100Y251300D02*
D03*
X509100Y286000D02*
D03*
X367000Y346900D02*
D03*
X369400Y349600D02*
D03*
X370700Y354200D02*
D03*
X370400Y352000D02*
D03*
X369600Y283200D02*
D03*
X372500Y294100D02*
D03*
X357400Y280800D02*
D03*
X368200Y285000D02*
D03*
X370400Y287100D02*
D03*
X371200Y360000D02*
D03*
X339800Y246200D02*
D03*
X332900Y305300D02*
D03*
X266800Y296200D02*
D03*
X260000Y344600D02*
D03*
X478200Y321700D02*
D03*
X292900Y310900D02*
D03*
X260500Y289400D02*
D03*
X262400Y302100D02*
D03*
X317100Y458600D02*
D03*
X298500Y427000D02*
D03*
X386800Y254300D02*
D03*
X399200Y302600D02*
D03*
X396400Y306400D02*
D03*
X393800Y305300D02*
D03*
X393600Y286200D02*
D03*
X525900Y221400D02*
D03*
X523900Y223100D02*
D03*
X522200Y225700D02*
D03*
X513311Y227400D02*
D03*
X464400Y215700D02*
D03*
X463400Y218600D02*
D03*
X466200Y220400D02*
D03*
X464200Y222600D02*
D03*
X465700Y224700D02*
D03*
X463500Y226700D02*
D03*
X465200Y228400D02*
D03*
X463900Y230700D02*
D03*
X512200Y266500D02*
D03*
X512000Y270800D02*
D03*
X497400Y262100D02*
D03*
X500200Y259500D02*
D03*
X501700Y255600D02*
D03*
X503100Y253200D02*
D03*
X505300Y253100D02*
D03*
X506800Y250100D02*
D03*
X506700Y246700D02*
D03*
X509300Y245500D02*
D03*
X464000Y282000D02*
D03*
X465300Y284700D02*
D03*
X482300Y285200D02*
D03*
X463400Y286500D02*
D03*
X465400Y289100D02*
D03*
X485400D02*
D03*
X463000Y290800D02*
D03*
X487000Y291000D02*
D03*
X465300Y293000D02*
D03*
X463600Y294800D02*
D03*
X486600Y314300D02*
D03*
X463000Y349900D02*
D03*
X463400Y354100D02*
D03*
X487700Y309300D02*
D03*
X488900Y305000D02*
D03*
X464900Y363800D02*
D03*
X463600Y361900D02*
D03*
X464800Y359900D02*
D03*
X463639Y357950D02*
D03*
X464800Y356000D02*
D03*
X485900Y348500D02*
D03*
X487500Y351300D02*
D03*
X489000Y353500D02*
D03*
X490500Y355400D02*
D03*
X491700Y357900D02*
D03*
X493200Y360100D02*
D03*
X494600Y362400D02*
D03*
X496400Y364000D02*
D03*
X463700Y415900D02*
D03*
X463500Y419900D02*
D03*
Y423900D02*
D03*
X463700Y428100D02*
D03*
X501100Y338400D02*
D03*
X501700Y334600D02*
D03*
X503700Y424000D02*
D03*
X499400Y343300D02*
D03*
X499200Y346900D02*
D03*
X498300Y352600D02*
D03*
X474200Y312600D02*
D03*
X382900Y301000D02*
D03*
X359100Y355600D02*
D03*
X504300Y327800D02*
D03*
X506000Y323200D02*
D03*
X508300Y320400D02*
D03*
X507900Y429900D02*
D03*
X397400Y371300D02*
D03*
X391200Y370700D02*
D03*
X401800Y371100D02*
D03*
X404900Y371300D02*
D03*
X407200Y272100D02*
D03*
X396800Y237596D02*
D03*
X400400Y239400D02*
D03*
X391900Y236600D02*
D03*
X385800Y237300D02*
D03*
X264000Y276100D02*
D03*
X386800Y450400D02*
D03*
X370900Y408000D02*
D03*
X369800Y412800D02*
D03*
X367300Y411100D02*
D03*
X366300Y407900D02*
D03*
X190900Y235100D02*
D03*
X221900Y314800D02*
D03*
X245100Y441800D02*
D03*
X253500Y441000D02*
D03*
X195000Y217100D02*
D03*
X199600Y217800D02*
D03*
X370600Y221100D02*
D03*
X370700Y218900D02*
D03*
X369400Y215900D02*
D03*
X351200Y277400D02*
D03*
X348700Y330800D02*
D03*
X341700Y332700D02*
D03*
X347400Y338400D02*
D03*
X232300Y302600D02*
D03*
X372200Y234100D02*
D03*
X299700Y279300D02*
D03*
X301900Y283800D02*
D03*
X302900Y276700D02*
D03*
X206400Y340500D02*
D03*
X201800Y339900D02*
D03*
X251800Y369800D02*
D03*
X237900Y337500D02*
D03*
X233000Y334500D02*
D03*
X206800Y333100D02*
D03*
X206900Y328200D02*
D03*
X181700Y328300D02*
D03*
X70700Y369700D02*
D03*
X413400Y260100D02*
D03*
X241400Y328500D02*
D03*
X241900Y440000D02*
D03*
X263100D02*
D03*
X270400Y294900D02*
D03*
X268100Y320100D02*
D03*
X209500Y232700D02*
D03*
X431900Y245800D02*
D03*
X524400Y245700D02*
D03*
X369900Y275600D02*
D03*
M02*
