G04*
G04 #@! TF.GenerationSoftware,Altium Limited,Altium Designer,19.0.15 (446)*
G04*
G04 Layer_Color=32896*
%FSLAX25Y25*%
%MOIN*%
G70*
G01*
G75*
%ADD10C,0.01000*%
%ADD11C,0.02362*%
%ADD12C,0.00984*%
%ADD13C,0.00800*%
%ADD14C,0.00787*%
%ADD15C,0.02000*%
G36*
X591663Y387212D02*
X591962Y387175D01*
X592250Y387125D01*
X592525Y387050D01*
X592775Y386975D01*
X593013Y386888D01*
X593237Y386788D01*
X593437Y386687D01*
X593625Y386575D01*
X593775Y386488D01*
X593925Y386387D01*
X594037Y386313D01*
X594125Y386238D01*
X594200Y386188D01*
X594238Y386150D01*
X594250Y386138D01*
X594462Y385938D01*
X594650Y385725D01*
X594812Y385512D01*
X594950Y385287D01*
X595062Y385075D01*
X595162Y384862D01*
X595237Y384650D01*
X595300Y384462D01*
X595350Y384275D01*
X595388Y384100D01*
X595412Y383950D01*
X595437Y383812D01*
Y383713D01*
X595450Y383625D01*
Y383562D01*
X595437Y383250D01*
X595400Y382962D01*
X595337Y382700D01*
X595275Y382475D01*
X595200Y382275D01*
X595175Y382200D01*
X595150Y382137D01*
X595125Y382087D01*
X595100Y382050D01*
X595087Y382025D01*
Y382013D01*
X594938Y381763D01*
X594788Y381550D01*
X594625Y381363D01*
X594475Y381212D01*
X594338Y381087D01*
X594225Y381013D01*
X594150Y380950D01*
X594137Y380938D01*
X594125D01*
Y380875D01*
X595200Y380938D01*
X598750D01*
Y379487D01*
X587500D01*
Y380875D01*
X588562D01*
Y380938D01*
X588350Y381087D01*
X588163Y381262D01*
X588000Y381437D01*
X587862Y381612D01*
X587750Y381775D01*
X587663Y381900D01*
X587638Y381950D01*
X587612Y381988D01*
X587600Y382000D01*
Y382013D01*
X587488Y382275D01*
X587400Y382550D01*
X587337Y382812D01*
X587300Y383050D01*
X587275Y383262D01*
X587262Y383350D01*
X587250Y383425D01*
Y383562D01*
X587262Y383838D01*
X587300Y384113D01*
X587362Y384363D01*
X587437Y384612D01*
X587525Y384838D01*
X587625Y385050D01*
X587738Y385238D01*
X587850Y385425D01*
X587950Y385588D01*
X588062Y385725D01*
X588163Y385850D01*
X588250Y385950D01*
X588325Y386025D01*
X588387Y386087D01*
X588425Y386125D01*
X588438Y386138D01*
X588662Y386325D01*
X588912Y386500D01*
X589150Y386637D01*
X589400Y386762D01*
X589650Y386875D01*
X589888Y386963D01*
X590125Y387037D01*
X590350Y387087D01*
X590550Y387138D01*
X590750Y387162D01*
X590912Y387188D01*
X591062Y387212D01*
X591187D01*
X591275Y387225D01*
X591325D01*
X591350D01*
X591663Y387212D01*
D02*
G37*
G36*
X588875Y372937D02*
X592037Y376075D01*
X592375Y376375D01*
X592700Y376638D01*
X593025Y376875D01*
X593325Y377063D01*
X593625Y377238D01*
X593900Y377375D01*
X594163Y377487D01*
X594400Y377575D01*
X594613Y377650D01*
X594812Y377700D01*
X594987Y377737D01*
X595125Y377763D01*
X595250Y377775D01*
X595325Y377787D01*
X595388D01*
X595400D01*
X595638Y377775D01*
X595875Y377750D01*
X596088Y377700D01*
X596300Y377638D01*
X596488Y377562D01*
X596675Y377475D01*
X596838Y377387D01*
X596987Y377300D01*
X597125Y377213D01*
X597250Y377125D01*
X597350Y377038D01*
X597437Y376962D01*
X597512Y376900D01*
X597563Y376850D01*
X597587Y376825D01*
X597600Y376813D01*
X597762Y376625D01*
X597900Y376425D01*
X598012Y376225D01*
X598125Y376025D01*
X598212Y375813D01*
X598275Y375612D01*
X598338Y375413D01*
X598387Y375225D01*
X598425Y375050D01*
X598450Y374887D01*
X598475Y374750D01*
X598488Y374625D01*
X598500Y374513D01*
Y374375D01*
X598488Y374150D01*
X598475Y373938D01*
X598387Y373537D01*
X598287Y373175D01*
X598225Y373012D01*
X598163Y372863D01*
X598088Y372725D01*
X598025Y372613D01*
X597975Y372513D01*
X597925Y372425D01*
X597875Y372350D01*
X597837Y372300D01*
X597825Y372275D01*
X597813Y372263D01*
X597687Y372100D01*
X597550Y371962D01*
X597412Y371825D01*
X597262Y371700D01*
X596987Y371487D01*
X596725Y371325D01*
X596488Y371213D01*
X596387Y371163D01*
X596300Y371125D01*
X596238Y371100D01*
X596187Y371075D01*
X596150Y371062D01*
X596138D01*
X595612Y372375D01*
X595837Y372450D01*
X596037Y372550D01*
X596225Y372662D01*
X596375Y372787D01*
X596500Y372900D01*
X596600Y372988D01*
X596650Y373050D01*
X596675Y373075D01*
X596825Y373288D01*
X596925Y373500D01*
X597000Y373712D01*
X597062Y373913D01*
X597087Y374088D01*
X597100Y374225D01*
X597113Y374275D01*
Y374350D01*
X597087Y374662D01*
X597038Y374938D01*
X596950Y375175D01*
X596863Y375375D01*
X596775Y375537D01*
X596688Y375662D01*
X596637Y375738D01*
X596613Y375763D01*
X596513Y375863D01*
X596413Y375950D01*
X596212Y376075D01*
X596012Y376175D01*
X595825Y376250D01*
X595650Y376288D01*
X595525Y376300D01*
X595475Y376312D01*
X595437D01*
X595412D01*
X595400D01*
X595250D01*
X595113Y376288D01*
X594838Y376225D01*
X594575Y376137D01*
X594350Y376050D01*
X594163Y375950D01*
X594088Y375900D01*
X594025Y375863D01*
X593975Y375825D01*
X593937Y375800D01*
X593913Y375787D01*
X593900Y375775D01*
X593762Y375662D01*
X593600Y375537D01*
X593437Y375400D01*
X593262Y375250D01*
X592912Y374925D01*
X592562Y374600D01*
X592400Y374450D01*
X592238Y374312D01*
X592100Y374175D01*
X591988Y374062D01*
X591888Y373975D01*
X591813Y373900D01*
X591762Y373850D01*
X591750Y373837D01*
X588938Y371062D01*
X587500D01*
Y377912D01*
X588875D01*
Y372937D01*
D02*
G37*
G36*
X588637Y369662D02*
X588788Y369625D01*
X588912Y369575D01*
X589025Y369525D01*
X589113Y369462D01*
X589175Y369412D01*
X589213Y369375D01*
X589225Y369362D01*
X589325Y369250D01*
X589400Y369112D01*
X589463Y368987D01*
X589500Y368875D01*
X589525Y368762D01*
X589537Y368675D01*
Y368600D01*
X589525Y368438D01*
X589488Y368300D01*
X589437Y368175D01*
X589388Y368062D01*
X589325Y367975D01*
X589275Y367900D01*
X589237Y367863D01*
X589225Y367850D01*
X589113Y367750D01*
X588987Y367675D01*
X588863Y367613D01*
X588737Y367575D01*
X588637Y367550D01*
X588550Y367537D01*
X588500D01*
X588475D01*
X588312Y367550D01*
X588163Y367587D01*
X588037Y367637D01*
X587925Y367700D01*
X587838Y367750D01*
X587775Y367800D01*
X587725Y367838D01*
X587712Y367850D01*
X587612Y367975D01*
X587537Y368100D01*
X587488Y368225D01*
X587450Y368337D01*
X587425Y368450D01*
X587413Y368525D01*
Y368600D01*
X587425Y368762D01*
X587463Y368913D01*
X587512Y369050D01*
X587563Y369150D01*
X587612Y369237D01*
X587663Y369313D01*
X587700Y369350D01*
X587712Y369362D01*
X587838Y369462D01*
X587962Y369537D01*
X588088Y369600D01*
X588212Y369637D01*
X588312Y369662D01*
X588400Y369675D01*
X588450D01*
X588475D01*
X588637Y369662D01*
D02*
G37*
G36*
X590863Y366125D02*
X591162Y366075D01*
X591425Y366000D01*
X591650Y365913D01*
X591838Y365812D01*
X591913Y365775D01*
X591975Y365738D01*
X592037Y365712D01*
X592075Y365687D01*
X592088Y365663D01*
X592100D01*
X592338Y365475D01*
X592550Y365263D01*
X592737Y365037D01*
X592887Y364825D01*
X593000Y364637D01*
X593050Y364563D01*
X593087Y364488D01*
X593113Y364425D01*
X593138Y364387D01*
X593150Y364363D01*
Y364350D01*
X593213D01*
X593363Y364600D01*
X593525Y364825D01*
X593713Y365013D01*
X593900Y365188D01*
X594088Y365325D01*
X594275Y365438D01*
X594475Y365538D01*
X594650Y365613D01*
X594825Y365663D01*
X595000Y365712D01*
X595138Y365750D01*
X595275Y365762D01*
X595375Y365775D01*
X595463Y365788D01*
X595512D01*
X595525D01*
X595762Y365775D01*
X595988Y365750D01*
X596212Y365700D01*
X596413Y365637D01*
X596600Y365563D01*
X596775Y365488D01*
X596938Y365400D01*
X597075Y365313D01*
X597213Y365225D01*
X597325Y365138D01*
X597425Y365062D01*
X597500Y364987D01*
X597563Y364925D01*
X597612Y364875D01*
X597638Y364850D01*
X597650Y364838D01*
X597800Y364650D01*
X597925Y364450D01*
X598050Y364250D01*
X598138Y364050D01*
X598225Y363850D01*
X598287Y363650D01*
X598400Y363263D01*
X598425Y363088D01*
X598450Y362937D01*
X598475Y362788D01*
X598488Y362663D01*
X598500Y362562D01*
Y362425D01*
X598488Y362212D01*
X598475Y362013D01*
X598400Y361625D01*
X598313Y361287D01*
X598250Y361138D01*
X598200Y361000D01*
X598138Y360862D01*
X598088Y360750D01*
X598025Y360663D01*
X597988Y360575D01*
X597950Y360512D01*
X597913Y360462D01*
X597900Y360437D01*
X597888Y360425D01*
X597638Y360125D01*
X597375Y359875D01*
X597113Y359663D01*
X596863Y359500D01*
X596637Y359375D01*
X596537Y359325D01*
X596450Y359288D01*
X596387Y359250D01*
X596338Y359225D01*
X596300Y359212D01*
X596287D01*
X595713Y360550D01*
X595962Y360650D01*
X596175Y360775D01*
X596362Y360912D01*
X596525Y361063D01*
X596663Y361212D01*
X596775Y361375D01*
X596863Y361525D01*
X596938Y361675D01*
X597000Y361825D01*
X597038Y361963D01*
X597075Y362087D01*
X597087Y362200D01*
X597100Y362300D01*
X597113Y362363D01*
Y362425D01*
X597100Y362725D01*
X597050Y363000D01*
X596975Y363225D01*
X596900Y363425D01*
X596812Y363575D01*
X596750Y363700D01*
X596700Y363762D01*
X596675Y363788D01*
X596500Y363963D01*
X596313Y364088D01*
X596125Y364188D01*
X595937Y364250D01*
X595775Y364287D01*
X595638Y364300D01*
X595600Y364313D01*
X595563D01*
X595538D01*
X595525D01*
X595388D01*
X595250Y364287D01*
X595013Y364225D01*
X594800Y364138D01*
X594613Y364037D01*
X594475Y363937D01*
X594362Y363850D01*
X594300Y363788D01*
X594275Y363775D01*
Y363762D01*
X594112Y363550D01*
X594000Y363313D01*
X593913Y363075D01*
X593862Y362850D01*
X593825Y362650D01*
X593813Y362562D01*
Y362500D01*
X593800Y362438D01*
Y361525D01*
X592450D01*
Y362625D01*
X592425Y362788D01*
X592362Y363088D01*
X592275Y363350D01*
X592175Y363575D01*
X592075Y363762D01*
X592025Y363838D01*
X591988Y363900D01*
X591950Y363950D01*
X591925Y363987D01*
X591913Y364000D01*
X591900Y364013D01*
X591800Y364125D01*
X591687Y364237D01*
X591575Y364325D01*
X591463Y364400D01*
X591237Y364512D01*
X591025Y364587D01*
X590837Y364637D01*
X590750Y364650D01*
X590688Y364663D01*
X590625Y364675D01*
X590588D01*
X590562D01*
X590550D01*
X590400Y364663D01*
X590263Y364650D01*
X589988Y364575D01*
X589762Y364475D01*
X589563Y364363D01*
X589400Y364250D01*
X589275Y364150D01*
X589200Y364075D01*
X589187Y364062D01*
X589175Y364050D01*
X589075Y363925D01*
X589000Y363800D01*
X588863Y363538D01*
X588763Y363287D01*
X588700Y363050D01*
X588650Y362838D01*
X588637Y362750D01*
Y362675D01*
X588625Y362613D01*
Y362525D01*
X588650Y362238D01*
X588700Y361963D01*
X588775Y361725D01*
X588863Y361525D01*
X588950Y361363D01*
X589025Y361238D01*
X589075Y361162D01*
X589100Y361150D01*
Y361138D01*
X589300Y360938D01*
X589525Y360775D01*
X589750Y360625D01*
X589975Y360512D01*
X590175Y360425D01*
X590263Y360387D01*
X590338Y360363D01*
X590400Y360337D01*
X590450Y360325D01*
X590475Y360313D01*
X590487D01*
X589925Y359000D01*
X589700Y359075D01*
X589500Y359150D01*
X589113Y359350D01*
X588938Y359462D01*
X588775Y359575D01*
X588625Y359687D01*
X588500Y359800D01*
X588375Y359900D01*
X588263Y360000D01*
X588175Y360100D01*
X588100Y360175D01*
X588037Y360238D01*
X588000Y360300D01*
X587975Y360325D01*
X587962Y360337D01*
X587838Y360525D01*
X587725Y360713D01*
X587638Y360900D01*
X587550Y361087D01*
X587488Y361275D01*
X587425Y361462D01*
X587337Y361800D01*
X587313Y361950D01*
X587288Y362087D01*
X587275Y362212D01*
X587262Y362325D01*
X587250Y362413D01*
Y362525D01*
X587262Y362812D01*
X587288Y363075D01*
X587337Y363337D01*
X587400Y363575D01*
X587463Y363800D01*
X587550Y364013D01*
X587638Y364212D01*
X587725Y364387D01*
X587813Y364550D01*
X587887Y364687D01*
X587975Y364812D01*
X588037Y364913D01*
X588100Y365000D01*
X588150Y365050D01*
X588175Y365088D01*
X588188Y365100D01*
X588375Y365287D01*
X588562Y365450D01*
X588750Y365587D01*
X588950Y365712D01*
X589150Y365812D01*
X589350Y365900D01*
X589537Y365963D01*
X589725Y366025D01*
X589888Y366062D01*
X590050Y366100D01*
X590188Y366112D01*
X590312Y366138D01*
X590413D01*
X590487Y366150D01*
X590538D01*
X590550D01*
X590863Y366125D01*
D02*
G37*
G36*
X595200Y351600D02*
X589225Y349300D01*
Y349262D01*
X595200Y347000D01*
Y345438D01*
X587500Y348550D01*
Y349988D01*
X595200Y353137D01*
Y351600D01*
D02*
G37*
G36*
X591600Y344925D02*
X591950Y344900D01*
X592263Y344837D01*
X592562Y344775D01*
X592837Y344700D01*
X593100Y344613D01*
X593325Y344525D01*
X593538Y344425D01*
X593725Y344325D01*
X593888Y344237D01*
X594025Y344150D01*
X594137Y344075D01*
X594225Y344012D01*
X594287Y343963D01*
X594325Y343925D01*
X594338Y343913D01*
X594537Y343712D01*
X594700Y343500D01*
X594850Y343287D01*
X594975Y343062D01*
X595087Y342838D01*
X595175Y342600D01*
X595250Y342388D01*
X595312Y342175D01*
X595363Y341975D01*
X595388Y341788D01*
X595412Y341613D01*
X595437Y341475D01*
Y341350D01*
X595450Y341263D01*
Y341188D01*
X595437Y340887D01*
X595400Y340587D01*
X595337Y340313D01*
X595262Y340062D01*
X595175Y339812D01*
X595075Y339587D01*
X594975Y339387D01*
X594863Y339200D01*
X594750Y339025D01*
X594650Y338875D01*
X594550Y338750D01*
X594462Y338650D01*
X594387Y338562D01*
X594325Y338500D01*
X594287Y338462D01*
X594275Y338450D01*
X594050Y338263D01*
X593813Y338100D01*
X593575Y337963D01*
X593325Y337838D01*
X593087Y337737D01*
X592837Y337650D01*
X592600Y337575D01*
X592375Y337525D01*
X592163Y337475D01*
X591975Y337450D01*
X591800Y337425D01*
X591650Y337400D01*
X591525D01*
X591425Y337387D01*
X591375D01*
X591350D01*
X591025Y337400D01*
X590712Y337438D01*
X590425Y337488D01*
X590137Y337562D01*
X589888Y337637D01*
X589638Y337737D01*
X589412Y337838D01*
X589213Y337937D01*
X589038Y338037D01*
X588875Y338138D01*
X588737Y338238D01*
X588625Y338313D01*
X588538Y338387D01*
X588462Y338438D01*
X588425Y338475D01*
X588413Y338488D01*
X588212Y338700D01*
X588025Y338925D01*
X587875Y339150D01*
X587738Y339387D01*
X587625Y339625D01*
X587537Y339862D01*
X587463Y340088D01*
X587400Y340300D01*
X587350Y340500D01*
X587313Y340687D01*
X587288Y340862D01*
X587262Y341000D01*
Y341125D01*
X587250Y341213D01*
Y341287D01*
X587262Y341500D01*
X587275Y341712D01*
X587337Y342100D01*
X587425Y342450D01*
X587475Y342613D01*
X587525Y342762D01*
X587575Y342900D01*
X587612Y343012D01*
X587663Y343112D01*
X587700Y343200D01*
X587738Y343275D01*
X587762Y343325D01*
X587787Y343350D01*
Y343362D01*
X588013Y343688D01*
X588263Y343975D01*
X588513Y344225D01*
X588763Y344438D01*
X588975Y344600D01*
X589075Y344662D01*
X589150Y344712D01*
X589225Y344762D01*
X589275Y344788D01*
X589300Y344812D01*
X589313D01*
X589950Y343513D01*
X589700Y343362D01*
X589488Y343200D01*
X589313Y343025D01*
X589150Y342838D01*
X589012Y342663D01*
X588900Y342488D01*
X588812Y342313D01*
X588737Y342138D01*
X588675Y341975D01*
X588637Y341825D01*
X588600Y341687D01*
X588588Y341575D01*
X588575Y341488D01*
X588562Y341412D01*
Y341350D01*
X588575Y341162D01*
X588588Y340987D01*
X588675Y340650D01*
X588775Y340350D01*
X588912Y340100D01*
X588975Y339987D01*
X589038Y339900D01*
X589087Y339812D01*
X589138Y339738D01*
X589187Y339687D01*
X589225Y339650D01*
X589237Y339625D01*
X589250Y339613D01*
X589388Y339488D01*
X589525Y339375D01*
X589675Y339275D01*
X589825Y339188D01*
X590137Y339062D01*
X590425Y338963D01*
X590562Y338937D01*
X590688Y338913D01*
X590788Y338888D01*
X590887Y338875D01*
X590963D01*
X591025Y338862D01*
X591062D01*
X591075D01*
Y344913D01*
X591237Y344937D01*
X591600Y344925D01*
D02*
G37*
G36*
X592137Y333625D02*
X592175Y333663D01*
X592238Y333875D01*
X592300Y334075D01*
X592462Y334450D01*
X592562Y334625D01*
X592662Y334788D01*
X592763Y334925D01*
X592850Y335063D01*
X592950Y335175D01*
X593038Y335287D01*
X593125Y335375D01*
X593188Y335450D01*
X593250Y335512D01*
X593300Y335550D01*
X593325Y335575D01*
X593337Y335588D01*
X593512Y335725D01*
X593687Y335838D01*
X593862Y335938D01*
X594037Y336025D01*
X594212Y336100D01*
X594387Y336162D01*
X594712Y336250D01*
X594850Y336287D01*
X594987Y336313D01*
X595100Y336325D01*
X595200Y336337D01*
X595288Y336350D01*
X595350D01*
X595388D01*
X595400D01*
X595662Y336337D01*
X595913Y336300D01*
X596150Y336250D01*
X596375Y336188D01*
X596588Y336112D01*
X596788Y336025D01*
X596962Y335925D01*
X597125Y335838D01*
X597275Y335737D01*
X597412Y335637D01*
X597525Y335550D01*
X597612Y335475D01*
X597687Y335413D01*
X597750Y335363D01*
X597775Y335325D01*
X597788Y335313D01*
X597963Y335113D01*
X598100Y334912D01*
X598238Y334700D01*
X598350Y334488D01*
X598438Y334288D01*
X598513Y334075D01*
X598575Y333875D01*
X598625Y333687D01*
X598675Y333500D01*
X598700Y333337D01*
X598725Y333200D01*
X598737Y333075D01*
X598750Y332962D01*
Y328988D01*
X587500D01*
Y330437D01*
X592050D01*
Y332037D01*
X587500Y335075D01*
Y336788D01*
X587563D01*
X592137Y333625D01*
D02*
G37*
G36*
X598075Y309825D02*
X598175Y309475D01*
X598250Y309125D01*
X598300Y308775D01*
X598325Y308500D01*
X598350Y308250D01*
Y308050D01*
X598325Y307550D01*
X598225Y307075D01*
X598075Y306625D01*
X597925Y306200D01*
X597750Y305850D01*
X597625Y305575D01*
X597550Y305475D01*
X597525Y305400D01*
X597475Y305375D01*
Y305350D01*
X597125Y304875D01*
X596775Y304500D01*
X596425Y304175D01*
X596100Y303925D01*
X595800Y303750D01*
X595575Y303650D01*
X595425Y303575D01*
X595400Y303550D01*
X595375D01*
Y303425D01*
X597900D01*
Y300650D01*
X582500D01*
Y303550D01*
X590975D01*
X591300Y303575D01*
X591625Y303600D01*
X592200Y303750D01*
X592725Y303925D01*
X593175Y304150D01*
X593550Y304375D01*
X593700Y304475D01*
X593825Y304575D01*
X593925Y304650D01*
X594000Y304700D01*
X594025Y304725D01*
X594050Y304750D01*
X594275Y304975D01*
X594500Y305225D01*
X594675Y305475D01*
X594825Y305725D01*
X595050Y306200D01*
X595200Y306625D01*
X595300Y307025D01*
X595325Y307175D01*
X595350Y307325D01*
X595375Y307450D01*
Y308000D01*
X595350Y308350D01*
X595300Y308650D01*
X595275Y308900D01*
X595225Y309075D01*
X595175Y309200D01*
X595150Y309275D01*
Y309300D01*
X597950Y310175D01*
X598075Y309825D01*
D02*
G37*
G36*
X590700Y298000D02*
X591400Y297950D01*
X592025Y297825D01*
X592625Y297700D01*
X593175Y297550D01*
X593700Y297375D01*
X594150Y297200D01*
X594575Y297000D01*
X594950Y296800D01*
X595275Y296625D01*
X595550Y296450D01*
X595775Y296300D01*
X595950Y296175D01*
X596075Y296075D01*
X596150Y296000D01*
X596175Y295975D01*
X596575Y295575D01*
X596900Y295150D01*
X597200Y294725D01*
X597450Y294275D01*
X597675Y293825D01*
X597850Y293350D01*
X598000Y292925D01*
X598125Y292500D01*
X598225Y292100D01*
X598275Y291725D01*
X598325Y291375D01*
X598375Y291100D01*
Y290850D01*
X598400Y290675D01*
Y290525D01*
X598375Y289925D01*
X598300Y289325D01*
X598175Y288775D01*
X598025Y288275D01*
X597850Y287775D01*
X597650Y287325D01*
X597450Y286925D01*
X597225Y286550D01*
X597000Y286200D01*
X596800Y285900D01*
X596600Y285650D01*
X596425Y285450D01*
X596275Y285275D01*
X596150Y285150D01*
X596075Y285075D01*
X596050Y285050D01*
X595600Y284675D01*
X595125Y284350D01*
X594650Y284075D01*
X594150Y283825D01*
X593675Y283625D01*
X593175Y283450D01*
X592700Y283300D01*
X592250Y283200D01*
X591825Y283100D01*
X591450Y283050D01*
X591100Y283000D01*
X590800Y282950D01*
X590550D01*
X590350Y282925D01*
X590250D01*
X590200D01*
X589550Y282950D01*
X588925Y283025D01*
X588350Y283125D01*
X587775Y283275D01*
X587275Y283425D01*
X586775Y283625D01*
X586325Y283825D01*
X585925Y284025D01*
X585575Y284225D01*
X585250Y284425D01*
X584975Y284625D01*
X584750Y284775D01*
X584575Y284925D01*
X584425Y285025D01*
X584350Y285100D01*
X584325Y285125D01*
X583925Y285550D01*
X583550Y286000D01*
X583250Y286450D01*
X582975Y286925D01*
X582750Y287400D01*
X582575Y287875D01*
X582425Y288325D01*
X582300Y288750D01*
X582200Y289150D01*
X582125Y289525D01*
X582075Y289875D01*
X582025Y290150D01*
Y290400D01*
X582000Y290575D01*
Y290725D01*
X582025Y291150D01*
X582050Y291575D01*
X582175Y292350D01*
X582350Y293050D01*
X582450Y293375D01*
X582550Y293675D01*
X582650Y293950D01*
X582725Y294175D01*
X582825Y294375D01*
X582900Y294550D01*
X582975Y294700D01*
X583025Y294800D01*
X583075Y294850D01*
Y294875D01*
X583525Y295525D01*
X584025Y296100D01*
X584525Y296600D01*
X585025Y297025D01*
X585450Y297350D01*
X585650Y297475D01*
X585800Y297575D01*
X585950Y297675D01*
X586050Y297725D01*
X586100Y297775D01*
X586125D01*
X587400Y295175D01*
X586900Y294875D01*
X586475Y294550D01*
X586125Y294200D01*
X585800Y293825D01*
X585525Y293475D01*
X585300Y293125D01*
X585125Y292775D01*
X584975Y292425D01*
X584850Y292100D01*
X584775Y291800D01*
X584700Y291525D01*
X584675Y291300D01*
X584650Y291125D01*
X584625Y290975D01*
Y290850D01*
X584650Y290475D01*
X584675Y290125D01*
X584850Y289450D01*
X585050Y288850D01*
X585325Y288350D01*
X585450Y288125D01*
X585575Y287950D01*
X585675Y287775D01*
X585775Y287625D01*
X585875Y287525D01*
X585950Y287450D01*
X585975Y287400D01*
X586000Y287375D01*
X586275Y287125D01*
X586550Y286900D01*
X586850Y286700D01*
X587150Y286525D01*
X587775Y286275D01*
X588350Y286075D01*
X588625Y286025D01*
X588875Y285975D01*
X589075Y285925D01*
X589275Y285900D01*
X589425D01*
X589550Y285875D01*
X589625D01*
X589650D01*
Y297975D01*
X589975Y298025D01*
X590700Y298000D01*
D02*
G37*
G36*
X590825Y281125D02*
X591425Y281050D01*
X592000Y280950D01*
X592550Y280800D01*
X593050Y280650D01*
X593525Y280475D01*
X593975Y280275D01*
X594375Y280075D01*
X594750Y279850D01*
X595050Y279675D01*
X595350Y279475D01*
X595575Y279325D01*
X595750Y279175D01*
X595900Y279075D01*
X595975Y279000D01*
X596000Y278975D01*
X596425Y278575D01*
X596800Y278150D01*
X597125Y277725D01*
X597400Y277275D01*
X597625Y276850D01*
X597825Y276425D01*
X597975Y276000D01*
X598100Y275625D01*
X598200Y275250D01*
X598275Y274900D01*
X598325Y274600D01*
X598375Y274325D01*
Y274125D01*
X598400Y273950D01*
Y273825D01*
X598375Y273200D01*
X598300Y272625D01*
X598175Y272100D01*
X598050Y271650D01*
X597900Y271250D01*
X597850Y271100D01*
X597800Y270975D01*
X597750Y270875D01*
X597700Y270800D01*
X597675Y270750D01*
Y270725D01*
X597375Y270225D01*
X597075Y269800D01*
X596750Y269425D01*
X596450Y269125D01*
X596175Y268875D01*
X595950Y268725D01*
X595800Y268600D01*
X595775Y268575D01*
X595750D01*
Y268450D01*
X597900Y268575D01*
X605000D01*
Y265675D01*
X582500D01*
Y268450D01*
X584625D01*
Y268575D01*
X584200Y268875D01*
X583825Y269225D01*
X583500Y269575D01*
X583225Y269925D01*
X583000Y270250D01*
X582825Y270500D01*
X582775Y270600D01*
X582725Y270675D01*
X582700Y270700D01*
Y270725D01*
X582475Y271250D01*
X582300Y271800D01*
X582175Y272325D01*
X582100Y272800D01*
X582050Y273225D01*
X582025Y273400D01*
X582000Y273550D01*
Y273825D01*
X582025Y274375D01*
X582100Y274925D01*
X582225Y275425D01*
X582375Y275925D01*
X582550Y276375D01*
X582750Y276800D01*
X582975Y277175D01*
X583200Y277550D01*
X583400Y277875D01*
X583625Y278150D01*
X583825Y278400D01*
X584000Y278600D01*
X584150Y278750D01*
X584275Y278875D01*
X584350Y278950D01*
X584375Y278975D01*
X584825Y279350D01*
X585325Y279700D01*
X585800Y279975D01*
X586300Y280225D01*
X586800Y280450D01*
X587275Y280625D01*
X587750Y280775D01*
X588200Y280875D01*
X588600Y280975D01*
X589000Y281025D01*
X589325Y281075D01*
X589625Y281125D01*
X589875D01*
X590050Y281150D01*
X590150D01*
X590200D01*
X590825Y281125D01*
D02*
G37*
G36*
X592650Y262250D02*
X593175Y262225D01*
X593650Y262150D01*
X594100Y262050D01*
X594525Y261950D01*
X594900Y261825D01*
X595250Y261675D01*
X595550Y261550D01*
X595825Y261425D01*
X596075Y261275D01*
X596275Y261150D01*
X596450Y261050D01*
X596575Y260950D01*
X596675Y260900D01*
X596725Y260850D01*
X596750Y260825D01*
X597050Y260550D01*
X597300Y260225D01*
X597525Y259900D01*
X597700Y259575D01*
X597875Y259225D01*
X598000Y258875D01*
X598200Y258225D01*
X598275Y257900D01*
X598325Y257625D01*
X598350Y257375D01*
X598375Y257150D01*
X598400Y256950D01*
Y256700D01*
X598375Y256075D01*
X598275Y255500D01*
X598125Y254950D01*
X597950Y254450D01*
X597725Y253975D01*
X597475Y253525D01*
X597200Y253125D01*
X596925Y252775D01*
X596650Y252450D01*
X596375Y252175D01*
X596125Y251950D01*
X595900Y251750D01*
X595725Y251600D01*
X595575Y251500D01*
X595475Y251425D01*
X595450Y251400D01*
X595950Y251150D01*
X596375Y250850D01*
X596725Y250525D01*
X597050Y250225D01*
X597275Y249950D01*
X597450Y249725D01*
X597575Y249550D01*
X597600Y249525D01*
Y249500D01*
X597875Y249000D01*
X598075Y248500D01*
X598200Y248000D01*
X598300Y247525D01*
X598350Y247125D01*
X598375Y246950D01*
X598400Y246800D01*
Y246525D01*
X598375Y246025D01*
X598275Y245525D01*
X598175Y245075D01*
X598025Y244650D01*
X597900Y244300D01*
X597775Y244025D01*
X597725Y243925D01*
X597675Y243875D01*
X597650Y243825D01*
Y243800D01*
X597350Y243325D01*
X597050Y242900D01*
X596725Y242550D01*
X596425Y242275D01*
X596150Y242050D01*
X595950Y241900D01*
X595800Y241800D01*
X595775Y241775D01*
X595750D01*
Y241650D01*
X597900D01*
Y238875D01*
X582500D01*
Y241775D01*
X591000D01*
X591350Y241800D01*
X591700Y241825D01*
X592325Y241950D01*
X592900Y242125D01*
X593375Y242350D01*
X593600Y242450D01*
X593775Y242550D01*
X593950Y242650D01*
X594075Y242725D01*
X594175Y242800D01*
X594250Y242850D01*
X594300Y242900D01*
X594325D01*
X594575Y243125D01*
X594800Y243350D01*
X594975Y243575D01*
X595150Y243825D01*
X595300Y244050D01*
X595400Y244275D01*
X595575Y244725D01*
X595675Y245100D01*
X595700Y245275D01*
X595725Y245425D01*
X595750Y245550D01*
Y246025D01*
X595700Y246350D01*
X595600Y246900D01*
X595450Y247350D01*
X595275Y247700D01*
X595100Y247975D01*
X594950Y248175D01*
X594850Y248300D01*
X594800Y248325D01*
X594600Y248475D01*
X594400Y248600D01*
X593900Y248800D01*
X593400Y248925D01*
X592875Y249025D01*
X592425Y249075D01*
X592200Y249100D01*
X592025Y249125D01*
X591875D01*
X591775D01*
X591700D01*
X591675D01*
X582500D01*
Y252025D01*
X591000D01*
X591350Y252050D01*
X591700Y252075D01*
X592325Y252200D01*
X592900Y252375D01*
X593375Y252600D01*
X593600Y252700D01*
X593775Y252800D01*
X593950Y252900D01*
X594075Y252975D01*
X594175Y253050D01*
X594250Y253100D01*
X594300Y253150D01*
X594325D01*
X594575Y253375D01*
X594800Y253600D01*
X594975Y253825D01*
X595150Y254075D01*
X595300Y254300D01*
X595400Y254525D01*
X595575Y254975D01*
X595675Y255350D01*
X595700Y255525D01*
X595725Y255675D01*
X595750Y255800D01*
Y256275D01*
X595700Y256600D01*
X595600Y257150D01*
X595450Y257600D01*
X595275Y257950D01*
X595100Y258225D01*
X594950Y258425D01*
X594850Y258550D01*
X594800Y258575D01*
X594600Y258725D01*
X594400Y258850D01*
X593900Y259050D01*
X593400Y259175D01*
X592875Y259275D01*
X592425Y259325D01*
X592200Y259350D01*
X592025Y259375D01*
X591875D01*
X591775D01*
X591700D01*
X591675D01*
X582500D01*
Y262275D01*
X592100D01*
X592650Y262250D01*
D02*
G37*
G36*
X605000Y228250D02*
Y224975D01*
X582500Y216500D01*
Y219700D01*
X588600Y221900D01*
Y231375D01*
X582500Y233525D01*
Y236750D01*
X605000Y228250D01*
D02*
G37*
%LPC*%
G36*
X591463Y385775D02*
X591400D01*
X591362D01*
X591350D01*
X591125Y385763D01*
X590912Y385750D01*
X590525Y385663D01*
X590338Y385613D01*
X590175Y385550D01*
X590025Y385488D01*
X589888Y385425D01*
X589762Y385363D01*
X589663Y385300D01*
X589563Y385238D01*
X589488Y385188D01*
X589425Y385138D01*
X589388Y385100D01*
X589362Y385087D01*
X589350Y385075D01*
X589213Y384938D01*
X589087Y384800D01*
X588987Y384650D01*
X588900Y384500D01*
X588825Y384350D01*
X588750Y384212D01*
X588662Y383938D01*
X588600Y383687D01*
X588588Y383588D01*
X588575Y383500D01*
X588562Y383425D01*
Y383325D01*
X588575Y383137D01*
X588600Y382950D01*
X588637Y382775D01*
X588688Y382612D01*
X588812Y382312D01*
X588950Y382050D01*
X589025Y381938D01*
X589087Y381838D01*
X589162Y381763D01*
X589213Y381687D01*
X589262Y381638D01*
X589300Y381600D01*
X589325Y381575D01*
X589337Y381562D01*
X589488Y381437D01*
X589650Y381337D01*
X589813Y381250D01*
X589988Y381163D01*
X590325Y381037D01*
X590637Y380962D01*
X590788Y380938D01*
X590925Y380912D01*
X591038Y380900D01*
X591150Y380888D01*
X591237Y380875D01*
X591300D01*
X591337D01*
X591350D01*
X591575Y380888D01*
X591787Y380900D01*
X592175Y380988D01*
X592350Y381037D01*
X592513Y381087D01*
X592662Y381150D01*
X592800Y381225D01*
X592925Y381288D01*
X593025Y381350D01*
X593125Y381400D01*
X593200Y381450D01*
X593262Y381500D01*
X593300Y381538D01*
X593325Y381550D01*
X593337Y381562D01*
X593475Y381700D01*
X593600Y381838D01*
X593700Y381988D01*
X593787Y382137D01*
X593875Y382288D01*
X593937Y382437D01*
X594025Y382713D01*
X594088Y382950D01*
X594100Y383063D01*
X594112Y383150D01*
X594125Y383225D01*
Y383325D01*
X594112Y383512D01*
X594088Y383700D01*
X594050Y383875D01*
X594000Y384037D01*
X593875Y384337D01*
X593738Y384588D01*
X593663Y384700D01*
X593587Y384800D01*
X593525Y384875D01*
X593463Y384950D01*
X593412Y385000D01*
X593375Y385037D01*
X593350Y385063D01*
X593337Y385075D01*
X593188Y385200D01*
X593025Y385313D01*
X592863Y385400D01*
X592700Y385475D01*
X592362Y385600D01*
X592050Y385687D01*
X591913Y385713D01*
X591775Y385737D01*
X591650Y385750D01*
X591550Y385763D01*
X591463Y385775D01*
D02*
G37*
G36*
X592312Y343388D02*
X592287D01*
X592275D01*
Y338975D01*
X592575Y339062D01*
X592850Y339175D01*
X593075Y339300D01*
X593275Y339438D01*
X593425Y339550D01*
X593538Y339650D01*
X593600Y339725D01*
X593625Y339738D01*
Y339750D01*
X593787Y339975D01*
X593913Y340225D01*
X594000Y340450D01*
X594063Y340675D01*
X594100Y340875D01*
X594112Y340950D01*
Y341025D01*
X594125Y341088D01*
Y341162D01*
X594100Y341512D01*
X594037Y341825D01*
X593962Y342100D01*
X593862Y342325D01*
X593762Y342500D01*
X593725Y342575D01*
X593687Y342625D01*
X593650Y342675D01*
X593625Y342712D01*
X593612Y342725D01*
X593600Y342738D01*
X593388Y342937D01*
X593175Y343088D01*
X592950Y343200D01*
X592737Y343287D01*
X592550Y343337D01*
X592413Y343375D01*
X592350D01*
X592312Y343388D01*
D02*
G37*
G36*
X595475Y334875D02*
X595437D01*
X595412D01*
X595400D01*
X595250Y334862D01*
X595100Y334850D01*
X594825Y334775D01*
X594575Y334675D01*
X594375Y334562D01*
X594200Y334450D01*
X594075Y334350D01*
X594037Y334313D01*
X594000Y334275D01*
X593988Y334262D01*
X593975Y334250D01*
X593875Y334138D01*
X593787Y334013D01*
X593650Y333763D01*
X593550Y333512D01*
X593488Y333275D01*
X593437Y333075D01*
X593425Y332987D01*
Y332912D01*
X593412Y332850D01*
Y330437D01*
X597375D01*
Y332862D01*
X597363Y333025D01*
X597350Y333175D01*
X597288Y333450D01*
X597188Y333700D01*
X597075Y333900D01*
X596962Y334075D01*
X596875Y334200D01*
X596825Y334238D01*
X596800Y334275D01*
X596788Y334288D01*
X596775Y334300D01*
X596663Y334400D01*
X596550Y334488D01*
X596313Y334637D01*
X596088Y334737D01*
X595862Y334800D01*
X595675Y334850D01*
X595600Y334862D01*
X595538D01*
X595475Y334875D01*
D02*
G37*
G36*
X592125Y294925D02*
X592075D01*
X592050D01*
Y286100D01*
X592650Y286275D01*
X593200Y286500D01*
X593650Y286750D01*
X594050Y287025D01*
X594350Y287250D01*
X594575Y287450D01*
X594700Y287600D01*
X594750Y287625D01*
Y287650D01*
X595075Y288100D01*
X595325Y288600D01*
X595500Y289050D01*
X595625Y289500D01*
X595700Y289900D01*
X595725Y290050D01*
Y290200D01*
X595750Y290325D01*
Y290475D01*
X595700Y291175D01*
X595575Y291800D01*
X595425Y292350D01*
X595225Y292800D01*
X595025Y293150D01*
X594950Y293300D01*
X594875Y293400D01*
X594800Y293500D01*
X594750Y293575D01*
X594725Y293600D01*
X594700Y293625D01*
X594275Y294025D01*
X593850Y294325D01*
X593400Y294550D01*
X592975Y294725D01*
X592600Y294825D01*
X592325Y294900D01*
X592200D01*
X592125Y294925D01*
D02*
G37*
G36*
X590425Y278250D02*
X590300D01*
X590225D01*
X590200D01*
X589750Y278225D01*
X589325Y278200D01*
X588550Y278025D01*
X588175Y277925D01*
X587850Y277800D01*
X587550Y277675D01*
X587275Y277550D01*
X587025Y277425D01*
X586825Y277300D01*
X586625Y277175D01*
X586475Y277075D01*
X586350Y276975D01*
X586275Y276900D01*
X586225Y276875D01*
X586200Y276850D01*
X585925Y276575D01*
X585675Y276300D01*
X585475Y276000D01*
X585300Y275700D01*
X585150Y275400D01*
X585000Y275125D01*
X584825Y274575D01*
X584700Y274075D01*
X584675Y273875D01*
X584650Y273700D01*
X584625Y273550D01*
Y273350D01*
X584650Y272975D01*
X584700Y272600D01*
X584775Y272250D01*
X584875Y271925D01*
X585125Y271325D01*
X585400Y270800D01*
X585550Y270575D01*
X585675Y270375D01*
X585825Y270225D01*
X585925Y270075D01*
X586025Y269975D01*
X586100Y269900D01*
X586150Y269850D01*
X586175Y269825D01*
X586475Y269575D01*
X586800Y269375D01*
X587125Y269200D01*
X587475Y269025D01*
X588150Y268775D01*
X588775Y268625D01*
X589075Y268575D01*
X589350Y268525D01*
X589575Y268500D01*
X589800Y268475D01*
X589975Y268450D01*
X590100D01*
X590175D01*
X590200D01*
X590650Y268475D01*
X591075Y268500D01*
X591850Y268675D01*
X592200Y268775D01*
X592525Y268875D01*
X592825Y269000D01*
X593100Y269150D01*
X593350Y269275D01*
X593550Y269400D01*
X593750Y269500D01*
X593900Y269600D01*
X594025Y269700D01*
X594100Y269775D01*
X594150Y269800D01*
X594175Y269825D01*
X594450Y270100D01*
X594700Y270375D01*
X594900Y270675D01*
X595075Y270975D01*
X595250Y271275D01*
X595375Y271575D01*
X595550Y272125D01*
X595675Y272600D01*
X595700Y272825D01*
X595725Y273000D01*
X595750Y273150D01*
Y273350D01*
X595725Y273725D01*
X595675Y274100D01*
X595600Y274450D01*
X595500Y274775D01*
X595250Y275375D01*
X594975Y275875D01*
X594825Y276100D01*
X594675Y276300D01*
X594550Y276450D01*
X594425Y276600D01*
X594325Y276700D01*
X594250Y276775D01*
X594200Y276825D01*
X594175Y276850D01*
X593875Y277100D01*
X593550Y277325D01*
X593225Y277500D01*
X592900Y277650D01*
X592225Y277900D01*
X591600Y278075D01*
X591325Y278125D01*
X591050Y278175D01*
X590800Y278200D01*
X590600Y278225D01*
X590425Y278250D01*
D02*
G37*
G36*
X591300Y230350D02*
Y222875D01*
X601450Y226550D01*
Y226675D01*
X591300Y230350D01*
D02*
G37*
%LPD*%
D10*
X208886Y214055D02*
G03*
X208886Y214055I-500J0D01*
G01*
X436201Y384945D02*
G03*
X436201Y384945I-394J0D01*
G01*
X146740Y251898D02*
G03*
X146740Y251898I-500J0D01*
G01*
X513099Y387217D02*
G03*
X513099Y387217I-566J0D01*
G01*
X185421Y459731D02*
G03*
X218410Y459572I16553J12082D01*
G01*
X160709Y399921D02*
G03*
X244009Y399921I41650J26630D01*
G01*
X236009Y448621D02*
G03*
X227810Y459721I-9650J1450D01*
G01*
X180317Y459778D02*
G03*
X168809Y448521I2442J-14007D01*
G01*
X94693Y387047D02*
G03*
X94693Y387047I-500J0D01*
G01*
X94457Y254410D02*
G03*
X94457Y254410I-500J0D01*
G01*
X146976Y383236D02*
G03*
X146976Y383236I-500J0D01*
G01*
X574783Y293613D02*
G03*
X574783Y293613I-566J0D01*
G01*
Y310739D02*
G03*
X574783Y310739I-566J0D01*
G01*
X512981Y232217D02*
G03*
X512981Y232217I-566J0D01*
G01*
Y272217D02*
G03*
X512981Y272217I-566J0D01*
G01*
X513099Y313556D02*
G03*
X513099Y313556I-566J0D01*
G01*
Y362217D02*
G03*
X513099Y362217I-566J0D01*
G01*
X512981Y252217D02*
G03*
X512981Y252217I-566J0D01*
G01*
Y292217D02*
G03*
X512981Y292217I-566J0D01*
G01*
X513099Y338556D02*
G03*
X513099Y338556I-566J0D01*
G01*
X97240Y250398D02*
Y252398D01*
Y233398D02*
Y235398D01*
Y233398D02*
X142740D01*
Y235398D01*
Y250398D02*
Y252398D01*
X123240D02*
X142740D01*
X121240Y250398D02*
X123240Y252398D01*
X119240Y250398D02*
X121240D01*
X117240Y252398D02*
X119240Y250398D01*
X97240Y252398D02*
X117240D01*
X120140Y230898D02*
Y255398D01*
X49756Y335872D02*
X60756D01*
X49756Y351772D02*
X60756D01*
X49756Y325872D02*
Y351772D01*
Y325872D02*
X51356Y324272D01*
X60756Y325972D02*
Y351772D01*
X59056Y324272D02*
X60756Y325972D01*
X51356Y324272D02*
X59056D01*
X513433Y385417D02*
X513933D01*
X513433Y376917D02*
Y385417D01*
Y376917D02*
X513933D01*
X521933Y385417D02*
X522933D01*
Y376917D02*
Y385417D01*
X521933Y376917D02*
X522933D01*
X1756Y434551D02*
X48256D01*
Y324051D02*
Y434551D01*
X1756Y324051D02*
X48256D01*
X1756D02*
Y434551D01*
X87100Y287700D02*
Y326200D01*
X164100D01*
Y287700D02*
Y326200D01*
X87100Y287700D02*
X164100D01*
X218410Y459721D02*
X227810D01*
X180317Y459778D02*
X185409D01*
X140209Y412021D02*
Y435621D01*
Y412021D02*
X160709D01*
Y399921D02*
Y412021D01*
X244009Y399921D02*
Y412221D01*
X264409D01*
Y435621D01*
X244009D02*
X264409D01*
X244009D02*
Y448621D01*
X236010D02*
X244009D01*
X160809Y435621D02*
Y448521D01*
X140209Y435621D02*
X160809D01*
Y448521D02*
X168809D01*
X312461Y391795D02*
X332461D01*
Y241795D02*
Y391795D01*
X312461Y241795D02*
X332461D01*
X312461D02*
Y391795D01*
X166900Y293900D02*
Y304400D01*
X186900D01*
Y293900D02*
Y304400D01*
X166900Y293900D02*
X186900D01*
X137254Y346000D02*
X170754D01*
X137254Y328000D02*
Y346000D01*
X170754D02*
X171754D01*
X174754Y343000D01*
Y331000D02*
Y343000D01*
X171754Y328000D02*
X174754Y331000D01*
X137254Y328000D02*
X171754D01*
X451977Y263020D02*
X462077D01*
Y246220D02*
Y263020D01*
X451977Y246220D02*
X462077D01*
X451977D02*
Y263020D01*
X395764Y183685D02*
Y193685D01*
X394764Y182685D02*
X395764Y183685D01*
X376764Y182685D02*
X394764D01*
Y194685D02*
X395764Y193685D01*
X376764Y194685D02*
X394764D01*
X376764Y182685D02*
Y194685D01*
X435429Y241122D02*
X447429D01*
X435429D02*
Y253622D01*
X447429D01*
Y241122D02*
Y253622D01*
X196319Y231992D02*
X206319D01*
X181728Y173159D02*
Y204659D01*
X140728D02*
X181728D01*
X140728Y173159D02*
Y204659D01*
Y173159D02*
X181728D01*
X314800Y185300D02*
Y195800D01*
X334800D01*
Y185300D02*
Y195800D01*
X314800Y185300D02*
X334800D01*
X150900Y219200D02*
X184400D01*
Y237200D01*
X149900Y219200D02*
X150900D01*
X146900Y222200D02*
X149900Y219200D01*
X146900Y222200D02*
Y234200D01*
X149900Y237200D01*
X184400D01*
X157900Y265300D02*
Y275300D01*
X69046Y327900D02*
X102546D01*
Y345900D01*
X68046Y327900D02*
X69046D01*
X65046Y330900D02*
X68046Y327900D01*
X65046Y330900D02*
Y342900D01*
X68046Y345900D01*
X102546D01*
X143193Y386547D02*
Y388547D01*
Y403547D02*
Y405547D01*
X97693D02*
X143193D01*
X97693Y403547D02*
Y405547D01*
Y386547D02*
Y388547D01*
Y386547D02*
X117193D01*
X119193Y388547D01*
X121193D01*
X123193Y386547D01*
X143193D01*
X120293Y383547D02*
Y408047D01*
X142957Y253909D02*
Y255909D01*
Y270910D02*
Y272909D01*
X97457D02*
X142957D01*
X97457Y270910D02*
Y272909D01*
Y253909D02*
Y255909D01*
Y253909D02*
X116957D01*
X118957Y255909D01*
X120957D01*
X122957Y253909D01*
X142957D01*
X120057Y250909D02*
Y275410D01*
X97476Y381736D02*
Y383736D01*
Y364736D02*
Y366736D01*
Y364736D02*
X142976D01*
Y366736D01*
Y381736D02*
Y383736D01*
X123476D02*
X142976D01*
X121476Y381736D02*
X123476Y383736D01*
X119476Y381736D02*
X121476D01*
X117476Y383736D02*
X119476Y381736D01*
X97476Y383736D02*
X117476D01*
X120376Y362236D02*
Y386736D01*
X563917Y283213D02*
Y284213D01*
Y283213D02*
X572417D01*
Y284213D01*
X563917Y292213D02*
Y292713D01*
X572417D01*
Y292213D02*
Y292713D01*
Y309339D02*
Y309839D01*
X563917D02*
X572417D01*
X563917Y309339D02*
Y309839D01*
X572417Y300339D02*
Y301339D01*
X563917Y300339D02*
X572417D01*
X563917D02*
Y301339D01*
X521815Y221917D02*
X522815D01*
Y230417D01*
X521815D02*
X522815D01*
X513315Y221917D02*
X513815D01*
X513315D02*
Y230417D01*
X513815D01*
X513315Y270417D02*
X513815D01*
X513315Y261917D02*
Y270417D01*
Y261917D02*
X513815D01*
X521815Y270417D02*
X522815D01*
Y261917D02*
Y270417D01*
X521815Y261917D02*
X522815D01*
X521933Y303256D02*
X522933D01*
Y311756D01*
X521933D02*
X522933D01*
X513433Y303256D02*
X513933D01*
X513433D02*
Y311756D01*
X513933D01*
X513433Y360417D02*
X513933D01*
X513433Y351917D02*
Y360417D01*
Y351917D02*
X513933D01*
X521933Y360417D02*
X522933D01*
Y351917D02*
Y360417D01*
X521933Y351917D02*
X522933D01*
X521815Y241917D02*
X522815D01*
Y250417D01*
X521815D02*
X522815D01*
X513315Y241917D02*
X513815D01*
X513315D02*
Y250417D01*
X513815D01*
X513315Y290417D02*
X513815D01*
X513315Y281917D02*
Y290417D01*
Y281917D02*
X513815D01*
X521815Y290417D02*
X522815D01*
Y281917D02*
Y290417D01*
X521815Y281917D02*
X522815D01*
X521933Y328256D02*
X522933D01*
Y336756D01*
X521933D02*
X522933D01*
X513433Y328256D02*
X513933D01*
X513433D02*
Y336756D01*
X513933D01*
X1362Y309748D02*
X47862D01*
Y199248D02*
Y309748D01*
X1362Y199248D02*
X47862D01*
X1362D02*
Y309748D01*
X266685Y413037D02*
X277685D01*
X266685Y428937D02*
X277685D01*
X266685Y403037D02*
Y428937D01*
Y403037D02*
X268285Y401437D01*
X277685Y403137D02*
Y428937D01*
X275985Y401437D02*
X277685Y403137D01*
X268285Y401437D02*
X275985D01*
X51456Y309791D02*
X59156D01*
X49756Y308091D02*
X51456Y309791D01*
X49756Y282291D02*
Y308091D01*
X59156Y309791D02*
X60756Y308191D01*
Y282291D02*
Y308191D01*
X49756Y282291D02*
X60756D01*
X49756Y298191D02*
X60756D01*
X186476Y219197D02*
X196476D01*
X181555Y252661D02*
X191555D01*
X191398D02*
X201398D01*
X402538Y386725D02*
Y392425D01*
X397738Y386625D02*
Y392425D01*
X402538Y318713D02*
Y324413D01*
X397738Y318613D02*
Y324413D01*
X402538Y252768D02*
Y258469D01*
X397738Y252668D02*
Y258469D01*
X402538Y185839D02*
Y191539D01*
X397738Y185739D02*
Y191539D01*
X239273Y305909D02*
Y311610D01*
X244073Y305909D02*
Y311709D01*
X247147Y310831D02*
Y316531D01*
X251947Y310831D02*
Y316631D01*
X436413Y409429D02*
X448413D01*
X436413D02*
Y421929D01*
X448413D01*
Y409429D02*
Y421929D01*
X435429Y343681D02*
X447429D01*
X435429D02*
Y356181D01*
X447429D01*
Y343681D02*
Y356181D01*
X435429Y276752D02*
X447429D01*
X435429D02*
Y289252D01*
X447429D01*
Y276752D02*
Y289252D01*
X435429Y209823D02*
X447429D01*
X435429D02*
Y222323D01*
X447429D01*
Y209823D02*
Y222323D01*
X436413Y423012D02*
X448413D01*
X436413D02*
Y435512D01*
X448413D01*
Y423012D02*
Y435512D01*
X435429Y357854D02*
X447429D01*
X435429D02*
Y370354D01*
X447429D01*
Y357854D02*
Y370354D01*
X435399Y290451D02*
X447399D01*
X435399D02*
Y302951D01*
X447399D01*
Y290451D02*
Y302951D01*
X435429Y223602D02*
X447429D01*
X435429D02*
Y236102D01*
X447429D01*
Y223602D02*
Y236102D01*
X435429Y255098D02*
X447429D01*
X435429D02*
Y267598D01*
X447429D01*
Y255098D02*
Y267598D01*
X452371Y431327D02*
X462471D01*
Y414527D02*
Y431327D01*
X452371Y414527D02*
X462471D01*
X452371D02*
Y431327D01*
X451977Y348582D02*
Y365382D01*
Y348582D02*
X462077D01*
Y365382D01*
X451977D02*
X462077D01*
X451977Y298453D02*
X462077D01*
Y281653D02*
Y298453D01*
X451977Y281653D02*
X462077D01*
X451977D02*
Y298453D01*
Y215708D02*
Y232508D01*
Y215708D02*
X462077D01*
Y232508D01*
X451977D02*
X462077D01*
X395764Y383488D02*
Y393488D01*
X394764Y382488D02*
X395764Y383488D01*
X376764Y382488D02*
X394764D01*
Y394488D02*
X395764Y393488D01*
X376764Y394488D02*
X394764D01*
X376764Y382488D02*
Y394488D01*
X395764Y316559D02*
Y326559D01*
X394764Y315559D02*
X395764Y316559D01*
X376764Y315559D02*
X394764D01*
Y327559D02*
X395764Y326559D01*
X376764Y327559D02*
X394764D01*
X376764Y315559D02*
Y327559D01*
X395764Y250614D02*
Y260614D01*
X394764Y249614D02*
X395764Y250614D01*
X376764Y249614D02*
X394764D01*
Y261614D02*
X395764Y260614D01*
X376764Y261614D02*
X394764D01*
X376764Y249614D02*
Y261614D01*
X63100Y294500D02*
Y305000D01*
X83100D01*
Y294500D02*
Y305000D01*
X63100Y294500D02*
X83100D01*
X330461Y395295D02*
Y393296D01*
Y394296D01*
X324463D01*
X325462Y395295D01*
X173228Y207159D02*
Y209158D01*
Y208159D01*
X179226D01*
X178227Y207159D01*
X335900Y176200D02*
Y182198D01*
X332901D01*
X331901Y181198D01*
Y179199D01*
X332901Y178199D01*
X335900D01*
X333901D02*
X331901Y176200D01*
X326903Y182198D02*
X328902D01*
X329902Y181198D01*
Y177200D01*
X328902Y176200D01*
X326903D01*
X325903Y177200D01*
Y181198D01*
X326903Y182198D01*
X323904Y176200D02*
Y182198D01*
X321904Y180199D01*
X319905Y182198D01*
Y176200D01*
X311908Y182198D02*
Y176200D01*
X308909D01*
X307909Y177200D01*
Y178199D01*
X308909Y179199D01*
X311908D01*
X308909D01*
X307909Y180199D01*
Y181198D01*
X308909Y182198D01*
X311908D01*
X302911D02*
X304910D01*
X305910Y181198D01*
Y177200D01*
X304910Y176200D01*
X302911D01*
X301911Y177200D01*
Y181198D01*
X302911Y182198D01*
X296913D02*
X298912D01*
X299912Y181198D01*
Y177200D01*
X298912Y176200D01*
X296913D01*
X295913Y177200D01*
Y181198D01*
X296913Y182198D01*
X293914D02*
X289915D01*
X291914D01*
Y176200D01*
X287915Y182198D02*
Y176200D01*
X283917D01*
X278918Y182198D02*
X280918D01*
X281918Y181198D01*
Y177200D01*
X280918Y176200D01*
X278918D01*
X277919Y177200D01*
Y181198D01*
X278918Y182198D01*
X275919Y176200D02*
Y180199D01*
X273920Y182198D01*
X271921Y180199D01*
Y176200D01*
Y179199D01*
X275919D01*
X269921Y182198D02*
Y176200D01*
X266922D01*
X265923Y177200D01*
Y181198D01*
X266922Y182198D01*
X269921D01*
X259925D02*
X263923D01*
Y176200D01*
X259925D01*
X263923Y179199D02*
X261924D01*
X257925Y176200D02*
Y182198D01*
X254926D01*
X253926Y181198D01*
Y179199D01*
X254926Y178199D01*
X257925D01*
X255926D02*
X253926Y176200D01*
D11*
X413130Y434748D02*
G03*
X413130Y434748I-1181J0D01*
G01*
X72972Y267228D02*
G03*
X72972Y267228I-1181J0D01*
G01*
X73760Y398724D02*
G03*
X73760Y398724I-1181J0D01*
G01*
X413130Y234701D02*
G03*
X413130Y234701I-1181J0D01*
G01*
Y301383D02*
G03*
X413130Y301383I-1181J0D01*
G01*
Y368066D02*
G03*
X413130Y368066I-1181J0D01*
G01*
D12*
X421496Y439472D02*
G03*
X421496Y439472I-492J0D01*
G01*
X175613Y264892D02*
G03*
X175613Y264892I-492J0D01*
G01*
X82520Y270181D02*
G03*
X82520Y270181I-492J0D01*
G01*
X83307Y401677D02*
G03*
X83307Y401677I-492J0D01*
G01*
X421496Y239425D02*
G03*
X421496Y239425I-492J0D01*
G01*
Y306108D02*
G03*
X421496Y306108I-492J0D01*
G01*
Y372790D02*
G03*
X421496Y372790I-492J0D01*
G01*
D13*
X130398Y463882D02*
X137539Y456740D01*
X127569Y463882D02*
X137539Y453912D01*
X136055Y463882D02*
X137539Y462397D01*
X133226Y463882D02*
X137539Y459569D01*
X119084Y463882D02*
X137539Y445427D01*
X116256Y463882D02*
X137539Y442598D01*
X124741Y463882D02*
X137539Y451084D01*
X121913Y463882D02*
X137539Y448255D01*
X107770Y463882D02*
X137539Y434113D01*
X104942Y463882D02*
X137539Y431285D01*
X113427Y463882D02*
X137539Y439770D01*
X110599Y463882D02*
X137539Y436941D01*
X103681Y462314D02*
X137539Y428456D01*
X103681Y426680D02*
X137539Y460539D01*
X103681Y429509D02*
X137539Y463367D01*
X103681Y387082D02*
X137539Y420941D01*
X103681Y419888D02*
X137539Y386030D01*
X103681Y415367D02*
X137539Y449225D01*
X103681Y448172D02*
X137539Y414314D01*
X103681Y381426D02*
X137539Y415284D01*
X103681Y414231D02*
X137539Y380373D01*
X103681Y384254D02*
X137539Y418112D01*
X103681Y417059D02*
X137539Y383201D01*
X103681Y456657D02*
X137539Y422799D01*
X103681Y421024D02*
X137539Y454882D01*
X103681Y459486D02*
X137539Y425628D01*
X103681Y423852D02*
X137539Y457710D01*
X103681Y418195D02*
X137539Y452053D01*
X103681Y451001D02*
X137539Y417142D01*
X103681Y453829D02*
X137539Y419971D01*
X103681Y454965D02*
X112598Y463882D01*
X103681Y452136D02*
X115427Y463882D01*
X103681Y463450D02*
X104113Y463882D01*
X103681Y460622D02*
X106941Y463882D01*
X103681Y445344D02*
X137539Y411485D01*
X103681Y409710D02*
X137539Y443568D01*
X103681Y449308D02*
X118255Y463882D01*
X103681Y412538D02*
X137539Y446397D01*
X103681Y443651D02*
X123912Y463882D01*
X103681Y440823D02*
X126740Y463882D01*
X103681Y457793D02*
X109770Y463882D01*
X103681Y446479D02*
X121083Y463882D01*
X103681Y435166D02*
X132397Y463882D01*
X103681Y432337D02*
X135226Y463882D01*
X103681Y437994D02*
X129569Y463882D01*
X103681Y378597D02*
X137539Y412455D01*
X103681Y411403D02*
X137539Y377544D01*
X103681Y389911D02*
X137539Y423769D01*
X103681Y422716D02*
X137539Y388858D01*
X103681Y372940D02*
X137539Y406799D01*
X103681Y405746D02*
X137539Y371887D01*
X103681Y375769D02*
X137539Y409627D01*
X103681Y408574D02*
X137539Y374716D01*
X103681Y439687D02*
X137539Y405829D01*
X103681Y436858D02*
X137539Y403000D01*
X103681Y442515D02*
X137539Y408657D01*
X103681Y406881D02*
X137539Y440740D01*
X103681Y392739D02*
X137539Y426597D01*
X103681Y425545D02*
X137539Y391687D01*
X103681Y395568D02*
X137539Y429426D01*
X103681Y360491D02*
X137539Y326633D01*
X103681Y324857D02*
X137539Y358715D01*
X103681Y363319D02*
X137539Y329461D01*
X103681Y327685D02*
X137539Y361544D01*
Y169401D02*
Y463882D01*
X103681Y354834D02*
X137539Y320976D01*
X103681Y357662D02*
X137539Y323804D01*
X103681Y322028D02*
X137539Y355887D01*
X103681Y316372D02*
X137539Y350230D01*
X103681Y349177D02*
X137539Y315319D01*
X103681Y319200D02*
X137539Y353058D01*
X103681Y352006D02*
X137539Y318147D01*
X103681Y346349D02*
X137539Y312490D01*
X103681Y310715D02*
X137539Y344573D01*
X103681Y313543D02*
X137539Y347401D01*
X120759Y169401D02*
X137539Y186181D01*
X123587Y169401D02*
X137539Y183353D01*
X115102Y169401D02*
X137539Y191838D01*
X117930Y169401D02*
X137539Y189009D01*
X132073Y169401D02*
X137539Y174867D01*
X134901Y169401D02*
X137539Y172039D01*
X126416Y169401D02*
X137539Y180524D01*
X129244Y169401D02*
X137539Y177696D01*
X103788Y169401D02*
X137539Y203152D01*
X103788Y169401D02*
X137539Y203152D01*
X103681Y343520D02*
X137539Y309662D01*
X103681Y340692D02*
X137539Y306834D01*
X109445Y169401D02*
X137539Y197495D01*
X112274Y169401D02*
X137539Y194666D01*
X106617Y169401D02*
X137539Y200323D01*
X103681Y391604D02*
X137539Y357745D01*
X103681Y355970D02*
X137539Y389828D01*
X103681Y394432D02*
X137539Y360574D01*
X103681Y358798D02*
X137539Y392656D01*
X103681Y385947D02*
X137539Y352088D01*
X103681Y350313D02*
X137539Y384171D01*
X103681Y388775D02*
X137539Y354917D01*
X103681Y353141D02*
X137539Y387000D01*
X103681Y367283D02*
X137539Y401142D01*
X103681Y400089D02*
X137539Y366231D01*
X103681Y370112D02*
X137539Y403970D01*
X103681Y402917D02*
X137539Y369059D01*
X103681Y397260D02*
X137539Y363402D01*
X103681Y361627D02*
X137539Y395485D01*
X103681Y364455D02*
X137539Y398313D01*
X103681Y336171D02*
X137539Y370029D01*
X103681Y368976D02*
X137539Y335118D01*
X103681Y338999D02*
X137539Y372857D01*
X103681Y371805D02*
X137539Y337946D01*
X103681Y366148D02*
X137539Y332289D01*
X103681Y330514D02*
X137539Y364372D01*
X103681Y333342D02*
X137539Y367200D01*
X103681Y380290D02*
X137539Y346432D01*
X103681Y344656D02*
X137539Y378514D01*
X103681Y383118D02*
X137539Y349260D01*
X103681Y347484D02*
X137539Y381343D01*
X103681Y341828D02*
X137539Y375686D01*
X103681Y374633D02*
X137539Y340775D01*
X103681Y377461D02*
X137539Y343603D01*
X103681Y262632D02*
X137539Y296490D01*
X103681Y295437D02*
X137539Y261579D01*
X103681Y265460D02*
X137539Y299318D01*
X103681Y298265D02*
X137539Y264407D01*
X103681Y256975D02*
X137539Y290833D01*
X103681Y289780D02*
X137539Y255922D01*
X103681Y259803D02*
X137539Y293661D01*
X103681Y292608D02*
X137539Y258750D01*
X103681Y306751D02*
X137539Y272892D01*
X103681Y271117D02*
X137539Y304975D01*
X103681Y309579D02*
X137539Y275721D01*
X103681Y273945D02*
X137539Y307804D01*
X103681Y268288D02*
X137539Y302147D01*
X103681Y301094D02*
X137539Y267235D01*
X103681Y303922D02*
X137539Y270064D01*
X103681Y275638D02*
X137539Y241780D01*
X103681Y240004D02*
X137539Y273862D01*
X103681Y278466D02*
X137539Y244608D01*
X103681Y242832D02*
X137539Y276691D01*
X103681Y269981D02*
X137539Y236123D01*
X103681Y234347D02*
X137539Y268205D01*
X103681Y272810D02*
X137539Y238951D01*
X103681Y237176D02*
X137539Y271034D01*
X103681Y251318D02*
X137539Y285176D01*
X103681Y284123D02*
X137539Y250265D01*
X103681Y254146D02*
X137539Y288004D01*
X103681Y286952D02*
X137539Y253093D01*
X103681Y281295D02*
X137539Y247436D01*
X103681Y245661D02*
X137539Y279519D01*
X103681Y248489D02*
X137539Y282348D01*
X103681Y337863D02*
X137539Y304005D01*
X103681Y302229D02*
X137539Y336088D01*
X103681Y307886D02*
X137539Y341745D01*
X103681Y305058D02*
X137539Y338916D01*
X103681Y332207D02*
X137539Y298348D01*
X103681Y296573D02*
X137539Y330431D01*
X103681Y335035D02*
X137539Y301177D01*
X103681Y299401D02*
X137539Y333259D01*
X103681Y401225D02*
X137539Y435083D01*
X103681Y434030D02*
X137539Y400172D01*
X103681Y463882D02*
X137539D01*
X103681Y404053D02*
X137539Y437911D01*
X103681Y431202D02*
X137539Y397343D01*
X103681Y428373D02*
X137539Y394515D01*
X103681Y398396D02*
X137539Y432254D01*
X103681Y282431D02*
X137539Y316289D01*
X103681Y315236D02*
X137539Y281378D01*
X103681Y285259D02*
X137539Y319117D01*
X103681Y318064D02*
X137539Y284206D01*
X103681Y312407D02*
X137539Y278549D01*
X103681Y276774D02*
X137539Y310632D01*
X103681Y279602D02*
X137539Y313460D01*
X103681Y326550D02*
X137539Y292691D01*
X103681Y290916D02*
X137539Y324774D01*
X103681Y329378D02*
X137539Y295520D01*
X103681Y293744D02*
X137539Y327603D01*
X103681Y288087D02*
X137539Y321946D01*
X103681Y320893D02*
X137539Y287035D01*
X103681Y323721D02*
X137539Y289863D01*
X103681Y220205D02*
X137539Y254063D01*
X103681Y253011D02*
X137539Y219152D01*
X103681Y223033D02*
X137539Y256892D01*
X103681Y255839D02*
X137539Y221981D01*
X103681Y214548D02*
X137539Y248407D01*
X103681Y247354D02*
X137539Y213495D01*
X103681Y217377D02*
X137539Y251235D01*
X103681Y250182D02*
X137539Y216324D01*
X103681Y264324D02*
X137539Y230466D01*
X103681Y228690D02*
X137539Y262549D01*
X103681Y267153D02*
X137539Y233294D01*
X103681Y231519D02*
X137539Y265377D01*
X103681Y225862D02*
X137539Y259720D01*
X103681Y258667D02*
X137539Y224809D01*
X103681Y261496D02*
X137539Y227638D01*
X103681Y233211D02*
X137539Y199353D01*
X103681Y197578D02*
X137539Y231436D01*
X103681Y236040D02*
X137539Y202182D01*
X103681Y200406D02*
X137539Y234264D01*
X103681Y227555D02*
X137539Y193696D01*
X103681Y191921D02*
X137539Y225779D01*
X103681Y230383D02*
X137539Y196525D01*
X103681Y194749D02*
X137539Y228608D01*
X103681Y208891D02*
X137539Y242750D01*
X103681Y241697D02*
X137539Y207839D01*
X103681Y211720D02*
X137539Y245578D01*
X103681Y244525D02*
X137539Y210667D01*
X103681Y238868D02*
X137539Y205010D01*
X103681Y203235D02*
X137539Y237093D01*
X103681Y206063D02*
X137539Y239921D01*
X103681Y213412D02*
X137539Y179554D01*
X103681Y177779D02*
X137539Y211637D01*
X103681Y216241D02*
X137539Y182383D01*
X103681Y180607D02*
X137539Y214465D01*
X103681Y207756D02*
X137539Y173897D01*
X103681Y172122D02*
X137539Y205980D01*
X103681Y210584D02*
X137539Y176726D01*
X103681Y174950D02*
X137539Y208808D01*
X103681Y221898D02*
X137539Y188040D01*
X103681Y186264D02*
X137539Y220122D01*
X103681Y224726D02*
X137539Y190868D01*
X103681Y189092D02*
X137539Y222951D01*
X103681Y219069D02*
X137539Y185211D01*
X103681Y183435D02*
X137539Y217294D01*
X103681Y169401D02*
Y463882D01*
Y185128D02*
X119409Y169401D01*
X103681Y182300D02*
X116580Y169401D01*
X103681Y179471D02*
X113752Y169401D01*
X103681Y176643D02*
X110923Y169401D01*
X103681Y173814D02*
X108095Y169401D01*
X103681D02*
X137539D01*
X103681Y170986D02*
X105267Y169401D01*
X103681Y204927D02*
X137539Y171069D01*
X103681Y202099D02*
X136379Y169401D01*
X103681Y199270D02*
X133551Y169401D01*
X103681Y196442D02*
X130722Y169401D01*
X103681Y193614D02*
X127894Y169401D01*
X103681Y190785D02*
X125066Y169401D01*
X103681Y187957D02*
X122237Y169401D01*
X196919Y223192D02*
X205719D01*
X196919D02*
Y228392D01*
X205719Y223192D02*
Y228392D01*
X196919Y240592D02*
X205719D01*
X196919Y235392D02*
Y240592D01*
X205719Y235392D02*
Y240592D01*
X426497Y377498D02*
X428797D01*
X429497Y378198D01*
Y383098D01*
X425797Y378198D02*
X426497Y377498D01*
X425797Y378198D02*
Y383098D01*
X429497D01*
X449731Y203600D02*
Y207200D01*
X441732Y203600D02*
X449731D01*
X441732D02*
Y207200D01*
X449731D01*
X449831Y270500D02*
Y274100D01*
X441831Y270500D02*
X449831D01*
X441831D02*
Y274100D01*
X449831D01*
X450032Y337700D02*
Y341300D01*
X442031Y337700D02*
X450032D01*
X442031D02*
Y341300D01*
X450032D01*
X450368Y404400D02*
Y408000D01*
X442369Y404400D02*
X450368D01*
X442369D02*
Y408000D01*
X450368D01*
X432031Y203600D02*
Y207200D01*
X440031D01*
Y203600D02*
Y207200D01*
X432031Y203600D02*
X440031D01*
X432031Y270500D02*
Y274100D01*
X440031D01*
Y270500D02*
Y274100D01*
X432031Y270500D02*
X440031D01*
X432031Y337700D02*
Y341300D01*
X440031D01*
Y337700D02*
Y341300D01*
X432031Y337700D02*
X440031D01*
X433032Y404400D02*
Y408000D01*
X441032D01*
Y404400D02*
Y408000D01*
X433032Y404400D02*
X441032D01*
X161300Y265900D02*
X166500D01*
X161300Y274700D02*
X166500D01*
Y265900D02*
Y274700D01*
X149100Y265900D02*
X154300D01*
X149100Y274700D02*
X154300D01*
X149100Y265900D02*
Y274700D01*
X438469Y331400D02*
X446468D01*
X438469Y327800D02*
Y331400D01*
Y327800D02*
X446468D01*
Y331400D01*
X187076Y210597D02*
Y215797D01*
X195876Y210597D02*
Y215797D01*
X187076Y210597D02*
X195876D01*
X187076Y222797D02*
Y227997D01*
X195876Y222797D02*
Y227997D01*
X187076D02*
X195876D01*
X190955Y256061D02*
Y261261D01*
X182155Y256061D02*
Y261261D01*
X190955D01*
Y243861D02*
Y249061D01*
X182155Y243861D02*
Y249061D01*
Y243861D02*
X190955D01*
X200798Y256061D02*
Y261261D01*
X191998Y256061D02*
Y261261D01*
X200798D01*
Y243861D02*
Y249061D01*
X191998Y243861D02*
Y249061D01*
Y243861D02*
X200798D01*
X404243Y393472D02*
X407843D01*
Y385472D02*
Y393472D01*
X404243Y385472D02*
X407843D01*
X404243D02*
Y393472D01*
Y325559D02*
X407843D01*
Y317559D02*
Y325559D01*
X404243Y317559D02*
X407843D01*
X404243D02*
Y325559D01*
Y259614D02*
X407843D01*
Y251614D02*
Y259614D01*
X404243Y251614D02*
X407843D01*
X404243D02*
Y259614D01*
Y192685D02*
X407843D01*
Y184685D02*
Y192685D01*
X404243Y184685D02*
X407843D01*
X404243D02*
Y192685D01*
X435508Y399483D02*
Y403084D01*
X443508D01*
Y399483D02*
Y403084D01*
X435508Y399483D02*
X443508D01*
X420976Y385472D02*
X424576D01*
X420976D02*
Y393472D01*
X424576D01*
Y385472D02*
Y393472D01*
X435508Y379798D02*
Y383398D01*
X443508D01*
Y379798D02*
Y383398D01*
X435508Y379798D02*
X443508D01*
X430700Y438932D02*
X434300D01*
X430700D02*
Y446932D01*
X434300D01*
Y438932D02*
Y446932D01*
X445476Y198696D02*
Y202296D01*
X437476Y198696D02*
X445476D01*
X437476D02*
Y202296D01*
X445476D01*
X200503Y222213D02*
X204103D01*
Y214213D02*
Y222213D01*
X200503Y214213D02*
X204103D01*
X200503D02*
Y222213D01*
X223141Y218150D02*
X226741D01*
X223141D02*
Y226150D01*
X226741D01*
Y218150D02*
Y226150D01*
X219204Y226150D02*
X222804D01*
Y218150D02*
Y226150D01*
X219204Y218150D02*
X222804D01*
X219204D02*
Y226150D01*
X216146Y233145D02*
Y236745D01*
X208146Y233145D02*
X216146D01*
X208146D02*
Y236745D01*
X216146D01*
X231015Y304764D02*
X234615D01*
X231015D02*
Y312764D01*
X234615D01*
Y304764D02*
Y312764D01*
X234952Y304764D02*
X238552D01*
X234952D02*
Y312764D01*
X238552D01*
Y304764D02*
Y312764D01*
X223141Y316701D02*
X226741D01*
Y308701D02*
Y316701D01*
X223141Y308701D02*
X226741D01*
X223141D02*
Y316701D01*
X233736Y331570D02*
Y335170D01*
X241736D01*
Y331570D02*
Y335170D01*
X233736Y331570D02*
X241736D01*
X235936Y302921D02*
X239536D01*
Y294921D02*
Y302921D01*
X235936Y294921D02*
X239536D01*
X235936D02*
Y302921D01*
X536295Y453027D02*
X544295D01*
Y456627D01*
X536295D02*
X544295D01*
X536295Y453027D02*
Y456627D01*
X535902Y179405D02*
X543902D01*
Y183005D01*
X535902D02*
X543902D01*
X535902Y179405D02*
Y183005D01*
X165717Y206339D02*
Y214339D01*
X162117D02*
X165717D01*
X162117Y206339D02*
Y214339D01*
Y206339D02*
X165717D01*
X159812D02*
Y214339D01*
X156212D02*
X159812D01*
X156212Y206339D02*
Y214339D01*
Y206339D02*
X159812D01*
X153906D02*
Y214339D01*
X150306D02*
X153906D01*
X150306Y206339D02*
Y214339D01*
Y206339D02*
X153906D01*
X424913Y385472D02*
Y393472D01*
Y385472D02*
X428513D01*
Y393472D01*
X424913D02*
X428513D01*
X430500Y438969D02*
Y446969D01*
X426900D02*
X430500D01*
X426900Y438969D02*
Y446969D01*
Y438969D02*
X430500D01*
X438461Y332554D02*
X446461D01*
Y336154D01*
X438461D02*
X446461D01*
X438461Y332554D02*
Y336154D01*
X437476Y194759D02*
X445476D01*
Y198359D01*
X437476D02*
X445476D01*
X437476Y194759D02*
Y198359D01*
X167791Y210507D02*
X175791D01*
Y214107D01*
X167791D02*
X175791D01*
X167791Y210507D02*
Y214107D01*
X176650Y210507D02*
X184650D01*
Y214107D01*
X176650D02*
X184650D01*
X176650Y210507D02*
Y214107D01*
X185508Y236098D02*
X193508D01*
Y239698D01*
X185508D02*
X193508D01*
X185508Y236098D02*
Y239698D01*
X226741Y209291D02*
Y217291D01*
X223141D02*
X226741D01*
X223141Y209291D02*
Y217291D01*
Y209291D02*
X226741D01*
X227078Y214213D02*
Y222213D01*
Y214213D02*
X230678D01*
Y222213D01*
X227078D02*
X230678D01*
X226741Y227008D02*
Y235008D01*
X223141D02*
X226741D01*
X223141Y227008D02*
Y235008D01*
Y227008D02*
X226741D01*
X208146Y229208D02*
X216146D01*
Y232808D01*
X208146D02*
X216146D01*
X208146Y229208D02*
Y232808D01*
X230678Y304764D02*
Y312764D01*
X227078D02*
X230678D01*
X227078Y304764D02*
Y312764D01*
Y304764D02*
X230678D01*
X453072Y330845D02*
X455372D01*
X456072Y331545D01*
Y336445D01*
X452372Y331545D02*
X453072Y330845D01*
X452372Y331545D02*
Y336445D01*
X456072D01*
X444945Y189838D02*
Y193538D01*
X440045D02*
X444945D01*
X439345Y192838D02*
X440045Y193538D01*
Y189838D02*
X444945D01*
X439345Y190538D02*
X440045Y189838D01*
X439345Y190538D02*
Y192838D01*
X180134Y308499D02*
X180967D01*
X180550D01*
Y306417D01*
X180967Y306000D01*
X181384D01*
X181800Y306417D01*
X179301Y306000D02*
Y308499D01*
X178051D01*
X177635Y308083D01*
Y307250D01*
X178051Y306833D01*
X179301D01*
X175136Y306000D02*
X176802D01*
X175136Y307666D01*
Y308083D01*
X175552Y308499D01*
X176385D01*
X176802Y308083D01*
X73834Y309499D02*
X74667D01*
X74250D01*
Y307417D01*
X74667Y307000D01*
X75084D01*
X75500Y307417D01*
X73001Y307000D02*
Y309499D01*
X71751D01*
X71335Y309083D01*
Y308250D01*
X71751Y307833D01*
X73001D01*
X70502Y307000D02*
X69669D01*
X70085D01*
Y309499D01*
X70502Y309083D01*
X329334Y240499D02*
X330167D01*
X329750D01*
Y238417D01*
X330167Y238000D01*
X330584D01*
X331000Y238417D01*
X328501Y240499D02*
X326835D01*
Y240083D01*
X328501Y238417D01*
Y238000D01*
X432999Y377000D02*
X430500D01*
Y378250D01*
X430917Y378666D01*
X432583D01*
X432999Y378250D01*
Y377000D01*
X430500Y381165D02*
Y379499D01*
X432166Y381165D01*
X432583D01*
X432999Y380749D01*
Y379916D01*
X432583Y379499D01*
Y381998D02*
X432999Y382415D01*
Y383248D01*
X432583Y383664D01*
X430917D01*
X430500Y383248D01*
Y382415D01*
X430917Y381998D01*
X432583D01*
X444000Y188499D02*
Y186000D01*
X442750D01*
X442334Y186416D01*
Y188083D01*
X442750Y188499D01*
X444000D01*
X441501D02*
X439835D01*
Y188083D01*
X441501Y186416D01*
Y186000D01*
X460499Y331500D02*
X458000D01*
Y332750D01*
X458417Y333166D01*
X460083D01*
X460499Y332750D01*
Y331500D01*
Y335665D02*
X460083Y334832D01*
X459250Y333999D01*
X458417D01*
X458000Y334416D01*
Y335249D01*
X458417Y335665D01*
X458833D01*
X459250Y335249D01*
Y333999D01*
X375083Y187166D02*
X375499Y186750D01*
Y185916D01*
X375083Y185500D01*
X373416D01*
X373000Y185916D01*
Y186750D01*
X373416Y187166D01*
Y187999D02*
X373000Y188416D01*
Y189249D01*
X373416Y189665D01*
X375083D01*
X375499Y189249D01*
Y188416D01*
X375083Y187999D01*
X374666D01*
X374250Y188416D01*
Y189665D01*
X375499Y190498D02*
X373000D01*
Y191748D01*
X373416Y192165D01*
X375083D01*
X375499Y191748D01*
Y190498D01*
X375083Y253666D02*
X375499Y253250D01*
Y252416D01*
X375083Y252000D01*
X373416D01*
X373000Y252416D01*
Y253250D01*
X373416Y253666D01*
Y254499D02*
X373000Y254916D01*
Y255749D01*
X373416Y256165D01*
X375083D01*
X375499Y255749D01*
Y254916D01*
X375083Y254499D01*
X374666D01*
X374250Y254916D01*
Y256165D01*
X375083Y258664D02*
X375499Y258248D01*
Y257415D01*
X375083Y256998D01*
X373416D01*
X373000Y257415D01*
Y258248D01*
X373416Y258664D01*
X375083Y319166D02*
X375499Y318750D01*
Y317916D01*
X375083Y317500D01*
X373416D01*
X373000Y317916D01*
Y318750D01*
X373416Y319166D01*
Y319999D02*
X373000Y320416D01*
Y321249D01*
X373416Y321665D01*
X375083D01*
X375499Y321249D01*
Y320416D01*
X375083Y319999D01*
X374666D01*
X374250Y320416D01*
Y321665D01*
X375499Y322498D02*
X373000D01*
Y323748D01*
X373416Y324165D01*
X373833D01*
X374250Y323748D01*
Y322498D01*
Y323748D01*
X374666Y324165D01*
X375083D01*
X375499Y323748D01*
Y322498D01*
X374583Y387166D02*
X374999Y386750D01*
Y385916D01*
X374583Y385500D01*
X372917D01*
X372500Y385916D01*
Y386750D01*
X372917Y387166D01*
Y387999D02*
X372500Y388416D01*
Y389249D01*
X372917Y389665D01*
X374583D01*
X374999Y389249D01*
Y388416D01*
X374583Y387999D01*
X374166D01*
X373750Y388416D01*
Y389665D01*
X372500Y390498D02*
X374166D01*
X374999Y391331D01*
X374166Y392164D01*
X372500D01*
X373750D01*
Y390498D01*
X460500Y264000D02*
Y266499D01*
X459250D01*
X458834Y266083D01*
Y265250D01*
X459250Y264833D01*
X460500D01*
X459667D02*
X458834Y264000D01*
X458001Y266083D02*
X457584Y266499D01*
X456751D01*
X456335Y266083D01*
Y265666D01*
X456751Y265250D01*
X457168D01*
X456751D01*
X456335Y264833D01*
Y264417D01*
X456751Y264000D01*
X457584D01*
X458001Y264417D01*
X455502Y266083D02*
X455085Y266499D01*
X454252D01*
X453835Y266083D01*
Y265666D01*
X454252Y265250D01*
X453835Y264833D01*
Y264417D01*
X454252Y264000D01*
X455085D01*
X455502Y264417D01*
Y264833D01*
X455085Y265250D01*
X455502Y265666D01*
Y266083D01*
X455085Y265250D02*
X454252D01*
X461000Y234000D02*
Y236499D01*
X459750D01*
X459334Y236083D01*
Y235250D01*
X459750Y234833D01*
X461000D01*
X460167D02*
X459334Y234000D01*
X458501D02*
X457668D01*
X458084D01*
Y236499D01*
X458501Y236083D01*
X456418Y236499D02*
Y234000D01*
X455168D01*
X454752Y234417D01*
Y236083D01*
X455168Y236499D01*
X456418D01*
X460500Y299500D02*
Y301999D01*
X459250D01*
X458834Y301583D01*
Y300750D01*
X459250Y300333D01*
X460500D01*
X459667D02*
X458834Y299500D01*
X458001D02*
X457168D01*
X457584D01*
Y301999D01*
X458001Y301583D01*
X454252D02*
X454669Y301999D01*
X455502D01*
X455918Y301583D01*
Y299917D01*
X455502Y299500D01*
X454669D01*
X454252Y299917D01*
X460000Y366500D02*
Y368999D01*
X458750D01*
X458334Y368583D01*
Y367750D01*
X458750Y367333D01*
X460000D01*
X459167D02*
X458334Y366500D01*
X457501D02*
X456668D01*
X457084D01*
Y368999D01*
X457501Y368583D01*
X455418Y368999D02*
Y366500D01*
X454169D01*
X453752Y366916D01*
Y367333D01*
X454169Y367750D01*
X455418D01*
X454169D01*
X453752Y368166D01*
Y368583D01*
X454169Y368999D01*
X455418D01*
X461500Y432500D02*
Y434999D01*
X460250D01*
X459834Y434583D01*
Y433750D01*
X460250Y433333D01*
X461500D01*
X460667D02*
X459834Y432500D01*
X459001D02*
X458168D01*
X458584D01*
Y434999D01*
X459001Y434583D01*
X456918Y432500D02*
Y434166D01*
X456085Y434999D01*
X455252Y434166D01*
Y432500D01*
Y433750D01*
X456918D01*
X432334Y244083D02*
X432750Y244499D01*
X433583D01*
X434000Y244083D01*
Y242417D01*
X433583Y242000D01*
X432750D01*
X432334Y242417D01*
X429835Y244499D02*
X431501D01*
Y243250D01*
X430668Y243666D01*
X430251D01*
X429835Y243250D01*
Y242417D01*
X430251Y242000D01*
X431084D01*
X431501Y242417D01*
X427336Y242000D02*
X429002D01*
X427336Y243666D01*
Y244083D01*
X427752Y244499D01*
X428585D01*
X429002Y244083D01*
X432734Y264883D02*
X433150Y265299D01*
X433984D01*
X434400Y264883D01*
Y263216D01*
X433984Y262800D01*
X433150D01*
X432734Y263216D01*
X430235Y265299D02*
X431901D01*
Y264050D01*
X431068Y264466D01*
X430651D01*
X430235Y264050D01*
Y263216D01*
X430651Y262800D01*
X431484D01*
X431901Y263216D01*
X429402Y262800D02*
X428569D01*
X428985D01*
Y265299D01*
X429402Y264883D01*
X432834Y236083D02*
X433250Y236499D01*
X434084D01*
X434500Y236083D01*
Y234417D01*
X434084Y234000D01*
X433250D01*
X432834Y234417D01*
X430335Y234000D02*
X432001D01*
X430335Y235666D01*
Y236083D01*
X430751Y236499D01*
X431584D01*
X432001Y236083D01*
X429502Y236499D02*
Y234000D01*
X428252D01*
X427836Y234417D01*
Y236083D01*
X428252Y236499D01*
X429502D01*
X443304Y306199D02*
X443720Y306616D01*
X444554D01*
X444970Y306199D01*
Y304533D01*
X444554Y304117D01*
X443720D01*
X443304Y304533D01*
X440805Y304117D02*
X442471D01*
X440805Y305783D01*
Y306199D01*
X441221Y306616D01*
X442054D01*
X442471Y306199D01*
X438306D02*
X438722Y306616D01*
X439555D01*
X439972Y306199D01*
Y304533D01*
X439555Y304117D01*
X438722D01*
X438306Y304533D01*
X443334Y373583D02*
X443750Y373999D01*
X444584D01*
X445000Y373583D01*
Y371917D01*
X444584Y371500D01*
X443750D01*
X443334Y371917D01*
X440835Y371500D02*
X442501D01*
X440835Y373166D01*
Y373583D01*
X441251Y373999D01*
X442084D01*
X442501Y373583D01*
X440002Y373999D02*
Y371500D01*
X438752D01*
X438336Y371917D01*
Y372333D01*
X438752Y372750D01*
X440002D01*
X438752D01*
X438336Y373166D01*
Y373583D01*
X438752Y373999D01*
X440002D01*
X443834Y439083D02*
X444250Y439499D01*
X445084D01*
X445500Y439083D01*
Y437417D01*
X445084Y437000D01*
X444250D01*
X443834Y437417D01*
X441335Y437000D02*
X443001D01*
X441335Y438666D01*
Y439083D01*
X441751Y439499D01*
X442584D01*
X443001Y439083D01*
X440502Y437000D02*
Y438666D01*
X439669Y439499D01*
X438835Y438666D01*
Y437000D01*
Y438250D01*
X440502D01*
X432134Y212483D02*
X432550Y212899D01*
X433384D01*
X433800Y212483D01*
Y210817D01*
X433384Y210400D01*
X432550D01*
X432134Y210817D01*
X431301Y210400D02*
X430468D01*
X430884D01*
Y212899D01*
X431301Y212483D01*
X429218Y212899D02*
Y210400D01*
X427969D01*
X427552Y210817D01*
Y212483D01*
X427969Y212899D01*
X429218D01*
X432334Y283183D02*
X432750Y283599D01*
X433583D01*
X434000Y283183D01*
Y281517D01*
X433583Y281100D01*
X432750D01*
X432334Y281517D01*
X431501Y281100D02*
X430668D01*
X431084D01*
Y283599D01*
X431501Y283183D01*
X427752D02*
X428168Y283599D01*
X429002D01*
X429418Y283183D01*
Y281517D01*
X429002Y281100D01*
X428168D01*
X427752Y281517D01*
X432334Y346583D02*
X432750Y346999D01*
X433583D01*
X434000Y346583D01*
Y344917D01*
X433583Y344500D01*
X432750D01*
X432334Y344917D01*
X431501Y344500D02*
X430668D01*
X431084D01*
Y346999D01*
X431501Y346583D01*
X429418Y346999D02*
Y344500D01*
X428168D01*
X427752Y344917D01*
Y345333D01*
X428168Y345750D01*
X429418D01*
X428168D01*
X427752Y346166D01*
Y346583D01*
X428168Y346999D01*
X429418D01*
X433334Y414283D02*
X433750Y414699D01*
X434584D01*
X435000Y414283D01*
Y412616D01*
X434584Y412200D01*
X433750D01*
X433334Y412616D01*
X432501Y412200D02*
X431668D01*
X432084D01*
Y414699D01*
X432501Y414283D01*
X430418Y412200D02*
Y413866D01*
X429585Y414699D01*
X428752Y413866D01*
Y412200D01*
Y413450D01*
X430418D01*
X450000Y384999D02*
Y382916D01*
X449583Y382500D01*
X448750D01*
X448334Y382916D01*
Y384999D01*
X445835D02*
X447501D01*
Y383750D01*
X446668Y384166D01*
X446251D01*
X445835Y383750D01*
Y382916D01*
X446251Y382500D01*
X447084D01*
X447501Y382916D01*
X227500Y314000D02*
X229999D01*
Y315250D01*
X229583Y315666D01*
X228750D01*
X228333Y315250D01*
Y314000D01*
Y314833D02*
X227500Y315666D01*
X227917Y316499D02*
X227500Y316916D01*
Y317749D01*
X227917Y318165D01*
X229583D01*
X229999Y317749D01*
Y316916D01*
X229583Y316499D01*
X229166D01*
X228750Y316916D01*
Y318165D01*
X227917Y318998D02*
X227500Y319415D01*
Y320248D01*
X227917Y320665D01*
X229583D01*
X229999Y320248D01*
Y319415D01*
X229583Y318998D01*
X229166D01*
X228750Y319415D01*
Y320665D01*
X216000Y237500D02*
Y239999D01*
X214750D01*
X214334Y239583D01*
Y238750D01*
X214750Y238333D01*
X216000D01*
X215167D02*
X214334Y237500D01*
X211835Y239999D02*
X213501D01*
Y238750D01*
X212668Y239166D01*
X212251D01*
X211835Y238750D01*
Y237916D01*
X212251Y237500D01*
X213084D01*
X213501Y237916D01*
X211002D02*
X210585Y237500D01*
X209752D01*
X209335Y237916D01*
Y239583D01*
X209752Y239999D01*
X210585D01*
X211002Y239583D01*
Y239166D01*
X210585Y238750D01*
X209335D01*
X223500Y236000D02*
X225999D01*
Y237250D01*
X225583Y237666D01*
X224750D01*
X224333Y237250D01*
Y236000D01*
Y236833D02*
X223500Y237666D01*
X225999Y240165D02*
Y238499D01*
X224750D01*
X225166Y239332D01*
Y239749D01*
X224750Y240165D01*
X223917D01*
X223500Y239749D01*
Y238916D01*
X223917Y238499D01*
X225583Y240998D02*
X225999Y241415D01*
Y242248D01*
X225583Y242665D01*
X225166D01*
X224750Y242248D01*
X224333Y242665D01*
X223917D01*
X223500Y242248D01*
Y241415D01*
X223917Y240998D01*
X224333D01*
X224750Y241415D01*
X225166Y240998D01*
X225583D01*
X224750Y241415D02*
Y242248D01*
X228000Y206000D02*
X230499D01*
Y207250D01*
X230083Y207666D01*
X229250D01*
X228833Y207250D01*
Y206000D01*
Y206833D02*
X228000Y207666D01*
X230499Y210165D02*
Y208499D01*
X229250D01*
X229666Y209332D01*
Y209749D01*
X229250Y210165D01*
X228416D01*
X228000Y209749D01*
Y208916D01*
X228416Y208499D01*
X230499Y212665D02*
Y210998D01*
X229250D01*
X229666Y211831D01*
Y212248D01*
X229250Y212665D01*
X228416D01*
X228000Y212248D01*
Y211415D01*
X228416Y210998D01*
X224000Y201000D02*
X226499D01*
Y202250D01*
X226083Y202666D01*
X225250D01*
X224833Y202250D01*
Y201000D01*
Y201833D02*
X224000Y202666D01*
X226499Y205165D02*
Y203499D01*
X225250D01*
X225666Y204332D01*
Y204749D01*
X225250Y205165D01*
X224416D01*
X224000Y204749D01*
Y203916D01*
X224416Y203499D01*
X224000Y207664D02*
Y205998D01*
X225666Y207664D01*
X226083D01*
X226499Y207248D01*
Y206415D01*
X226083Y205998D01*
X192500Y240500D02*
Y242999D01*
X191250D01*
X190834Y242583D01*
Y241750D01*
X191250Y241333D01*
X192500D01*
X191667D02*
X190834Y240500D01*
X188751D02*
Y242999D01*
X190001Y241750D01*
X188335D01*
X187502Y242583D02*
X187085Y242999D01*
X186252D01*
X185836Y242583D01*
Y242166D01*
X186252Y241750D01*
X185836Y241333D01*
Y240916D01*
X186252Y240500D01*
X187085D01*
X187502Y240916D01*
Y241333D01*
X187085Y241750D01*
X187502Y242166D01*
Y242583D01*
X187085Y241750D02*
X186252D01*
X183602Y215260D02*
Y217759D01*
X182353D01*
X181936Y217342D01*
Y216509D01*
X182353Y216093D01*
X183602D01*
X182769D02*
X181936Y215260D01*
X179854D02*
Y217759D01*
X181103Y216509D01*
X179437D01*
X176938Y217759D02*
X178604D01*
Y216509D01*
X177771Y216926D01*
X177354D01*
X176938Y216509D01*
Y215676D01*
X177354Y215260D01*
X178187D01*
X178604Y215676D01*
X174744Y215260D02*
Y217759D01*
X173495D01*
X173078Y217342D01*
Y216509D01*
X173495Y216093D01*
X174744D01*
X173911D02*
X173078Y215260D01*
X170995D02*
Y217759D01*
X172245Y216509D01*
X170579D01*
X168496Y215260D02*
Y217759D01*
X169746Y216509D01*
X168080D01*
X436100Y195200D02*
Y197699D01*
X434850D01*
X434434Y197283D01*
Y196450D01*
X434850Y196033D01*
X436100D01*
X435267D02*
X434434Y195200D01*
X433601Y197283D02*
X433184Y197699D01*
X432351D01*
X431935Y197283D01*
Y196866D01*
X432351Y196450D01*
X432768D01*
X432351D01*
X431935Y196033D01*
Y195616D01*
X432351Y195200D01*
X433184D01*
X433601Y195616D01*
X431102D02*
X430685Y195200D01*
X429852D01*
X429435Y195616D01*
Y197283D01*
X429852Y197699D01*
X430685D01*
X431102Y197283D01*
Y196866D01*
X430685Y196450D01*
X429435D01*
X437300Y332800D02*
Y335299D01*
X436050D01*
X435634Y334883D01*
Y334050D01*
X436050Y333633D01*
X437300D01*
X436467D02*
X435634Y332800D01*
X434801Y334883D02*
X434384Y335299D01*
X433551D01*
X433135Y334883D01*
Y334466D01*
X433551Y334050D01*
X433968D01*
X433551D01*
X433135Y333633D01*
Y333217D01*
X433551Y332800D01*
X434384D01*
X434801Y333217D01*
X430635Y335299D02*
X431469Y334883D01*
X432302Y334050D01*
Y333217D01*
X431885Y332800D01*
X431052D01*
X430635Y333217D01*
Y333633D01*
X431052Y334050D01*
X432302D01*
X427300Y431100D02*
X429799D01*
Y432350D01*
X429383Y432766D01*
X428550D01*
X428133Y432350D01*
Y431100D01*
Y431933D02*
X427300Y432766D01*
X429383Y433599D02*
X429799Y434016D01*
Y434849D01*
X429383Y435265D01*
X428966D01*
X428550Y434849D01*
Y434432D01*
Y434849D01*
X428133Y435265D01*
X427716D01*
X427300Y434849D01*
Y434016D01*
X427716Y433599D01*
X429383Y436098D02*
X429799Y436515D01*
Y437348D01*
X429383Y437765D01*
X427716D01*
X427300Y437348D01*
Y436515D01*
X427716Y436098D01*
X429383D01*
X425728Y394394D02*
X428228D01*
Y395643D01*
X427811Y396060D01*
X426978D01*
X426561Y395643D01*
Y394394D01*
Y395227D02*
X425728Y396060D01*
Y398559D02*
Y396893D01*
X427394Y398559D01*
X427811D01*
X428228Y398143D01*
Y397309D01*
X427811Y396893D01*
Y399392D02*
X428228Y399809D01*
Y400642D01*
X427811Y401058D01*
X427394D01*
X426978Y400642D01*
X426561Y401058D01*
X426145D01*
X425728Y400642D01*
Y399809D01*
X426145Y399392D01*
X426561D01*
X426978Y399809D01*
X427394Y399392D01*
X427811D01*
X426978Y399809D02*
Y400642D01*
X154000Y215500D02*
Y217999D01*
X152750D01*
X152334Y217583D01*
Y216750D01*
X152750Y216333D01*
X154000D01*
X153167D02*
X152334Y215500D01*
X151501Y217999D02*
X149835D01*
Y217583D01*
X151501Y215916D01*
Y215500D01*
X160500D02*
Y217999D01*
X159250D01*
X158834Y217583D01*
Y216750D01*
X159250Y216333D01*
X160500D01*
X159667D02*
X158834Y215500D01*
X156335Y217999D02*
X157168Y217583D01*
X158001Y216750D01*
Y215916D01*
X157584Y215500D01*
X156751D01*
X156335Y215916D01*
Y216333D01*
X156751Y216750D01*
X158001D01*
X166500Y215500D02*
Y217999D01*
X165250D01*
X164834Y217583D01*
Y216750D01*
X165250Y216333D01*
X166500D01*
X165667D02*
X164834Y215500D01*
X162335Y217999D02*
X164001D01*
Y216750D01*
X163168Y217166D01*
X162751D01*
X162335Y216750D01*
Y215916D01*
X162751Y215500D01*
X163584D01*
X164001Y215916D01*
X534800Y179900D02*
Y182399D01*
X533550D01*
X533134Y181983D01*
Y181150D01*
X533550Y180733D01*
X534800D01*
X533967D02*
X533134Y179900D01*
X531051D02*
Y182399D01*
X532301Y181150D01*
X530635D01*
X542232Y457846D02*
Y460346D01*
X540983D01*
X540566Y459929D01*
Y459096D01*
X540983Y458679D01*
X542232D01*
X541399D02*
X540566Y457846D01*
X539733Y459929D02*
X539317Y460346D01*
X538483D01*
X538067Y459929D01*
Y459513D01*
X538483Y459096D01*
X538900D01*
X538483D01*
X538067Y458679D01*
Y458263D01*
X538483Y457846D01*
X539317D01*
X539733Y458263D01*
X238583Y286666D02*
X238999Y286250D01*
Y285417D01*
X238583Y285000D01*
X236916D01*
X236500Y285417D01*
Y286250D01*
X236916Y286666D01*
X236500Y287499D02*
Y288332D01*
Y287916D01*
X238999D01*
X238583Y287499D01*
Y289582D02*
X238999Y289998D01*
Y290831D01*
X238583Y291248D01*
X236916D01*
X236500Y290831D01*
Y289998D01*
X236916Y289582D01*
X238583D01*
Y292081D02*
X238999Y292498D01*
Y293331D01*
X238583Y293747D01*
X236916D01*
X236500Y293331D01*
Y292498D01*
X236916Y292081D01*
X238583D01*
X239334Y338083D02*
X239750Y338499D01*
X240583D01*
X241000Y338083D01*
Y336417D01*
X240583Y336000D01*
X239750D01*
X239334Y336417D01*
X238501D02*
X238084Y336000D01*
X237251D01*
X236835Y336417D01*
Y338083D01*
X237251Y338499D01*
X238084D01*
X238501Y338083D01*
Y337666D01*
X238084Y337250D01*
X236835D01*
X236002Y336417D02*
X235585Y336000D01*
X234752D01*
X234335Y336417D01*
Y338083D01*
X234752Y338499D01*
X235585D01*
X236002Y338083D01*
Y337666D01*
X235585Y337250D01*
X234335D01*
X221583Y311166D02*
X221999Y310750D01*
Y309916D01*
X221583Y309500D01*
X219917D01*
X219500Y309916D01*
Y310750D01*
X219917Y311166D01*
Y311999D02*
X219500Y312416D01*
Y313249D01*
X219917Y313665D01*
X221583D01*
X221999Y313249D01*
Y312416D01*
X221583Y311999D01*
X221166D01*
X220750Y312416D01*
Y313665D01*
X221583Y314498D02*
X221999Y314915D01*
Y315748D01*
X221583Y316164D01*
X221166D01*
X220750Y315748D01*
X220333Y316164D01*
X219917D01*
X219500Y315748D01*
Y314915D01*
X219917Y314498D01*
X220333D01*
X220750Y314915D01*
X221166Y314498D01*
X221583D01*
X220750Y314915D02*
Y315748D01*
X255583Y312666D02*
X255999Y312250D01*
Y311417D01*
X255583Y311000D01*
X253917D01*
X253500Y311417D01*
Y312250D01*
X253917Y312666D01*
Y313499D02*
X253500Y313916D01*
Y314749D01*
X253917Y315165D01*
X255583D01*
X255999Y314749D01*
Y313916D01*
X255583Y313499D01*
X255166D01*
X254750Y313916D01*
Y315165D01*
X255999Y315998D02*
Y317665D01*
X255583D01*
X253917Y315998D01*
X253500D01*
X237583Y315666D02*
X237999Y315250D01*
Y314417D01*
X237583Y314000D01*
X235916D01*
X235500Y314417D01*
Y315250D01*
X235916Y315666D01*
Y316499D02*
X235500Y316916D01*
Y317749D01*
X235916Y318165D01*
X237583D01*
X237999Y317749D01*
Y316916D01*
X237583Y316499D01*
X237166D01*
X236750Y316916D01*
Y318165D01*
X237999Y320665D02*
X237583Y319831D01*
X236750Y318998D01*
X235916D01*
X235500Y319415D01*
Y320248D01*
X235916Y320665D01*
X236333D01*
X236750Y320248D01*
Y318998D01*
X233583Y315666D02*
X233999Y315250D01*
Y314417D01*
X233583Y314000D01*
X231916D01*
X231500Y314417D01*
Y315250D01*
X231916Y315666D01*
Y316499D02*
X231500Y316916D01*
Y317749D01*
X231916Y318165D01*
X233583D01*
X233999Y317749D01*
Y316916D01*
X233583Y316499D01*
X233166D01*
X232750Y316916D01*
Y318165D01*
X233999Y320665D02*
Y318998D01*
X232750D01*
X233166Y319831D01*
Y320248D01*
X232750Y320665D01*
X231916D01*
X231500Y320248D01*
Y319415D01*
X231916Y318998D01*
X242083Y316666D02*
X242499Y316250D01*
Y315417D01*
X242083Y315000D01*
X240417D01*
X240000Y315417D01*
Y316250D01*
X240417Y316666D01*
Y317499D02*
X240000Y317916D01*
Y318749D01*
X240417Y319165D01*
X242083D01*
X242499Y318749D01*
Y317916D01*
X242083Y317499D01*
X241666D01*
X241250Y317916D01*
Y319165D01*
X240000Y321248D02*
X242499D01*
X241250Y319998D01*
Y321665D01*
X214334Y243583D02*
X214750Y243999D01*
X215583D01*
X216000Y243583D01*
Y241916D01*
X215583Y241500D01*
X214750D01*
X214334Y241916D01*
X213501Y243999D02*
X211835D01*
Y243583D01*
X213501Y241916D01*
Y241500D01*
X209752D02*
Y243999D01*
X211002Y242750D01*
X209335D01*
X221083Y212166D02*
X221499Y211750D01*
Y210916D01*
X221083Y210500D01*
X219416D01*
X219000Y210916D01*
Y211750D01*
X219416Y212166D01*
X221499Y212999D02*
Y214665D01*
X221083D01*
X219416Y212999D01*
X219000D01*
X221083Y215498D02*
X221499Y215915D01*
Y216748D01*
X221083Y217164D01*
X220666D01*
X220250Y216748D01*
Y216331D01*
Y216748D01*
X219833Y217164D01*
X219416D01*
X219000Y216748D01*
Y215915D01*
X219416Y215498D01*
X230083Y225666D02*
X230499Y225250D01*
Y224416D01*
X230083Y224000D01*
X228416D01*
X228000Y224416D01*
Y225250D01*
X228416Y225666D01*
X230499Y226499D02*
Y228165D01*
X230083D01*
X228416Y226499D01*
X228000D01*
Y228998D02*
Y229831D01*
Y229415D01*
X230499D01*
X230083Y228998D01*
X204334Y212583D02*
X204750Y212999D01*
X205584D01*
X206000Y212583D01*
Y210916D01*
X205584Y210500D01*
X204750D01*
X204334Y210916D01*
X203501Y212999D02*
X201835D01*
Y212583D01*
X203501Y210916D01*
Y210500D01*
X201002Y212583D02*
X200585Y212999D01*
X199752D01*
X199336Y212583D01*
Y210916D01*
X199752Y210500D01*
X200585D01*
X201002Y210916D01*
Y212583D01*
X193334Y233083D02*
X193750Y233499D01*
X194583D01*
X195000Y233083D01*
Y231417D01*
X194583Y231000D01*
X193750D01*
X193334Y231417D01*
X190835Y233499D02*
X191668Y233083D01*
X192501Y232250D01*
Y231417D01*
X192084Y231000D01*
X191251D01*
X190835Y231417D01*
Y231833D01*
X191251Y232250D01*
X192501D01*
X190002Y233083D02*
X189585Y233499D01*
X188752D01*
X188336Y233083D01*
Y232666D01*
X188752Y232250D01*
X188336Y231833D01*
Y231417D01*
X188752Y231000D01*
X189585D01*
X190002Y231417D01*
Y231833D01*
X189585Y232250D01*
X190002Y232666D01*
Y233083D01*
X189585Y232250D02*
X188752D01*
X434634Y201483D02*
X435050Y201899D01*
X435884D01*
X436300Y201483D01*
Y199817D01*
X435884Y199400D01*
X435050D01*
X434634Y199817D01*
X432135Y201899D02*
X433801D01*
Y200650D01*
X432968Y201066D01*
X432551D01*
X432135Y200650D01*
Y199817D01*
X432551Y199400D01*
X433384D01*
X433801Y199817D01*
X431302Y201483D02*
X430885Y201899D01*
X430052D01*
X429635Y201483D01*
Y201066D01*
X430052Y200650D01*
X430469D01*
X430052D01*
X429635Y200233D01*
Y199817D01*
X430052Y199400D01*
X430885D01*
X431302Y199817D01*
X437383Y441566D02*
X437799Y441150D01*
Y440316D01*
X437383Y439900D01*
X435716D01*
X435300Y440316D01*
Y441150D01*
X435716Y441566D01*
X437799Y444065D02*
Y442399D01*
X436550D01*
X436966Y443232D01*
Y443649D01*
X436550Y444065D01*
X435716D01*
X435300Y443649D01*
Y442816D01*
X435716Y442399D01*
X437383Y444898D02*
X437799Y445315D01*
Y446148D01*
X437383Y446564D01*
X435716D01*
X435300Y446148D01*
Y445315D01*
X435716Y444898D01*
X437383D01*
X441334Y378583D02*
X441750Y378999D01*
X442584D01*
X443000Y378583D01*
Y376917D01*
X442584Y376500D01*
X441750D01*
X441334Y376917D01*
X439251Y376500D02*
Y378999D01*
X440501Y377750D01*
X438835D01*
X438002Y376917D02*
X437585Y376500D01*
X436752D01*
X436336Y376917D01*
Y378583D01*
X436752Y378999D01*
X437585D01*
X438002Y378583D01*
Y378166D01*
X437585Y377750D01*
X436336D01*
X423874Y396060D02*
X424291Y395643D01*
Y394810D01*
X423874Y394394D01*
X422208D01*
X421791Y394810D01*
Y395643D01*
X422208Y396060D01*
X421791Y398143D02*
X424291D01*
X423041Y396893D01*
Y398559D01*
X423874Y399392D02*
X424291Y399809D01*
Y400642D01*
X423874Y401058D01*
X423457D01*
X423041Y400642D01*
X422624Y401058D01*
X422208D01*
X421791Y400642D01*
Y399809D01*
X422208Y399392D01*
X422624D01*
X423041Y399809D01*
X423457Y399392D01*
X423874D01*
X423041Y399809D02*
Y400642D01*
X449434Y401783D02*
X449850Y402199D01*
X450683D01*
X451100Y401783D01*
Y400116D01*
X450683Y399700D01*
X449850D01*
X449434Y400116D01*
X447351Y399700D02*
Y402199D01*
X448601Y400950D01*
X446935D01*
X446102Y402199D02*
X444436D01*
Y401783D01*
X446102Y400116D01*
Y399700D01*
X411083Y187166D02*
X411499Y186750D01*
Y185916D01*
X411083Y185500D01*
X409416D01*
X409000Y185916D01*
Y186750D01*
X409416Y187166D01*
X409000Y189249D02*
X411499D01*
X410250Y187999D01*
Y189665D01*
X411499Y190498D02*
X409000D01*
Y191748D01*
X409416Y192165D01*
X411083D01*
X411499Y191748D01*
Y190498D01*
X411083Y254166D02*
X411499Y253750D01*
Y252917D01*
X411083Y252500D01*
X409416D01*
X409000Y252917D01*
Y253750D01*
X409416Y254166D01*
X409000Y256249D02*
X411499D01*
X410250Y254999D01*
Y256665D01*
X411083Y259165D02*
X411499Y258748D01*
Y257915D01*
X411083Y257498D01*
X409416D01*
X409000Y257915D01*
Y258748D01*
X409416Y259165D01*
X411083Y319666D02*
X411499Y319250D01*
Y318417D01*
X411083Y318000D01*
X409416D01*
X409000Y318417D01*
Y319250D01*
X409416Y319666D01*
X409000Y321749D02*
X411499D01*
X410250Y320499D01*
Y322165D01*
X411499Y322998D02*
X409000D01*
Y324248D01*
X409416Y324664D01*
X409833D01*
X410250Y324248D01*
Y322998D01*
Y324248D01*
X410666Y324664D01*
X411083D01*
X411499Y324248D01*
Y322998D01*
X411083Y388666D02*
X411499Y388250D01*
Y387417D01*
X411083Y387000D01*
X409416D01*
X409000Y387417D01*
Y388250D01*
X409416Y388666D01*
X409000Y390749D02*
X411499D01*
X410250Y389499D01*
Y391165D01*
X409000Y391998D02*
X410666D01*
X411499Y392831D01*
X410666Y393665D01*
X409000D01*
X410250D01*
Y391998D01*
X403334Y182583D02*
X403750Y182999D01*
X404584D01*
X405000Y182583D01*
Y180917D01*
X404584Y180500D01*
X403750D01*
X403334Y180917D01*
X402501Y182583D02*
X402084Y182999D01*
X401251D01*
X400835Y182583D01*
Y182166D01*
X401251Y181750D01*
X401668D01*
X401251D01*
X400835Y181333D01*
Y180917D01*
X401251Y180500D01*
X402084D01*
X402501Y180917D01*
X400002Y182999D02*
Y180500D01*
X398752D01*
X398336Y180917D01*
Y182583D01*
X398752Y182999D01*
X400002D01*
X407834Y250583D02*
X408250Y250999D01*
X409084D01*
X409500Y250583D01*
Y248917D01*
X409084Y248500D01*
X408250D01*
X407834Y248917D01*
X407001Y250583D02*
X406584Y250999D01*
X405751D01*
X405335Y250583D01*
Y250166D01*
X405751Y249750D01*
X406168D01*
X405751D01*
X405335Y249333D01*
Y248917D01*
X405751Y248500D01*
X406584D01*
X407001Y248917D01*
X402836Y250583D02*
X403252Y250999D01*
X404085D01*
X404502Y250583D01*
Y248917D01*
X404085Y248500D01*
X403252D01*
X402836Y248917D01*
X408334Y316583D02*
X408750Y316999D01*
X409584D01*
X410000Y316583D01*
Y314916D01*
X409584Y314500D01*
X408750D01*
X408334Y314916D01*
X407501Y316583D02*
X407084Y316999D01*
X406251D01*
X405835Y316583D01*
Y316166D01*
X406251Y315750D01*
X406668D01*
X406251D01*
X405835Y315333D01*
Y314916D01*
X406251Y314500D01*
X407084D01*
X407501Y314916D01*
X405002Y316999D02*
Y314500D01*
X403752D01*
X403336Y314916D01*
Y315333D01*
X403752Y315750D01*
X405002D01*
X403752D01*
X403336Y316166D01*
Y316583D01*
X403752Y316999D01*
X405002D01*
X407834Y384083D02*
X408250Y384499D01*
X409084D01*
X409500Y384083D01*
Y382417D01*
X409084Y382000D01*
X408250D01*
X407834Y382417D01*
X407001Y384083D02*
X406584Y384499D01*
X405751D01*
X405335Y384083D01*
Y383666D01*
X405751Y383250D01*
X406168D01*
X405751D01*
X405335Y382833D01*
Y382417D01*
X405751Y382000D01*
X406584D01*
X407001Y382417D01*
X404502Y382000D02*
Y383666D01*
X403669Y384499D01*
X402836Y383666D01*
Y382000D01*
Y383250D01*
X404502D01*
X198231Y264744D02*
X198648Y265161D01*
X199481D01*
X199898Y264744D01*
Y263078D01*
X199481Y262661D01*
X198648D01*
X198231Y263078D01*
X195732Y265161D02*
X196565Y264744D01*
X197398Y263911D01*
Y263078D01*
X196982Y262661D01*
X196149D01*
X195732Y263078D01*
Y263494D01*
X196149Y263911D01*
X197398D01*
X193233Y262661D02*
X194899D01*
X193233Y264328D01*
Y264744D01*
X193650Y265161D01*
X194483D01*
X194899Y264744D01*
X187389D02*
X187805Y265161D01*
X188639D01*
X189055Y264744D01*
Y263078D01*
X188639Y262661D01*
X187805D01*
X187389Y263078D01*
X184890Y265161D02*
X185723Y264744D01*
X186556Y263911D01*
Y263078D01*
X186139Y262661D01*
X185306D01*
X184890Y263078D01*
Y263494D01*
X185306Y263911D01*
X186556D01*
X184057Y264744D02*
X183640Y265161D01*
X182807D01*
X182391Y264744D01*
Y264328D01*
X182807Y263911D01*
X183224D01*
X182807D01*
X182391Y263494D01*
Y263078D01*
X182807Y262661D01*
X183640D01*
X184057Y263078D01*
X193334Y208583D02*
X193750Y208999D01*
X194583D01*
X195000Y208583D01*
Y206916D01*
X194583Y206500D01*
X193750D01*
X193334Y206916D01*
X190835Y208999D02*
X191668Y208583D01*
X192501Y207750D01*
Y206916D01*
X192084Y206500D01*
X191251D01*
X190835Y206916D01*
Y207333D01*
X191251Y207750D01*
X192501D01*
X190002Y206916D02*
X189585Y206500D01*
X188752D01*
X188336Y206916D01*
Y208583D01*
X188752Y208999D01*
X189585D01*
X190002Y208583D01*
Y208166D01*
X189585Y207750D01*
X188336D01*
X58500Y355499D02*
Y353000D01*
X57250D01*
X56834Y353416D01*
Y355083D01*
X57250Y355499D01*
X58500D01*
X56001Y353000D02*
X55168D01*
X55584D01*
Y355499D01*
X56001Y355083D01*
X53918D02*
X53502Y355499D01*
X52669D01*
X52252Y355083D01*
Y353416D01*
X52669Y353000D01*
X53502D01*
X53918Y353416D01*
Y355083D01*
X57500Y313999D02*
Y311500D01*
X56250D01*
X55834Y311916D01*
Y313583D01*
X56250Y313999D01*
X57500D01*
X55001Y311500D02*
X54168D01*
X54584D01*
Y313999D01*
X55001Y313583D01*
X52918Y311500D02*
X52085D01*
X52502D01*
Y313999D01*
X52918Y313583D01*
X275000Y432999D02*
Y430500D01*
X273750D01*
X273334Y430917D01*
Y432583D01*
X273750Y432999D01*
X275000D01*
X272501Y430500D02*
X271668D01*
X272084D01*
Y432999D01*
X272501Y432583D01*
X270418D02*
X270002Y432999D01*
X269169D01*
X268752Y432583D01*
Y432166D01*
X269169Y431750D01*
X268752Y431333D01*
Y430917D01*
X269169Y430500D01*
X270002D01*
X270418Y430917D01*
Y431333D01*
X270002Y431750D01*
X270418Y432166D01*
Y432583D01*
X270002Y431750D02*
X269169D01*
X153334Y409499D02*
X154167D01*
X153750D01*
Y407416D01*
X154167Y407000D01*
X154584D01*
X155000Y407416D01*
X152501Y407000D02*
X151668D01*
X152084D01*
Y409499D01*
X152501Y409083D01*
X46834Y322499D02*
X47667D01*
X47250D01*
Y320416D01*
X47667Y320000D01*
X48083D01*
X48500Y320416D01*
X44335Y322499D02*
X46001D01*
Y321250D01*
X45168Y321666D01*
X44751D01*
X44335Y321250D01*
Y320416D01*
X44751Y320000D01*
X45584D01*
X46001Y320416D01*
X45334Y197499D02*
X46167D01*
X45750D01*
Y195416D01*
X46167Y195000D01*
X46584D01*
X47000Y195416D01*
X42835Y197499D02*
X43668Y197083D01*
X44501Y196250D01*
Y195416D01*
X44084Y195000D01*
X43251D01*
X42835Y195416D01*
Y195833D01*
X43251Y196250D01*
X44501D01*
X423554Y444152D02*
Y442069D01*
X423137Y441653D01*
X422304D01*
X421887Y442069D01*
Y444152D01*
X421054Y441653D02*
X420221D01*
X420638D01*
Y444152D01*
X421054Y443735D01*
X418972Y441653D02*
Y443319D01*
X418139Y444152D01*
X417306Y443319D01*
Y441653D01*
Y442902D01*
X418972D01*
X424553Y377136D02*
Y375054D01*
X424137Y374637D01*
X423304D01*
X422887Y375054D01*
Y377136D01*
X422054Y374637D02*
X421221D01*
X421638D01*
Y377136D01*
X422054Y376720D01*
X419972Y377136D02*
Y374637D01*
X418722D01*
X418306Y375054D01*
Y375470D01*
X418722Y375887D01*
X419972D01*
X418722D01*
X418306Y376303D01*
Y376720D01*
X418722Y377136D01*
X419972D01*
X424053Y311620D02*
Y309538D01*
X423637Y309121D01*
X422804D01*
X422387Y309538D01*
Y311620D01*
X421554Y309121D02*
X420721D01*
X421138D01*
Y311620D01*
X421554Y311204D01*
X417806D02*
X418222Y311620D01*
X419055D01*
X419472Y311204D01*
Y309538D01*
X419055Y309121D01*
X418222D01*
X417806Y309538D01*
X423554Y244605D02*
Y242522D01*
X423137Y242106D01*
X422304D01*
X421887Y242522D01*
Y244605D01*
X421054Y242106D02*
X420221D01*
X420638D01*
Y244605D01*
X421054Y244188D01*
X418972Y244605D02*
Y242106D01*
X417722D01*
X417306Y242522D01*
Y244188D01*
X417722Y244605D01*
X418972D01*
X509194Y384433D02*
X511276D01*
X511693Y384016D01*
Y383184D01*
X511276Y382767D01*
X509194D01*
X511693Y380268D02*
Y381934D01*
X510027Y380268D01*
X509610D01*
X509194Y380684D01*
Y381517D01*
X509610Y381934D01*
X511693Y379435D02*
X510027D01*
X509194Y378602D01*
X510027Y377769D01*
X511693D01*
X510443D01*
Y379435D01*
X509194Y335772D02*
X511276D01*
X511693Y335355D01*
Y334522D01*
X511276Y334105D01*
X509194D01*
X511693Y331606D02*
Y333273D01*
X510027Y331606D01*
X509610D01*
X509194Y332023D01*
Y332856D01*
X509610Y333273D01*
X509194Y330773D02*
X511693D01*
Y329524D01*
X511276Y329107D01*
X510860D01*
X510443Y329524D01*
Y330773D01*
Y329524D01*
X510027Y329107D01*
X509610D01*
X509194Y329524D01*
Y330773D01*
X509076Y289630D02*
X511158D01*
X511575Y289213D01*
Y288380D01*
X511158Y287964D01*
X509076D01*
X511575Y285465D02*
Y287131D01*
X509909Y285465D01*
X509492D01*
X509076Y285881D01*
Y286714D01*
X509492Y287131D01*
Y282965D02*
X509076Y283382D01*
Y284215D01*
X509492Y284632D01*
X511158D01*
X511575Y284215D01*
Y283382D01*
X511158Y282965D01*
X509076Y249630D02*
X511158D01*
X511575Y249213D01*
Y248380D01*
X511158Y247964D01*
X509076D01*
X511575Y245465D02*
Y247131D01*
X509909Y245465D01*
X509492D01*
X509076Y245881D01*
Y246714D01*
X509492Y247131D01*
X509076Y244632D02*
X511575D01*
Y243382D01*
X511158Y242965D01*
X509492D01*
X509076Y243382D01*
Y244632D01*
X509194Y359433D02*
X511276D01*
X511693Y359017D01*
Y358184D01*
X511276Y357767D01*
X509194D01*
X509610Y356934D02*
X509194Y356517D01*
Y355684D01*
X509610Y355268D01*
X510027D01*
X510443Y355684D01*
Y356101D01*
Y355684D01*
X510860Y355268D01*
X511276D01*
X511693Y355684D01*
Y356517D01*
X511276Y356934D01*
X511693Y354435D02*
X510027D01*
X509194Y353602D01*
X510027Y352769D01*
X511693D01*
X510443D01*
Y354435D01*
X509194Y310968D02*
X511276D01*
X511693Y310552D01*
Y309719D01*
X511276Y309302D01*
X509194D01*
X509610Y308469D02*
X509194Y308053D01*
Y307220D01*
X509610Y306803D01*
X510027D01*
X510443Y307220D01*
Y307636D01*
Y307220D01*
X510860Y306803D01*
X511276D01*
X511693Y307220D01*
Y308053D01*
X511276Y308469D01*
X509194Y305970D02*
X511693D01*
Y304720D01*
X511276Y304304D01*
X510860D01*
X510443Y304720D01*
Y305970D01*
Y304720D01*
X510027Y304304D01*
X509610D01*
X509194Y304720D01*
Y305970D01*
X509469Y269433D02*
X511552D01*
X511969Y269017D01*
Y268183D01*
X511552Y267767D01*
X509469D01*
X509886Y266934D02*
X509469Y266517D01*
Y265684D01*
X509886Y265268D01*
X510302D01*
X510719Y265684D01*
Y266101D01*
Y265684D01*
X511135Y265268D01*
X511552D01*
X511969Y265684D01*
Y266517D01*
X511552Y266934D01*
X509886Y262769D02*
X509469Y263185D01*
Y264018D01*
X509886Y264435D01*
X511552D01*
X511969Y264018D01*
Y263185D01*
X511552Y262769D01*
X508879Y229433D02*
X510961D01*
X511378Y229016D01*
Y228184D01*
X510961Y227767D01*
X508879D01*
X509295Y226934D02*
X508879Y226517D01*
Y225684D01*
X509295Y225268D01*
X509712D01*
X510128Y225684D01*
Y226101D01*
Y225684D01*
X510545Y225268D01*
X510961D01*
X511378Y225684D01*
Y226517D01*
X510961Y226934D01*
X508879Y224435D02*
X511378D01*
Y223185D01*
X510961Y222769D01*
X509295D01*
X508879Y223185D01*
Y224435D01*
X570449Y313684D02*
Y311602D01*
X570032Y311185D01*
X569199D01*
X568783Y311602D01*
Y313684D01*
X566284D02*
X567117Y313268D01*
X567950Y312435D01*
Y311602D01*
X567533Y311185D01*
X566700D01*
X566284Y311602D01*
Y312018D01*
X566700Y312435D01*
X567950D01*
X570449Y296952D02*
Y294869D01*
X570032Y294453D01*
X569199D01*
X568783Y294869D01*
Y296952D01*
X567950D02*
X566284D01*
Y296535D01*
X567950Y294869D01*
Y294453D01*
X73042Y274695D02*
Y272613D01*
X72625Y272196D01*
X71792D01*
X71376Y272613D01*
Y274695D01*
X70543Y274279D02*
X70126Y274695D01*
X69293D01*
X68876Y274279D01*
Y273862D01*
X69293Y273446D01*
X68876Y273029D01*
Y272613D01*
X69293Y272196D01*
X70126D01*
X70543Y272613D01*
Y273029D01*
X70126Y273446D01*
X70543Y273862D01*
Y274279D01*
X70126Y273446D02*
X69293D01*
X68043Y272196D02*
Y273862D01*
X67210Y274695D01*
X66377Y273862D01*
Y272196D01*
Y273446D01*
X68043D01*
X73329Y406191D02*
Y404109D01*
X72913Y403692D01*
X72079D01*
X71663Y404109D01*
Y406191D01*
X70830Y405775D02*
X70413Y406191D01*
X69580D01*
X69164Y405775D01*
Y405358D01*
X69580Y404942D01*
X69164Y404525D01*
Y404109D01*
X69580Y403692D01*
X70413D01*
X70830Y404109D01*
Y404525D01*
X70413Y404942D01*
X70830Y405358D01*
Y405775D01*
X70413Y404942D02*
X69580D01*
X68331Y406191D02*
Y403692D01*
X67081D01*
X66665Y404109D01*
Y404525D01*
X67081Y404942D01*
X68331D01*
X67081D01*
X66665Y405358D01*
Y405775D01*
X67081Y406191D01*
X68331D01*
X142850Y232099D02*
X143684D01*
X144100Y231683D01*
Y230016D01*
X143684Y229600D01*
X142850D01*
X142434Y230016D01*
Y231683D01*
X142850Y232099D01*
X141601Y229600D02*
Y232099D01*
X140351D01*
X139935Y231683D01*
Y230850D01*
X140351Y230433D01*
X141601D01*
X139102Y229600D02*
X138269D01*
X138685D01*
Y232099D01*
X139102Y231683D01*
X137019Y229600D02*
Y231266D01*
X136186Y232099D01*
X135353Y231266D01*
Y229600D01*
Y230850D01*
X137019D01*
X154843Y380935D02*
X155676D01*
X156093Y380519D01*
Y378853D01*
X155676Y378436D01*
X154843D01*
X154427Y378853D01*
Y380519D01*
X154843Y380935D01*
X153594Y378436D02*
Y380935D01*
X152344D01*
X151928Y380519D01*
Y379686D01*
X152344Y379269D01*
X153594D01*
X151094Y378436D02*
X150261D01*
X150678D01*
Y380935D01*
X151094Y380519D01*
X149012Y380935D02*
Y378436D01*
X147762D01*
X147346Y378853D01*
Y379269D01*
X147762Y379686D01*
X149012D01*
X147762D01*
X147346Y380102D01*
Y380519D01*
X147762Y380935D01*
X149012D01*
X147050Y278499D02*
X147883D01*
X148300Y278083D01*
Y276416D01*
X147883Y276000D01*
X147050D01*
X146634Y276416D01*
Y278083D01*
X147050Y278499D01*
X145801Y276000D02*
Y278499D01*
X144551D01*
X144135Y278083D01*
Y277250D01*
X144551Y276833D01*
X145801D01*
X141636Y276000D02*
X143302D01*
X141636Y277666D01*
Y278083D01*
X142052Y278499D01*
X142885D01*
X143302Y278083D01*
X140802Y276000D02*
Y277666D01*
X139969Y278499D01*
X139136Y277666D01*
Y276000D01*
Y277250D01*
X140802D01*
X154843Y402246D02*
X155676D01*
X156093Y401830D01*
Y400164D01*
X155676Y399747D01*
X154843D01*
X154427Y400164D01*
Y401830D01*
X154843Y402246D01*
X153594Y399747D02*
Y402246D01*
X152344D01*
X151928Y401830D01*
Y400997D01*
X152344Y400580D01*
X153594D01*
X149428Y399747D02*
X151094D01*
X149428Y401413D01*
Y401830D01*
X149845Y402246D01*
X150678D01*
X151094Y401830D01*
X148595Y402246D02*
Y399747D01*
X147346D01*
X146929Y400164D01*
Y400580D01*
X147346Y400997D01*
X148595D01*
X147346D01*
X146929Y401413D01*
Y401830D01*
X147346Y402246D01*
X148595D01*
X360000Y453500D02*
Y455999D01*
X358750D01*
X358334Y455583D01*
Y454750D01*
X358750Y454333D01*
X360000D01*
X359167D02*
X358334Y453500D01*
X355835Y455999D02*
X357501D01*
Y454750D01*
X356668D01*
X357501D01*
Y453500D01*
X353335Y455583D02*
X353752Y455999D01*
X354585D01*
X355002Y455583D01*
Y455166D01*
X354585Y454750D01*
X353752D01*
X353335Y454333D01*
Y453917D01*
X353752Y453500D01*
X354585D01*
X355002Y453917D01*
X352502Y453500D02*
X351669D01*
X352086D01*
Y455999D01*
X352502Y455583D01*
X144834Y208499D02*
X145667D01*
X145250D01*
Y206417D01*
X145667Y206000D01*
X146083D01*
X146500Y206417D01*
X142335Y206000D02*
X144001D01*
X142335Y207666D01*
Y208083D01*
X142751Y208499D01*
X143584D01*
X144001Y208083D01*
X216000Y212999D02*
Y210916D01*
X215583Y210500D01*
X214750D01*
X214334Y210916D01*
Y212999D01*
X213501Y210500D02*
X212668D01*
X213084D01*
Y212999D01*
X213501Y212583D01*
X211418D02*
X211002Y212999D01*
X210169D01*
X209752Y212583D01*
Y210916D01*
X210169Y210500D01*
X211002D01*
X211418Y210916D01*
Y212583D01*
X435634Y330283D02*
X436050Y330699D01*
X436883D01*
X437300Y330283D01*
Y328616D01*
X436883Y328200D01*
X436050D01*
X435634Y328616D01*
X434801Y328200D02*
X433968D01*
X434384D01*
Y330699D01*
X434801Y330283D01*
X431052Y330699D02*
X432718D01*
Y329450D01*
X431885Y329866D01*
X431468D01*
X431052Y329450D01*
Y328616D01*
X431468Y328200D01*
X432302D01*
X432718Y328616D01*
X178066Y341917D02*
X177650Y341501D01*
X176816D01*
X176400Y341917D01*
Y343583D01*
X176816Y344000D01*
X177650D01*
X178066Y343583D01*
X178899Y344000D02*
X179732D01*
X179316D01*
Y341501D01*
X178899Y341917D01*
X182648Y341501D02*
X181815Y341917D01*
X180982Y342750D01*
Y343583D01*
X181398Y344000D01*
X182231D01*
X182648Y343583D01*
Y343167D01*
X182231Y342750D01*
X180982D01*
X81646Y348017D02*
X81229Y347601D01*
X80396D01*
X79979Y348017D01*
Y349683D01*
X80396Y350100D01*
X81229D01*
X81646Y349683D01*
X82479Y350100D02*
X83312D01*
X82895D01*
Y347601D01*
X82479Y348017D01*
X84561Y347601D02*
X86228D01*
Y348017D01*
X84561Y349683D01*
Y350100D01*
X158034Y278883D02*
X158450Y279299D01*
X159283D01*
X159700Y278883D01*
Y277217D01*
X159283Y276800D01*
X158450D01*
X158034Y277217D01*
X157201Y276800D02*
X156368D01*
X156784D01*
Y279299D01*
X157201Y278883D01*
X155118D02*
X154702Y279299D01*
X153869D01*
X153452Y278883D01*
Y278466D01*
X153869Y278050D01*
X153452Y277633D01*
Y277217D01*
X153869Y276800D01*
X154702D01*
X155118Y277217D01*
Y277633D01*
X154702Y278050D01*
X155118Y278466D01*
Y278883D01*
X154702Y278050D02*
X153869D01*
X143534Y226183D02*
X143950Y226599D01*
X144783D01*
X145200Y226183D01*
Y224517D01*
X144783Y224100D01*
X143950D01*
X143534Y224517D01*
X142701Y224100D02*
X141868D01*
X142284D01*
Y226599D01*
X142701Y226183D01*
X140618Y224517D02*
X140202Y224100D01*
X139369D01*
X138952Y224517D01*
Y226183D01*
X139369Y226599D01*
X140202D01*
X140618Y226183D01*
Y225766D01*
X140202Y225350D01*
X138952D01*
X432100Y403200D02*
Y405699D01*
X430850D01*
X430434Y405283D01*
Y404450D01*
X430850Y404033D01*
X432100D01*
X431267D02*
X430434Y403200D01*
X429601D02*
X428768D01*
X429184D01*
Y405699D01*
X429601Y405283D01*
X427518Y403200D02*
X426685D01*
X427102D01*
Y405699D01*
X427518Y405283D01*
X425435Y403200D02*
Y404866D01*
X424602Y405699D01*
X423769Y404866D01*
Y403200D01*
Y404450D01*
X425435D01*
X431200Y336100D02*
Y338599D01*
X429950D01*
X429534Y338183D01*
Y337350D01*
X429950Y336933D01*
X431200D01*
X430367D02*
X429534Y336100D01*
X428701D02*
X427868D01*
X428284D01*
Y338599D01*
X428701Y338183D01*
X426618Y336100D02*
X425785D01*
X426202D01*
Y338599D01*
X426618Y338183D01*
X424536Y338599D02*
Y336100D01*
X423286D01*
X422869Y336516D01*
Y336933D01*
X423286Y337350D01*
X424536D01*
X423286D01*
X422869Y337766D01*
Y338183D01*
X423286Y338599D01*
X424536D01*
X430900Y268800D02*
Y271299D01*
X429650D01*
X429234Y270883D01*
Y270050D01*
X429650Y269633D01*
X430900D01*
X430067D02*
X429234Y268800D01*
X428401D02*
X427568D01*
X427984D01*
Y271299D01*
X428401Y270883D01*
X426318Y268800D02*
X425485D01*
X425902D01*
Y271299D01*
X426318Y270883D01*
X422569D02*
X422986Y271299D01*
X423819D01*
X424235Y270883D01*
Y269216D01*
X423819Y268800D01*
X422986D01*
X422569Y269216D01*
X431000Y203400D02*
Y205899D01*
X429750D01*
X429334Y205483D01*
Y204650D01*
X429750Y204233D01*
X431000D01*
X430167D02*
X429334Y203400D01*
X428501D02*
X427668D01*
X428084D01*
Y205899D01*
X428501Y205483D01*
X426418Y203400D02*
X425585D01*
X426002D01*
Y205899D01*
X426418Y205483D01*
X424335Y205899D02*
Y203400D01*
X423086D01*
X422669Y203817D01*
Y205483D01*
X423086Y205899D01*
X424335D01*
X460500Y405400D02*
Y407899D01*
X459250D01*
X458834Y407483D01*
Y406650D01*
X459250Y406233D01*
X460500D01*
X459667D02*
X458834Y405400D01*
X458001D02*
X457168D01*
X457584D01*
Y407899D01*
X458001Y407483D01*
X454252Y405400D02*
X455918D01*
X454252Y407066D01*
Y407483D01*
X454669Y407899D01*
X455502D01*
X455918Y407483D01*
X453419Y405400D02*
Y407066D01*
X452586Y407899D01*
X451753Y407066D01*
Y405400D01*
Y406650D01*
X453419D01*
X460300Y338800D02*
Y341299D01*
X459050D01*
X458634Y340883D01*
Y340050D01*
X459050Y339633D01*
X460300D01*
X459467D02*
X458634Y338800D01*
X457801D02*
X456968D01*
X457384D01*
Y341299D01*
X457801Y340883D01*
X454052Y338800D02*
X455718D01*
X454052Y340466D01*
Y340883D01*
X454468Y341299D01*
X455302D01*
X455718Y340883D01*
X453219Y341299D02*
Y338800D01*
X451969D01*
X451553Y339216D01*
Y339633D01*
X451969Y340050D01*
X453219D01*
X451969D01*
X451553Y340466D01*
Y340883D01*
X451969Y341299D01*
X453219D01*
X459600Y271300D02*
Y273799D01*
X458350D01*
X457934Y273383D01*
Y272550D01*
X458350Y272133D01*
X459600D01*
X458767D02*
X457934Y271300D01*
X457101D02*
X456268D01*
X456684D01*
Y273799D01*
X457101Y273383D01*
X453352Y271300D02*
X455018D01*
X453352Y272966D01*
Y273383D01*
X453768Y273799D01*
X454602D01*
X455018Y273383D01*
X450853D02*
X451269Y273799D01*
X452102D01*
X452519Y273383D01*
Y271716D01*
X452102Y271300D01*
X451269D01*
X450853Y271716D01*
X459600Y204500D02*
Y206999D01*
X458350D01*
X457934Y206583D01*
Y205750D01*
X458350Y205333D01*
X459600D01*
X458767D02*
X457934Y204500D01*
X457101D02*
X456268D01*
X456684D01*
Y206999D01*
X457101Y206583D01*
X453352Y204500D02*
X455018D01*
X453352Y206166D01*
Y206583D01*
X453768Y206999D01*
X454602D01*
X455018Y206583D01*
X452519Y206999D02*
Y204500D01*
X451269D01*
X450853Y204917D01*
Y206583D01*
X451269Y206999D01*
X452519D01*
X130000Y283300D02*
Y285799D01*
X128750D01*
X128334Y285383D01*
Y284550D01*
X128750Y284133D01*
X130000D01*
X125835Y285383D02*
X126251Y285799D01*
X127084D01*
X127501Y285383D01*
Y284966D01*
X127084Y284550D01*
X126251D01*
X125835Y284133D01*
Y283717D01*
X126251Y283300D01*
X127084D01*
X127501Y283717D01*
X125002Y283300D02*
X124169D01*
X124585D01*
Y285799D01*
X125002Y285383D01*
X179800Y268799D02*
Y266717D01*
X179384Y266300D01*
X178550D01*
X178134Y266717D01*
Y268799D01*
X176051Y266300D02*
Y268799D01*
X177301Y267550D01*
X175635D01*
X326134Y199599D02*
X326967D01*
X326550D01*
Y197517D01*
X326967Y197100D01*
X327383D01*
X327800Y197517D01*
X325301Y197100D02*
Y199599D01*
X324051D01*
X323635Y199183D01*
Y198350D01*
X324051Y197933D01*
X325301D01*
X322802Y199183D02*
X322385Y199599D01*
X321552D01*
X321135Y199183D01*
Y198766D01*
X321552Y198350D01*
X321969D01*
X321552D01*
X321135Y197933D01*
Y197517D01*
X321552Y197100D01*
X322385D01*
X322802Y197517D01*
D14*
X415886Y405221D02*
Y438685D01*
X382421Y405221D02*
Y438685D01*
X415886D01*
X382421Y405221D02*
X415886D01*
X437776Y385339D02*
Y386126D01*
Y385339D02*
X443681D01*
Y386126D01*
X437776Y396756D02*
Y397543D01*
X443681D01*
Y396756D02*
Y397543D01*
X157994Y238711D02*
X169806D01*
X157994Y265089D02*
X169806D01*
X157994Y238711D02*
Y265089D01*
X169806Y238711D02*
Y265089D01*
X75728Y229827D02*
Y271165D01*
X61555Y229827D02*
Y271165D01*
X75728D01*
X61555Y229827D02*
X75728D01*
X76516Y361323D02*
Y402661D01*
X62343Y361323D02*
Y402661D01*
X76516D01*
X62343Y361323D02*
X76516D01*
X415886Y205173D02*
Y238638D01*
X382421Y205173D02*
Y238638D01*
X415886D01*
X382421Y205173D02*
X415886D01*
Y271856D02*
Y305320D01*
X382421Y271856D02*
Y305320D01*
X415886D01*
X382421Y271856D02*
X415886D01*
Y338538D02*
Y372003D01*
X382421Y338538D02*
Y372003D01*
X415886D01*
X382421Y338538D02*
X415886D01*
D15*
X57500Y206500D02*
Y226500D01*
Y206500D02*
X77500D01*
Y226500D01*
X57500D02*
X77500D01*
X67500Y209000D02*
Y224000D01*
X60000Y216500D02*
X75000D01*
X67500Y409000D02*
X72500D01*
X65000Y414000D02*
X75000D01*
X60000Y419000D02*
X80000D01*
X60000Y424000D02*
X80000D01*
X65000Y429000D02*
X75000D01*
X67500Y434000D02*
X72500D01*
M02*
