M48
;Layer_Color=9474304
;FILE_FORMAT=2:5
INCH,LZ
;TYPE=PLATED
T1F00S00C0.00600
T2F00S00C0.03000
T3F00S00C0.03500
T4F00S00C0.03622
T5F00S00C0.04000
T6F00S00C0.04331
T7F00S00C0.04500
T8F00S00C0.12000
T9F00S00C0.12500
;TYPE=NON_PLATED
T10F00S00C0.03900
T11F00S00C0.09055
T12F00S00C0.09350
%
T01
X00613Y02184
X00671Y02245
X00633Y0238
X00688Y02417
X00641Y02476
X00663Y02543
X00672Y02571
X00624Y02608
X0075Y02595
X00727Y02529
X00823Y02723
X0099Y02722
X00909Y02478
X00914Y02388
X01414Y02349
X01466Y02586
Y02632
X01468Y02685
X01587Y0269
X01606Y02641
X01638Y02626
Y02747
X01768Y02847
X01842Y02652
Y02628
Y02603
X01913Y0262
Y0265
Y02584
X01915Y02539
X01975Y02606
Y02633
Y0266
X02018Y02596
X02054Y02538
X0206Y02383
X02019Y02409
X02015Y02346
X0197
X01974Y02384
X01915Y02405
X01878Y02408
X01827Y02428
X01909Y02351
X01883Y02324
X01864Y02205
X018Y02215
X01775
X0175
X01725
X01699Y02151
X01639Y02166
X01581Y02182
X01521Y02161
X01416Y01963
X01826Y0215
X01884Y02095
X01953Y02084
X02013
X0200959Y02149
X0199459Y02134
X01972
X0195Y02171
X01996Y02178
X02048Y02158
X0205Y02201
X02121Y02196
X02122Y02168
X0214Y02131
X02088Y02144
X02078Y02103
X02189Y02157
X02186Y02244
X0212Y02256
X02095Y02327
X0214Y02383
X02182Y02352
X02223Y02325
X02272
X02271Y02255
X02264Y02178
X02305Y02202
X0237Y0216
X0231Y0206402
X02241Y02086
X0217Y02025
X01979Y02005
X0198Y01912
X0237Y01927
X0221988Y02409
X02209Y02463
X02182Y02495
X02222Y02607
X02237Y02644
X02151Y02685
X02177Y02898
X02211Y02902
X02236Y02872
X02192Y02939
X02129Y02906
X02056Y02847
X02364Y02944
X02403Y02959
X02574Y02956
X026Y0295766
X02605Y02894
X0255157Y0292257
X02497Y02839
X0267635Y0281773
X0264Y02761
X02701Y02668
X02831Y0266795
X02902Y02767
X02937Y02802
X02997Y02793
X03029Y02767
X03019Y02838
X03054Y02887
X02974Y02886
X02888Y02862
X02775Y02832
X02704Y02949
X02668Y02962
X02933Y0296
X03106Y02827
X03341Y02835
X03376Y02857
X03382Y02879
X03419Y0287
X03442Y02824
X03404Y02814
X03426Y02744
X0338Y02718
X03488Y02758
X03512Y02774
X03574Y02808
X03632Y02821
X03658Y02776
X03678Y02795
X03696Y02832
X03682Y0285
X03704Y02871
X03725Y02941
X03871Y02922
X03887Y02893
X03884Y02822
X03821Y02818
X03857Y02781
X03883Y02736
X03962Y02727
X03935Y02779
X03962Y02823
X03936Y02862
X03771Y0272
X03699Y02756
X03598Y02736
X03593Y02871
X0343Y02931
X03515Y02666
X03482Y02573
X03628Y0261
X0362804Y02382
X03722Y02341
X03724Y02268
X03706Y02211
X03707Y02189
X03694Y02159
X03663Y02129
X0365704Y0210315
X03676Y02091
X03598Y02086
X03628Y02159
X03586Y02188
X03381Y02219
X03426Y02419
X03398Y02462
X03106Y02566
X02937Y02459
X02901Y02469
X02841Y02476
X0287Y02512
X03021Y02333
X02985Y02165
X02949Y02183
X03058Y02103
X03023Y01945
X02682Y01993
X02555Y02037
X02534Y02217
X0259Y02237
X0255Y02334
X02498Y02367
X02552Y02588
X02617Y02621
X03864Y02611
X03878Y02579
X03868Y02543
X03903Y02486
X03886Y02376
X03858Y02373
X03919Y02366
X03944Y02383
X03968Y0237596
X04004Y02394
X03976Y02273
X03968Y02157
X03882Y02154
X03823
X03839Y02229
X0387343Y0230024
X03792Y02437
X03773Y02046
X03858Y02056
X03883Y02057
X03962Y02054
X03931Y02096
X03864Y01946
X03836Y01887
X03818Y01773
X0362804Y01948
X04019Y02052
X0408Y02047
X04099Y02066
X04079Y0213291
X04012Y02278
X04099Y02376
X04159Y02436
X04138Y02488
X04081Y02506
X0406Y02484
X04036Y02524
X04134Y02601
X04234Y02586
X0427Y02599
Y02636
X04215Y0266
X04184Y0267
X04137Y02728
X04152Y02758
Y02798
Y02837
Y02876
Y02915
X04132Y02958
X04115Y0285
X04078Y0280221
X04072Y02721
X04101Y02718
X04016Y02723
X0401Y02947
X04268Y02955
X04332Y02939
X04337Y02908
X04333Y0287
X04335Y02838
X04337Y02808
Y02773
X04415Y02788
Y02821
Y02852
Y02884
X04417Y02927
X04416Y0296
X04636Y02948
X04653Y0293
X04654Y02891
X0463Y02908
X04634Y02865
X04653Y02847
X0464Y0282
X04805Y02832
X04823Y02852
X04839Y02871
X04854Y02891
X0487Y0291
X04889Y0293
X04893Y02952
X04935Y02937
X04937Y02888
X04953Y02841
X04968Y02814
X05085
X05091Y0286
X05055Y0291
X05041Y02961
X05207Y02954
X05224Y02708
X0512
X05122Y02665
X05128Y02605
X05141Y0257
X05205Y02531
X05233Y02513
X05244Y02457
X05256Y0241
X05222Y02357
X05205Y02332
X05222Y02257
X05239Y02231
X05259Y02214
X05313Y02172
X05459Y02192
X0513311Y02274
X05119Y02291
X05107Y02311
X05093Y02455
X05067Y02467
X05068Y02501
X05053Y02531
X05031Y02532
X05017Y02556
X05002Y02595
X04974Y02621
X04911Y02665
X04889Y02699
X04877Y02733
X04805Y02748
X04814Y02688
X04831Y02643
X0485Y02584
X04882Y02483
X04884Y02435
X0491Y0239
X0471Y02383
X04646Y02454
X0465Y02483
X04651Y02513
X0463939Y025375
X04673Y0255
X04652Y02576
X04657Y02598
X04654Y0262
X04513Y02724
X04417Y02666
X04416Y02637
X04417Y02605
Y02573
X04415Y02525
X04417Y02498
X04418Y02464
Y02433
Y02351
X04417Y02324
X04415Y02287
X04416Y02256
X04418Y02213
Y02182
X04417Y02151
X04419Y02119
X04346Y02106
X04323Y02105
X04313Y02142
X04347Y02148
Y02174
X04346Y02204
Y02238
Y02271
Y02304
X04347Y02339
X04336Y02425
X04319Y02458
X04309Y0249
X04296Y02519
X04283Y02565
X0436Y02538
X04236Y02505
X04215Y02386
X04249Y02328
X04264Y02291
X04275Y02249
X04288Y02209
X04296Y02174
X0426Y01956
X04184Y0200055
X0416Y01985
X04036Y0185831
X04044Y01774
X04273Y01778
X04509Y01775
X04385Y01917
X04438Y02027
X04506Y02054
X04562Y02116
X04644Y02157
X04634Y02186
X04662Y02204
X04642Y02226
X04657Y02247
X04635Y02267
X04652Y02284
X04639Y02307
X0471004Y02153
X0471Y01938
X05359Y01812
X051Y02768
X05728Y02837
X0565Y0216
X05768Y02025
X05725Y03002
X0565Y03247
X05749Y04309
X05079Y04299
X05066Y04279
X0505Y04259
X05037Y0424
X05025Y0422
X05008Y042
X04994Y0418
X04981Y0416
X04816Y04059
X0483Y04038
X0479Y03886
X0476Y03903
X0471004Y03956
X04537Y03951
X04549Y0385
X04461Y03911
X0446Y04013
X04515Y04063
X04428Y04112
X0443Y04135
X04426Y04165
X04425Y04197
X04428Y04241
X04427Y04275
X04429Y04308
X04428Y04341
X04354Y04334
X04346Y04301
X04347Y04268
Y04241
X04352Y04199
X04348Y04169
X04351Y04138
Y04103
X04352Y03998
X04251Y03981
X04268Y03957
X04183Y04
X04146Y03934
X04121Y03948
X041Y04058
X04061Y04062
X04021Y04052
X0408Y0413095
X0416Y04132
Y04169
X04159Y04209
Y04249
Y04289
Y04326
X04161Y04438
X04166Y0446209
X0426Y0445
Y0449
X0423Y04382
X04085Y04369
X04033Y04364
X0406Y04488
X04162Y04091
X04152Y0377
X04165Y03734
X04214Y03727
X04283Y03758
X04297Y03816
X04348Y03815
X04416Y03791
Y03742
X04417Y03682
X04416Y03651
X04419Y0362
X04417Y03587
Y03553
X04418Y03522
X04416Y03488
Y03458
X04462Y03421
X04514Y03396
X04573Y03349
X04544Y03301
X04475Y03294
X04293Y03325
X04263Y03281
X04145Y03278
X04126Y03224
X04148Y03158
X04082Y03167
X04061Y03155
X04035Y0318705
X041Y03041
X04145Y03048
X04217Y03059
X0434Y03014
X04336Y02985
X04416Y02986
Y03019
X04654Y0297
X04709Y03061
X04764Y03089
X0479Y03058
X04812Y03027
X0483Y03009
X04911Y02994
X0491Y0297
X04889Y0305
X04877Y03093
X04866Y03143
X04996Y03135
X05014Y03073
X05028Y03034
X05083Y03204
X0506Y03232
X05043Y03278
X05017Y03346
X05011Y03384
X04994Y03433
X04992Y03469
X04983Y03526
X0489Y03535
X04905Y03554
X04917Y03579
X04932Y03601
X04946Y03624
X04964Y0364
X04875Y03513
X04859Y03485
X0463Y03499
X0464771Y0352071
X04634Y03541
X04648Y0356
X0463639Y035795
X04648Y03599
X04636Y03619
X04649Y03638
X04766Y03671
X0475Y03692
X0471004Y03729
X04603Y03432
X0471004Y03282
X04782Y03217
X04742Y03126
X05206Y03178
X05207Y03415
Y03639
X05206Y03901
Y0394
X04637Y04159
X04655Y0418
X04635Y04199
Y04239
X04655Y0422
X04656Y04259
Y04298
X04637Y04281
X04709Y0439
X04345Y03684
X04347Y0365
X04342Y03614
X04346Y03582
X04343Y03543
X04334Y0351
X04341Y03477
X04343Y03444
X04154Y03465
Y03503
Y03544
X04149Y03582
X04124Y03663
X04037Y03636
X04049Y03713
X04018Y03711
X04049Y03828
X0408Y03823
X04036Y03882
X0408Y0346165
X04099Y03392
X04125
X04148Y03408
X04184Y03333
X04037Y03405
X04273Y03623
X03972Y03615
X03914Y0363882
X03872
X0387Y03562
X03883Y03484
X03821
X03694Y03496
X03704Y0352
X03707Y03542
X03712Y036
X0371Y03685
X03687Y03749
X0362804Y03735
X03591Y03556
X0363Y03483
X0367Y03469
X03659Y03444
X03703Y03429
X03661Y03377
X03773Y03382
X03884Y03396
X03961Y03389
X03937Y0344
X03963Y03486
X03974Y03713
X03936Y03708
X03912Y03707
X03854Y03706
X03879Y03822
X03903Y0382
X03936Y03821
X03882Y03897
X0384Y03884
X03862Y03951
X03884Y04059
X03962
X03923Y04105
X03884Y04153
X03821Y04151
X03824Y0423
X03884Y04287
X03962
X04003Y04283
X04002Y04384
X03963Y04374
X03923Y04378
X03886Y04379
X03845Y04377
Y04488
X03868Y04504
X03904Y04493
X03932Y04492
X03962Y04154
X03711Y04168
X0371Y0421
X03682Y0419
X03698Y04128
X03673Y04111
X03663Y04079
X03709Y0408
X03777Y04054
X03627Y0396
X03505Y03867
X03434Y03808
X03384Y03667
X03454Y03606
X03505Y03504
X03474Y03384
X034Y03391
X03366Y03408
X03362Y03467
X03333Y03569
X03417Y03327
X03487Y03308
X03626Y03286
X03627Y03061
X03578Y03025
X03595Y0300689
X03459Y03011
X03442Y03037
X03504Y03065
X03329Y03053
X03418Y0321
X03833Y03215
X03881Y03251
X03865Y03284
X03903Y0315
X03886Y03054
X03914Y03039
X03938Y03053
X03964Y03064
X04002Y0306
X03992Y03026
X03913Y02972
X03829Y0301
X03854Y03036
X03822Y03101
X03013Y03065
X03037Y03019
X02992Y02967
X02929Y03109
X02772Y03126
X02777Y03211
X02681Y03201
X02499Y03204
X02529Y03121
X02624Y03021
X02645Y03
X02803Y03027
X0279643Y0332757
X02838Y03314
X02839Y0344197
X02796Y03429
X02701Y03447
X02682Y03405
X02696Y03378
X0271Y03522
X026Y03446
X0252Y0359
X02518Y03698
X0257Y03721
X02643Y03659
X02617Y03888
X02551Y04006
X02588Y04113
X02449Y03946
X02825Y03948
X02801Y03909
X02819Y04247
X02985Y0427
X02979Y0439
X03155Y04466
X03362Y04397
Y04209
X03436Y04247
X03583Y0419
X03716Y04268
X03704Y04347
X0362804Y04401
X02631Y044
X02635Y04451
X02535Y0441
X02497Y04363
X02451Y04418
X03048Y03485
X03047Y03334
X02401Y03367
X02379Y03375
Y03408
X0233Y03345
X02358Y03298
X02414Y03285
X02347Y0310732
X02323Y03026
X02329Y03001
X02354Y03006
X02231Y03105
X02219Y03148
X02177Y03143
X02082Y03166
X02061Y03254
X02069Y03282
X02068Y03331
X02096Y03332
X02064Y03405
X02018Y03399
X01984Y03498
X02174Y03514
X02222Y0348
X02192Y03431
X02293Y03511
X0222Y03625
X02098Y03658
X0206Y03686
X02036Y03738
X01816Y03781
X01622Y0372
X01477Y03693
X01509Y03909
X01581Y03887
X0151Y04009
X00977Y04071
X00903Y03837
X00913Y03796
X00928Y03689
X01429Y03167
X01674Y0321
X01817Y03283
X01877Y03066
X0205Y0302
X02054Y0299
X01606Y03035
X02427Y03569
X02291Y03822
X02139Y04239
X019Y0424
X02419Y044
X02395Y0445
X02422Y04474
X00841Y04072
X00687Y04076
X00627Y03938
X00645Y03825
X00633Y03781
X00629Y03729
X00633Y03697
X00707
X00702Y03829
X00736Y03836
X00763Y03911
X00469Y03861
X0047Y04181
X00465Y03481
X00477Y03469
X0049Y03457
X02475Y04568
X02939Y04573
X03171Y04586
X03222Y04601
X03355Y046
X03436Y04598
X04044Y04544
X0428Y045463
X04513Y04546
X05207Y04548
T02
X00951Y03002
X01051
X01351
X01551
T03
X0531201Y0234276
Y0244276
Y0254276
Y0264276
Y0274276
Y0284276
Y0294276
X0538701Y0289276
Y0279276
Y0269276
Y0259276
Y0249276
Y0239276
X0546201Y0234276
Y0244276
Y0254276
Y0264276
Y0274276
Y0284276
Y0294276
X0553701Y0289276
Y0279276
Y0269276
Y0259276
Y0249276
Y0239276
Y0299276
Y0309276
Y0319276
Y0329276
Y0339276
Y0349276
Y0359276
Y0369276
Y0379276
Y0389276
Y0399276
X0546201Y0394276
Y0384276
Y0374276
Y0364276
Y0354276
Y0344276
Y0334276
Y0324276
Y0314276
Y0304276
X0538701Y0299276
Y0309276
Y0319276
Y0329276
Y0339276
Y0349276
Y0359276
Y0369276
Y0379276
Y0389276
Y0399276
X0531201Y0394276
Y0384276
Y0374276
Y0364276
Y0354276
Y0344276
Y0334276
Y0324276
Y0314276
Y0304276
T04
X0031988Y0249905
X0039862
Y0259748
X0031988
X0032382Y0374709
X0040256
Y0384551
X0032382
T05
X0317461Y0246795
X0327461
Y0256795
X0317461
Y0266795
X0327461
Y0276795
X0317461
Y0286795
X0327461
Y0296795
X0317461
Y0306795
X0327461
Y0316795
X0317461
Y0326795
X0327461
Y0336795
X0317461
Y0346795
X0327461
Y0356795
X0317461
Y0366795
X0327461
Y0376795
X0317461
Y0386795
X0327461
T06
X03198Y01908
X03298
X01819Y02994
X01719
X00781Y03
X00681
T07
X00975Y01865
X01716Y02713
X0210177Y024774
X023872Y0257583
X0241673Y0204433
X0322382Y020837
X04426Y03175
X0293839Y033337
X028498Y0377661
X0285965Y0406205
X0309587Y0405221
X03272Y04084
X00925Y0434
T08
X0018248Y0184748
X0278091
X0488228
X0596594
Y0448528
X0488228
X0278091
X0018248
T09
X0542401Y0202776
Y0430976
T10
X03156Y04335
X03116Y04535
X03196
T11
X0014311Y0239079
Y0270575
X0014705Y0363882
Y0395378
T12
X03056Y04335
Y0446
X03256
Y04335
M30
