<svg id="Layer_1" data-name="Layer 1" xmlns="http://www.w3.org/2000/svg" viewBox="0 0 600 600"><title>dial08</title><path d="M304.5,0h-2A6.49,6.49,0,0,0,296,6.5v87a6.49,6.49,0,0,0,6.5,6.5h2a6.49,6.49,0,0,0,6.5-6.5V6.5A6.49,6.49,0,0,0,304.5,0Z" style="fill:#fff"/><path d="M366.8,7.5l-2-.4a6.51,6.51,0,0,0-7.7,5L339,97.2a6.51,6.51,0,0,0,5,7.7l2,.4a6.51,6.51,0,0,0,7.7-5l18.1-85.1A6.51,6.51,0,0,0,366.8,7.5Z" style="fill:#fff"/><path d="M426.1,27.8l-1.8-.8a6.48,6.48,0,0,0-8.6,3.3l-35.4,79.5a6.48,6.48,0,0,0,3.3,8.6l1.8.8a6.48,6.48,0,0,0,8.6-3.3l35.4-79.5A6.45,6.45,0,0,0,426.1,27.8Z" style="fill:#fff"/><path d="M480,59.9l-1.6-1.2a6.53,6.53,0,0,0-9.1,1.4l-51.1,70.4a6.53,6.53,0,0,0,1.4,9.1l1.6,1.2a6.53,6.53,0,0,0,9.1-1.4L481.4,69A6.53,6.53,0,0,0,480,59.9Z" style="fill:#fff"/><path d="M526,102.6l-1.3-1.5a6.5,6.5,0,0,0-9.2-.5l-64.7,58.2a6.5,6.5,0,0,0-.5,9.2l1.3,1.5a6.5,6.5,0,0,0,9.2.5l64.7-58.2A6.59,6.59,0,0,0,526,102.6Z" style="fill:#fff"/><path d="M562.1,153.9l-1-1.7a6.54,6.54,0,0,0-8.9-2.4l-75.3,43.5a6.54,6.54,0,0,0-2.4,8.9l1,1.7a6.54,6.54,0,0,0,8.9,2.4l75.3-43.5A6.54,6.54,0,0,0,562.1,153.9Z" style="fill:#fff"/><path d="M586.7,211.6l-.6-1.9a6.55,6.55,0,0,0-8.2-4.2l-82.7,26.9a6.55,6.55,0,0,0-4.2,8.2l.6,1.9a6.55,6.55,0,0,0,8.2,4.2l82.7-26.9A6.47,6.47,0,0,0,586.7,211.6Z" style="fill:#fff"/><path d="M598.8,273.1l-.2-2a6.49,6.49,0,0,0-7.1-5.8L505,274.4a6.49,6.49,0,0,0-5.8,7.1l.2,2a6.49,6.49,0,0,0,7.1,5.8l86.5-9.1A6.38,6.38,0,0,0,598.8,273.1Z" style="fill:#fff"/><path d="M592.3,326.7l-86.5-9.1a6.38,6.38,0,0,0-7.1,5.8l-.2,2a6.38,6.38,0,0,0,5.8,7.1l86.5,9.1a6.38,6.38,0,0,0,7.1-5.8l.2-2A6.49,6.49,0,0,0,592.3,326.7Z" style="fill:#7b7b7b"/><path d="M580.4,386.9,497.6,360a6.55,6.55,0,0,0-8.2,4.2l-.6,1.9a6.55,6.55,0,0,0,4.2,8.2l82.7,26.9a6.55,6.55,0,0,0,8.2-4.2l.6-1.9A6.41,6.41,0,0,0,580.4,386.9Z" style="fill:#7b7b7b"/><path d="M556.2,443.3l-75.3-43.5a6.54,6.54,0,0,0-8.9,2.4l-1,1.7a6.54,6.54,0,0,0,2.4,8.9l75.3,43.5a6.54,6.54,0,0,0,8.9-2.4l1-1.7A6.54,6.54,0,0,0,556.2,443.3Z" style="fill:#7b7b7b"/><path d="M520.8,493.4l-64.7-58.2a6.5,6.5,0,0,0-9.2.5l-1.3,1.5a6.5,6.5,0,0,0,.5,9.2l64.7,58.2a6.5,6.5,0,0,0,9.2-.5l1.3-1.5A6.5,6.5,0,0,0,520.8,493.4Z" style="fill:#7b7b7b"/><path d="M475.8,535.1l-51.1-70.4a6.53,6.53,0,0,0-9.1-1.4l-1.6,1.2a6.53,6.53,0,0,0-1.4,9.1L463.7,544a6.53,6.53,0,0,0,9.1,1.4l1.6-1.2A6.62,6.62,0,0,0,475.8,535.1Z" style="fill:#7b7b7b"/><path d="M423,566.5,387.7,487a6.48,6.48,0,0,0-8.6-3.3l-1.8.8a6.48,6.48,0,0,0-3.3,8.6l35.4,79.5a6.48,6.48,0,0,0,8.6,3.3l1.8-.8A6.52,6.52,0,0,0,423,566.5Z" style="fill:#7b7b7b"/><path d="M364.9,586.3l-18.1-85.1a6.44,6.44,0,0,0-7.7-5l-2,.4a6.44,6.44,0,0,0-5,7.7l18.1,85.1a6.44,6.44,0,0,0,7.7,5l2-.4A6.49,6.49,0,0,0,364.9,586.3Z" style="fill:#7b7b7b"/><path d="M297.5,500h-2a6.49,6.49,0,0,0-6.5,6.5v87a6.49,6.49,0,0,0,6.5,6.5h2a6.49,6.49,0,0,0,6.5-6.5v-87A6.49,6.49,0,0,0,297.5,500Z" style="fill:#7b7b7b"/><path d="M256,495.1l-2-.4a6.51,6.51,0,0,0-7.7,5l-18.1,85.1a6.51,6.51,0,0,0,5,7.7l2,.4a6.51,6.51,0,0,0,7.7-5L261,502.8A6.56,6.56,0,0,0,256,495.1Z" style="fill:#7b7b7b"/><path d="M216.4,481.7l-1.8-.8a6.48,6.48,0,0,0-8.6,3.3l-35.4,79.5a6.48,6.48,0,0,0,3.3,8.6l1.8.8a6.48,6.48,0,0,0,8.6-3.3l35.4-79.5A6.65,6.65,0,0,0,216.4,481.7Z" style="fill:#7b7b7b"/><path d="M180.4,460.3l-1.6-1.2a6.53,6.53,0,0,0-9.1,1.4L118.6,531a6.53,6.53,0,0,0,1.4,9.1l1.6,1.2a6.53,6.53,0,0,0,9.1-1.4l51.1-70.4A6.55,6.55,0,0,0,180.4,460.3Z" style="fill:#7b7b7b"/><path d="M149.7,432l-1.3-1.5a6.5,6.5,0,0,0-9.2-.5L74.5,488.2a6.5,6.5,0,0,0-.5,9.2l1.3,1.5a6.5,6.5,0,0,0,9.2.5l64.7-58.2A6.51,6.51,0,0,0,149.7,432Z" style="fill:#7b7b7b"/><path d="M125.5,397.8l-1-1.7a6.54,6.54,0,0,0-8.9-2.4L40.3,437.2a6.54,6.54,0,0,0-2.4,8.9l1,1.7a6.54,6.54,0,0,0,8.9,2.4l75.3-43.5A6.45,6.45,0,0,0,125.5,397.8Z" style="fill:#7b7b7b"/><path d="M109,359.4l-.6-1.9a6.55,6.55,0,0,0-8.2-4.2L17.5,380.2a6.55,6.55,0,0,0-4.2,8.2l.6,1.9a6.55,6.55,0,0,0,8.2,4.2l82.7-26.9A6.47,6.47,0,0,0,109,359.4Z" style="fill:#7b7b7b"/><path d="M100.8,318.4l-.2-2a6.49,6.49,0,0,0-7.1-5.8L7,319.7a6.49,6.49,0,0,0-5.8,7.1l.2,2a6.49,6.49,0,0,0,7.1,5.8L95,325.5A6.38,6.38,0,0,0,100.8,318.4Z" style="fill:#7b7b7b"/><path d="M95.8,267.5,9.3,258.4a6.38,6.38,0,0,0-7.1,5.8l-.2,2a6.38,6.38,0,0,0,5.8,7.1l86.5,9.1a6.38,6.38,0,0,0,7.1-5.8l.2-2A6.56,6.56,0,0,0,95.8,267.5Z" style="fill:#7b7b7b"/><path d="M107,225.7,24.3,198.8a6.55,6.55,0,0,0-8.2,4.2l-.6,1.9a6.55,6.55,0,0,0,4.2,8.2L102.4,240a6.55,6.55,0,0,0,8.2-4.2l.6-1.9A6.55,6.55,0,0,0,107,225.7Z" style="fill:#7b7b7b"/><path d="M126.7,187.2,51.4,143.7a6.54,6.54,0,0,0-8.9,2.4l-1,1.7a6.54,6.54,0,0,0,2.4,8.9l75.3,43.5a6.54,6.54,0,0,0,8.9-2.4l1-1.7A6.63,6.63,0,0,0,126.7,187.2Z" style="fill:#7b7b7b"/><path d="M153.9,153.7,89.2,95.4a6.5,6.5,0,0,0-9.2.5l-1.3,1.5a6.5,6.5,0,0,0,.5,9.2l64.7,58.2a6.5,6.5,0,0,0,9.2-.5l1.3-1.5A6.38,6.38,0,0,0,153.9,153.7Z" style="fill:#7b7b7b"/><path d="M187.5,126.5,136.4,56.1a6.53,6.53,0,0,0-9.1-1.4l-1.6,1.2a6.53,6.53,0,0,0-1.4,9.1l51.1,70.4a6.53,6.53,0,0,0,9.1,1.4l1.6-1.2A6.54,6.54,0,0,0,187.5,126.5Z" style="fill:#7b7b7b"/><path d="M226.1,106.9,190.7,27.4a6.48,6.48,0,0,0-8.6-3.3l-1.8.8a6.48,6.48,0,0,0-3.3,8.6L212.4,113a6.48,6.48,0,0,0,8.6,3.3l1.8-.8A6.65,6.65,0,0,0,226.1,106.9Z" style="fill:#7b7b7b"/><path d="M267.8,95.7,249.7,10.6a6.44,6.44,0,0,0-7.7-5L240,6a6.44,6.44,0,0,0-5,7.7l18.1,85.1a6.44,6.44,0,0,0,7.7,5l2-.4A6.44,6.44,0,0,0,267.8,95.7Z" style="fill:#7b7b7b"/></svg>