<?xml version="1.0" encoding="utf-8"?>
<!-- Generator: Adobe Illustrator 23.0.3, SVG Export Plug-In . SVG Version: 6.00 Build 0)  -->
<svg version="1.1" id="Layer_1" xmlns="http://www.w3.org/2000/svg" xmlns:xlink="http://www.w3.org/1999/xlink" x="0px" y="0px"
	 viewBox="0 0 600 600" style="enable-background:new 0 0 600 600;" xml:space="preserve">
<style type="text/css">
	.st0{fill:#FFFFFF;}
	.st1{fill:#7B7B7B;}
</style>
<title>dial</title>
<path class="st0" d="M304.5,0h-2c-3.6,0-6.5,2.9-6.5,6.5v87c0,3.6,2.9,6.5,6.5,6.5h2c3.6,0,6.5-2.9,6.5-6.5v-87
	C311,2.9,308.1,0,304.5,0z"/>
<path class="st0" d="M366.8,7.5l-2-0.4c-3.5-0.7-7,1.5-7.7,5L339,97.2c-0.7,3.5,1.5,7,5,7.7l2,0.4c3.5,0.7,7-1.5,7.7-5l18.1-85.1
	C372.5,11.7,370.3,8.2,366.8,7.5z"/>
<path class="st0" d="M426.1,27.8l-1.8-0.8c-3.3-1.5-7.1,0-8.6,3.3l-35.4,79.5c-1.5,3.3,0,7.1,3.3,8.6l1.8,0.8c3.3,1.5,7.1,0,8.6-3.3
	l35.4-79.5C430.9,33.1,429.4,29.2,426.1,27.8z"/>
<path class="st0" d="M480,59.9l-1.6-1.2c-2.9-2.1-7-1.5-9.1,1.4l-51.1,70.4c-2.1,2.9-1.5,7,1.4,9.1l1.6,1.2c2.9,2.1,7,1.5,9.1-1.4
	L481.4,69C483.5,66.1,482.9,62,480,59.9z"/>
<path class="st0" d="M526,102.6l-1.3-1.5c-2.4-2.7-6.5-2.9-9.2-0.5l-64.7,58.2c-2.7,2.4-2.9,6.5-0.5,9.2l1.3,1.5
	c2.4,2.7,6.5,2.9,9.2,0.5l64.7-58.2C528.1,109.4,528.4,105.3,526,102.6z"/>
<path class="st0" d="M562.1,153.9l-1-1.7c-1.8-3.1-5.8-4.2-8.9-2.4l-75.3,43.5c-3.1,1.8-4.2,5.8-2.4,8.9l1,1.7
	c1.8,3.1,5.8,4.2,8.9,2.4l75.3-43.5C562.8,161,563.9,157,562.1,153.9z"/>
<path class="st0" d="M586.7,211.6l-0.6-1.9c-1.1-3.4-4.8-5.3-8.2-4.2l-82.7,26.9c-3.4,1.1-5.3,4.8-4.2,8.2l0.6,1.9
	c1.1,3.4,4.8,5.3,8.2,4.2l82.7-26.9C586,218.7,587.8,215,586.7,211.6z"/>
<path class="st0" d="M598.8,273.1l-0.2-2c-0.4-3.6-3.6-6.2-7.1-5.8l-86.5,9.1c-3.6,0.4-6.2,3.6-5.8,7.1l0.2,2
	c0.4,3.6,3.6,6.2,7.1,5.8l86.5-9.1C596.6,279.9,599.2,276.7,598.8,273.1z"/>
<path class="st0" d="M592.3,326.7l-86.5-9.1c-3.6-0.4-6.8,2.2-7.1,5.8l-0.2,2c-0.4,3.6,2.2,6.8,5.8,7.1l86.5,9.1
	c3.6,0.4,6.8-2.2,7.1-5.8l0.2-2C598.5,330.3,595.9,327.1,592.3,326.7z"/>
<path class="st0" d="M580.4,386.9L497.6,360c-3.4-1.1-7.1,0.8-8.2,4.2l-0.6,1.9c-1.1,3.4,0.8,7.1,4.2,8.2l82.7,26.9
	c3.4,1.1,7.1-0.8,8.2-4.2l0.6-1.9C585.7,391.7,583.8,388,580.4,386.9z"/>
<path class="st0" d="M556.2,443.3l-75.3-43.5c-3.1-1.8-7.1-0.7-8.9,2.4l-1,1.7c-1.8,3.1-0.7,7.1,2.4,8.9l75.3,43.5
	c3.1,1.8,7.1,0.7,8.9-2.4l1-1.7C560.4,449.1,559.3,445.1,556.2,443.3z"/>
<path class="st0" d="M520.8,493.4l-64.7-58.2c-2.7-2.4-6.8-2.2-9.2,0.5l-1.3,1.5c-2.4,2.7-2.2,6.8,0.5,9.2l64.7,58.2
	c2.7,2.4,6.8,2.2,9.2-0.5l1.3-1.5C523.7,499.9,523.5,495.8,520.8,493.4z"/>
<path class="st0" d="M475.8,535.1l-51.1-70.4c-2.1-2.9-6.2-3.5-9.1-1.4l-1.6,1.2c-2.9,2.1-3.5,6.2-1.4,9.1l51.1,70.4
	c2.1,2.9,6.2,3.5,9.1,1.4l1.6-1.2C477.2,542.1,477.9,538,475.8,535.1z"/>
<path class="st0" d="M423,566.5L387.7,487c-1.5-3.3-5.3-4.8-8.6-3.3l-1.8,0.8c-3.3,1.5-4.8,5.3-3.3,8.6l35.4,79.5
	c1.5,3.3,5.3,4.8,8.6,3.3l1.8-0.8C423,573.6,424.5,569.8,423,566.5z"/>
<path class="st1" d="M364.9,586.3l-18.1-85.1c-0.7-3.5-4.2-5.8-7.7-5l-2,0.4c-3.5,0.7-5.8,4.2-5,7.7l18.1,85.1
	c0.7,3.5,4.2,5.8,7.7,5l2-0.4C363.4,593.2,365.7,589.8,364.9,586.3z"/>
<path class="st1" d="M297.5,500h-2c-3.6,0-6.5,2.9-6.5,6.5v87c0,3.6,2.9,6.5,6.5,6.5h2c3.6,0,6.5-2.9,6.5-6.5v-87
	C304,502.9,301.1,500,297.5,500z"/>
<path class="st1" d="M256,495.1l-2-0.4c-3.5-0.7-7,1.5-7.7,5l-18.1,85.1c-0.7,3.5,1.5,7,5,7.7l2,0.4c3.5,0.7,7-1.5,7.7-5l18.1-85.1
	C261.7,499.3,259.5,495.9,256,495.1z"/>
<path class="st1" d="M216.4,481.7l-1.8-0.8c-3.3-1.5-7.1,0-8.6,3.3l-35.4,79.5c-1.5,3.3,0,7.1,3.3,8.6l1.8,0.8
	c3.3,1.5,7.1,0,8.6-3.3l35.4-79.5C221.1,487,219.6,483.2,216.4,481.7z"/>
<path class="st1" d="M180.4,460.3l-1.6-1.2c-2.9-2.1-7-1.5-9.1,1.4L118.6,531c-2.1,2.9-1.5,7,1.4,9.1l1.6,1.2c2.9,2.1,7,1.5,9.1-1.4
	l51.1-70.4C184,466.5,183.3,462.4,180.4,460.3z"/>
<path class="st1" d="M149.7,432l-1.3-1.5c-2.4-2.7-6.5-2.9-9.2-0.5l-64.7,58.2c-2.7,2.4-2.9,6.5-0.5,9.2l1.3,1.5
	c2.4,2.7,6.5,2.9,9.2,0.5l64.7-58.2C151.9,438.7,152.1,434.6,149.7,432z"/>
<path class="st1" d="M125.5,397.8l-1-1.7c-1.8-3.1-5.8-4.2-8.9-2.4l-75.3,43.5c-3.1,1.8-4.2,5.8-2.4,8.9l1,1.7
	c1.8,3.1,5.8,4.2,8.9,2.4l75.3-43.5C126.3,404.9,127.3,400.9,125.5,397.8z"/>
<path class="st1" d="M109,359.4l-0.6-1.9c-1.1-3.4-4.8-5.3-8.2-4.2l-82.7,26.9c-3.4,1.1-5.3,4.8-4.2,8.2l0.6,1.9
	c1.1,3.4,4.8,5.3,8.2,4.2l82.7-26.9C108.3,366.5,110.1,362.8,109,359.4z"/>
<path class="st1" d="M100.8,318.4l-0.2-2c-0.4-3.6-3.6-6.2-7.1-5.8L7,319.7c-3.6,0.4-6.2,3.6-5.8,7.1l0.2,2c0.4,3.6,3.6,6.2,7.1,5.8
	l86.5-9.1C98.6,325.2,101.2,322,100.8,318.4z"/>
<path class="st1" d="M95.8,267.5l-86.5-9.1c-3.6-0.4-6.8,2.2-7.1,5.8l-0.2,2c-0.4,3.6,2.2,6.8,5.8,7.1l86.5,9.1
	c3.6,0.4,6.8-2.2,7.1-5.8l0.2-2C101.9,271.1,99.4,267.9,95.8,267.5z"/>
<path class="st1" d="M107,225.7l-82.7-26.9c-3.4-1.1-7.1,0.8-8.2,4.2l-0.6,1.9c-1.1,3.4,0.8,7.1,4.2,8.2l82.7,26.9
	c3.4,1.1,7.1-0.8,8.2-4.2l0.6-1.9C112.3,230.5,110.4,226.8,107,225.7z"/>
<path class="st1" d="M126.7,187.2l-75.3-43.5c-3.1-1.8-7.1-0.7-8.9,2.4l-1,1.7c-1.8,3.1-0.7,7.1,2.4,8.9l75.3,43.5
	c3.1,1.8,7.1,0.7,8.9-2.4l1-1.7C130.8,193,129.8,189,126.7,187.2z"/>
<path class="st1" d="M153.9,153.7L89.2,95.4c-2.7-2.4-6.8-2.2-9.2,0.5l-1.3,1.5c-2.4,2.7-2.2,6.8,0.5,9.2l64.7,58.2
	c2.7,2.4,6.8,2.2,9.2-0.5l1.3-1.5C156.8,160.2,156.6,156.1,153.9,153.7z"/>
<path class="st1" d="M187.5,126.5l-51.1-70.4c-2.1-2.9-6.2-3.5-9.1-1.4l-1.6,1.2c-2.9,2.1-3.5,6.2-1.4,9.1l51.1,70.4
	c2.1,2.9,6.2,3.5,9.1,1.4l1.6-1.2C189,133.4,189.6,129.4,187.5,126.5z"/>
<path class="st1" d="M226.1,106.9l-35.4-79.5c-1.5-3.3-5.3-4.8-8.6-3.3l-1.8,0.8c-3.3,1.5-4.8,5.3-3.3,8.6l35.4,79.5
	c1.5,3.3,5.3,4.8,8.6,3.3l1.8-0.8C226,114,227.5,110.2,226.1,106.9z"/>
<path class="st1" d="M267.8,95.7l-18.1-85.1c-0.7-3.5-4.2-5.8-7.7-5l-2,0.4c-3.5,0.7-5.8,4.2-5,7.7l18.1,85.1c0.7,3.5,4.2,5.8,7.7,5
	l2-0.4C266.3,102.7,268.6,99.2,267.8,95.7z"/>
</svg>
