<svg id="Layer_1" data-name="Layer 1" xmlns="http://www.w3.org/2000/svg" viewBox="0 0 597.68 600"><title>dial25</title><path d="M303.34,0h-2a6.5,6.5,0,0,0-6.5,6.48v87a6.5,6.5,0,0,0,6.48,6.5h2a6.5,6.5,0,0,0,6.5-6.48V6.5A6.5,6.5,0,0,0,303.36,0Z" transform="translate(-0.01 0)" style="fill:#fff"/><path d="M365.64,7.5l-2-.4a6.5,6.5,0,0,0-7.7,5l-18.1,85.1a6.5,6.5,0,0,0,5,7.7l2,.4a6.5,6.5,0,0,0,7.7-5l18.1-85.1A6.5,6.5,0,0,0,365.64,7.5Z" transform="translate(-0.01 0)" style="fill:#fff"/><path d="M424.94,27.8l-1.8-.8a6.48,6.48,0,0,0-8.57,3.24l0,.06-35.4,79.5a6.48,6.48,0,0,0,3.24,8.57l.06,0,1.8.8a6.48,6.48,0,0,0,8.57-3.24l0-.06,35.4-79.5a6.45,6.45,0,0,0-3.18-8.55Z" transform="translate(-0.01 0)" style="fill:#fff"/><path d="M478.84,59.9l-1.6-1.2a6.53,6.53,0,0,0-9.1,1.4L417,130.5a6.53,6.53,0,0,0,1.4,9.1l1.6,1.2a6.53,6.53,0,0,0,9.1-1.4L480.24,69A6.53,6.53,0,0,0,478.84,59.9Z" transform="translate(-0.01 0)" style="fill:#fff"/><path d="M524.84,102.6l-1.3-1.5a6.5,6.5,0,0,0-9.18-.52l0,0-64.7,58.2a6.5,6.5,0,0,0-.52,9.18l0,0,1.3,1.5a6.5,6.5,0,0,0,9.18.52l0,0,64.7-58.2A6.59,6.59,0,0,0,524.84,102.6Z" transform="translate(-0.01 0)" style="fill:#fff"/><path d="M560.94,153.9l-1-1.7a6.54,6.54,0,0,0-8.9-2.4l-75.3,43.5a6.54,6.54,0,0,0-2.4,8.9l1,1.7a6.54,6.54,0,0,0,8.9,2.4l75.3-43.5A6.54,6.54,0,0,0,560.94,153.9Z" transform="translate(-0.01 0)" style="fill:#fff"/><path d="M585.54,211.6l-.6-1.9a6.55,6.55,0,0,0-8.2-4.2L494,232.4a6.55,6.55,0,0,0-4.2,8.2l.6,1.9a6.55,6.55,0,0,0,8.2,4.2l82.7-26.9a6.47,6.47,0,0,0,4.23-8.11Z" transform="translate(-0.01 0)" style="fill:#fff"/><path d="M597.64,273.1l-.2-2a6.49,6.49,0,0,0-7.1-5.8l-86.5,9.1a6.49,6.49,0,0,0-5.8,7.1l.2,2a6.49,6.49,0,0,0,7.1,5.8l86.5-9.1a6.38,6.38,0,0,0,5.82-6.89C597.65,273.24,597.65,273.17,597.64,273.1Z" transform="translate(-0.01 0)" style="fill:#fff"/><path d="M591.14,326.7l-86.5-9.1a6.38,6.38,0,0,0-7.08,5.59c0,.07,0,.14,0,.21l-.2,2a6.38,6.38,0,0,0,5.59,7.08l.21,0,86.5,9.1a6.38,6.38,0,0,0,7.08-5.59c0-.07,0-.14,0-.21l.2-2A6.49,6.49,0,0,0,591.14,326.7Z" transform="translate(-0.01 0)" style="fill:#fff"/><path d="M579.24,386.9,496.44,360a6.55,6.55,0,0,0-8.2,4.2l-.6,1.9a6.55,6.55,0,0,0,4.2,8.2l82.7,26.9a6.55,6.55,0,0,0,8.2-4.2l.6-1.9a6.4,6.4,0,0,0-4-8.15Z" transform="translate(-0.01 0)" style="fill:#fff"/><path d="M555,443.3l-75.3-43.5a6.54,6.54,0,0,0-8.9,2.4l-1,1.7a6.54,6.54,0,0,0,2.4,8.9l75.3,43.5a6.54,6.54,0,0,0,8.9-2.4l1-1.7A6.54,6.54,0,0,0,555,443.3Z" transform="translate(-0.01 0)" style="fill:#fff"/><path d="M519.64,493.4l-64.7-58.2a6.5,6.5,0,0,0-9.18.48l0,0-1.3,1.5a6.5,6.5,0,0,0,.48,9.18l0,0,64.7,58.2a6.5,6.5,0,0,0,9.18-.48l0,0,1.3-1.5a6.5,6.5,0,0,0-.48-9.18Z" transform="translate(-0.01 0)" style="fill:#fff"/><path d="M474.64,535.1l-51.1-70.4a6.53,6.53,0,0,0-9.1-1.4l-1.6,1.2a6.53,6.53,0,0,0-1.4,9.1l51.1,70.4a6.53,6.53,0,0,0,9.1,1.4l1.6-1.2A6.62,6.62,0,0,0,474.64,535.1Z" transform="translate(-0.01 0)" style="fill:#fff"/><path d="M421.84,566.5,386.54,487a6.48,6.48,0,0,0-8.54-3.33l-.06,0-1.8.8a6.48,6.48,0,0,0-3.33,8.54l0,.06,35.4,79.5a6.48,6.48,0,0,0,8.54,3.33l.06,0,1.8-.8A6.52,6.52,0,0,0,421.84,566.5Z" transform="translate(-0.01 0)" style="fill:#fff"/><path d="M363.74,586.3l-18.1-85.1a6.44,6.44,0,0,0-7.6-5l-.1,0-2,.4a6.44,6.44,0,0,0-5,7.6s0,.07,0,.1L349,589.4a6.44,6.44,0,0,0,7.6,5l.1,0,2-.4a6.48,6.48,0,0,0,5-7.7Z" transform="translate(-0.01 0)" style="fill:#fff"/><path d="M296.34,500h-2a6.5,6.5,0,0,0-6.5,6.48v87a6.5,6.5,0,0,0,6.48,6.5h2a6.5,6.5,0,0,0,6.5-6.48v-87a6.5,6.5,0,0,0-6.48-6.5Z" transform="translate(-0.01 0)" style="fill:#fff"/><path d="M254.84,495.1l-2-.4a6.5,6.5,0,0,0-7.7,5L227,584.8a6.5,6.5,0,0,0,5,7.7l2,.4a6.5,6.5,0,0,0,7.7-5l18.1-85.1A6.56,6.56,0,0,0,254.84,495.1Z" transform="translate(-0.01 0)" style="fill:#fff"/><path d="M215.24,481.7l-1.8-.8a6.48,6.48,0,0,0-8.57,3.24l0,.06-35.4,79.5a6.48,6.48,0,0,0,3.24,8.57l.06,0,1.8.8a6.48,6.48,0,0,0,8.57-3.24l0-.06,35.4-79.5A6.65,6.65,0,0,0,215.24,481.7Z" transform="translate(-0.01 0)" style="fill:#fff"/><path d="M179.24,460.3l-1.6-1.2a6.53,6.53,0,0,0-9.1,1.4L117.44,531a6.53,6.53,0,0,0,1.4,9.1l1.6,1.2a6.53,6.53,0,0,0,9.1-1.4l51.1-70.4a6.55,6.55,0,0,0-1.35-9.16Z" transform="translate(-0.01 0)" style="fill:#fff"/><path d="M148.54,432l-1.3-1.5a6.5,6.5,0,0,0-9.18-.52l0,0-64.7,58.2a6.5,6.5,0,0,0-.52,9.18l0,0,1.3,1.5a6.5,6.5,0,0,0,9.18.52l0,0L148,441.2a6.5,6.5,0,0,0,.51-9.19Z" transform="translate(-0.01 0)" style="fill:#fff"/><path d="M124.34,397.8l-1-1.7a6.54,6.54,0,0,0-8.9-2.4l-75.3,43.5a6.54,6.54,0,0,0-2.4,8.9l1,1.7a6.54,6.54,0,0,0,8.9,2.4l75.3-43.5a6.45,6.45,0,0,0,2.47-8.78Z" transform="translate(-0.01 0)" style="fill:#fff"/><path d="M107.84,359.4l-.6-1.9a6.55,6.55,0,0,0-8.2-4.2l-82.7,26.9a6.55,6.55,0,0,0-4.2,8.2l.6,1.9a6.55,6.55,0,0,0,8.2,4.2l82.7-26.9a6.47,6.47,0,0,0,4.23-8.11Z" transform="translate(-0.01 0)" style="fill:#fff"/><path d="M99.64,318.4l-.2-2a6.49,6.49,0,0,0-7.1-5.8l-86.5,9.1A6.49,6.49,0,0,0,0,326.8l.2,2a6.49,6.49,0,0,0,7.1,5.8l86.5-9.1a6.38,6.38,0,0,0,5.82-6.89C99.65,318.54,99.65,318.47,99.64,318.4Z" transform="translate(-0.01 0)" style="fill:#fff"/><path d="M94.64,267.5l-86.5-9.1A6.38,6.38,0,0,0,1.06,264c0,.07,0,.14,0,.21l-.2,2a6.38,6.38,0,0,0,5.59,7.08l.21,0,86.5,9.1a6.38,6.38,0,0,0,7.08-5.59c0-.07,0-.14,0-.21l.2-2A6.56,6.56,0,0,0,94.64,267.5Z" transform="translate(-0.01 0)" style="fill:#fff"/><path d="M105.84,225.7l-82.7-26.9a6.55,6.55,0,0,0-8.2,4.2l-.6,1.9a6.55,6.55,0,0,0,4.2,8.2l82.7,26.9a6.55,6.55,0,0,0,8.2-4.2l.6-1.9A6.55,6.55,0,0,0,105.84,225.7Z" transform="translate(-0.01 0)" style="fill:#fff"/><path d="M125.54,187.2l-75.3-43.5a6.54,6.54,0,0,0-8.9,2.4l-1,1.7a6.54,6.54,0,0,0,2.4,8.9L118,200.2a6.54,6.54,0,0,0,8.9-2.4l1-1.7A6.63,6.63,0,0,0,125.54,187.2Z" transform="translate(-0.01 0)" style="fill:#7b7b7b"/><path d="M152.74,153.7,88,95.4a6.5,6.5,0,0,0-9.18.48l0,0-1.3,1.5a6.5,6.5,0,0,0,.48,9.18l0,0,64.7,58.2a6.5,6.5,0,0,0,9.18-.48l0,0,1.3-1.5a6.37,6.37,0,0,0-.4-9Z" transform="translate(-0.01 0)" style="fill:#7b7b7b"/><path d="M186.34,126.5l-51.1-70.4a6.53,6.53,0,0,0-9.1-1.4l-1.6,1.2a6.53,6.53,0,0,0-1.4,9.1l51.1,70.4a6.53,6.53,0,0,0,9.1,1.4l1.6-1.2A6.54,6.54,0,0,0,186.34,126.5Z" transform="translate(-0.01 0)" style="fill:#7b7b7b"/><path d="M224.94,106.9l-35.4-79.5A6.48,6.48,0,0,0,181,24.07l-.06,0-1.8.8a6.48,6.48,0,0,0-3.33,8.54l0,.06,35.4,79.5a6.48,6.48,0,0,0,8.54,3.33l.06,0,1.8-.8A6.65,6.65,0,0,0,224.94,106.9Z" transform="translate(-0.01 0)" style="fill:#7b7b7b"/><path d="M266.64,95.7l-18.1-85.1a6.44,6.44,0,0,0-7.6-5l-.1,0-2,.4a6.44,6.44,0,0,0-5,7.6s0,.07,0,.1l18.1,85.1a6.44,6.44,0,0,0,7.6,5l.1,0,2-.4a6.44,6.44,0,0,0,5-7.6S266.65,95.73,266.64,95.7Z" transform="translate(-0.01 0)" style="fill:#7b7b7b"/></svg>