<svg id="Layer_1" data-name="Layer 1" xmlns="http://www.w3.org/2000/svg" width="6060px" height="120px" viewBox="0 0 6060 120"><title>font</title><path d="M30,63.77A10.47,10.47,0,0,1,37,66a7.34,7.34,0,0,1,2.61,5.88,7.59,7.59,0,0,1-2.64,6,10.14,10.14,0,0,1-7,2.32,10.09,10.09,0,0,1-6.88-2.34,7.57,7.57,0,0,1-2.69-6A7.29,7.29,0,0,1,23.1,66,10.25,10.25,0,0,1,30,63.77Zm6.4-39.31L34.52,56.15a3.62,3.62,0,0,1-1.34,2.66,4.8,4.8,0,0,1-3.2,1,4.67,4.67,0,0,1-3.12-1.07,3.63,3.63,0,0,1-1.37-2.64L23.58,24.46v-.39a6,6,0,0,1,1.71-4.54A6.43,6.43,0,0,1,30,17.87a6.55,6.55,0,0,1,4.71,1.61A5.89,5.89,0,0,1,36.38,24Z" style="fill:#fff"/><path d="M79.39,34.37a2.2,2.2,0,0,1-1.75-.61,4.55,4.55,0,0,1-.74-2.41l-1.51-18v-.59a2.54,2.54,0,0,1,.56-1.8,2.14,2.14,0,0,1,1.64-.59h6.54a2.25,2.25,0,0,1,1.71.61,2.48,2.48,0,0,1,.59,1.78v.59l-1.52,18a4.57,4.57,0,0,1-.73,2.41,2.22,2.22,0,0,1-1.76.61Zm18.22,0a2.3,2.3,0,0,1-1.81-.61,4.29,4.29,0,0,1-.68-2.41l-1.52-18v-.59A2.48,2.48,0,0,1,94.19,11a2.25,2.25,0,0,1,1.71-.61h6.49a2.12,2.12,0,0,1,1.66.59,2.58,2.58,0,0,1,.54,1.8v.59l-1.47,18a4.57,4.57,0,0,1-.73,2.41,2.29,2.29,0,0,1-1.8.61Z" style="fill:#fff"/><path d="M140.62,14.94a4.71,4.71,0,0,1,1.25-3.13A4.34,4.34,0,0,1,145,10.74a3.7,3.7,0,0,1,2.81,1.17,4.26,4.26,0,0,1,1.1,3v.39l-1.13,20h6l1.12-20.41a4.27,4.27,0,0,1,1.17-3.13,4.53,4.53,0,0,1,3.23-1.07,3.68,3.68,0,0,1,2.8,1.17,4.22,4.22,0,0,1,1.1,3v.39l-1.12,20h4.83a3,3,0,0,1,2.37.95,4.17,4.17,0,0,1,.81,2.76,4.15,4.15,0,0,1-.81,2.76,3,3,0,0,1-2.37,1h-5.22L161,54h5.9a2.93,2.93,0,0,1,2.37,1,5.09,5.09,0,0,1,0,5.51,2.93,2.93,0,0,1-2.37,1H160.6l-1,19.28a4.5,4.5,0,0,1-1.2,3.13,4.26,4.26,0,0,1-3.1,1.07,3.8,3.8,0,0,1-2.88-1.19,4.37,4.37,0,0,1-1.12-3.11v-.39l1.12-18.79h-6.1l-1,19.28a4.27,4.27,0,0,1-1.17,3.13A4.36,4.36,0,0,1,141,84.86a3.54,3.54,0,0,1-2.81-1.27,4.75,4.75,0,0,1-1.1-3.22v-.2L138,61.38h-5a2.91,2.91,0,0,1-2.37-1,4.34,4.34,0,0,1-.81-2.83,3.94,3.94,0,0,1,.81-2.71A3,3,0,0,1,133,54h5.42l.68-11.18H133a2.93,2.93,0,0,1-2.39-.93,4.16,4.16,0,0,1-.79-2.78,4.17,4.17,0,0,1,.81-2.76,3,3,0,0,1,2.37-.95h6.49Zm6.21,39h6l.59-11.18h-6.11Z" style="fill:#fff"/><path d="M215.53,20.26a23.47,23.47,0,0,1,2.41.54c.83.23,1.72.5,2.67.83A3.86,3.86,0,0,1,222.05,20a4.24,4.24,0,0,1,2.27-.56,4.14,4.14,0,0,1,3.37,1.2q1,1.2,1,4.32l.1,6v.29A4.88,4.88,0,0,1,227.47,35a5.51,5.51,0,0,1-3.93,1.27,4.27,4.27,0,0,1-2.52-.64,7.73,7.73,0,0,1-2-2.73,9.09,9.09,0,0,0-3.49-3.81,9.6,9.6,0,0,0-5-1.32,10.16,10.16,0,0,0-6.25,1.69A5.44,5.44,0,0,0,202.05,34a5.07,5.07,0,0,0,1.32,3.64q1.32,1.39,6,3.29l9.09,3.47q6.74,2.68,9.52,6.18a14.28,14.28,0,0,1,2.78,9.15c0,5.37-1.54,9.49-4.61,12.33s-7.53,4.28-13.36,4.28h-.29l-.64,10.69a4.49,4.49,0,0,1-1.27,3.2,5.2,5.2,0,0,1-3.51,1,3.93,3.93,0,0,1-2.91-.93,4.33,4.33,0,0,1-.9-3.08v-.78l.73-11.33a21.59,21.59,0,0,1-3.32-.85,26.15,26.15,0,0,1-3.42-1.44,4.31,4.31,0,0,1-1.63,1.39,6.55,6.55,0,0,1-2.66.42c-1.76,0-3-.43-3.62-1.3s-1-2.43-1-4.71V62.74a7.22,7.22,0,0,1,1.17-4.59,4.56,4.56,0,0,1,3.71-1.41c2.54,0,4.31,1.36,5.32,4.1.26.68.46,1.19.59,1.51A7.88,7.88,0,0,0,203.37,66a17,17,0,0,0,7.08,1.39,8.75,8.75,0,0,0,5.64-1.64,5.54,5.54,0,0,0,2-4.56q0-3.91-8.5-7.18l-.29-.1-9-3.51a16.53,16.53,0,0,1-8-5.74,15.45,15.45,0,0,1-2.63-9.16q0-7.32,4.27-11.3t12.72-4.47l.39-3.9a4.2,4.2,0,0,1,1.32-3,4.67,4.67,0,0,1,3.17-1,4.93,4.93,0,0,1,3.17.91,3.09,3.09,0,0,1,1.13,2.56V16Z" style="fill:#fff"/><path d="M264.45,15.87a14.41,14.41,0,0,1,10.23,3.81,12.4,12.4,0,0,1,4.08,9.47,12.42,12.42,0,0,1-4.08,9.5,15.89,15.89,0,0,1-20.55,0,12.39,12.39,0,0,1-4.08-9.52,12.41,12.41,0,0,1,4.08-9.5A14.58,14.58,0,0,1,264.45,15.87Zm23,28.66L254.64,57.66a3.64,3.64,0,0,1-.71.22,3.51,3.51,0,0,1-.71.08,2.52,2.52,0,0,1-2.05-1.05,3.88,3.88,0,0,1-.83-2.47,2.48,2.48,0,0,1,.56-1.51,3.35,3.35,0,0,1,1.44-1.08l32.72-13a2.94,2.94,0,0,1,.73-.22,3.88,3.88,0,0,1,.73-.08,2.68,2.68,0,0,1,2.1.93,3.35,3.35,0,0,1,.83,2.34,2.57,2.57,0,0,1-.56,1.59A3.14,3.14,0,0,1,287.45,44.53Zm-23-21.39a6.81,6.81,0,0,0-4.78,1.66,5.62,5.62,0,0,0-1.81,4.35,5.47,5.47,0,0,0,1.81,4.27,6.85,6.85,0,0,0,4.78,1.64,6.71,6.71,0,0,0,4.72-1.64A5.55,5.55,0,0,0,271,29.15a5.63,5.63,0,0,0-1.83-4.3A6.57,6.57,0,0,0,264.45,23.14Zm11.18,30.91a14.37,14.37,0,0,1,10.23,3.81,13.18,13.18,0,0,1,.05,19,14.41,14.41,0,0,1-10.28,3.78,14.59,14.59,0,0,1-10.32-3.78,13.1,13.1,0,0,1,0-19A14.56,14.56,0,0,1,275.63,54.05Zm0,7.42a6.93,6.93,0,0,0-4.78,1.61A5.41,5.41,0,0,0,269,67.33a5.47,5.47,0,0,0,1.81,4.3,6.93,6.93,0,0,0,4.78,1.61,6.67,6.67,0,0,0,4.72-1.64,5.55,5.55,0,0,0,1.78-4.27,5.42,5.42,0,0,0-1.81-4.22A6.72,6.72,0,0,0,275.63,61.47Z" style="fill:#fff"/><path d="M336.72,26a10.58,10.58,0,0,1,1.17-.26,5,5,0,0,1,.83-.08,3.28,3.28,0,0,1,2.61,1.25A4.72,4.72,0,0,1,342.38,30a6.64,6.64,0,0,1-1.63,4.42,4.76,4.76,0,0,1-3.64,1.93c-.91,0-2.39-.61-4.42-1.81a10.47,10.47,0,0,0-4.91-1.81,4.06,4.06,0,0,0-2.83,1,3.37,3.37,0,0,0-1.07,2.64q0,2,2.1,5a6.69,6.69,0,0,1,.63.78l11.67,16.4c.39-1.14.83-2.63,1.32-4.49q1.56-6.11,5.42-6.1h3.76a3.13,3.13,0,0,1,2.56,1.36,5.48,5.48,0,0,1,1.05,3.42,5,5,0,0,1-1.07,3.44,5.72,5.72,0,0,1-3.42,1.59,28.67,28.67,0,0,1-1.37,5,21.72,21.72,0,0,1-2.24,4.37l2.49,3h.83a4.18,4.18,0,0,1,3.12,1.1,4.39,4.39,0,0,1,1.08,3.2,4.34,4.34,0,0,1-1.3,3.39,5.29,5.29,0,0,1-3.73,1.2h-3.86a6.8,6.8,0,0,1-2.42-.32,3.16,3.16,0,0,1-1.39-1.1l-1.51-2a25,25,0,0,1-7.18,3.69,25.81,25.81,0,0,1-8.11,1.34c-4.9,0-8.89-1.42-12-4.27a14.22,14.22,0,0,1-4.65-11,17.88,17.88,0,0,1,2.56-9.57,28.34,28.34,0,0,1,8.38-8.11l-2.68-4.29a14,14,0,0,1-1.69-3.84,15.3,15.3,0,0,1-.61-4.17,11.31,11.31,0,0,1,4-9.18q4-3.33,11.11-3.32a18,18,0,0,1,5.25.71A17.64,17.64,0,0,1,336.72,26Zm-14.21,29.5a11.44,11.44,0,0,0-3.64,3.34,7.36,7.36,0,0,0-1.19,4.13,7,7,0,0,0,2.12,5.22,7.24,7.24,0,0,0,5.3,2.1,8.64,8.64,0,0,0,3.17-.63,15.89,15.89,0,0,0,3.42-2Z" style="fill:#fff"/><path d="M388.57,34.37a2.27,2.27,0,0,1-1.8-.61,4.57,4.57,0,0,1-.73-2.41l-1.47-18v-.59a2.48,2.48,0,0,1,.59-1.78,2.25,2.25,0,0,1,1.71-.61h6.39A2.25,2.25,0,0,1,395,11a2.48,2.48,0,0,1,.59,1.78v.59l-1.52,18a4.29,4.29,0,0,1-.68,2.41,2.3,2.3,0,0,1-1.81.61Z" style="fill:#fff"/><path d="M462.74,19.33a2.22,2.22,0,0,1,1.66.71,2.34,2.34,0,0,1,.69,1.69q0,1-2.35,5c-1.14,1.88-2,3.45-2.68,4.68a64.33,64.33,0,0,0-5.71,13.92A52.45,52.45,0,0,0,452.59,59,53.83,53.83,0,0,0,454,71.38a56.86,56.86,0,0,0,4.35,12q1.56,3.08,4.15,7.49c1.72,3,2.59,4.78,2.59,5.5a2.21,2.21,0,0,1-.66,1.63,2.11,2.11,0,0,1-1.54.66A8.35,8.35,0,0,1,458.47,97a29.75,29.75,0,0,1-5.39-4.83,53.65,53.65,0,0,1-10-15.73,46.24,46.24,0,0,1-.61-33.17,52.32,52.32,0,0,1,8.35-14.58,42.85,42.85,0,0,1,6.72-6.91Q460.59,19.34,462.74,19.33Z" style="fill:#fff"/><path d="M495.17,21.73a2.33,2.33,0,0,1,.68-1.69,2.16,2.16,0,0,1,1.61-.71q2.21,0,5.35,2.42a41.67,41.67,0,0,1,6.76,6.91,51.12,51.12,0,0,1,8.3,14.5,46.66,46.66,0,0,1-.58,33.25,53.54,53.54,0,0,1-10,15.73A29.22,29.22,0,0,1,501.86,97a8.69,8.69,0,0,1-4.5,1.68,2.08,2.08,0,0,1-1.53-.66,2.21,2.21,0,0,1-.66-1.63c0-.72.79-2.38,2.39-5q1.76-2.89,2.73-4.69A64.7,64.7,0,0,0,506,72.75,53.09,53.09,0,0,0,507.76,59a54.07,54.07,0,0,0-1.41-12.4,56.23,56.23,0,0,0-4.35-12q-1.61-3.22-4.22-7.55T495.17,21.73Z" style="fill:#fff"/><path d="M573.29,36.57l12.4-5.42a4,4,0,0,1,.66-.24,1.6,1.6,0,0,1,.42-.05,1,1,0,0,1,.78.36,6.64,6.64,0,0,1,.73,1.64L589.6,37a6.77,6.77,0,0,1,.29,1,3.45,3.45,0,0,1,.1.71.88.88,0,0,1-.37.73,2.55,2.55,0,0,1-1.14.44l-13.19,2.83,9,10.16a3.12,3.12,0,0,1,.53.71,1.5,1.5,0,0,1,.2.71c0,.16-.15.38-.44.66a13.33,13.33,0,0,1-1.17,1L580,58.35a5.13,5.13,0,0,1-1,.66,2.21,2.21,0,0,1-.79.22,1,1,0,0,1-.63-.3,3,3,0,0,1-.64-.78l-6.83-11.62-6.79,11.62a2.91,2.91,0,0,1-.66.83,1,1,0,0,1-.61.25,1.9,1.9,0,0,1-.8-.27,8.07,8.07,0,0,1-1.1-.71l-3.42-2.49a7.79,7.79,0,0,1-1.15-.93,1.1,1.1,0,0,1-.36-.68,1.48,1.48,0,0,1,.19-.71,3.11,3.11,0,0,1,.54-.71l9.08-10-13.18-2.93a2.92,2.92,0,0,1-1.2-.46.88.88,0,0,1-.41-.71,4.92,4.92,0,0,1,.09-.76,7.62,7.62,0,0,1,.3-1l1.41-4v-.1c.46-1.27.91-1.9,1.37-1.9a2.66,2.66,0,0,1,.61.07,2.79,2.79,0,0,1,.61.22l12.21,5.62-1.42-13.63v-.49a1.3,1.3,0,0,1,.49-1.19,4.14,4.14,0,0,1,2-.32h4.3a4,4,0,0,1,2,.32,1.3,1.3,0,0,1,.49,1.19v.49Z" style="fill:#fff"/><path d="M635.21,43.26h16.21a5.3,5.3,0,0,1,3.78,1.39,5.09,5.09,0,0,1,0,7.2,5.23,5.23,0,0,1-3.78,1.42H635.21V70.16A5.24,5.24,0,0,1,633.76,74a4.9,4.9,0,0,1-3.68,1.49,4.78,4.78,0,0,1-3.59-1.56A5.23,5.23,0,0,1,625,70.16V53.27H608.79A5.27,5.27,0,0,1,605,51.85a5,5,0,0,1,0-7.13,5.25,5.25,0,0,1,3.74-1.46H625V26.37a5.33,5.33,0,0,1,1.42-3.84,5.23,5.23,0,0,1,7.34,0,5.32,5.32,0,0,1,1.45,3.81Z" style="fill:#fff"/><path d="M687.6,62.16h11.62a2.26,2.26,0,0,1,1.24.29.89.89,0,0,1,.47.78,2,2,0,0,1-.12.61c-.09.24-.19.51-.32.81l-14.6,28.61a3,3,0,0,1-1,1.24,2.12,2.12,0,0,1-1.88.4l-.51-.13-3.71-1.31a2.91,2.91,0,0,1-1.27-.81,1.68,1.68,0,0,1-.44-1.1c0-.36,0-.63,0-.8a4,4,0,0,1,.08-.52l6.93-25.39a3.88,3.88,0,0,1,1.15-2.17A4,4,0,0,1,687.6,62.16Z" style="fill:#fff"/><path d="M729.74,51h40.47a2.49,2.49,0,0,1,1.79.59,2.29,2.29,0,0,1,.61,1.71v6.1a2.7,2.7,0,0,1-.76,1.86,2.21,2.21,0,0,1-1.64.83H729.74a1.84,1.84,0,0,1-1.54-.73,3.11,3.11,0,0,1-.56-2v-6.1a2.35,2.35,0,0,1,.58-1.66A2,2,0,0,1,729.74,51Z" style="fill:#fff"/><path d="M810.11,61.38a10.59,10.59,0,0,1,7.39,2.53,9.23,9.23,0,0,1,0,13.26,11.86,11.86,0,0,1-14.72,0,9.15,9.15,0,0,1,0-13.23A10.5,10.5,0,0,1,810.11,61.38Z" style="fill:#fff"/><path d="M889.84,18.36,861.23,79.64a14.36,14.36,0,0,1-2.44,4,3.61,3.61,0,0,1-2.64,1.12,6.13,6.13,0,0,1-4-1.41,4.4,4.4,0,0,1-1.73-3.52,12.47,12.47,0,0,1,1.32-4.39l.1-.2,28.56-61.18a14.91,14.91,0,0,1,2.49-4.1,3.61,3.61,0,0,1,2.64-1.12,6.15,6.15,0,0,1,4,1.41,4.37,4.37,0,0,1,1.76,3.52,6.63,6.63,0,0,1-.29,1.85A21.26,21.26,0,0,1,889.84,18.36Z" style="fill:#fff"/><path d="M930,15.87a21.16,21.16,0,0,1,17.82,8.71q6.6,8.72,6.59,23.66T947.85,72A21.16,21.16,0,0,1,930,80.66,20.88,20.88,0,0,1,912.38,72q-6.52-8.72-6.52-23.71t6.52-23.68A20.88,20.88,0,0,1,930,15.87Zm.1,11q-5.18,0-8.18,5.67t-3,15.62q0,10.11,3,15.8t8.21,5.69q5.22,0,8.22-5.69t3-15.8q0-10-3-15.62T930.13,26.85Z" style="fill:#fff"/><path d="M997.56,68.65h7.91a7.42,7.42,0,0,1,4.74,1.22,5,5,0,0,1,1.46,4,4.93,4.93,0,0,1-1.42,4c-.94.81-2.54,1.22-4.78,1.22H976.66c-2.25,0-3.84-.41-4.78-1.22a4.93,4.93,0,0,1-1.42-4,5,5,0,0,1,1.44-4c1-.81,2.55-1.22,4.76-1.22h9.08V27.44l-5.47,1.42c-.84.19-1.54.34-2.1.43a7.63,7.63,0,0,1-1.22.15,3.87,3.87,0,0,1-3.1-1.27,5.35,5.35,0,0,1-1.1-3.61A3.85,3.85,0,0,1,974,21.68a8.3,8.3,0,0,1,3.76-1.81l12.11-3.32c1-.26,1.84-.45,2.49-.59a8.49,8.49,0,0,1,1.62-.19,3.33,3.33,0,0,1,2.78,1.07,6.07,6.07,0,0,1,.83,3.62Z" style="fill:#fff"/><path d="M1043.7,68.06h17.09v-.29a4.8,4.8,0,0,1,1.34-3.71,5.78,5.78,0,0,1,4-1.22,4.43,4.43,0,0,1,3.32,1.2,4.63,4.63,0,0,1,1.18,3.39v.63l-.4,7.57c-.06,1.5-.3,2.44-.71,2.83a3.08,3.08,0,0,1-2.18.59h-35.14a6.89,6.89,0,0,1-4.37-1.22,4.16,4.16,0,0,1-1.54-3.47,7.66,7.66,0,0,1,1-3.63,15.8,15.8,0,0,1,3-3.79l19.88-19.19A24.12,24.12,0,0,0,1055,41.5a13.76,13.76,0,0,0,1.58-6.25q0-4.39-2.12-6.54c-1.42-1.43-3.57-2.15-6.47-2.15a12.49,12.49,0,0,0-4.52.76,6.88,6.88,0,0,0-3,2.12,16.4,16.4,0,0,0-1.42,2.1q-2.34,3.81-5.17,3.81a4.39,4.39,0,0,1-3.69-1.61,7.76,7.76,0,0,1-1.24-4.79,11.68,11.68,0,0,1,.78-4.88,9,9,0,0,1,3.12-3.22,28.84,28.84,0,0,1,8-3.76,32.55,32.55,0,0,1,9.15-1.22q9.24,0,14.65,5T1070,34.23A22.19,22.19,0,0,1,1067.21,45a38.28,38.28,0,0,1-8.71,10.28Z" style="fill:#fff"/><path d="M1119.09,45.55a15.67,15.67,0,0,1,8.35,5.55,16.42,16.42,0,0,1,2.74,9.84q0,9.12-6.18,14.47t-16.82,5.35q-8.6,0-14.21-2.83T1087.35,71a5.18,5.18,0,0,1,1.54-3.88,5.64,5.64,0,0,1,4.08-1.49q1.21,0,6.2,2.2a22.35,22.35,0,0,0,8.79,2.2q4.59,0,7-2.47t2.47-7.06c0-3.28-.69-5.63-2.07-7s-4-2.18-7.94-2.34c-2-.06-3.43-.46-4.13-1.2s-1-2-1-3.93q0-3.9,4.2-4.49a7.82,7.82,0,0,0,.88-.1c3.52-.49,5.8-1.32,6.84-2.51s1.56-3.12,1.56-5.79a7.4,7.4,0,0,0-1.88-5.39,7,7,0,0,0-5.3-1.93,18.16,18.16,0,0,0-8.1,2.27c-3,1.51-5.06,2.27-6.2,2.27a3.94,3.94,0,0,1-3-1.25,4.45,4.45,0,0,1-1.15-3.15q0-4.14,5.76-7.12t14.21-3q8.49,0,13.55,4.39a14.69,14.69,0,0,1,5.05,11.67,13.64,13.64,0,0,1-2.32,8.08A17.26,17.26,0,0,1,1119.09,45.55Z" style="fill:#fff"/><path d="M1183.2,54.64l.3.07a2.91,2.91,0,0,0,.48,0,3.52,3.52,0,0,0,2.25-1.24,3.5,3.5,0,0,1,2.15-1.25,4.78,4.78,0,0,1,3.22,1,3.48,3.48,0,0,1,1.17,2.8,7.43,7.43,0,0,1-.07,1,5.14,5.14,0,0,1-.22,1l-1.07,3.62a2.73,2.73,0,0,1-1,1.51,2.93,2.93,0,0,1-1.76.49h-5.47v6.1h2.88c.3,0,.67,0,1.13,0s.75.05.88.05a3.9,3.9,0,0,1,3,1.3,4.58,4.58,0,0,1,1.23,3.29,4.12,4.12,0,0,1-1.45,3.52c-1,.71-2.54,1.07-4.76,1.07h-20.6c-2.22,0-3.79-.36-4.71-1.07a4.17,4.17,0,0,1-1.39-3.52,4.27,4.27,0,0,1,1.41-3.59c.94-.73,2.51-1.1,4.69-1.1h7.13v-6.1H1150.1a2.38,2.38,0,0,1-1.93-.78,3.39,3.39,0,0,1-.66-2.25v-3a11.24,11.24,0,0,1,.27-2.8,9.39,9.39,0,0,1,.9-2.13l20.51-34.86a4.84,4.84,0,0,1,1.2-1.51,2.34,2.34,0,0,1,1.29-.3c.29,0,.54,0,.76,0a4.27,4.27,0,0,1,.56.07l8.69,1.51a1.63,1.63,0,0,1,1.12.79,3.22,3.22,0,0,1,.39,1.7Zm-10.59-27-15.33,27h15.33Z" style="fill:#fff"/><path d="M1221.29,28.37V39.65a50.5,50.5,0,0,1,5.76-1.37,29.36,29.36,0,0,1,4.83-.44q8.79,0,14.21,5.79t5.42,15.21q0,10.64-6.64,16.23t-19.28,5.59q-9.09,0-13.8-2t-4.71-5.91a5.54,5.54,0,0,1,1.66-4,5.38,5.38,0,0,1,4-1.68,28.39,28.39,0,0,1,6.12,1.42,29,29,0,0,0,8.08,1.41q5.52,0,8.55-2.86t3-8.08a11.26,11.26,0,0,0-2.86-8.08,10.17,10.17,0,0,0-7.74-3,18.21,18.21,0,0,0-7.42,2c-2.87,1.34-4.82,2-5.86,2a4.69,4.69,0,0,1-4-1.53q-1.17-1.55-1.17-5.25V21.43c0-1.75.24-2.86.71-3.32a3.47,3.47,0,0,1,2.42-.68h32c2,0,3.43.4,4.22,1.2s1.2,2.23,1.2,4.32-.39,3.46-1.17,4.25-2.2,1.17-4.25,1.17Z" style="fill:#fff"/><path d="M1280.81,44.53a16.26,16.26,0,0,1,5.71-4.13A17.65,17.65,0,0,1,1293.6,39a17.14,17.14,0,0,1,13.24,6,21.38,21.38,0,0,1,5.37,14.82q0,9.33-6,15.07t-16,5.73q-10.37,0-16.31-7.54t-6-20.78q0-16.4,9.2-26.39t24.39-10a22.46,22.46,0,0,1,7.28.83,2.87,2.87,0,0,1,2.2,2.73c0,3-2.3,4.58-6.89,4.84q-2.88.19-4.59.39a18.81,18.81,0,0,0-12.13,5.61Q1282.86,35.06,1280.81,44.53Zm19,16a11.54,11.54,0,0,0-2.63-7.83,8.55,8.55,0,0,0-6.79-3.05,8.66,8.66,0,0,0-6.69,3,10.65,10.65,0,0,0-2.68,7.45,11.39,11.39,0,0,0,2.75,7.91,9.07,9.07,0,0,0,7.06,3.07,8.15,8.15,0,0,0,6.47-2.9A11.18,11.18,0,0,0,1299.8,60.54Z" style="fill:#fff"/><path d="M1367.63,22.65l-15.82,55a3.32,3.32,0,0,1-1,1.74,3.1,3.1,0,0,1-1.85.46h-9a1.67,1.67,0,0,1-1.17-.44,1.32,1.32,0,0,1-.49-1,7.06,7.06,0,0,1,0-1,2.26,2.26,0,0,1,.15-.57l17.48-48.48h-21l-.19.88a4,4,0,0,1-1.49,2.61,4.63,4.63,0,0,1-3,1,4.25,4.25,0,0,1-3-.93,3.81,3.81,0,0,1-1-2.88c0-.13,0-.32,0-.59a5.78,5.78,0,0,0,0-.63l.88-7.57a3,3,0,0,1,1-2.1,3.47,3.47,0,0,1,2.3-.73H1365a2.71,2.71,0,0,1,2,.61,2.67,2.67,0,0,1,.61,1.93Z" style="fill:#fff"/><path d="M1421.34,47.46a18,18,0,0,1,8.49,5.91,14.52,14.52,0,0,1,3,9.08,16.12,16.12,0,0,1-6.25,13.13q-6.24,5.08-16.35,5.08-9.92,0-16.24-5.08a15.85,15.85,0,0,1-6.32-12.94,14.84,14.84,0,0,1,3-9.2,18.38,18.38,0,0,1,8.5-6,19.8,19.8,0,0,1-8.08-5.91,13.46,13.46,0,0,1-2.71-8.4,15.19,15.19,0,0,1,6.13-12.4q6.12-4.87,15.75-4.88T1426,20.8a15.19,15.19,0,0,1,6.2,12.35,13.52,13.52,0,0,1-2.76,8.45A19.32,19.32,0,0,1,1421.34,47.46Zm-11.13,5.37a10.31,10.31,0,0,0-7.23,2.49,8.55,8.55,0,0,0-2.74,6.64,8.46,8.46,0,0,0,2.79,6.52,10.17,10.17,0,0,0,7.18,2.56,10.38,10.38,0,0,0,7.27-2.49,8.48,8.48,0,0,0,2.73-6.59,8.49,8.49,0,0,0-2.78-6.59A10.3,10.3,0,0,0,1410.21,52.83Zm0-27.78a9.69,9.69,0,0,0-6.79,2.44,8,8,0,0,0-2.69,6.15,7.94,7.94,0,0,0,2.69,6.15,10.83,10.83,0,0,0,13.6.08,8,8,0,0,0,2.61-6.23,8,8,0,0,0-2.64-6.15A9.58,9.58,0,0,0,1410.21,25.05Z" style="fill:#fff"/><path d="M1479.15,52a16,16,0,0,1-5.66,4.15,17.43,17.43,0,0,1-7.13,1.47,17.11,17.11,0,0,1-13.24-6,21.39,21.39,0,0,1-5.37-14.79q0-9.33,6-15.07t16-5.74q10.35,0,16.33,7.55t6,20.73q0,16.45-9.23,26.44t-24.36,10a22.28,22.28,0,0,1-7.33-.85,2.9,2.9,0,0,1-2.19-2.76q0-4.44,6.88-4.79,2.93-.2,4.74-.39c5.14-.62,9.18-2.49,12.13-5.64S1477.78,58.33,1479.15,52ZM1479,36.47a11.44,11.44,0,0,0-2.76-8,9.12,9.12,0,0,0-7.06-3,8.15,8.15,0,0,0-6.49,2.9,11.28,11.28,0,0,0-2.49,7.6,11.65,11.65,0,0,0,2.63,7.88,8.5,8.5,0,0,0,6.74,3,8.72,8.72,0,0,0,6.74-2.95A10.65,10.65,0,0,0,1479,36.47Z" style="fill:#fff"/><path d="M1530.22,35.35a10.52,10.52,0,0,1,7.35,2.51,8.48,8.48,0,0,1,2.76,6.57,8.79,8.79,0,0,1-2.78,6.74,11.62,11.62,0,0,1-14.65,0,8.73,8.73,0,0,1-2.83-6.72,8.39,8.39,0,0,1,2.81-6.57A10.61,10.61,0,0,1,1530.22,35.35Zm0,26a10.65,10.65,0,0,1,7.4,2.51,8.42,8.42,0,0,1,2.81,6.57,8.71,8.71,0,0,1-2.81,6.69,10.51,10.51,0,0,1-7.4,2.58,10.38,10.38,0,0,1-7.32-2.61,8.65,8.65,0,0,1-2.83-6.66,8.4,8.4,0,0,1,2.83-6.55A10.56,10.56,0,0,1,1530.22,61.38Z" style="fill:#fff"/><path d="M1587.74,62.16h11.63a2.26,2.26,0,0,1,1.24.29.88.88,0,0,1,.46.78,2,2,0,0,1-.12.61c-.08.24-.19.51-.32.81L1586,93.26a3,3,0,0,1-1,1.24,2.37,2.37,0,0,1-1.42.47,2.24,2.24,0,0,1-.46-.07l-.51-.13L1579,93.46a2.91,2.91,0,0,1-1.27-.81,1.63,1.63,0,0,1-.44-1.1c0-.36,0-.63,0-.8s0-.36.07-.52l6.94-25.39a3.88,3.88,0,0,1,1.14-2.17A4.09,4.09,0,0,1,1587.74,62.16Zm2.2-26.81a10.7,10.7,0,0,1,7.4,2.51,8.42,8.42,0,0,1,2.81,6.57,8.74,8.74,0,0,1-2.81,6.74,10.47,10.47,0,0,1-7.4,2.59,10.33,10.33,0,0,1-7.3-2.59,8.74,8.74,0,0,1-2.81-6.74,8.42,8.42,0,0,1,2.81-6.54A10.48,10.48,0,0,1,1589.94,35.35Z" style="fill:#fff"/><path d="M1639.26,48.24,1671,63.33a11.38,11.38,0,0,1,3.76,2.51,4.43,4.43,0,0,1,1.08,3,4.49,4.49,0,0,1-1.27,3.32,4.59,4.59,0,0,1-3.37,1.27,7,7,0,0,1-1.93-.3,18.56,18.56,0,0,1-2.56-1l-38.48-17.73a8.75,8.75,0,0,0-.93-.39c-3.45-1.59-5.17-3.47-5.17-5.61s1.8-4.11,5.42-5.77l.39-.24,38.77-18.07a25.38,25.38,0,0,1,2.88-1.14,5.87,5.87,0,0,1,1.61-.27,4.55,4.55,0,0,1,3.37,1.27,4.46,4.46,0,0,1,1.27,3.32,4.57,4.57,0,0,1-1.1,3.05,11.34,11.34,0,0,1-3.74,2.56Z" style="fill:#fff"/><path d="M1688.48,35.06h43.7a4.15,4.15,0,0,1,3.29,1.34,5.26,5.26,0,0,1,1.2,3.64,5.31,5.31,0,0,1-1.2,3.68,4.15,4.15,0,0,1-3.29,1.35h-43.7a4.34,4.34,0,0,1-3.35-1.35,5.19,5.19,0,0,1-1.24-3.68,5.13,5.13,0,0,1,1.24-3.64A4.33,4.33,0,0,1,1688.48,35.06Zm0,16.4h43.7a4.21,4.21,0,0,1,3.27,1.35,5.19,5.19,0,0,1,1.22,3.63,5.32,5.32,0,0,1-1.2,3.69,4.15,4.15,0,0,1-3.29,1.34h-43.7a4.31,4.31,0,0,1-3.35-1.36,5.26,5.26,0,0,1-1.24-3.67,5.16,5.16,0,0,1,1.24-3.61A4.32,4.32,0,0,1,1688.48,51.46Z" style="fill:#fff"/><path d="M1781.4,48.24l-31.84-15.09a11.48,11.48,0,0,1-3.69-2.56,4.56,4.56,0,0,1-1.09-3.05,4.55,4.55,0,0,1,1.22-3.32,4.3,4.3,0,0,1,3.27-1.27,6.25,6.25,0,0,1,1.78.29,26,26,0,0,1,2.86,1.12l38.67,18.07.39.24q5.41,2.49,5.42,5.77t-5.23,5.61a3.48,3.48,0,0,1-.78.39l-38.62,17.73a17.34,17.34,0,0,1-2.51,1,7.28,7.28,0,0,1-2,.3,4.36,4.36,0,0,1-3.27-1.25,4.53,4.53,0,0,1-1.22-3.34,4.46,4.46,0,0,1,1-3,11,11,0,0,1,3.73-2.51Z" style="fill:#fff"/><path d="M1831.69,52.83v3.81a3.82,3.82,0,0,1-1.44,3.15,7.43,7.43,0,0,1-7.91,0,3.68,3.68,0,0,1-1.44-3.07V53.86a10,10,0,0,1,1.19-5.42,12.15,12.15,0,0,1,4.52-3.57c.72-.39,1.77-.93,3.18-1.61q7.41-3.57,7.42-8.59a7.06,7.06,0,0,0-2.4-5.64,9.6,9.6,0,0,0-6.54-2.08,14.16,14.16,0,0,0-5.35.71,3.9,3.9,0,0,0-2,3c-.43,1.89-1,3.13-1.76,3.71a5.38,5.38,0,0,1-3.37.88,3.89,3.89,0,0,1-3.1-1.15,5.41,5.41,0,0,1-1-3.63v-6.2q0-2.68,5.47-4.55a42,42,0,0,1,13.33-1.85q8.94,0,14.09,4.64t5.15,12.64A14.75,14.75,0,0,1,1845,46.07Q1840.38,50.63,1831.69,52.83Zm-5.18,11.43a10.71,10.71,0,0,1,6.94,2.12,7.23,7.23,0,0,1,0,11.18,12,12,0,0,1-13.79,0,7.26,7.26,0,0,1,0-11.18A10.62,10.62,0,0,1,1826.51,64.26Z" style="fill:#fff"/><path d="M1901.22,60.64a24.55,24.55,0,0,1-4.37,1.52,18.25,18.25,0,0,1-4.13.48,9.81,9.81,0,0,1-7.88-3.8,14.68,14.68,0,0,1-3.15-9.67q0-7.28,4.32-11.5t11.79-4.22c.2,0,.48,0,.86,0a8,8,0,0,0,.85,0c0-4-.74-7-2.22-9.23A7.14,7.14,0,0,0,1891,21q-6.36,0-9.89,6.81t-3.54,19.22q0,13.92,4.1,21a13.15,13.15,0,0,0,12.11,7.13,18.16,18.16,0,0,0,5.08-.85,18.68,18.68,0,0,1,3.61-.86,2.41,2.41,0,0,1,2.08,1.08,5,5,0,0,1,.75,2.93,5.29,5.29,0,0,1-3.1,4.76A17.64,17.64,0,0,1,1893.7,84q-13.08,0-20-9.28t-6.86-27q0-16.84,6.55-26.17t18.26-9.33q9.57,0,13.94,5.59t4.37,17.9V54.05a10.35,10.35,0,0,1,1.9,2.44,4.85,4.85,0,0,1,.59,2.25,3.89,3.89,0,0,1-1.39,3.07,5.08,5.08,0,0,1-3.49,1.23,7.81,7.81,0,0,1-2.62-.57A26.08,26.08,0,0,1,1901.22,60.64Zm-1.71-7.18V41.06l-.66-.07c-.21,0-.53,0-.95,0a7.23,7.23,0,0,0-5.4,2.08,7.51,7.51,0,0,0-2,5.49,6.31,6.31,0,0,0,1.37,4.37,4.86,4.86,0,0,0,3.85,1.54,6.46,6.46,0,0,0,1.57-.24C1897.88,54,1898.63,53.79,1899.51,53.46Z" style="fill:#fff"/><path d="M1972.08,68.36h.75a4.73,4.73,0,0,1,3.64,1.34,5.65,5.65,0,0,1,1.24,3.93,5.6,5.6,0,0,1-1.31,4.15c-.87.85-2.31,1.27-4.32,1.27h-13.35c-2,0-3.49-.41-4.34-1.24s-1.29-2.23-1.29-4.18a5.38,5.38,0,0,1,1.29-4c.85-.82,2.3-1.22,4.34-1.22h1.55l-1.81-5.72h-19.15l-1.91,5.72H1939c2,0,3.45.41,4.32,1.24a5.38,5.38,0,0,1,1.31,4,5.6,5.6,0,0,1-1.31,4.15c-.87.85-2.31,1.27-4.32,1.27h-11.44c-2,0-3.49-.42-4.34-1.27a5.64,5.64,0,0,1-1.29-4.15,5.65,5.65,0,0,1,1.24-3.93,4.73,4.73,0,0,1,3.64-1.34h.75l11.88-36.43h-3.54c-2,0-3.45-.42-4.33-1.27a5.51,5.51,0,0,1-1.3-4.1,5.61,5.61,0,0,1,1.3-4.15c.88-.85,2.32-1.27,4.33-1.27h16.62q3.94,0,5.54,4.69V26Zm-23.23-36.43-6.43,20.61h12.85Z" style="fill:#fff"/><path d="M2026.71,48.34a16.3,16.3,0,0,1,7.81,5.34,14.31,14.31,0,0,1,2.49,8.67,15.77,15.77,0,0,1-2.15,8.11,16.72,16.72,0,0,1-6.15,6,17.27,17.27,0,0,1-5.25,2,42.23,42.23,0,0,1-8.23.61h-25.48c-2.15,0-3.69-.42-4.62-1.27a5.37,5.37,0,0,1-1.39-4.15,5.36,5.36,0,0,1,1.33-3.93,5.26,5.26,0,0,1,3.89-1.34h.83V31.93H1989a5.15,5.15,0,0,1-3.89-1.37,5.49,5.49,0,0,1-1.33-4,5.34,5.34,0,0,1,1.42-4.13q1.41-1.29,4.59-1.29h22.46q10.3,0,15.65,4t5.34,11.72a13.48,13.48,0,0,1-1.63,6.72A12.71,12.71,0,0,1,2026.71,48.34Zm-24.9-16.7v12.3h6.59c4,0,6.83-.47,8.47-1.41a5.09,5.09,0,0,0,2.47-4.79,5.17,5.17,0,0,0-2.23-4.64q-2.22-1.45-7.2-1.46Zm0,22.12V68.65h7.32q7.77,0,10.94-1.71a6,6,0,0,0,3.17-5.71q0-4-3-5.76c-2-1.14-5.55-1.71-10.59-1.71Z" style="fill:#fff"/><path d="M2085.64,22.75a7.43,7.43,0,0,1,2-2.49,4.3,4.3,0,0,1,2.58-.73,4.08,4.08,0,0,1,3.4,1.27,7.21,7.21,0,0,1,1,4.34l.1,12.7c0,2.25-.37,3.76-1.1,4.54s-2.06,1.17-4,1.17a4.54,4.54,0,0,1-3.15-1,7.87,7.87,0,0,1-1.88-3.62q-1.27-4.66-4-6.69t-7.72-2q-7.51,0-11.52,5.09t-4,14.71q0,9.58,4.06,14.72T2073,69.87q5.13,0,11.3-3.42C2088.37,64.17,2091,63,2092,63a3.94,3.94,0,0,1,3.2,1.61,6.19,6.19,0,0,1,1.29,4q0,4.3-7.57,8.11a37.46,37.46,0,0,1-17,3.8q-12.8,0-20.7-8.44t-7.91-22.07q0-13.14,8-21.83a26.43,26.43,0,0,1,20.31-8.69,30.28,30.28,0,0,1,6.84.78A42,42,0,0,1,2085.64,22.75Z" style="fill:#fff"/><path d="M2109.77,68.36V31.93h-.83a5.4,5.4,0,0,1-4-1.37,5.42,5.42,0,0,1-1.37-4,5.25,5.25,0,0,1,1.47-4.13c1-.86,2.55-1.29,4.74-1.29h12.06a90.11,90.11,0,0,1,14.94.88,23.33,23.33,0,0,1,8.05,2.93,23,23,0,0,1,9.06,10A34.26,34.26,0,0,1,2157,50.05a33.23,33.23,0,0,1-3.59,15.79,23.28,23.28,0,0,1-17.16,12.5,73,73,0,0,1-11.91.71h-14.6q-3.37,0-4.79-1.24c-.94-.83-1.42-2.23-1.42-4.18a5.29,5.29,0,0,1,1.37-3.93,5.52,5.52,0,0,1,4-1.34Zm12.59-36.62V68.36h2.79q9.22,0,13.62-4.52T2143.16,50q0-9.23-4.46-13.77t-13.46-4.54l-1.78,0C2123.05,31.68,2122.69,31.7,2122.36,31.74Z" style="fill:#fff"/><path d="M2204.35,31.44h-22.71v12.5h8.59v-.58a6,6,0,0,1,1.23-4.15,4.72,4.72,0,0,1,3.71-1.37,5.15,5.15,0,0,1,3.58,1.24,4.06,4.06,0,0,1,1.4,3.15c0,.07,0,.28,0,.64s0,.72,0,1.07V54.05c0,2.18-.39,3.74-1.17,4.69a4.68,4.68,0,0,1-3.81,1.41,5,5,0,0,1-3.76-1.31,5.46,5.46,0,0,1-1.27-3.91v-.88h-8.59v14.6h22.71V62.84c0-2.18.41-3.74,1.24-4.69a5.2,5.2,0,0,1,4.08-1.41,5,5,0,0,1,4,1.39c.79.93,1.19,2.5,1.19,4.71V74.66c0,1.75-.34,2.93-1,3.51s-2,.88-4.05.88h-40c-2.15,0-3.69-.42-4.62-1.27a5.37,5.37,0,0,1-1.39-4.15,5.4,5.4,0,0,1,1.32-3.93,5.19,5.19,0,0,1,3.86-1.34h.83V31.93H2169a5.09,5.09,0,0,1-3.84-1.39,5.52,5.52,0,0,1-1.34-4,5.34,5.34,0,0,1,1.42-4.13q1.41-1.29,4.59-1.29h40q3,0,4,.9c.7.61,1.05,1.8,1.05,3.59V36.57c0,2.21-.4,3.8-1.22,4.76a4.9,4.9,0,0,1-3.95,1.44,5.1,5.1,0,0,1-4.08-1.46c-.83-1-1.24-2.56-1.24-4.74Z" style="fill:#fff"/><path d="M2264.84,31.44h-22.7v12.5h8.54v-.58a6,6,0,0,1,1.25-4.13,4.74,4.74,0,0,1,3.73-1.39,5.16,5.16,0,0,1,3.59,1.24,4,4,0,0,1,1.39,3.15V54.05c0,2.18-.39,3.74-1.17,4.69a4.68,4.68,0,0,1-3.81,1.41,5,5,0,0,1-3.73-1.29,5.47,5.47,0,0,1-1.25-3.93v-.88h-8.54V68.36h2.73c2.15,0,3.69.41,4.62,1.24a5.16,5.16,0,0,1,1.39,4,5.3,5.3,0,0,1-1.42,4.15c-.94.85-2.47,1.27-4.59,1.27h-14.6c-2.11,0-3.64-.42-4.59-1.27a5.33,5.33,0,0,1-1.41-4.15,5.4,5.4,0,0,1,1.32-3.93,5.16,5.16,0,0,1,3.85-1.34h.83V31.93h-.83a5.06,5.06,0,0,1-3.83-1.39,5.48,5.48,0,0,1-1.34-4,5.31,5.31,0,0,1,1.44-4.13,6.71,6.71,0,0,1,4.56-1.29h40c2,0,3.33.3,4,.9s1.05,1.8,1.05,3.59V36.57c0,2.18-.41,3.76-1.24,4.74a6.3,6.3,0,0,1-8,0c-.81-1-1.22-2.55-1.22-4.76Z" style="fill:#fff"/><path d="M2323.17,22.75a7,7,0,0,1,1.93-2.49,4.27,4.27,0,0,1,2.55-.73A3.91,3.91,0,0,1,2331,20.8a7.3,7.3,0,0,1,1,4.34l.1,12.7c0,2.25-.36,3.76-1.08,4.54s-2,1.17-3.93,1.17a4.52,4.52,0,0,1-3.12-1,7.42,7.42,0,0,1-1.83-3.6q-1.29-4.71-4-6.72t-7.48-2q-7.33,0-11.22,5.09T2295.54,50q0,9.63,4.07,14.89t11.56,5.25a20.88,20.88,0,0,0,3.9-.41q2.19-.42,5.15-1.29V60.74h-5.39c-2.16,0-3.69-.41-4.59-1.22s-1.36-2.16-1.36-4.05.45-3.35,1.36-4.18,2.43-1.24,4.59-1.24H2332c2.22,0,3.78.4,4.69,1.22s1.36,2.18,1.36,4.1a5.5,5.5,0,0,1-1.36,4,5.25,5.25,0,0,1-3.93,1.39H2332V73a5,5,0,0,1-.34,2.17,3.86,3.86,0,0,1-1.33,1.25,29.21,29.21,0,0,1-8.63,2.92,56.5,56.5,0,0,1-12,1.27q-12.48,0-20.2-8.44t-7.72-22.07q0-13.14,7.82-21.83a25.48,25.48,0,0,1,19.82-8.69,28.82,28.82,0,0,1,6.64.78A39.9,39.9,0,0,1,2323.17,22.75Z" style="fill:#fff"/><path d="M2362.4,31.93V43.16h16V31.93h-.78a5.48,5.48,0,0,1-4-1.37,5.34,5.34,0,0,1-1.39-4,5.28,5.28,0,0,1,1.44-4.15q1.44-1.28,4.76-1.27H2391c2.21,0,3.78.42,4.71,1.27a5.38,5.38,0,0,1,1.39,4.15,5.49,5.49,0,0,1-1.34,4,5.25,5.25,0,0,1-3.93,1.37H2391V68.36h.83a5.51,5.51,0,0,1,4,1.34,5.29,5.29,0,0,1,1.37,3.93,5.3,5.3,0,0,1-1.42,4.15c-.94.85-2.54,1.27-4.78,1.27h-12.6c-2.25,0-3.84-.41-4.79-1.24s-1.41-2.23-1.41-4.18a5.22,5.22,0,0,1,1.39-3.93,5.6,5.6,0,0,1,4-1.34h.78V54h-16V68.36h.78a5.6,5.6,0,0,1,4,1.34,5.22,5.22,0,0,1,1.39,3.93,5.27,5.27,0,0,1-1.44,4.15c-1,.85-2.54,1.27-4.76,1.27h-12.6c-2.24,0-3.84-.41-4.78-1.24s-1.42-2.23-1.42-4.18A5.29,5.29,0,0,1,2345,69.7a5.51,5.51,0,0,1,4-1.34h.83V31.93H2349a5.25,5.25,0,0,1-3.93-1.37,5.49,5.49,0,0,1-1.34-4,5.42,5.42,0,0,1,1.39-4.15c.93-.85,2.5-1.27,4.71-1.27h12.6q3.27,0,4.74,1.27a5.22,5.22,0,0,1,1.46,4.15,5.34,5.34,0,0,1-1.39,4,5.48,5.48,0,0,1-4,1.37Z" style="fill:#fff"/><path d="M2436.67,31.93V68.36h8.2c2.22,0,3.8.41,4.76,1.24a5.07,5.07,0,0,1,1.44,4,5.24,5.24,0,0,1-1.46,4.13q-1.47,1.29-4.74,1.29h-29q-3.32,0-4.76-1.27a5.27,5.27,0,0,1-1.44-4.15,5.1,5.1,0,0,1,1.41-4c1-.82,2.54-1.22,4.79-1.22h8.2V31.93h-8.2q-3.32,0-4.76-1.27a5.19,5.19,0,0,1-1.44-4.1c0-1.92.47-3.29,1.41-4.1s2.54-1.22,4.79-1.22h29q3.47,0,4.84,1.22c.91.81,1.36,2.18,1.36,4.1a5.26,5.26,0,0,1-1.41,4.1c-.95.85-2.54,1.27-4.79,1.27Z" style="fill:#fff"/><path d="M2508,31.93V59.86a37.21,37.21,0,0,1-.86,9.47,13.71,13.71,0,0,1-2.85,5.23,15.89,15.89,0,0,1-7.18,4.49,35.44,35.44,0,0,1-11,1.51,43.31,43.31,0,0,1-8.76-.87,39.42,39.42,0,0,1-8.13-2.64,5.16,5.16,0,0,1-2.81-2.54,14.1,14.1,0,0,1-.66-5.08V59.37q0-4.2,1.22-5.86c.82-1.1,2.23-1.66,4.25-1.66,2.9,0,4.49,2.14,4.79,6.4a16.16,16.16,0,0,0,.14,1.71q.59,5.67,2.64,7.74t6.54,2.07c3.71,0,6.33-1,7.84-3s2.27-5.56,2.27-10.77V31.93h-8.2c-2.22,0-3.8-.42-4.76-1.27a5.19,5.19,0,0,1-1.44-4.1c0-1.92.46-3.29,1.39-4.1s2.53-1.22,4.81-1.22h24.9q3.42,0,4.81,1.22c.93.81,1.39,2.18,1.39,4.1a5.19,5.19,0,0,1-1.44,4.1q-1.44,1.28-4.76,1.27Z" style="fill:#fff"/><path d="M2542.43,31.93v14.8l15.09-15.09A5.54,5.54,0,0,1,2554,30.2a5.35,5.35,0,0,1-1-3.64,5.38,5.38,0,0,1,1.39-4.15c.93-.85,2.5-1.27,4.71-1.27h12c2.21,0,3.78.42,4.71,1.27a5.38,5.38,0,0,1,1.39,4.15,5.36,5.36,0,0,1-1.39,4,5.68,5.68,0,0,1-4.08,1.34h-1.12L2556.3,46a32.27,32.27,0,0,1,7.23,7.69,97.46,97.46,0,0,1,7.66,14.63h1.61a6.11,6.11,0,0,1,4.3,1.32,5.14,5.14,0,0,1,1.42,3.95,5.27,5.27,0,0,1-1.44,4.15c-1,.85-2.55,1.27-4.77,1.27h-6q-4,0-6.4-5.32c-.29-.65-.52-1.17-.68-1.56a68,68,0,0,0-5.91-10.55,38.77,38.77,0,0,0-6.3-6.79l-4.59,4.4v9.13h.78a5.6,5.6,0,0,1,4,1.34,5.22,5.22,0,0,1,1.39,3.93,5.27,5.27,0,0,1-1.44,4.15q-1.44,1.27-4.76,1.27h-12.6c-2.24,0-3.84-.41-4.78-1.24s-1.42-2.23-1.42-4.18A5.29,5.29,0,0,1,2525,69.7a5.51,5.51,0,0,1,4-1.34h.83V31.93H2529a5.25,5.25,0,0,1-3.93-1.37,5.49,5.49,0,0,1-1.34-4,5.38,5.38,0,0,1,1.39-4.15c.93-.85,2.5-1.27,4.71-1.27h12.6q3.27,0,4.74,1.27a5.25,5.25,0,0,1,1.46,4.15,5.34,5.34,0,0,1-1.39,4,5.48,5.48,0,0,1-4,1.37Z" style="fill:#fff"/><path d="M2605.13,31.93V68.36h22.21V59.67c0-2.25.4-3.84,1.2-4.79a5,5,0,0,1,4-1.42,5.12,5.12,0,0,1,4.05,1.45c.85,1,1.27,2.54,1.27,4.76v15c0,1.75-.34,2.93-1,3.51s-2.05.88-4.11.88h-44.28c-2.12,0-3.63-.42-4.54-1.27s-1.37-2.23-1.37-4.15a5.26,5.26,0,0,1,1.34-4c.9-.82,2.42-1.22,4.57-1.22h4.29V31.93h-4.29c-2.12,0-3.63-.42-4.54-1.27a5.32,5.32,0,0,1-1.37-4.1,5.31,5.31,0,0,1,1.44-4.13,6.72,6.72,0,0,1,4.57-1.29h20.8a6.71,6.71,0,0,1,4.56,1.29,5.31,5.31,0,0,1,1.44,4.13,5.26,5.26,0,0,1-1.41,4.1c-1,.85-2.48,1.27-4.59,1.27Z" style="fill:#fff"/><path d="M2670.21,54.05l8.61-27.68a8.19,8.19,0,0,1,2.25-4,5.66,5.66,0,0,1,3.83-1.25h7c2,0,3.5.42,4.39,1.27a5.53,5.53,0,0,1,1.33,4.15,5.65,5.65,0,0,1-1.28,4,4.84,4.84,0,0,1-3.72,1.37h-.72l1.26,36.43h.77a4.68,4.68,0,0,1,3.64,1.34,5.64,5.64,0,0,1,1.22,3.93,5.68,5.68,0,0,1-1.28,4.15c-.86.85-2.31,1.27-4.35,1.27h-10.14c-2,0-3.49-.41-4.35-1.24s-1.28-2.23-1.28-4.18a5.6,5.6,0,0,1,1.24-3.93,4.77,4.77,0,0,1,3.67-1.34h.72l-.63-29.79-6.58,22.17a7,7,0,0,1-2.05,3.59,5.6,5.6,0,0,1-3.67,1.1,5.77,5.77,0,0,1-3.71-1.1,6.88,6.88,0,0,1-2.1-3.59l-6.53-22.17-.63,29.79h.72a4.77,4.77,0,0,1,3.67,1.34,5.65,5.65,0,0,1,1.24,3.93,5.6,5.6,0,0,1-1.31,4.15c-.87.85-2.31,1.27-4.32,1.27H2647c-2,0-3.45-.42-4.32-1.27a5.6,5.6,0,0,1-1.31-4.15,5.65,5.65,0,0,1,1.24-3.93,4.77,4.77,0,0,1,3.67-1.34h.72l1.31-36.43h-.72a4.84,4.84,0,0,1-3.72-1.37,5.65,5.65,0,0,1-1.28-4,5.53,5.53,0,0,1,1.33-4.15c.88-.85,2.35-1.27,4.39-1.27h7a5.57,5.57,0,0,1,3.76,1.22,8.72,8.72,0,0,1,2.32,4Z" style="fill:#fff"/><path d="M2741.75,58.84V31.93h-2.69c-2.15,0-3.68-.42-4.61-1.27a5.29,5.29,0,0,1-1.39-4.1,5.41,5.41,0,0,1,1.39-4.13c.93-.86,2.46-1.29,4.61-1.29h13.87c2.11,0,3.65.43,4.59,1.29a5.38,5.38,0,0,1,1.42,4.13,5.48,5.48,0,0,1-1.35,4,5.06,5.06,0,0,1-3.83,1.39h-.83V76.27a5.21,5.21,0,0,1-.49,2.88c-.32.39-1.06.58-2.2.58h-4.88a8,8,0,0,1-3.29-.48,4.06,4.06,0,0,1-1.64-1.71l-20.31-35.7V68.36H2723c2.11,0,3.63.4,4.54,1.22a5.19,5.19,0,0,1,1.37,4,5.41,5.41,0,0,1-1.39,4.15c-.93.85-2.44,1.27-4.52,1.27h-14c-2.12,0-3.65-.42-4.59-1.27a5.3,5.3,0,0,1-1.42-4.15,5.4,5.4,0,0,1,1.32-3.93,5.25,5.25,0,0,1,3.9-1.34h.79V31.93h-.79a5.13,5.13,0,0,1-3.85-1.39,5.41,5.41,0,0,1-1.37-4,5.31,5.31,0,0,1,1.44-4.13,6.72,6.72,0,0,1,4.57-1.29h8c1.92,0,3.23.25,3.91.76a9.66,9.66,0,0,1,2.29,3.05Z" style="fill:#fff"/><path d="M2790.43,19.53a25.48,25.48,0,0,1,19.78,8.59q7.76,8.6,7.76,21.93t-7.72,22q-7.71,8.55-19.82,8.54A25.55,25.55,0,0,1,2770.65,72q-7.8-8.62-7.81-21.9t7.74-21.95Q2778.32,19.54,2790.43,19.53Zm0,11.33a11.44,11.44,0,0,0-9.89,5.08Q2777,41,2777,50.05t3.62,14.16a12.12,12.12,0,0,0,19.77,0q3.61-5.1,3.62-14.18t-3.59-14.11A11.51,11.51,0,0,0,2790.43,30.86Z" style="fill:#fff"/><path d="M2843.85,58.35v10h5c2.11,0,3.62.4,4.51,1.22a5.23,5.23,0,0,1,1.35,4,5.44,5.44,0,0,1-1.37,4.15c-.91.85-2.41,1.27-4.49,1.27H2832c-2.15,0-3.68-.42-4.61-1.27a5.37,5.37,0,0,1-1.39-4.15,5.44,5.44,0,0,1,1.31-3.93,5.2,5.2,0,0,1,3.86-1.34h.83V31.93h-.83a5.06,5.06,0,0,1-3.83-1.39,5.48,5.48,0,0,1-1.34-4,5.37,5.37,0,0,1,1.41-4.13q1.43-1.29,4.59-1.29h20.17q12,0,18.09,4.59t6.13,13.53q0,9.42-6.11,14.25t-18.11,4.84Zm0-26.42V47.36h6.93q5.76,0,8.67-2a6.6,6.6,0,0,0,2.9-5.86,6.37,6.37,0,0,0-3-5.64q-3-2-8.57-2Z" style="fill:#fff"/><path d="M2907.67,79.83l-3.81,3.81a27.21,27.21,0,0,1,4.12-1,23.71,23.71,0,0,1,4-.35,31.6,31.6,0,0,1,8.13,1.15,31.23,31.23,0,0,0,5.2,1.15,11.29,11.29,0,0,0,4.08-1,11.44,11.44,0,0,1,3.39-1,3.8,3.8,0,0,1,3,1.39,5.2,5.2,0,0,1,1.19,3.49q0,2.79-3.29,4.74a15.62,15.62,0,0,1-8.08,2,30.41,30.41,0,0,1-8.4-1.54,30.06,30.06,0,0,0-7.42-1.54,19.79,19.79,0,0,0-7.82,1.91q-4.34,1.91-5.37,1.9a5,5,0,0,1-3.56-1.39,4.44,4.44,0,0,1-1.47-3.34,5.66,5.66,0,0,1,.93-2.91,25.52,25.52,0,0,1,3.27-4l4.93-5a25.2,25.2,0,0,1-13-10.72,32.82,32.82,0,0,1-4.84-17.79q0-13.29,7.72-21.71t19.87-8.42q12.11,0,19.82,8.45T2938,49.66q0,13.19-7.67,21.72a25,25,0,0,1-19.43,8.55l-1.59,0Zm2.78-49a11.44,11.44,0,0,0-9.89,5.08Q2897,41,2897,50.05t3.62,14.16a12.12,12.12,0,0,0,19.77,0q3.61-5.1,3.61-14.18t-3.58-14.11A11.51,11.51,0,0,0,2910.45,30.86Z" style="fill:#fff"/><path d="M2980.67,52.44a8.2,8.2,0,0,1,2.49,2.83c.13.2.24.36.34.49l8,12.6H2993a6.12,6.12,0,0,1,4.27,1.32,5.07,5.07,0,0,1,1.44,3.95,5.27,5.27,0,0,1-1.44,4.15c-1,.85-2.54,1.27-4.76,1.27h-6a5.84,5.84,0,0,1-5.18-2.88l-.15-.1-12-18.41a5.21,5.21,0,0,0-1.56-1.63,3.37,3.37,0,0,0-1.86-.56h-4.59V68.36h.78a5.41,5.41,0,0,1,4,1.34,5.32,5.32,0,0,1,1.35,3.93,5.41,5.41,0,0,1-1.39,4.15c-.93.85-2.5,1.27-4.72,1.27h-12.59c-2.19,0-3.75-.42-4.69-1.27a5.3,5.3,0,0,1-1.42-4.15,4.72,4.72,0,0,1,5.28-5.27h.83V31.93h-.83a5.22,5.22,0,0,1-3.91-1.39,5.45,5.45,0,0,1-1.37-4,5.31,5.31,0,0,1,1.44-4.13c1-.86,2.52-1.29,4.67-1.29h22.51q10.35,0,15.67,4t5.32,11.89a15.49,15.49,0,0,1-3,9.47A17.13,17.13,0,0,1,2980.67,52.44Zm-20.07-20.8V45.46h6.59q6.11,0,8.54-1.59c1.63-1.06,2.45-2.82,2.45-5.3s-.75-4.2-2.23-5.3-3.86-1.63-7.15-1.63Z" style="fill:#fff"/><path d="M3042.68,22.26a4.83,4.83,0,0,1,1.66-2.14,5.28,5.28,0,0,1,2.83-.59c1.89,0,3.1.35,3.64,1s.83,2.09.9,4.17l.19,9.38v.54q0,2.88-1.14,4a5.36,5.36,0,0,1-3.88,1.15c-2.32,0-4-1.23-5.18-3.71l-.39-.88a10.69,10.69,0,0,0-4.1-4.56,11.7,11.7,0,0,0-6.11-1.54,11.56,11.56,0,0,0-7.1,2,6.24,6.24,0,0,0-2.71,5.21q0,4.48,12.4,7.08l3.32.68q9.38,2.05,13.58,6.25c2.79,2.8,4.2,6.62,4.2,11.47q0,9-6.11,13.85t-17.48,4.85a48.3,48.3,0,0,1-7.93-.58,36.13,36.13,0,0,1-6.77-1.81,4.94,4.94,0,0,1-1.8,1.83,5.9,5.9,0,0,1-2.83.56c-2.06,0-3.49-.39-4.3-1.17s-1.24-2.16-1.27-4.15l-.2-11.47v-.54c0-2.15.4-3.65,1.2-4.49s2.19-1.27,4.17-1.27,3.89,1.53,5.33,4.59q.48,1.13.78,1.71a12.71,12.71,0,0,0,5.3,5.61,17.09,17.09,0,0,0,8.32,1.86,11.45,11.45,0,0,0,7-1.86,6.13,6.13,0,0,0,2.49-5.22q0-5.22-11.28-7.91c-2.24-.52-4-1-5.32-1.32q-9.46-2.49-13.13-6.23t-3.66-10.23a17,17,0,0,1,6.27-13.64q6.27-5.29,16.24-5.3a31.41,31.41,0,0,1,6.51.68A34.52,34.52,0,0,1,3042.68,22.26Z" style="fill:#fff"/><path d="M3107,31.83h-10.2V68.26h8.2c2.18,0,3.74.42,4.69,1.27a5.27,5.27,0,0,1,1.41,4.1,5.33,5.33,0,0,1-1.41,4.15c-1,.85-2.51,1.27-4.69,1.27h-29c-2.15,0-3.7-.42-4.64-1.27a5.3,5.3,0,0,1-1.42-4.15,5.34,5.34,0,0,1,1.39-4.13c.93-.83,2.48-1.24,4.67-1.24h8.2V31.83H3074l-.29,9.92V43a5,5,0,0,1-1.29,3.66A4.81,4.81,0,0,1,3068.8,48a5.29,5.29,0,0,1-4-1.39,6.36,6.36,0,0,1-1.29-4.42v-.39l.53-14.6q.15-4.35,1.2-5.23c.7-.58,2.12-.88,4.27-.88h42c2.15,0,3.58.3,4.28.88s1.11,2.33,1.24,5.23l.49,14.6v.39a6.6,6.6,0,0,1-1.22,4.44,5.06,5.06,0,0,1-4,1.37,4.73,4.73,0,0,1-3.78-1.35q-1.16-1.34-1.24-4.85Z" style="fill:#fff"/><path d="M3140.43,31.93V57.47q0,6.78,2.37,9.64c1.58,1.91,4.2,2.86,7.88,2.86s6.32-1,7.91-2.88,2.4-5.13,2.4-9.62V31.93h-.78a5.26,5.26,0,0,1-3.94-1.37,5.49,5.49,0,0,1-1.34-4,5.42,5.42,0,0,1,1.39-4.15c.93-.85,2.48-1.27,4.67-1.27h12.2c2.22,0,3.79.42,4.72,1.27a5.42,5.42,0,0,1,1.39,4.15,5.45,5.45,0,0,1-1.35,4,5.22,5.22,0,0,1-3.93,1.37h-.83V57.27q0,12.32-5.29,17.8t-17.07,5.49q-12.3,0-17.65-5.39t-5.35-17.9V31.93H3127a5.38,5.38,0,0,1-4-1.37,5.42,5.42,0,0,1-1.37-4,5.28,5.28,0,0,1,1.44-4.15q1.44-1.28,4.76-1.27h12.6q3.27,0,4.74,1.27a5.25,5.25,0,0,1,1.46,4.15,5.34,5.34,0,0,1-1.39,4,5.48,5.48,0,0,1-4,1.37Z" style="fill:#fff"/><path d="M3200.31,31.93l10.85,34.62,11.22-34.62h-1.22c-2,0-3.41-.41-4.27-1.24a5.57,5.57,0,0,1-1.29-4.13,5.65,5.65,0,0,1,1.29-4.15c.86-.85,2.31-1.27,4.36-1.27h11.4c2,0,3.51.42,4.37,1.27a5.65,5.65,0,0,1,1.29,4.15,5.68,5.68,0,0,1-1.27,4,4.68,4.68,0,0,1-3.66,1.39h-.73l-13.8,42.34q-1.08,3.32-2.08,4a6.08,6.08,0,0,1-3.48.73h-5.57q-3.93,0-5.47-4.49l-.09-.29-14.07-42.34h-.77a4.39,4.39,0,0,1-3.51-1.37,5.88,5.88,0,0,1-1.19-4c0-1.95.41-3.34,1.24-4.17s2.24-1.25,4.23-1.25h13.44a5.9,5.9,0,0,1,4.25,1.29,5.64,5.64,0,0,1,1.31,4.13,5.51,5.51,0,0,1-1.31,4.1,6,6,0,0,1-4.25,1.27Z" style="fill:#fff"/><path d="M3257.58,31.93l1.59,28.61,5.46-21.09a6.52,6.52,0,0,1,2-3.51,5.55,5.55,0,0,1,3.68-1.18,5.48,5.48,0,0,1,3.62,1.13,6.85,6.85,0,0,1,2,3.56l5.54,21.09,1.55-28.61h-1.19a5,5,0,0,1-3.82-1.32,5.73,5.73,0,0,1-1.24-4.05c0-1.95.41-3.34,1.24-4.17s2.26-1.25,4.31-1.25h10.69c2,0,3.43.42,4.28,1.27a5.74,5.74,0,0,1,1.26,4.15,5.83,5.83,0,0,1-1.22,4,4.5,4.5,0,0,1-3.57,1.37h-.75l-4.26,43a6.52,6.52,0,0,1-.89,3.32c-.44.52-1.48.78-3.11.78h-2.08a4.07,4.07,0,0,1-2.73-.76q-.86-.75-1.71-3.93l-8.11-29-7.81,29c-.53,2-1.09,3.35-1.67,3.89a4,4,0,0,1-2.77.8h-2.08c-1.6,0-2.61-.25-3-.76a6.59,6.59,0,0,1-.87-3.34l-4.39-43h-.71a4.57,4.57,0,0,1-3.59-1.37,5.74,5.74,0,0,1-1.24-4,5.7,5.7,0,0,1,1.28-4.15c.86-.85,2.28-1.27,4.26-1.27h10.74c2,0,3.43.42,4.28,1.27a5.74,5.74,0,0,1,1.26,4.15,5.73,5.73,0,0,1-1.24,4.05,5.08,5.08,0,0,1-3.86,1.32Z" style="fill:#fff"/><path d="M3324.32,31.93l6.64,9.33,6.39-9.33a5.19,5.19,0,0,1-3.61-1.56,5.54,5.54,0,0,1-1.22-3.81,5.32,5.32,0,0,1,1.42-4.15c.94-.85,2.5-1.27,4.68-1.27h10.94c2.18,0,3.75.42,4.71,1.27a5.28,5.28,0,0,1,1.44,4.15,5.36,5.36,0,0,1-1.39,4,5.82,5.82,0,0,1-4.17,1.34h-1.42l-12.21,17,14.41,19.38h1.22a5.8,5.8,0,0,1,4.17,1.34,5.36,5.36,0,0,1,1.39,4,5.27,5.27,0,0,1-1.44,4.15c-1,.85-2.54,1.27-4.76,1.27h-13.08c-2.22,0-3.8-.42-4.76-1.27a5.27,5.27,0,0,1-1.44-4.15,5.38,5.38,0,0,1,1.27-3.93,5.8,5.8,0,0,1,3.95-1.44l-7.52-10.89-7.71,10.89a5.85,5.85,0,0,1,4.17,1.39,5.38,5.38,0,0,1,1.34,4,5.27,5.27,0,0,1-1.44,4.15c-1,.85-2.54,1.27-4.76,1.27h-11.37c-2.22,0-3.79-.42-4.72-1.27a5.41,5.41,0,0,1-1.39-4.15,5.4,5.4,0,0,1,1.39-4,5.83,5.83,0,0,1,4.18-1.34h1.22L3324.22,50l-13-18h-1.17a5.91,5.91,0,0,1-4.23-1.34,5.4,5.4,0,0,1-1.39-4,5.28,5.28,0,0,1,1.44-4.15q1.44-1.28,4.76-1.27h12.5c2.22,0,3.8.42,4.77,1.27a5.28,5.28,0,0,1,1.44,4.15,5.49,5.49,0,0,1-1.27,3.86A5.36,5.36,0,0,1,3324.32,31.93Z" style="fill:#fff"/><path d="M3383.35,31.93,3391,47.85l7.27-15.92h-.19a4.11,4.11,0,0,1-3.35-1.37,6.1,6.1,0,0,1-1.15-4q0-2.93,1.2-4.17c.8-.83,2.16-1.25,4.08-1.25H3410c2.18,0,3.73.42,4.64,1.25s1.37,2.22,1.37,4.17a5.45,5.45,0,0,1-1.35,4,5.16,5.16,0,0,1-3.88,1.37H3410l-13.13,24.42v12h6.39c2.22,0,3.79.41,4.71,1.24a5.17,5.17,0,0,1,1.4,4,5.25,5.25,0,0,1-1.47,4.13c-1,.86-2.55,1.29-4.74,1.29h-25.29c-2.18,0-3.74-.42-4.69-1.27a5.33,5.33,0,0,1-1.41-4.15c0-1.92.45-3.28,1.37-4.08s2.49-1.19,4.73-1.19h6.4V57.76l-13.87-25.83h-.83a5.1,5.1,0,0,1-3.86-1.37,5.53,5.53,0,0,1-1.31-4c0-1.95.45-3.34,1.36-4.17s2.46-1.25,4.64-1.25h12.79c1.92,0,3.3.42,4.13,1.27a5.78,5.78,0,0,1,1.25,4.15,6.13,6.13,0,0,1-1.15,4,4.09,4.09,0,0,1-3.35,1.39Z" style="fill:#fff"/><path d="M3444.14,68.26h16.41V60.35c0-2.15.44-3.72,1.34-4.71a5.49,5.49,0,0,1,4.27-1.49,5,5,0,0,1,3.88,1.39,6,6,0,0,1,1.3,4.22v.59l-.49,12.6c-.13,2.89-.56,4.64-1.29,5.22s-2.24.88-4.52.88h-32.28a5.81,5.81,0,0,1-4-1.27,4.27,4.27,0,0,1-1.47-3.42,7.48,7.48,0,0,1,.37-2.22,8.91,8.91,0,0,1,.95-2.07L3455,31.83h-15.14l-.29,6.94c-.1,2.24-.58,3.84-1.44,4.78a5.38,5.38,0,0,1-4.17,1.42,5,5,0,0,1-3.89-1.42,6,6,0,0,1-1.29-4.2v-.58l.49-11.62c.13-2.87.53-4.58,1.19-5.15s2.21-.86,4.62-.86h31.1a5.68,5.68,0,0,1,3.93,1.29,4.37,4.37,0,0,1,1.44,3.4,8.35,8.35,0,0,1-.34,2.32,8.2,8.2,0,0,1-.93,2.12Z" style="fill:#fff"/><path d="M3512.45,28.76V89.45h7.33a3.07,3.07,0,0,1,2.46,1,4.24,4.24,0,0,1,.9,2.86,4.15,4.15,0,0,1-.87,2.78,3,3,0,0,1-2.4,1h-15a4.27,4.27,0,0,1-2.83-.91,2.87,2.87,0,0,1-1.07-2.32V24.36a2.9,2.9,0,0,1,1.07-2.32,4.27,4.27,0,0,1,2.83-.9h15a3,3,0,0,1,2.4,1,4.15,4.15,0,0,1,.87,2.78,4.07,4.07,0,0,1-.9,2.81,3.16,3.16,0,0,1-2.46,1Z" style="fill:#fff"/><path d="M3552.29,18.36a22.43,22.43,0,0,1-1.12-2.74,6.63,6.63,0,0,1-.29-1.85,4.4,4.4,0,0,1,1.73-3.52,6.13,6.13,0,0,1,4-1.41A3.61,3.61,0,0,1,3559.2,10a13.81,13.81,0,0,1,2.47,4.1l28.61,61.18a20.19,20.19,0,0,1,1.13,2.76,6.78,6.78,0,0,1,.29,1.83,4.31,4.31,0,0,1-1.81,3.49,6.26,6.26,0,0,1-4,1.44,3.52,3.52,0,0,1-2.56-1.07,14.29,14.29,0,0,1-2.47-4Z" style="fill:#fff"/><path d="M3626,89.45V28.76h-7.28a3.23,3.23,0,0,1-2.51-1,4,4,0,0,1-.91-2.81,4.17,4.17,0,0,1,.88-2.81,3.07,3.07,0,0,1,2.44-1h15a4.2,4.2,0,0,1,2.81.93,2.89,2.89,0,0,1,1.1,2.29V93.94a2.91,2.91,0,0,1-1.1,2.3,4.2,4.2,0,0,1-2.81.93h-15a3.11,3.11,0,0,1-2.44-1,4.94,4.94,0,0,1,0-5.67,3.13,3.13,0,0,1,2.51-1Z" style="fill:#fff"/><path d="M3690.58,23.53l-15,12.41a3.15,3.15,0,0,1-.91.53,2.84,2.84,0,0,1-3-.56,2.49,2.49,0,0,1-.8-1.88,3.52,3.52,0,0,1,.34-1.41,5.11,5.11,0,0,1,1-1.47l15-17.58a3.31,3.31,0,0,1,1.44-1.12,5,5,0,0,1,3.88,0,3.77,3.77,0,0,1,1.46,1.12l15.09,17.58a4.69,4.69,0,0,1,.91,1.44,4.23,4.23,0,0,1,.31,1.54,2.5,2.5,0,0,1-.8,1.88,2.7,2.7,0,0,1-1.88.76,2.33,2.33,0,0,1-.81-.13,2.25,2.25,0,0,1-.71-.41Z" style="fill:#fff"/><path d="M3723.11,93.46h55v9.17h-55Z" style="fill:#fff"/><path d="M3821.09,26l-1.66,3.76-25.53-9.08a2,2,0,0,1-.93-.78,2.2,2.2,0,0,1-.34-1.22,2.42,2.42,0,0,1,.09-.59.78.78,0,0,1,.1-.19l2-4.2a2.66,2.66,0,0,1,.93-1.12,2.26,2.26,0,0,1,1.27-.39,1.31,1.31,0,0,1,.39.05,2,2,0,0,1,.39.14Z" style="fill:#fff"/><path d="M3890.53,68.36h.78a4.86,4.86,0,0,1,5.42,5.37,5.13,5.13,0,0,1-1.44,4.08c-1,.83-2.55,1.24-4.76,1.24h-4.59a5.89,5.89,0,0,1-3.64-.93,6.78,6.78,0,0,1-2-3.37,33.75,33.75,0,0,1-8.59,4.11,30.82,30.82,0,0,1-9.18,1.41q-7.86,0-12.35-3.9t-4.5-10.7a13.1,13.1,0,0,1,5.81-11.38q5.82-4,16.31-4c1.56,0,3.22.08,5,.25s3.73.42,5.91.78v-.93q0-4.4-2.12-6.69t-6.28-2.29c-2.15,0-4.89.79-8.23,2.39s-5.78,2.39-7.34,2.39A5.18,5.18,0,0,1,3851,44.8a4.65,4.65,0,0,1-1.42-3.54q0-4,5.79-6.28t15.74-2.32q10.41,0,14.9,4t4.49,13.57Zm-11.82-9.43c-1.63-.35-3.12-.62-4.49-.8a29.38,29.38,0,0,0-3.81-.27q-5.37,0-8.42,1.81a5.53,5.53,0,0,0-3,5,5.1,5.1,0,0,0,1.95,4.32,9.12,9.12,0,0,0,5.61,1.49,20.25,20.25,0,0,0,6.35-1,21.7,21.7,0,0,0,5.86-3Z" style="fill:#fff"/><path d="M3921.83,38.33a17.21,17.21,0,0,1,5.56-3.22,19.4,19.4,0,0,1,6.74-1.18q10.15,0,16.63,6.72t6.47,17.21a21.4,21.4,0,0,1-6.6,16,22.81,22.81,0,0,1-16.6,6.42,19.2,19.2,0,0,1-8.22-1.63,13.77,13.77,0,0,1-5.69-4.91V77a1.82,1.82,0,0,1-.76,1.54,3.52,3.52,0,0,1-2.12.56h-7.52c-2.22,0-3.79-.41-4.72-1.24s-1.39-2.23-1.39-4.18A5.32,5.32,0,0,1,3905,69.7a5.41,5.41,0,0,1,4-1.34h.78V26h-.78a5.43,5.43,0,0,1-4-1.39,5.43,5.43,0,0,1-1.39-4,5.35,5.35,0,0,1,1.41-4.15c1-.84,2.54-1.27,4.79-1.27h9.13a3,3,0,0,1,2.27.76,3.57,3.57,0,0,1,.71,2.47Zm10.79,6a10.13,10.13,0,0,0-7.94,3.59,13.32,13.32,0,0,0-3.15,9.11,13.53,13.53,0,0,0,3.13,9.25,10.62,10.62,0,0,0,15.94,0,13.55,13.55,0,0,0,3.15-9.23,13.28,13.28,0,0,0-3.17-9.08A10.16,10.16,0,0,0,3932.62,44.33Z" style="fill:#fff"/><path d="M4005.13,36.57a5.52,5.52,0,0,1,1.83-2.86,5.14,5.14,0,0,1,3.2-1,4.29,4.29,0,0,1,3.76,1.59c.74,1.06,1.12,2.89,1.12,5.49v8a6.61,6.61,0,0,1-1.22,4.39,4.69,4.69,0,0,1-3.76,1.42,5.27,5.27,0,0,1-3-.83,9.82,9.82,0,0,1-2.59-3.17,12.26,12.26,0,0,0-5.12-4.91,17.24,17.24,0,0,0-7.77-1.59,12.49,12.49,0,0,0-9.35,3.74,13.13,13.13,0,0,0-3.64,9.54,13.22,13.22,0,0,0,3.76,9.82q3.76,3.7,10.11,3.71a23.18,23.18,0,0,0,11.45-3.2q5.68-3.19,7-3.2a3.82,3.82,0,0,1,3,1.39,5.18,5.18,0,0,1,1.2,3.5q0,4.59-7,8.2a35.43,35.43,0,0,1-16.53,3.61q-11.82,0-19.21-6.64a21.93,21.93,0,0,1-7.4-17.09,22.17,22.17,0,0,1,7.33-17q7.32-6.79,18.45-6.79a28.94,28.94,0,0,1,7.33.93A30.65,30.65,0,0,1,4005.13,36.57Z" style="fill:#fff"/><path d="M4071.44,68.36h.83a5.33,5.33,0,0,1,3.95,1.34,5.4,5.4,0,0,1,1.32,3.93,5.37,5.37,0,0,1-1.39,4.15c-.93.85-2.5,1.27-4.71,1.27H4064a3.64,3.64,0,0,1-2.17-.56A1.82,1.82,0,0,1,4061,77V73.53a15.65,15.65,0,0,1-6.16,5,20,20,0,0,1-8.44,1.73,21.6,21.6,0,0,1-16-6.52A22.2,22.2,0,0,1,4024,57.47a23.19,23.19,0,0,1,6.52-16.85,22.16,22.16,0,0,1,16.58-6.69,20.52,20.52,0,0,1,6.76,1.15,21.42,21.42,0,0,1,6,3.25V26h-6.49c-2.25,0-3.84-.43-4.79-1.29a5.36,5.36,0,0,1-1.41-4.13,5.35,5.35,0,0,1,1.41-4.15c1-.84,2.54-1.27,4.79-1.27h15.18a3,3,0,0,1,2.28.69,3.93,3.93,0,0,1,.61,2.54Zm-22.9-24a10.11,10.11,0,0,0-7.94,3.59,13.32,13.32,0,0,0-3.15,9.11,13.53,13.53,0,0,0,3.13,9.25,10.62,10.62,0,0,0,15.94,0,13.55,13.55,0,0,0,3.15-9.23,13.23,13.23,0,0,0-3.18-9.08A10.14,10.14,0,0,0,4048.54,44.33Z" style="fill:#fff"/><path d="M4097.36,59.37a13.42,13.42,0,0,0,4.91,8.11q3.64,2.68,9.69,2.68a26.51,26.51,0,0,0,12-3c3.93-2,6.31-2.95,7.12-2.95a3.7,3.7,0,0,1,3,1.34,5.12,5.12,0,0,1,1.15,3.44q0,4.59-6.79,7.91t-16.8,3.32q-11.82,0-19.21-6.64a21.93,21.93,0,0,1-7.4-17.09,21.88,21.88,0,0,1,7.4-17q7.39-6.64,19.21-6.64,10.55,0,17.48,6.22A19.76,19.76,0,0,1,4136,54.34c0,1.92-.47,3.24-1.4,4s-2.84,1.07-5.73,1.07Zm26.32-7.61a10.69,10.69,0,0,0-4.27-7,14.94,14.94,0,0,0-9-2.49,14.19,14.19,0,0,0-8.57,2.37,12.43,12.43,0,0,0-4.52,7.16Z" style="fill:#fff"/><path d="M4173.78,35.35h10.5c2.24,0,3.84.41,4.78,1.24a5.16,5.16,0,0,1,1.42,4.08,5.19,5.19,0,0,1-1.44,4.1Q4187.6,46,4184.28,46h-10.5V68.36h9.72c2.24,0,3.84.4,4.78,1.22a5.1,5.1,0,0,1,1.42,4,5.27,5.27,0,0,1-1.44,4.15q-1.44,1.27-4.76,1.27h-26.91c-2.24,0-3.84-.42-4.78-1.27a5.3,5.3,0,0,1-1.42-4.15c0-1.89.46-3.24,1.39-4s2.53-1.22,4.81-1.22h5.18V46h-5.18c-2.24,0-3.84-.42-4.78-1.27a5.22,5.22,0,0,1-1.42-4.1c0-1.92.46-3.29,1.39-4.1s2.53-1.22,4.81-1.22h5.18V32.57q0-9.57,4.93-13.6t16.8-4q6.15,0,9.05,1.46a4.8,4.8,0,0,1,2.91,4.55,4.31,4.31,0,0,1-1.29,3.27,4.92,4.92,0,0,1-3.5,1.22,33.84,33.84,0,0,1-4.56-.44,33.76,33.76,0,0,0-4.13-.44c-3,0-5.15.67-6.37,2s-1.83,3.74-1.83,7.16Z" style="fill:#fff"/><path d="M4240.67,38.47V35.94a1.73,1.73,0,0,1,.71-1.49,3.56,3.56,0,0,1,2.13-.52h7.95c2.25,0,3.83.42,4.74,1.25a5.3,5.3,0,0,1,1.37,4.08,5.51,5.51,0,0,1-1.34,4,5.3,5.3,0,0,1-3.94,1.37h-.83V78.27q0,10.7-5.81,15.53T4227,98.63q-8,0-11.69-1.56c-2.49-1-3.74-2.69-3.74-4.93a5,5,0,0,1,1.52-3.81,5.48,5.48,0,0,1,4-1.47c.42,0,1.82.15,4.2.44a52.76,52.76,0,0,0,6.59.44q7,0,9.64-2.63t2.67-9.48V73.44a30.54,30.54,0,0,1-6.86,3,26.26,26.26,0,0,1-7.06,1q-9.81,0-16-6.13T4204,55.47q0-9.91,6.52-16.31t16.68-6.4a19.94,19.94,0,0,1,7.71,1.39A15,15,0,0,1,4240.67,38.47Zm-12.11,4.59a10.26,10.26,0,0,0-7.93,3.47,12.64,12.64,0,0,0-3.15,8.84,12.4,12.4,0,0,0,3.15,8.71,10.91,10.91,0,0,0,15.92,0,12.4,12.4,0,0,0,3.15-8.71,12.64,12.64,0,0,0-3.15-8.84A10.33,10.33,0,0,0,4228.56,43.06Z" style="fill:#fff"/><path d="M4282.81,38.87a11.26,11.26,0,0,1,4.84-4.55,16.54,16.54,0,0,1,7.47-1.56q7.71,0,11.89,4.49t4.17,12.89V68.36h.83a5.68,5.68,0,0,1,3.88,9.42c-.92.85-2.5,1.27-4.71,1.27h-12.11c-2.18,0-3.73-.42-4.66-1.27a5.37,5.37,0,0,1-1.39-4.15,4.66,4.66,0,0,1,5.27-5.27h.78V54.15q0-6.26-1.54-8.67t-5.24-2.42a8.61,8.61,0,0,0-6.69,3.15,11.54,11.54,0,0,0-2.79,7.94V68.36h.78a5.41,5.41,0,0,1,4,1.34,5.32,5.32,0,0,1,1.35,3.93,5.34,5.34,0,0,1-1.42,4.15c-.94.85-2.51,1.27-4.69,1.27H4270.7c-2.24,0-3.82-.41-4.73-1.24s-1.37-2.23-1.37-4.18a4.71,4.71,0,0,1,5.27-5.27h.83V26h-.83a5.39,5.39,0,0,1-4-1.39,5.47,5.47,0,0,1-1.39-4,5.32,5.32,0,0,1,1.42-4.15c.94-.84,2.54-1.27,4.78-1.27h9.18a3.07,3.07,0,0,1,2.3.69,3.8,3.8,0,0,1,.63,2.54Z" style="fill:#fff"/><path d="M4357.52,68.36H4368c2.24,0,3.84.4,4.78,1.22s1.42,2.16,1.42,4a5.27,5.27,0,0,1-1.44,4.15q-1.44,1.27-4.76,1.27h-33q-3.32,0-4.76-1.27a5.27,5.27,0,0,1-1.44-4.15c0-1.89.46-3.24,1.39-4s2.53-1.22,4.81-1.22h10.5V44.63H4340c-2.18,0-3.74-.42-4.69-1.25s-1.41-2.2-1.41-4.12.45-3.29,1.36-4.11,2.49-1.22,4.74-1.22h14.7a3.37,3.37,0,0,1,2.1.57,1.81,1.81,0,0,1,.73,1.53Zm-7-56.5q3.56,0,4.73,1.37t1.18,6.54q0,5-1,6.18c-.7.8-2.36,1.2-5,1.2s-4.17-.38-4.91-1.13-1.1-2.24-1.1-4.49c0-4.16.38-6.82,1.13-8S4347.92,11.86,4350.49,11.86Z" style="fill:#fff"/><path d="M4411.13,44.63h-16.31c-2.24,0-3.84-.43-4.78-1.27a5.25,5.25,0,0,1-1.42-4.1,5.28,5.28,0,0,1,1.39-4.11q1.39-1.21,4.81-1.22h25.46a3.44,3.44,0,0,1,2.11.57,1.8,1.8,0,0,1,.75,1.53V78.27q0,10.16-5.47,15.21t-16.55,5q-7.66,0-10.89-1.53a5.39,5.39,0,0,1-3.22-5.25,4.54,4.54,0,0,1,1.27-3.52,5.29,5.29,0,0,1,3.71-1.17,40.41,40.41,0,0,1,4.57.49,43,43,0,0,0,5.73.49q5,0,6.91-2.79t1.93-11.81ZM4414,11.86q3.52,0,4.72,1.37t1.19,6.54c0,3.39-.35,5.46-1.05,6.23s-2.32,1.15-4.86,1.15-4.23-.39-5-1.15-1.12-2.25-1.12-4.47c0-4.16.37-6.82,1.12-8S4411.44,11.86,4414,11.86Z" style="fill:#fff"/><path d="M4462.94,52.54l10.3-9.28a3.78,3.78,0,0,1-2.07-1.32,4.63,4.63,0,0,1-.56-2.59c0-2,.43-3.38,1.31-4.2s2.45-1.22,4.69-1.22h10.79c2.22,0,3.79.41,4.71,1.22s1.4,2.19,1.4,4.11a4.86,4.86,0,0,1-.81,3.12,5.77,5.77,0,0,1-3.3,1.47,12.92,12.92,0,0,0-4.07,1.46,20.07,20.07,0,0,0-4.13,3.42l-3.47,3.61,12.89,16h1.23a6,6,0,0,1,4.24,1.32,5.1,5.1,0,0,1,1.42,3.95,5.3,5.3,0,0,1-1.42,4.15c-.94.85-2.54,1.27-4.78,1.27h-12a7.72,7.72,0,0,1-4.59-1.07,4,4,0,0,1-1.42-3.42,4.43,4.43,0,0,1,.83-2.81A6.25,6.25,0,0,1,4476.9,70L4469,60.25l-6,5.52V75.83a3.76,3.76,0,0,1-.64,2.54,3.07,3.07,0,0,1-2.29.68h-8.79c-2.15,0-3.69-.42-4.61-1.27a5.37,5.37,0,0,1-1.4-4.15,5.4,5.4,0,0,1,1.32-3.93,5.26,5.26,0,0,1,3.91-1.34h.78V26h-.78a5.28,5.28,0,0,1-4-1.41,5.53,5.53,0,0,1-1.36-4,5.35,5.35,0,0,1,1.41-4.12c.95-.86,2.51-1.3,4.69-1.3H4460a3,3,0,0,1,2.29.69,3.74,3.74,0,0,1,.64,2.54Z" style="fill:#fff"/><path d="M4536.72,68.36h10.5c2.24,0,3.82.4,4.73,1.22a5.19,5.19,0,0,1,1.37,4,5.37,5.37,0,0,1-1.39,4.15c-.93.85-2.5,1.27-4.71,1.27h-33.11c-2.18,0-3.73-.42-4.66-1.27a5.37,5.37,0,0,1-1.39-4.15c0-1.92.44-3.28,1.34-4.08s2.47-1.19,4.71-1.19h10.5V26h-5.37c-2.22,0-3.8-.43-4.76-1.29a5.29,5.29,0,0,1-1.44-4.13,5.35,5.35,0,0,1,1.41-4.15c.95-.84,2.54-1.27,4.79-1.27h14.6a3.45,3.45,0,0,1,2.12.57,1.78,1.78,0,0,1,.76,1.53Z" style="fill:#fff"/><path d="M4592.18,37.25a12.79,12.79,0,0,1,4.35-3.34,12.26,12.26,0,0,1,5.28-1.15q6.09,0,8.78,3.93t2.69,13.16V68.36h.63a3.8,3.8,0,0,1,3.16,1.34,6.3,6.3,0,0,1,1.05,3.93,6.33,6.33,0,0,1-1.1,4.18,4.78,4.78,0,0,1-3.74,1.24h-7.61a2.9,2.9,0,0,1-1.89-.56,1.92,1.92,0,0,1-.67-1.54V49.36a9.88,9.88,0,0,0-.94-4.88,3,3,0,0,0-2.73-1.61A3.82,3.82,0,0,0,4596,45a12.84,12.84,0,0,0-1.23,6.23V68.36h.67a3.78,3.78,0,0,1,3.13,1.34,6.18,6.18,0,0,1,1.08,3.93,6.26,6.26,0,0,1-1.12,4.18,4.86,4.86,0,0,1-3.76,1.24h-7.62a3.08,3.08,0,0,1-1.93-.56,1.86,1.86,0,0,1-.71-1.54V49.36a10.3,10.3,0,0,0-.9-4.88,2.9,2.9,0,0,0-2.69-1.61,3.9,3.9,0,0,0-3.51,2.2,12.43,12.43,0,0,0-1.28,6.2V68.36h.67a3.79,3.79,0,0,1,3.16,1.32,6.23,6.23,0,0,1,1,3.95c0,2-.37,3.35-1.12,4.18a4.85,4.85,0,0,1-3.76,1.24h-10.17a4.74,4.74,0,0,1-3.72-1.27,6.24,6.24,0,0,1-1.12-4.15,6.24,6.24,0,0,1,1.06-3.93,3.77,3.77,0,0,1,3.15-1.34h.63V44.63h-.63a3.85,3.85,0,0,1-3.2-1.39,6.33,6.33,0,0,1-1.1-4,5.9,5.9,0,0,1,1.15-4.08,4.93,4.93,0,0,1,3.78-1.25h6a3.06,3.06,0,0,1,2.48.81,5.18,5.18,0,0,1,.65,3.1,11.55,11.55,0,0,1,4-3.78,10.45,10.45,0,0,1,5.2-1.3,9,9,0,0,1,4.52,1.1A9.56,9.56,0,0,1,4592.18,37.25Z" style="fill:#fff"/><path d="M4671.24,68.26h.64a5.67,5.67,0,0,1,4.1,1.34,5.43,5.43,0,0,1,1.36,4,5.37,5.37,0,0,1-1.39,4.15c-.93.85-2.5,1.27-4.71,1.27h-12c-2.18,0-3.75-.42-4.71-1.27a5.27,5.27,0,0,1-1.44-4.15,5.36,5.36,0,0,1,1.39-4,5.82,5.82,0,0,1,4.17-1.34h.59V54.15c0-3.91-.55-6.68-1.64-8.33s-2.9-2.46-5.44-2.46a8.36,8.36,0,0,0-6.62,3,11.53,11.53,0,0,0-2.56,7.84V68.26h.58a5.76,5.76,0,0,1,4.16,1.34,5.43,5.43,0,0,1,1.36,4,5.33,5.33,0,0,1-1.41,4.15c-.95.85-2.51,1.27-4.69,1.27h-12.11c-2.18,0-3.74-.42-4.69-1.27a5.33,5.33,0,0,1-1.41-4.15,5.43,5.43,0,0,1,1.36-4,5.74,5.74,0,0,1,4.15-1.34h.59V44.63H4630a5.45,5.45,0,0,1-4-1.35,5.22,5.22,0,0,1-1.37-3.93,5.35,5.35,0,0,1,1.41-4.15c1-.84,2.54-1.27,4.79-1.27h8.3a3.42,3.42,0,0,1,2.08.54,1.84,1.84,0,0,1,.7,1.56v3.81a14.71,14.71,0,0,1,5.74-5.3,17.64,17.64,0,0,1,8.08-1.78q7.82,0,11.65,4.74T4671.24,52Z" style="fill:#fff"/><path d="M4710.74,32.86q11.86,0,19.24,6.64a21.89,21.89,0,0,1,7.37,17A21.93,21.93,0,0,1,4730,73.63q-7.38,6.65-19.24,6.64t-19.19-6.64a22,22,0,0,1-7.37-17.09,21.88,21.88,0,0,1,7.4-17Q4699,32.86,4710.74,32.86Zm0,10.3a12.65,12.65,0,0,0-9.4,3.74,13,13,0,0,0-3.68,9.54,13.42,13.42,0,0,0,3.68,9.7,13.49,13.49,0,0,0,18.83,0,13.4,13.4,0,0,0,3.71-9.7,13,13,0,0,0-3.69-9.54A12.72,12.72,0,0,0,4710.74,43.16Z" style="fill:#fff"/><path d="M4761.47,74.46V87.74h6.21c2.21,0,3.8.43,4.76,1.27a5.28,5.28,0,0,1,1.44,4.15,5.1,5.1,0,0,1-1.42,4c-.94.82-2.54,1.23-4.78,1.23H4747c-2.24,0-3.82-.4-4.73-1.2s-1.37-2.16-1.37-4.08a5.38,5.38,0,0,1,1.39-4.15c.93-.84,2.5-1.27,4.71-1.27h2.88V44.63h-.78a5.36,5.36,0,0,1-3.95-1.37,5.43,5.43,0,0,1-1.37-4c0-1.92.46-3.29,1.37-4.11s2.49-1.22,4.73-1.22h7.52a3.42,3.42,0,0,1,2.1.52,1.74,1.74,0,0,1,.69,1.49v3.51a16.14,16.14,0,0,1,6-5,18.25,18.25,0,0,1,8-1.69q10,0,16.6,6.4a21.47,21.47,0,0,1,6.59,16.11q0,10.15-6.39,16.82a21.39,21.39,0,0,1-16.12,6.67,24.23,24.23,0,0,1-7.39-1.1A17.75,17.75,0,0,1,4761.47,74.46Zm11.28-31.3a10.12,10.12,0,0,0-8,3.57,13.35,13.35,0,0,0-3.12,9.13,13.36,13.36,0,0,0,3.12,9.13,10.68,10.68,0,0,0,15.95,0,13.28,13.28,0,0,0,3.15-9.1,13.35,13.35,0,0,0-3.13-9.13A10.16,10.16,0,0,0,4772.75,43.16Z" style="fill:#fff"/><path d="M4839.72,39.45V35.94a1.76,1.76,0,0,1,.68-1.49,3.3,3.3,0,0,1,2-.52h7.16c2.15,0,3.67.42,4.54,1.25a5.44,5.44,0,0,1,1.31,4.08,5.63,5.63,0,0,1-1.29,4,4.91,4.91,0,0,1-3.76,1.37h-.8V87.74h2.81c2.09,0,3.59.43,4.49,1.27a5.45,5.45,0,0,1,1.36,4.15,5.26,5.26,0,0,1-1.34,4c-.88.82-2.39,1.23-4.51,1.23h-19.85c-2.15,0-3.66-.4-4.54-1.2s-1.31-2.16-1.31-4.08.45-3.34,1.34-4.17,2.39-1.25,4.51-1.25h5.95V74.46a16.84,16.84,0,0,1-5.74,3.2,22.52,22.52,0,0,1-7.13,1.1,19.9,19.9,0,0,1-15.36-6.67q-6.07-6.66-6.08-16.82a22.09,22.09,0,0,1,6.25-16.11,21.23,21.23,0,0,1,15.89-6.4,16.93,16.93,0,0,1,7.63,1.69A15.26,15.26,0,0,1,4839.72,39.45Zm-12.07,3.71a9.53,9.53,0,0,0-7.63,3.57,13.68,13.68,0,0,0-3,9.13,13.7,13.7,0,0,0,3,9.13,10,10,0,0,0,15.28,0,13.65,13.65,0,0,0,3-9.1,13.68,13.68,0,0,0-3-9.13A9.55,9.55,0,0,0,4827.65,43.16Z" style="fill:#fff"/><path d="M4888.57,52.54V68.36h11.53c2.21,0,3.78.4,4.71,1.22s1.39,2.16,1.39,4a5.37,5.37,0,0,1-1.39,4.15c-.93.85-2.5,1.27-4.71,1.27h-27.3c-2.24,0-3.84-.42-4.78-1.27a5.3,5.3,0,0,1-1.42-4.15,5.13,5.13,0,0,1,1.4-4c.93-.82,2.54-1.22,4.83-1.22h3.73V44.63h-2.11c-2.23,0-3.81-.42-4.74-1.25a5.28,5.28,0,0,1-1.4-4.12c0-1.92.45-3.29,1.34-4.11s2.48-1.22,4.76-1.22h10.4a3.3,3.3,0,0,1,2.06.57,1.83,1.83,0,0,1,.73,1.53v7.23a39.47,39.47,0,0,1,9.93-8.15,20.93,20.93,0,0,1,9.94-2.45,12.3,12.3,0,0,1,7.67,2.18,7,7,0,0,1,2.83,5.83,6.11,6.11,0,0,1-1.95,4.66,7,7,0,0,1-5,1.84,11.34,11.34,0,0,1-5.2-1.62,11.35,11.35,0,0,0-4.18-1.61,10.52,10.52,0,0,0-5.52,2.1A50.76,50.76,0,0,0,4888.57,52.54Z" style="fill:#fff"/><path d="M4937.89,78.37a10.78,10.78,0,0,1-2.61,1.49,7.75,7.75,0,0,1-2.76.51,3.49,3.49,0,0,1-3-1.12c-.57-.75-.86-2.15-.86-4.2v-6.5q0-3.22,1.08-4.56c.71-.9,1.95-1.35,3.71-1.35a5.39,5.39,0,0,1,4.68,2.79,17.58,17.58,0,0,0,1.81,2.24,15.71,15.71,0,0,0,5.57,3.23,22.61,22.61,0,0,0,7.22,1.07,10.1,10.1,0,0,0,5.62-1.37,4.11,4.11,0,0,0,2.1-3.56q0-4-11.28-5.47c-1.66-.19-3-.37-3.91-.54q-8.49-1.17-12.64-4.61a11.4,11.4,0,0,1-4.15-9.25q0-6.89,5-10.65t14.21-3.76a43.17,43.17,0,0,1,6.51.51,50.76,50.76,0,0,1,6.86,1.59,7.35,7.35,0,0,1,2.18-1.81,5.54,5.54,0,0,1,2.56-.58,3.77,3.77,0,0,1,3.05,1.24,5.69,5.69,0,0,1,1.05,3.74v6a4.57,4.57,0,0,1-1.07,3.24,3.94,3.94,0,0,1-3,1.15q-2,0-6.86-3.49a16.61,16.61,0,0,0-9.74-3.49,11.66,11.66,0,0,0-5.91,1.24,3.84,3.84,0,0,0-2.1,3.44q0,3.42,8.79,4.59c1.69.2,3,.36,4,.49q11,1.62,15.17,4.81t4.12,9.5q0,7.38-5.44,11.4t-15.46,4a53.84,53.84,0,0,1-7.52-.51A52,52,0,0,1,4937.89,78.37Z" style="fill:#fff"/><path d="M5007.42,36.67h14.89q3.38,0,4.79,1.22a5.1,5.1,0,0,1,1.42,4,5.27,5.27,0,0,1-1.44,4.15c-1,.85-2.55,1.27-4.77,1.27h-14.89v12.5q0,5.28,1.61,7.23t5.67,2a23.52,23.52,0,0,0,9-2.2q5.17-2.19,6.94-2.19a4.52,4.52,0,0,1,3.44,1.58,5.52,5.52,0,0,1,1.44,3.84q0,3.75-6.81,6.86a37,37,0,0,1-15.46,3.1,26.18,26.18,0,0,1-8.84-1.37,13.92,13.92,0,0,1-6-3.91,11.67,11.67,0,0,1-2.3-4.68,42.83,42.83,0,0,1-.68-9.13V47.36h-4.59c-2.21,0-3.78-.42-4.71-1.27a5.37,5.37,0,0,1-1.39-4.15c0-1.92.45-3.28,1.36-4.08s2.49-1.19,4.74-1.19h4.59V25.24q0-3.36,1.39-4.73c.93-.92,2.47-1.37,4.62-1.37s3.68.45,4.61,1.37,1.39,2.49,1.39,4.73Z" style="fill:#fff"/><path d="M5078.52,44.63h-.79a5.37,5.37,0,0,1-4-1.37,5.51,5.51,0,0,1-1.34-4c0-1.92.46-3.29,1.37-4.11s2.49-1.22,4.74-1.22h9.22a3.25,3.25,0,0,1,2.05.57,1.82,1.82,0,0,1,.74,1.53V68.36h.78a5.52,5.52,0,0,1,4,1.36,5.29,5.29,0,0,1,1.39,3.91c0,2-.47,3.35-1.42,4.18s-2.54,1.24-4.78,1.24h-8.21a3.32,3.32,0,0,1-2.12-.59,1.93,1.93,0,0,1-.76-1.61V73.14a15.4,15.4,0,0,1-5.73,5.28,17.21,17.21,0,0,1-8,1.75q-7.86,0-11.67-4.73t-3.81-14.5V44.63h-.83a5.43,5.43,0,0,1-4-1.37,5.43,5.43,0,0,1-1.37-4,5.28,5.28,0,0,1,1.39-4.11q1.39-1.21,4.81-1.22h9.18a3.09,3.09,0,0,1,2,.57,1.88,1.88,0,0,1,.68,1.53V58.74q0,6,1.66,8.45c1.11,1.62,2.93,2.44,5.47,2.44a8.41,8.41,0,0,0,6.66-3,11.59,11.59,0,0,0,2.62-7.88Z" style="fill:#fff"/><path d="M5122.22,44.63l8.79,20.8,9.22-20.8h-.78a5.54,5.54,0,0,1-4-1.37,5.4,5.4,0,0,1-1.39-4,5.28,5.28,0,0,1,1.39-4.11c.93-.81,2.54-1.22,4.81-1.22h11.48q3.42,0,4.81,1.25a5.23,5.23,0,0,1,1.39,4.08,5.43,5.43,0,0,1-1.37,4,5.42,5.42,0,0,1-4,1.37h-.83l-14.5,30.81q-1.62,3.32-2.91,4.07a8,8,0,0,1-4,.76q-4.87,0-6.59-4.1l-.29-.73-13.63-30.81H5109a5.54,5.54,0,0,1-4-1.37,5.4,5.4,0,0,1-1.39-4c0-1.92.47-3.29,1.42-4.11s2.54-1.22,4.78-1.22h12.41c2.24,0,3.84.42,4.78,1.25a5.16,5.16,0,0,1,1.42,4.08,5.4,5.4,0,0,1-1.39,4,5.46,5.46,0,0,1-4,1.37Z" style="fill:#fff"/><path d="M5177.28,44.63l3.4,24,4.55-18.6a7.4,7.4,0,0,1,1.83-3.86,4.94,4.94,0,0,1,3.27-.93,5.12,5.12,0,0,1,3.27.88c.74.59,1.36,1.89,1.87,3.91l4.72,18.6,3.24-24h-.73a4.36,4.36,0,0,1-3.48-1.37,5.9,5.9,0,0,1-1.19-4c0-1.92.4-3.29,1.21-4.11s2.2-1.22,4.19-1.22h10c1.95,0,3.34.42,4.16,1.25a5.66,5.66,0,0,1,1.24,4.08,5.85,5.85,0,0,1-1.22,4,4.37,4.37,0,0,1-3.46,1.37h-.72l-5.32,30.81a5.48,5.48,0,0,1-2,3.68,7.34,7.34,0,0,1-4.47,1.15,7.23,7.23,0,0,1-4.42-1.15,6.48,6.48,0,0,1-2.21-3.68l-5-19-4.42,19a5.87,5.87,0,0,1-2.21,3.64,7.6,7.6,0,0,1-4.5,1.19,7.17,7.17,0,0,1-4.43-1.15,5.57,5.57,0,0,1-1.91-3.68l-5.4-30.81h-.72a4.26,4.26,0,0,1-3.42-1.37,6,6,0,0,1-1.17-4,5.75,5.75,0,0,1,1.19-4.08c.79-.83,2.17-1.25,4.12-1.25h10.08c1.95,0,3.33.42,4.12,1.25a5.8,5.8,0,0,1,1.19,4.08,6,6,0,0,1-1.17,4,4.26,4.26,0,0,1-3.42,1.37Z" style="fill:#fff"/><path d="M5245.85,43.75l5.18,6.1,5.61-6.1a2.57,2.57,0,0,1-2.34-1.15,6.93,6.93,0,0,1-.74-3.64,5.17,5.17,0,0,1,1.25-3.73,4.83,4.83,0,0,1,3.64-1.3h10.4c2.18,0,3.74.43,4.69,1.27a5.35,5.35,0,0,1,1.41,4.15,5.18,5.18,0,0,1-1.39,4,6.15,6.15,0,0,1-4.32,1.3h-1.91l-10.2,11.13,12.21,12.5h1.12a6.07,6.07,0,0,1,4.27,1.34,5.26,5.26,0,0,1,1.44,4,5.18,5.18,0,0,1-1.49,4.15q-1.49,1.27-4.81,1.27h-11.81a4.82,4.82,0,0,1-3.64-1.29,5.12,5.12,0,0,1-1.25-3.69,7,7,0,0,1,.76-3.69,2.69,2.69,0,0,1,2.42-1.14h.39l-6.2-6.89-6,6.89h.2a2.92,2.92,0,0,1,2.54,1.09,6,6,0,0,1,.78,3.4,5.79,5.79,0,0,1-1.2,4,4.81,4.81,0,0,1-3.69,1.29h-10.4c-2.21,0-3.78-.42-4.71-1.27a5.37,5.37,0,0,1-1.39-4.15,4.74,4.74,0,0,1,5.37-5.37h.93l11.57-11.72-11.18-11.91h-1.51a6.32,6.32,0,0,1-4.35-1.32,5,5,0,0,1-1.46-4,5.22,5.22,0,0,1,1.46-4.15c1-.84,2.55-1.27,4.74-1.27H5244a4.75,4.75,0,0,1,3.69,1.32,5.81,5.81,0,0,1,1.2,4,6.07,6.07,0,0,1-.76,3.36A2.62,2.62,0,0,1,5245.85,43.75Z" style="fill:#fff"/><path d="M5302.25,44.63l8.79,20.8,9.22-20.8h-.78a5.52,5.52,0,0,1-4-1.37,5.4,5.4,0,0,1-1.39-4,5.28,5.28,0,0,1,1.39-4.11q1.4-1.21,4.81-1.22h11.48q3.42,0,4.81,1.25a5.23,5.23,0,0,1,1.39,4.08,5.43,5.43,0,0,1-1.37,4,5.42,5.42,0,0,1-4,1.37h-.83l-20.07,43.11h2.2c2.21,0,3.8.43,4.76,1.27a5.28,5.28,0,0,1,1.44,4.15,5.19,5.19,0,0,1-1.44,4.1q-1.44,1.27-4.76,1.27h-21.39q-3.37,0-4.78-1.24c-.95-.83-1.42-2.21-1.42-4.13A5.32,5.32,0,0,1,5287.7,89c.94-.84,2.53-1.27,4.78-1.27h7.57l4.59-9.81-14.8-33.3h-.78a5.52,5.52,0,0,1-4-1.37,5.4,5.4,0,0,1-1.39-4c0-1.92.47-3.29,1.42-4.11s2.54-1.22,4.78-1.22h12.41c2.24,0,3.84.42,4.78,1.25a5.2,5.2,0,0,1,1.42,4.08,5.4,5.4,0,0,1-1.39,4,5.46,5.46,0,0,1-4,1.37Z" style="fill:#fff"/><path d="M5364.75,69.24h15.91l.3-3.37c.19-2.51.66-4.15,1.39-4.93a4.92,4.92,0,0,1,3.73-1.18,4.44,4.44,0,0,1,3.67,1.4c.74.92,1.12,2.49,1.12,4.71V73c0,2.58-.31,4.22-.93,4.94s-2.18,1.07-4.69,1.07h-30.37a6.77,6.77,0,0,1-4.42-1.24,4.49,4.49,0,0,1-1.49-3.64,6.89,6.89,0,0,1,.64-2.79,9.69,9.69,0,0,1,1.76-2.63l23.68-25h-15V46a7.54,7.54,0,0,1-1.2,4.67,4.38,4.38,0,0,1-3.68,1.53c-1.83,0-3.12-.45-3.89-1.36s-1.14-2.53-1.14-4.84v-6.2q0-3.81.9-4.86t4.71-1h28.81a6.89,6.89,0,0,1,4.52,1.27,4.82,4.82,0,0,1,1.49,3.86,5.75,5.75,0,0,1-.66,2.59,11.86,11.86,0,0,1-1.93,2.68Z" style="fill:#fff"/><path d="M5431,56.54a13.13,13.13,0,0,1,5.12,5.57q1.42,3.17,1.42,10.93v7.23q0,4.83.81,6.08a4.45,4.45,0,0,0,3,1.69,15.56,15.56,0,0,0,1.61.29q5.52.83,5.52,5.42a4.5,4.5,0,0,1-1.61,3.61,6.45,6.45,0,0,1-4.3,1.37,20.05,20.05,0,0,1-6.62-1.12,15,15,0,0,1-5.3-3.08,11.4,11.4,0,0,1-3.24-5.42q-1-3.31-1-11.38V72.07q0-8.79-8.1-10.11a2.44,2.44,0,0,0-.49-.1,5.71,5.71,0,0,1-3.47-1.66,5.38,5.38,0,0,1-1.12-3.66,5.3,5.3,0,0,1,.95-3.32,5.47,5.47,0,0,1,3.06-1.76c.61-.19,1.51-.4,2.68-.63q6.49-1.23,6.49-9.67V35.35a50.37,50.37,0,0,1,.74-10.47,13.59,13.59,0,0,1,2.49-5.25,13.4,13.4,0,0,1,5.49-3.88,20.07,20.07,0,0,1,7.59-1.4,6.11,6.11,0,0,1,4.15,1.35,4.44,4.44,0,0,1,1.57,3.54q0,4.59-5.91,5.51l-.78.1a4.73,4.73,0,0,0-3.37,1.78q-.93,1.39-.93,6.33v7.17q0,7.34-1.46,10.75A12.44,12.44,0,0,1,5431,56.54Z" style="fill:#fff"/><path d="M5486.18,1.76h9.43v101.9h-9.43Z" style="fill:#fff"/><path d="M5550.78,56.54a12.49,12.49,0,0,1-5-5.66q-1.45-3.42-1.46-10.75V29.83a4.8,4.8,0,0,0-1.17-3.49,6.74,6.74,0,0,0-3.91-1.59q-3.57-.48-4.74-1.66a4.85,4.85,0,0,1-1.17-3.56,4.92,4.92,0,0,1,1.49-3.81,6,6,0,0,1,4.22-1.37,20.48,20.48,0,0,1,6.74,1.08,14.3,14.3,0,0,1,5.23,3,12,12,0,0,1,3.37,5.44q1,3.24,1,11.45v5.81c0,5.66,2.23,8.94,6.69,9.81a24.24,24.24,0,0,1,2.49.49,5.47,5.47,0,0,1,3,1.79,5.18,5.18,0,0,1,1,3.29,5.4,5.4,0,0,1-1,3.44,5.33,5.33,0,0,1-3.08,1.79l-2.19.39q-6.89,1.32-6.89,9.91v5.66a52.32,52.32,0,0,1-.73,10.72,12.43,12.43,0,0,1-2.49,5.1,13.5,13.5,0,0,1-5.49,3.74,20,20,0,0,1-7.5,1.44,6.16,6.16,0,0,1-4.27-1.39,5,5,0,0,1-1.54-3.88,4.73,4.73,0,0,1,1.15-3.47q1.14-1.17,4.76-1.76c2-.29,3.33-.83,4-1.61a5.56,5.56,0,0,0,1.05-3.76V73q0-7.76,1.41-10.93A13.28,13.28,0,0,1,5550.78,56.54Z" style="fill:#fff"/><path d="M5585.89,50.44q0-3.37,4.56-6.37a18.25,18.25,0,0,1,10.28-3,39.53,39.53,0,0,1,10.6,2.1q6.89,2.1,9.76,2.1a13.9,13.9,0,0,0,6.42-1.76c2.27-1.17,3.8-1.75,4.62-1.75a3.48,3.48,0,0,1,2.73,1.14,4.41,4.41,0,0,1,1,3.06q0,3.46-4.54,6.44a18.11,18.11,0,0,1-10.16,3,40,40,0,0,1-10.77-2.1q-6.9-2.1-9.69-2.1a14,14,0,0,0-6.44,1.78q-3.42,1.78-4.59,1.78a3.58,3.58,0,0,1-2.79-1.14A4.59,4.59,0,0,1,5585.89,50.44Z" style="fill:#fff"/></svg>
