<?xml version="1.0" encoding="utf-8"?>
<!-- Generator: Adobe Illustrator 22.0.1, SVG Export Plug-In . SVG Version: 6.00 Build 0)  -->
<svg version="1.1" id="Layer_1" xmlns="http://www.w3.org/2000/svg" xmlns:xlink="http://www.w3.org/1999/xlink" x="0px" y="0px"
	 viewBox="0 0 495 101" style="enable-background:new 0 0 495 101;" xml:space="preserve">
<style type="text/css">
	.st0{fill:#FFFFFF;}
</style>
<title>right_incongruent</title>
<path class="st0" d="M188.3,82.9c2.1,1.1,3.9,2.5,5.4,4.3c0.9,1.4,1.4,3.1,1.3,4.8c0,2.4-0.9,4.7-2.5,6.4c-1.5,1.7-3.7,2.6-5.9,2.6
	c-1.4,0-3.6-0.9-6.5-2.6l-80.1-47l80.1-47c2.9-1.6,5.1-2.5,6.5-2.5c2.3,0,4.4,0.9,5.9,2.6c1.6,1.7,2.6,4,2.5,6.3
	c0.1,1.7-0.4,3.4-1.3,4.8c-1.5,1.8-3.3,3.2-5.4,4.3l-53.8,31.5L188.3,82.9z"/>
<path class="st0" d="M260.5,51.5L206.7,20c-2-1.1-3.9-2.5-5.4-4.3c-0.9-1.4-1.4-3.1-1.3-4.8c0-2.4,0.9-4.6,2.5-6.3
	c1.5-1.7,3.7-2.6,5.9-2.6c1.4,0,3.6,0.8,6.5,2.5l80.1,47l-80.1,47c-2.9,1.7-5.1,2.6-6.5,2.6c-2.3,0-4.4-1-5.9-2.6
	c-1.7-1.7-2.6-4-2.5-6.4c-0.1-1.7,0.4-3.4,1.3-4.8c1.5-1.8,3.3-3.2,5.4-4.3L260.5,51.5z"/>
<path class="st0" d="M488.3,82.9c2.1,1.1,3.9,2.5,5.4,4.3c0.9,1.4,1.4,3.1,1.3,4.8c0,2.4-0.9,4.7-2.5,6.4c-1.5,1.7-3.7,2.6-5.9,2.6
	c-1.4,0-3.6-0.9-6.5-2.6l-80.1-47l80.1-47c2.9-1.6,5.1-2.5,6.5-2.5c2.3,0,4.4,0.9,5.9,2.6c1.6,1.7,2.6,4,2.5,6.3
	c0.1,1.7-0.4,3.4-1.3,4.8c-1.5,1.8-3.3,3.2-5.4,4.3l-53.8,31.5L488.3,82.9z"/>
<path class="st0" d="M88.3,82.9c2.1,1.1,3.9,2.5,5.4,4.3c0.9,1.4,1.4,3.1,1.3,4.8c0,2.4-0.9,4.7-2.5,6.4c-1.5,1.7-3.7,2.6-5.9,2.6
	c-1.4,0-3.6-0.9-6.5-2.6L0,51.5l80.1-47C83,2.8,85.2,2,86.6,2c2.3,0,4.4,0.9,5.9,2.6c1.6,1.7,2.6,4,2.5,6.3c0.1,1.7-0.4,3.4-1.3,4.8
	c-1.5,1.8-3.3,3.2-5.4,4.3L34.5,51.5L88.3,82.9z"/>
<path class="st0" d="M388.3,80.9c2.1,1.1,3.9,2.5,5.4,4.3c0.9,1.4,1.4,3.1,1.3,4.8c0,2.4-0.9,4.7-2.5,6.4c-1.5,1.7-3.7,2.6-5.9,2.6
	c-1.4,0-3.6-0.9-6.5-2.6l-80.1-47l80.1-47c2.9-1.6,5.1-2.5,6.5-2.5c2.3,0,4.4,1,5.9,2.6c1.6,1.7,2.6,4,2.5,6.3
	c0.1,1.7-0.4,3.4-1.3,4.8c-1.5,1.8-3.3,3.2-5.4,4.3l-53.8,31.5L388.3,80.9z"/>
</svg>
