M48
;Layer_Color=9474304
;FILE_FORMAT=2:5
INCH,LZ
;TYPE=PLATED
T1F00S00C0.00600
T2F00S00C0.03000
T3F00S00C0.03500
T4F00S00C0.03622
T5F00S00C0.04000
T6F00S00C0.04331
T7F00S00C0.04500
T8F00S00C0.12000
T9F00S00C0.12500
;TYPE=NON_PLATED
T10F00S00C0.03900
T11F00S00C0.09055
T12F00S00C0.09350
%
T01
X05743Y00335
X05625Y0047
X05703Y01147
X057Y01312
X05182Y01264
X05016Y01271
X0503Y0122
X05066Y0117
X0506Y01124
X05075Y01078
X05095Y01018
X05097Y00975
X05103Y00915
X05116Y0088
X0518Y00841
X05208Y00823
X05219Y00767
X05231Y0072
X05197Y00667
X0518Y00642
X05197Y00567
X05214Y00541
X05234Y00524
X05288Y00482
X05434Y00502
X0510811Y00584
X05094Y00601
X05082Y00621
X05068Y00765
X05042Y00777
X05043Y00811
X05028Y00841
X05006Y00842
X04992Y00866
X04977Y00905
X04949Y00931
X04886Y00975
X04864Y01009
X04852Y01043
X0478Y01058
X04789Y00998
X04806Y00953
X04825Y00894
X04857Y00793
X04859Y00745
X04885Y007
X04685Y00693
X04621Y00764
X04625Y00793
X04626Y00823
X0461439Y008475
X04648Y0086
X04627Y00886
X04632Y00908
X04629Y0093
X04615Y0113
X04628Y01157
X04609Y01175
X04629Y01201
X04628Y0124
X04611Y01258
X04629Y0128
X04605Y01218
X04684Y01371
X04739Y01399
X04765Y01368
X04787Y01337
X04805Y01319
X04886Y01304
X04885Y0128
X04868Y01262
X04864Y0124
X04845Y0122
X04829Y01201
X04814Y01181
X04798Y01162
X0478Y01142
X04928Y01151
X04943Y01124
X04912Y01198
X0491Y01247
X04864Y0136
X04852Y01403
X04989Y01383
X05003Y01344
X05199Y01018
X04488Y01034
X04392Y00976
X04391Y00947
X04392Y00915
Y00883
X0439Y00835
X04392Y00808
X04393Y00774
Y00743
Y00661
X04392Y00634
X0439Y00597
X04391Y00566
X04393Y00523
Y00492
X04392Y00461
X04394Y00429
X04321Y00416
X04298Y00415
X04288Y00452
X04322Y00458
Y00484
X04321Y00514
Y00548
Y00581
Y00614
X04322Y00649
X04311Y00735
X04294Y00768
X04284Y008
X04271Y00829
X04258Y00875
X04245Y00909
Y00946
X0419Y0097
X04159Y0098
X04112Y01038
X04127Y01068
Y01108
Y01147
Y01186
Y01225
X04107Y01268
X0412Y01358
X04075Y01351
X04192Y01369
X04243Y01265
X04307Y01249
X04312Y01218
X04308Y0118
X0431Y01148
X04312Y01118
Y01083
X0439Y01098
Y01131
Y01162
Y01194
X04392Y01237
X04391Y0127
Y01296
Y01329
X04315Y01324
X04311Y01295
X0409Y0116
X04053Y0111221
X04047Y01031
X04076Y01028
X04109Y00911
X04209Y00896
X04211Y00815
X04113Y00798
X04134Y00746
X0419Y00696
X04224Y00638
X04239Y00601
X0425Y00559
X04263Y00519
X04271Y00484
X04235Y00266
X04159Y0031055
X04135Y00295
X04074Y00376
X04055Y00357
X04054Y0044291
X04074Y00686
X04035Y00794
X04056Y00816
X04011Y00834
X04335Y00848
X04614Y00617
X04627Y00594
X0461Y00577
X04632Y00557
X04617Y00536
X04637Y00514
X04609Y00496
X04619Y00467
X0468504Y00463
X04537Y00426
X04481Y00364
X04413Y00337
X0436Y00227
X04248Y00088
X04019Y00084
X04011Y0016831
X04484Y00085
X04685Y00248
X05334Y00122
X03793Y00083
X03811Y00197
X03839Y00256
X03833Y00366
X03858Y00367
X03937Y00364
X03994Y00362
X03906Y00406
X03943Y00467
X03857Y00464
X03798
X03814Y00539
X0384842Y0061024
X03833Y00683
X03861Y00686
X03894Y00676
X03919Y00693
X03943Y0068596
X03979Y00704
X03987Y00588
X03951Y00583
X03699Y00578
X03681Y00521
X03682Y00499
X03669Y00469
X03638Y00439
X0363204Y0041315
X03651Y00401
X03573Y00396
X03603Y00469
X03561Y00498
X03356Y00529
X03401Y00729
X03373Y00772
X03457Y00883
X0349Y00976
X03487Y01084
X03463Y01068
X03401Y01054
X03355Y01028
X03379Y01124
X03417Y01134
X03394Y0118
X03357Y01189
X03351Y01167
X03316Y01145
X03405Y01241
X03434Y01321
X03417Y01347
X03479Y01375
X03553Y01335
X0357Y0131689
X03602Y01371
X037Y01251
X03679Y01181
X03657Y0116
X03671Y01142
X03653Y01105
X03633Y01086
X03674Y01066
X03746Y0103
X03858Y01046
X03832Y01091
X03859Y01132
X03796Y01128
X03862Y01203
X03846Y01232
X03888Y01282
X03889Y01349
X03913Y01363
X03939Y01374
X03977Y0137
X03967Y01336
X03985Y01257
X03911Y01172
X03937Y01133
X0391Y01089
X03937Y01037
X03991Y01033
X03839Y00921
X03853Y00889
X03843Y00853
X03878Y00796
X03767Y00747
X03697Y00651
X0360304Y00692
X03603Y0092
X03573Y01046
X03549Y01118
X03607Y01131
X03568Y01181
X03804Y0132
X03829Y01346
X03861Y01364
X03304Y01363
X03012Y01329
X02988Y01375
X02967Y01277
X02908Y0127
X02949Y01196
X03029Y01197
X02994Y01148
X02972Y01103
X03004Y01077
X02877
X02912Y01112
X02863Y01172
X0275Y01142
X0265135Y0112773
X02615Y01071
X02676Y00978
X02806Y0097795
X02845Y00822
X02816Y00786
X02876Y00779
X02912Y00769
X02996Y00643
X0296Y00475
X02924Y00493
X03033Y00413
X02998Y00255
X02657Y00303
X0253Y00347
X02509Y00527
X02565Y00547
X02525Y00644
X02473Y00677
X02527Y00898
X02592Y00931
X0258Y01204
X02575Y0126766
X02549Y01266
X0252657Y0123257
X02472Y01149
X02643Y01272
X02679Y01259
X0262Y0131
X02599Y01331
X02778Y01337
X03081Y01137
Y00876
X0360304Y00258
X03748Y00356
X02285Y0037402
X02216Y00396
X02239Y00488
X0228Y00512
X02246Y00565
X02247Y00635
X02198
X02157Y00662
X02115Y00693
X02035
X01994Y00719
X0199Y00656
X01945
X01949Y00694
X0189Y00715
X01853Y00718
X01802Y00738
X01884Y00661
X01858Y00634
X01839Y00515
X01775Y00525
X0175
X01725
X017
X01674Y00461
X01614Y00476
X01556Y00492
X01496Y00471
X01389Y00659
X01441Y00896
Y00942
X01443Y00995
X01562Y01
X01581Y00951
X01613Y00936
Y01057
X01743Y01157
X01817Y00962
Y00938
Y00913
X01888Y0093
Y0096
Y00894
X0189Y00849
X0195Y00916
Y00943
Y0097
X01993Y00906
X02029Y00848
X02157Y00805
X02184Y00773
X0219488Y00719
X02161Y00554
X02095Y00566
X02096Y00506
X02097Y00478
X02115Y00441
X02063Y00454
X02053Y00413
X01988Y00394
X01928
X01947Y00444
X0196959
X0198459Y00459
X01971Y00488
X01925Y00481
X02023Y00468
X02025Y00511
X0207Y00637
X02164Y00467
X02145Y00335
X01954Y00315
X01955Y00222
X01859Y00405
X01801Y0046
X02345Y0047
Y00237
X02197Y00917
X02212Y00954
X02126Y00995
X02152Y01208
X02186Y01212
X02211Y01182
X02167Y01249
X02104Y01216
X02031Y01157
X02029Y013
X02025Y0133
X01852Y01376
X01581Y01345
X02298Y01336
X02304Y01311
X02329Y01316
X02339Y01254
X02378Y01269
X00965Y01032
X00884Y00788
X00889Y00698
X01391Y00273
X00588Y00494
X00646Y00555
X00608Y0069
X00663Y00727
X00616Y00786
X00638Y00853
X00647Y00881
X00599Y00918
X00725Y00905
X00702Y00839
X00798Y01033
X00465Y01767
X00452Y01779
X0044Y01791
X00444Y02171
X0062Y02135
X00608Y02091
X00604Y02039
X00608Y02007
X00682
X00677Y02139
X00711Y02146
X00738Y02221
X00602Y02248
X00662Y02386
X00816Y02382
X00878Y02147
X00445Y02491
X00952Y02381
X00888Y02106
X00903Y01999
X01452Y02003
X01597Y0203
X01556Y02197
X01484Y02219
X01485Y02319
X01791Y02091
X02011Y02048
X02035Y01996
X02073Y01968
X02195Y01935
X02197Y0179
X02167Y01741
X02149Y01824
X02268Y01821
X02354Y01718
Y01685
X02376Y01677
X02305Y01655
X02333Y01608
X02389Y01595
X02322Y0141732
X02206Y01415
X02194Y01458
X02152Y01453
X02057Y01476
X02036Y01564
X02044Y01592
X02043Y01641
X02071Y01642
X02039Y01715
X01993Y01709
X01959Y01808
X01792Y01593
X01649Y0152
X01404Y01477
X02402Y01879
X02266Y02132
X02424Y02256
X02426Y02728
X02394Y0271
X0237Y0276
X02397Y02784
X02114Y02549
X01875Y0255
X02472Y02673
X0251Y0272
X02606Y0271
X0261Y02761
X0245Y02878
X02914Y02883
X02954Y027
X0296Y0258
X02794Y02557
X028Y02258
X02776Y02219
X02592Y02198
X02526Y02316
X02563Y02423
X02545Y02031
X02493Y02008
X02495Y019
X02618Y01969
X02685Y01832
X02676Y01757
X02657Y01715
X02671Y01688
X0277143Y0163758
X02813Y01624
X02814Y0175197
X02771Y01739
X02575Y01756
X02656Y01511
X02752Y01521
X02747Y01436
X02904Y01419
X03022Y01644
X03023Y01795
X03337Y01777
X03341Y01718
X03375Y01701
X03392Y01637
X03462Y01618
X03449Y01694
X0348Y01814
X03566Y01866
X03605Y01793
X03645Y01779
X03634Y01754
X03678Y01739
X03669Y01806
X03679Y0183
X03682Y01852
X03687Y0191
X03685Y01995
X03662Y02059
X0360304Y02045
X03602Y0227
X03638Y02389
X03648Y02421
X03673Y02438
X03686Y02478
X03685Y0252
X03657Y025
X03558
X03411Y02557
X03337Y02519
Y02707
X0333Y0291
X03411Y02908
X03197Y02911
X03146Y02896
X0313Y02776
X0360304Y02711
X03679Y02657
X03691Y02578
X03799Y0254
X03796Y02461
X03859Y02463
X03937Y02464
X03898Y02415
X03859Y02369
X03937
X03996Y02362
X03752Y02364
X03684Y0239
X03837Y02261
X03857Y02207
X03815Y02194
X03854Y02132
X03878Y0213
X03911Y02131
Y02018
X03887Y02017
X03829Y02016
X03847Y0194882
X03889
X03947Y01925
X03949Y02023
X03993Y02021
X03938Y01796
X03912Y0175
X03936Y01699
X03859Y01706
X03858Y01794
X03796
X03845Y01872
X03748Y01692
X03636Y01687
X03601Y01596
X0384Y01594
X03856Y01561
X03808Y01525
X03797Y01411
X03878Y0146
X03393Y0152
X03429Y01916
X03359Y01977
X03308Y01879
X03409Y02118
X0348Y02177
X03859Y02597
X03937
X03978Y02593
X03977Y02694
X03938Y02684
X03898Y02688
X03861Y02689
X0382Y02687
Y02798
X03843Y02814
X03879Y02803
X03907Y02802
X02474Y01514
X02504Y01431
X04036Y01465
X04057Y01477
X0401Y0149705
X04101Y01534
X0412Y01588
X04159Y01643
X04123Y01718
X041Y01702
X04074
X04012Y01715
X04055Y0177165
X04129Y01775
Y01813
Y01854
X04124Y01892
X04099Y01973
X0414Y02044
X04127Y0208
X04189Y02037
X04258Y02068
X04272Y02126
X04323Y02125
X04391Y02101
Y02052
X04392Y01992
X04391Y01961
X04394Y0193
X04392Y01897
Y01863
X04393Y01832
X04391Y01798
Y01768
X04437Y01731
X04489Y01706
X04548Y01659
X04519Y01611
X0445Y01604
X04268Y01635
X04238Y01591
X04123Y01468
X04318Y01754
X04316Y01787
X04309Y0182
X04318Y01853
X04321Y01892
X04317Y01924
X04322Y0196
X0432Y01994
X04248Y01933
X04012Y01946
X04024Y02023
Y02138
X04055Y02133
X04011Y02192
X04096Y02258
X04121Y02244
X04158Y0231
X04226Y02291
X04243Y02267
X04327Y02308
X04326Y02413
Y02448
X04323Y02479
X04327Y02509
X04322Y02551
Y02578
X04321Y02611
X04329Y02644
X04403Y02651
X04404Y02618
X04402Y02585
X04403Y02551
X044Y02507
X04401Y02475
X04405Y02445
X04403Y02422
X04435Y02323
X04436Y02221
X04512Y02261
X04524Y0216
X0449Y02373
X04612Y02469
X0463Y0249
X0461Y02509
Y02549
X0463Y0253
X04631Y02569
Y02608
X04612Y02591
X04684Y027
X04488Y02856
X04255Y028563
X04235Y028
Y0276
X04205Y02692
X04136Y02748
X04141Y0277209
X04035Y02798
X04019Y02854
X04008Y02674
X0406Y02679
X04134Y02636
Y02599
Y02559
Y02519
X04135Y02479
Y02442
X04137Y02401
X04075Y02368
X04036Y02372
X04055Y0244094
X0468504Y02266
X04735Y02213
X04765Y02196
X04805Y02348
X04791Y02369
X04956Y0247
X04969Y0249
X04983Y0251
X05Y0253
X05012Y0255
X05025Y02569
X05041Y02589
X05054Y02609
X05182Y02858
X05181Y0225
Y02211
X05182Y01949
Y01725
X04986Y01694
X04992Y01656
X05018Y01588
X05035Y01542
X05058Y01514
X05181Y01488
X04971Y01445
X04841Y01453
X04717Y01436
X04757Y01527
X0468504Y01592
X04578Y01742
X04605Y01809
X0462271Y0183071
X04609Y01851
X04623Y0187
X0461139Y018895
X04623Y01909
X04611Y01929
X04624Y01948
X04741Y01981
X04725Y02002
X0468504Y02039
X04921Y01934
X04939Y0195
X04907Y01911
X04892Y01889
X0488Y01864
X04865Y01845
X0485Y01823
X04834Y01795
X04967Y01779
X04969Y01743
X04958Y01836
X05625Y01557
X05724Y02619
T02
X00926Y01312
X01026
X01326
X01526
T03
X0528701Y0065276
Y0075276
Y0085276
Y0095276
Y0105276
Y0115276
Y0125276
Y0135276
X0536201Y0130276
Y0120276
Y0110276
Y0100276
Y0090276
Y0080276
Y0070276
X0543701Y0065276
Y0075276
Y0085276
Y0095276
Y0105276
Y0115276
Y0125276
Y0135276
X0551201Y0130276
Y0120276
Y0110276
Y0100276
Y0090276
Y0080276
Y0070276
Y0140276
X0536201
Y0150276
Y0160276
Y0170276
Y0180276
Y0190276
Y0200276
Y0210276
Y0220276
Y0230276
X0543701Y0225276
Y0215276
Y0205276
Y0195276
Y0185276
Y0175276
Y0165276
Y0155276
Y0145276
X0551201Y0150276
Y0160276
Y0170276
Y0180276
Y0190276
Y0200276
Y0210276
Y0220276
Y0230276
X0528701Y0225276
Y0215276
Y0205276
Y0195276
Y0185276
Y0175276
Y0165276
Y0155276
Y0145276
T04
X0029488Y0080905
X0037362
Y0090748
X0029488
X0029882Y0205709
X0037756
Y0215551
X0029882
T05
X0314961Y0077795
X0324961
Y0087795
X0314961
Y0097795
X0324961
Y0107795
X0314961
Y0117795
X0324961
Y0127795
X0314961
Y0137795
X0324961
Y0147795
X0314961
Y0157795
X0324961
Y0167795
X0314961
Y0177795
X0324961
Y0187795
X0314961
Y0197795
X0324961
Y0207795
X0314961
Y0217795
X0324961
T06
X03173Y00218
X03273
X01794Y01304
X01694
X00756Y0131
X00656
T07
X0319882Y003937
X0239173Y0035433
X0236221Y0088583
X0207677Y007874
X01691Y01023
X0095Y00175
X009Y0265
X0283465Y0237205
X0307087Y0236221
X03247Y02394
X028248Y0208661
X0291339Y016437
X04401Y01485
T08
X0594095Y0015748
X0485728
X027559
X0015748
Y0279528
X027559
X0485728
X0594095
T09
X0539901Y0033776
Y0261976
T10
X03131Y02645
X03091Y02845
X03171
T11
X0011811Y0070079
Y0101575
X0012205Y0194882
Y0226378
T12
X03031Y02645
Y0277
X03231
Y02645
M30
