G04*
G04 #@! TF.GenerationSoftware,Altium Limited,Altium Designer,19.0.15 (446)*
G04*
G04 Layer_Color=128*
%FSLAX25Y25*%
%MOIN*%
G70*
G01*
G75*
%ADD28R,0.03740X0.03740*%
%ADD29R,0.02362X0.01968*%
%ADD30R,0.01968X0.02362*%
%ADD32R,0.03543X0.01575*%
%ADD33R,0.06693X0.09843*%
%ADD34R,0.03937X0.07087*%
G04:AMPARAMS|DCode=91|XSize=19.68mil|YSize=9.84mil|CornerRadius=2.46mil|HoleSize=0mil|Usage=FLASHONLY|Rotation=180.000|XOffset=0mil|YOffset=0mil|HoleType=Round|Shape=RoundedRectangle|*
%AMROUNDEDRECTD91*
21,1,0.01968,0.00492,0,0,180.0*
21,1,0.01476,0.00984,0,0,180.0*
1,1,0.00492,-0.00738,0.00246*
1,1,0.00492,0.00738,0.00246*
1,1,0.00492,0.00738,-0.00246*
1,1,0.00492,-0.00738,-0.00246*
%
%ADD91ROUNDEDRECTD91*%
%ADD92R,0.03937X0.10433*%
%ADD93O,0.01181X0.07087*%
%ADD94O,0.07087X0.01181*%
%ADD95R,0.04921X0.01968*%
%ADD96R,0.08268X0.03543*%
%ADD97R,0.08268X0.12598*%
%ADD98R,0.07520X0.02992*%
%ADD99R,0.03000X0.12500*%
%ADD100R,0.19000X0.03000*%
%ADD101R,0.15900X0.03000*%
%ADD102R,0.03000X0.16000*%
%ADD103R,0.01575X0.03543*%
%ADD104O,0.09449X0.01772*%
%ADD105R,0.21654X0.21654*%
%ADD106R,0.15748X0.15748*%
%ADD107R,0.10906X0.10039*%
%ADD108R,0.02362X0.01181*%
%ADD109R,0.04724X0.09843*%
%ADD110R,0.03937X0.01575*%
%ADD111R,0.07087X0.03937*%
%ADD112R,0.03347X0.13976*%
%ADD113R,0.03347X0.10433*%
%ADD114R,0.02362X0.01575*%
%ADD115R,0.01575X0.02362*%
D28*
X400138Y392425D02*
D03*
Y386717D02*
D03*
Y324413D02*
D03*
Y318705D02*
D03*
Y258469D02*
D03*
Y252760D02*
D03*
Y191539D02*
D03*
Y185831D02*
D03*
X241673Y305909D02*
D03*
Y311618D02*
D03*
X249547Y310831D02*
D03*
Y316539D02*
D03*
D29*
X447700Y205400D02*
D03*
X443763D02*
D03*
X447800Y272300D02*
D03*
X443863D02*
D03*
X448000Y339500D02*
D03*
X444063D02*
D03*
X448337Y406200D02*
D03*
X444400D02*
D03*
X434063Y205400D02*
D03*
X438000D02*
D03*
X434063Y272300D02*
D03*
X438000D02*
D03*
X434063Y339500D02*
D03*
X438000D02*
D03*
X435063Y406200D02*
D03*
X439000D02*
D03*
X440500Y329600D02*
D03*
X444437D02*
D03*
X437539Y401284D02*
D03*
X441476D02*
D03*
X437539Y381598D02*
D03*
X441476D02*
D03*
X443445Y200496D02*
D03*
X439508D02*
D03*
X214114Y234945D02*
D03*
X210177D02*
D03*
X235768Y333370D02*
D03*
X239705D02*
D03*
X542264Y454827D02*
D03*
X538327D02*
D03*
X541870Y181205D02*
D03*
X537933D02*
D03*
X444429Y334354D02*
D03*
X440492D02*
D03*
X443445Y196559D02*
D03*
X439508D02*
D03*
X173760Y212307D02*
D03*
X169823D02*
D03*
X182618D02*
D03*
X178681D02*
D03*
X191476Y237898D02*
D03*
X187539D02*
D03*
X214114Y231008D02*
D03*
X210177D02*
D03*
D30*
X406043Y391441D02*
D03*
Y387504D02*
D03*
Y323528D02*
D03*
Y319590D02*
D03*
Y257583D02*
D03*
Y253646D02*
D03*
Y190654D02*
D03*
Y186716D02*
D03*
X422776Y387504D02*
D03*
Y391441D02*
D03*
X432500Y440963D02*
D03*
Y444900D02*
D03*
X202303Y220181D02*
D03*
Y216244D02*
D03*
X224941Y220181D02*
D03*
Y224118D02*
D03*
X221004D02*
D03*
Y220181D02*
D03*
X232815Y306795D02*
D03*
Y310732D02*
D03*
X236752Y306795D02*
D03*
Y310732D02*
D03*
X224941Y314669D02*
D03*
Y310732D02*
D03*
X237736Y300890D02*
D03*
Y296953D02*
D03*
X163917Y212307D02*
D03*
Y208370D02*
D03*
X158012Y212307D02*
D03*
Y208370D02*
D03*
X152106Y212307D02*
D03*
Y208370D02*
D03*
X426713Y387504D02*
D03*
Y391441D02*
D03*
X428700Y444937D02*
D03*
Y441000D02*
D03*
X224941Y215260D02*
D03*
Y211323D02*
D03*
X228878Y216244D02*
D03*
Y220181D02*
D03*
X224941Y232976D02*
D03*
Y229039D02*
D03*
X228878Y310732D02*
D03*
Y306795D02*
D03*
D32*
X572417Y290713D02*
D03*
Y288154D02*
D03*
Y285595D02*
D03*
X563756D02*
D03*
Y288154D02*
D03*
Y290713D02*
D03*
Y307839D02*
D03*
Y305279D02*
D03*
Y302720D02*
D03*
X572417D02*
D03*
Y305279D02*
D03*
Y307839D02*
D03*
D33*
X55256Y330024D02*
D03*
Y345772D02*
D03*
X272185Y407189D02*
D03*
Y422937D02*
D03*
X55256Y288291D02*
D03*
Y304039D02*
D03*
D34*
X163706Y270300D02*
D03*
X151894D02*
D03*
D91*
X208405Y216213D02*
D03*
Y218181D02*
D03*
Y220150D02*
D03*
Y222118D02*
D03*
Y224087D02*
D03*
Y226055D02*
D03*
X215886D02*
D03*
Y224087D02*
D03*
Y222118D02*
D03*
Y220150D02*
D03*
Y218181D02*
D03*
Y216213D02*
D03*
D92*
X212146Y221165D02*
D03*
D93*
X413917Y443803D02*
D03*
X411949D02*
D03*
X409980D02*
D03*
X408012D02*
D03*
X406043D02*
D03*
X404075D02*
D03*
X402106D02*
D03*
X400138D02*
D03*
X398169D02*
D03*
X396201D02*
D03*
X394232D02*
D03*
X392264D02*
D03*
X390295D02*
D03*
X388327D02*
D03*
X386358D02*
D03*
X384390D02*
D03*
Y400102D02*
D03*
X386358D02*
D03*
X388327D02*
D03*
X390295D02*
D03*
X392264D02*
D03*
X394232D02*
D03*
X396201D02*
D03*
X398169D02*
D03*
X400138D02*
D03*
X402106D02*
D03*
X404075D02*
D03*
X406043D02*
D03*
X408012D02*
D03*
X409980D02*
D03*
X411949D02*
D03*
X413917D02*
D03*
Y243756D02*
D03*
X411949D02*
D03*
X409980D02*
D03*
X408012D02*
D03*
X406043D02*
D03*
X404075D02*
D03*
X402106D02*
D03*
X400138D02*
D03*
X398169D02*
D03*
X396201D02*
D03*
X394232D02*
D03*
X392264D02*
D03*
X390295D02*
D03*
X388327D02*
D03*
X386358D02*
D03*
X384390D02*
D03*
Y200055D02*
D03*
X386358D02*
D03*
X388327D02*
D03*
X390295D02*
D03*
X392264D02*
D03*
X394232D02*
D03*
X396201D02*
D03*
X398169D02*
D03*
X400138D02*
D03*
X402106D02*
D03*
X404075D02*
D03*
X406043D02*
D03*
X408012D02*
D03*
X409980D02*
D03*
X411949D02*
D03*
X413917D02*
D03*
Y310438D02*
D03*
X411949D02*
D03*
X409980D02*
D03*
X408012D02*
D03*
X406043D02*
D03*
X404075D02*
D03*
X402106D02*
D03*
X400138D02*
D03*
X398169D02*
D03*
X396201D02*
D03*
X394232D02*
D03*
X392264D02*
D03*
X390295D02*
D03*
X388327D02*
D03*
X386358D02*
D03*
X384390D02*
D03*
Y266738D02*
D03*
X386358D02*
D03*
X388327D02*
D03*
X390295D02*
D03*
X392264D02*
D03*
X394232D02*
D03*
X396201D02*
D03*
X398169D02*
D03*
X400138D02*
D03*
X402106D02*
D03*
X404075D02*
D03*
X406043D02*
D03*
X408012D02*
D03*
X409980D02*
D03*
X411949D02*
D03*
X413917D02*
D03*
Y377121D02*
D03*
X411949D02*
D03*
X409980D02*
D03*
X408012D02*
D03*
X406043D02*
D03*
X404075D02*
D03*
X402106D02*
D03*
X400138D02*
D03*
X398169D02*
D03*
X396201D02*
D03*
X394232D02*
D03*
X392264D02*
D03*
X390295D02*
D03*
X388327D02*
D03*
X386358D02*
D03*
X384390D02*
D03*
Y333420D02*
D03*
X386358D02*
D03*
X388327D02*
D03*
X390295D02*
D03*
X392264D02*
D03*
X394232D02*
D03*
X396201D02*
D03*
X398169D02*
D03*
X400138D02*
D03*
X402106D02*
D03*
X404075D02*
D03*
X406043D02*
D03*
X408012D02*
D03*
X409980D02*
D03*
X411949D02*
D03*
X413917D02*
D03*
D94*
X377303Y436717D02*
D03*
Y434748D02*
D03*
Y432780D02*
D03*
Y430811D02*
D03*
Y428843D02*
D03*
Y426874D02*
D03*
Y424905D02*
D03*
Y422937D02*
D03*
Y420968D02*
D03*
Y419000D02*
D03*
Y417031D02*
D03*
Y415063D02*
D03*
Y413095D02*
D03*
Y411126D02*
D03*
Y409158D02*
D03*
Y407189D02*
D03*
X421004D02*
D03*
Y409158D02*
D03*
Y411126D02*
D03*
Y413095D02*
D03*
Y415063D02*
D03*
Y417031D02*
D03*
Y419000D02*
D03*
Y420968D02*
D03*
Y422937D02*
D03*
Y424905D02*
D03*
Y426874D02*
D03*
Y428843D02*
D03*
Y430811D02*
D03*
Y432780D02*
D03*
Y434748D02*
D03*
Y436717D02*
D03*
X377303Y236669D02*
D03*
Y234701D02*
D03*
Y232732D02*
D03*
Y230764D02*
D03*
Y228795D02*
D03*
Y226827D02*
D03*
Y224858D02*
D03*
Y222890D02*
D03*
Y220921D02*
D03*
Y218953D02*
D03*
Y216984D02*
D03*
Y215016D02*
D03*
Y213047D02*
D03*
Y211079D02*
D03*
Y209110D02*
D03*
Y207142D02*
D03*
X421004D02*
D03*
Y209110D02*
D03*
Y211079D02*
D03*
Y213047D02*
D03*
Y215016D02*
D03*
Y216984D02*
D03*
Y218953D02*
D03*
Y220921D02*
D03*
Y222890D02*
D03*
Y224858D02*
D03*
Y226827D02*
D03*
Y228795D02*
D03*
Y230764D02*
D03*
Y232732D02*
D03*
Y234701D02*
D03*
Y236669D02*
D03*
X377303Y303352D02*
D03*
Y301383D02*
D03*
Y299415D02*
D03*
Y297446D02*
D03*
Y295478D02*
D03*
Y293509D02*
D03*
Y291541D02*
D03*
Y289572D02*
D03*
Y287604D02*
D03*
Y285635D02*
D03*
Y283667D02*
D03*
Y281698D02*
D03*
Y279730D02*
D03*
Y277761D02*
D03*
Y275793D02*
D03*
Y273824D02*
D03*
X421004D02*
D03*
Y275793D02*
D03*
Y277761D02*
D03*
Y279730D02*
D03*
Y281698D02*
D03*
Y283667D02*
D03*
Y285635D02*
D03*
Y287604D02*
D03*
Y289572D02*
D03*
Y291541D02*
D03*
Y293509D02*
D03*
Y295478D02*
D03*
Y297446D02*
D03*
Y299415D02*
D03*
Y301383D02*
D03*
Y303352D02*
D03*
X377303Y370034D02*
D03*
Y368066D02*
D03*
Y366097D02*
D03*
Y364129D02*
D03*
Y362160D02*
D03*
Y360192D02*
D03*
Y358223D02*
D03*
Y356255D02*
D03*
Y354286D02*
D03*
Y352318D02*
D03*
Y350349D02*
D03*
Y348381D02*
D03*
Y346412D02*
D03*
Y344444D02*
D03*
Y342475D02*
D03*
Y340507D02*
D03*
X421004D02*
D03*
Y342475D02*
D03*
Y344444D02*
D03*
Y346412D02*
D03*
Y348381D02*
D03*
Y350349D02*
D03*
Y352318D02*
D03*
Y354286D02*
D03*
Y356255D02*
D03*
Y358223D02*
D03*
Y360192D02*
D03*
Y362160D02*
D03*
Y364129D02*
D03*
Y366097D02*
D03*
Y368066D02*
D03*
Y370034D02*
D03*
D95*
X435571Y387701D02*
D03*
Y391441D02*
D03*
Y395181D02*
D03*
X445886Y387701D02*
D03*
Y395181D02*
D03*
D96*
X175120Y260955D02*
D03*
Y251900D02*
D03*
Y242845D02*
D03*
D97*
X152680Y251900D02*
D03*
D98*
X141240Y247898D02*
D03*
Y242898D02*
D03*
Y237898D02*
D03*
X98957D02*
D03*
Y242898D02*
D03*
Y247898D02*
D03*
X99193Y391047D02*
D03*
Y396047D02*
D03*
Y401047D02*
D03*
X141476D02*
D03*
Y396047D02*
D03*
Y391047D02*
D03*
X98957Y258410D02*
D03*
Y263409D02*
D03*
Y268409D02*
D03*
X141240D02*
D03*
Y263409D02*
D03*
Y258410D02*
D03*
X141476Y379236D02*
D03*
Y374236D02*
D03*
Y369236D02*
D03*
X99193D02*
D03*
Y374236D02*
D03*
Y379236D02*
D03*
D99*
X471004Y449830D02*
D03*
X362804D02*
D03*
Y184130D02*
D03*
X471004D02*
D03*
D100*
X463004Y454630D02*
D03*
X370804D02*
D03*
Y177630D02*
D03*
X463004D02*
D03*
D101*
X392904Y454630D02*
D03*
X415804D02*
D03*
X438704D02*
D03*
X393004Y177630D02*
D03*
X415804D02*
D03*
X438704D02*
D03*
D102*
X362804Y429630D02*
D03*
Y407130D02*
D03*
Y384630D02*
D03*
Y362130D02*
D03*
Y339630D02*
D03*
Y317130D02*
D03*
Y294630D02*
D03*
Y272130D02*
D03*
Y249630D02*
D03*
Y227130D02*
D03*
Y204630D02*
D03*
X471004Y429630D02*
D03*
Y407130D02*
D03*
Y384630D02*
D03*
Y362130D02*
D03*
Y339630D02*
D03*
Y317130D02*
D03*
Y294630D02*
D03*
Y272130D02*
D03*
Y249630D02*
D03*
Y227130D02*
D03*
Y204630D02*
D03*
D103*
X515433Y376756D02*
D03*
X517992D02*
D03*
X520551D02*
D03*
Y385417D02*
D03*
X517992D02*
D03*
X515433D02*
D03*
X515315Y230417D02*
D03*
X517874D02*
D03*
X520433D02*
D03*
Y221756D02*
D03*
X517874D02*
D03*
X515315D02*
D03*
Y261756D02*
D03*
X517874D02*
D03*
X520433D02*
D03*
Y270417D02*
D03*
X517874D02*
D03*
X515315D02*
D03*
X515433Y311756D02*
D03*
X517992D02*
D03*
X520551D02*
D03*
Y303095D02*
D03*
X517992D02*
D03*
X515433D02*
D03*
Y351756D02*
D03*
X517992D02*
D03*
X520551D02*
D03*
Y360417D02*
D03*
X517992D02*
D03*
X515433D02*
D03*
X515315Y250417D02*
D03*
X517874D02*
D03*
X520433D02*
D03*
Y241756D02*
D03*
X517874D02*
D03*
X515315D02*
D03*
Y281756D02*
D03*
X517874D02*
D03*
X520433D02*
D03*
Y290417D02*
D03*
X517874D02*
D03*
X515315D02*
D03*
X515433Y336756D02*
D03*
X517992D02*
D03*
X520551D02*
D03*
Y328095D02*
D03*
X517992D02*
D03*
X515433D02*
D03*
D104*
X55256Y233862D02*
D03*
Y236421D02*
D03*
Y238980D02*
D03*
Y241539D02*
D03*
Y244098D02*
D03*
Y246657D02*
D03*
Y249217D02*
D03*
Y251776D02*
D03*
Y254335D02*
D03*
Y256894D02*
D03*
Y259453D02*
D03*
Y262012D02*
D03*
Y264571D02*
D03*
Y267130D02*
D03*
X82028Y233862D02*
D03*
Y236421D02*
D03*
Y238980D02*
D03*
Y241539D02*
D03*
Y244098D02*
D03*
Y246657D02*
D03*
Y249217D02*
D03*
Y251776D02*
D03*
Y254335D02*
D03*
Y256894D02*
D03*
Y259453D02*
D03*
Y262012D02*
D03*
Y264571D02*
D03*
Y267130D02*
D03*
X56043Y365358D02*
D03*
Y367917D02*
D03*
Y370476D02*
D03*
Y373035D02*
D03*
Y375594D02*
D03*
Y378153D02*
D03*
Y380713D02*
D03*
Y383272D02*
D03*
Y385831D02*
D03*
Y388390D02*
D03*
Y390949D02*
D03*
Y393508D02*
D03*
Y396067D02*
D03*
Y398626D02*
D03*
X82815Y365358D02*
D03*
Y367917D02*
D03*
Y370476D02*
D03*
Y373035D02*
D03*
Y375594D02*
D03*
Y378153D02*
D03*
Y380713D02*
D03*
Y383272D02*
D03*
Y385831D02*
D03*
Y388390D02*
D03*
Y390949D02*
D03*
Y393508D02*
D03*
Y396067D02*
D03*
Y398626D02*
D03*
D105*
X151909Y423921D02*
D03*
X252697D02*
D03*
D106*
X202303D02*
D03*
D107*
X143400Y337000D02*
D03*
X168754D02*
D03*
X178254Y228200D02*
D03*
X152900D02*
D03*
X96400Y336900D02*
D03*
X71046D02*
D03*
D108*
X460177Y247740D02*
D03*
Y249709D02*
D03*
Y251677D02*
D03*
Y253646D02*
D03*
Y255614D02*
D03*
Y257583D02*
D03*
Y259551D02*
D03*
Y261520D02*
D03*
X453878Y247740D02*
D03*
Y249709D02*
D03*
Y251677D02*
D03*
Y253646D02*
D03*
Y255614D02*
D03*
Y257583D02*
D03*
Y259551D02*
D03*
Y261520D02*
D03*
X460571Y416047D02*
D03*
Y418016D02*
D03*
Y419984D02*
D03*
Y421953D02*
D03*
Y423921D02*
D03*
Y425890D02*
D03*
Y427858D02*
D03*
Y429827D02*
D03*
X454272Y416047D02*
D03*
Y418016D02*
D03*
Y419984D02*
D03*
Y421953D02*
D03*
Y423921D02*
D03*
Y425890D02*
D03*
Y427858D02*
D03*
Y429827D02*
D03*
X453878Y363882D02*
D03*
Y361913D02*
D03*
Y359945D02*
D03*
Y357976D02*
D03*
Y356008D02*
D03*
Y354039D02*
D03*
Y352071D02*
D03*
Y350102D02*
D03*
X460177Y363882D02*
D03*
Y361913D02*
D03*
Y359945D02*
D03*
Y357976D02*
D03*
Y356008D02*
D03*
Y354039D02*
D03*
Y352071D02*
D03*
Y350102D02*
D03*
Y283173D02*
D03*
Y285142D02*
D03*
Y287110D02*
D03*
Y289079D02*
D03*
Y291047D02*
D03*
Y293016D02*
D03*
Y294984D02*
D03*
Y296953D02*
D03*
X453878Y283173D02*
D03*
Y285142D02*
D03*
Y287110D02*
D03*
Y289079D02*
D03*
Y291047D02*
D03*
Y293016D02*
D03*
Y294984D02*
D03*
Y296953D02*
D03*
Y231008D02*
D03*
Y229039D02*
D03*
Y227071D02*
D03*
Y225102D02*
D03*
Y223134D02*
D03*
Y221165D02*
D03*
Y219197D02*
D03*
Y217228D02*
D03*
X460177Y231008D02*
D03*
Y229039D02*
D03*
Y227071D02*
D03*
Y225102D02*
D03*
Y223134D02*
D03*
Y221165D02*
D03*
Y219197D02*
D03*
Y217228D02*
D03*
D109*
X380059Y188685D02*
D03*
X392264D02*
D03*
X380059Y388488D02*
D03*
X392264D02*
D03*
X380059Y321559D02*
D03*
X392264D02*
D03*
X380059Y255614D02*
D03*
X392264D02*
D03*
D110*
X438130Y252071D02*
D03*
Y248921D02*
D03*
Y245772D02*
D03*
Y242622D02*
D03*
X444429Y252071D02*
D03*
Y248921D02*
D03*
Y245772D02*
D03*
Y242622D02*
D03*
X439114Y420378D02*
D03*
Y417228D02*
D03*
Y414079D02*
D03*
Y410929D02*
D03*
X445413Y420378D02*
D03*
Y417228D02*
D03*
Y414079D02*
D03*
Y410929D02*
D03*
X438130Y354630D02*
D03*
Y351480D02*
D03*
Y348331D02*
D03*
Y345181D02*
D03*
X444429Y354630D02*
D03*
Y351480D02*
D03*
Y348331D02*
D03*
Y345181D02*
D03*
X438130Y287701D02*
D03*
Y284551D02*
D03*
Y281402D02*
D03*
Y278252D02*
D03*
X444429Y287701D02*
D03*
Y284551D02*
D03*
Y281402D02*
D03*
Y278252D02*
D03*
X438130Y220772D02*
D03*
Y217622D02*
D03*
Y214472D02*
D03*
Y211323D02*
D03*
X444429Y220772D02*
D03*
Y217622D02*
D03*
Y214472D02*
D03*
Y211323D02*
D03*
X439114Y433961D02*
D03*
Y430811D02*
D03*
Y427661D02*
D03*
Y424512D02*
D03*
X445413Y433961D02*
D03*
Y430811D02*
D03*
Y427661D02*
D03*
Y424512D02*
D03*
X438130Y368803D02*
D03*
Y365653D02*
D03*
Y362504D02*
D03*
Y359354D02*
D03*
X444429Y368803D02*
D03*
Y365653D02*
D03*
Y362504D02*
D03*
Y359354D02*
D03*
X438100Y301400D02*
D03*
Y298250D02*
D03*
Y295101D02*
D03*
Y291951D02*
D03*
X444399Y301400D02*
D03*
Y298250D02*
D03*
Y295101D02*
D03*
Y291951D02*
D03*
X438130Y234551D02*
D03*
Y231402D02*
D03*
Y228252D02*
D03*
Y225102D02*
D03*
X444429Y234551D02*
D03*
Y231402D02*
D03*
Y228252D02*
D03*
Y225102D02*
D03*
X438130Y266047D02*
D03*
Y262898D02*
D03*
Y259748D02*
D03*
Y256598D02*
D03*
X444429Y266047D02*
D03*
Y262898D02*
D03*
Y259748D02*
D03*
Y256598D02*
D03*
D111*
X201319Y225987D02*
D03*
Y237798D02*
D03*
X191476Y213391D02*
D03*
Y225202D02*
D03*
X186555Y258467D02*
D03*
Y246656D02*
D03*
X196398Y258467D02*
D03*
Y246656D02*
D03*
D112*
X146201Y181159D02*
D03*
X152106D02*
D03*
X158012D02*
D03*
X163917D02*
D03*
X169823D02*
D03*
X175728D02*
D03*
D113*
X146201Y196559D02*
D03*
X152106D02*
D03*
X158012D02*
D03*
X163917D02*
D03*
X169823D02*
D03*
X175728D02*
D03*
D114*
X427697Y381598D02*
D03*
Y379039D02*
D03*
X454272Y334945D02*
D03*
Y332386D02*
D03*
D115*
X440886Y191638D02*
D03*
X443445D02*
D03*
M02*
